<?xml version="1.0" encoding="utf-8"?>
<!-- Generator: Adobe Illustrator 27.0.0, SVG Export Plug-In . SVG Version: 6.00 Build 0)  -->
<svg version="1.1" id="Layer_1" xmlns="http://www.w3.org/2000/svg" xmlns:xlink="http://www.w3.org/1999/xlink" x="0px" y="0px"
	 viewBox="0 0 262.2 70.9" style="enable-background:new 0 0 262.2 70.9;" xml:space="preserve">
<style type="text/css">
	.st0{fill:none;stroke:#000000;stroke-miterlimit:10;}
	.st1{font-family:'Roboto-Light';}
	.st2{font-size:10px;}
	.st3{font-family:'Roboto-Bold';}
	.st4{fill:none;stroke:#77787B;stroke-miterlimit:10;}
	.st5{fill:none;stroke:#656668;stroke-width:0.75;stroke-miterlimit:10;}
	.st6{fill:#656668;}
</style>
<rect x="74.4" y="10.6" class="st0" width="21.3" height="21.3"/>
<text transform="matrix(1 0 0 1 77.219 24.5646)" class="st1 st2">d[0]</text>
<text transform="matrix(1 0 0 1 161.4152 60.2364)" class="st1 st2">d(3)</text>
<text transform="matrix(1 0 0 1 111.2788 60.2364)" class="st1 st2">d(1.3)</text>
<rect x="102.8" y="10.6" class="st0" width="21.3" height="21.3"/>
<text transform="matrix(1 0 0 1 105.5654 24.5646)" class="st1 st2">d[1]</text>
<rect x="131.1" y="10.6" class="st0" width="21.3" height="21.3"/>
<text transform="matrix(1 0 0 1 133.9119 24.5646)" class="st1 st2">d[2]</text>
<rect x="159.4" y="10.6" class="st0" width="21.3" height="21.3"/>
<text transform="matrix(1 0 0 1 162.2583 24.5646)" class="st1 st2">d[3]</text>
<rect x="187.8" y="10.6" class="st0" width="21.3" height="21.3"/>
<text transform="matrix(1 0 0 1 190.6048 24.5646)" class="st1 st2">d[4]</text>
<rect x="230.3" y="10.6" class="st0" width="21.3" height="21.3"/>
<text transform="matrix(1 0 0 1 232.3457 24.5646)" class="st1 st2">d[N]</text>
<text transform="matrix(1 0 0 1 215.3271 21.9596)" class="st3 st2">...</text>
<rect x="70.9" y="7.1" class="st4" width="184.3" height="28.3"/>
<text transform="matrix(1 0 0 1 7.6979 24.8029)" class="st1 st2">d.push(val)</text>
<g>
	<g>
		<line class="st5" x1="56.7" y1="21.3" x2="71.2" y2="21.3"/>
		<g>
			<polygon class="st6" points="70.5,23.5 74.4,21.3 70.5,19 			"/>
		</g>
	</g>
</g>
<g>
	<g>
		<line class="st5" x1="170.1" y1="31.9" x2="170.1" y2="46.4"/>
		<g>
			<polygon class="st6" points="167.8,45.7 170.1,49.6 172.3,45.7 			"/>
		</g>
	</g>
</g>
<g>
	<g>
		<line class="st5" x1="141.7" y1="31.9" x2="132.8" y2="46.8"/>
		<g>
			<polygon class="st6" points="131.2,45.1 131.1,49.6 135,47.4 			"/>
		</g>
	</g>
</g>
<g>
	<g>
		<line class="st5" x1="113.4" y1="31.9" x2="122.4" y2="46.8"/>
		<g>
			<polygon class="st6" points="120.1,47.4 124,49.6 123.9,45.1 			"/>
		</g>
	</g>
</g>
</svg>
