<?xml version="1.0" encoding="utf-8"?>
<!-- Generator: Adobe Illustrator 27.0.0, SVG Export Plug-In . SVG Version: 6.00 Build 0)  -->
<svg version="1.1" id="Layer_1" xmlns="http://www.w3.org/2000/svg" xmlns:xlink="http://www.w3.org/1999/xlink" x="0px" y="0px"
	 viewBox="0 0 372 283.5" style="enable-background:new 0 0 372 283.5;" xml:space="preserve">
<style type="text/css">
	.st0{fill:#FFFFFF;}
	.st1{fill:none;stroke:#505050;stroke-width:0.25;stroke-miterlimit:10;}
	
		.st2{clip-path:url(#SVGID_00000003791918443631708120000011454888808042574754_);fill:#505050;stroke:#505050;stroke-width:0.25;stroke-miterlimit:10;}
	.st3{fill:#505050;}
	.st4{fill:none;stroke:#1F77B4;stroke-width:1.5;stroke-linecap:square;stroke-linejoin:round;}
</style>
<g id="patch_2">
	<path class="st0" d="M8,273.8h357.1V7.7H8V273.8z"/>
</g>
<g id="line2d_16">
	<g>
		<g>
			<rect id="SVGID_1_" x="8" y="7.7" class="st1" width="357.1" height="266.1"/>
		</g>
	</g>
</g>
<g>
	<g>
		<g>
			<g>
				<defs>
					<rect id="SVGID_00000132799345931565287770000004536233854208004521_" x="8" y="7.7" width="357.1" height="266.1"/>
				</defs>
				<clipPath id="SVGID_00000106148497171474522060000018186528657285301648_">
					<use xlink:href="#SVGID_00000132799345931565287770000004536233854208004521_"  style="overflow:visible;"/>
				</clipPath>
				
					<path style="clip-path:url(#SVGID_00000106148497171474522060000018186528657285301648_);fill:#505050;stroke:#505050;stroke-width:0.25;stroke-miterlimit:10;" d="
					M186.6,273.8V7.7"/>
			</g>
		</g>
	</g>
</g>
<g id="patch_3">
	<path class="st3" d="M8,273.8V7.7"/>
</g>
<g id="patch_4">
	<path class="st3" d="M365.1,273.8V7.7"/>
</g>
<g id="patch_5">
	<path class="st3" d="M8,273.8h357.1"/>
</g>
<g id="patch_6">
	<path class="st3" d="M8,7.7h357.1"/>
</g>
<path class="st4" d="M365.1,7.7L365.1,7.7l-15,0.4l-21.4,0.8l-18.6,0.9l-16.4,1l-15,1.1L265,13.2l-12.5,1.4l-11.4,1.5l-10.7,1.7
	l-10,1.8l-9.3,1.9l-8.6,2l-8.2,2.1l-7.9,2.3l-7.5,2.4l-7.1,2.6l-6.8,2.7l-6.4,2.8l-6.4,3.1l-6.1,3.2l-6.1,3.4l-5.7,3.5l-5.7,3.8
	l-5.4,3.9l-5.4,4.2l-5.4,4.5l-5,4.5l-5,4.8l-5,5.2l-5,5.6l-4.6,5.5l-4.6,5.9l-4.6,6.3l-4.6,6.7l-4.6,7.2l-4.6,7.7l-4.6,8.2l-4.6,8.7
	l-4.3,8.6l-4.3,9.1l-4.3,9.7L38,181.8l-4.3,10.9l-4.3,11.6l-4.3,12.3l-4.3,13l-4.3,13.8l-4.3,14.7L8,273.8"/>
</svg>
