<?xml version="1.0" encoding="utf-8" standalone="no"?>
<!DOCTYPE svg PUBLIC "-//W3C//DTD SVG 1.1//EN"
  "http://www.w3.org/Graphics/SVG/1.1/DTD/svg11.dtd">
<svg xmlns:xlink="http://www.w3.org/1999/xlink" width="720pt" height="302.4pt" viewBox="0 0 720 302.4" xmlns="http://www.w3.org/2000/svg" version="1.1">
 <metadata>
  <rdf:RDF xmlns:dc="http://purl.org/dc/elements/1.1/" xmlns:cc="http://creativecommons.org/ns#" xmlns:rdf="http://www.w3.org/1999/02/22-rdf-syntax-ns#">
   <cc:Work>
    <dc:type rdf:resource="http://purl.org/dc/dcmitype/StillImage"/>
    <dc:date>2026-07-12T16:50:02.737784</dc:date>
    <dc:format>image/svg+xml</dc:format>
    <dc:creator>
     <cc:Agent>
      <dc:title>Matplotlib v3.9.4, https://matplotlib.org/</dc:title>
     </cc:Agent>
    </dc:creator>
   </cc:Work>
  </rdf:RDF>
 </metadata>
 <defs>
  <style type="text/css">*{stroke-linejoin: round; stroke-linecap: butt}</style>
 </defs>
 <g id="figure_1">
  <g id="patch_1">
   <path d="M 0 302.4 
L 720 302.4 
L 720 0 
L 0 0 
z
" style="fill: #ffffff"/>
  </g>
  <g id="axes_1">
   <g id="patch_2">
    <path d="M 59.33 260.44 
L 354.645 260.44 
L 354.645 28.25025 
L 59.33 28.25025 
z
" style="fill: #ffffff"/>
   </g>
   <g id="matplotlib.axis_1">
    <g id="xtick_1">
     <g id="line2d_1">
      <path d="M 59.33 260.44 
L 59.33 28.25025 
" clip-path="url(#p30ec69c195)" style="fill: none; stroke-dasharray: 2.96,1.28; stroke-dashoffset: 0; stroke: #b0b0b0; stroke-opacity: 0.5; stroke-width: 0.8"/>
     </g>
     <g id="line2d_2">
      <defs>
       <path id="mbafe937709" d="M 0 0 
L 0 3.5 
" style="stroke: #000000; stroke-width: 0.8"/>
      </defs>
      <g>
       <use xlink:href="#mbafe937709" x="59.33" y="260.44" style="stroke: #000000; stroke-width: 0.8"/>
      </g>
     </g>
     <g id="text_1">
      <!-- 0.0 -->
      <g transform="translate(51.378438 275.038438) scale(0.1 -0.1)">
       <defs>
        <path id="DejaVuSans-30" d="M 2034 4250 
Q 1547 4250 1301 3770 
Q 1056 3291 1056 2328 
Q 1056 1369 1301 889 
Q 1547 409 2034 409 
Q 2525 409 2770 889 
Q 3016 1369 3016 2328 
Q 3016 3291 2770 3770 
Q 2525 4250 2034 4250 
z
M 2034 4750 
Q 2819 4750 3233 4129 
Q 3647 3509 3647 2328 
Q 3647 1150 3233 529 
Q 2819 -91 2034 -91 
Q 1250 -91 836 529 
Q 422 1150 422 2328 
Q 422 3509 836 4129 
Q 1250 4750 2034 4750 
z
" transform="scale(0.015625)"/>
        <path id="DejaVuSans-2e" d="M 684 794 
L 1344 794 
L 1344 0 
L 684 0 
L 684 794 
z
" transform="scale(0.015625)"/>
       </defs>
       <use xlink:href="#DejaVuSans-30"/>
       <use xlink:href="#DejaVuSans-2e" x="63.623047"/>
       <use xlink:href="#DejaVuSans-30" x="95.410156"/>
      </g>
     </g>
    </g>
    <g id="xtick_2">
     <g id="line2d_3">
      <path d="M 92.812426 260.44 
L 92.812426 28.25025 
" clip-path="url(#p30ec69c195)" style="fill: none; stroke-dasharray: 2.96,1.28; stroke-dashoffset: 0; stroke: #b0b0b0; stroke-opacity: 0.5; stroke-width: 0.8"/>
     </g>
     <g id="line2d_4">
      <g>
       <use xlink:href="#mbafe937709" x="92.812426" y="260.44" style="stroke: #000000; stroke-width: 0.8"/>
      </g>
     </g>
     <g id="text_2">
      <!-- 2.5 -->
      <g transform="translate(84.860864 275.038438) scale(0.1 -0.1)">
       <defs>
        <path id="DejaVuSans-32" d="M 1228 531 
L 3431 531 
L 3431 0 
L 469 0 
L 469 531 
Q 828 903 1448 1529 
Q 2069 2156 2228 2338 
Q 2531 2678 2651 2914 
Q 2772 3150 2772 3378 
Q 2772 3750 2511 3984 
Q 2250 4219 1831 4219 
Q 1534 4219 1204 4116 
Q 875 4013 500 3803 
L 500 4441 
Q 881 4594 1212 4672 
Q 1544 4750 1819 4750 
Q 2544 4750 2975 4387 
Q 3406 4025 3406 3419 
Q 3406 3131 3298 2873 
Q 3191 2616 2906 2266 
Q 2828 2175 2409 1742 
Q 1991 1309 1228 531 
z
" transform="scale(0.015625)"/>
        <path id="DejaVuSans-35" d="M 691 4666 
L 3169 4666 
L 3169 4134 
L 1269 4134 
L 1269 2991 
Q 1406 3038 1543 3061 
Q 1681 3084 1819 3084 
Q 2600 3084 3056 2656 
Q 3513 2228 3513 1497 
Q 3513 744 3044 326 
Q 2575 -91 1722 -91 
Q 1428 -91 1123 -41 
Q 819 9 494 109 
L 494 744 
Q 775 591 1075 516 
Q 1375 441 1709 441 
Q 2250 441 2565 725 
Q 2881 1009 2881 1497 
Q 2881 1984 2565 2268 
Q 2250 2553 1709 2553 
Q 1456 2553 1204 2497 
Q 953 2441 691 2322 
L 691 4666 
z
" transform="scale(0.015625)"/>
       </defs>
       <use xlink:href="#DejaVuSans-32"/>
       <use xlink:href="#DejaVuSans-2e" x="63.623047"/>
       <use xlink:href="#DejaVuSans-35" x="95.410156"/>
      </g>
     </g>
    </g>
    <g id="xtick_3">
     <g id="line2d_5">
      <path d="M 126.294853 260.44 
L 126.294853 28.25025 
" clip-path="url(#p30ec69c195)" style="fill: none; stroke-dasharray: 2.96,1.28; stroke-dashoffset: 0; stroke: #b0b0b0; stroke-opacity: 0.5; stroke-width: 0.8"/>
     </g>
     <g id="line2d_6">
      <g>
       <use xlink:href="#mbafe937709" x="126.294853" y="260.44" style="stroke: #000000; stroke-width: 0.8"/>
      </g>
     </g>
     <g id="text_3">
      <!-- 5.0 -->
      <g transform="translate(118.34329 275.038438) scale(0.1 -0.1)">
       <use xlink:href="#DejaVuSans-35"/>
       <use xlink:href="#DejaVuSans-2e" x="63.623047"/>
       <use xlink:href="#DejaVuSans-30" x="95.410156"/>
      </g>
     </g>
    </g>
    <g id="xtick_4">
     <g id="line2d_7">
      <path d="M 159.777279 260.44 
L 159.777279 28.25025 
" clip-path="url(#p30ec69c195)" style="fill: none; stroke-dasharray: 2.96,1.28; stroke-dashoffset: 0; stroke: #b0b0b0; stroke-opacity: 0.5; stroke-width: 0.8"/>
     </g>
     <g id="line2d_8">
      <g>
       <use xlink:href="#mbafe937709" x="159.777279" y="260.44" style="stroke: #000000; stroke-width: 0.8"/>
      </g>
     </g>
     <g id="text_4">
      <!-- 7.5 -->
      <g transform="translate(151.825716 275.038438) scale(0.1 -0.1)">
       <defs>
        <path id="DejaVuSans-37" d="M 525 4666 
L 3525 4666 
L 3525 4397 
L 1831 0 
L 1172 0 
L 2766 4134 
L 525 4134 
L 525 4666 
z
" transform="scale(0.015625)"/>
       </defs>
       <use xlink:href="#DejaVuSans-37"/>
       <use xlink:href="#DejaVuSans-2e" x="63.623047"/>
       <use xlink:href="#DejaVuSans-35" x="95.410156"/>
      </g>
     </g>
    </g>
    <g id="xtick_5">
     <g id="line2d_9">
      <path d="M 193.259705 260.44 
L 193.259705 28.25025 
" clip-path="url(#p30ec69c195)" style="fill: none; stroke-dasharray: 2.96,1.28; stroke-dashoffset: 0; stroke: #b0b0b0; stroke-opacity: 0.5; stroke-width: 0.8"/>
     </g>
     <g id="line2d_10">
      <g>
       <use xlink:href="#mbafe937709" x="193.259705" y="260.44" style="stroke: #000000; stroke-width: 0.8"/>
      </g>
     </g>
     <g id="text_5">
      <!-- 10.0 -->
      <g transform="translate(182.126893 275.038438) scale(0.1 -0.1)">
       <defs>
        <path id="DejaVuSans-31" d="M 794 531 
L 1825 531 
L 1825 4091 
L 703 3866 
L 703 4441 
L 1819 4666 
L 2450 4666 
L 2450 531 
L 3481 531 
L 3481 0 
L 794 0 
L 794 531 
z
" transform="scale(0.015625)"/>
       </defs>
       <use xlink:href="#DejaVuSans-31"/>
       <use xlink:href="#DejaVuSans-30" x="63.623047"/>
       <use xlink:href="#DejaVuSans-2e" x="127.246094"/>
       <use xlink:href="#DejaVuSans-30" x="159.033203"/>
      </g>
     </g>
    </g>
    <g id="xtick_6">
     <g id="line2d_11">
      <path d="M 226.742132 260.44 
L 226.742132 28.25025 
" clip-path="url(#p30ec69c195)" style="fill: none; stroke-dasharray: 2.96,1.28; stroke-dashoffset: 0; stroke: #b0b0b0; stroke-opacity: 0.5; stroke-width: 0.8"/>
     </g>
     <g id="line2d_12">
      <g>
       <use xlink:href="#mbafe937709" x="226.742132" y="260.44" style="stroke: #000000; stroke-width: 0.8"/>
      </g>
     </g>
     <g id="text_6">
      <!-- 12.5 -->
      <g transform="translate(215.609319 275.038438) scale(0.1 -0.1)">
       <use xlink:href="#DejaVuSans-31"/>
       <use xlink:href="#DejaVuSans-32" x="63.623047"/>
       <use xlink:href="#DejaVuSans-2e" x="127.246094"/>
       <use xlink:href="#DejaVuSans-35" x="159.033203"/>
      </g>
     </g>
    </g>
    <g id="xtick_7">
     <g id="line2d_13">
      <path d="M 260.224558 260.44 
L 260.224558 28.25025 
" clip-path="url(#p30ec69c195)" style="fill: none; stroke-dasharray: 2.96,1.28; stroke-dashoffset: 0; stroke: #b0b0b0; stroke-opacity: 0.5; stroke-width: 0.8"/>
     </g>
     <g id="line2d_14">
      <g>
       <use xlink:href="#mbafe937709" x="260.224558" y="260.44" style="stroke: #000000; stroke-width: 0.8"/>
      </g>
     </g>
     <g id="text_7">
      <!-- 15.0 -->
      <g transform="translate(249.091745 275.038438) scale(0.1 -0.1)">
       <use xlink:href="#DejaVuSans-31"/>
       <use xlink:href="#DejaVuSans-35" x="63.623047"/>
       <use xlink:href="#DejaVuSans-2e" x="127.246094"/>
       <use xlink:href="#DejaVuSans-30" x="159.033203"/>
      </g>
     </g>
    </g>
    <g id="xtick_8">
     <g id="line2d_15">
      <path d="M 293.706984 260.44 
L 293.706984 28.25025 
" clip-path="url(#p30ec69c195)" style="fill: none; stroke-dasharray: 2.96,1.28; stroke-dashoffset: 0; stroke: #b0b0b0; stroke-opacity: 0.5; stroke-width: 0.8"/>
     </g>
     <g id="line2d_16">
      <g>
       <use xlink:href="#mbafe937709" x="293.706984" y="260.44" style="stroke: #000000; stroke-width: 0.8"/>
      </g>
     </g>
     <g id="text_8">
      <!-- 17.5 -->
      <g transform="translate(282.574172 275.038438) scale(0.1 -0.1)">
       <use xlink:href="#DejaVuSans-31"/>
       <use xlink:href="#DejaVuSans-37" x="63.623047"/>
       <use xlink:href="#DejaVuSans-2e" x="127.246094"/>
       <use xlink:href="#DejaVuSans-35" x="159.033203"/>
      </g>
     </g>
    </g>
    <g id="xtick_9">
     <g id="line2d_17">
      <path d="M 327.18941 260.44 
L 327.18941 28.25025 
" clip-path="url(#p30ec69c195)" style="fill: none; stroke-dasharray: 2.96,1.28; stroke-dashoffset: 0; stroke: #b0b0b0; stroke-opacity: 0.5; stroke-width: 0.8"/>
     </g>
     <g id="line2d_18">
      <g>
       <use xlink:href="#mbafe937709" x="327.18941" y="260.44" style="stroke: #000000; stroke-width: 0.8"/>
      </g>
     </g>
     <g id="text_9">
      <!-- 20.0 -->
      <g transform="translate(316.056598 275.038438) scale(0.1 -0.1)">
       <use xlink:href="#DejaVuSans-32"/>
       <use xlink:href="#DejaVuSans-30" x="63.623047"/>
       <use xlink:href="#DejaVuSans-2e" x="127.246094"/>
       <use xlink:href="#DejaVuSans-30" x="159.033203"/>
      </g>
     </g>
    </g>
    <g id="text_10">
     <!-- Frequency (kHz) -->
     <g transform="translate(166.3875 288.716563) scale(0.1 -0.1)">
      <defs>
       <path id="DejaVuSans-46" d="M 628 4666 
L 3309 4666 
L 3309 4134 
L 1259 4134 
L 1259 2759 
L 3109 2759 
L 3109 2228 
L 1259 2228 
L 1259 0 
L 628 0 
L 628 4666 
z
" transform="scale(0.015625)"/>
       <path id="DejaVuSans-72" d="M 2631 2963 
Q 2534 3019 2420 3045 
Q 2306 3072 2169 3072 
Q 1681 3072 1420 2755 
Q 1159 2438 1159 1844 
L 1159 0 
L 581 0 
L 581 3500 
L 1159 3500 
L 1159 2956 
Q 1341 3275 1631 3429 
Q 1922 3584 2338 3584 
Q 2397 3584 2469 3576 
Q 2541 3569 2628 3553 
L 2631 2963 
z
" transform="scale(0.015625)"/>
       <path id="DejaVuSans-65" d="M 3597 1894 
L 3597 1613 
L 953 1613 
Q 991 1019 1311 708 
Q 1631 397 2203 397 
Q 2534 397 2845 478 
Q 3156 559 3463 722 
L 3463 178 
Q 3153 47 2828 -22 
Q 2503 -91 2169 -91 
Q 1331 -91 842 396 
Q 353 884 353 1716 
Q 353 2575 817 3079 
Q 1281 3584 2069 3584 
Q 2775 3584 3186 3129 
Q 3597 2675 3597 1894 
z
M 3022 2063 
Q 3016 2534 2758 2815 
Q 2500 3097 2075 3097 
Q 1594 3097 1305 2825 
Q 1016 2553 972 2059 
L 3022 2063 
z
" transform="scale(0.015625)"/>
       <path id="DejaVuSans-71" d="M 947 1747 
Q 947 1113 1208 752 
Q 1469 391 1925 391 
Q 2381 391 2643 752 
Q 2906 1113 2906 1747 
Q 2906 2381 2643 2742 
Q 2381 3103 1925 3103 
Q 1469 3103 1208 2742 
Q 947 2381 947 1747 
z
M 2906 525 
Q 2725 213 2448 61 
Q 2172 -91 1784 -91 
Q 1150 -91 751 415 
Q 353 922 353 1747 
Q 353 2572 751 3078 
Q 1150 3584 1784 3584 
Q 2172 3584 2448 3432 
Q 2725 3281 2906 2969 
L 2906 3500 
L 3481 3500 
L 3481 -1331 
L 2906 -1331 
L 2906 525 
z
" transform="scale(0.015625)"/>
       <path id="DejaVuSans-75" d="M 544 1381 
L 544 3500 
L 1119 3500 
L 1119 1403 
Q 1119 906 1312 657 
Q 1506 409 1894 409 
Q 2359 409 2629 706 
Q 2900 1003 2900 1516 
L 2900 3500 
L 3475 3500 
L 3475 0 
L 2900 0 
L 2900 538 
Q 2691 219 2414 64 
Q 2138 -91 1772 -91 
Q 1169 -91 856 284 
Q 544 659 544 1381 
z
M 1991 3584 
L 1991 3584 
z
" transform="scale(0.015625)"/>
       <path id="DejaVuSans-6e" d="M 3513 2113 
L 3513 0 
L 2938 0 
L 2938 2094 
Q 2938 2591 2744 2837 
Q 2550 3084 2163 3084 
Q 1697 3084 1428 2787 
Q 1159 2491 1159 1978 
L 1159 0 
L 581 0 
L 581 3500 
L 1159 3500 
L 1159 2956 
Q 1366 3272 1645 3428 
Q 1925 3584 2291 3584 
Q 2894 3584 3203 3211 
Q 3513 2838 3513 2113 
z
" transform="scale(0.015625)"/>
       <path id="DejaVuSans-63" d="M 3122 3366 
L 3122 2828 
Q 2878 2963 2633 3030 
Q 2388 3097 2138 3097 
Q 1578 3097 1268 2742 
Q 959 2388 959 1747 
Q 959 1106 1268 751 
Q 1578 397 2138 397 
Q 2388 397 2633 464 
Q 2878 531 3122 666 
L 3122 134 
Q 2881 22 2623 -34 
Q 2366 -91 2075 -91 
Q 1284 -91 818 406 
Q 353 903 353 1747 
Q 353 2603 823 3093 
Q 1294 3584 2113 3584 
Q 2378 3584 2631 3529 
Q 2884 3475 3122 3366 
z
" transform="scale(0.015625)"/>
       <path id="DejaVuSans-79" d="M 2059 -325 
Q 1816 -950 1584 -1140 
Q 1353 -1331 966 -1331 
L 506 -1331 
L 506 -850 
L 844 -850 
Q 1081 -850 1212 -737 
Q 1344 -625 1503 -206 
L 1606 56 
L 191 3500 
L 800 3500 
L 1894 763 
L 2988 3500 
L 3597 3500 
L 2059 -325 
z
" transform="scale(0.015625)"/>
       <path id="DejaVuSans-20" transform="scale(0.015625)"/>
       <path id="DejaVuSans-28" d="M 1984 4856 
Q 1566 4138 1362 3434 
Q 1159 2731 1159 2009 
Q 1159 1288 1364 580 
Q 1569 -128 1984 -844 
L 1484 -844 
Q 1016 -109 783 600 
Q 550 1309 550 2009 
Q 550 2706 781 3412 
Q 1013 4119 1484 4856 
L 1984 4856 
z
" transform="scale(0.015625)"/>
       <path id="DejaVuSans-6b" d="M 581 4863 
L 1159 4863 
L 1159 1991 
L 2875 3500 
L 3609 3500 
L 1753 1863 
L 3688 0 
L 2938 0 
L 1159 1709 
L 1159 0 
L 581 0 
L 581 4863 
z
" transform="scale(0.015625)"/>
       <path id="DejaVuSans-48" d="M 628 4666 
L 1259 4666 
L 1259 2753 
L 3553 2753 
L 3553 4666 
L 4184 4666 
L 4184 0 
L 3553 0 
L 3553 2222 
L 1259 2222 
L 1259 0 
L 628 0 
L 628 4666 
z
" transform="scale(0.015625)"/>
       <path id="DejaVuSans-7a" d="M 353 3500 
L 3084 3500 
L 3084 2975 
L 922 459 
L 3084 459 
L 3084 0 
L 275 0 
L 275 525 
L 2438 3041 
L 353 3041 
L 353 3500 
z
" transform="scale(0.015625)"/>
       <path id="DejaVuSans-29" d="M 513 4856 
L 1013 4856 
Q 1481 4119 1714 3412 
Q 1947 2706 1947 2009 
Q 1947 1309 1714 600 
Q 1481 -109 1013 -844 
L 513 -844 
Q 928 -128 1133 580 
Q 1338 1288 1338 2009 
Q 1338 2731 1133 3434 
Q 928 4138 513 4856 
z
" transform="scale(0.015625)"/>
      </defs>
      <use xlink:href="#DejaVuSans-46"/>
      <use xlink:href="#DejaVuSans-72" x="50.269531"/>
      <use xlink:href="#DejaVuSans-65" x="89.132812"/>
      <use xlink:href="#DejaVuSans-71" x="150.65625"/>
      <use xlink:href="#DejaVuSans-75" x="214.132812"/>
      <use xlink:href="#DejaVuSans-65" x="277.511719"/>
      <use xlink:href="#DejaVuSans-6e" x="339.035156"/>
      <use xlink:href="#DejaVuSans-63" x="402.414062"/>
      <use xlink:href="#DejaVuSans-79" x="457.394531"/>
      <use xlink:href="#DejaVuSans-20" x="516.574219"/>
      <use xlink:href="#DejaVuSans-28" x="548.361328"/>
      <use xlink:href="#DejaVuSans-6b" x="587.375"/>
      <use xlink:href="#DejaVuSans-48" x="645.285156"/>
      <use xlink:href="#DejaVuSans-7a" x="720.480469"/>
      <use xlink:href="#DejaVuSans-29" x="772.970703"/>
     </g>
    </g>
   </g>
   <g id="matplotlib.axis_2">
    <g id="ytick_1">
     <g id="line2d_19">
      <path d="M 59.33 34.360507 
L 354.645 34.360507 
" clip-path="url(#p30ec69c195)" style="fill: none; stroke-dasharray: 2.96,1.28; stroke-dashoffset: 0; stroke: #b0b0b0; stroke-opacity: 0.5; stroke-width: 0.8"/>
     </g>
     <g id="line2d_20">
      <defs>
       <path id="m8352b1ba0a" d="M 0 0 
L -3.5 0 
" style="stroke: #000000; stroke-width: 0.8"/>
      </defs>
      <g>
       <use xlink:href="#m8352b1ba0a" x="59.33" y="34.360507" style="stroke: #000000; stroke-width: 0.8"/>
      </g>
     </g>
     <g id="text_11">
      <!-- 0 -->
      <g transform="translate(45.9675 38.159725) scale(0.1 -0.1)">
       <use xlink:href="#DejaVuSans-30"/>
      </g>
     </g>
    </g>
    <g id="ytick_2">
     <g id="line2d_21">
      <path d="M 59.33 89.352816 
L 354.645 89.352816 
" clip-path="url(#p30ec69c195)" style="fill: none; stroke-dasharray: 2.96,1.28; stroke-dashoffset: 0; stroke: #b0b0b0; stroke-opacity: 0.5; stroke-width: 0.8"/>
     </g>
     <g id="line2d_22">
      <g>
       <use xlink:href="#m8352b1ba0a" x="59.33" y="89.352816" style="stroke: #000000; stroke-width: 0.8"/>
      </g>
     </g>
     <g id="text_12">
      <!-- −45 -->
      <g transform="translate(31.225313 93.152035) scale(0.1 -0.1)">
       <defs>
        <path id="DejaVuSans-2212" d="M 678 2272 
L 4684 2272 
L 4684 1741 
L 678 1741 
L 678 2272 
z
" transform="scale(0.015625)"/>
        <path id="DejaVuSans-34" d="M 2419 4116 
L 825 1625 
L 2419 1625 
L 2419 4116 
z
M 2253 4666 
L 3047 4666 
L 3047 1625 
L 3713 1625 
L 3713 1100 
L 3047 1100 
L 3047 0 
L 2419 0 
L 2419 1100 
L 313 1100 
L 313 1709 
L 2253 4666 
z
" transform="scale(0.015625)"/>
       </defs>
       <use xlink:href="#DejaVuSans-2212"/>
       <use xlink:href="#DejaVuSans-34" x="83.789062"/>
       <use xlink:href="#DejaVuSans-35" x="147.412109"/>
      </g>
     </g>
    </g>
    <g id="ytick_3">
     <g id="line2d_23">
      <path d="M 59.33 144.345125 
L 354.645 144.345125 
" clip-path="url(#p30ec69c195)" style="fill: none; stroke-dasharray: 2.96,1.28; stroke-dashoffset: 0; stroke: #b0b0b0; stroke-opacity: 0.5; stroke-width: 0.8"/>
     </g>
     <g id="line2d_24">
      <g>
       <use xlink:href="#m8352b1ba0a" x="59.33" y="144.345125" style="stroke: #000000; stroke-width: 0.8"/>
      </g>
     </g>
     <g id="text_13">
      <!-- −90 -->
      <g transform="translate(31.225313 148.144344) scale(0.1 -0.1)">
       <defs>
        <path id="DejaVuSans-39" d="M 703 97 
L 703 672 
Q 941 559 1184 500 
Q 1428 441 1663 441 
Q 2288 441 2617 861 
Q 2947 1281 2994 2138 
Q 2813 1869 2534 1725 
Q 2256 1581 1919 1581 
Q 1219 1581 811 2004 
Q 403 2428 403 3163 
Q 403 3881 828 4315 
Q 1253 4750 1959 4750 
Q 2769 4750 3195 4129 
Q 3622 3509 3622 2328 
Q 3622 1225 3098 567 
Q 2575 -91 1691 -91 
Q 1453 -91 1209 -44 
Q 966 3 703 97 
z
M 1959 2075 
Q 2384 2075 2632 2365 
Q 2881 2656 2881 3163 
Q 2881 3666 2632 3958 
Q 2384 4250 1959 4250 
Q 1534 4250 1286 3958 
Q 1038 3666 1038 3163 
Q 1038 2656 1286 2365 
Q 1534 2075 1959 2075 
z
" transform="scale(0.015625)"/>
       </defs>
       <use xlink:href="#DejaVuSans-2212"/>
       <use xlink:href="#DejaVuSans-39" x="83.789062"/>
       <use xlink:href="#DejaVuSans-30" x="147.412109"/>
      </g>
     </g>
    </g>
    <g id="ytick_4">
     <g id="line2d_25">
      <path d="M 59.33 199.337434 
L 354.645 199.337434 
" clip-path="url(#p30ec69c195)" style="fill: none; stroke-dasharray: 2.96,1.28; stroke-dashoffset: 0; stroke: #b0b0b0; stroke-opacity: 0.5; stroke-width: 0.8"/>
     </g>
     <g id="line2d_26">
      <g>
       <use xlink:href="#m8352b1ba0a" x="59.33" y="199.337434" style="stroke: #000000; stroke-width: 0.8"/>
      </g>
     </g>
     <g id="text_14">
      <!-- −135 -->
      <g transform="translate(24.862813 203.136653) scale(0.1 -0.1)">
       <defs>
        <path id="DejaVuSans-33" d="M 2597 2516 
Q 3050 2419 3304 2112 
Q 3559 1806 3559 1356 
Q 3559 666 3084 287 
Q 2609 -91 1734 -91 
Q 1441 -91 1130 -33 
Q 819 25 488 141 
L 488 750 
Q 750 597 1062 519 
Q 1375 441 1716 441 
Q 2309 441 2620 675 
Q 2931 909 2931 1356 
Q 2931 1769 2642 2001 
Q 2353 2234 1838 2234 
L 1294 2234 
L 1294 2753 
L 1863 2753 
Q 2328 2753 2575 2939 
Q 2822 3125 2822 3475 
Q 2822 3834 2567 4026 
Q 2313 4219 1838 4219 
Q 1578 4219 1281 4162 
Q 984 4106 628 3988 
L 628 4550 
Q 988 4650 1302 4700 
Q 1616 4750 1894 4750 
Q 2613 4750 3031 4423 
Q 3450 4097 3450 3541 
Q 3450 3153 3228 2886 
Q 3006 2619 2597 2516 
z
" transform="scale(0.015625)"/>
       </defs>
       <use xlink:href="#DejaVuSans-2212"/>
       <use xlink:href="#DejaVuSans-31" x="83.789062"/>
       <use xlink:href="#DejaVuSans-33" x="147.412109"/>
       <use xlink:href="#DejaVuSans-35" x="211.035156"/>
      </g>
     </g>
    </g>
    <g id="ytick_5">
     <g id="line2d_27">
      <path d="M 59.33 254.329743 
L 354.645 254.329743 
" clip-path="url(#p30ec69c195)" style="fill: none; stroke-dasharray: 2.96,1.28; stroke-dashoffset: 0; stroke: #b0b0b0; stroke-opacity: 0.5; stroke-width: 0.8"/>
     </g>
     <g id="line2d_28">
      <g>
       <use xlink:href="#m8352b1ba0a" x="59.33" y="254.329743" style="stroke: #000000; stroke-width: 0.8"/>
      </g>
     </g>
     <g id="text_15">
      <!-- −180 -->
      <g transform="translate(24.862813 258.128962) scale(0.1 -0.1)">
       <defs>
        <path id="DejaVuSans-38" d="M 2034 2216 
Q 1584 2216 1326 1975 
Q 1069 1734 1069 1313 
Q 1069 891 1326 650 
Q 1584 409 2034 409 
Q 2484 409 2743 651 
Q 3003 894 3003 1313 
Q 3003 1734 2745 1975 
Q 2488 2216 2034 2216 
z
M 1403 2484 
Q 997 2584 770 2862 
Q 544 3141 544 3541 
Q 544 4100 942 4425 
Q 1341 4750 2034 4750 
Q 2731 4750 3128 4425 
Q 3525 4100 3525 3541 
Q 3525 3141 3298 2862 
Q 3072 2584 2669 2484 
Q 3125 2378 3379 2068 
Q 3634 1759 3634 1313 
Q 3634 634 3220 271 
Q 2806 -91 2034 -91 
Q 1263 -91 848 271 
Q 434 634 434 1313 
Q 434 1759 690 2068 
Q 947 2378 1403 2484 
z
M 1172 3481 
Q 1172 3119 1398 2916 
Q 1625 2713 2034 2713 
Q 2441 2713 2670 2916 
Q 2900 3119 2900 3481 
Q 2900 3844 2670 4047 
Q 2441 4250 2034 4250 
Q 1625 4250 1398 4047 
Q 1172 3844 1172 3481 
z
" transform="scale(0.015625)"/>
       </defs>
       <use xlink:href="#DejaVuSans-2212"/>
       <use xlink:href="#DejaVuSans-31" x="83.789062"/>
       <use xlink:href="#DejaVuSans-38" x="147.412109"/>
       <use xlink:href="#DejaVuSans-30" x="211.035156"/>
      </g>
     </g>
    </g>
    <g id="text_16">
     <!-- Phase (degrees) -->
     <g transform="translate(18.783125 184.890438) rotate(-90) scale(0.1 -0.1)">
      <defs>
       <path id="DejaVuSans-50" d="M 1259 4147 
L 1259 2394 
L 2053 2394 
Q 2494 2394 2734 2622 
Q 2975 2850 2975 3272 
Q 2975 3691 2734 3919 
Q 2494 4147 2053 4147 
L 1259 4147 
z
M 628 4666 
L 2053 4666 
Q 2838 4666 3239 4311 
Q 3641 3956 3641 3272 
Q 3641 2581 3239 2228 
Q 2838 1875 2053 1875 
L 1259 1875 
L 1259 0 
L 628 0 
L 628 4666 
z
" transform="scale(0.015625)"/>
       <path id="DejaVuSans-68" d="M 3513 2113 
L 3513 0 
L 2938 0 
L 2938 2094 
Q 2938 2591 2744 2837 
Q 2550 3084 2163 3084 
Q 1697 3084 1428 2787 
Q 1159 2491 1159 1978 
L 1159 0 
L 581 0 
L 581 4863 
L 1159 4863 
L 1159 2956 
Q 1366 3272 1645 3428 
Q 1925 3584 2291 3584 
Q 2894 3584 3203 3211 
Q 3513 2838 3513 2113 
z
" transform="scale(0.015625)"/>
       <path id="DejaVuSans-61" d="M 2194 1759 
Q 1497 1759 1228 1600 
Q 959 1441 959 1056 
Q 959 750 1161 570 
Q 1363 391 1709 391 
Q 2188 391 2477 730 
Q 2766 1069 2766 1631 
L 2766 1759 
L 2194 1759 
z
M 3341 1997 
L 3341 0 
L 2766 0 
L 2766 531 
Q 2569 213 2275 61 
Q 1981 -91 1556 -91 
Q 1019 -91 701 211 
Q 384 513 384 1019 
Q 384 1609 779 1909 
Q 1175 2209 1959 2209 
L 2766 2209 
L 2766 2266 
Q 2766 2663 2505 2880 
Q 2244 3097 1772 3097 
Q 1472 3097 1187 3025 
Q 903 2953 641 2809 
L 641 3341 
Q 956 3463 1253 3523 
Q 1550 3584 1831 3584 
Q 2591 3584 2966 3190 
Q 3341 2797 3341 1997 
z
" transform="scale(0.015625)"/>
       <path id="DejaVuSans-73" d="M 2834 3397 
L 2834 2853 
Q 2591 2978 2328 3040 
Q 2066 3103 1784 3103 
Q 1356 3103 1142 2972 
Q 928 2841 928 2578 
Q 928 2378 1081 2264 
Q 1234 2150 1697 2047 
L 1894 2003 
Q 2506 1872 2764 1633 
Q 3022 1394 3022 966 
Q 3022 478 2636 193 
Q 2250 -91 1575 -91 
Q 1294 -91 989 -36 
Q 684 19 347 128 
L 347 722 
Q 666 556 975 473 
Q 1284 391 1588 391 
Q 1994 391 2212 530 
Q 2431 669 2431 922 
Q 2431 1156 2273 1281 
Q 2116 1406 1581 1522 
L 1381 1569 
Q 847 1681 609 1914 
Q 372 2147 372 2553 
Q 372 3047 722 3315 
Q 1072 3584 1716 3584 
Q 2034 3584 2315 3537 
Q 2597 3491 2834 3397 
z
" transform="scale(0.015625)"/>
       <path id="DejaVuSans-64" d="M 2906 2969 
L 2906 4863 
L 3481 4863 
L 3481 0 
L 2906 0 
L 2906 525 
Q 2725 213 2448 61 
Q 2172 -91 1784 -91 
Q 1150 -91 751 415 
Q 353 922 353 1747 
Q 353 2572 751 3078 
Q 1150 3584 1784 3584 
Q 2172 3584 2448 3432 
Q 2725 3281 2906 2969 
z
M 947 1747 
Q 947 1113 1208 752 
Q 1469 391 1925 391 
Q 2381 391 2643 752 
Q 2906 1113 2906 1747 
Q 2906 2381 2643 2742 
Q 2381 3103 1925 3103 
Q 1469 3103 1208 2742 
Q 947 2381 947 1747 
z
" transform="scale(0.015625)"/>
       <path id="DejaVuSans-67" d="M 2906 1791 
Q 2906 2416 2648 2759 
Q 2391 3103 1925 3103 
Q 1463 3103 1205 2759 
Q 947 2416 947 1791 
Q 947 1169 1205 825 
Q 1463 481 1925 481 
Q 2391 481 2648 825 
Q 2906 1169 2906 1791 
z
M 3481 434 
Q 3481 -459 3084 -895 
Q 2688 -1331 1869 -1331 
Q 1566 -1331 1297 -1286 
Q 1028 -1241 775 -1147 
L 775 -588 
Q 1028 -725 1275 -790 
Q 1522 -856 1778 -856 
Q 2344 -856 2625 -561 
Q 2906 -266 2906 331 
L 2906 616 
Q 2728 306 2450 153 
Q 2172 0 1784 0 
Q 1141 0 747 490 
Q 353 981 353 1791 
Q 353 2603 747 3093 
Q 1141 3584 1784 3584 
Q 2172 3584 2450 3431 
Q 2728 3278 2906 2969 
L 2906 3500 
L 3481 3500 
L 3481 434 
z
" transform="scale(0.015625)"/>
      </defs>
      <use xlink:href="#DejaVuSans-50"/>
      <use xlink:href="#DejaVuSans-68" x="60.302734"/>
      <use xlink:href="#DejaVuSans-61" x="123.681641"/>
      <use xlink:href="#DejaVuSans-73" x="184.960938"/>
      <use xlink:href="#DejaVuSans-65" x="237.060547"/>
      <use xlink:href="#DejaVuSans-20" x="298.583984"/>
      <use xlink:href="#DejaVuSans-28" x="330.371094"/>
      <use xlink:href="#DejaVuSans-64" x="369.384766"/>
      <use xlink:href="#DejaVuSans-65" x="432.861328"/>
      <use xlink:href="#DejaVuSans-67" x="494.384766"/>
      <use xlink:href="#DejaVuSans-72" x="557.861328"/>
      <use xlink:href="#DejaVuSans-65" x="596.724609"/>
      <use xlink:href="#DejaVuSans-65" x="658.248047"/>
      <use xlink:href="#DejaVuSans-73" x="719.771484"/>
      <use xlink:href="#DejaVuSans-29" x="771.871094"/>
     </g>
    </g>
   </g>
   <g id="line2d_29">
    <path d="M 59.343393 34.500306 
L 63.184234 73.542259 
L 65.400104 93.880526 
L 67.320525 109.623418 
L 69.240946 123.523441 
L 71.013642 134.786264 
L 72.786338 144.676751 
L 74.559034 153.350513 
L 76.33173 160.964826 
L 78.104426 167.666094 
L 80.024846 174.045987 
L 81.945267 179.649119 
L 83.865688 184.595133 
L 85.933833 189.300626 
L 88.001978 193.461898 
L 90.217848 197.411458 
L 92.433718 200.916361 
L 94.797313 204.241385 
L 97.308632 207.379543 
L 99.967676 210.329353 
L 102.774445 213.093502 
L 105.728938 215.677706 
L 108.831156 218.089761 
L 112.081099 220.338786 
L 115.626491 222.520501 
L 119.467332 224.616691 
L 123.603623 226.615547 
L 128.035363 228.510493 
L 132.910277 230.351545 
L 138.228365 232.120919 
L 144.137351 233.848 
L 150.637236 235.51214 
L 157.875745 237.131445 
L 166.000602 238.714524 
L 175.011806 240.24061 
L 185.204808 241.738551 
L 196.875057 243.222981 
L 210.170277 244.684927 
L 225.533642 246.146071 
L 243.556051 247.631235 
L 265.123852 249.178265 
L 291.862017 250.863537 
L 328.202285 252.914955 
L 354.645 254.329743 
L 354.645 254.329743 
" clip-path="url(#p30ec69c195)" style="fill: none; stroke: #64b5f6; stroke-width: 1.8; stroke-linecap: square"/>
   </g>
   <g id="line2d_30">
    <path d="M 59.343393 34.394563 
L 69.979569 61.138652 
L 75.740831 75.01526 
L 80.76347 86.542813 
L 85.342934 96.504613 
L 89.626949 105.309237 
L 93.76324 113.321995 
L 97.899531 120.853527 
L 101.888097 127.668676 
L 105.876663 134.059534 
L 109.865229 140.045523 
L 114.001519 145.84943 
L 118.13781 151.268468 
L 122.274101 156.329728 
L 126.558116 161.223096 
L 130.989856 165.941979 
L 135.421596 170.341444 
L 140.001061 174.581635 
L 144.72825 178.662188 
L 149.750888 182.69927 
L 154.921252 186.565616 
L 160.23934 190.267345 
L 165.852877 193.903821 
L 171.761864 197.463591 
L 177.9663 200.938489 
L 184.466185 204.323285 
L 191.409244 207.684322 
L 198.795478 211.006771 
L 206.624885 214.280058 
L 214.897466 217.497475 
L 223.908671 220.759059 
L 233.510774 223.995769 
L 243.999225 227.29279 
L 255.374025 230.632786 
L 267.930621 234.085337 
L 281.964464 237.709944 
L 298.066453 241.633215 
L 317.27066 246.075547 
L 343.417925 251.877469 
L 354.645 254.329743 
L 354.645 254.329743 
" clip-path="url(#p30ec69c195)" style="fill: none; stroke: #42a5f5; stroke-width: 1.8; stroke-linecap: square"/>
   </g>
   <g id="line2d_31">
    <path d="M 59.343393 34.369185 
L 103.956242 63.408468 
L 127.887638 79.258826 
L 148.125917 92.924082 
L 166.443776 105.556501 
L 183.579837 117.640617 
L 199.977275 129.473743 
L 215.931539 141.260318 
L 231.738078 153.215908 
L 247.544617 165.452865 
L 263.646606 178.203328 
L 280.339493 191.708938 
L 298.214178 206.461312 
L 318.452457 223.461143 
L 345.042897 246.110231 
L 354.645 254.329743 
L 354.645 254.329743 
" clip-path="url(#p30ec69c195)" style="fill: none; stroke: #1565c0; stroke-width: 1.8; stroke-linecap: square"/>
   </g>
   <g id="line2d_32">
    <path d="M 59.33 144.345125 
L 354.645 144.345125 
" clip-path="url(#p30ec69c195)" style="fill: none; stroke-dasharray: 0.9,1.485; stroke-dashoffset: 0; stroke: #b0b0b0; stroke-width: 0.9"/>
   </g>
   <g id="patch_3">
    <path d="M 59.33 260.44 
L 59.33 28.25025 
" style="fill: none; stroke: #b0b0b0; stroke-width: 0.8; stroke-linejoin: miter; stroke-linecap: square"/>
   </g>
   <g id="patch_4">
    <path d="M 59.33 260.44 
L 354.645 260.44 
" style="fill: none; stroke: #b0b0b0; stroke-width: 0.8; stroke-linejoin: miter; stroke-linecap: square"/>
   </g>
   <g id="text_17">
    <!-- one_pole_allpass: phase pivots at f -->
    <g style="fill: #333333" transform="translate(110.898203 22.25025) scale(0.11 -0.11)">
     <defs>
      <path id="DejaVuSans-6f" d="M 1959 3097 
Q 1497 3097 1228 2736 
Q 959 2375 959 1747 
Q 959 1119 1226 758 
Q 1494 397 1959 397 
Q 2419 397 2687 759 
Q 2956 1122 2956 1747 
Q 2956 2369 2687 2733 
Q 2419 3097 1959 3097 
z
M 1959 3584 
Q 2709 3584 3137 3096 
Q 3566 2609 3566 1747 
Q 3566 888 3137 398 
Q 2709 -91 1959 -91 
Q 1206 -91 779 398 
Q 353 888 353 1747 
Q 353 2609 779 3096 
Q 1206 3584 1959 3584 
z
" transform="scale(0.015625)"/>
      <path id="DejaVuSans-5f" d="M 3263 -1063 
L 3263 -1509 
L -63 -1509 
L -63 -1063 
L 3263 -1063 
z
" transform="scale(0.015625)"/>
      <path id="DejaVuSans-70" d="M 1159 525 
L 1159 -1331 
L 581 -1331 
L 581 3500 
L 1159 3500 
L 1159 2969 
Q 1341 3281 1617 3432 
Q 1894 3584 2278 3584 
Q 2916 3584 3314 3078 
Q 3713 2572 3713 1747 
Q 3713 922 3314 415 
Q 2916 -91 2278 -91 
Q 1894 -91 1617 61 
Q 1341 213 1159 525 
z
M 3116 1747 
Q 3116 2381 2855 2742 
Q 2594 3103 2138 3103 
Q 1681 3103 1420 2742 
Q 1159 2381 1159 1747 
Q 1159 1113 1420 752 
Q 1681 391 2138 391 
Q 2594 391 2855 752 
Q 3116 1113 3116 1747 
z
" transform="scale(0.015625)"/>
      <path id="DejaVuSans-6c" d="M 603 4863 
L 1178 4863 
L 1178 0 
L 603 0 
L 603 4863 
z
" transform="scale(0.015625)"/>
      <path id="DejaVuSans-3a" d="M 750 794 
L 1409 794 
L 1409 0 
L 750 0 
L 750 794 
z
M 750 3309 
L 1409 3309 
L 1409 2516 
L 750 2516 
L 750 3309 
z
" transform="scale(0.015625)"/>
      <path id="DejaVuSans-69" d="M 603 3500 
L 1178 3500 
L 1178 0 
L 603 0 
L 603 3500 
z
M 603 4863 
L 1178 4863 
L 1178 4134 
L 603 4134 
L 603 4863 
z
" transform="scale(0.015625)"/>
      <path id="DejaVuSans-76" d="M 191 3500 
L 800 3500 
L 1894 563 
L 2988 3500 
L 3597 3500 
L 2284 0 
L 1503 0 
L 191 3500 
z
" transform="scale(0.015625)"/>
      <path id="DejaVuSans-74" d="M 1172 4494 
L 1172 3500 
L 2356 3500 
L 2356 3053 
L 1172 3053 
L 1172 1153 
Q 1172 725 1289 603 
Q 1406 481 1766 481 
L 2356 481 
L 2356 0 
L 1766 0 
Q 1100 0 847 248 
Q 594 497 594 1153 
L 594 3053 
L 172 3053 
L 172 3500 
L 594 3500 
L 594 4494 
L 1172 4494 
z
" transform="scale(0.015625)"/>
      <path id="DejaVuSans-66" d="M 2375 4863 
L 2375 4384 
L 1825 4384 
Q 1516 4384 1395 4259 
Q 1275 4134 1275 3809 
L 1275 3500 
L 2222 3500 
L 2222 3053 
L 1275 3053 
L 1275 0 
L 697 0 
L 697 3053 
L 147 3053 
L 147 3500 
L 697 3500 
L 697 3744 
Q 697 4328 969 4595 
Q 1241 4863 1831 4863 
L 2375 4863 
z
" transform="scale(0.015625)"/>
     </defs>
     <use xlink:href="#DejaVuSans-6f"/>
     <use xlink:href="#DejaVuSans-6e" x="61.181641"/>
     <use xlink:href="#DejaVuSans-65" x="124.560547"/>
     <use xlink:href="#DejaVuSans-5f" x="186.083984"/>
     <use xlink:href="#DejaVuSans-70" x="236.083984"/>
     <use xlink:href="#DejaVuSans-6f" x="299.560547"/>
     <use xlink:href="#DejaVuSans-6c" x="360.742188"/>
     <use xlink:href="#DejaVuSans-65" x="388.525391"/>
     <use xlink:href="#DejaVuSans-5f" x="450.048828"/>
     <use xlink:href="#DejaVuSans-61" x="500.048828"/>
     <use xlink:href="#DejaVuSans-6c" x="561.328125"/>
     <use xlink:href="#DejaVuSans-6c" x="589.111328"/>
     <use xlink:href="#DejaVuSans-70" x="616.894531"/>
     <use xlink:href="#DejaVuSans-61" x="680.371094"/>
     <use xlink:href="#DejaVuSans-73" x="741.650391"/>
     <use xlink:href="#DejaVuSans-73" x="793.75"/>
     <use xlink:href="#DejaVuSans-3a" x="845.849609"/>
     <use xlink:href="#DejaVuSans-20" x="879.541016"/>
     <use xlink:href="#DejaVuSans-70" x="911.328125"/>
     <use xlink:href="#DejaVuSans-68" x="974.804688"/>
     <use xlink:href="#DejaVuSans-61" x="1038.183594"/>
     <use xlink:href="#DejaVuSans-73" x="1099.462891"/>
     <use xlink:href="#DejaVuSans-65" x="1151.5625"/>
     <use xlink:href="#DejaVuSans-20" x="1213.085938"/>
     <use xlink:href="#DejaVuSans-70" x="1244.873047"/>
     <use xlink:href="#DejaVuSans-69" x="1308.349609"/>
     <use xlink:href="#DejaVuSans-76" x="1336.132812"/>
     <use xlink:href="#DejaVuSans-6f" x="1395.3125"/>
     <use xlink:href="#DejaVuSans-74" x="1456.494141"/>
     <use xlink:href="#DejaVuSans-73" x="1495.703125"/>
     <use xlink:href="#DejaVuSans-20" x="1547.802734"/>
     <use xlink:href="#DejaVuSans-61" x="1579.589844"/>
     <use xlink:href="#DejaVuSans-74" x="1640.869141"/>
     <use xlink:href="#DejaVuSans-20" x="1680.078125"/>
     <use xlink:href="#DejaVuSans-66" x="1711.865234"/>
    </g>
   </g>
   <g id="line2d_33">
    <defs>
     <path id="m99be92ba0b" d="M 0 2.5 
C 0.663008 2.5 1.29895 2.236584 1.767767 1.767767 
C 2.236584 1.29895 2.5 0.663008 2.5 0 
C 2.5 -0.663008 2.236584 -1.29895 1.767767 -1.767767 
C 1.29895 -2.236584 0.663008 -2.5 0 -2.5 
C -0.663008 -2.5 -1.29895 -2.236584 -1.767767 -1.767767 
C -2.236584 -1.29895 -2.5 -0.663008 -2.5 0 
C -2.5 0.663008 -2.236584 1.29895 -1.767767 1.767767 
C -1.29895 2.236584 -0.663008 2.5 0 2.5 
z
" style="stroke: #d81b60"/>
    </defs>
    <g clip-path="url(#p30ec69c195)">
     <use xlink:href="#m99be92ba0b" x="72.722971" y="144.345125" style="fill: #d81b60; stroke: #d81b60"/>
    </g>
   </g>
   <g id="line2d_34">
    <g clip-path="url(#p30ec69c195)">
     <use xlink:href="#m99be92ba0b" x="112.901882" y="144.345125" style="fill: #d81b60; stroke: #d81b60"/>
    </g>
   </g>
   <g id="line2d_35">
    <g clip-path="url(#p30ec69c195)">
     <use xlink:href="#m99be92ba0b" x="220.045646" y="144.345125" style="fill: #d81b60; stroke: #d81b60"/>
    </g>
   </g>
   <g id="legend_1">
    <g id="patch_5">
     <path d="M 252.690469 75.081188 
L 348.345 75.081188 
Q 350.145 75.081188 350.145 73.281188 
L 350.145 34.55025 
Q 350.145 32.75025 348.345 32.75025 
L 252.690469 32.75025 
Q 250.890469 32.75025 250.890469 34.55025 
L 250.890469 73.281188 
Q 250.890469 75.081188 252.690469 75.081188 
z
" style="fill: #ffffff; opacity: 0.8; stroke: #cccccc; stroke-linejoin: miter"/>
    </g>
    <g id="line2d_36">
     <path d="M 254.490469 40.038844 
L 263.490469 40.038844 
L 272.490469 40.038844 
" style="fill: none; stroke: #64b5f6; stroke-width: 1.8; stroke-linecap: square"/>
    </g>
    <g id="text_18">
     <!-- pivot = 1 kHz -->
     <g transform="translate(279.690469 43.188844) scale(0.09 -0.09)">
      <defs>
       <path id="DejaVuSans-3d" d="M 678 2906 
L 4684 2906 
L 4684 2381 
L 678 2381 
L 678 2906 
z
M 678 1631 
L 4684 1631 
L 4684 1100 
L 678 1100 
L 678 1631 
z
" transform="scale(0.015625)"/>
      </defs>
      <use xlink:href="#DejaVuSans-70"/>
      <use xlink:href="#DejaVuSans-69" x="63.476562"/>
      <use xlink:href="#DejaVuSans-76" x="91.259766"/>
      <use xlink:href="#DejaVuSans-6f" x="150.439453"/>
      <use xlink:href="#DejaVuSans-74" x="211.621094"/>
      <use xlink:href="#DejaVuSans-20" x="250.830078"/>
      <use xlink:href="#DejaVuSans-3d" x="282.617188"/>
      <use xlink:href="#DejaVuSans-20" x="366.40625"/>
      <use xlink:href="#DejaVuSans-31" x="398.193359"/>
      <use xlink:href="#DejaVuSans-20" x="461.816406"/>
      <use xlink:href="#DejaVuSans-6b" x="493.603516"/>
      <use xlink:href="#DejaVuSans-48" x="551.513672"/>
      <use xlink:href="#DejaVuSans-7a" x="626.708984"/>
     </g>
    </g>
    <g id="line2d_37">
     <path d="M 254.490469 53.249156 
L 263.490469 53.249156 
L 272.490469 53.249156 
" style="fill: none; stroke: #42a5f5; stroke-width: 1.8; stroke-linecap: square"/>
    </g>
    <g id="text_19">
     <!-- pivot = 4 kHz -->
     <g transform="translate(279.690469 56.399156) scale(0.09 -0.09)">
      <use xlink:href="#DejaVuSans-70"/>
      <use xlink:href="#DejaVuSans-69" x="63.476562"/>
      <use xlink:href="#DejaVuSans-76" x="91.259766"/>
      <use xlink:href="#DejaVuSans-6f" x="150.439453"/>
      <use xlink:href="#DejaVuSans-74" x="211.621094"/>
      <use xlink:href="#DejaVuSans-20" x="250.830078"/>
      <use xlink:href="#DejaVuSans-3d" x="282.617188"/>
      <use xlink:href="#DejaVuSans-20" x="366.40625"/>
      <use xlink:href="#DejaVuSans-34" x="398.193359"/>
      <use xlink:href="#DejaVuSans-20" x="461.816406"/>
      <use xlink:href="#DejaVuSans-6b" x="493.603516"/>
      <use xlink:href="#DejaVuSans-48" x="551.513672"/>
      <use xlink:href="#DejaVuSans-7a" x="626.708984"/>
     </g>
    </g>
    <g id="line2d_38">
     <path d="M 254.490469 66.459469 
L 263.490469 66.459469 
L 272.490469 66.459469 
" style="fill: none; stroke: #1565c0; stroke-width: 1.8; stroke-linecap: square"/>
    </g>
    <g id="text_20">
     <!-- pivot = 12 kHz -->
     <g transform="translate(279.690469 69.609469) scale(0.09 -0.09)">
      <use xlink:href="#DejaVuSans-70"/>
      <use xlink:href="#DejaVuSans-69" x="63.476562"/>
      <use xlink:href="#DejaVuSans-76" x="91.259766"/>
      <use xlink:href="#DejaVuSans-6f" x="150.439453"/>
      <use xlink:href="#DejaVuSans-74" x="211.621094"/>
      <use xlink:href="#DejaVuSans-20" x="250.830078"/>
      <use xlink:href="#DejaVuSans-3d" x="282.617188"/>
      <use xlink:href="#DejaVuSans-20" x="366.40625"/>
      <use xlink:href="#DejaVuSans-31" x="398.193359"/>
      <use xlink:href="#DejaVuSans-32" x="461.816406"/>
      <use xlink:href="#DejaVuSans-20" x="525.439453"/>
      <use xlink:href="#DejaVuSans-6b" x="557.226562"/>
      <use xlink:href="#DejaVuSans-48" x="615.136719"/>
      <use xlink:href="#DejaVuSans-7a" x="690.332031"/>
     </g>
    </g>
   </g>
  </g>
  <g id="axes_2">
   <g id="patch_6">
    <path d="M 413.885 260.44 
L 709.2 260.44 
L 709.2 28.25025 
L 413.885 28.25025 
z
" style="fill: #ffffff"/>
   </g>
   <g id="matplotlib.axis_3">
    <g id="xtick_10">
     <g id="line2d_39">
      <path d="M 413.885 260.44 
L 413.885 28.25025 
" clip-path="url(#p1e6ec87b8d)" style="fill: none; stroke-dasharray: 2.96,1.28; stroke-dashoffset: 0; stroke: #b0b0b0; stroke-opacity: 0.5; stroke-width: 0.8"/>
     </g>
     <g id="line2d_40">
      <g>
       <use xlink:href="#mbafe937709" x="413.885" y="260.44" style="stroke: #000000; stroke-width: 0.8"/>
      </g>
     </g>
     <g id="text_21">
      <!-- 0.0 -->
      <g transform="translate(405.933437 275.038438) scale(0.1 -0.1)">
       <use xlink:href="#DejaVuSans-30"/>
       <use xlink:href="#DejaVuSans-2e" x="63.623047"/>
       <use xlink:href="#DejaVuSans-30" x="95.410156"/>
      </g>
     </g>
    </g>
    <g id="xtick_11">
     <g id="line2d_41">
      <path d="M 447.367426 260.44 
L 447.367426 28.25025 
" clip-path="url(#p1e6ec87b8d)" style="fill: none; stroke-dasharray: 2.96,1.28; stroke-dashoffset: 0; stroke: #b0b0b0; stroke-opacity: 0.5; stroke-width: 0.8"/>
     </g>
     <g id="line2d_42">
      <g>
       <use xlink:href="#mbafe937709" x="447.367426" y="260.44" style="stroke: #000000; stroke-width: 0.8"/>
      </g>
     </g>
     <g id="text_22">
      <!-- 2.5 -->
      <g transform="translate(439.415864 275.038438) scale(0.1 -0.1)">
       <use xlink:href="#DejaVuSans-32"/>
       <use xlink:href="#DejaVuSans-2e" x="63.623047"/>
       <use xlink:href="#DejaVuSans-35" x="95.410156"/>
      </g>
     </g>
    </g>
    <g id="xtick_12">
     <g id="line2d_43">
      <path d="M 480.849853 260.44 
L 480.849853 28.25025 
" clip-path="url(#p1e6ec87b8d)" style="fill: none; stroke-dasharray: 2.96,1.28; stroke-dashoffset: 0; stroke: #b0b0b0; stroke-opacity: 0.5; stroke-width: 0.8"/>
     </g>
     <g id="line2d_44">
      <g>
       <use xlink:href="#mbafe937709" x="480.849853" y="260.44" style="stroke: #000000; stroke-width: 0.8"/>
      </g>
     </g>
     <g id="text_23">
      <!-- 5.0 -->
      <g transform="translate(472.89829 275.038438) scale(0.1 -0.1)">
       <use xlink:href="#DejaVuSans-35"/>
       <use xlink:href="#DejaVuSans-2e" x="63.623047"/>
       <use xlink:href="#DejaVuSans-30" x="95.410156"/>
      </g>
     </g>
    </g>
    <g id="xtick_13">
     <g id="line2d_45">
      <path d="M 514.332279 260.44 
L 514.332279 28.25025 
" clip-path="url(#p1e6ec87b8d)" style="fill: none; stroke-dasharray: 2.96,1.28; stroke-dashoffset: 0; stroke: #b0b0b0; stroke-opacity: 0.5; stroke-width: 0.8"/>
     </g>
     <g id="line2d_46">
      <g>
       <use xlink:href="#mbafe937709" x="514.332279" y="260.44" style="stroke: #000000; stroke-width: 0.8"/>
      </g>
     </g>
     <g id="text_24">
      <!-- 7.5 -->
      <g transform="translate(506.380716 275.038438) scale(0.1 -0.1)">
       <use xlink:href="#DejaVuSans-37"/>
       <use xlink:href="#DejaVuSans-2e" x="63.623047"/>
       <use xlink:href="#DejaVuSans-35" x="95.410156"/>
      </g>
     </g>
    </g>
    <g id="xtick_14">
     <g id="line2d_47">
      <path d="M 547.814705 260.44 
L 547.814705 28.25025 
" clip-path="url(#p1e6ec87b8d)" style="fill: none; stroke-dasharray: 2.96,1.28; stroke-dashoffset: 0; stroke: #b0b0b0; stroke-opacity: 0.5; stroke-width: 0.8"/>
     </g>
     <g id="line2d_48">
      <g>
       <use xlink:href="#mbafe937709" x="547.814705" y="260.44" style="stroke: #000000; stroke-width: 0.8"/>
      </g>
     </g>
     <g id="text_25">
      <!-- 10.0 -->
      <g transform="translate(536.681893 275.038438) scale(0.1 -0.1)">
       <use xlink:href="#DejaVuSans-31"/>
       <use xlink:href="#DejaVuSans-30" x="63.623047"/>
       <use xlink:href="#DejaVuSans-2e" x="127.246094"/>
       <use xlink:href="#DejaVuSans-30" x="159.033203"/>
      </g>
     </g>
    </g>
    <g id="xtick_15">
     <g id="line2d_49">
      <path d="M 581.297132 260.44 
L 581.297132 28.25025 
" clip-path="url(#p1e6ec87b8d)" style="fill: none; stroke-dasharray: 2.96,1.28; stroke-dashoffset: 0; stroke: #b0b0b0; stroke-opacity: 0.5; stroke-width: 0.8"/>
     </g>
     <g id="line2d_50">
      <g>
       <use xlink:href="#mbafe937709" x="581.297132" y="260.44" style="stroke: #000000; stroke-width: 0.8"/>
      </g>
     </g>
     <g id="text_26">
      <!-- 12.5 -->
      <g transform="translate(570.164319 275.038438) scale(0.1 -0.1)">
       <use xlink:href="#DejaVuSans-31"/>
       <use xlink:href="#DejaVuSans-32" x="63.623047"/>
       <use xlink:href="#DejaVuSans-2e" x="127.246094"/>
       <use xlink:href="#DejaVuSans-35" x="159.033203"/>
      </g>
     </g>
    </g>
    <g id="xtick_16">
     <g id="line2d_51">
      <path d="M 614.779558 260.44 
L 614.779558 28.25025 
" clip-path="url(#p1e6ec87b8d)" style="fill: none; stroke-dasharray: 2.96,1.28; stroke-dashoffset: 0; stroke: #b0b0b0; stroke-opacity: 0.5; stroke-width: 0.8"/>
     </g>
     <g id="line2d_52">
      <g>
       <use xlink:href="#mbafe937709" x="614.779558" y="260.44" style="stroke: #000000; stroke-width: 0.8"/>
      </g>
     </g>
     <g id="text_27">
      <!-- 15.0 -->
      <g transform="translate(603.646745 275.038438) scale(0.1 -0.1)">
       <use xlink:href="#DejaVuSans-31"/>
       <use xlink:href="#DejaVuSans-35" x="63.623047"/>
       <use xlink:href="#DejaVuSans-2e" x="127.246094"/>
       <use xlink:href="#DejaVuSans-30" x="159.033203"/>
      </g>
     </g>
    </g>
    <g id="xtick_17">
     <g id="line2d_53">
      <path d="M 648.261984 260.44 
L 648.261984 28.25025 
" clip-path="url(#p1e6ec87b8d)" style="fill: none; stroke-dasharray: 2.96,1.28; stroke-dashoffset: 0; stroke: #b0b0b0; stroke-opacity: 0.5; stroke-width: 0.8"/>
     </g>
     <g id="line2d_54">
      <g>
       <use xlink:href="#mbafe937709" x="648.261984" y="260.44" style="stroke: #000000; stroke-width: 0.8"/>
      </g>
     </g>
     <g id="text_28">
      <!-- 17.5 -->
      <g transform="translate(637.129172 275.038438) scale(0.1 -0.1)">
       <use xlink:href="#DejaVuSans-31"/>
       <use xlink:href="#DejaVuSans-37" x="63.623047"/>
       <use xlink:href="#DejaVuSans-2e" x="127.246094"/>
       <use xlink:href="#DejaVuSans-35" x="159.033203"/>
      </g>
     </g>
    </g>
    <g id="xtick_18">
     <g id="line2d_55">
      <path d="M 681.74441 260.44 
L 681.74441 28.25025 
" clip-path="url(#p1e6ec87b8d)" style="fill: none; stroke-dasharray: 2.96,1.28; stroke-dashoffset: 0; stroke: #b0b0b0; stroke-opacity: 0.5; stroke-width: 0.8"/>
     </g>
     <g id="line2d_56">
      <g>
       <use xlink:href="#mbafe937709" x="681.74441" y="260.44" style="stroke: #000000; stroke-width: 0.8"/>
      </g>
     </g>
     <g id="text_29">
      <!-- 20.0 -->
      <g transform="translate(670.611598 275.038438) scale(0.1 -0.1)">
       <use xlink:href="#DejaVuSans-32"/>
       <use xlink:href="#DejaVuSans-30" x="63.623047"/>
       <use xlink:href="#DejaVuSans-2e" x="127.246094"/>
       <use xlink:href="#DejaVuSans-30" x="159.033203"/>
      </g>
     </g>
    </g>
    <g id="text_30">
     <!-- Frequency (kHz) -->
     <g transform="translate(520.9425 288.716563) scale(0.1 -0.1)">
      <use xlink:href="#DejaVuSans-46"/>
      <use xlink:href="#DejaVuSans-72" x="50.269531"/>
      <use xlink:href="#DejaVuSans-65" x="89.132812"/>
      <use xlink:href="#DejaVuSans-71" x="150.65625"/>
      <use xlink:href="#DejaVuSans-75" x="214.132812"/>
      <use xlink:href="#DejaVuSans-65" x="277.511719"/>
      <use xlink:href="#DejaVuSans-6e" x="339.035156"/>
      <use xlink:href="#DejaVuSans-63" x="402.414062"/>
      <use xlink:href="#DejaVuSans-79" x="457.394531"/>
      <use xlink:href="#DejaVuSans-20" x="516.574219"/>
      <use xlink:href="#DejaVuSans-28" x="548.361328"/>
      <use xlink:href="#DejaVuSans-6b" x="587.375"/>
      <use xlink:href="#DejaVuSans-48" x="645.285156"/>
      <use xlink:href="#DejaVuSans-7a" x="720.480469"/>
      <use xlink:href="#DejaVuSans-29" x="772.970703"/>
     </g>
    </g>
   </g>
   <g id="matplotlib.axis_4">
    <g id="ytick_6">
     <g id="line2d_57">
      <path d="M 413.885 232.293521 
L 709.2 232.293521 
" clip-path="url(#p1e6ec87b8d)" style="fill: none; stroke-dasharray: 2.96,1.28; stroke-dashoffset: 0; stroke: #b0b0b0; stroke-opacity: 0.5; stroke-width: 0.8"/>
     </g>
     <g id="line2d_58">
      <g>
       <use xlink:href="#m8352b1ba0a" x="413.885" y="232.293521" style="stroke: #000000; stroke-width: 0.8"/>
      </g>
     </g>
     <g id="text_31">
      <!-- −150 -->
      <g transform="translate(379.417812 236.092739) scale(0.1 -0.1)">
       <use xlink:href="#DejaVuSans-2212"/>
       <use xlink:href="#DejaVuSans-31" x="83.789062"/>
       <use xlink:href="#DejaVuSans-35" x="147.412109"/>
       <use xlink:href="#DejaVuSans-30" x="211.035156"/>
      </g>
     </g>
    </g>
    <g id="ytick_7">
     <g id="line2d_59">
      <path d="M 413.885 202.972854 
L 709.2 202.972854 
" clip-path="url(#p1e6ec87b8d)" style="fill: none; stroke-dasharray: 2.96,1.28; stroke-dashoffset: 0; stroke: #b0b0b0; stroke-opacity: 0.5; stroke-width: 0.8"/>
     </g>
     <g id="line2d_60">
      <g>
       <use xlink:href="#m8352b1ba0a" x="413.885" y="202.972854" style="stroke: #000000; stroke-width: 0.8"/>
      </g>
     </g>
     <g id="text_32">
      <!-- −100 -->
      <g transform="translate(379.417812 206.772073) scale(0.1 -0.1)">
       <use xlink:href="#DejaVuSans-2212"/>
       <use xlink:href="#DejaVuSans-31" x="83.789062"/>
       <use xlink:href="#DejaVuSans-30" x="147.412109"/>
       <use xlink:href="#DejaVuSans-30" x="211.035156"/>
      </g>
     </g>
    </g>
    <g id="ytick_8">
     <g id="line2d_61">
      <path d="M 413.885 173.652188 
L 709.2 173.652188 
" clip-path="url(#p1e6ec87b8d)" style="fill: none; stroke-dasharray: 2.96,1.28; stroke-dashoffset: 0; stroke: #b0b0b0; stroke-opacity: 0.5; stroke-width: 0.8"/>
     </g>
     <g id="line2d_62">
      <g>
       <use xlink:href="#m8352b1ba0a" x="413.885" y="173.652188" style="stroke: #000000; stroke-width: 0.8"/>
      </g>
     </g>
     <g id="text_33">
      <!-- −50 -->
      <g transform="translate(385.780312 177.451407) scale(0.1 -0.1)">
       <use xlink:href="#DejaVuSans-2212"/>
       <use xlink:href="#DejaVuSans-35" x="83.789062"/>
       <use xlink:href="#DejaVuSans-30" x="147.412109"/>
      </g>
     </g>
    </g>
    <g id="ytick_9">
     <g id="line2d_63">
      <path d="M 413.885 144.331522 
L 709.2 144.331522 
" clip-path="url(#p1e6ec87b8d)" style="fill: none; stroke-dasharray: 2.96,1.28; stroke-dashoffset: 0; stroke: #b0b0b0; stroke-opacity: 0.5; stroke-width: 0.8"/>
     </g>
     <g id="line2d_64">
      <g>
       <use xlink:href="#m8352b1ba0a" x="413.885" y="144.331522" style="stroke: #000000; stroke-width: 0.8"/>
      </g>
     </g>
     <g id="text_34">
      <!-- 0 -->
      <g transform="translate(400.5225 148.13074) scale(0.1 -0.1)">
       <use xlink:href="#DejaVuSans-30"/>
      </g>
     </g>
    </g>
    <g id="ytick_10">
     <g id="line2d_65">
      <path d="M 413.885 115.010855 
L 709.2 115.010855 
" clip-path="url(#p1e6ec87b8d)" style="fill: none; stroke-dasharray: 2.96,1.28; stroke-dashoffset: 0; stroke: #b0b0b0; stroke-opacity: 0.5; stroke-width: 0.8"/>
     </g>
     <g id="line2d_66">
      <g>
       <use xlink:href="#m8352b1ba0a" x="413.885" y="115.010855" style="stroke: #000000; stroke-width: 0.8"/>
      </g>
     </g>
     <g id="text_35">
      <!-- 50 -->
      <g transform="translate(394.16 118.810074) scale(0.1 -0.1)">
       <use xlink:href="#DejaVuSans-35"/>
       <use xlink:href="#DejaVuSans-30" x="63.623047"/>
      </g>
     </g>
    </g>
    <g id="ytick_11">
     <g id="line2d_67">
      <path d="M 413.885 85.690189 
L 709.2 85.690189 
" clip-path="url(#p1e6ec87b8d)" style="fill: none; stroke-dasharray: 2.96,1.28; stroke-dashoffset: 0; stroke: #b0b0b0; stroke-opacity: 0.5; stroke-width: 0.8"/>
     </g>
     <g id="line2d_68">
      <g>
       <use xlink:href="#m8352b1ba0a" x="413.885" y="85.690189" style="stroke: #000000; stroke-width: 0.8"/>
      </g>
     </g>
     <g id="text_36">
      <!-- 100 -->
      <g transform="translate(387.7975 89.489408) scale(0.1 -0.1)">
       <use xlink:href="#DejaVuSans-31"/>
       <use xlink:href="#DejaVuSans-30" x="63.623047"/>
       <use xlink:href="#DejaVuSans-30" x="127.246094"/>
      </g>
     </g>
    </g>
    <g id="ytick_12">
     <g id="line2d_69">
      <path d="M 413.885 56.369522 
L 709.2 56.369522 
" clip-path="url(#p1e6ec87b8d)" style="fill: none; stroke-dasharray: 2.96,1.28; stroke-dashoffset: 0; stroke: #b0b0b0; stroke-opacity: 0.5; stroke-width: 0.8"/>
     </g>
     <g id="line2d_70">
      <g>
       <use xlink:href="#m8352b1ba0a" x="413.885" y="56.369522" style="stroke: #000000; stroke-width: 0.8"/>
      </g>
     </g>
     <g id="text_37">
      <!-- 150 -->
      <g transform="translate(387.7975 60.168741) scale(0.1 -0.1)">
       <use xlink:href="#DejaVuSans-31"/>
       <use xlink:href="#DejaVuSans-35" x="63.623047"/>
       <use xlink:href="#DejaVuSans-30" x="127.246094"/>
      </g>
     </g>
    </g>
    <g id="text_38">
     <!-- Phase (degrees) -->
     <g transform="translate(373.338125 184.890438) rotate(-90) scale(0.1 -0.1)">
      <use xlink:href="#DejaVuSans-50"/>
      <use xlink:href="#DejaVuSans-68" x="60.302734"/>
      <use xlink:href="#DejaVuSans-61" x="123.681641"/>
      <use xlink:href="#DejaVuSans-73" x="184.960938"/>
      <use xlink:href="#DejaVuSans-65" x="237.060547"/>
      <use xlink:href="#DejaVuSans-20" x="298.583984"/>
      <use xlink:href="#DejaVuSans-28" x="330.371094"/>
      <use xlink:href="#DejaVuSans-64" x="369.384766"/>
      <use xlink:href="#DejaVuSans-65" x="432.861328"/>
      <use xlink:href="#DejaVuSans-67" x="494.384766"/>
      <use xlink:href="#DejaVuSans-72" x="557.861328"/>
      <use xlink:href="#DejaVuSans-65" x="596.724609"/>
      <use xlink:href="#DejaVuSans-65" x="658.248047"/>
      <use xlink:href="#DejaVuSans-73" x="719.771484"/>
      <use xlink:href="#DejaVuSans-29" x="771.871094"/>
     </g>
    </g>
   </g>
   <g id="line2d_71">
    <path d="M 413.898393 38.80433 
L 421.580076 54.169196 
L 425.864091 62.241797 
L 429.557208 68.752206 
L 433.1026 74.555553 
L 436.500267 79.689109 
L 439.750209 84.211243 
L 443.000152 88.369521 
L 446.397819 92.352562 
L 449.795487 95.993241 
L 453.340879 99.461642 
L 457.033995 102.753324 
L 460.874837 105.868941 
L 464.863403 108.813112 
L 468.999693 111.593381 
L 473.431433 114.305692 
L 478.158623 116.938203 
L 483.328986 119.556041 
L 488.794799 122.073676 
L 494.85151 124.61429 
L 501.49912 127.155414 
L 508.885353 129.734417 
L 517.157934 132.382669 
L 526.760038 135.215547 
L 538.282562 138.373525 
L 553.941376 142.415733 
L 588.065774 151.16294 
L 599.736023 154.428868 
L 609.190401 157.298672 
L 617.315258 159.988677 
L 624.553766 162.613432 
L 631.053652 165.202176 
L 636.962638 167.791046 
L 642.428451 170.428735 
L 647.45109 173.099858 
L 652.030554 175.780251 
L 656.31457 178.535894 
L 660.45086 181.461213 
L 664.291702 184.446024 
L 667.984818 187.594771 
L 671.53021 190.908695 
L 674.927878 194.384612 
L 678.325545 198.186435 
L 681.575487 202.156945 
L 684.82543 206.479625 
L 688.075373 211.174457 
L 691.325315 216.252393 
L 694.722983 221.967658 
L 698.416099 228.621919 
L 702.700115 236.827653 
L 708.609101 248.685662 
L 709.2 249.88592 
L 709.2 249.88592 
" clip-path="url(#p1e6ec87b8d)" style="fill: none; stroke: #ffb300; stroke-width: 1.8; stroke-linecap: square"/>
   </g>
   <g id="line2d_72">
    <path d="M 413.898393 38.922219 
L 416.261988 63.373624 
L 417.59151 74.987333 
L 418.921032 84.635296 
L 420.102829 91.685506 
L 421.284626 97.520865 
L 422.466424 102.363442 
L 423.795946 106.866442 
L 425.125468 110.583698 
L 426.45499 113.687733 
L 427.932236 116.575236 
L 429.409483 119.000054 
L 431.034454 121.250158 
L 432.80715 123.315558 
L 434.727571 125.197002 
L 436.795716 126.902236 
L 439.011586 128.443107 
L 441.522905 129.913082 
L 444.329674 131.289269 
L 447.431892 132.560832 
L 450.977284 133.771676 
L 455.113575 134.940229 
L 459.840764 136.038521 
L 465.454301 137.10466 
L 472.101911 138.129316 
L 480.079043 139.122156 
L 489.681147 140.084984 
L 501.646844 141.052222 
L 517.01021 142.059157 
L 538.134837 143.204095 
L 615.542562 147.199819 
L 629.72413 148.257945 
L 640.655755 149.285373 
L 649.519235 150.334821 
L 656.757744 151.410918 
L 662.66673 152.504248 
L 667.689369 153.650921 
L 671.973384 154.849681 
L 675.666501 156.107232 
L 678.916444 157.446378 
L 681.723212 158.836819 
L 684.234531 160.323506 
L 686.450401 161.883511 
L 688.518547 163.611802 
L 690.438967 165.520913 
L 692.211663 167.619279 
L 693.836635 169.908245 
L 695.313881 172.378192 
L 696.643403 175.003983 
L 697.972925 178.113482 
L 699.302447 181.837714 
L 700.484245 185.802938 
L 701.666042 190.545677 
L 702.847839 196.257331 
L 704.029637 203.158006 
L 705.211434 211.466009 
L 706.393231 221.323265 
L 707.870478 235.69598 
L 709.2 249.88592 
L 709.2 249.88592 
" clip-path="url(#p1e6ec87b8d)" style="fill: none; stroke: #43a047; stroke-width: 1.8; stroke-linecap: square"/>
   </g>
   <g id="patch_7">
    <path d="M 413.885 260.44 
L 413.885 28.25025 
" style="fill: none; stroke: #b0b0b0; stroke-width: 0.8; stroke-linejoin: miter; stroke-linecap: square"/>
   </g>
   <g id="patch_8">
    <path d="M 413.885 260.44 
L 709.2 260.44 
" style="fill: none; stroke: #b0b0b0; stroke-width: 0.8; stroke-linejoin: miter; stroke-linecap: square"/>
   </g>
   <g id="text_39">
    <!-- polyphase_allpass: second-order section (z$^{-2}$) -->
    <g style="fill: #333333" transform="translate(435.2075 22.25025) scale(0.11 -0.11)">
     <defs>
      <path id="DejaVuSans-2d" d="M 313 2009 
L 1997 2009 
L 1997 1497 
L 313 1497 
L 313 2009 
z
" transform="scale(0.015625)"/>
     </defs>
     <use xlink:href="#DejaVuSans-70" transform="translate(0 0.765625)"/>
     <use xlink:href="#DejaVuSans-6f" transform="translate(63.476562 0.765625)"/>
     <use xlink:href="#DejaVuSans-6c" transform="translate(124.658203 0.765625)"/>
     <use xlink:href="#DejaVuSans-79" transform="translate(152.441406 0.765625)"/>
     <use xlink:href="#DejaVuSans-70" transform="translate(211.621094 0.765625)"/>
     <use xlink:href="#DejaVuSans-68" transform="translate(275.097656 0.765625)"/>
     <use xlink:href="#DejaVuSans-61" transform="translate(338.476562 0.765625)"/>
     <use xlink:href="#DejaVuSans-73" transform="translate(399.755859 0.765625)"/>
     <use xlink:href="#DejaVuSans-65" transform="translate(451.855469 0.765625)"/>
     <use xlink:href="#DejaVuSans-5f" transform="translate(513.378906 0.765625)"/>
     <use xlink:href="#DejaVuSans-61" transform="translate(563.378906 0.765625)"/>
     <use xlink:href="#DejaVuSans-6c" transform="translate(624.658203 0.765625)"/>
     <use xlink:href="#DejaVuSans-6c" transform="translate(652.441406 0.765625)"/>
     <use xlink:href="#DejaVuSans-70" transform="translate(680.224609 0.765625)"/>
     <use xlink:href="#DejaVuSans-61" transform="translate(743.701172 0.765625)"/>
     <use xlink:href="#DejaVuSans-73" transform="translate(804.980469 0.765625)"/>
     <use xlink:href="#DejaVuSans-73" transform="translate(857.080078 0.765625)"/>
     <use xlink:href="#DejaVuSans-3a" transform="translate(909.179688 0.765625)"/>
     <use xlink:href="#DejaVuSans-20" transform="translate(942.871094 0.765625)"/>
     <use xlink:href="#DejaVuSans-73" transform="translate(974.658203 0.765625)"/>
     <use xlink:href="#DejaVuSans-65" transform="translate(1026.757812 0.765625)"/>
     <use xlink:href="#DejaVuSans-63" transform="translate(1088.28125 0.765625)"/>
     <use xlink:href="#DejaVuSans-6f" transform="translate(1143.261719 0.765625)"/>
     <use xlink:href="#DejaVuSans-6e" transform="translate(1204.443359 0.765625)"/>
     <use xlink:href="#DejaVuSans-64" transform="translate(1267.822266 0.765625)"/>
     <use xlink:href="#DejaVuSans-2d" transform="translate(1331.298828 0.765625)"/>
     <use xlink:href="#DejaVuSans-6f" transform="translate(1367.382812 0.765625)"/>
     <use xlink:href="#DejaVuSans-72" transform="translate(1428.564453 0.765625)"/>
     <use xlink:href="#DejaVuSans-64" transform="translate(1469.677734 0.765625)"/>
     <use xlink:href="#DejaVuSans-65" transform="translate(1533.154297 0.765625)"/>
     <use xlink:href="#DejaVuSans-72" transform="translate(1594.677734 0.765625)"/>
     <use xlink:href="#DejaVuSans-20" transform="translate(1635.791016 0.765625)"/>
     <use xlink:href="#DejaVuSans-73" transform="translate(1667.578125 0.765625)"/>
     <use xlink:href="#DejaVuSans-65" transform="translate(1719.677734 0.765625)"/>
     <use xlink:href="#DejaVuSans-63" transform="translate(1781.201172 0.765625)"/>
     <use xlink:href="#DejaVuSans-74" transform="translate(1836.181641 0.765625)"/>
     <use xlink:href="#DejaVuSans-69" transform="translate(1875.390625 0.765625)"/>
     <use xlink:href="#DejaVuSans-6f" transform="translate(1903.173828 0.765625)"/>
     <use xlink:href="#DejaVuSans-6e" transform="translate(1964.355469 0.765625)"/>
     <use xlink:href="#DejaVuSans-20" transform="translate(2027.734375 0.765625)"/>
     <use xlink:href="#DejaVuSans-28" transform="translate(2059.521484 0.765625)"/>
     <use xlink:href="#DejaVuSans-7a" transform="translate(2098.535156 0.765625)"/>
     <use xlink:href="#DejaVuSans-2212" transform="translate(2151.982422 39.046875) scale(0.7)"/>
     <use xlink:href="#DejaVuSans-32" transform="translate(2210.634766 39.046875) scale(0.7)"/>
     <use xlink:href="#DejaVuSans-29" transform="translate(2257.905273 0.765625)"/>
    </g>
   </g>
   <g id="legend_2">
    <g id="patch_9">
     <path d="M 629.557031 61.870875 
L 702.9 61.870875 
Q 704.7 61.870875 704.7 60.070875 
L 704.7 34.55025 
Q 704.7 32.75025 702.9 32.75025 
L 629.557031 32.75025 
Q 627.757031 32.75025 627.757031 34.55025 
L 627.757031 60.070875 
Q 627.757031 61.870875 629.557031 61.870875 
z
" style="fill: #ffffff; opacity: 0.8; stroke: #cccccc; stroke-linejoin: miter"/>
    </g>
    <g id="line2d_73">
     <path d="M 631.357031 40.038844 
L 640.357031 40.038844 
L 649.357031 40.038844 
" style="fill: none; stroke: #ffb300; stroke-width: 1.8; stroke-linecap: square"/>
    </g>
    <g id="text_40">
     <!-- a = 0.479 -->
     <g transform="translate(656.557031 43.188844) scale(0.09 -0.09)">
      <use xlink:href="#DejaVuSans-61"/>
      <use xlink:href="#DejaVuSans-20" x="61.279297"/>
      <use xlink:href="#DejaVuSans-3d" x="93.066406"/>
      <use xlink:href="#DejaVuSans-20" x="176.855469"/>
      <use xlink:href="#DejaVuSans-30" x="208.642578"/>
      <use xlink:href="#DejaVuSans-2e" x="272.265625"/>
      <use xlink:href="#DejaVuSans-34" x="304.052734"/>
      <use xlink:href="#DejaVuSans-37" x="367.675781"/>
      <use xlink:href="#DejaVuSans-39" x="431.298828"/>
     </g>
    </g>
    <g id="line2d_74">
     <path d="M 631.357031 53.249156 
L 640.357031 53.249156 
L 649.357031 53.249156 
" style="fill: none; stroke: #43a047; stroke-width: 1.8; stroke-linecap: square"/>
    </g>
    <g id="text_41">
     <!-- a = 0.876 -->
     <g transform="translate(656.557031 56.399156) scale(0.09 -0.09)">
      <defs>
       <path id="DejaVuSans-36" d="M 2113 2584 
Q 1688 2584 1439 2293 
Q 1191 2003 1191 1497 
Q 1191 994 1439 701 
Q 1688 409 2113 409 
Q 2538 409 2786 701 
Q 3034 994 3034 1497 
Q 3034 2003 2786 2293 
Q 2538 2584 2113 2584 
z
M 3366 4563 
L 3366 3988 
Q 3128 4100 2886 4159 
Q 2644 4219 2406 4219 
Q 1781 4219 1451 3797 
Q 1122 3375 1075 2522 
Q 1259 2794 1537 2939 
Q 1816 3084 2150 3084 
Q 2853 3084 3261 2657 
Q 3669 2231 3669 1497 
Q 3669 778 3244 343 
Q 2819 -91 2113 -91 
Q 1303 -91 875 529 
Q 447 1150 447 2328 
Q 447 3434 972 4092 
Q 1497 4750 2381 4750 
Q 2619 4750 2861 4703 
Q 3103 4656 3366 4563 
z
" transform="scale(0.015625)"/>
      </defs>
      <use xlink:href="#DejaVuSans-61"/>
      <use xlink:href="#DejaVuSans-20" x="61.279297"/>
      <use xlink:href="#DejaVuSans-3d" x="93.066406"/>
      <use xlink:href="#DejaVuSans-20" x="176.855469"/>
      <use xlink:href="#DejaVuSans-30" x="208.642578"/>
      <use xlink:href="#DejaVuSans-2e" x="272.265625"/>
      <use xlink:href="#DejaVuSans-38" x="304.052734"/>
      <use xlink:href="#DejaVuSans-37" x="367.675781"/>
      <use xlink:href="#DejaVuSans-36" x="431.298828"/>
     </g>
    </g>
   </g>
  </g>
 </g>
 <defs>
  <clipPath id="p30ec69c195">
   <rect x="59.33" y="28.25025" width="295.315" height="232.18975"/>
  </clipPath>
  <clipPath id="p1e6ec87b8d">
   <rect x="413.885" y="28.25025" width="295.315" height="232.18975"/>
  </clipPath>
 </defs>
</svg>
