<?xml version="1.0" encoding="utf-8"?>
<!-- Generator: Adobe Illustrator 28.3.0, SVG Export Plug-In . SVG Version: 6.00 Build 0)  -->
<svg version="1.1" id="Layer_1" xmlns="http://www.w3.org/2000/svg" xmlns:xlink="http://www.w3.org/1999/xlink" x="0px" y="0px"
	 viewBox="0 0 1002 723.6" style="enable-background:new 0 0 1002 723.6;" xml:space="preserve">
<style type="text/css">
	.st0{fill:#FFFFFF;}
	
		.st1{clip-path:url(#SVGID_00000054257535454298065290000000246623274583276220_);fill:none;stroke:#808080;stroke-width:0.5;stroke-linecap:square;stroke-linejoin:round;}
	.st2{stroke:#000000;stroke-width:0.8;stroke-linejoin:round;}
	
		.st3{clip-path:url(#SVGID_00000149343002116609200860000005917228553832584578_);fill:none;stroke:#808080;stroke-width:0.5;stroke-linecap:square;stroke-linejoin:round;}
	
		.st4{clip-path:url(#SVGID_00000078743489063328734570000011879049270646570888_);fill:none;stroke:#808080;stroke-width:0.5;stroke-linecap:square;stroke-linejoin:round;}
	
		.st5{clip-path:url(#SVGID_00000147182093395931642340000004637478360405162674_);fill:none;stroke:#808080;stroke-width:0.5;stroke-linecap:square;stroke-linejoin:round;}
	
		.st6{clip-path:url(#SVGID_00000158015469410228605990000006263789274324074936_);fill:none;stroke:#808080;stroke-width:0.5;stroke-linecap:square;stroke-linejoin:round;}
	
		.st7{clip-path:url(#SVGID_00000148622013180322522260000017269860392838904449_);fill:none;stroke:#808080;stroke-width:0.5;stroke-linecap:square;stroke-linejoin:round;}
	
		.st8{clip-path:url(#SVGID_00000176759168113489691410000006890763903924527496_);fill:none;stroke:#808080;stroke-width:0.5;stroke-linecap:square;stroke-linejoin:round;}
	
		.st9{clip-path:url(#SVGID_00000034786175719525784850000017817396641672550297_);fill:none;stroke:#808080;stroke-width:0.5;stroke-linecap:square;stroke-linejoin:round;}
	
		.st10{clip-path:url(#SVGID_00000133529067181656573400000015727085200781051791_);fill:none;stroke:#808080;stroke-width:0.5;stroke-linecap:square;stroke-linejoin:round;}
	
		.st11{clip-path:url(#SVGID_00000075152788853504954490000014148409435574590897_);fill:none;stroke:#808080;stroke-width:0.5;stroke-linecap:square;stroke-linejoin:round;}
	
		.st12{clip-path:url(#SVGID_00000125602408697085315310000014659509397324944288_);fill:none;stroke:#808080;stroke-width:0.5;stroke-linecap:square;stroke-linejoin:round;}
	
		.st13{clip-path:url(#SVGID_00000050632618482635109580000005183300959036310657_);fill:none;stroke:#808080;stroke-width:0.5;stroke-linecap:square;stroke-linejoin:round;}
	
		.st14{clip-path:url(#SVGID_00000090271507534700911900000010821977045152694970_);fill:none;stroke:#808080;stroke-width:0.5;stroke-linecap:square;stroke-linejoin:round;}
	
		.st15{clip-path:url(#SVGID_00000088828516122946594230000000633343952709769355_);fill:none;stroke:#808080;stroke-width:0.5;stroke-linecap:square;stroke-linejoin:round;}
	
		.st16{clip-path:url(#SVGID_00000114790288307777163730000001373410703743500453_);fill:none;stroke:#808080;stroke-width:0.5;stroke-linecap:square;stroke-linejoin:round;}
	
		.st17{clip-path:url(#SVGID_00000161594243032485879160000015114954581923155890_);fill:none;stroke:#808080;stroke-width:0.5;stroke-linecap:square;stroke-linejoin:round;}
	
		.st18{clip-path:url(#SVGID_00000114033611743177737130000015627819639007329920_);fill:none;stroke:#808080;stroke-width:0.5;stroke-linecap:square;stroke-linejoin:round;}
	.st19{display:none;}
	.st20{display:inline;}
	
		.st21{clip-path:url(#SVGID_00000156549778000686062010000005643513590861106355_);fill:none;stroke:#1F77B4;stroke-width:1.5;stroke-linecap:square;stroke-linejoin:round;}
	
		.st22{clip-path:url(#SVGID_00000019667282109555465010000004006922866015578541_);fill:none;stroke:#FF7F0E;stroke-width:1.5;stroke-linecap:square;stroke-linejoin:round;}
	
		.st23{clip-path:url(#SVGID_00000176730025259046902570000010078164409958144654_);fill:none;stroke:#2CA02C;stroke-width:1.5;stroke-linecap:square;stroke-linejoin:round;}
	.st24{fill:none;stroke:#000000;stroke-width:0.8;stroke-linecap:square;}
</style>
<g id="figure_1">
	<g id="axes_1">
		<g id="patch_2">
			<path class="st0" d="M123.1,644h800.3V72.4H123.1V644z"/>
		</g>
		<g id="matplotlib.axis_1">
			<g id="xtick_1">
				<g id="line2d_1">
					<g>
						<g>
							<defs>
								<rect id="SVGID_1_" x="123.1" y="72.4" width="800.3" height="571.6"/>
							</defs>
							<clipPath id="SVGID_00000052786164366597574710000004917961826275396746_">
								<use xlink:href="#SVGID_1_"  style="overflow:visible;"/>
							</clipPath>
							
								<path style="clip-path:url(#SVGID_00000052786164366597574710000004917961826275396746_);fill:none;stroke:#808080;stroke-width:0.5;stroke-linecap:square;stroke-linejoin:round;" d="
								M169.7,644V72.4"/>
						</g>
					</g>
				</g>
				<g id="line2d_2">
					<g>
						<g>
							<path id="m550bd0028b" class="st2" d="M169.7,644v3.5"/>
						</g>
					</g>
				</g>
				<g id="text_1">
					<g transform="translate(151.231279 658.602438) scale(0.1 -0.1)">
						<g>
							<path id="DejaVuSans-31" d="M12.4,8.3h16.1v55.6L11,60.4v9l17.4,3.5h9.9V8.3h16.1V0h-42C12.4,0,12.4,8.3,12.4,8.3z"/>
						</g>
						<g>
							<path id="DejaVuSans-2e" d="M74.3,12.4h10.3V0H74.3V12.4z"/>
						</g>
						<g>
							<path id="DejaVuSans-30" d="M127.2,66.4c-5.1,0-8.9-2.5-11.5-7.5s-3.8-12.5-3.8-22.5s1.3-17.5,3.8-22.5
								c2.6-5,6.4-7.5,11.5-7.5s8.9,2.5,11.5,7.5s3.8,12.5,3.8,22.5s-1.3,17.5-3.8,22.5C136.1,63.9,132.3,66.4,127.2,66.4z
								 M127.2,74.2c8.2,0,14.4-3.2,18.7-9.7s6.5-15.8,6.5-28.1s-2.2-21.6-6.5-28.1s-10.6-9.7-18.7-9.7c-8.2,0-14.4,3.2-18.7,9.7
								c-4.3,6.5-6.5,15.8-6.5,28.1s2.2,21.7,6.5,28.1C112.8,71,119,74.2,127.2,74.2z"/>
						</g>
						<g>
							<path id="DejaVuSans-30_00000112626875819249579230000006234932428013345454_" d="M190.8,66.4c-5.1,0-8.9-2.5-11.5-7.5
								s-3.8-12.5-3.8-22.5s1.3-17.5,3.8-22.5c2.6-5,6.4-7.5,11.5-7.5s8.9,2.5,11.5,7.5s3.8,12.5,3.8,22.5s-1.3,17.5-3.8,22.5
								S195.9,66.4,190.8,66.4z M190.8,74.2c8.2,0,14.4-3.2,18.7-9.7s6.5-15.8,6.5-28.1s-2.2-21.6-6.5-28.1s-10.6-9.7-18.7-9.7
								c-8.2,0-14.4,3.2-18.7,9.7s-6.5,15.8-6.5,28.1s2.2,21.7,6.5,28.1C176.4,71,182.6,74.2,190.8,74.2z"/>
						</g>
						<g>
							<path id="DejaVuSans-30_00000082344420647603367550000013097825300492866434_" d="M254.4,66.4c-5.1,0-8.9-2.5-11.5-7.5
								s-3.8-12.5-3.8-22.5s1.3-17.5,3.8-22.5c2.6-5,6.4-7.5,11.5-7.5c5.1,0,8.9,2.5,11.5,7.5s3.8,12.5,3.8,22.5s-1.3,17.5-3.8,22.5
								S259.6,66.4,254.4,66.4z M254.4,74.2c8.2,0,14.4-3.2,18.7-9.7c4.3-6.5,6.5-15.8,6.5-28.1s-2.2-21.6-6.5-28.1
								s-10.6-9.7-18.7-9.7c-8.2,0-14.4,3.2-18.7,9.7s-6.5,15.8-6.5,28.1s2.2,21.7,6.5,28.1C240,71,246.3,74.2,254.4,74.2z"/>
						</g>
						<g>
							<path id="DejaVuSans-20" d="M286.3,0"/>
						</g>
						<g>
							<path id="DejaVuSans-73" d="M362.3,53.1v-8.5c-2.5,1.3-5.2,2.3-7.9,2.9c-2.7,0.7-5.6,1-8.5,1c-4.5,0-7.8-0.7-10-2
								c-2.2-1.4-3.3-3.4-3.3-6.2c0-2.1,0.8-3.7,2.4-4.9s4.8-2.3,9.6-3.4l3.1-0.7c6.4-1.4,10.9-3.3,13.6-5.8s4-6,4-10.4
								c0-5.1-2-9.1-6-12.1s-9.5-4.4-16.6-4.4c-2.9,0-6,0.3-9.2,0.9s-6.5,1.4-10,2.6v9.3c3.3-1.7,6.6-3,9.8-3.9
								c3.2-0.9,6.4-1.3,9.6-1.3c4.2,0,7.5,0.7,9.8,2.2c2.3,1.4,3.4,3.5,3.4,6.1c0,2.4-0.8,4.3-2.5,5.6c-1.6,1.3-5.2,2.6-10.8,3.8
								l-3.1,0.7c-5.6,1.2-9.6,3-12.1,5.4s-3.7,5.8-3.7,10c0,5.1,1.8,9.1,5.5,11.9c3.6,2.8,8.8,4.2,15.5,4.2c3.3,0,6.4-0.2,9.4-0.7
								C357.2,54.8,359.9,54.1,362.3,53.1z"/>
						</g>
					</g>
				</g>
			</g>
			<g id="xtick_2">
				<g id="line2d_3">
					<g>
						<g>
							<defs>
								<rect id="SVGID_00000046327846461650591630000001740682903959662011_" x="123.1" y="72.4" width="800.3" height="571.6"/>
							</defs>
							<clipPath id="SVGID_00000063591212259207326250000001335893062817842344_">
								<use xlink:href="#SVGID_00000046327846461650591630000001740682903959662011_"  style="overflow:visible;"/>
							</clipPath>
							
								<path style="clip-path:url(#SVGID_00000063591212259207326250000001335893062817842344_);fill:none;stroke:#808080;stroke-width:0.5;stroke-linecap:square;stroke-linejoin:round;" d="
								M260.8,644V72.4"/>
						</g>
					</g>
				</g>
				<g id="line2d_4">
					<g>
						<g>
							<path id="m550bd0028b_00000150820371671838225900000000704682962125970111_" class="st2" d="M260.8,644v3.5"/>
						</g>
					</g>
				</g>
				<g id="text_2">
					<g transform="translate(242.271308 658.602438) scale(0.1 -0.1)">
						<g>
							<path id="DejaVuSans-31_00000079470359953868191120000002820834208856470171_" d="M12.4,8.3h16.1v55.6L11,60.4v9l17.4,3.5
								h9.9V8.3h16.1V0h-42C12.4,0,12.4,8.3,12.4,8.3z"/>
						</g>
						<g>
							<path id="DejaVuSans-2e_00000179610795142359509950000005907755653166317227_" d="M74.3,12.4h10.3V0H74.3V12.4z"/>
						</g>
						<g>
							<path id="DejaVuSans-30_00000155845160768599580930000006361116940523938483_" d="M127.2,66.4c-5.1,0-8.9-2.5-11.5-7.5
								s-3.8-12.5-3.8-22.5s1.3-17.5,3.8-22.5c2.6-5,6.4-7.5,11.5-7.5s8.9,2.5,11.5,7.5s3.8,12.5,3.8,22.5s-1.3,17.5-3.8,22.5
								C136.1,63.9,132.3,66.4,127.2,66.4z M127.2,74.2c8.2,0,14.4-3.2,18.7-9.7s6.5-15.8,6.5-28.1s-2.2-21.6-6.5-28.1
								s-10.6-9.7-18.7-9.7c-8.2,0-14.4,3.2-18.7,9.7c-4.3,6.5-6.5,15.8-6.5,28.1s2.2,21.7,6.5,28.1C112.8,71,119,74.2,127.2,74.2z"
								/>
						</g>
						<g>
							<path id="DejaVuSans-30_00000154427491789126705590000002743259455362574517_" d="M190.8,66.4c-5.1,0-8.9-2.5-11.5-7.5
								s-3.8-12.5-3.8-22.5s1.3-17.5,3.8-22.5c2.6-5,6.4-7.5,11.5-7.5s8.9,2.5,11.5,7.5s3.8,12.5,3.8,22.5s-1.3,17.5-3.8,22.5
								S195.9,66.4,190.8,66.4z M190.8,74.2c8.2,0,14.4-3.2,18.7-9.7s6.5-15.8,6.5-28.1s-2.2-21.6-6.5-28.1s-10.6-9.7-18.7-9.7
								c-8.2,0-14.4,3.2-18.7,9.7s-6.5,15.8-6.5,28.1s2.2,21.7,6.5,28.1C176.4,71,182.6,74.2,190.8,74.2z"/>
						</g>
						<g>
							<path id="DejaVuSans-32" d="M241.8,8.3h34.4V0H230v8.3c3.7,3.9,8.8,9.1,15.3,15.6s10.5,10.7,12.2,12.6c3.2,3.5,5.4,6.5,6.6,9
								c1.3,2.5,1.9,4.9,1.9,7.2c0,3.9-1.4,7-4.1,9.5c-2.7,2.4-6.3,3.7-10.6,3.7c-3.1,0-6.4-0.5-9.8-1.6c-3.4-1.1-7.1-2.7-11-4.9v10
								c4,1.6,7.7,2.8,11.1,3.6c3.5,0.8,6.6,1.2,9.5,1.2c7.6,0,13.6-1.9,18.1-5.7c4.5-3.8,6.7-8.8,6.7-15.1c0-3-0.6-5.8-1.7-8.5
								s-3.2-5.8-6.1-9.5c-0.8-0.9-3.4-3.7-7.8-8.2S249.8,16.4,241.8,8.3z"/>
						</g>
						<g>
							<path id="DejaVuSans-20_00000018221877482060905560000003777535117596381057_" d="M286.3,0"/>
						</g>
						<g>
							<path id="DejaVuSans-73_00000150071321539514934750000006650522422406681481_" d="M362.3,53.1v-8.5c-2.5,1.3-5.2,2.3-7.9,2.9
								c-2.7,0.7-5.6,1-8.5,1c-4.5,0-7.8-0.7-10-2c-2.2-1.4-3.3-3.4-3.3-6.2c0-2.1,0.8-3.7,2.4-4.9s4.8-2.3,9.6-3.4l3.1-0.7
								c6.4-1.4,10.9-3.3,13.6-5.8s4-6,4-10.4c0-5.1-2-9.1-6-12.1s-9.5-4.4-16.6-4.4c-2.9,0-6,0.3-9.2,0.9s-6.5,1.4-10,2.6v9.3
								c3.3-1.7,6.6-3,9.8-3.9c3.2-0.9,6.4-1.3,9.6-1.3c4.2,0,7.5,0.7,9.8,2.2c2.3,1.4,3.4,3.5,3.4,6.1c0,2.4-0.8,4.3-2.5,5.6
								c-1.6,1.3-5.2,2.6-10.8,3.8l-3.1,0.7c-5.6,1.2-9.6,3-12.1,5.4s-3.7,5.8-3.7,10c0,5.1,1.8,9.1,5.5,11.9
								c3.6,2.8,8.8,4.2,15.5,4.2c3.3,0,6.4-0.2,9.4-0.7C357.2,54.8,359.9,54.1,362.3,53.1z"/>
						</g>
					</g>
				</g>
			</g>
			<g id="xtick_3">
				<g id="line2d_5">
					<g>
						<g>
							<defs>
								<rect id="SVGID_00000124847319832559053200000010073450141642840725_" x="123.1" y="72.4" width="800.3" height="571.6"/>
							</defs>
							<clipPath id="SVGID_00000029045321912560544610000014743388320857236876_">
								<use xlink:href="#SVGID_00000124847319832559053200000010073450141642840725_"  style="overflow:visible;"/>
							</clipPath>
							
								<path style="clip-path:url(#SVGID_00000029045321912560544610000014743388320857236876_);fill:none;stroke:#808080;stroke-width:0.5;stroke-linecap:square;stroke-linejoin:round;" d="
								M351.8,644V72.4"/>
						</g>
					</g>
				</g>
				<g id="line2d_6">
					<g>
						<g>
							<path id="m550bd0028b_00000160170260421990412570000001848502462656895370_" class="st2" d="M351.8,644v3.5"/>
						</g>
					</g>
				</g>
				<g id="text_3">
					<g transform="translate(333.311336 658.602438) scale(0.1 -0.1)">
						<g>
							<path id="DejaVuSans-31_00000086682967515769916150000017493646512691433867_" d="M12.4,8.3h16.1v55.6L11,60.4v9l17.4,3.5
								h9.9V8.3h16.1V0h-42C12.4,0,12.4,8.3,12.4,8.3z"/>
						</g>
						<g>
							<path id="DejaVuSans-2e_00000010307080431367521920000004638904534134941119_" d="M74.3,12.4h10.3V0H74.3V12.4z"/>
						</g>
						<g>
							<path id="DejaVuSans-30_00000164511642403259141800000000171473413928740021_" d="M127.2,66.4c-5.1,0-8.9-2.5-11.5-7.5
								s-3.8-12.5-3.8-22.5s1.3-17.5,3.8-22.5c2.6-5,6.4-7.5,11.5-7.5s8.9,2.5,11.5,7.5s3.8,12.5,3.8,22.5s-1.3,17.5-3.8,22.5
								C136.1,63.9,132.3,66.4,127.2,66.4z M127.2,74.2c8.2,0,14.4-3.2,18.7-9.7s6.5-15.8,6.5-28.1s-2.2-21.6-6.5-28.1
								s-10.6-9.7-18.7-9.7c-8.2,0-14.4,3.2-18.7,9.7c-4.3,6.5-6.5,15.8-6.5,28.1s2.2,21.7,6.5,28.1C112.8,71,119,74.2,127.2,74.2z"
								/>
						</g>
						<g>
							<path id="DejaVuSans-30_00000050652154472131512710000007006117494314602160_" d="M190.8,66.4c-5.1,0-8.9-2.5-11.5-7.5
								s-3.8-12.5-3.8-22.5s1.3-17.5,3.8-22.5c2.6-5,6.4-7.5,11.5-7.5s8.9,2.5,11.5,7.5s3.8,12.5,3.8,22.5s-1.3,17.5-3.8,22.5
								S195.9,66.4,190.8,66.4z M190.8,74.2c8.2,0,14.4-3.2,18.7-9.7s6.5-15.8,6.5-28.1s-2.2-21.6-6.5-28.1s-10.6-9.7-18.7-9.7
								c-8.2,0-14.4,3.2-18.7,9.7s-6.5,15.8-6.5,28.1s2.2,21.7,6.5,28.1C176.4,71,182.6,74.2,190.8,74.2z"/>
						</g>
						<g>
							<path id="DejaVuSans-35" d="M233.5,72.9h38.7v-8.3h-29.7V46.7c1.4,0.5,2.9,0.9,4.3,1.1c1.4,0.2,2.9,0.4,4.3,0.4
								c8.1,0,14.6-2.2,19.3-6.7c4.8-4.5,7.1-10.5,7.1-18.1c0-7.8-2.4-13.9-7.3-18.3c-4.9-4.3-11.8-6.5-20.7-6.5
								c-3.1,0-6.2,0.3-9.4,0.8s-6.4,1.3-9.8,2.3v9.9c2.9-1.6,6-2.8,9.1-3.6s6.4-1.2,9.9-1.2c5.6,0,10.1,1.5,13.4,4.4
								c3.3,3,4.9,7,4.9,12.1s-1.6,9.1-4.9,12c-3.3,3-7.7,4.5-13.4,4.5c-2.6,0-5.3-0.3-7.9-0.9c-2.6-0.6-5.3-1.5-8-2.7L233.5,72.9
								L233.5,72.9z"/>
						</g>
						<g>
							<path id="DejaVuSans-20_00000034061250541887722880000003423701000613699972_" d="M286.3,0"/>
						</g>
						<g>
							<path id="DejaVuSans-73_00000012472582602130324230000007133394486404653986_" d="M362.3,53.1v-8.5c-2.5,1.3-5.2,2.3-7.9,2.9
								c-2.7,0.7-5.6,1-8.5,1c-4.5,0-7.8-0.7-10-2c-2.2-1.4-3.3-3.4-3.3-6.2c0-2.1,0.8-3.7,2.4-4.9s4.8-2.3,9.6-3.4l3.1-0.7
								c6.4-1.4,10.9-3.3,13.6-5.8s4-6,4-10.4c0-5.1-2-9.1-6-12.1s-9.5-4.4-16.6-4.4c-2.9,0-6,0.3-9.2,0.9s-6.5,1.4-10,2.6v9.3
								c3.3-1.7,6.6-3,9.8-3.9c3.2-0.9,6.4-1.3,9.6-1.3c4.2,0,7.5,0.7,9.8,2.2c2.3,1.4,3.4,3.5,3.4,6.1c0,2.4-0.8,4.3-2.5,5.6
								c-1.6,1.3-5.2,2.6-10.8,3.8l-3.1,0.7c-5.6,1.2-9.6,3-12.1,5.4s-3.7,5.8-3.7,10c0,5.1,1.8,9.1,5.5,11.9
								c3.6,2.8,8.8,4.2,15.5,4.2c3.3,0,6.4-0.2,9.4-0.7C357.2,54.8,359.9,54.1,362.3,53.1z"/>
						</g>
					</g>
				</g>
			</g>
			<g id="xtick_4">
				<g id="line2d_7">
					<g>
						<g>
							<defs>
								<rect id="SVGID_00000129897084006769712730000004683114310605394307_" x="123.1" y="72.4" width="800.3" height="571.6"/>
							</defs>
							<clipPath id="SVGID_00000088131343786678256990000010687039087364730524_">
								<use xlink:href="#SVGID_00000129897084006769712730000004683114310605394307_"  style="overflow:visible;"/>
							</clipPath>
							
								<path style="clip-path:url(#SVGID_00000088131343786678256990000010687039087364730524_);fill:none;stroke:#808080;stroke-width:0.5;stroke-linecap:square;stroke-linejoin:round;" d="
								M442.9,644V72.4"/>
						</g>
					</g>
				</g>
				<g id="line2d_8">
					<g>
						<g>
							<path id="m550bd0028b_00000060031269407184983110000004732199891299112341_" class="st2" d="M442.9,644v3.5"/>
						</g>
					</g>
				</g>
				<g id="text_4">
					<g transform="translate(424.351365 658.602438) scale(0.1 -0.1)">
						<g>
							<path id="DejaVuSans-31_00000080172820605668938450000007156968779675016087_" d="M12.4,8.3h16.1v55.6L11,60.4v9l17.4,3.5
								h9.9V8.3h16.1V0h-42C12.4,0,12.4,8.3,12.4,8.3z"/>
						</g>
						<g>
							<path id="DejaVuSans-2e_00000023262927535498356230000002652362197315800998_" d="M74.3,12.4h10.3V0H74.3V12.4z"/>
						</g>
						<g>
							<path id="DejaVuSans-30_00000096744494683352983160000018283824294159812534_" d="M127.2,66.4c-5.1,0-8.9-2.5-11.5-7.5
								s-3.8-12.5-3.8-22.5s1.3-17.5,3.8-22.5c2.6-5,6.4-7.5,11.5-7.5s8.9,2.5,11.5,7.5s3.8,12.5,3.8,22.5s-1.3,17.5-3.8,22.5
								C136.1,63.9,132.3,66.4,127.2,66.4z M127.2,74.2c8.2,0,14.4-3.2,18.7-9.7s6.5-15.8,6.5-28.1s-2.2-21.6-6.5-28.1
								s-10.6-9.7-18.7-9.7c-8.2,0-14.4,3.2-18.7,9.7c-4.3,6.5-6.5,15.8-6.5,28.1s2.2,21.7,6.5,28.1C112.8,71,119,74.2,127.2,74.2z"
								/>
						</g>
						<g>
							<path id="DejaVuSans-30_00000078756667152591510940000001490858399239300761_" d="M190.8,66.4c-5.1,0-8.9-2.5-11.5-7.5
								s-3.8-12.5-3.8-22.5s1.3-17.5,3.8-22.5c2.6-5,6.4-7.5,11.5-7.5s8.9,2.5,11.5,7.5s3.8,12.5,3.8,22.5s-1.3,17.5-3.8,22.5
								S195.9,66.4,190.8,66.4z M190.8,74.2c8.2,0,14.4-3.2,18.7-9.7s6.5-15.8,6.5-28.1s-2.2-21.6-6.5-28.1s-10.6-9.7-18.7-9.7
								c-8.2,0-14.4,3.2-18.7,9.7s-6.5,15.8-6.5,28.1s2.2,21.7,6.5,28.1C176.4,71,182.6,74.2,190.8,74.2z"/>
						</g>
						<g>
							<path id="DejaVuSans-38" d="M254.4,34.6c-4.7,0-8.4-1.3-11.1-3.8c-2.7-2.5-4-6-4-10.3c0-4.4,1.3-7.8,4-10.4
								c2.7-2.5,6.4-3.8,11.1-3.8c4.7,0,8.4,1.3,11.1,3.8s4.1,6,4.1,10.3c0,4.4-1.3,7.8-4,10.3C262.9,33.4,259.2,34.6,254.4,34.6z
								 M244.6,38.8c-4.2,1-7.5,3-9.9,5.9s-3.5,6.4-3.5,10.6c0,5.8,2.1,10.4,6.2,13.8c4.2,3.4,9.8,5.1,17.1,5.1
								c7.3,0,13-1.7,17.1-5.1s6.2-8,6.2-13.8c0-4.2-1.2-7.7-3.5-10.6c-2.4-2.9-5.6-4.9-9.8-5.9c4.8-1.1,8.4-3.3,11.1-6.5
								s4-7.2,4-11.8c0-7.1-2.2-12.5-6.5-16.3s-10.5-5.7-18.5-5.7c-8,0-14.2,1.9-18.5,5.7s-6.5,9.2-6.5,16.3c0,4.6,1.3,8.6,4,11.8
								C236.1,35.5,239.8,37.7,244.6,38.8z M241,54.4c0-3.8,1.2-6.7,3.5-8.8c2.4-2.1,5.7-3.2,9.9-3.2s7.6,1.1,9.9,3.2
								c2.4,2.1,3.6,5.1,3.6,8.8c0,3.8-1.2,6.7-3.6,8.8c-2.4,2.1-5.7,3.2-9.9,3.2c-4.3,0-7.6-1.1-9.9-3.2
								C242.1,61.1,241,58.2,241,54.4z"/>
						</g>
						<g>
							<path id="DejaVuSans-20_00000080166563687690331000000003128003336076067002_" d="M286.3,0"/>
						</g>
						<g>
							<path id="DejaVuSans-73_00000102523577056827491940000003666965638703943836_" d="M362.3,53.1v-8.5c-2.5,1.3-5.2,2.3-7.9,2.9
								c-2.7,0.7-5.6,1-8.5,1c-4.5,0-7.8-0.7-10-2c-2.2-1.4-3.3-3.4-3.3-6.2c0-2.1,0.8-3.7,2.4-4.9s4.8-2.3,9.6-3.4l3.1-0.7
								c6.4-1.4,10.9-3.3,13.6-5.8s4-6,4-10.4c0-5.1-2-9.1-6-12.1s-9.5-4.4-16.6-4.4c-2.9,0-6,0.3-9.2,0.9s-6.5,1.4-10,2.6v9.3
								c3.3-1.7,6.6-3,9.8-3.9c3.2-0.9,6.4-1.3,9.6-1.3c4.2,0,7.5,0.7,9.8,2.2c2.3,1.4,3.4,3.5,3.4,6.1c0,2.4-0.8,4.3-2.5,5.6
								c-1.6,1.3-5.2,2.6-10.8,3.8l-3.1,0.7c-5.6,1.2-9.6,3-12.1,5.4s-3.7,5.8-3.7,10c0,5.1,1.8,9.1,5.5,11.9
								c3.6,2.8,8.8,4.2,15.5,4.2c3.3,0,6.4-0.2,9.4-0.7C357.2,54.8,359.9,54.1,362.3,53.1z"/>
						</g>
					</g>
				</g>
			</g>
			<g id="xtick_5">
				<g id="line2d_9">
					<g>
						<g>
							<defs>
								<rect id="SVGID_00000049192710503426301700000014961773290940549290_" x="123.1" y="72.4" width="800.3" height="571.6"/>
							</defs>
							<clipPath id="SVGID_00000040563661184708568800000007607552493643263362_">
								<use xlink:href="#SVGID_00000049192710503426301700000014961773290940549290_"  style="overflow:visible;"/>
							</clipPath>
							
								<path style="clip-path:url(#SVGID_00000040563661184708568800000007607552493643263362_);fill:none;stroke:#808080;stroke-width:0.5;stroke-linecap:square;stroke-linejoin:round;" d="
								M533.9,644V72.4"/>
						</g>
					</g>
				</g>
				<g id="line2d_10">
					<g>
						<g>
							<path id="m550bd0028b_00000045613666586108144300000011364587130585945500_" class="st2" d="M533.9,644v3.5"/>
						</g>
					</g>
				</g>
				<g id="text_5">
					<g transform="translate(515.391393 658.602438) scale(0.1 -0.1)">
						<g>
							<path id="DejaVuSans-31_00000157295324896178049350000004047420771785054116_" d="M12.4,8.3h16.1v55.6L11,60.4v9l17.4,3.5
								h9.9V8.3h16.1V0h-42C12.4,0,12.4,8.3,12.4,8.3z"/>
						</g>
						<g>
							<path id="DejaVuSans-2e_00000049903668942791535210000011239038813161057969_" d="M74.3,12.4h10.3V0H74.3V12.4z"/>
						</g>
						<g>
							<path id="DejaVuSans-30_00000105425300559835061540000016655869016035607474_" d="M127.2,66.4c-5.1,0-8.9-2.5-11.5-7.5
								s-3.8-12.5-3.8-22.5s1.3-17.5,3.8-22.5c2.6-5,6.4-7.5,11.5-7.5s8.9,2.5,11.5,7.5s3.8,12.5,3.8,22.5s-1.3,17.5-3.8,22.5
								C136.1,63.9,132.3,66.4,127.2,66.4z M127.2,74.2c8.2,0,14.4-3.2,18.7-9.7s6.5-15.8,6.5-28.1s-2.2-21.6-6.5-28.1
								s-10.6-9.7-18.7-9.7c-8.2,0-14.4,3.2-18.7,9.7c-4.3,6.5-6.5,15.8-6.5,28.1s2.2,21.7,6.5,28.1C112.8,71,119,74.2,127.2,74.2z"
								/>
						</g>
						<g>
							<path id="DejaVuSans-31_00000048502298500480106020000012982388232258960313_" d="M171.4,8.3h16.1v55.6L170,60.4v9l17.4,3.5
								h9.9V8.3h16.1V0h-42V8.3z"/>
						</g>
						<g>
							<path id="DejaVuSans-30_00000149381019813742996210000006719233012347529149_" d="M254.4,66.4c-5.1,0-8.9-2.5-11.5-7.5
								s-3.8-12.5-3.8-22.5s1.3-17.5,3.8-22.5c2.6-5,6.4-7.5,11.5-7.5c5.1,0,8.9,2.5,11.5,7.5s3.8,12.5,3.8,22.5s-1.3,17.5-3.8,22.5
								S259.6,66.4,254.4,66.4z M254.4,74.2c8.2,0,14.4-3.2,18.7-9.7c4.3-6.5,6.5-15.8,6.5-28.1s-2.2-21.6-6.5-28.1
								s-10.6-9.7-18.7-9.7c-8.2,0-14.4,3.2-18.7,9.7s-6.5,15.8-6.5,28.1s2.2,21.7,6.5,28.1C240,71,246.3,74.2,254.4,74.2z"/>
						</g>
						<g>
							<path id="DejaVuSans-20_00000140697304607357873970000007867430681672475054_" d="M286.3,0"/>
						</g>
						<g>
							<path id="DejaVuSans-73_00000160164580429125721150000004274562835120763266_" d="M362.3,53.1v-8.5c-2.5,1.3-5.2,2.3-7.9,2.9
								c-2.7,0.7-5.6,1-8.5,1c-4.5,0-7.8-0.7-10-2c-2.2-1.4-3.3-3.4-3.3-6.2c0-2.1,0.8-3.7,2.4-4.9s4.8-2.3,9.6-3.4l3.1-0.7
								c6.4-1.4,10.9-3.3,13.6-5.8s4-6,4-10.4c0-5.1-2-9.1-6-12.1s-9.5-4.4-16.6-4.4c-2.9,0-6,0.3-9.2,0.9s-6.5,1.4-10,2.6v9.3
								c3.3-1.7,6.6-3,9.8-3.9c3.2-0.9,6.4-1.3,9.6-1.3c4.2,0,7.5,0.7,9.8,2.2c2.3,1.4,3.4,3.5,3.4,6.1c0,2.4-0.8,4.3-2.5,5.6
								c-1.6,1.3-5.2,2.6-10.8,3.8l-3.1,0.7c-5.6,1.2-9.6,3-12.1,5.4s-3.7,5.8-3.7,10c0,5.1,1.8,9.1,5.5,11.9
								c3.6,2.8,8.8,4.2,15.5,4.2c3.3,0,6.4-0.2,9.4-0.7C357.2,54.8,359.9,54.1,362.3,53.1z"/>
						</g>
					</g>
				</g>
			</g>
			<g id="xtick_6">
				<g id="line2d_11">
					<g>
						<g>
							<defs>
								<rect id="SVGID_00000140731318267576350630000002568884872573336752_" x="123.1" y="72.4" width="800.3" height="571.6"/>
							</defs>
							<clipPath id="SVGID_00000124871339424267197350000000767175762103543997_">
								<use xlink:href="#SVGID_00000140731318267576350630000002568884872573336752_"  style="overflow:visible;"/>
							</clipPath>
							
								<path style="clip-path:url(#SVGID_00000124871339424267197350000000767175762103543997_);fill:none;stroke:#808080;stroke-width:0.5;stroke-linecap:square;stroke-linejoin:round;" d="
								M624.9,644V72.4"/>
						</g>
					</g>
				</g>
				<g id="line2d_12">
					<g>
						<g>
							<path id="m550bd0028b_00000066475938173618631950000011529023854331267253_" class="st2" d="M624.9,644v3.5"/>
						</g>
					</g>
				</g>
				<g id="text_6">
					<g transform="translate(606.431422 658.602438) scale(0.1 -0.1)">
						<g>
							<path id="DejaVuSans-31_00000141421103134641766440000011018642452455117721_" d="M12.4,8.3h16.1v55.6L11,60.4v9l17.4,3.5
								h9.9V8.3h16.1V0h-42C12.4,0,12.4,8.3,12.4,8.3z"/>
						</g>
						<g>
							<path id="DejaVuSans-2e_00000077304804552538454340000000259277387900891274_" d="M74.3,12.4h10.3V0H74.3V12.4z"/>
						</g>
						<g>
							<path id="DejaVuSans-30_00000078004659143372855180000014260625654886623367_" d="M127.2,66.4c-5.1,0-8.9-2.5-11.5-7.5
								s-3.8-12.5-3.8-22.5s1.3-17.5,3.8-22.5c2.6-5,6.4-7.5,11.5-7.5s8.9,2.5,11.5,7.5s3.8,12.5,3.8,22.5s-1.3,17.5-3.8,22.5
								C136.1,63.9,132.3,66.4,127.2,66.4z M127.2,74.2c8.2,0,14.4-3.2,18.7-9.7s6.5-15.8,6.5-28.1s-2.2-21.6-6.5-28.1
								s-10.6-9.7-18.7-9.7c-8.2,0-14.4,3.2-18.7,9.7c-4.3,6.5-6.5,15.8-6.5,28.1s2.2,21.7,6.5,28.1C112.8,71,119,74.2,127.2,74.2z"
								/>
						</g>
						<g>
							<path id="DejaVuSans-31_00000100347100250706505000000016062889616971959470_" d="M171.4,8.3h16.1v55.6L170,60.4v9l17.4,3.5
								h9.9V8.3h16.1V0h-42V8.3z"/>
						</g>
						<g>
							<path id="DejaVuSans-32_00000147916625095322042080000000422303069344229517_" d="M241.8,8.3h34.4V0H230v8.3
								c3.7,3.9,8.8,9.1,15.3,15.6s10.5,10.7,12.2,12.6c3.2,3.5,5.4,6.5,6.6,9c1.3,2.5,1.9,4.9,1.9,7.2c0,3.9-1.4,7-4.1,9.5
								c-2.7,2.4-6.3,3.7-10.6,3.7c-3.1,0-6.4-0.5-9.8-1.6c-3.4-1.1-7.1-2.7-11-4.9v10c4,1.6,7.7,2.8,11.1,3.6
								c3.5,0.8,6.6,1.2,9.5,1.2c7.6,0,13.6-1.9,18.1-5.7c4.5-3.8,6.7-8.8,6.7-15.1c0-3-0.6-5.8-1.7-8.5s-3.2-5.8-6.1-9.5
								c-0.8-0.9-3.4-3.7-7.8-8.2C255.9,22.7,249.8,16.4,241.8,8.3z"/>
						</g>
						<g>
							<path id="DejaVuSans-20_00000151531818053239401480000005545136145968450451_" d="M286.3,0"/>
						</g>
						<g>
							<path id="DejaVuSans-73_00000041997974443428446600000013208048710496265895_" d="M362.3,53.1v-8.5c-2.5,1.3-5.2,2.3-7.9,2.9
								c-2.7,0.7-5.6,1-8.5,1c-4.5,0-7.8-0.7-10-2c-2.2-1.4-3.3-3.4-3.3-6.2c0-2.1,0.8-3.7,2.4-4.9s4.8-2.3,9.6-3.4l3.1-0.7
								c6.4-1.4,10.9-3.3,13.6-5.8s4-6,4-10.4c0-5.1-2-9.1-6-12.1s-9.5-4.4-16.6-4.4c-2.9,0-6,0.3-9.2,0.9s-6.5,1.4-10,2.6v9.3
								c3.3-1.7,6.6-3,9.8-3.9c3.2-0.9,6.4-1.3,9.6-1.3c4.2,0,7.5,0.7,9.8,2.2c2.3,1.4,3.4,3.5,3.4,6.1c0,2.4-0.8,4.3-2.5,5.6
								c-1.6,1.3-5.2,2.6-10.8,3.8l-3.1,0.7c-5.6,1.2-9.6,3-12.1,5.4s-3.7,5.8-3.7,10c0,5.1,1.8,9.1,5.5,11.9
								c3.6,2.8,8.8,4.2,15.5,4.2c3.3,0,6.4-0.2,9.4-0.7C357.2,54.8,359.9,54.1,362.3,53.1z"/>
						</g>
					</g>
				</g>
			</g>
			<g id="xtick_7">
				<g id="line2d_13">
					<g>
						<g>
							<defs>
								<rect id="SVGID_00000140007076996534254720000000596406257158801546_" x="123.1" y="72.4" width="800.3" height="571.6"/>
							</defs>
							<clipPath id="SVGID_00000062882878323348013810000016117632243835435450_">
								<use xlink:href="#SVGID_00000140007076996534254720000000596406257158801546_"  style="overflow:visible;"/>
							</clipPath>
							
								<path style="clip-path:url(#SVGID_00000062882878323348013810000016117632243835435450_);fill:none;stroke:#808080;stroke-width:0.5;stroke-linecap:square;stroke-linejoin:round;" d="
								M716,644V72.4"/>
						</g>
					</g>
				</g>
				<g id="line2d_14">
					<g>
						<g>
							<path id="m550bd0028b_00000120520715450698637670000007274576420848018842_" class="st2" d="M716,644v3.5"/>
						</g>
					</g>
				</g>
				<g id="text_7">
					<g transform="translate(697.471451 658.602438) scale(0.1 -0.1)">
						<g>
							<path id="DejaVuSans-31_00000030451254694421475350000017661324692241109896_" d="M12.4,8.3h16.1v55.6L11,60.4v9l17.4,3.5
								h9.9V8.3h16.1V0h-42C12.4,0,12.4,8.3,12.4,8.3z"/>
						</g>
						<g>
							<path id="DejaVuSans-2e_00000146477993447064041900000015454040433002807477_" d="M74.3,12.4h10.3V0H74.3V12.4z"/>
						</g>
						<g>
							<path id="DejaVuSans-30_00000026858413514270831350000003855985239638493834_" d="M127.2,66.4c-5.1,0-8.9-2.5-11.5-7.5
								s-3.8-12.5-3.8-22.5s1.3-17.5,3.8-22.5c2.6-5,6.4-7.5,11.5-7.5c5.1,0,8.9,2.5,11.5,7.5s3.8,12.5,3.8,22.5s-1.3,17.5-3.8,22.5
								C136.1,63.9,132.3,66.4,127.2,66.4z M127.2,74.2c8.2,0,14.4-3.2,18.7-9.7s6.5-15.8,6.5-28.1s-2.2-21.6-6.5-28.1
								s-10.6-9.7-18.7-9.7c-8.2,0-14.4,3.2-18.7,9.7c-4.3,6.5-6.5,15.8-6.5,28.1s2.2,21.7,6.5,28.1C112.8,71,119,74.2,127.2,74.2z"
								/>
						</g>
						<g>
							<path id="DejaVuSans-31_00000098211280071001883590000007213929145177793170_" d="M171.4,8.3h16.1v55.6L170,60.4v9l17.4,3.5
								h9.9V8.3h16.1V0h-42V8.3z"/>
						</g>
						<g>
							<path id="DejaVuSans-35_00000106127060900509426280000003528703430005719941_" d="M233.5,72.9h38.7v-8.3h-29.7V46.7
								c1.4,0.5,2.9,0.9,4.3,1.1c1.4,0.2,2.9,0.4,4.3,0.4c8.1,0,14.6-2.2,19.3-6.7c4.8-4.5,7.1-10.5,7.1-18.1
								c0-7.8-2.4-13.9-7.3-18.3c-4.9-4.3-11.8-6.5-20.7-6.5c-3.1,0-6.2,0.3-9.4,0.8s-6.4,1.3-9.8,2.3v9.9c2.9-1.6,6-2.8,9.1-3.6
								s6.4-1.2,9.9-1.2c5.6,0,10.1,1.5,13.4,4.4c3.3,3,4.9,7,4.9,12.1s-1.6,9.1-4.9,12c-3.3,3-7.7,4.5-13.4,4.5
								c-2.6,0-5.3-0.3-7.9-0.9c-2.6-0.6-5.3-1.5-8-2.7L233.5,72.9L233.5,72.9z"/>
						</g>
						<g>
							<path id="DejaVuSans-20_00000018229243288534161670000001407463719656155066_" d="M286.3,0"/>
						</g>
						<g>
							<path id="DejaVuSans-73_00000160178904516073102110000007630426917482373529_" d="M362.3,53.1v-8.5c-2.5,1.3-5.2,2.3-7.9,2.9
								c-2.7,0.7-5.6,1-8.5,1c-4.5,0-7.8-0.7-10-2s-3.3-3.4-3.3-6.2c0-2.1,0.8-3.7,2.4-4.9s4.8-2.3,9.6-3.4l3.1-0.7
								c6.4-1.4,10.9-3.3,13.6-5.8s4-6,4-10.4c0-5.1-2-9.1-6-12.1s-9.5-4.4-16.6-4.4c-2.9,0-6,0.3-9.2,0.9s-6.5,1.4-10,2.6v9.3
								c3.3-1.7,6.6-3,9.8-3.9c3.2-0.9,6.4-1.3,9.6-1.3c4.2,0,7.5,0.7,9.8,2.2c2.3,1.4,3.4,3.5,3.4,6.1c0,2.4-0.8,4.3-2.5,5.6
								c-1.6,1.3-5.2,2.6-10.8,3.8l-3.1,0.7c-5.6,1.2-9.6,3-12.1,5.4s-3.7,5.8-3.7,10c0,5.1,1.8,9.1,5.5,11.9
								c3.6,2.8,8.8,4.2,15.5,4.2c3.3,0,6.4-0.2,9.4-0.7C357.2,54.8,359.9,54.1,362.3,53.1z"/>
						</g>
					</g>
				</g>
			</g>
			<g id="xtick_8">
				<g id="line2d_15">
					<g>
						<g>
							<defs>
								<rect id="SVGID_00000141441179194921749290000013742157932643459226_" x="123.1" y="72.4" width="800.3" height="571.6"/>
							</defs>
							<clipPath id="SVGID_00000019677570816110052810000016695689619421634704_">
								<use xlink:href="#SVGID_00000141441179194921749290000013742157932643459226_"  style="overflow:visible;"/>
							</clipPath>
							
								<path style="clip-path:url(#SVGID_00000019677570816110052810000016695689619421634704_);fill:none;stroke:#808080;stroke-width:0.5;stroke-linecap:square;stroke-linejoin:round;" d="
								M807,644V72.4"/>
						</g>
					</g>
				</g>
				<g id="line2d_16">
					<g>
						<g>
							<path id="m550bd0028b_00000154425675264309622640000006583816533169503876_" class="st2" d="M807,644v3.5"/>
						</g>
					</g>
				</g>
				<g id="text_8">
					<g transform="translate(788.511479 658.602438) scale(0.1 -0.1)">
						<g>
							<path id="DejaVuSans-31_00000151512485754821734090000007993463742384966078_" d="M12.4,8.3h16.1v55.6L11,60.4v9l17.4,3.5
								h9.9V8.3h16.1V0h-42C12.4,0,12.4,8.3,12.4,8.3z"/>
						</g>
						<g>
							<path id="DejaVuSans-2e_00000118389782148433465270000012525874082536722338_" d="M74.3,12.4h10.3V0H74.3V12.4z"/>
						</g>
						<g>
							<path id="DejaVuSans-30_00000031928023304895018780000017743906078954208938_" d="M127.2,66.4c-5.1,0-8.9-2.5-11.5-7.5
								s-3.8-12.5-3.8-22.5s1.3-17.5,3.8-22.5c2.6-5,6.4-7.5,11.5-7.5c5.1,0,8.9,2.5,11.5,7.5s3.8,12.5,3.8,22.5s-1.3,17.5-3.8,22.5
								C136.1,63.9,132.3,66.4,127.2,66.4z M127.2,74.2c8.2,0,14.4-3.2,18.7-9.7s6.5-15.8,6.5-28.1s-2.2-21.6-6.5-28.1
								s-10.6-9.7-18.7-9.7c-8.2,0-14.4,3.2-18.7,9.7c-4.3,6.5-6.5,15.8-6.5,28.1s2.2,21.7,6.5,28.1C112.8,71,119,74.2,127.2,74.2z"
								/>
						</g>
						<g>
							<path id="DejaVuSans-31_00000039820707441872329780000009682550417297103505_" d="M171.4,8.3h16.1v55.6L170,60.4v9l17.4,3.5
								h9.9V8.3h16.1V0h-42V8.3z"/>
						</g>
						<g>
							<path id="DejaVuSans-38_00000090974680292864539120000009998140606573076644_" d="M254.4,34.6c-4.7,0-8.4-1.3-11.1-3.8
								c-2.7-2.5-4-6-4-10.3c0-4.4,1.3-7.8,4-10.4c2.7-2.5,6.4-3.8,11.1-3.8s8.4,1.3,11.1,3.8s4.1,6,4.1,10.3c0,4.4-1.3,7.8-4,10.3
								C262.9,33.4,259.2,34.6,254.4,34.6z M244.6,38.8c-4.2,1-7.5,3-9.9,5.9s-3.5,6.4-3.5,10.6c0,5.8,2.1,10.4,6.2,13.8
								c4.2,3.4,9.8,5.1,17.1,5.1s13-1.7,17.1-5.1s6.2-8,6.2-13.8c0-4.2-1.2-7.7-3.5-10.6c-2.4-2.9-5.6-4.9-9.8-5.9
								c4.8-1.1,8.4-3.3,11.1-6.5s4-7.2,4-11.8c0-7.1-2.2-12.5-6.5-16.3s-10.5-5.7-18.5-5.7s-14.2,1.9-18.5,5.7s-6.5,9.2-6.5,16.3
								c0,4.6,1.3,8.6,4,11.8C236.1,35.5,239.8,37.7,244.6,38.8z M241,54.4c0-3.8,1.2-6.7,3.5-8.8c2.4-2.1,5.7-3.2,9.9-3.2
								c4.2,0,7.6,1.1,9.9,3.2c2.4,2.1,3.6,5.1,3.6,8.8c0,3.8-1.2,6.7-3.6,8.8c-2.4,2.1-5.7,3.2-9.9,3.2c-4.3,0-7.6-1.1-9.9-3.2
								C242.1,61.1,241,58.2,241,54.4z"/>
						</g>
						<g>
							<path id="DejaVuSans-20_00000072243969176093913880000007413536340053894810_" d="M286.3,0"/>
						</g>
						<g>
							<path id="DejaVuSans-73_00000096770355810599967720000005025532878118103743_" d="M362.3,53.1v-8.5c-2.5,1.3-5.2,2.3-7.9,2.9
								c-2.7,0.7-5.6,1-8.5,1c-4.5,0-7.8-0.7-10-2s-3.3-3.4-3.3-6.2c0-2.1,0.8-3.7,2.4-4.9s4.8-2.3,9.6-3.4l3.1-0.7
								c6.4-1.4,10.9-3.3,13.6-5.8s4-6,4-10.4c0-5.1-2-9.1-6-12.1s-9.5-4.4-16.6-4.4c-2.9,0-6,0.3-9.2,0.9s-6.5,1.4-10,2.6v9.3
								c3.3-1.7,6.6-3,9.8-3.9c3.2-0.9,6.4-1.3,9.6-1.3c4.2,0,7.5,0.7,9.8,2.2c2.3,1.4,3.4,3.5,3.4,6.1c0,2.4-0.8,4.3-2.5,5.6
								c-1.6,1.3-5.2,2.6-10.8,3.8l-3.1,0.7c-5.6,1.2-9.6,3-12.1,5.4s-3.7,5.8-3.7,10c0,5.1,1.8,9.1,5.5,11.9
								c3.6,2.8,8.8,4.2,15.5,4.2c3.3,0,6.4-0.2,9.4-0.7C357.2,54.8,359.9,54.1,362.3,53.1z"/>
						</g>
					</g>
				</g>
			</g>
			<g id="xtick_9">
				<g id="line2d_17">
					<g>
						<g>
							<defs>
								<rect id="SVGID_00000171706756642283006280000014609803546296957591_" x="123.1" y="72.4" width="800.3" height="571.6"/>
							</defs>
							<clipPath id="SVGID_00000065041457522900607760000013224493202869305487_">
								<use xlink:href="#SVGID_00000171706756642283006280000014609803546296957591_"  style="overflow:visible;"/>
							</clipPath>
							
								<path style="clip-path:url(#SVGID_00000065041457522900607760000013224493202869305487_);fill:none;stroke:#808080;stroke-width:0.5;stroke-linecap:square;stroke-linejoin:round;" d="
								M898.1,644V72.4"/>
						</g>
					</g>
				</g>
				<g id="line2d_18">
					<g>
						<g>
							<path id="m550bd0028b_00000056397276979437539690000012242516343247058053_" class="st2" d="M898.1,644v3.5"/>
						</g>
					</g>
				</g>
				<g id="text_9">
					<g transform="translate(879.551508 658.602438) scale(0.1 -0.1)">
						<g>
							<path id="DejaVuSans-31_00000175324285384381131940000010341994392246785470_" d="M12.4,8.3h16.1v55.6L11,60.4v9l17.4,3.5
								h9.9V8.3h16.1V0h-42C12.4,0,12.4,8.3,12.4,8.3z"/>
						</g>
						<g>
							<path id="DejaVuSans-2e_00000152981459989197947660000014710947627106205616_" d="M74.3,12.4h10.3V0H74.3V12.4z"/>
						</g>
						<g>
							<path id="DejaVuSans-30_00000150794306174774875020000013180274559955772812_" d="M127.2,66.4c-5.1,0-8.9-2.5-11.5-7.5
								s-3.8-12.5-3.8-22.5s1.3-17.5,3.8-22.5c2.6-5,6.4-7.5,11.5-7.5c5.1,0,8.9,2.5,11.5,7.5s3.8,12.5,3.8,22.5s-1.3,17.5-3.8,22.5
								C136.1,63.9,132.3,66.4,127.2,66.4z M127.2,74.2c8.2,0,14.4-3.2,18.7-9.7s6.5-15.8,6.5-28.1s-2.2-21.6-6.5-28.1
								s-10.6-9.7-18.7-9.7c-8.2,0-14.4,3.2-18.7,9.7c-4.3,6.5-6.5,15.8-6.5,28.1s2.2,21.7,6.5,28.1C112.8,71,119,74.2,127.2,74.2z"
								/>
						</g>
						<g>
							<path id="DejaVuSans-32_00000029757424888617221440000018321521292686271410_" d="M178.2,8.3h34.4V0h-46.3v8.3
								c3.7,3.9,8.8,9.1,15.3,15.6s10.5,10.7,12.2,12.6c3.2,3.5,5.4,6.5,6.6,9c1.3,2.5,1.9,4.9,1.9,7.2c0,3.9-1.4,7-4.1,9.5
								c-2.7,2.4-6.3,3.7-10.6,3.7c-3.1,0-6.4-0.5-9.8-1.6c-3.4-1.1-7.1-2.7-11-4.9v10c4,1.6,7.7,2.8,11.1,3.6
								c3.5,0.8,6.6,1.2,9.5,1.2c7.6,0,13.6-1.9,18.1-5.7c4.5-3.8,6.7-8.8,6.7-15.1c0-3-0.6-5.8-1.7-8.5c-1.1-2.7-3.2-5.8-6.1-9.5
								c-0.8-0.9-3.4-3.7-7.8-8.2C192.3,22.7,186.2,16.4,178.2,8.3z"/>
						</g>
						<g>
							<path id="DejaVuSans-30_00000069362465235484362220000014290891669595038343_" d="M254.4,66.4c-5.1,0-8.9-2.5-11.5-7.5
								s-3.8-12.5-3.8-22.5s1.3-17.5,3.8-22.5c2.6-5,6.4-7.5,11.5-7.5s8.9,2.5,11.5,7.5s3.8,12.5,3.8,22.5s-1.3,17.5-3.8,22.5
								S259.6,66.4,254.4,66.4z M254.4,74.2c8.2,0,14.4-3.2,18.7-9.7c4.3-6.5,6.5-15.8,6.5-28.1s-2.2-21.6-6.5-28.1
								s-10.6-9.7-18.7-9.7c-8.2,0-14.4,3.2-18.7,9.7s-6.5,15.8-6.5,28.1s2.2,21.7,6.5,28.1C240,71,246.3,74.2,254.4,74.2z"/>
						</g>
						<g>
							<path id="DejaVuSans-20_00000134938631452002561870000001801891334522535822_" d="M286.3,0"/>
						</g>
						<g>
							<path id="DejaVuSans-73_00000071552592197351349620000008930630636438988952_" d="M362.3,53.1v-8.5c-2.5,1.3-5.2,2.3-7.9,2.9
								c-2.7,0.7-5.6,1-8.5,1c-4.5,0-7.8-0.7-10-2s-3.3-3.4-3.3-6.2c0-2.1,0.8-3.7,2.4-4.9s4.8-2.3,9.6-3.4l3.1-0.7
								c6.4-1.4,10.9-3.3,13.6-5.8s4-6,4-10.4c0-5.1-2-9.1-6-12.1s-9.5-4.4-16.6-4.4c-2.9,0-6,0.3-9.2,0.9s-6.5,1.4-10,2.6v9.3
								c3.3-1.7,6.6-3,9.8-3.9c3.2-0.9,6.4-1.3,9.6-1.3c4.2,0,7.5,0.7,9.8,2.2c2.3,1.4,3.4,3.5,3.4,6.1c0,2.4-0.8,4.3-2.5,5.6
								c-1.6,1.3-5.2,2.6-10.8,3.8l-3.1,0.7c-5.6,1.2-9.6,3-12.1,5.4s-3.7,5.8-3.7,10c0,5.1,1.8,9.1,5.5,11.9
								c3.6,2.8,8.8,4.2,15.5,4.2c3.3,0,6.4-0.2,9.4-0.7C357.2,54.8,359.9,54.1,362.3,53.1z"/>
						</g>
					</g>
				</g>
			</g>
			<g id="text_10">
				<g transform="translate(502.931094 672.280563) scale(0.1 -0.1)">
					<g>
						<path id="DejaVuSans-54" d="M-0.3,72.9h61.7v-8.3H35.5V0h-9.9v64.6H-0.3V72.9z"/>
					</g>
					<g>
						<path id="DejaVuSans-69" d="M67.4,54.7h9V0h-9V54.7z M67.4,76h9V64.6h-9V76z"/>
					</g>
					<g>
						<path id="DejaVuSans-6d" d="M137.7,44.2c2.2,4,4.9,7,8.1,8.9s6.8,2.9,11,2.9c5.7,0,10.1-2,13.2-6c3.1-4,4.6-9.6,4.6-17V0h-9
							v32.7c0,5.2-0.9,9.1-2.8,11.7c-1.9,2.5-4.7,3.8-8.5,3.8c-4.7,0-8.3-1.5-11-4.6s-4-7.3-4-12.6V0h-9v32.7
							c0,5.3-0.9,9.2-2.8,11.7s-4.7,3.8-8.6,3.8c-4.6,0-8.2-1.6-11-4.7c-2.7-3.1-4-7.3-4-12.6V0h-9v54.7h9v-8.5
							c2.1,3.4,4.5,5.8,7.4,7.4c2.9,1.6,6.3,2.4,10.2,2.4c4,0,7.4-1,10.1-3C134.4,51,136.4,48,137.7,44.2z"/>
					</g>
					<g>
						<path id="DejaVuSans-65" d="M239.4,29.6v-4.4H198c0.4-6.2,2.3-10.9,5.6-14.1s8-4.9,13.9-4.9c3.4,0,6.8,0.4,10,1.3
							c3.2,0.8,6.5,2.1,9.7,3.8V2.8c-3.2-1.4-6.5-2.4-9.9-3.1s-6.8-1.1-10.3-1.1c-8.7,0-15.6,2.5-20.7,7.6c-5.1,5.1-7.6,12-7.6,20.6
							c0,8.9,2.4,16,7.2,21.3s11.4,7.9,19.6,7.9c7.4,0,13.2-2.4,17.5-7.1C237.2,44.2,239.4,37.7,239.4,29.6z M230.4,32.2
							c-0.1,4.9-1.4,8.8-4.1,11.8c-2.7,2.9-6.2,4.4-10.7,4.4c-5,0-9-1.4-12-4.2s-4.7-6.8-5.2-12H230.4z"/>
					</g>
					<g>
						<path id="DejaVuSans-20_00000163761893459688423440000003225330683151634841_" d="M244.7,0"/>
					</g>
					<g>
						<path id="DejaVuSans-5b" d="M285.1,76h20.7v-7H294V-6.2h11.7v-7H285V76H285.1z"/>
					</g>
					<g>
						<path id="DejaVuSans-73_00000029048064051341975080000016770898437755026852_" d="M359.8,53.1v-8.5c-2.5,1.3-5.2,2.3-7.9,2.9
							c-2.7,0.7-5.6,1-8.5,1c-4.5,0-7.8-0.7-10-2c-2.2-1.4-3.3-3.4-3.3-6.2c0-2.1,0.8-3.7,2.4-4.9s4.8-2.3,9.6-3.4l3.1-0.7
							c6.4-1.4,10.9-3.3,13.6-5.8s4-6,4-10.4c0-5.1-2-9.1-6-12.1s-9.5-4.4-16.6-4.4c-2.9,0-6,0.3-9.2,0.9s-6.5,1.4-10,2.6v9.3
							c3.3-1.7,6.6-3,9.8-3.9c3.2-0.9,6.4-1.3,9.6-1.3c4.2,0,7.5,0.7,9.8,2.2c2.3,1.4,3.4,3.5,3.4,6.1c0,2.4-0.8,4.3-2.5,5.6
							c-1.6,1.3-5.2,2.6-10.8,3.8l-3.1,0.7c-5.6,1.2-9.6,3-12.1,5.4s-3.7,5.8-3.7,10c0,5.1,1.8,9.1,5.5,11.9
							c3.6,2.8,8.8,4.2,15.5,4.2c3.3,0,6.4-0.2,9.4-0.7C354.6,54.8,357.3,54.1,359.8,53.1z"/>
					</g>
					<g>
						<path id="DejaVuSans-5d" d="M398,76v-89.2h-20.7v7H389V69h-11.7v7H398z"/>
					</g>
				</g>
			</g>
		</g>
		<g id="matplotlib.axis_2">
			<g id="ytick_1">
				<g id="line2d_19">
					<g>
						<g>
							<defs>
								<rect id="SVGID_00000034770759992861262310000008116562114650513849_" x="123.1" y="72.4" width="800.3" height="571.6"/>
							</defs>
							<clipPath id="SVGID_00000149352998176189379860000010742269107549332914_">
								<use xlink:href="#SVGID_00000034770759992861262310000008116562114650513849_"  style="overflow:visible;"/>
							</clipPath>
							
								<path style="clip-path:url(#SVGID_00000149352998176189379860000010742269107549332914_);fill:none;stroke:#808080;stroke-width:0.5;stroke-linecap:square;stroke-linejoin:round;" d="
								M123.1,631.2h800.3"/>
						</g>
					</g>
				</g>
				<g id="line2d_20">
					<g>
						<g>
							<path id="m3f84758207" class="st2" d="M123.1,631.2h-3.5"/>
						</g>
					</g>
				</g>
				<g id="text_11">
					<g transform="translate(89.762188 635.03361) scale(0.1 -0.1)">
						<g>
							<path id="DejaVuSans-2d" d="M4.9,31.4h26.3v-8H4.9V31.4z"/>
						</g>
						<g>
							<path id="DejaVuSans-32_00000141415374076407329970000010243639253976476308_" d="M55.3,8.3h34.4V0H43.4v8.3
								c3.7,3.9,8.8,9.1,15.3,15.6s10.5,10.7,12.2,12.6c3.2,3.5,5.4,6.5,6.6,9c1.3,2.5,1.9,4.9,1.9,7.2c0,3.9-1.4,7-4.1,9.5
								c-2.7,2.4-6.3,3.7-10.6,3.7c-3.1,0-6.4-0.5-9.8-1.6c-3.4-1.1-7.1-2.7-11-4.9v10c4,1.6,7.7,2.8,11.1,3.6
								c3.5,0.8,6.6,1.2,9.5,1.2c7.6,0,13.6-1.9,18.1-5.7c4.5-3.8,6.7-8.8,6.7-15.1c0-3-0.6-5.8-1.7-8.5s-3.2-5.8-6.1-9.5
								c-0.8-0.9-3.4-3.7-7.8-8.2C69.4,22.7,63.2,16.4,55.3,8.3z"/>
						</g>
						<g>
							<path id="DejaVuSans-20_00000041287463829074708110000016211255516579047831_" d="M99.7,0"/>
						</g>
						<g>
							<path id="DejaVuSans-64" d="M176.9,46.4V76h9V0h-9v8.2C175,5,172.6,2.5,169.7,1c-2.9-1.6-6.3-2.4-10.4-2.4
								c-6.6,0-12,2.6-16.1,7.9S137,18.7,137,27.3s2.1,15.5,6.2,20.8c4.2,5.3,9.5,7.9,16.1,7.9c4,0,7.5-0.8,10.4-2.4
								C172.6,52.1,175,49.6,176.9,46.4z M146.3,27.3c0-6.6,1.4-11.8,4.1-15.5s6.5-5.6,11.2-5.6s8.5,1.9,11.2,5.6
								c2.7,3.8,4.1,8.9,4.1,15.5s-1.4,11.8-4.1,15.5c-2.7,3.8-6.5,5.6-11.2,5.6s-8.5-1.9-11.2-5.6S146.3,33.9,146.3,27.3z"/>
						</g>
						<g>
							<path id="DejaVuSans-42" d="M214.6,34.8V8.1h15.8c5.3,0,9.2,1.1,11.8,3.3S246,17,246,21.5c0,4.6-1.3,7.9-3.8,10.1
								c-2.6,2.2-6.5,3.2-11.8,3.2H214.6z M214.6,64.8v-22h14.6c4.8,0,8.4,0.9,10.8,2.7c2.4,1.8,3.5,4.6,3.5,8.3s-1.2,6.4-3.5,8.2
								c-2.4,1.8-5.9,2.7-10.8,2.7L214.6,64.8L214.6,64.8z M204.8,72.9H230c7.5,0,13.3-1.6,17.4-4.7c4.1-3.1,6.1-7.6,6.1-13.3
								c0-4.5-1-8-3.1-10.7s-5.1-4.3-9.2-4.9c4.9-1,8.6-3.2,11.3-6.5s4-7.4,4-12.4c0-6.5-2.2-11.5-6.6-15.1C245.4,1.8,239.1,0,231,0
								h-26.2V72.9z"/>
						</g>
					</g>
				</g>
			</g>
			<g id="ytick_2">
				<g id="line2d_21">
					<g>
						<g>
							<defs>
								<rect id="SVGID_00000070115474416685341340000016156120861893266606_" x="123.1" y="72.4" width="800.3" height="571.6"/>
							</defs>
							<clipPath id="SVGID_00000067922825496813892780000016378343507668409227_">
								<use xlink:href="#SVGID_00000070115474416685341340000016156120861893266606_"  style="overflow:visible;"/>
							</clipPath>
							
								<path style="clip-path:url(#SVGID_00000067922825496813892780000016378343507668409227_);fill:none;stroke:#808080;stroke-width:0.5;stroke-linecap:square;stroke-linejoin:round;" d="
								M123.1,559.9h800.3"/>
						</g>
					</g>
				</g>
				<g id="line2d_22">
					<g>
						<g>
							<path id="m3f84758207_00000129902008151034144880000008182579338763155634_" class="st2" d="M123.1,559.9h-3.5"/>
						</g>
					</g>
				</g>
				<g id="text_12">
					<g transform="translate(89.762188 563.736931) scale(0.1 -0.1)">
						<g>
							<path id="DejaVuSans-2d_00000147194011704842308850000011086668915540907393_" d="M4.9,31.4h26.3v-8H4.9V31.4z"/>
						</g>
						<g>
							<path id="DejaVuSans-34" d="M73.9,64.3L49,25.4h24.9V64.3z M71.3,72.9h12.4V25.4h10.4v-8.2H83.7V0h-9.8v17.2H41v9.5
								L71.3,72.9z"/>
						</g>
						<g>
							<path id="DejaVuSans-20_00000122681310031991376360000015140212076771277498_" d="M99.7,0"/>
						</g>
						<g>
							<path id="DejaVuSans-64_00000178909220124954909680000008153201382518180242_" d="M176.9,46.4V76h9V0h-9v8.2
								C175,5,172.6,2.5,169.7,1c-2.9-1.6-6.3-2.4-10.4-2.4c-6.6,0-12,2.6-16.1,7.9S137,18.7,137,27.3s2.1,15.5,6.2,20.8
								c4.2,5.3,9.5,7.9,16.1,7.9c4,0,7.5-0.8,10.4-2.4C172.6,52.1,175,49.6,176.9,46.4z M146.3,27.3c0-6.6,1.4-11.8,4.1-15.5
								s6.5-5.6,11.2-5.6s8.5,1.9,11.2,5.6c2.7,3.8,4.1,8.9,4.1,15.5s-1.4,11.8-4.1,15.5c-2.7,3.8-6.5,5.6-11.2,5.6
								s-8.5-1.9-11.2-5.6S146.3,33.9,146.3,27.3z"/>
						</g>
						<g>
							<path id="DejaVuSans-42_00000089569778552541900660000000037829808241838222_" d="M214.6,34.8V8.1h15.8
								c5.3,0,9.2,1.1,11.8,3.3S246,17,246,21.5c0,4.6-1.3,7.9-3.8,10.1c-2.6,2.2-6.5,3.2-11.8,3.2H214.6z M214.6,64.8v-22h14.6
								c4.8,0,8.4,0.9,10.8,2.7c2.4,1.8,3.5,4.6,3.5,8.3s-1.2,6.4-3.5,8.2c-2.4,1.8-5.9,2.7-10.8,2.7L214.6,64.8L214.6,64.8z
								 M204.8,72.9H230c7.5,0,13.3-1.6,17.4-4.7c4.1-3.1,6.1-7.6,6.1-13.3c0-4.5-1-8-3.1-10.7s-5.1-4.3-9.2-4.9
								c4.9-1,8.6-3.2,11.3-6.5s4-7.4,4-12.4c0-6.5-2.2-11.5-6.6-15.1C245.4,1.8,239.1,0,231,0h-26.2V72.9z"/>
						</g>
					</g>
				</g>
			</g>
			<g id="ytick_3">
				<g id="line2d_23">
					<g>
						<g>
							<defs>
								<rect id="SVGID_00000063607410405279292370000002247288187450513070_" x="123.1" y="72.4" width="800.3" height="571.6"/>
							</defs>
							<clipPath id="SVGID_00000050625011182537317180000010133776989498928805_">
								<use xlink:href="#SVGID_00000063607410405279292370000002247288187450513070_"  style="overflow:visible;"/>
							</clipPath>
							
								<path style="clip-path:url(#SVGID_00000050625011182537317180000010133776989498928805_);fill:none;stroke:#808080;stroke-width:0.5;stroke-linecap:square;stroke-linejoin:round;" d="
								M123.1,488.6h800.3"/>
						</g>
					</g>
				</g>
				<g id="line2d_24">
					<g>
						<g>
							<path id="m3f84758207_00000113326995033497630600000003857874368684079280_" class="st2" d="M123.1,488.6h-3.5"/>
						</g>
					</g>
				</g>
				<g id="text_13">
					<g transform="translate(89.762188 492.440253) scale(0.1 -0.1)">
						<g>
							<path id="DejaVuSans-2d_00000103978839808151917640000017630413831176258688_" d="M4.9,31.4h26.3v-8H4.9V31.4z"/>
						</g>
						<g>
							<path id="DejaVuSans-38_00000102534423894359710050000004578248625832958890_" d="M67.9,34.6c-4.7,0-8.4-1.3-11.1-3.8
								c-2.7-2.5-4-6-4-10.3c0-4.4,1.3-7.8,4-10.4c2.7-2.5,6.4-3.8,11.1-3.8s8.4,1.3,11.1,3.8s4.1,6,4.1,10.3c0,4.4-1.3,7.8-4,10.3
								C76.3,33.4,72.6,34.6,67.9,34.6z M58,38.8c-4.2,1-7.5,3-9.9,5.9s-3.5,6.4-3.5,10.6c0,5.8,2.1,10.4,6.2,13.8
								c4.2,3.4,9.8,5.1,17.1,5.1s13-1.7,17.1-5.1s6.2-8,6.2-13.8c0-4.2-1.2-7.7-3.5-10.6c-2.4-2.9-5.6-4.9-9.8-5.9
								c4.8-1.1,8.4-3.3,11.1-6.5s4-7.2,4-11.8c0-7.1-2.2-12.5-6.5-16.3S76-1.5,68-1.5S53.8,0.4,49.5,4.2C45,8,42.9,13.4,42.9,20.5
								c0,4.6,1.3,8.6,4,11.8C49.5,35.5,53.3,37.7,58,38.8z M54.4,54.4c0-3.8,1.2-6.7,3.5-8.8c2.4-2.1,5.7-3.2,9.9-3.2
								s7.6,1.1,9.9,3.2c2.4,2.1,3.6,5.1,3.6,8.8c0,3.8-1.2,6.7-3.6,8.8c-2.4,2.1-5.7,3.2-9.9,3.2c-4.3,0-7.6-1.1-9.9-3.2
								C55.6,61.1,54.4,58.2,54.4,54.4z"/>
						</g>
						<g>
							<path id="DejaVuSans-20_00000074434143296407101000000014019077908391525547_" d="M99.7,0"/>
						</g>
						<g>
							<path id="DejaVuSans-64_00000042018548509316979300000017877055652560743810_" d="M176.9,46.4V76h9V0h-9v8.2
								C175,5,172.6,2.5,169.7,1c-2.9-1.6-6.3-2.4-10.4-2.4c-6.6,0-12,2.6-16.1,7.9S137,18.7,137,27.3s2.1,15.5,6.2,20.8
								c4.2,5.3,9.5,7.9,16.1,7.9c4,0,7.5-0.8,10.4-2.4C172.6,52.1,175,49.6,176.9,46.4z M146.3,27.3c0-6.6,1.4-11.8,4.1-15.5
								s6.5-5.6,11.2-5.6s8.5,1.9,11.2,5.6c2.7,3.8,4.1,8.9,4.1,15.5s-1.4,11.8-4.1,15.5c-2.7,3.8-6.5,5.6-11.2,5.6
								s-8.5-1.9-11.2-5.6S146.3,33.9,146.3,27.3z"/>
						</g>
						<g>
							<path id="DejaVuSans-42_00000064315190293979294240000017093327755704241061_" d="M214.6,34.8V8.1h15.8
								c5.3,0,9.2,1.1,11.8,3.3S246,17,246,21.5c0,4.6-1.3,7.9-3.8,10.1c-2.6,2.2-6.5,3.2-11.8,3.2H214.6z M214.6,64.8v-22h14.6
								c4.8,0,8.4,0.9,10.8,2.7c2.4,1.8,3.5,4.6,3.5,8.3s-1.2,6.4-3.5,8.2c-2.4,1.8-5.9,2.7-10.8,2.7L214.6,64.8L214.6,64.8z
								 M204.8,72.9H230c7.5,0,13.3-1.6,17.4-4.7c4.1-3.1,6.1-7.6,6.1-13.3c0-4.5-1-8-3.1-10.7s-5.1-4.3-9.2-4.9
								c4.9-1,8.6-3.2,11.3-6.5s4-7.4,4-12.4c0-6.5-2.2-11.5-6.6-15.1C245.4,1.8,239.1,0,231,0h-26.2V72.9z"/>
						</g>
					</g>
				</g>
			</g>
			<g id="ytick_4">
				<g id="line2d_25">
					<g>
						<g>
							<defs>
								<rect id="SVGID_00000090972862163238254680000016935351172987073685_" x="123.1" y="72.4" width="800.3" height="571.6"/>
							</defs>
							<clipPath id="SVGID_00000147192325903846285070000004974340938749203098_">
								<use xlink:href="#SVGID_00000090972862163238254680000016935351172987073685_"  style="overflow:visible;"/>
							</clipPath>
							
								<path style="clip-path:url(#SVGID_00000147192325903846285070000004974340938749203098_);fill:none;stroke:#808080;stroke-width:0.5;stroke-linecap:square;stroke-linejoin:round;" d="
								M123.1,417.3h800.3"/>
						</g>
					</g>
				</g>
				<g id="line2d_26">
					<g>
						<g>
							<path id="m3f84758207_00000179643658689009200790000005667114429312359312_" class="st2" d="M123.1,417.3h-3.5"/>
						</g>
					</g>
				</g>
				<g id="text_14">
					<g transform="translate(83.399687 421.143575) scale(0.1 -0.1)">
						<g>
							<path id="DejaVuSans-2d_00000052101181270483215240000017085520349006534536_" d="M4.9,31.4h26.3v-8H4.9V31.4z"/>
						</g>
						<g>
							<path id="DejaVuSans-31_00000044170656180522815410000012073052941229534903_" d="M48.5,8.3h16.1v55.6l-17.5-3.5v9l17.4,3.5
								h9.9V8.3h16.1V0h-42V8.3z"/>
						</g>
						<g>
							<path id="DejaVuSans-34_00000093861599645510761170000008582928836672569500_" d="M137.5,64.3l-24.9-38.9h24.9V64.3z
								 M134.9,72.9h12.4V25.4h10.4v-8.2h-10.4V0h-9.8v17.2h-32.9v9.5L134.9,72.9z"/>
						</g>
						<g>
							<path id="DejaVuSans-20_00000134970899067620333500000004530094901278746007_" d="M163.3,0"/>
						</g>
						<g>
							<path id="DejaVuSans-64_00000079455359593741434040000009344097397437522569_" d="M240.5,46.4V76h9V0h-9v8.2
								c-1.9-3.2-4.3-5.7-7.2-7.2c-2.9-1.6-6.3-2.4-10.4-2.4c-6.6,0-12,2.6-16.1,7.9s-6.2,12.2-6.2,20.8s2.1,15.5,6.2,20.8
								c4.2,5.3,9.5,7.9,16.1,7.9c4,0,7.5-0.8,10.4-2.4C236.3,52.1,238.6,49.6,240.5,46.4z M209.9,27.3c0-6.6,1.4-11.8,4.1-15.5
								s6.5-5.6,11.2-5.6s8.5,1.9,11.2,5.6c2.7,3.8,4.1,8.9,4.1,15.5s-1.4,11.8-4.1,15.5c-2.7,3.8-6.5,5.6-11.2,5.6
								s-8.5-1.9-11.2-5.6S209.9,33.9,209.9,27.3z"/>
						</g>
						<g>
							<path id="DejaVuSans-42_00000044871797029247324430000015143130231866518194_" d="M278.3,34.8V8.1h15.8
								c5.3,0,9.2,1.1,11.8,3.3c2.6,2.2,3.8,5.6,3.8,10.1c0,4.6-1.3,7.9-3.8,10.1c-2.6,2.2-6.5,3.3-11.8,3.3h-15.8V34.8z
								 M278.3,64.8v-22h14.6c4.8,0,8.4,0.9,10.8,2.7s3.5,4.6,3.5,8.3s-1.2,6.4-3.5,8.2c-2.4,1.8-5.9,2.7-10.8,2.7L278.3,64.8
								L278.3,64.8z M268.4,72.9h25.2c7.5,0,13.3-1.6,17.4-4.7s6.1-7.6,6.1-13.3c0-4.5-1-8-3.1-10.7s-5.1-4.3-9.2-4.9
								c4.9-1,8.6-3.2,11.3-6.5c2.7-3.3,4-7.4,4-12.4c0-6.5-2.2-11.5-6.6-15.1C309.1,1.8,302.8,0,294.6,0h-26.2V72.9z"/>
						</g>
					</g>
				</g>
			</g>
			<g id="ytick_5">
				<g id="line2d_27">
					<g>
						<g>
							<defs>
								<rect id="SVGID_00000139990180172456553530000002321809352173302697_" x="123.1" y="72.4" width="800.3" height="571.6"/>
							</defs>
							<clipPath id="SVGID_00000017484008070183536940000009393646888835088266_">
								<use xlink:href="#SVGID_00000139990180172456553530000002321809352173302697_"  style="overflow:visible;"/>
							</clipPath>
							
								<path style="clip-path:url(#SVGID_00000017484008070183536940000009393646888835088266_);fill:none;stroke:#808080;stroke-width:0.5;stroke-linecap:square;stroke-linejoin:round;" d="
								M123.1,346h800.3"/>
						</g>
					</g>
				</g>
				<g id="line2d_28">
					<g>
						<g>
							<path id="m3f84758207_00000043419721755114206960000001688155000853250492_" class="st2" d="M123.1,346h-3.5"/>
						</g>
					</g>
				</g>
				<g id="text_15">
					<g transform="translate(87.795 349.846896) scale(0.1 -0.1)">
						<g>
							<path id="DejaVuSans-2d_00000153671044080190368690000011824077617194892709_" d="M4.9,31.4h26.3v-8H4.9V31.4z"/>
						</g>
						<g>
							<path id="DejaVuSans-221e" d="M81.6,17c-1,1.2-2.3,3.1-3.9,5.9c-2.2-3.9-4.2-6.7-6.2-8.5c-2.4-2.1-5.5-3.1-9.2-3.1
								c-4.4,0-8,1.6-10.9,4.9c-3.1,3.4-4.6,8-4.6,13.7c0,5.5,1.5,10.1,4.6,13.8c2.7,3.3,6.4,4.9,11,4.9c2.4,0,4.4-0.5,6.2-1.5
								c2.1-1.1,3.8-2.5,5.2-4.4c1.3-1.7,2.6-3.6,3.9-5.9c2.2,3.9,4.2,6.7,6.1,8.4c2.4,2.1,5.5,3.1,9.2,3.1c4.4,0,8-1.6,10.9-4.9
								c3.1-3.5,4.6-8,4.6-13.7c0-5.5-1.5-10.1-4.6-13.8c-2.7-3.3-6.4-4.9-11-4.9c-2.4,0-4.4,0.5-6.2,1.5C85.1,13.5,83.3,15,81.6,17
								z M61.8,17.7c5.4,0,9.7,3.9,12.9,11.7c-4.1,8.5-8.4,12.8-12.9,12.8c-3.3,0-5.7-1.2-7.4-3.5c-1.8-2.5-2.7-5.4-2.7-8.7
								c0-3.6,0.9-6.6,2.7-8.8C56.3,18.9,58.7,17.7,61.8,17.7z M93.6,42.1c-4.8,0-9.1-3.9-12.9-11.7c4.1-8.5,8.4-12.8,12.9-12.8
								c3.3,0,5.7,1.2,7.4,3.5c1.8,2.5,2.7,5.4,2.7,8.8c0,3.6-0.9,6.6-2.7,8.8C99.2,41,96.7,42.1,93.6,42.1z"/>
						</g>
						<g>
							<path id="DejaVuSans-20_00000059306501740436199810000016321043206034522012_" d="M119.4,0"/>
						</g>
						<g>
							<path id="DejaVuSans-64_00000072982142851013999350000007353054048006127246_" d="M196.6,46.4V76h9V0h-9v8.2
								c-1.9-3.2-4.3-5.7-7.2-7.2c-2.9-1.6-6.3-2.4-10.4-2.4c-6.6,0-12,2.6-16.1,7.9s-6.2,12.2-6.2,20.8s2.1,15.5,6.2,20.8
								c4.2,5.3,9.5,7.9,16.1,7.9c4,0,7.5-0.8,10.4-2.4C192.3,52.1,194.7,49.6,196.6,46.4z M166,27.3c0-6.6,1.4-11.8,4.1-15.5
								s6.5-5.6,11.2-5.6s8.5,1.9,11.2,5.6c2.7,3.8,4.1,8.9,4.1,15.5s-1.4,11.8-4.1,15.5c-2.7,3.8-6.5,5.6-11.2,5.6
								s-8.5-1.9-11.2-5.6S166,33.9,166,27.3z"/>
						</g>
						<g>
							<path id="DejaVuSans-42_00000147899686533229863690000018180246217567981966_" d="M234.3,34.8V8.1h15.8
								c5.3,0,9.2,1.1,11.8,3.3c2.6,2.2,3.8,5.6,3.8,10.1c0,4.6-1.3,7.9-3.8,10.1c-2.6,2.2-6.5,3.2-11.8,3.2H234.3z M234.3,64.8v-22
								h14.6c4.8,0,8.4,0.9,10.8,2.7s3.5,4.6,3.5,8.3s-1.2,6.4-3.5,8.2c-2.4,1.8-5.9,2.7-10.8,2.7L234.3,64.8L234.3,64.8z
								 M224.5,72.9h25.2c7.5,0,13.3-1.6,17.4-4.7s6.1-7.6,6.1-13.3c0-4.5-1-8-3.1-10.7c-2.1-2.6-5.1-4.3-9.2-4.9
								c4.9-1,8.6-3.2,11.3-6.5c2.7-3.3,4-7.4,4-12.4c0-6.5-2.2-11.5-6.6-15.1c-4.5-3.5-10.8-5.3-19-5.3h-26.2L224.5,72.9
								L224.5,72.9z"/>
						</g>
					</g>
				</g>
			</g>
			<g id="ytick_6">
				<g id="line2d_29">
					<g>
						<g>
							<defs>
								<rect id="SVGID_00000043454410191002988440000005569806322541707933_" x="123.1" y="72.4" width="800.3" height="571.6"/>
							</defs>
							<clipPath id="SVGID_00000110452098075087626350000017886020749775793589_">
								<use xlink:href="#SVGID_00000043454410191002988440000005569806322541707933_"  style="overflow:visible;"/>
							</clipPath>
							
								<path style="clip-path:url(#SVGID_00000110452098075087626350000017886020749775793589_);fill:none;stroke:#808080;stroke-width:0.5;stroke-linecap:square;stroke-linejoin:round;" d="
								M123.1,274.8h800.3"/>
						</g>
					</g>
				</g>
				<g id="line2d_30">
					<g>
						<g>
							<path id="m3f84758207_00000132049959032636659860000017949012396793604276_" class="st2" d="M123.1,274.8h-3.5"/>
						</g>
					</g>
				</g>
				<g id="text_16">
					<g transform="translate(83.399687 278.550218) scale(0.1 -0.1)">
						<g>
							<path id="DejaVuSans-2d_00000055700169232182250440000014320052361403068337_" d="M4.9,31.4h26.3v-8H4.9V31.4z"/>
						</g>
						<g>
							<path id="DejaVuSans-31_00000095299674117298158550000007250300718983869628_" d="M48.5,8.3h16.1v55.6l-17.5-3.5v9l17.4,3.5
								h9.9V8.3h16.1V0h-42V8.3z"/>
						</g>
						<g>
							<path id="DejaVuSans-34_00000176034570443815483830000015983293750044461186_" d="M137.5,64.3l-24.9-38.9h24.9V64.3z
								 M134.9,72.9h12.4V25.4h10.4v-8.2h-10.4V0h-9.8v17.2h-32.9v9.5L134.9,72.9z"/>
						</g>
						<g>
							<path id="DejaVuSans-20_00000081635079989404831920000012119484903357512606_" d="M163.3,0"/>
						</g>
						<g>
							<path id="DejaVuSans-64_00000069391790969943953040000017292412984603530397_" d="M240.5,46.4V76h9V0h-9v8.2
								c-1.9-3.2-4.3-5.7-7.2-7.3s-6.3-2.4-10.4-2.4c-6.6,0-12,2.6-16.1,7.9s-6.2,12.2-6.2,20.8s2.1,15.5,6.2,20.8
								c4.2,5.3,9.5,7.9,16.1,7.9c4,0,7.5-0.8,10.4-2.4C236.3,52.1,238.6,49.6,240.5,46.4z M209.9,27.3c0-6.6,1.4-11.8,4.1-15.5
								s6.5-5.6,11.2-5.6s8.5,1.9,11.2,5.6c2.7,3.8,4.1,8.9,4.1,15.5s-1.4,11.8-4.1,15.5c-2.7,3.8-6.5,5.6-11.2,5.6
								s-8.5-1.9-11.2-5.6S209.9,33.9,209.9,27.3z"/>
						</g>
						<g>
							<path id="DejaVuSans-42_00000072271175098822684560000001120993757699600785_" d="M278.3,34.8V8.1h15.8
								c5.3,0,9.2,1.1,11.8,3.3c2.6,2.2,3.8,5.6,3.8,10.1c0,4.6-1.3,7.9-3.8,10.1c-2.6,2.2-6.5,3.2-11.8,3.2H278.3z M278.3,64.8v-22
								h14.6c4.8,0,8.4,0.9,10.8,2.7s3.5,4.6,3.5,8.3s-1.2,6.4-3.5,8.2c-2.4,1.8-5.9,2.7-10.8,2.7L278.3,64.8L278.3,64.8z
								 M268.4,72.9h25.2c7.5,0,13.3-1.6,17.4-4.7s6.1-7.6,6.1-13.3c0-4.5-1-8-3.1-10.7s-5.1-4.3-9.2-4.9c4.9-1,8.6-3.2,11.3-6.5
								c2.7-3.3,4-7.4,4-12.4c0-6.5-2.2-11.5-6.6-15.1C309.1,1.8,302.8,0,294.6,0h-26.2V72.9z"/>
						</g>
					</g>
				</g>
			</g>
			<g id="ytick_7">
				<g id="line2d_31">
					<g>
						<g>
							<defs>
								<rect id="SVGID_00000023264831204462452260000011271912865409447325_" x="123.1" y="72.4" width="800.3" height="571.6"/>
							</defs>
							<clipPath id="SVGID_00000178192012635931025320000006982195903468599717_">
								<use xlink:href="#SVGID_00000023264831204462452260000011271912865409447325_"  style="overflow:visible;"/>
							</clipPath>
							
								<path style="clip-path:url(#SVGID_00000178192012635931025320000006982195903468599717_);fill:none;stroke:#808080;stroke-width:0.5;stroke-linecap:square;stroke-linejoin:round;" d="
								M123.1,203.5h800.3"/>
						</g>
					</g>
				</g>
				<g id="line2d_32">
					<g>
						<g>
							<path id="m3f84758207_00000049183086449892012580000012530249402138294688_" class="st2" d="M123.1,203.5h-3.5"/>
						</g>
					</g>
				</g>
				<g id="text_17">
					<g transform="translate(89.762188 207.25354) scale(0.1 -0.1)">
						<g>
							<path id="DejaVuSans-2d_00000156558783272761879740000002980405168546059938_" d="M4.9,31.4h26.3v-8H4.9V31.4z"/>
						</g>
						<g>
							<path id="DejaVuSans-38_00000098903546733928081180000012714124025149439112_" d="M67.9,34.6c-4.7,0-8.4-1.3-11.1-3.8
								c-2.7-2.5-4-6-4-10.3c0-4.4,1.3-7.8,4-10.4c2.7-2.5,6.4-3.8,11.1-3.8s8.4,1.3,11.1,3.8s4.1,6,4.1,10.3c0,4.4-1.3,7.8-4,10.3
								C76.3,33.4,72.6,34.6,67.9,34.6z M58,38.8c-4.2,1-7.5,3-9.9,5.9s-3.5,6.4-3.5,10.6c0,5.8,2.1,10.4,6.2,13.8
								c4.2,3.4,9.8,5.1,17.1,5.1s13-1.7,17.1-5.1s6.2-8,6.2-13.8c0-4.2-1.2-7.7-3.5-10.6c-2.4-2.9-5.6-4.9-9.8-5.9
								c4.8-1.1,8.4-3.3,11.1-6.5s4-7.2,4-11.8c0-7.1-2.2-12.5-6.5-16.3S76-1.5,68-1.5S53.8,0.4,49.5,4.2C45,8,42.9,13.4,42.9,20.5
								c0,4.6,1.3,8.6,4,11.8C49.5,35.5,53.3,37.7,58,38.8z M54.4,54.4c0-3.8,1.2-6.7,3.5-8.8c2.4-2.1,5.7-3.2,9.9-3.2
								s7.6,1.1,9.9,3.2c2.4,2.1,3.6,5.1,3.6,8.8c0,3.8-1.2,6.7-3.6,8.8c-2.4,2.1-5.7,3.2-9.9,3.2c-4.3,0-7.6-1.1-9.9-3.2
								S54.4,58.2,54.4,54.4z"/>
						</g>
						<g>
							<path id="DejaVuSans-20_00000170249724246590100360000011860976594169180830_" d="M99.7,0"/>
						</g>
						<g>
							<path id="DejaVuSans-64_00000062159211036619230890000007172328177306385332_" d="M176.9,46.4V76h9V0h-9v8.2
								C175,5,172.6,2.5,169.7,1c-2.9-1.6-6.3-2.4-10.4-2.4c-6.6,0-12,2.6-16.1,7.9S137,18.7,137,27.3s2.1,15.5,6.2,20.8
								c4.2,5.3,9.5,7.9,16.1,7.9c4,0,7.5-0.8,10.4-2.4C172.6,52.1,175,49.6,176.9,46.4z M146.3,27.3c0-6.6,1.4-11.8,4.1-15.5
								s6.5-5.6,11.2-5.6s8.5,1.9,11.2,5.6c2.7,3.8,4.1,8.9,4.1,15.5s-1.4,11.8-4.1,15.5c-2.7,3.8-6.5,5.6-11.2,5.6
								s-8.5-1.9-11.2-5.6S146.3,33.9,146.3,27.3z"/>
						</g>
						<g>
							<path id="DejaVuSans-42_00000109731251047615648110000006127258448166205070_" d="M214.6,34.8V8.1h15.8
								c5.3,0,9.2,1.1,11.8,3.3S246,17,246,21.5c0,4.6-1.3,7.9-3.8,10.1c-2.6,2.2-6.5,3.2-11.8,3.2H214.6z M214.6,64.8v-22h14.6
								c4.8,0,8.4,0.9,10.8,2.7c2.4,1.8,3.5,4.6,3.5,8.3s-1.2,6.4-3.5,8.2c-2.4,1.8-5.9,2.7-10.8,2.7L214.6,64.8L214.6,64.8z
								 M204.8,72.9H230c7.5,0,13.3-1.6,17.4-4.7c4.1-3.1,6.1-7.6,6.1-13.3c0-4.5-1-8-3.1-10.7s-5.1-4.3-9.2-4.9
								c4.9-1,8.6-3.2,11.3-6.5s4-7.4,4-12.4c0-6.5-2.2-11.5-6.6-15.1C245.4,1.8,239.1,0,231,0h-26.2V72.9z"/>
						</g>
					</g>
				</g>
			</g>
			<g id="ytick_8">
				<g id="line2d_33">
					<g>
						<g>
							<defs>
								<rect id="SVGID_00000097464527646855263540000003258836794791276462_" x="123.1" y="72.4" width="800.3" height="571.6"/>
							</defs>
							<clipPath id="SVGID_00000005946289747479727870000009377924905395032207_">
								<use xlink:href="#SVGID_00000097464527646855263540000003258836794791276462_"  style="overflow:visible;"/>
							</clipPath>
							
								<path style="clip-path:url(#SVGID_00000005946289747479727870000009377924905395032207_);fill:none;stroke:#808080;stroke-width:0.5;stroke-linecap:square;stroke-linejoin:round;" d="
								M123.1,132.2h800.3"/>
						</g>
					</g>
				</g>
				<g id="line2d_34">
					<g>
						<g>
							<path id="m3f84758207_00000135663867729764687910000015553071148623721659_" class="st2" d="M123.1,132.2h-3.5"/>
						</g>
					</g>
				</g>
				<g id="text_18">
					<g transform="translate(89.762188 135.956861) scale(0.1 -0.1)">
						<g>
							<path id="DejaVuSans-2d_00000011750166947154329940000010366591038069045382_" d="M4.9,31.4h26.3v-8H4.9V31.4z"/>
						</g>
						<g>
							<path id="DejaVuSans-34_00000116928409956567878130000006558899702105673090_" d="M73.9,64.3L49,25.4h24.9V64.3z M71.3,72.9
								h12.4V25.4h10.4v-8.2H83.7V0h-9.8v17.2H41v9.5L71.3,72.9z"/>
						</g>
						<g>
							<path id="DejaVuSans-20_00000020385942128760824190000011369395732678667953_" d="M99.7,0"/>
						</g>
						<g>
							<path id="DejaVuSans-64_00000132052007195262019090000008306945288907994297_" d="M176.9,46.4V76h9V0h-9v8.2
								C175,5,172.6,2.5,169.7,1c-2.9-1.6-6.3-2.4-10.4-2.4c-6.6,0-12,2.6-16.1,7.9S137,18.7,137,27.3s2.1,15.5,6.2,20.8
								c4.2,5.3,9.5,7.9,16.1,7.9c4,0,7.5-0.8,10.4-2.4C172.6,52.1,175,49.6,176.9,46.4z M146.3,27.3c0-6.6,1.4-11.8,4.1-15.5
								s6.5-5.6,11.2-5.6s8.5,1.9,11.2,5.6c2.7,3.8,4.1,8.9,4.1,15.5s-1.4,11.8-4.1,15.5c-2.7,3.8-6.5,5.6-11.2,5.6
								s-8.5-1.9-11.2-5.6S146.3,33.9,146.3,27.3z"/>
						</g>
						<g>
							<path id="DejaVuSans-42_00000160902481462171820430000010160337259611617182_" d="M214.6,34.8V8.1h15.8
								c5.3,0,9.2,1.1,11.8,3.3S246,17,246,21.5c0,4.6-1.3,7.9-3.8,10.1c-2.6,2.2-6.5,3.2-11.8,3.2H214.6z M214.6,64.8v-22h14.6
								c4.8,0,8.4,0.9,10.8,2.7c2.4,1.8,3.5,4.6,3.5,8.3s-1.2,6.4-3.5,8.2c-2.4,1.8-5.9,2.7-10.8,2.7L214.6,64.8L214.6,64.8z
								 M204.8,72.9H230c7.5,0,13.3-1.6,17.4-4.7c4.1-3.1,6.1-7.6,6.1-13.3c0-4.5-1-8-3.1-10.7s-5.1-4.3-9.2-4.9
								c4.9-1,8.6-3.2,11.3-6.5s4-7.4,4-12.4c0-6.5-2.2-11.5-6.6-15.1C245.4,1.8,239.1,0,231,0h-26.2V72.9z"/>
						</g>
					</g>
				</g>
			</g>
			<g id="text_19">
				<g transform="translate(77.32 395.899969) rotate(-90) scale(0.1 -0.1)">
					<g>
						<path id="DejaVuSans-41" d="M34.2,63.2L20.8,26.9h26.8L34.2,63.2z M28.6,72.9h11.2L67.6,0H57.3l-6.6,18.7H17.8L11.2,0H0.8
							L28.6,72.9z"/>
					</g>
					<g>
						<path id="DejaVuSans-6d_00000127745934620633764570000013939446066304801204_" d="M120.4,44.2c2.2,4,4.9,7,8.1,8.9
							s6.8,2.9,11,2.9c5.7,0,10.1-2,13.2-6c3.1-4,4.6-9.6,4.6-17V0h-9v32.7c0,5.2-0.9,9.1-2.8,11.7c-1.9,2.5-4.7,3.8-8.5,3.8
							c-4.7,0-8.3-1.5-11-4.6s-4-7.3-4-12.6V0h-9v32.7c0,5.3-0.9,9.2-2.8,11.7s-4.7,3.8-8.6,3.8c-4.6,0-8.2-1.6-11-4.7
							c-2.7-3.1-4-7.3-4-12.6V0h-9v54.7h9v-8.5c2.1,3.4,4.5,5.8,7.4,7.4c2.9,1.6,6.3,2.4,10.2,2.4c4,0,7.4-1,10.1-3
							C117,51,119.1,48,120.4,44.2z"/>
					</g>
					<g>
						<path id="DejaVuSans-70" d="M183.9,8.2v-29h-9v75.5h9v-8.3c1.9,3.2,4.3,5.7,7.2,7.2c2.9,1.6,6.3,2.4,10.3,2.4
							c6.6,0,12-2.6,16.2-7.9s6.2-12.2,6.2-20.8s-2.1-15.5-6.2-20.8c-4.1-5.3-9.5-7.9-16.2-7.9c-4,0-7.4,0.8-10.3,2.4
							C188.2,2.5,185.8,5,183.9,8.2z M214.5,27.3c0,6.6-1.4,11.8-4.1,15.5s-6.5,5.6-11.2,5.6c-4.8,0-8.5-1.9-11.2-5.6
							s-4.1-8.9-4.1-15.5s1.4-11.8,4.1-15.5s6.5-5.6,11.2-5.6c4.8,0,8.5,1.9,11.2,5.6S214.5,20.7,214.5,27.3z"/>
					</g>
					<g>
						<path id="DejaVuSans-6c" d="M238.7,76h9V0h-9V76z"/>
					</g>
					<g>
						<path id="DejaVuSans-69_00000152232365535636452180000012574769704569394823_" d="M266.5,54.7h9V0h-9V54.7z M266.5,76h9V64.6
							h-9V76z"/>
					</g>
					<g>
						<path id="DejaVuSans-74" d="M303.2,70.2V54.7h18.5v-7h-18.5V18c0-4.5,0.6-7.3,1.8-8.6s3.7-1.9,7.5-1.9h9.2V0h-9.2
							c-6.9,0-11.7,1.3-14.4,3.9c-2.6,2.6-4,7.3-4,14.1v29.7h-6.6v7h6.6v15.5H303.2z"/>
					</g>
					<g>
						<path id="DejaVuSans-75" d="M332.6,21.6v33.1h9V21.9c0-5.2,1-9.1,3-11.7s5.1-3.9,9.1-3.9c4.8,0,8.7,1.5,11.5,4.6
							s4.2,7.3,4.2,12.7v31h9V0h-9v8.4c-2.2-3.3-4.7-5.8-7.6-7.4s-6.2-2.4-10-2.4c-6.3,0-11.1,2-14.3,5.9
							C334.2,8.3,332.6,14.1,332.6,21.6z M355.2,56L355.2,56z"/>
					</g>
					<g>
						<path id="DejaVuSans-64_00000181068493284457157640000014201711352270056104_" d="M432.9,46.4V76h9V0h-9v8.2
							C431,5,428.6,2.5,425.7,1c-2.9-1.6-6.3-2.4-10.4-2.4c-6.6,0-12,2.6-16.1,7.9S393,18.7,393,27.3s2.1,15.5,6.2,20.8
							c4.2,5.3,9.5,7.9,16.1,7.9c4,0,7.5-0.8,10.4-2.4C428.6,52.1,431,49.6,432.9,46.4z M402.2,27.3c0-6.6,1.4-11.8,4.1-15.5
							s6.5-5.6,11.2-5.6s8.5,1.9,11.2,5.6c2.7,3.8,4.1,8.9,4.1,15.5s-1.4,11.8-4.1,15.5c-2.7,3.8-6.5,5.6-11.2,5.6
							s-8.5-1.9-11.2-5.6S402.2,33.9,402.2,27.3z"/>
					</g>
					<g>
						<path id="DejaVuSans-65_00000110431448280654980290000009801338463317980839_" d="M507.1,29.6v-4.4h-41.3
							c0.4-6.2,2.3-10.9,5.6-14.1s8-4.9,13.9-4.9c3.4,0,6.8,0.4,10,1.3s6.5,2.1,9.7,3.8V2.8c-3.2-1.4-6.5-2.4-9.9-3.1
							s-6.8-1.1-10.3-1.1c-8.7,0-15.6,2.5-20.7,7.6s-7.6,12-7.6,20.6c0,8.9,2.4,16,7.2,21.3c4.8,5.3,11.4,7.9,19.6,7.9
							c7.4,0,13.2-2.4,17.5-7.1C505,44.2,507.1,37.7,507.1,29.6z M498.1,32.2C498,37.1,496.7,41,494,44c-2.7,2.9-6.2,4.4-10.7,4.4
							c-5,0-9-1.4-12-4.2s-4.7-6.8-5.2-12H498.1z"/>
					</g>
					<g>
						<path id="DejaVuSans-20_00000160179555427744420630000012177659213913741453_" d="M512.5,0"/>
					</g>
					<g>
						<path id="DejaVuSans-5b_00000039851678085687648200000004136465886172468125_" d="M552.8,76h20.7v-7h-11.7V-6.2h11.7v-7h-20.7
							V76z"/>
					</g>
					<g>
						<path id="DejaVuSans-64_00000017503806263834053550000017613495966009558690_" d="M628.7,46.4V76h9V0h-9v8.2
							c-1.9-3.2-4.3-5.7-7.2-7.2c-2.9-1.6-6.3-2.4-10.4-2.4c-6.6,0-12,2.6-16.1,7.9s-6.2,12.2-6.2,20.8s2.1,15.5,6.2,20.8
							c4.2,5.3,9.5,7.9,16.1,7.9c4,0,7.5-0.8,10.4-2.4C624.4,52.1,626.8,49.6,628.7,46.4z M598,27.3c0-6.6,1.4-11.8,4.1-15.5
							s6.5-5.6,11.2-5.6s8.5,1.9,11.2,5.6c2.7,3.8,4.1,8.9,4.1,15.5s-1.4,11.8-4.1,15.5c-2.7,3.8-6.5,5.6-11.2,5.6
							s-8.5-1.9-11.2-5.6S598,33.9,598,27.3z"/>
					</g>
					<g>
						<path id="DejaVuSans-42_00000108287027667957075750000008281476579528223118_" d="M666.4,34.8V8.1h15.8
							c5.3,0,9.2,1.1,11.8,3.3s3.8,5.6,3.8,10.1c0,4.6-1.3,7.9-3.8,10.1c-2.6,2.2-6.5,3.2-11.8,3.2H666.4z M666.4,64.8v-22H681
							c4.8,0,8.4,0.9,10.8,2.7c2.4,1.8,3.5,4.6,3.5,8.3s-1.2,6.4-3.5,8.2c-2.4,1.8-5.9,2.7-10.8,2.7L666.4,64.8L666.4,64.8z
							 M656.5,72.9h25.2c7.5,0,13.3-1.6,17.4-4.7c4.1-3.1,6.1-7.6,6.1-13.3c0-4.5-1-8-3.1-10.7s-5.1-4.3-9.2-4.9
							c4.9-1,8.6-3.2,11.3-6.5s4-7.4,4-12.4c0-6.5-2.2-11.5-6.6-15.1C697.2,1.8,690.9,0,682.7,0h-26.2V72.9z"/>
					</g>
					<g>
						<path id="DejaVuSans-5d_00000042716430558163478990000015378576749566641087_" d="M745.8,76v-89.2h-20.7v7h11.7V69h-11.7v7
							H745.8z"/>
					</g>
				</g>
			</g>
		</g>
		<g id="line2d_35" class="st19">
			<g class="st20">
				<g>
					<defs>
						<rect id="SVGID_00000090254277115883733580000006771609364677973382_" x="123.1" y="72.4" width="800.3" height="571.6"/>
					</defs>
					<clipPath id="SVGID_00000038392529793697164720000009883783421146475914_">
						<use xlink:href="#SVGID_00000090254277115883733580000006771609364677973382_"  style="overflow:visible;"/>
					</clipPath>
					
						<path style="clip-path:url(#SVGID_00000038392529793697164720000009883783421146475914_);fill:none;stroke:#1F77B4;stroke-width:1.5;stroke-linecap:square;stroke-linejoin:round;" d="
						M122.7,361.2l1.7-2.2l0.8-1.7l0.8-1.3l0.8-1.8l0.8-1.4l0.8-1.9l0.8-1.5l0.8-1.9l0.8-0.9l0.8-1.5l0.8-0.5l0.8-1.3l0.8-1l0.8-1.3
						l1.7-1.9l0.8-0.4l0.8-1l1.7-0.5l1.7,0.9l3.3,3.1l4.1,2.9l1.7,1.8l0.8,1.3l1.7,3.5l0.8,1.9l1.7,3.2l1.7,2.1l1.7,0.5l0.8-0.4
						l0.8,0.1l0.8-0.2l0.8,0.4l0.8,0.1l0.8,0.4l1.7,0.3l0.8,0.6l0.8-0.5l0.8,0.1l0.8-0.8l0.8,0.2l0.8-0.5l0.8,0.2l0.8-0.7l0.8-0.2
						l2.5-2l0.8-0.7l1.7-1.9l1.7-2.1l0.8-0.6l0.8-0.8l1.7-0.6l0.8-0.1l0.8,0.5l0.8,0.3l0.8,1.2l1.7,1.8l0.8,1.3l0.8,0.6l0.8,1.4
						l0.8,0.8l1.7,2.4l1.7,1.8l1.7,1.5l1.7,0.8l0.8-0.1l0.8,0.5l0.8,0.2l0.8,0.3l0.8,0.6l4.1,1.8h0.8l0.8,0.9l0.8,0.3l0.8,0.8
						l1.7,0.1l0.8-0.3l0.8-0.4l1.7-1.4l0.8-0.3l0.8-0.5l0.8-0.1l0.8-0.3l0.8,0.1l0.8,0.2l0.8,0.8l0.8,1.2l1.7,2.8l1.7,2.3l0.8,1.1
						l2.5,2.6l0.8,1.2l0.8,0.8l1.7,3.3l1.7,3.8l0.8,1l1.7,1.3l0.8,1.1l0.8,1.6l0.8,1.9l0.8,1.3l1.7,4l1.7,5.8l0.8,4.2l1.7,13.8
						l0.8,4l1.7,11.6l1.7-4.3l0.8,17.4l0.8,21.8l0.8,7.6l0.8-14.4l0.8-32.1l2.5-125.6l0.8-31.9l0.8-27.4l0.8-23.5l0.8-15.4l0.8-8
						l0.8-9.5l0.8-7.4l0.8-0.3l0.8-1.6l0.8-6.4l0.8-5.1l0.8,2.6l0.8,6.5l0.8,2.5l0.8-4.5l0.8-9.2l0.8-5.9l0.8,0.9l0.8,7.5l0.8,8.7
						l0.8,6.6l0.8,0.5l0.8-5.9l0.8-11.2l1.7-27.7l0.8-8l0.8-1.4l0.8,5.4l0.8,11.6l1.7,33.9l1.7,39.4l1.7,38.5l1.7,31.6l1.7,25.2
						l0.8,9.7l0.8,6.9l1.7,8.2l0.8,2.7l0.8,2l0.8,1.4l0.8,1.8l1.7,2.9l0.8,0.4l0.8,0.1l0.8-0.8l1.7-1.2l0.8-1.3l0.8-2.2l0.8-1.9
						l0.8-1.5l1.7-4.2l0.8-2.3l0.8-1.4l0.8-1.2l0.8,0.2l0.8-0.3l0.8-0.5l0.8-0.9l0.8,0.1l0.8-0.2l0.8,1.3l1.7,3l0.8,0.7l0.8,0.3
						l0.8,0.6l0.8,1.3l0.8,2l0.8,2.5l1.7,3.3l0.8,0.1l0.8,0.6l0.8,0.7l0.8,1.2l0.8,1l1.7,1.4l0.8,1.3l1.7,1.9l1.7,1.1l0.8,0.5
						l0.8,1.1l0.8,2.1l0.8,1l0.8,1.5l0.8,0.4l0.8,0.8l0.8,0.3l0.8,0.7l1.7,2.6l0.8,0.7h0.8l0.8-0.6l1.7-1.9l0.8-0.3l0.8-0.8l1.7-3.3
						l0.8-0.5l0.8-0.3l0.8-0.7l1.7-0.9l2.5,2h0.8l0.8-0.6l0.8-1.1l0.8,0.3l1.7,1.9l1.7,0.5l0.8,0.6l0.8-0.5l0.8-0.9l0.8-0.8l0.8-0.5
						l0.8-1.2l0.8-0.8l0.8-1.1l0.8-1.4l0.8-1.9l0.8-1.2h0.8l0.8-0.7l0.8-1.6l0.8,0.4l1.7,2.9l0.8-0.3l1.7-1l0.8-0.5l0.8,0.1l0.8,0.8
						l0.8-0.1l0.8,0.5l0.8-0.5l0.8-1l1.7-5.1l0.8-1.6l0.8,0.1l0.8-0.9l0.8-2.4l0.8-1l0.8-0.1l0.8-0.5l0.8,0.4l0.8,0.7l0.8-0.3
						l0.8-1.1h0.8l0.8,0.3l0.8-0.7l0.8,0.3l0.8,0.7l0.8,1.8l0.8,1.1l1.7,2.6h0.8l0.8-1.5l0.8-0.3l0.8,0.3l0.8-1.3l0.8-0.8l0.8,2.2
						l0.8,1.3l0.8-0.6l0.8-1l0.8-0.3l0.8-0.1l0.8-0.5l0.8,0.3l0.8,1.1l0.8,1.5l0.8-0.3l0.8-0.6l0.8,0.5l1.7,1.7l0.8,0.7l1.7,3.2
						l0.8,1.1l0.8,0.7l0.8,0.1l0.8-1.8l0.8-1.3l0.8,1.1l0.8,2l0.8-0.5l0.8-1.3l1.7,2.5l0.8-0.3l0.8-2.4l0.8-0.4l0.8,1.7l0.8,2.1
						l0.8,0.8l0.8,0.5l0.8,0.7l0.8,2l0.8,3.3l0.8,2.6l0.8,0.4l1.7-1.4l0.8,0.9l0.8,0.1l0.8-0.8l0.8-1.2l0.8-0.3l0.8,0.7l0.8,1
						l1.7,2.4l0.8-0.7l1.7-3.6l0.8-1.1l0.8,0.1l0.8,1.4l0.8-0.3l0.8-1.8l0.8-3l0.8-0.9l0.8,2.7l0.8,4.3l0.8,1.4l0.8-4.3l0.8-6.6
						l0.8-3.3l0.8,0.8l0.8,1.9l0.8,0.2l1.7-7l0.8-2.2l0.8,1.1l0.8,2.4l0.8,2l0.8,1.1l0.8-1.4l0.8-2.8l0.8-3.8l0.8-2l0.8,0.6l0.8,1.5
						l0.8,0.6l0.8-1.4l0.8-3.6l0.8-2.9l0.8-1.9l0.8,0.7l0.8,1.1l0.8,1.6h0.8l0.8-0.5l0.8-0.2l0.8,0.6l2.5,4.4l0.8,0.6l0.8,1l0.8,2.1
						l0.8,3.6l0.8,2.6l0.8-0.6l0.8-5l0.8-6.7l0.8-4.3l0.8,1l1.7,10.7l0.8,1.7l0.8-4l0.8-6.1l0.8-5.3l0.8-1.1l0.8,2.4l1.7,10.3
						l0.8,2.6h0.8l0.8-1.7l0.8-2.1l0.8-1l0.8-0.5l0.8,1.2l0.8,1.9l2.5,7.4l0.8-0.2l0.8-3.3l1.7-11.4l0.8-4.6l0.8-1.9l0.8,0.1l1.7,4
						l0.8,1.6l0.8,0.1l0.8,0.2l0.8-1.6l0.8-0.8l0.8-2l0.8-0.6l0.8-0.2l0.8,0.8l0.8,2.8l1.7,6.1l0.8,1.6l0.8,0.3l1.7-1.7h0.8l0.8,0.8
						l0.8,0.2l0.8-1.2l0.8-2.2l1.7-5.4l0.8-1.3l0.8,1.9l0.8,5.5l1.7,16.1l0.8,5.5l0.8,1.3l0.8-3.9l2.5-22.6l0.8-0.8l0.8,5.3
						l2.5,30.8l0.8,5.8l0.8,2.3l0.8-2.9l0.8-6l0.8-8.1l1.7-13l0.8-3.9l0.8-2.2l0.8-1.3l0.8-0.9l0.8,0.2l0.8,1.5l0.8,2.7l0.8,3.2
						l0.8,4.1l0.8,3.3l0.8,1.4l0.8-2.2l0.8-4.8l1.7-12l0.8-4.3l0.8-3.2l1.7-4.8l0.8-1.4l0.8-0.6l1.7-1.9l0.8,0.6l0.8,3.3l2.5,14.3
						l0.8,2.6l0.8,1.3l0.8,0.2l0.8-1.9l0.8-3.9l0.8-5.4l0.8-4l0.8-2.9l0.8-1.3l0.8-0.3l0.8,0.9l0.8,1.7l0.8-0.6l0.8-2.3l1.7-9
						l0.8-4.9l0.8-3.4l0.8-1l0.8,3l0.8,6.9l0.8,11.9l2.5,43.3l0.8,10l0.8,6.6l0.8,2.3l0.8-3.2l0.8-8.6l0.8-13.1l3.3-68.3l0.8-11.4
						l0.8-8.1l0.8-3.9l0.8-1.5l0.8,0.4l0.8,2.1l0.8,3.3l0.8,4l0.8,3.4l1.7,5l2.5,5.1l0.8,2.7l0.8,3.2l0.8,4l0.8,5.1l0.8,5.9
						l10.7,91.6l0.8,8.1l3.3,36.4l2.5,17.5l0.8,7.4l0.8,8.5l0.8,10.6l1.7,25.7l2.5,39.8l1.7,21.6l0.8,7.3l0.8,3.3l0.8-1.6l0.8-6.8
						l0.8-11.5l0.8-17.1l1.7-45l1.7-45.9l1.7-38.3l0.8-16.1l0.8-13l0.8-9.1l0.8-4.6l0.8-1.2l0.8,1.9l0.8,5l0.8,7.1l2.5,28.2
						l1.7,18.2l0.8,6.4l0.8,3.9l0.8,2l0.8,1l0.8-0.4l0.8-2.4l0.8-3.7l1.7-8.3l0.8-4l0.8-5l0.8-7.5l0.8-8.6l0.8-7.4l0.8-4.1l0.8-2.4
						l0.8-3.4l0.8-5.9l2.5-24l1.7-13.9l0.8-8.1l2.5-28.2l0.8-11.7l0.8-13.8l3.3-65.5l2.5-38.1l2.5-43.4l0.8-10.6l0.8-7.1l0.8-5.3
						l1.7-8.2l0.8-1.5l0.8,0.2l0.8,2.7l0.8,3.8l2.5,15.6l0.8,6.6l0.8,8.6l1.7,23.9l1.7,24.6l2.5,29.4l1.7,22.6l0.8,9.2l0.8,6.7
						l2.5,14.9l1.7,15.1l0.8,5.4l0.8,2.8l0.8,1.1l0.8,0.3l1.7,2.5l0.8,1.1l0.8-0.2l0.8-1.1l0.8-0.3l0.8,1.4l0.8,3.5l1.7,8.6l0.8,2.6
						l2.5,0.7l0.8,0.5l0.8-0.1l0.8-0.9l0.8-1.3l0.8-0.8l0.8-0.2l0.8,0.9l0.8,0.7h0.8l0.8-1.9l0.8-2.7l0.8-3.2l0.8-1.4l0.8,0.7
						l1.7,5.1l0.8,1.7l1.7,2.4l0.8,2.4l1.7,7.8l0.8,4.1l0.8,2.4l0.8,0.8l0.8-0.4l0.8-1.1l0.8,0.4l0.8,1.5l1.7,5.6l0.8,1.6l0.8-0.2
						l0.8-1.5l1.7-5.6l0.8-2.3l0.8-0.5l0.8,1.4l2.5,8.7l0.8,0.6l1.7,0.5l0.8,0.5l0.8,0.8l0.8,0.4l0.8,0.9l0.8,0.1l0.8-0.7l0.8-0.9
						l0.8-1.2l0.8,0.5l0.8,1.1l1.7,4.2l0.8,1l0.8,0.4l0.8-1.8l0.8-3.4l1.7-10.4l0.8-2.8l0.8-0.5l0.8,1.3l1.7,3.7l1.7,4l0.8,1.2
						l0.8,0.7l1.7-0.1l0.8,0.5l0.8,1.4l1.7,3.1l0.8,0.5l0.8-0.5l0.8-1.8l2.5-9.6l0.8-1.5l0.8-0.9l0.8,0.2l0.8-0.5l0.8-0.9l0.8-2.5
						l1.7-6l0.8-1.5l0.8,0.7l0.8,3.4l1.7,8l0.8,2.3l0.8,0.7l0.8-0.8l1.7-5l0.8-2.7l0.8-1.2l0.8,0.4l0.8,1.7l0.8,1.3l0.8-0.4l0.8-2.9
						l1.7-8.3l0.8-2.2l0.8,0.1l0.8,2.2l0.8,2.8l0.8,2.3l0.8,0.9l0.8-0.3l0.8-1.1l0.8-0.5l0.8,0.7l0.8,1.7l1.7,4.9l0.8,2.1l0.8,0.4
						l0.8-1.6l0.8-3.2l0.8-3.9l0.8-2.6l0.8-0.3l0.8,3l0.8,4.3l0.8,5l0.8,3.2l0.8,1.3l0.8-1.5l0.8-3.7l1.7-8.2l0.8-2.2l0.8-0.2
						l0.8,1.2l0.8,2.2l2.5,8.4l0.8,1.2h0.8l0.8-2.2l0.8-1.8l0.8-1.2l0.8,0.2l0.8,2.3l0.8,3l2.5,12.6l0.8,3.3l0.8,2.5l0.8,0.9
						l0.8-0.6l0.8-2.5l0.8-3.8l0.8-4.5l0.8-3.6l0.8-2.3l0.8-0.7l0.8,1.1l0.8,2.2l2.5,8.9l0.8,1.1l0.8-1l0.8-2.7l0.8-3.2l0.8-2.2
						l0.8-0.7l0.8,1.6l0.8,3.5l1.7,9.3l0.8,3.3l0.8,1.3l0.8,0.1l0.8-1.8l0.8-2.8l0.8-4.4l2.5-15.9l0.8-4l0.8-3.1l0.8-2.6l0.8-1.7
						l0.8-0.3l0.8,0.5l1.7,2.6l1.7,3.9l0.8,2.9l0.8,2.5l0.8,1.6l0.8-0.3l0.8-2.2l1.7-6.5l0.8-2.7l0.8-0.9l0.8,0.1l0.8,1.1l2.5,5.7
						l0,0"/>
				</g>
			</g>
		</g>
		<g id="line2d_36">
			<g>
				<g>
					<defs>
						<rect id="SVGID_00000059279219201863715880000012768198183771133629_" x="123.1" y="72.4" width="800.3" height="571.6"/>
					</defs>
					<clipPath id="SVGID_00000043459471127358021620000009222206863937958321_">
						<use xlink:href="#SVGID_00000059279219201863715880000012768198183771133629_"  style="overflow:visible;"/>
					</clipPath>
					
						<path style="clip-path:url(#SVGID_00000043459471127358021620000009222206863937958321_);fill:none;stroke:#FF7F0E;stroke-width:1.5;stroke-linecap:square;stroke-linejoin:round;" d="
						M122.7,358.5l1.7,0.6l1.7,0.4l1.7,0.2h2.5l1.7-0.1l1.7-0.3l1.7-0.6l1.7-1.1l1.7-1.5l1.7-1.9l3.3-3.9l1.7-1.6l1.7-1.2l1.7-0.9
						l1.7-0.6l1.7-0.4l1.7-0.2l2.5-0.1l2.5,0.2l1.7,0.3l1.7,0.5l1.7,0.7l2.5,1.4l5.8,3.4l2.5,1.1l2.5,0.8l2.5,0.5l2.5,0.2h3.3
						l10.7-0.3l2.5,0.2l2.5,0.5l2.5,0.7l2.5,1l3.3,1.5l7.4,3.7l2.5,0.8l3.3,0.8l3.3,0.8l2.5,0.9l1.7,0.8l1.7,1l1.7,1.2l1.7,1.6
						l1.7,1.9l2.5,3.3l2.5,3.8l1.7,3l0.8,1.7l0.8,2l0.8,2.5l0.8,3.1l0.8,3.7l3.3,17.1l0.8,5.5l1.7,15.7l0.8,3.8l0.8,0.4l0.8-0.3
						l0.8-1.2l0.8-7l0.8-32.4l0.8-74.7l0.8-46.3l0.8-22.8l0.8-14.5l0.8-11l0.8-8.5l0.8-6.4l1.7-9.9l0.8-4.1l0.8-3.1l0.8-2.2l5-9.6
						l0.8-0.7l1.7-0.7l0.8-0.3l0.8-0.4l0.8-0.8l0.8-1.4l0.8-2.4l1.7-6.4l0.8-2l0.8-0.8l0.8-0.1l0.8,0.1l0.8,0.5l0.8,1.9l0.8,6.4
						l0.8,17.4l1.7,59.6l0.8,21.1l0.8,14.9l0.8,10.9l0.8,8.3l0.8,6.6l0.8,5.3l0.8,4.3l0.8,3.6l1.7,5.8l1.7,4.4l0.8,1.8l0.8,1.5
						l0.8,1.2l0.8,1l0.8,0.8l0.8,0.6l0.8,0.5l1.7,0.6l1.7,0.2h2.5l2.5-0.2l2.5-0.6l4.1-1l2.5-0.3l2.5-0.1l2.5,0.1l1.7,0.2l1.7,0.4
						l1.7,0.7l1.7,0.9l1.7,1.2l1.7,1.5l2.5,2.8l6.6,7.8l1.7,1.4l1.7,1l1.7,0.6l1.7,0.4l2.5,0.3l4.1,0.3l9.1,0.3l3.3-0.1l2.5-0.3
						l3.3-0.8l5-1.5l5-1.6l1.7-0.8l1.7-1l2.5-1.9l4.1-3.3l2.5-1.7l1.7-0.9l1.7-0.6l2.5-0.6l4.1-0.6l5-0.4l4.1-0.2h4.1l2.5,0.2
						l3.3,0.6l3.3,0.8l6.6,1.9l1.7,0.7l1.7,1l2.5,1.9l3.3,2.6l3.3,2.1l2.5,1.4l1.7,0.7l2.5,0.7l1.7,0.3l5,0.5l3.3-0.1l1.7-0.2
						l1.7-0.5l3.3-1.2l1.7-0.9l2.5-1.8l1.7-1.3l1.7-1.7l3.3-3.8l1.7-1.6l1.7-1.3l1.7-1l1.7-0.6l1.7-0.4l2.5-0.1l3.3-0.2l6.6-0.5
						l2.5-0.2l5.8-0.1l2.5,0.1l2.5,0.2h2.5l3.3-0.4l3.3-0.6l2.5-0.8l2.5-0.7l2.5-0.3l3.3-0.2l4.1-0.1l2.5-0.2l1.7,0.1l1.7,0.4
						l1.7,0.6l1.7,0.3l1.7,0.2l0.8,0.2l0.8,0.4l0.8,0.7l0.8,1.2l0.8,1.7l1.7,3.8l0.8,1.3l0.8,0.9l0.8,0.5l0.8,0.3l1.7,0.2l3.3-0.1
						h4.1l1.7-0.1l1.7-0.3l0.8-0.3l0.8-0.5l0.8-0.7l0.8-1l0.8-1.2l1.7-3.1l1.7-3l0.8-1.1l0.8-0.7l0.8-0.5l1.7-0.5l5-0.8l1.7-0.6
						l2.5-1.2l1.7-1.1l0.8-0.8l0.8-1.1l1.7-2.9l0.8-1.4l0.8-1l0.8-0.5l0.8-0.1l0.8,0.1l0.8,0.3l0.8,0.9l0.8,2.1l0.8,4l1.7,9.8
						l0.8,2.6l0.8,0.9l0.8,0.1l0.8-0.1l0.8-0.4l0.8-1.1l0.8-3l0.8-6.2l2.5-26.9l0.8-5.5l0.8-3.7l0.8-2.5l0.8-1.7l0.8-1.1l0.8-0.8
						l0.8-0.5l0.8-0.4l1.7-0.3h1.7l0.8,0.1l0.8,0.3l0.8,0.7l0.8,1.4l0.8,2.7l0.8,4.7l0.8,6.9l1.7,18.7l1.7,19.2l1.7,17.1l3.3,32.3
						l2.5,25.2l2.5,21.3l1.7,15.2l0.8,9.2l0.8,10.8L652,509l1.7,26.4l0.8,11.8l0.8,10l0.8,7.7l0.8,5.2l0.8,2.9l0.8,1.2l0.8,0.2
						l0.8-0.1l0.8-0.5l0.8-2l0.8-7.7l0.8-22.8l0.8-39.3l0.8-33.7l0.8-21.6l0.8-14.3l0.8-9.8l0.8-6.7l0.8-4.4l0.8-2.6l0.8-1.4
						l0.8-0.6l0.8-0.2l1.7,0.1l0.8,0.4l0.8,0.9l0.8,1.9l0.8,3.3l1.7,9.8l0.8,4.7l0.8,3.7l0.8,2.6l0.8,1.8l0.8,1.1l0.8,0.6l0.8,0.3
						h1.7l0.8-0.1l0.8-0.3l0.8-0.6l0.8-1.3l0.8-2.4l0.8-4.1l0.8-6.4l0.8-8.5l2.5-31l2.5-31.5l0.8-11.9l1.7-28.9l2.5-47.6l4.1-68.9
						l0.8-12.4l0.8-10.5l0.8-8.7l0.8-7.2l0.8-6l0.8-4.8l0.8-3.7l0.8-2.6l0.8-1.8l0.8-1.1l0.8-0.6l0.8-0.3l0.8-0.1l0.8,0.1l0.8,0.2
						l0.8,0.6l0.8,1.6l0.8,4.1l0.8,8.5l0.8,14l2.5,50l0.8,12.7l0.8,10.2l0.8,8.3l1.7,13.3l2.5,18l0.8,5.2l0.8,4.5l0.8,3.8l0.8,3.2
						l0.8,2.7l0.8,2.4l0.8,2l1.7,3l2.5,3.9l2.5,4.8l2.5,4.6l1.7,2.5l1.7,1.8l1.7,1.4l1.7,1.1l1.7,0.7l1.7,0.4l5.8,1l1.7,0.6l0.8,0.5
						l0.8,0.7l1.7,1.8l1.7,2.2l1.7,2.5l3.3,5.7l0.8,1.1l0.8,0.9l1.7,1.2l3.3,2l4.1,3l3.3,2.4l2.5,1.4l3.3,1.8l1.7,0.9l0.8,0.3
						l1.7,0.3l2.5,0.1h9.1l6.6,0.3l2.5-0.2l1.7-0.3l1.7-0.6l1.7-1l1.7-1l1.7-0.7l9.1-2.8l1.7-0.8l2.5-1.8l1.7-1.1l2.5-1.3l1.7-0.7
						l1.7-0.5l1.7-0.2l8.3-0.5l5.8,0.2h4.1l5,0.4l1.7,0.2l1.7,0.5l0.8,0.4l0.8,0.6l0.8,0.9l1.7,2.3l1.7,2.2l0.8,0.8l0.8,0.6l1.7,0.8
						l4.1,1.4l2.5,1.1l1.7,0.5l3.3,0.8l1.7,0.8l1.7,1.2l1.7,1.3l0.8,0.5l0.8,0.3l1.7,0.2l1.7-0.1l1.7-0.4l0.8-0.4l1.7-1.2l3.3-2.7
						l1.7-0.9l3.3-1.5l1.7-1l2.5-1.6l0,0"/>
				</g>
			</g>
		</g>
		<g id="line2d_37">
			<g>
				<g>
					<defs>
						<rect id="SVGID_00000152981130721167422510000015686183526130897833_" x="123.1" y="72.4" width="800.3" height="571.6"/>
					</defs>
					<clipPath id="SVGID_00000155113092114582921000000004494027643326386600_">
						<use xlink:href="#SVGID_00000152981130721167422510000015686183526130897833_"  style="overflow:visible;"/>
					</clipPath>
					
						<path style="clip-path:url(#SVGID_00000155113092114582921000000004494027643326386600_);fill:none;stroke:#2CA02C;stroke-width:1.5;stroke-linecap:square;stroke-linejoin:round;" d="
						M122.7,356.9l1.7,0.2h1.7l1.7-0.3l1.7-0.6l2.5-1.3l2.5-1.5l4.1-2.9l2.5-1.7l1.7-0.9l1.7-0.7l1.7-0.5l2.5-0.5l1.7-0.1l1.7,0.1
						l1.7,0.3l1.7,0.6l2.5,1.3l3.3,1.7l5.8,2.5l2.5,0.9l2.5,0.7l2.5,0.4l1.7,0.1h1.7l1.7-0.2l2.5-0.6l4.1-1l1.7-0.2h1.7l1.7,0.2
						l1.7,0.4l2.5,0.9l10.7,4.6l7.4,3.1l2.5,0.6l6.6,1.3l2.5,1l2.5,1.3l2.5,1.5l1.7,1.2l2.5,2.2l3.3,3l2.5,2.6l1.7,2l1.7,2.4
						l0.8,1.5l1.7,3.7l3.3,8.2l0.8,2.6l2.5,9.9l0.8,1.2l0.8-0.7l0.8-2.7l0.8-4.4l0.8-5.7l1.7-14.2l5-46.3L266,313l1.7-11.8l4.1-27.6
						l1.7-8l1.7-7.3l1.7-8.5l3.3-19.2l0.8-3.7l0.8-2.8l0.8-1.8l0.8-0.9l0.8,0.1l0.8,1l0.8,1.8l0.8,2.5l0.8,3.1l1.7,7.5l7.4,37.1
						l2.5,10.6l1.7,6.2l1.7,5.5l1.7,4.6l1.7,3.9l1.7,3.2l1.7,2.6l1.7,2.3l1.7,2l9.1,10.2l5,6.2l5.8,7l5.8,6.8l5,5.8l1.7,1.8l1.7,1.4
						l1.7,1.2l1.7,0.8l2.5,0.9l6.6,1.7l1.7,0.3l5,1.3l1.7,0.2h1.7l1.7-0.2l2.5-0.7l4.1-1.2l3.3-0.6l2.5-0.4l2.5-0.4l1.7-0.6l3.3-1.8
						l3.3-2l5.8-2.9l1.7-0.6l1.7-0.3l2.5-0.2l5-0.6l2.5-0.2l3.3-0.3l5.8,0.4l1.7,0.4l3.3,1.1l1.7,0.3l1.7,0.5l1.7,0.4l1.7,0.5
						l2.5,0.4l3.3,1.1l0.8,0.4l1.7,1.1l1.7,1.1l3.3,1.9l4.1,1.8l1.7,0.8l1.7,0.5l4.1,0.7l2.5-0.1l2.5,0.6l0.8-0.2l1.7-0.7l1.7-0.4
						l0.8-0.3l3.3-1.9l3.3-1.1l4.1-2.5l0.8-0.4l1.7-1.3l1.7-1.4l1.7-1.1l3.3-1.8l1.7-0.6l1.7-0.3l1.7-0.1l1.7,0.5l0.8,0.3h0.8
						l0.8-0.3l1.7-0.9l0.8-0.1l2.5,0.3l0.8-0.3l2.5-1.5l0.8-0.2l0.8,0.1l2.5,0.5h1.7l1.7-0.1l0.8,0.1l0.8,0.2l1.7,0.7l0.8,0.4
						l0.8,0.2l0.8-0.1l0.8-0.3l3.3-2.1l1.7-0.6l3.3-1l3.3-1.5l0.8-0.2h0.8l1.7,0.3l1.7,0.3l5,0.4l0.8-0.2l2.5-0.8h0.8l0.8,0.4
						l0.8,0.8l1.7,2l0.8,0.8l0.8,0.4h0.8l1.7-0.7l0.8-0.1l0.8,0.4l0.8,0.9l0.8,1.3l2.5,4.3l0.8,1l0.8,0.6l0.8,0.2l0.8-0.1l1.7-0.6
						l3.3-1.4l0.8-0.1h0.8l0.8,0.2l2.5,1h0.8l0.8-0.2l0.8-0.5l1.7-1.5l2.5-2.8l3.3-3.7l0.8-0.7l0.8-0.4l0.8-0.2h0.8l3.3,0.7l0.8-0.1
						l0.8-0.3l1.7-1.1l2.5-1.8l2.5-1.4l0.8-0.7l0.8-0.9l1.7-2.2l0.8-1.2l0.8-1l0.8-0.6h0.8l0.8,0.6l0.8,1.3l0.8,1.9l1.7,4.7l1.7,4.6
						l0.8,1.7l0.8,1l0.8,0.2l0.8-0.7l0.8-1.4l0.8-2.1l1.7-5.3l2.5-8.2l1.7-4.5l1.7-3.5l1.7-2.7l1.7-2.1l0.8-0.9l0.8-0.7l0.8-0.5
						l0.8-0.3l0.8-0.1l0.8,0.2l0.8,0.5l0.8,0.8l0.8,1.1l0.8,1.4l1.7,3.6l1.7,4.4l1.7,5.3l1.7,6.1l1.7,6.9l1.7,7.9l2.5,13.4l3.3,19.1
						l1.7,10.8l1.7,12.2L652,430l3.3,28.2l1.7,11.3l0.8,4.2l0.8,3l0.8,1.8l0.8,0.6l0.8-0.4l0.8-1.3l0.8-2.1l0.8-2.7l1.7-6.7
						l2.5-10.1l0.8-2.8l0.8-2.4l0.8-1.8l0.8-1.3l0.8-0.8l0.8-0.3l0.8,0.1l0.8,0.4l1.7,1.1l1.7,1.2l0.8,0.4l0.8,0.2h0.8l0.8-0.1
						l0.8-0.3l0.8-0.5l0.8-0.9l0.8-1.2l1.7-3.1l1.7-3.4l0.8-1.9l1.7-4.7l1.7-5.6l1.7-6.4l1.7-7.5l1.7-8.6l1.7-10.3l1.7-12.4
						l2.5-21.3l2.5-23.9l5-50.3l1.7-15.1l1.7-13.3l1.7-11.2l1.7-9.2l0.8-3.8l0.8-3.1l0.8-2.3l0.8-1.7l0.8-1l0.8-0.5l0.8-0.1l0.8,0.4
						l0.8,0.9l0.8,1.4l1.7,3.7l1.7,4.3l1.7,4.9l5.8,19.5l1.7,4.9l2.5,6.5l2.5,6.8l2.5,6.8l2.5,6l1.7,3.4l2.5,4.4l1.7,2.7l1.7,2.2
						l1.7,1.5l1.7,1.5l3.3,3.6l1.7,2.1l1.7,2.6l2.5,4.2l4.1,6.2l1.7,2.6l1.7,2.1l1.7,1.5l1.7,1.2l1.7,1.6l3.3,3.6l4.1,4.1l1.7,1.4
						l3.3,2.4l3.3,2.8l0.8,0.4l0.8,0.1l0.8-0.1l2.5-0.6h1.7l1.7,0.3l5,1.6l4.1,1.8l0.8,0.1h0.8l1.7-0.4l4.1-1.5l1.7-1.1l1.7-1.3
						l0.8-0.4l0.8-0.2h1.7l1.7,0.2h0.8l0.8-0.2l3.3-1.1l1.7-0.3l0.8-0.3l0.8-0.5l3.3-2.5l0.8-0.4l4.1-1.1l1.7-0.3l1.7,0.1l2.5,0.5
						h0.8l1.7-0.5l0.8-0.3l0.8-0.2h0.8l0.8,0.3l2.5,1.2l0.8,0.2h0.8l1.7-0.5l1.7-0.5l0.8-0.1h0.8l0.8,0.1l3.3,1l3.3,0.3l0.8,0.3
						l0.8,0.5l0.8,0.6l1.7,1.7l2.5,2.8l0.8,0.7l0.8,0.5l0.8,0.3l1.7,0.1h1.7l0.8,0.1l0.8,0.3l1.7,0.9l1.7,1l0.8,0.3l1.7,0.2l1.7,0.1
						l0.8,0.2l0.8,0.5l1.7,1.4l1.7,1.5l0.8,0.6l0.8,0.5l0.8,0.3h0.8l0.8-0.3l0.8-0.5l1.7-1.4l4.1-4l1.7-1.1l0.8-0.4l0.8-0.2l1.7-0.1
						l1.7-0.1l0.8-0.3l1.7-0.9l2.5-1.5l1.7-0.5l0.8-0.1l0,0"/>
				</g>
			</g>
		</g>
		<g id="patch_3">
			<path class="st24" d="M123.1,644V72.4"/>
		</g>
		<g id="patch_4">
			<path class="st24" d="M923.4,644V72.4"/>
		</g>
		<g id="patch_5">
			<path class="st24" d="M123.1,644h800.3"/>
		</g>
		<g id="patch_6">
			<path class="st24" d="M123.1,72.4h800.3"/>
		</g>
	</g>
</g>
</svg>
