<?xml version="1.0" encoding="utf-8"?>
<!-- Generator: Adobe Illustrator 27.0.0, SVG Export Plug-In . SVG Version: 6.00 Build 0)  -->
<svg version="1.1" id="Layer_1" xmlns="http://www.w3.org/2000/svg" xmlns:xlink="http://www.w3.org/1999/xlink" x="0px" y="0px"
	 viewBox="0 0 304.7 202" style="enable-background:new 0 0 304.7 202;" xml:space="preserve">
<style type="text/css">
	.st0{fill:none;stroke:#888888;stroke-miterlimit:10;}
	.st1{fill:#888888;}
	.st2{fill:#FFFFFF;stroke:#888888;stroke-width:0.5;stroke-miterlimit:10;}
	.st3{fill:#7DEFEC;stroke:#888888;stroke-width:0.5;stroke-miterlimit:10;}
	.st4{fill:#A4EDEB;stroke:#888888;stroke-width:0.5;stroke-miterlimit:10;}
	.st5{fill:#D7F4F4;stroke:#888888;stroke-width:0.5;stroke-miterlimit:10;}
	.st6{fill:#282828;}
	.st7{font-family:'Roboto-Regular';}
	.st8{font-size:9px;}
	.st9{fill:#D7F4F4;}
</style>
<g>
	<g>
		<line class="st0" x1="276.4" y1="138.2" x2="266.2" y2="122.9"/>
		<g>
			<polygon class="st1" points="271.1,121.4 262.2,117 262.8,126.9 			"/>
		</g>
	</g>
</g>
<circle class="st2" cx="278.1" cy="143.5" r="8.9"/>
<g>
	<g>
		<line class="st0" x1="17.7" y1="145.3" x2="34.7" y2="122.7"/>
		<g>
			<polygon class="st1" points="37.8,126.9 39,117 29.8,120.9 			"/>
		</g>
	</g>
</g>
<circle class="st2" cx="23" cy="143.5" r="8.9"/>
<g>
	<g>
		<path class="st0" d="M258.6,85c-0.1-7.8-1.4-20.5-7.2-30.2C240.8,37,223.2,24.8,202,24.8"/>
		<g>
			<polygon class="st1" points="263.6,83.6 258.5,92.2 253.6,83.4 			"/>
		</g>
	</g>
</g>
<path class="st3" d="M201.3,46.1h-87.2c-4.3,0-7.8-3.5-7.8-7.8V25.5c0-4.3,3.5-7.8,7.8-7.8h87.2c4.3,0,7.8,3.5,7.8,7.8v12.8
	C209.1,42.6,205.6,46.1,201.3,46.1z"/>
<path class="st4" d="M197.8,42.6h-87.2c-4.3,0-7.8-3.5-7.8-7.8V22c0-4.3,3.5-7.8,7.8-7.8h87.2c4.3,0,7.8,3.5,7.8,7.8v12.8
	C205.5,39.1,202,42.6,197.8,42.6z"/>
<g>
	<g>
		<path class="st0" d="M43.8,124.1c1.5,7.4,4.9,19.2,12.9,28.3c14.6,16.8,34.6,28.3,63.8,28.3"/>
		<g>
			<polygon class="st1" points="39.2,126.3 42.8,117 49.1,124.7 			"/>
		</g>
	</g>
</g>
<g>
	<g>
		<path class="st0" d="M133.9,166.6c0,0-10-7.1-10-21.3s13.4-21.3,26.6-21.3s26.6,7.1,26.6,21.3c0,5.6-2.5,11.4-5.2,15.7"/>
		<g>
			<polygon class="st1" points="168.8,156.7 167.4,166.6 176.6,162.9 			"/>
		</g>
	</g>
</g>
<g>
	<g>
		<path class="st0" d="M42.5,92.2c0,0-2-20.2,7.1-35.4C59,41,74,28.1,92.1,25.4"/>
		<g>
			<polygon class="st1" points="91.1,30.6 99.2,24.8 90.2,20.6 			"/>
		</g>
	</g>
</g>
<path class="st5" d="M77.3,117H14.8c-4.3,0-7.8-3.5-7.8-7.8v-9.3c0-4.3,3.5-7.8,7.8-7.8h62.4c4.3,0,7.8,3.5,7.8,7.8v9.3
	C85,113.5,81.6,117,77.3,117z"/>
<path class="st5" d="M287.9,117h-62.4c-4.3,0-7.8-3.5-7.8-7.8v-9.3c0-4.3,3.5-7.8,7.8-7.8h62.4c4.3,0,7.8,3.5,7.8,7.8v9.3
	C295.6,113.5,292.2,117,287.9,117z"/>
<path class="st5" d="M194.2,39H107c-4.3,0-7.8-3.5-7.8-7.8V18.4c0-4.3,3.5-7.8,7.8-7.8h87.2c4.3,0,7.8,3.5,7.8,7.8v12.8
	C202,35.5,198.5,39,194.2,39z"/>
<path class="st5" d="M172.9,194.9h-44.7c-4.3,0-7.8-3.5-7.8-7.8v-12.8c0-4.3,3.5-7.8,7.8-7.8h44.7c4.3,0,7.8,3.5,7.8,7.8v12.8
	C180.7,191.4,177.2,194.9,172.9,194.9z"/>
<g>
	<g>
		<path class="st0" d="M258.4,117c0,0,0.3,28.3-13.9,42.5c-14.4,14.4-31.5,20.2-56.6,21.1"/>
		<g>
			<polygon class="st1" points="189.2,175.5 180.7,180.7 189.5,185.5 			"/>
		</g>
	</g>
</g>
<text transform="matrix(1 0 0 1 130.0673 183.2014)" class="st6 st7 st8">idle phase</text>
<text transform="matrix(1 0 0 1 20.2446 107.0203)" class="st6 st7 st8">attack phase</text>
<text transform="matrix(1 0 0 1 109.7004 27.296)" class="st6 st7 st8">intermediate phases</text>
<text transform="matrix(1 0 0 1 228.7503 107.0202)" class="st6 st7 st8">release phase</text>
<g>
	<path class="st9" d="M85,102.8c47.2,0,87.4,0,134.6,0"/>
	<g>
		<path class="st0" d="M85,102.8c44.8,0,83.3,0,127.5,0"/>
		<g>
			<polygon class="st1" points="211,107.8 219.7,102.8 211,97.8 			"/>
		</g>
	</g>
</g>
<text transform="matrix(1 0 0 1 20.0954 146.735)" class="st6 st7 st8">A</text>
<text transform="matrix(1 0 0 1 275.0877 146.7349)" class="st6 st7 st8">R</text>
</svg>
