<?xml version="1.0" encoding="utf-8"?>
<!-- Generator: Adobe Illustrator 27.0.0, SVG Export Plug-In . SVG Version: 6.00 Build 0)  -->
<svg version="1.1" id="Layer_1" xmlns="http://www.w3.org/2000/svg" xmlns:xlink="http://www.w3.org/1999/xlink" x="0px" y="0px"
	 viewBox="0 0 1245 452.5" style="enable-background:new 0 0 1245 452.5;" xml:space="preserve">
<style type="text/css">
	.st0{fill:none;stroke:#2278B5;stroke-width:1.5;stroke-linecap:square;stroke-linejoin:round;}
	.st1{fill:none;stroke:#939598;stroke-linecap:square;stroke-linejoin:round;}
	.st2{fill:none;stroke:#939598;stroke-linecap:square;stroke-linejoin:round;stroke-dasharray:11.709,11.709;}
	.st3{font-family:'MyriadPro-Regular';}
	.st4{font-size:24px;}
	.st5{font-size:36px;}
</style>
<path class="st0" d="M1199.7,347L1199.7,347l-15-0.1l-21.4-0.2l-18.6-0.3l-16.4-0.3l-15-0.3l-13.7-0.4l-12.5-0.4l-11.4-0.4L1065,344
	l-10-0.5l-9.3-0.6l-8.6-0.6l-8.2-0.6l-7.9-0.7l-7.5-0.7l-7.1-0.8l-6.8-0.8l-6.4-0.8l-6.4-0.9l-6.1-0.9l-6.1-1l-5.7-1l-5.7-1.1
	l-5.4-1.2l-5.4-1.2l-5.4-1.3l-5-1.3l-5-1.4l-5-1.5l-5-1.7l-4.6-1.6l-4.6-1.7l-4.6-1.9l-4.6-2l-4.6-2.1l-4.6-2.3l-4.6-2.4l-4.6-2.6
	l-4.3-2.5l-4.3-2.7l-4.3-2.9l-4.7-3l-4.3-3.2L864,289l-4.3-3.6l-4.3-3.8l-4.3-4.1l-4.3-4.3c0,0-4.2-4.6-4.2-4.6l-394.2-32.6
	l-3.6-0.1l-3.6-0.2l-3.6-0.3l-3.6-0.4l-3.6-0.5l-3.6-0.7l-3.6-0.8l-3.6-1l-3.6-1.2l-3.6-1.3l-3.6-1.5l-3.6-1.7l-3.6-1.9l-3.6-2.2
	l-3.6-2.4l-3.6-2.6l-3.6-2.9l-3.6-3.2l-3.6-3.4l-3.6-3.7l-3.6-4l-3.6-4.2l-3.6-4.4l-3.6-4.7l-3.6-4.9l-3.6-5.1l-3.6-5.3l-3.6-5.4
	l-3.6-5.5l-3.6-5.6l-3.6-5.7l-3.6-5.7l-3.6-5.7l-3.6-5.6l-3.6-5.5l-3.6-5.4l-3.6-5.2l-3.6-5l-3.6-4.7l-3.6-4.4l-3.6-4.1l-3.6-3.7
	l-3.6-3.3l-3.6-2.9l-3.6-2.5l-3.6-2l-3.6-1.5l-3.6-1h-1.2h-59.5l-3.6,0.9l-3.6,1.7l-3.6,2.6l-3.6,3.4l-3.6,4.2l-3.6,5l-3.6,5.7
	l-3.6,6.4l-3.6,7l-3.6,7.6l-3.6,8.1l-3.6,8.5l-3.6,8.9l-3.6,9.2l-3.6,9.4l-3.6,9.6l-3.6,9.7l-3.6,9.7l-3.6,9.7l-3.6,9.6l-3.6,9.4
	l-3.6,9.2l-3.6,9l-3.6,8.7l-3.6,8.4l-3.6,8l-3.6,7.6l-3.6,7.2l-3.6,6.8l-3.6,6.3l-3.6,5.9l-3.6,5.4l-3.6,5l-3.6,4.5l-3.6,4.1
	l-3.6,3.7l-3.6,3.3l-3.6,2.9l-3.6,2.6l-3.6,2.3l-3.6,2l-3.6,1.7l-3.6,1.4l-3.6,1.2l-3.6,0.9l-3.6,0.7l-3.6,0.5l-3.6,0.3l-3.6,0.1"/>
<g>
	<g>
		<line class="st1" x1="39" y1="49.6" x2="39" y2="55.6"/>
		<line class="st2" x1="39" y1="67.3" x2="39" y2="342.5"/>
		<line class="st1" x1="39" y1="348.3" x2="39" y2="354.3"/>
	</g>
</g>
<g>
	<g>
		<line class="st1" x1="216.1" y1="47.7" x2="216.1" y2="53.7"/>
		<line class="st2" x1="216.1" y1="65.4" x2="216.1" y2="340.5"/>
		<line class="st1" x1="216.1" y1="346.4" x2="216.1" y2="352.4"/>
	</g>
</g>
<g>
	<g>
		<line class="st1" x1="276" y1="47.7" x2="276" y2="53.7"/>
		<line class="st2" x1="276" y1="65.4" x2="276" y2="340.5"/>
		<line class="st1" x1="276" y1="346.4" x2="276" y2="352.4"/>
	</g>
</g>
<g>
	<g>
		<line class="st1" x1="449.6" y1="48.8" x2="449.6" y2="54.8"/>
		<line class="st2" x1="449.6" y1="66.5" x2="449.6" y2="341.7"/>
		<line class="st1" x1="449.6" y1="347.6" x2="449.6" y2="353.6"/>
	</g>
</g>
<g>
	<g>
		<line class="st1" x1="842.6" y1="48.8" x2="842.6" y2="54.8"/>
		<line class="st2" x1="842.6" y1="66.5" x2="842.6" y2="341.7"/>
		<line class="st1" x1="842.6" y1="347.6" x2="842.6" y2="353.6"/>
	</g>
</g>
<g>
	<g>
		<line class="st1" x1="1199.7" y1="48.8" x2="1199.7" y2="54.8"/>
		<line class="st2" x1="1199.7" y1="66.5" x2="1199.7" y2="341.7"/>
		<line class="st1" x1="1199.7" y1="347.6" x2="1199.7" y2="353.6"/>
	</g>
</g>
<text transform="matrix(1 0 0 1 116.9291 64.0432)" class="st3 st4">S1</text>
<text transform="matrix(1 0 0 1 350.2642 64.0431)" class="st3 st4">S3</text>
<text transform="matrix(1 0 0 1 237.1796 64.0435)" class="st3 st4">S2</text>
<text transform="matrix(1 0 0 1 630.7091 64.0432)" class="st3 st4">S4</text>
<text transform="matrix(1 0 0 1 1016.9293 64.0431)" class="st3 st4">S5</text>
<text transform="matrix(1 0 0 1 466.4509 407.097)" class="st3 st5">5-Segment Envelope</text>
</svg>
