<?xml version="1.0" encoding="UTF-8" standalone="no"?>
<!DOCTYPE svg PUBLIC "-//W3C//DTD SVG 1.1//EN"
 "http://www.w3.org/Graphics/SVG/1.1/DTD/svg11.dtd">
<!-- Generated by graphviz version 15.0.0 (20260523.1842)
 -->
<!-- Title: grain_freeze Pages: 1 -->
<svg width="720" height="277"
 viewBox="0.00 0.00 743.00 286.00" xmlns="http://www.w3.org/2000/svg" xmlns:xlink="http://www.w3.org/1999/xlink">
<g id="graph0" class="graph" transform="scale(1 1) rotate(0) translate(12.96 273.24)">
<title>grain_freeze</title>
<!-- _in -->
<g id="node1" class="node">
<title>_in</title>
<text xml:space="preserve" text-anchor="middle" x="27" y="-219.94" font-family="DejaVu Sans, Verdana, sans-serif" font-size="11.00" fill="#1a1a1a">input</text>
</g>
<!-- buf -->
<g id="node2" class="node">
<title>buf</title>
<path fill="#e8f2fd" stroke="#1565c0" stroke-width="1.5" d="M184.21,-242.28C184.21,-242.28 124.54,-242.28 124.54,-242.28 118.54,-242.28 112.54,-236.28 112.54,-230.28 112.54,-230.28 112.54,-217 112.54,-217 112.54,-211 118.54,-205 124.54,-205 124.54,-205 184.21,-205 184.21,-205 190.21,-205 196.21,-211 196.21,-217 196.21,-217 196.21,-230.28 196.21,-230.28 196.21,-236.28 190.21,-242.28 184.21,-242.28"/>
<text xml:space="preserve" text-anchor="start" x="129.25" y="-224.19" font-family="DejaVu Sans, Verdana, sans-serif" font-size="11.00" fill="#1a1a1a">ring buffer</text>
<text xml:space="preserve" text-anchor="start" x="125.5" y="-215.09" font-family="DejaVu Sans, Verdana, sans-serif" font-size="9.00" fill="#5d5d5d">hermite reads</text>
</g>
<!-- _in&#45;&gt;buf -->
<g id="edge1" class="edge">
<title>_in&#45;&gt;buf</title>
<path fill="none" stroke="#1a1a1a" stroke-width="1.3" d="M53.7,-223.64C53.7,-223.64 102.95,-223.64 102.95,-223.64"/>
<polygon fill="#1a1a1a" stroke="#1a1a1a" stroke-width="1.3" points="102.95,-226.09 109.95,-223.64 102.95,-221.19 102.95,-226.09"/>
</g>
<!-- mix -->
<g id="node5" class="node">
<title>mix</title>
<ellipse fill="white" stroke="#1a1a1a" stroke-width="1.5" cx="608.74" cy="-223.64" rx="14.4" ry="14.4"/>
<text xml:space="preserve" text-anchor="middle" x="608.74" y="-218.96" font-family="DejaVu Sans, Verdana, sans-serif" font-size="14.00">+</text>
</g>
<!-- _in&#45;&gt;mix -->
<g id="edge6" class="edge">
<title>_in&#45;&gt;mix</title>
<path fill="none" stroke="#5d5d5d" stroke-width="1.3" stroke-dasharray="5,2" d="M27.14,-241.53C27.14,-250.83 27.14,-260.28 27.14,-260.28 27.14,-260.28 609.14,-260.28 609.14,-260.28 609.14,-260.28 609.14,-247.51 609.14,-247.51"/>
<polygon fill="#5d5d5d" stroke="#5d5d5d" stroke-width="1.3" points="611.59,-247.51 609.14,-240.51 606.69,-247.51 611.59,-247.51"/>
<text xml:space="preserve" text-anchor="middle" x="278.78" y="-251.73" font-family="DejaVu Sans, Verdana, sans-serif" font-size="9.00" fill="#5d5d5d">dry (passthrough)</text>
</g>
<!-- grains -->
<g id="node3" class="node">
<title>grains</title>
<path fill="#e8f2fd" stroke="#1565c0" stroke-width="1.5" d="M363.17,-242.28C363.17,-242.28 269.75,-242.28 269.75,-242.28 263.75,-242.28 257.75,-236.28 257.75,-230.28 257.75,-230.28 257.75,-217 257.75,-217 257.75,-211 263.75,-205 269.75,-205 269.75,-205 363.17,-205 363.17,-205 369.17,-205 375.17,-211 375.17,-217 375.17,-217 375.17,-230.28 375.17,-230.28 375.17,-236.28 369.17,-242.28 363.17,-242.28"/>
<text xml:space="preserve" text-anchor="start" x="279.71" y="-224.19" font-family="DejaVu Sans, Verdana, sans-serif" font-size="11.00" fill="#1a1a1a">grains ×2, OLA</text>
<text xml:space="preserve" text-anchor="start" x="270.71" y="-215.09" font-family="DejaVu Sans, Verdana, sans-serif" font-size="9.00" fill="#5d5d5d">width 4096 · hop 2048</text>
</g>
<!-- buf&#45;&gt;grains -->
<g id="edge2" class="edge">
<title>buf&#45;&gt;grains</title>
<path fill="none" stroke="#1a1a1a" stroke-width="1.3" d="M196.54,-229.85C196.54,-229.85 248.15,-229.85 248.15,-229.85"/>
<polygon fill="#1a1a1a" stroke="#1a1a1a" stroke-width="1.3" points="248.15,-232.3 255.15,-229.85 248.15,-227.4 248.15,-232.3"/>
</g>
<!-- gain -->
<g id="node4" class="node">
<title>gain</title>
<path fill="#e8f2fd" stroke="#1565c0" stroke-width="1.5" d="M526.22,-242.28C526.22,-242.28 446.3,-242.28 446.3,-242.28 440.3,-242.28 434.3,-236.28 434.3,-230.28 434.3,-230.28 434.3,-217 434.3,-217 434.3,-211 440.3,-205 446.3,-205 446.3,-205 526.22,-205 526.22,-205 532.22,-205 538.22,-211 538.22,-217 538.22,-217 538.22,-230.28 538.22,-230.28 538.22,-236.28 532.22,-242.28 526.22,-242.28"/>
<text xml:space="preserve" text-anchor="start" x="458.13" y="-224.19" font-family="DejaVu Sans, Verdana, sans-serif" font-size="11.00" fill="#1a1a1a">× 0.8 · gain</text>
<text xml:space="preserve" text-anchor="start" x="447.25" y="-215.09" font-family="DejaVu Sans, Verdana, sans-serif" font-size="9.00" fill="#5d5d5d">hann fade · last 4 s</text>
</g>
<!-- grains&#45;&gt;gain -->
<g id="edge3" class="edge">
<title>grains&#45;&gt;gain</title>
<path fill="none" stroke="#1a1a1a" stroke-width="1.3" d="M375.85,-229.85C375.85,-229.85 424.73,-229.85 424.73,-229.85"/>
<polygon fill="#1a1a1a" stroke="#1a1a1a" stroke-width="1.3" points="424.73,-232.3 431.73,-229.85 424.73,-227.4 424.73,-232.3"/>
</g>
<!-- gain&#45;&gt;mix -->
<g id="edge4" class="edge">
<title>gain&#45;&gt;mix</title>
<path fill="none" stroke="#1a1a1a" stroke-width="1.3" d="M538.91,-223.64C538.91,-223.64 584.86,-223.64 584.86,-223.64"/>
<polygon fill="#1a1a1a" stroke="#1a1a1a" stroke-width="1.3" points="584.86,-226.09 591.86,-223.64 584.86,-221.19 584.86,-226.09"/>
</g>
<!-- _out -->
<g id="node6" class="node">
<title>_out</title>
<text xml:space="preserve" text-anchor="middle" x="690.14" y="-219.94" font-family="DejaVu Sans, Verdana, sans-serif" font-size="11.00" fill="#1a1a1a">out</text>
</g>
<!-- mix&#45;&gt;_out -->
<g id="edge5" class="edge">
<title>mix&#45;&gt;_out</title>
<path fill="none" stroke="#1a1a1a" stroke-width="1.3" d="M623.67,-223.64C623.67,-223.64 654.48,-223.64 654.48,-223.64"/>
<polygon fill="#1a1a1a" stroke="#1a1a1a" stroke-width="1.3" points="654.48,-226.09 661.48,-223.64 654.48,-221.19 654.48,-226.09"/>
</g>
<!-- freeze -->
<g id="node7" class="node">
<title>freeze</title>
<path fill="#fdeaf2" stroke="#d81b60" stroke-width="1.5" d="M202.75,-106.6C202.75,-106.6 106,-106.6 106,-106.6 100,-106.6 94,-100.6 94,-94.6 94,-94.6 94,-72.68 94,-72.68 94,-66.68 100,-60.68 106,-60.68 106,-60.68 202.75,-60.68 202.75,-60.68 208.75,-60.68 214.75,-66.68 214.75,-72.68 214.75,-72.68 214.75,-94.6 214.75,-94.6 214.75,-100.6 208.75,-106.6 202.75,-106.6"/>
<text xml:space="preserve" text-anchor="start" x="119.5" y="-84.19" font-family="DejaVu Sans, Verdana, sans-serif" font-size="11.00" fill="#d81b60">freeze at 1.2 s</text>
<text xml:space="preserve" text-anchor="start" x="112" y="-75.09" font-family="DejaVu Sans, Verdana, sans-serif" font-size="9.00" fill="#5d5d5d">anchor = freeze_pos</text>
</g>
<!-- freeze&#45;&gt;grains -->
<g id="edge7" class="edge">
<title>freeze&#45;&gt;grains</title>
<path fill="none" stroke="#d81b60" stroke-width="1.3" stroke-dasharray="5,2" d="M205.14,-107.25C205.14,-145.66 205.14,-217.43 205.14,-217.43 205.14,-217.43 248.25,-217.43 248.25,-217.43"/>
<polygon fill="#d81b60" stroke="#d81b60" stroke-width="1.3" points="248.25,-219.88 255.25,-217.43 248.25,-214.98 248.25,-219.88"/>
</g>
<!-- lfo -->
<g id="node8" class="node">
<title>lfo</title>
<path fill="white" stroke="#43a047" stroke-width="1.5" d="M366.17,-106.28C366.17,-106.28 266.75,-106.28 266.75,-106.28 260.75,-106.28 254.75,-100.28 254.75,-94.28 254.75,-94.28 254.75,-81 254.75,-81 254.75,-75 260.75,-69 266.75,-69 266.75,-69 366.17,-69 366.17,-69 372.17,-69 378.17,-75 378.17,-81 378.17,-81 378.17,-94.28 378.17,-94.28 378.17,-100.28 372.17,-106.28 366.17,-106.28"/>
<text xml:space="preserve" text-anchor="start" x="275.96" y="-88.19" font-family="DejaVu Sans, Verdana, sans-serif" font-size="11.00" fill="#1a1a1a">sin_cos_gen LFO</text>
<text xml:space="preserve" text-anchor="start" x="267.71" y="-79.09" font-family="DejaVu Sans, Verdana, sans-serif" font-size="9.00" fill="#5d5d5d">0.3 Hz · ±25 ms wander</text>
</g>
<!-- lfo&#45;&gt;grains -->
<g id="edge8" class="edge">
<title>lfo&#45;&gt;grains</title>
<path fill="none" stroke="#43a047" stroke-width="1.3" d="M316.14,-106.84C316.14,-106.84 316.14,-195.57 316.14,-195.57"/>
<polygon fill="#43a047" stroke="#43a047" stroke-width="1.3" points="313.69,-195.57 316.14,-202.57 318.59,-195.57 313.69,-195.57"/>
</g>
<!-- jitter -->
<g id="node9" class="node">
<title>jitter</title>
<path fill="white" stroke="#43a047" stroke-width="1.5" d="M353.8,-37.28C353.8,-37.28 279.13,-37.28 279.13,-37.28 273.13,-37.28 267.13,-31.28 267.13,-25.28 267.13,-25.28 267.13,-12 267.13,-12 267.13,-6 273.13,0 279.13,0 279.13,0 353.8,0 353.8,0 359.8,0 365.8,-6 365.8,-12 365.8,-12 365.8,-25.28 365.8,-25.28 365.8,-31.28 359.8,-37.28 353.8,-37.28"/>
<text xml:space="preserve" text-anchor="start" x="304.84" y="-19.19" font-family="DejaVu Sans, Verdana, sans-serif" font-size="11.00" fill="#1a1a1a">jitter</text>
<text xml:space="preserve" text-anchor="start" x="280.09" y="-10.09" font-family="DejaVu Sans, Verdana, sans-serif" font-size="9.00" fill="#5d5d5d">±5 ms per&#45;spawn</text>
</g>
<!-- jitter&#45;&gt;grains -->
<g id="edge9" class="edge">
<title>jitter&#45;&gt;grains</title>
<path fill="none" stroke="#43a047" stroke-width="1.3" d="M366.33,-18.64C383.33,-18.64 398.14,-18.64 398.14,-18.64 398.14,-18.64 398.14,-217.43 398.14,-217.43 398.14,-217.43 384.79,-217.43 384.79,-217.43"/>
<polygon fill="#43a047" stroke="#43a047" stroke-width="1.3" points="384.79,-214.98 377.79,-217.43 384.79,-219.88 384.79,-214.98"/>
</g>
<!-- fade -->
<g id="node10" class="node">
<title>fade</title>
<path fill="white" stroke="#43a047" stroke-width="1.5" d="M542.34,-106.28C542.34,-106.28 430.17,-106.28 430.17,-106.28 424.17,-106.28 418.17,-100.28 418.17,-94.28 418.17,-94.28 418.17,-81 418.17,-81 418.17,-75 424.17,-69 430.17,-69 430.17,-69 542.34,-69 542.34,-69 548.34,-69 554.34,-75 554.34,-81 554.34,-81 554.34,-94.28 554.34,-94.28 554.34,-100.28 548.34,-106.28 542.34,-106.28"/>
<text xml:space="preserve" text-anchor="start" x="431.13" y="-88.19" font-family="DejaVu Sans, Verdana, sans-serif" font-size="11.00" fill="#1a1a1a">hann_downward_ramp</text>
<text xml:space="preserve" text-anchor="start" x="462.25" y="-79.09" font-family="DejaVu Sans, Verdana, sans-serif" font-size="9.00" fill="#5d5d5d">4 s tail fade</text>
</g>
<!-- fade&#45;&gt;gain -->
<g id="edge10" class="edge">
<title>fade&#45;&gt;gain</title>
<path fill="none" stroke="#43a047" stroke-width="1.3" d="M486.14,-106.84C486.14,-106.84 486.14,-195.57 486.14,-195.57"/>
<polygon fill="#43a047" stroke="#43a047" stroke-width="1.3" points="483.69,-195.57 486.14,-202.57 488.59,-195.57 483.69,-195.57"/>
</g>
</g>
</svg>
