<?xml version="1.0" encoding="UTF-8" standalone="no"?>
<!DOCTYPE svg PUBLIC "-//W3C//DTD SVG 1.1//EN"
 "http://www.w3.org/Graphics/SVG/1.1/DTD/svg11.dtd">
<!-- Generated by graphviz version 15.0.0 (20260523.1842)
 -->
<!-- Title: grain_freeze Pages: 1 -->
<svg width="720" height="321"
 viewBox="0.00 0.00 743.00 331.00" xmlns="http://www.w3.org/2000/svg" xmlns:xlink="http://www.w3.org/1999/xlink">
<g id="graph0" class="graph" transform="scale(1 1) rotate(0) translate(12.96 317.57)">
<title>grain_freeze</title>
<!-- _in -->
<g id="node1" class="node">
<title>_in</title>
<text xml:space="preserve" text-anchor="middle" x="27" y="-219.94" font-family="DejaVu Sans, Verdana, sans-serif" font-size="11.00" fill="#1a1a1a">input</text>
</g>
<!-- buf -->
<g id="node2" class="node">
<title>buf</title>
<path fill="#e8f2fd" stroke="#1565c0" stroke-width="1.5" d="M184.21,-242.28C184.21,-242.28 124.54,-242.28 124.54,-242.28 118.54,-242.28 112.54,-236.28 112.54,-230.28 112.54,-230.28 112.54,-217 112.54,-217 112.54,-211 118.54,-205 124.54,-205 124.54,-205 184.21,-205 184.21,-205 190.21,-205 196.21,-211 196.21,-217 196.21,-217 196.21,-230.28 196.21,-230.28 196.21,-236.28 190.21,-242.28 184.21,-242.28"/>
<text xml:space="preserve" text-anchor="start" x="129.25" y="-224.19" font-family="DejaVu Sans, Verdana, sans-serif" font-size="11.00" fill="#1a1a1a">ring buffer</text>
<text xml:space="preserve" text-anchor="start" x="125.5" y="-215.09" font-family="DejaVu Sans, Verdana, sans-serif" font-size="9.00" fill="#5d5d5d">hermite reads</text>
</g>
<!-- _in&#45;&gt;buf -->
<g id="edge1" class="edge">
<title>_in&#45;&gt;buf</title>
<path fill="none" stroke="#1a1a1a" stroke-width="1.3" d="M53.7,-229.11C66.78,-231.04 78.82,-230.91 103.43,-228.74"/>
<polygon fill="#1a1a1a" stroke="#1a1a1a" stroke-width="1.3" points="103.57,-231.19 110.31,-228.1 103.12,-226.31 103.57,-231.19"/>
</g>
<!-- mix -->
<g id="node5" class="node">
<title>mix</title>
<ellipse fill="white" stroke="#1a1a1a" stroke-width="1.5" cx="608.74" cy="-223.64" rx="14.4" ry="14.4"/>
<text xml:space="preserve" text-anchor="middle" x="608.74" y="-218.96" font-family="DejaVu Sans, Verdana, sans-serif" font-size="14.00">+</text>
</g>
<!-- _in&#45;&gt;mix -->
<g id="edge6" class="edge">
<title>_in&#45;&gt;mix</title>
<path fill="none" stroke="#5d5d5d" stroke-width="1.3" stroke-dasharray="5,2" d="M53.84,-235.34C269.08,-328.91 285.84,-327.47 585.82,-231.01"/>
<polygon fill="#5d5d5d" stroke="#5d5d5d" stroke-width="1.3" points="586.53,-233.36 592.45,-228.88 585.03,-228.69 586.53,-233.36"/>
<text xml:space="preserve" text-anchor="middle" x="297.51" y="-292.19" font-family="DejaVu Sans, Verdana, sans-serif" font-size="9.00" fill="#5d5d5d">dry (passthrough)</text>
</g>
<!-- grains -->
<g id="node3" class="node">
<title>grains</title>
<path fill="#e8f2fd" stroke="#1565c0" stroke-width="1.5" d="M363.17,-242.28C363.17,-242.28 269.75,-242.28 269.75,-242.28 263.75,-242.28 257.75,-236.28 257.75,-230.28 257.75,-230.28 257.75,-217 257.75,-217 257.75,-211 263.75,-205 269.75,-205 269.75,-205 363.17,-205 363.17,-205 369.17,-205 375.17,-211 375.17,-217 375.17,-217 375.17,-230.28 375.17,-230.28 375.17,-236.28 369.17,-242.28 363.17,-242.28"/>
<text xml:space="preserve" text-anchor="start" x="279.71" y="-224.19" font-family="DejaVu Sans, Verdana, sans-serif" font-size="11.00" fill="#1a1a1a">grains ×2, OLA</text>
<text xml:space="preserve" text-anchor="start" x="270.71" y="-215.09" font-family="DejaVu Sans, Verdana, sans-serif" font-size="9.00" fill="#5d5d5d">width 4096 · hop 2048</text>
</g>
<!-- buf&#45;&gt;grains -->
<g id="edge2" class="edge">
<title>buf&#45;&gt;grains</title>
<path fill="none" stroke="#1a1a1a" stroke-width="1.3" d="M196.79,-237.27C211.29,-240.15 225.24,-239.8 248.56,-236.22"/>
<polygon fill="#1a1a1a" stroke="#1a1a1a" stroke-width="1.3" points="248.76,-238.67 255.28,-235.14 247.98,-233.83 248.76,-238.67"/>
</g>
<!-- gain -->
<g id="node4" class="node">
<title>gain</title>
<path fill="#e8f2fd" stroke="#1565c0" stroke-width="1.5" d="M526.22,-242.28C526.22,-242.28 446.3,-242.28 446.3,-242.28 440.3,-242.28 434.3,-236.28 434.3,-230.28 434.3,-230.28 434.3,-217 434.3,-217 434.3,-211 440.3,-205 446.3,-205 446.3,-205 526.22,-205 526.22,-205 532.22,-205 538.22,-211 538.22,-217 538.22,-217 538.22,-230.28 538.22,-230.28 538.22,-236.28 532.22,-242.28 526.22,-242.28"/>
<text xml:space="preserve" text-anchor="start" x="458.13" y="-224.19" font-family="DejaVu Sans, Verdana, sans-serif" font-size="11.00" fill="#1a1a1a">× 0.8 · gain</text>
<text xml:space="preserve" text-anchor="start" x="447.25" y="-215.09" font-family="DejaVu Sans, Verdana, sans-serif" font-size="9.00" fill="#5d5d5d">hann fade · last 4 s</text>
</g>
<!-- grains&#45;&gt;gain -->
<g id="edge3" class="edge">
<title>grains&#45;&gt;gain</title>
<path fill="none" stroke="#1a1a1a" stroke-width="1.3" d="M375.61,-241.63C398.45,-247.53 413.09,-248.69 429.51,-245.13"/>
<polygon fill="#1a1a1a" stroke="#1a1a1a" stroke-width="1.3" points="429.7,-247.61 435.86,-243.49 428.47,-242.87 429.7,-247.61"/>
</g>
<!-- gain&#45;&gt;mix -->
<g id="edge4" class="edge">
<title>gain&#45;&gt;mix</title>
<path fill="none" stroke="#1a1a1a" stroke-width="1.3" d="M538.71,-230.52C561.35,-233.01 572.31,-232.77 585.87,-229.8"/>
<polygon fill="#1a1a1a" stroke="#1a1a1a" stroke-width="1.3" points="586.14,-232.26 592.35,-228.2 584.97,-227.5 586.14,-232.26"/>
</g>
<!-- _out -->
<g id="node6" class="node">
<title>_out</title>
<text xml:space="preserve" text-anchor="middle" x="690.14" y="-219.94" font-family="DejaVu Sans, Verdana, sans-serif" font-size="11.00" fill="#1a1a1a">out</text>
</g>
<!-- mix&#45;&gt;_out -->
<g id="edge5" class="edge">
<title>mix&#45;&gt;_out</title>
<path fill="none" stroke="#1a1a1a" stroke-width="1.3" d="M623.65,-225.04C637.67,-226.34 647.2,-227.14 654.56,-227.46"/>
<polygon fill="#1a1a1a" stroke="#1a1a1a" stroke-width="1.3" points="654.46,-229.91 661.5,-227.55 654.53,-225.01 654.46,-229.91"/>
</g>
<!-- freeze -->
<g id="node7" class="node">
<title>freeze</title>
<path fill="#fdeaf2" stroke="#d81b60" stroke-width="1.5" d="M202.75,-106.6C202.75,-106.6 106,-106.6 106,-106.6 100,-106.6 94,-100.6 94,-94.6 94,-94.6 94,-72.68 94,-72.68 94,-66.68 100,-60.68 106,-60.68 106,-60.68 202.75,-60.68 202.75,-60.68 208.75,-60.68 214.75,-66.68 214.75,-72.68 214.75,-72.68 214.75,-94.6 214.75,-94.6 214.75,-100.6 208.75,-106.6 202.75,-106.6"/>
<text xml:space="preserve" text-anchor="start" x="119.5" y="-84.19" font-family="DejaVu Sans, Verdana, sans-serif" font-size="11.00" fill="#d81b60">freeze at 1.2 s</text>
<text xml:space="preserve" text-anchor="start" x="112" y="-75.09" font-family="DejaVu Sans, Verdana, sans-serif" font-size="9.00" fill="#5d5d5d">anchor = freeze_pos</text>
</g>
<!-- freeze&#45;&gt;grains -->
<g id="edge7" class="edge">
<title>freeze&#45;&gt;grains</title>
<path fill="none" stroke="#d81b60" stroke-width="1.3" stroke-dasharray="5,2" d="M166.11,-107.23C190.39,-154.91 202.74,-166.91 269.36,-200.44"/>
<polygon fill="#d81b60" stroke="#d81b60" stroke-width="1.3" points="268.19,-202.6 275.55,-203.54 270.39,-198.22 268.19,-202.6"/>
</g>
<!-- lfo -->
<g id="node8" class="node">
<title>lfo</title>
<path fill="white" stroke="#43a047" stroke-width="1.5" d="M366.17,-106.28C366.17,-106.28 266.75,-106.28 266.75,-106.28 260.75,-106.28 254.75,-100.28 254.75,-94.28 254.75,-94.28 254.75,-81 254.75,-81 254.75,-75 260.75,-69 266.75,-69 266.75,-69 366.17,-69 366.17,-69 372.17,-69 378.17,-75 378.17,-81 378.17,-81 378.17,-94.28 378.17,-94.28 378.17,-100.28 372.17,-106.28 366.17,-106.28"/>
<text xml:space="preserve" text-anchor="start" x="275.96" y="-88.19" font-family="DejaVu Sans, Verdana, sans-serif" font-size="11.00" fill="#1a1a1a">sin_cos_gen LFO</text>
<text xml:space="preserve" text-anchor="start" x="267.71" y="-79.09" font-family="DejaVu Sans, Verdana, sans-serif" font-size="9.00" fill="#5d5d5d">0.3 Hz · ±25 ms wander</text>
</g>
<!-- lfo&#45;&gt;grains -->
<g id="edge8" class="edge">
<title>lfo&#45;&gt;grains</title>
<path fill="none" stroke="#43a047" stroke-width="1.3" d="M311.71,-106.97C299.41,-157.41 297.4,-171.66 305.66,-196.16"/>
<polygon fill="#43a047" stroke="#43a047" stroke-width="1.3" points="303.34,-196.94 308.03,-202.68 307.94,-195.26 303.34,-196.94"/>
</g>
<!-- jitter -->
<g id="node9" class="node">
<title>jitter</title>
<path fill="white" stroke="#43a047" stroke-width="1.5" d="M353.8,-37.28C353.8,-37.28 279.13,-37.28 279.13,-37.28 273.13,-37.28 267.13,-31.28 267.13,-25.28 267.13,-25.28 267.13,-12 267.13,-12 267.13,-6 273.13,0 279.13,0 279.13,0 353.8,0 353.8,0 359.8,0 365.8,-6 365.8,-12 365.8,-12 365.8,-25.28 365.8,-25.28 365.8,-31.28 359.8,-37.28 353.8,-37.28"/>
<text xml:space="preserve" text-anchor="start" x="304.84" y="-19.19" font-family="DejaVu Sans, Verdana, sans-serif" font-size="11.00" fill="#1a1a1a">jitter</text>
<text xml:space="preserve" text-anchor="start" x="280.09" y="-10.09" font-family="DejaVu Sans, Verdana, sans-serif" font-size="9.00" fill="#5d5d5d">±5 ms per&#45;spawn</text>
</g>
<!-- jitter&#45;&gt;grains -->
<g id="edge9" class="edge">
<title>jitter&#45;&gt;grains</title>
<path fill="none" stroke="#43a047" stroke-width="1.3" d="M308.73,-38.03C279.05,-113 278.07,-125.9 305.78,-196.76"/>
<polygon fill="#43a047" stroke="#43a047" stroke-width="1.3" points="303.36,-197.29 308.2,-202.91 307.92,-195.5 303.36,-197.29"/>
</g>
<!-- fade -->
<g id="node10" class="node">
<title>fade</title>
<path fill="white" stroke="#43a047" stroke-width="1.5" d="M542.34,-106.28C542.34,-106.28 430.17,-106.28 430.17,-106.28 424.17,-106.28 418.17,-100.28 418.17,-94.28 418.17,-94.28 418.17,-81 418.17,-81 418.17,-75 424.17,-69 430.17,-69 430.17,-69 542.34,-69 542.34,-69 548.34,-69 554.34,-75 554.34,-81 554.34,-81 554.34,-94.28 554.34,-94.28 554.34,-100.28 548.34,-106.28 542.34,-106.28"/>
<text xml:space="preserve" text-anchor="start" x="431.13" y="-88.19" font-family="DejaVu Sans, Verdana, sans-serif" font-size="11.00" fill="#1a1a1a">hann_downward_ramp</text>
<text xml:space="preserve" text-anchor="start" x="462.25" y="-79.09" font-family="DejaVu Sans, Verdana, sans-serif" font-size="9.00" fill="#5d5d5d">4 s tail fade</text>
</g>
<!-- fade&#45;&gt;gain -->
<g id="edge10" class="edge">
<title>fade&#45;&gt;gain</title>
<path fill="none" stroke="#43a047" stroke-width="1.3" d="M492.95,-106.89C508.51,-152.26 510.1,-164.47 497.73,-196.26"/>
<polygon fill="#43a047" stroke="#43a047" stroke-width="1.3" points="495.57,-195.08 495.22,-202.49 500.11,-196.91 495.57,-195.08"/>
</g>
</g>
</svg>
