<?xml version="1.0" encoding="utf-8"?>
<!-- Generator: Adobe Illustrator 27.0.0, SVG Export Plug-In . SVG Version: 6.00 Build 0)  -->
<svg version="1.1" id="Layer_1" xmlns="http://www.w3.org/2000/svg" xmlns:xlink="http://www.w3.org/1999/xlink" x="0px" y="0px"
	 viewBox="0 0 372 283.5" style="enable-background:new 0 0 372 283.5;" xml:space="preserve">
<style type="text/css">
	.st0{fill:#FFFFFF;}
	.st1{fill:none;stroke:#505050;stroke-width:0.25;stroke-miterlimit:10;}
	
		.st2{clip-path:url(#SVGID_00000022524586497971051910000007923620621693028504_);fill:#505050;stroke:#505050;stroke-width:0.25;stroke-miterlimit:10;}
	.st3{fill:#505050;}
	.st4{fill:none;stroke:#1F77B4;stroke-width:1.5;stroke-linecap:square;stroke-linejoin:round;}
</style>
<g id="patch_2">
	<path class="st0" d="M8,273.8h357.1V7.7H8V273.8z"/>
</g>
<g id="line2d_16">
	<g>
		<g>
			<rect id="SVGID_1_" x="8" y="7.7" class="st1" width="357.1" height="266.1"/>
		</g>
	</g>
</g>
<g>
	<g>
		<g>
			<defs>
				<rect id="SVGID_00000178191114463929502750000005038762380630171782_" x="8" y="7.7" width="357.1" height="266.1"/>
			</defs>
			<clipPath id="SVGID_00000124152356329125735280000017568760995482575542_">
				<use xlink:href="#SVGID_00000178191114463929502750000005038762380630171782_"  style="overflow:visible;"/>
			</clipPath>
			
				<path style="clip-path:url(#SVGID_00000124152356329125735280000017568760995482575542_);fill:#505050;stroke:#505050;stroke-width:0.25;stroke-miterlimit:10;" d="
				M186.6,273.8V7.7"/>
		</g>
	</g>
</g>
<g id="patch_3">
	<path class="st3" d="M8,273.8V7.7"/>
</g>
<g id="patch_4">
	<path class="st3" d="M365.1,273.8V7.7"/>
</g>
<g id="patch_5">
	<path class="st3" d="M8,273.8h357.1"/>
</g>
<g id="patch_6">
	<path class="st3" d="M8,7.7h357.1"/>
</g>
<path class="st4" d="M8,273.8l3.6-0.3l3.6-0.8l3.6-1.3l3.6-1.9l3.6-2.4l3.6-2.9l3.6-3.4l3.6-3.9l3.6-4.3l3.6-4.8l3.6-5.2l3.6-5.6
	l3.6-6l3.6-6.4l3.6-6.7l3.6-7l3.6-7.3l3.6-7.6l3.6-7.8l3.6-8l3.6-8.1l3.6-8.3l3.6-8.4l3.6-8.4l3.6-8.4l3.6-8.4l3.6-8.4l3.6-8.3
	l3.6-8.2l3.6-8.1l3.6-7.9l3.6-7.7l3.6-7.4l3.6-7.2l3.6-6.9l3.6-6.6l3.6-6.2l3.6-5.8l3.6-5.4l3.6-5l3.6-4.6l3.6-4.1l3.6-3.6l3.6-3.1
	l3.6-2.6l3.6-2.1l3.6-1.6l3.6-1.1l3.6-0.5h3.6l3.6,0.5l3.6,1.1l3.6,1.6l3.6,2.1l3.6,2.6l3.6,3.1l3.6,3.6l3.6,4.1l3.6,4.6l3.6,5
	l3.6,5.4l3.6,5.8l3.6,6.2l3.6,6.6l3.6,6.9l3.6,7.2l3.6,7.4l3.6,7.7l3.6,7.9l3.6,8.1l3.6,8.2l3.6,8.3l3.6,8.4l3.6,8.4l3.6,8.4
	l3.6,8.4l3.6,8.4l3.6,8.3l3.6,8.1l3.6,8l3.6,7.8l3.6,7.6l3.6,7.3l3.6,7l3.6,6.7l3.6,6.4l3.6,6l3.6,5.6l3.6,5.2l3.6,4.8l3.6,4.3
	l3.6,3.9l3.6,3.4l3.6,2.9l3.6,2.4l3.6,1.9l3.6,1.3l3.6,0.8l3.6,0.3"/>
</svg>
