<svg xmlns="http://www.w3.org/2000/svg" width="720" height="270" viewBox="0 0 720 270" font-family='-apple-system, BlinkMacSystemFont, "Segoe UI", Roboto, Helvetica, Arial, sans-serif, "Apple Color Emoji", "Segoe UI Emoji", "Segoe UI Symbol"' font-size="12">

  <!-- the example -->
  <rect x="240" y="14" width="240" height="44" rx="8" fill="#e8f2fd" stroke="#1565c0" stroke-width="1.5"/>
  <text x="360" y="32" text-anchor="middle" fill="#1a1a1a">list_devices</text>
  <text x="360" y="48" text-anchor="middle" fill="#5d5d5d" font-size="10">prints id · name · ins/outs</text>

  <!-- q_io device queries -->
  <rect x="120" y="92" width="220" height="44" rx="8" fill="#e8f2fd" stroke="#1565c0" stroke-width="1.5"/>
  <text x="230" y="110" text-anchor="middle" fill="#1a1a1a">audio_device::list()</text>
  <text x="230" y="126" text-anchor="middle" fill="#5d5d5d" font-size="10">q_io</text>

  <rect x="380" y="92" width="220" height="44" rx="8" fill="#e8f2fd" stroke="#1565c0" stroke-width="1.5"/>
  <text x="490" y="110" text-anchor="middle" fill="#1a1a1a">midi_device::list()</text>
  <text x="490" y="126" text-anchor="middle" fill="#5d5d5d" font-size="10">q_io</text>

  <!-- the portable backends -->
  <rect x="120" y="166" width="220" height="40" rx="8" fill="#ffffff" stroke="#5d5d5d" stroke-width="1.2"/>
  <text x="230" y="190" text-anchor="middle" fill="#1a1a1a">portaudio</text>

  <rect x="380" y="166" width="220" height="40" rx="8" fill="#ffffff" stroke="#5d5d5d" stroke-width="1.2"/>
  <text x="490" y="190" text-anchor="middle" fill="#1a1a1a">portmidi</text>

  <!-- the OS layer -->
  <text x="230" y="244" text-anchor="middle" fill="#5d5d5d" font-size="10">CoreAudio · WASAPI · ALSA</text>
  <text x="490" y="244" text-anchor="middle" fill="#5d5d5d" font-size="10">CoreMIDI · Windows MM · ALSA seq</text>

  <!-- arrows -->
  <line x1="300" y1="58" x2="240" y2="90" stroke="#1a1a1a" stroke-width="1.4"/>
  <line x1="420" y1="58" x2="480" y2="90" stroke="#1a1a1a" stroke-width="1.4"/>
  <line x1="230" y1="136" x2="230" y2="164" stroke="#1a1a1a" stroke-width="1.4"/>
  <line x1="490" y1="136" x2="490" y2="164" stroke="#1a1a1a" stroke-width="1.4"/>
  <line x1="230" y1="206" x2="230" y2="228" stroke="#1a1a1a" stroke-width="1.4"/>
  <line x1="490" y1="206" x2="490" y2="228" stroke="#1a1a1a" stroke-width="1.4"/>

  <!-- baked arrowheads -->
  <polygon points="240.00,90.00 246.06,82.24 249.82,89.29" fill="#1a1a1a"/>
  <polygon points="480.00,90.00 470.18,89.29 473.94,82.24" fill="#1a1a1a"/>
  <polygon points="230.00,164.00 226.00,155.00 234.00,155.00" fill="#1a1a1a"/>
  <polygon points="490.00,164.00 486.00,155.00 494.00,155.00" fill="#1a1a1a"/>
  <polygon points="230.00,228.00 226.00,219.00 234.00,219.00" fill="#1a1a1a"/>
  <polygon points="490.00,228.00 486.00,219.00 494.00,219.00" fill="#1a1a1a"/>
</svg>
