<?xml version="1.0" encoding="utf-8" standalone="no"?>
<!DOCTYPE svg PUBLIC "-//W3C//DTD SVG 1.1//EN"
  "http://www.w3.org/Graphics/SVG/1.1/DTD/svg11.dtd">
<svg xmlns:xlink="http://www.w3.org/1999/xlink" width="720pt" height="288pt" viewBox="0 0 720 288" xmlns="http://www.w3.org/2000/svg" version="1.1">
 <metadata>
  <rdf:RDF xmlns:dc="http://purl.org/dc/elements/1.1/" xmlns:cc="http://creativecommons.org/ns#" xmlns:rdf="http://www.w3.org/1999/02/22-rdf-syntax-ns#">
   <cc:Work>
    <dc:type rdf:resource="http://purl.org/dc/dcmitype/StillImage"/>
    <dc:date>2026-07-21T08:51:14.805595</dc:date>
    <dc:format>image/svg+xml</dc:format>
    <dc:creator>
     <cc:Agent>
      <dc:title>Matplotlib v3.10.9, https://matplotlib.org/</dc:title>
     </cc:Agent>
    </dc:creator>
   </cc:Work>
  </rdf:RDF>
 </metadata>
 <defs>
  <style type="text/css">*{stroke-linejoin: round; stroke-linecap: butt}</style>
 </defs>
 <g id="figure_1">
  <g id="patch_1">
   <path d="M 0 288 
L 720 288 
L 720 0 
L 0 0 
z
" style="fill: #ffffff"/>
  </g>
  <g id="axes_1">
   <g id="patch_2">
    <path d="M 41.92 246.04 
L 709.2 246.04 
L 709.2 14.76 
L 41.92 14.76 
z
" style="fill: #ffffff"/>
   </g>
   <g id="line2d_1">
    <path d="M 41.92 130.4 
L 709.2 130.4 
" clip-path="url(#p532c345636)" style="fill: none; stroke: #5d5d5d; stroke-width: 0.8; stroke-linecap: square"/>
   </g>
   <g id="matplotlib.axis_1">
    <g id="xtick_1">
     <g id="line2d_2">
      <defs>
       <path id="m04c39baf07" d="M 0 0 
L 0 3.5 
" style="stroke: #000000; stroke-width: 0.8"/>
      </defs>
      <g>
       <use xlink:href="#m04c39baf07" x="41.92" y="246.04" style="stroke: #000000; stroke-width: 0.8"/>
      </g>
     </g>
     <g id="text_1">
      <!-- 0 -->
      <g transform="translate(38.73875 260.638438) scale(0.1 -0.1)">
       <defs>
        <path id="DejaVuSans-30" d="M 2034 4250 
Q 1547 4250 1301 3770 
Q 1056 3291 1056 2328 
Q 1056 1369 1301 889 
Q 1547 409 2034 409 
Q 2525 409 2770 889 
Q 3016 1369 3016 2328 
Q 3016 3291 2770 3770 
Q 2525 4250 2034 4250 
z
M 2034 4750 
Q 2819 4750 3233 4129 
Q 3647 3509 3647 2328 
Q 3647 1150 3233 529 
Q 2819 -91 2034 -91 
Q 1250 -91 836 529 
Q 422 1150 422 2328 
Q 422 3509 836 4129 
Q 1250 4750 2034 4750 
z
" transform="scale(0.015625)"/>
       </defs>
       <use xlink:href="#DejaVuSans-30"/>
      </g>
     </g>
    </g>
    <g id="xtick_2">
     <g id="line2d_3">
      <g>
       <use xlink:href="#m04c39baf07" x="182.696371" y="246.04" style="stroke: #000000; stroke-width: 0.8"/>
      </g>
     </g>
     <g id="text_2">
      <!-- 200 -->
      <g transform="translate(173.152621 260.638438) scale(0.1 -0.1)">
       <defs>
        <path id="DejaVuSans-32" d="M 1228 531 
L 3431 531 
L 3431 0 
L 469 0 
L 469 531 
Q 828 903 1448 1529 
Q 2069 2156 2228 2338 
Q 2531 2678 2651 2914 
Q 2772 3150 2772 3378 
Q 2772 3750 2511 3984 
Q 2250 4219 1831 4219 
Q 1534 4219 1204 4116 
Q 875 4013 500 3803 
L 500 4441 
Q 881 4594 1212 4672 
Q 1544 4750 1819 4750 
Q 2544 4750 2975 4387 
Q 3406 4025 3406 3419 
Q 3406 3131 3298 2873 
Q 3191 2616 2906 2266 
Q 2828 2175 2409 1742 
Q 1991 1309 1228 531 
z
" transform="scale(0.015625)"/>
       </defs>
       <use xlink:href="#DejaVuSans-32"/>
       <use xlink:href="#DejaVuSans-30" transform="translate(63.623047 0)"/>
       <use xlink:href="#DejaVuSans-30" transform="translate(127.246094 0)"/>
      </g>
     </g>
    </g>
    <g id="xtick_3">
     <g id="line2d_4">
      <g>
       <use xlink:href="#m04c39baf07" x="323.472743" y="246.04" style="stroke: #000000; stroke-width: 0.8"/>
      </g>
     </g>
     <g id="text_3">
      <!-- 400 -->
      <g transform="translate(313.928993 260.638438) scale(0.1 -0.1)">
       <defs>
        <path id="DejaVuSans-34" d="M 2419 4116 
L 825 1625 
L 2419 1625 
L 2419 4116 
z
M 2253 4666 
L 3047 4666 
L 3047 1625 
L 3713 1625 
L 3713 1100 
L 3047 1100 
L 3047 0 
L 2419 0 
L 2419 1100 
L 313 1100 
L 313 1709 
L 2253 4666 
z
" transform="scale(0.015625)"/>
       </defs>
       <use xlink:href="#DejaVuSans-34"/>
       <use xlink:href="#DejaVuSans-30" transform="translate(63.623047 0)"/>
       <use xlink:href="#DejaVuSans-30" transform="translate(127.246094 0)"/>
      </g>
     </g>
    </g>
    <g id="xtick_4">
     <g id="line2d_5">
      <g>
       <use xlink:href="#m04c39baf07" x="464.249114" y="246.04" style="stroke: #000000; stroke-width: 0.8"/>
      </g>
     </g>
     <g id="text_4">
      <!-- 600 -->
      <g transform="translate(454.705364 260.638438) scale(0.1 -0.1)">
       <defs>
        <path id="DejaVuSans-36" d="M 2113 2584 
Q 1688 2584 1439 2293 
Q 1191 2003 1191 1497 
Q 1191 994 1439 701 
Q 1688 409 2113 409 
Q 2538 409 2786 701 
Q 3034 994 3034 1497 
Q 3034 2003 2786 2293 
Q 2538 2584 2113 2584 
z
M 3366 4563 
L 3366 3988 
Q 3128 4100 2886 4159 
Q 2644 4219 2406 4219 
Q 1781 4219 1451 3797 
Q 1122 3375 1075 2522 
Q 1259 2794 1537 2939 
Q 1816 3084 2150 3084 
Q 2853 3084 3261 2657 
Q 3669 2231 3669 1497 
Q 3669 778 3244 343 
Q 2819 -91 2113 -91 
Q 1303 -91 875 529 
Q 447 1150 447 2328 
Q 447 3434 972 4092 
Q 1497 4750 2381 4750 
Q 2619 4750 2861 4703 
Q 3103 4656 3366 4563 
z
" transform="scale(0.015625)"/>
       </defs>
       <use xlink:href="#DejaVuSans-36"/>
       <use xlink:href="#DejaVuSans-30" transform="translate(63.623047 0)"/>
       <use xlink:href="#DejaVuSans-30" transform="translate(127.246094 0)"/>
      </g>
     </g>
    </g>
    <g id="xtick_5">
     <g id="line2d_6">
      <g>
       <use xlink:href="#m04c39baf07" x="605.025485" y="246.04" style="stroke: #000000; stroke-width: 0.8"/>
      </g>
     </g>
     <g id="text_5">
      <!-- 800 -->
      <g transform="translate(595.481735 260.638438) scale(0.1 -0.1)">
       <defs>
        <path id="DejaVuSans-38" d="M 2034 2216 
Q 1584 2216 1326 1975 
Q 1069 1734 1069 1313 
Q 1069 891 1326 650 
Q 1584 409 2034 409 
Q 2484 409 2743 651 
Q 3003 894 3003 1313 
Q 3003 1734 2745 1975 
Q 2488 2216 2034 2216 
z
M 1403 2484 
Q 997 2584 770 2862 
Q 544 3141 544 3541 
Q 544 4100 942 4425 
Q 1341 4750 2034 4750 
Q 2731 4750 3128 4425 
Q 3525 4100 3525 3541 
Q 3525 3141 3298 2862 
Q 3072 2584 2669 2484 
Q 3125 2378 3379 2068 
Q 3634 1759 3634 1313 
Q 3634 634 3220 271 
Q 2806 -91 2034 -91 
Q 1263 -91 848 271 
Q 434 634 434 1313 
Q 434 1759 690 2068 
Q 947 2378 1403 2484 
z
M 1172 3481 
Q 1172 3119 1398 2916 
Q 1625 2713 2034 2713 
Q 2441 2713 2670 2916 
Q 2900 3119 2900 3481 
Q 2900 3844 2670 4047 
Q 2441 4250 2034 4250 
Q 1625 4250 1398 4047 
Q 1172 3844 1172 3481 
z
" transform="scale(0.015625)"/>
       </defs>
       <use xlink:href="#DejaVuSans-38"/>
       <use xlink:href="#DejaVuSans-30" transform="translate(63.623047 0)"/>
       <use xlink:href="#DejaVuSans-30" transform="translate(127.246094 0)"/>
      </g>
     </g>
    </g>
    <g id="text_6">
     <!-- Time (samples) -->
     <g transform="translate(337.052188 274.316562) scale(0.1 -0.1)">
      <defs>
       <path id="DejaVuSans-54" d="M -19 4666 
L 3928 4666 
L 3928 4134 
L 2272 4134 
L 2272 0 
L 1638 0 
L 1638 4134 
L -19 4134 
L -19 4666 
z
" transform="scale(0.015625)"/>
       <path id="DejaVuSans-69" d="M 603 3500 
L 1178 3500 
L 1178 0 
L 603 0 
L 603 3500 
z
M 603 4863 
L 1178 4863 
L 1178 4134 
L 603 4134 
L 603 4863 
z
" transform="scale(0.015625)"/>
       <path id="DejaVuSans-6d" d="M 3328 2828 
Q 3544 3216 3844 3400 
Q 4144 3584 4550 3584 
Q 5097 3584 5394 3201 
Q 5691 2819 5691 2113 
L 5691 0 
L 5113 0 
L 5113 2094 
Q 5113 2597 4934 2840 
Q 4756 3084 4391 3084 
Q 3944 3084 3684 2787 
Q 3425 2491 3425 1978 
L 3425 0 
L 2847 0 
L 2847 2094 
Q 2847 2600 2669 2842 
Q 2491 3084 2119 3084 
Q 1678 3084 1418 2786 
Q 1159 2488 1159 1978 
L 1159 0 
L 581 0 
L 581 3500 
L 1159 3500 
L 1159 2956 
Q 1356 3278 1631 3431 
Q 1906 3584 2284 3584 
Q 2666 3584 2933 3390 
Q 3200 3197 3328 2828 
z
" transform="scale(0.015625)"/>
       <path id="DejaVuSans-65" d="M 3597 1894 
L 3597 1613 
L 953 1613 
Q 991 1019 1311 708 
Q 1631 397 2203 397 
Q 2534 397 2845 478 
Q 3156 559 3463 722 
L 3463 178 
Q 3153 47 2828 -22 
Q 2503 -91 2169 -91 
Q 1331 -91 842 396 
Q 353 884 353 1716 
Q 353 2575 817 3079 
Q 1281 3584 2069 3584 
Q 2775 3584 3186 3129 
Q 3597 2675 3597 1894 
z
M 3022 2063 
Q 3016 2534 2758 2815 
Q 2500 3097 2075 3097 
Q 1594 3097 1305 2825 
Q 1016 2553 972 2059 
L 3022 2063 
z
" transform="scale(0.015625)"/>
       <path id="DejaVuSans-20" transform="scale(0.015625)"/>
       <path id="DejaVuSans-28" d="M 1984 4856 
Q 1566 4138 1362 3434 
Q 1159 2731 1159 2009 
Q 1159 1288 1364 580 
Q 1569 -128 1984 -844 
L 1484 -844 
Q 1016 -109 783 600 
Q 550 1309 550 2009 
Q 550 2706 781 3412 
Q 1013 4119 1484 4856 
L 1984 4856 
z
" transform="scale(0.015625)"/>
       <path id="DejaVuSans-73" d="M 2834 3397 
L 2834 2853 
Q 2591 2978 2328 3040 
Q 2066 3103 1784 3103 
Q 1356 3103 1142 2972 
Q 928 2841 928 2578 
Q 928 2378 1081 2264 
Q 1234 2150 1697 2047 
L 1894 2003 
Q 2506 1872 2764 1633 
Q 3022 1394 3022 966 
Q 3022 478 2636 193 
Q 2250 -91 1575 -91 
Q 1294 -91 989 -36 
Q 684 19 347 128 
L 347 722 
Q 666 556 975 473 
Q 1284 391 1588 391 
Q 1994 391 2212 530 
Q 2431 669 2431 922 
Q 2431 1156 2273 1281 
Q 2116 1406 1581 1522 
L 1381 1569 
Q 847 1681 609 1914 
Q 372 2147 372 2553 
Q 372 3047 722 3315 
Q 1072 3584 1716 3584 
Q 2034 3584 2315 3537 
Q 2597 3491 2834 3397 
z
" transform="scale(0.015625)"/>
       <path id="DejaVuSans-61" d="M 2194 1759 
Q 1497 1759 1228 1600 
Q 959 1441 959 1056 
Q 959 750 1161 570 
Q 1363 391 1709 391 
Q 2188 391 2477 730 
Q 2766 1069 2766 1631 
L 2766 1759 
L 2194 1759 
z
M 3341 1997 
L 3341 0 
L 2766 0 
L 2766 531 
Q 2569 213 2275 61 
Q 1981 -91 1556 -91 
Q 1019 -91 701 211 
Q 384 513 384 1019 
Q 384 1609 779 1909 
Q 1175 2209 1959 2209 
L 2766 2209 
L 2766 2266 
Q 2766 2663 2505 2880 
Q 2244 3097 1772 3097 
Q 1472 3097 1187 3025 
Q 903 2953 641 2809 
L 641 3341 
Q 956 3463 1253 3523 
Q 1550 3584 1831 3584 
Q 2591 3584 2966 3190 
Q 3341 2797 3341 1997 
z
" transform="scale(0.015625)"/>
       <path id="DejaVuSans-70" d="M 1159 525 
L 1159 -1331 
L 581 -1331 
L 581 3500 
L 1159 3500 
L 1159 2969 
Q 1341 3281 1617 3432 
Q 1894 3584 2278 3584 
Q 2916 3584 3314 3078 
Q 3713 2572 3713 1747 
Q 3713 922 3314 415 
Q 2916 -91 2278 -91 
Q 1894 -91 1617 61 
Q 1341 213 1159 525 
z
M 3116 1747 
Q 3116 2381 2855 2742 
Q 2594 3103 2138 3103 
Q 1681 3103 1420 2742 
Q 1159 2381 1159 1747 
Q 1159 1113 1420 752 
Q 1681 391 2138 391 
Q 2594 391 2855 752 
Q 3116 1113 3116 1747 
z
" transform="scale(0.015625)"/>
       <path id="DejaVuSans-6c" d="M 603 4863 
L 1178 4863 
L 1178 0 
L 603 0 
L 603 4863 
z
" transform="scale(0.015625)"/>
       <path id="DejaVuSans-29" d="M 513 4856 
L 1013 4856 
Q 1481 4119 1714 3412 
Q 1947 2706 1947 2009 
Q 1947 1309 1714 600 
Q 1481 -109 1013 -844 
L 513 -844 
Q 928 -128 1133 580 
Q 1338 1288 1338 2009 
Q 1338 2731 1133 3434 
Q 928 4138 513 4856 
z
" transform="scale(0.015625)"/>
      </defs>
      <use xlink:href="#DejaVuSans-54"/>
      <use xlink:href="#DejaVuSans-69" transform="translate(57.958984 0)"/>
      <use xlink:href="#DejaVuSans-6d" transform="translate(85.742188 0)"/>
      <use xlink:href="#DejaVuSans-65" transform="translate(183.154297 0)"/>
      <use xlink:href="#DejaVuSans-20" transform="translate(244.677734 0)"/>
      <use xlink:href="#DejaVuSans-28" transform="translate(276.464844 0)"/>
      <use xlink:href="#DejaVuSans-73" transform="translate(315.478516 0)"/>
      <use xlink:href="#DejaVuSans-61" transform="translate(367.578125 0)"/>
      <use xlink:href="#DejaVuSans-6d" transform="translate(428.857422 0)"/>
      <use xlink:href="#DejaVuSans-70" transform="translate(526.269531 0)"/>
      <use xlink:href="#DejaVuSans-6c" transform="translate(589.746094 0)"/>
      <use xlink:href="#DejaVuSans-65" transform="translate(617.529297 0)"/>
      <use xlink:href="#DejaVuSans-73" transform="translate(679.052734 0)"/>
      <use xlink:href="#DejaVuSans-29" transform="translate(731.152344 0)"/>
     </g>
    </g>
   </g>
   <g id="matplotlib.axis_2">
    <g id="ytick_1">
     <g id="line2d_7">
      <defs>
       <path id="me337f262cb" d="M 0 0 
L -3.5 0 
" style="stroke: #000000; stroke-width: 0.8"/>
      </defs>
      <g>
       <use xlink:href="#me337f262cb" x="41.92" y="246.04" style="stroke: #000000; stroke-width: 0.8"/>
      </g>
     </g>
     <g id="text_7">
      <!-- −0.5 -->
      <g transform="translate(10.637188 249.839219) scale(0.1 -0.1)">
       <defs>
        <path id="DejaVuSans-2212" d="M 678 2272 
L 4684 2272 
L 4684 1741 
L 678 1741 
L 678 2272 
z
" transform="scale(0.015625)"/>
        <path id="DejaVuSans-2e" d="M 684 794 
L 1344 794 
L 1344 0 
L 684 0 
L 684 794 
z
" transform="scale(0.015625)"/>
        <path id="DejaVuSans-35" d="M 691 4666 
L 3169 4666 
L 3169 4134 
L 1269 4134 
L 1269 2991 
Q 1406 3038 1543 3061 
Q 1681 3084 1819 3084 
Q 2600 3084 3056 2656 
Q 3513 2228 3513 1497 
Q 3513 744 3044 326 
Q 2575 -91 1722 -91 
Q 1428 -91 1123 -41 
Q 819 9 494 109 
L 494 744 
Q 775 591 1075 516 
Q 1375 441 1709 441 
Q 2250 441 2565 725 
Q 2881 1009 2881 1497 
Q 2881 1984 2565 2268 
Q 2250 2553 1709 2553 
Q 1456 2553 1204 2497 
Q 953 2441 691 2322 
L 691 4666 
z
" transform="scale(0.015625)"/>
       </defs>
       <use xlink:href="#DejaVuSans-2212"/>
       <use xlink:href="#DejaVuSans-30" transform="translate(83.789062 0)"/>
       <use xlink:href="#DejaVuSans-2e" transform="translate(147.412109 0)"/>
       <use xlink:href="#DejaVuSans-35" transform="translate(179.199219 0)"/>
      </g>
     </g>
    </g>
    <g id="ytick_2">
     <g id="line2d_8">
      <g>
       <use xlink:href="#me337f262cb" x="41.92" y="130.4" style="stroke: #000000; stroke-width: 0.8"/>
      </g>
     </g>
     <g id="text_8">
      <!-- 0.0 -->
      <g transform="translate(19.016875 134.199219) scale(0.1 -0.1)">
       <use xlink:href="#DejaVuSans-30"/>
       <use xlink:href="#DejaVuSans-2e" transform="translate(63.623047 0)"/>
       <use xlink:href="#DejaVuSans-30" transform="translate(95.410156 0)"/>
      </g>
     </g>
    </g>
    <g id="ytick_3">
     <g id="line2d_9">
      <g>
       <use xlink:href="#me337f262cb" x="41.92" y="14.76" style="stroke: #000000; stroke-width: 0.8"/>
      </g>
     </g>
     <g id="text_9">
      <!-- 0.5 -->
      <g transform="translate(19.016875 18.559219) scale(0.1 -0.1)">
       <use xlink:href="#DejaVuSans-30"/>
       <use xlink:href="#DejaVuSans-2e" transform="translate(63.623047 0)"/>
       <use xlink:href="#DejaVuSans-35" transform="translate(95.410156 0)"/>
      </g>
     </g>
    </g>
   </g>
   <g id="line2d_10">
    <path d="M 41.92 130.4 
L 96.118903 130.4 
L 98.93443 121.047268 
L 100.342194 117.155057 
L 101.749958 114.204387 
L 102.45384 113.135642 
L 103.157722 112.380281 
L 103.861603 111.967447 
L 104.565485 111.920959 
L 105.269367 112.253077 
L 105.973249 112.965188 
L 106.677131 114.04596 
L 107.381013 115.478508 
L 108.084895 117.241324 
L 109.492658 121.659466 
L 110.900422 127.068643 
L 113.715949 139.433334 
L 116.531477 151.698113 
L 118.643122 159.846107 
L 120.050886 164.517038 
L 121.45865 168.578083 
L 122.866414 172.044508 
L 124.274177 174.918625 
L 125.681941 177.183087 
L 127.089705 178.852004 
L 128.497468 179.963535 
L 129.20135 180.318781 
L 129.905232 180.545436 
L 130.609114 180.648587 
L 132.016878 180.518839 
L 133.424641 179.967698 
L 134.832405 179.054605 
L 136.240169 177.817488 
L 137.647932 176.231139 
L 139.055696 174.302726 
L 140.46346 172.080588 
L 141.871224 169.56935 
L 143.982869 165.273555 
L 148.910042 154.625424 
L 151.021688 150.589125 
L 152.429451 148.227988 
L 153.837215 146.19203 
L 155.244979 144.49004 
L 156.652743 143.134508 
L 158.060506 142.149487 
L 158.764388 141.815518 
L 159.46827 141.605053 
L 160.172152 141.527112 
L 160.876034 141.582388 
L 161.579916 141.771344 
L 162.283797 142.110169 
L 162.987679 142.613434 
L 163.691561 143.295479 
L 164.395443 144.16833 
L 165.803207 146.499632 
L 167.21097 149.520611 
L 170.026498 156.12088 
L 171.434262 158.685081 
L 172.138143 159.602338 
L 172.842025 160.241596 
L 173.545907 160.591291 
L 174.249789 160.649574 
L 174.953671 160.425001 
L 175.657553 159.872936 
L 176.361435 158.916824 
L 177.065316 157.480806 
L 177.769198 155.490873 
L 178.47308 152.878103 
L 179.176962 149.585601 
L 179.880844 145.577287 
L 181.288608 135.384778 
L 182.696371 122.575798 
L 187.623544 72.987284 
L 189.031308 62.121056 
L 190.439072 53.699457 
L 191.142954 50.399554 
L 191.846835 47.675076 
L 192.550717 45.489942 
L 193.254599 43.802292 
L 193.958481 42.563325 
L 194.662363 41.721466 
L 195.366245 41.228146 
L 196.070127 41.039884 
L 196.774008 41.115744 
L 197.47789 41.434448 
L 198.181772 42.029068 
L 198.885654 42.927591 
L 199.589536 44.153375 
L 200.293418 45.72446 
L 200.9973 47.648941 
L 202.405063 52.551152 
L 203.812827 58.76287 
L 205.220591 66.090283 
L 207.332236 78.484116 
L 211.555527 103.997306 
L 213.667173 115.507881 
L 215.778819 125.621061 
L 217.186582 131.503437 
L 218.594346 136.69336 
L 220.00211 141.168397 
L 221.409873 144.913976 
L 222.817637 147.990463 
L 224.225401 150.498001 
L 225.633165 152.515456 
L 227.040928 154.092092 
L 228.448692 155.278558 
L 229.856456 156.131519 
L 231.264219 156.67734 
L 232.671983 156.924578 
L 234.079747 156.893355 
L 235.487511 156.611194 
L 236.895274 156.09914 
L 238.303038 155.38541 
L 240.414684 154.024096 
L 246.74962 149.5294 
L 248.157384 148.756925 
L 249.565148 148.192139 
L 250.972911 147.894944 
L 252.380675 147.912753 
L 253.788439 148.301766 
L 254.492321 148.665569 
L 255.196203 149.160046 
L 256.603966 150.57733 
L 258.01173 152.576745 
L 259.419494 155.077807 
L 263.642785 163.226958 
L 265.050549 165.126923 
L 265.75443 165.774507 
L 266.458312 166.196362 
L 267.162194 166.385318 
L 267.866076 166.342994 
L 268.569958 166.070314 
L 269.27384 165.518712 
L 269.977722 164.638922 
L 270.681603 163.378446 
L 271.385485 161.685477 
L 272.089367 159.511214 
L 272.793249 156.815183 
L 273.497131 153.571249 
L 274.904895 145.439907 
L 276.312658 135.381077 
L 279.128186 112.278056 
L 281.239831 95.668682 
L 282.647595 86.22737 
L 284.055359 78.489204 
L 285.463122 72.506684 
L 286.167004 70.143696 
L 286.870886 68.172497 
L 287.574768 66.56857 
L 288.27865 65.306013 
L 288.982532 64.357765 
L 289.686414 63.696304 
L 290.390295 63.294571 
L 291.094177 63.12643 
L 291.798059 63.166904 
L 292.501941 63.39934 
L 293.205823 63.843167 
L 293.909705 64.515729 
L 294.613586 65.430904 
L 295.317468 66.598405 
L 296.02135 68.023321 
L 297.429114 71.637071 
L 298.836878 76.206933 
L 300.244641 81.590438 
L 302.356287 90.783124 
L 308.691224 119.879535 
L 310.802869 128.268292 
L 312.210633 133.179986 
L 313.618397 137.531288 
L 315.02616 141.330062 
L 316.433924 144.582321 
L 317.841688 147.334553 
L 319.249451 149.612198 
L 320.657215 151.43931 
L 322.064979 152.860988 
L 323.472743 153.907068 
L 324.880506 154.614785 
L 326.28827 155.026694 
L 327.696034 155.180727 
L 329.103797 155.108799 
L 330.511561 154.825712 
L 331.919325 154.353438 
L 334.03097 153.360322 
L 336.846498 151.696725 
L 340.365907 149.552759 
L 342.477553 148.58069 
L 343.885316 148.187976 
L 345.29308 148.067248 
L 346.700844 148.265455 
L 348.108608 148.840648 
L 349.516371 149.834227 
L 350.924135 151.248967 
L 352.331899 153.030748 
L 357.259072 159.815347 
L 358.666835 161.042056 
L 359.370717 161.425287 
L 360.074599 161.638527 
L 360.778481 161.675532 
L 361.482363 161.534914 
L 362.186245 161.193544 
L 362.890127 160.614188 
L 363.594008 159.761921 
L 364.29789 158.602514 
L 365.001772 157.103589 
L 365.705654 155.238084 
L 366.409536 152.984492 
L 367.8173 147.280433 
L 369.225063 140.059872 
L 370.632827 131.615145 
L 376.263882 96.061396 
L 377.671646 89.082984 
L 379.079409 83.356029 
L 380.487173 78.891631 
L 381.894937 75.630352 
L 382.598819 74.416594 
L 383.3027 73.458864 
L 384.006582 72.740971 
L 384.710464 72.2458 
L 385.414346 71.955775 
L 386.118228 71.853781 
L 386.82211 71.922702 
L 387.525992 72.156989 
L 388.229873 72.571674 
L 388.933755 73.176471 
L 389.637637 73.979938 
L 390.341519 74.986931 
L 391.749283 77.615197 
L 393.157046 81.045311 
L 394.56481 85.203262 
L 395.972574 89.969018 
L 398.084219 97.927825 
L 403.715274 119.955858 
L 405.82692 127.233777 
L 407.938565 133.594902 
L 409.346329 137.299314 
L 410.754093 140.575395 
L 412.161857 143.430084 
L 413.56962 145.865 
L 414.977384 147.900726 
L 416.385148 149.557848 
L 417.792911 150.859491 
L 419.200675 151.827861 
L 420.608439 152.487934 
L 422.016203 152.877872 
L 423.423966 153.037918 
L 424.83173 153.002301 
L 426.239494 152.795305 
L 428.351139 152.20716 
L 431.166667 151.065562 
L 434.686076 149.599709 
L 436.09384 149.18965 
L 437.501603 148.966002 
L 438.909367 148.971321 
L 440.317131 149.237525 
L 441.724895 149.804623 
L 443.132658 150.692507 
L 444.540422 151.879667 
L 446.652068 154.079603 
L 449.467595 157.165572 
L 450.875359 158.420266 
L 452.283122 159.275539 
L 452.987004 159.516302 
L 453.690886 159.619221 
L 454.394768 159.577822 
L 455.09865 159.386785 
L 455.802532 159.020437 
L 456.506414 158.45542 
L 457.210295 157.666062 
L 457.914177 156.629234 
L 458.618059 155.322964 
L 459.321941 153.727826 
L 460.729705 149.630238 
L 462.137468 144.322131 
L 463.545232 137.929783 
L 465.656878 126.922705 
L 469.176287 107.992206 
L 470.584051 101.257332 
L 471.991814 95.349285 
L 473.399578 90.382778 
L 474.807342 86.399211 
L 476.215105 83.37615 
L 477.622869 81.251612 
L 478.326751 80.49949 
L 479.030633 79.938404 
L 479.734515 79.555867 
L 480.438397 79.339389 
L 481.142278 79.276712 
L 481.84616 79.355348 
L 482.550042 79.57437 
L 483.253924 79.943261 
L 483.957806 80.469655 
L 484.661688 81.1591 
L 486.069451 83.040101 
L 487.477215 85.588806 
L 488.884979 88.767056 
L 490.292743 92.500146 
L 492.404388 98.902902 
L 495.923797 110.622553 
L 499.443207 122.051023 
L 501.554852 128.224349 
L 503.666498 133.682788 
L 505.778143 138.341461 
L 507.185907 140.984992 
L 508.593671 143.259168 
L 510.001435 145.171854 
L 511.409198 146.742245 
L 512.816962 147.987919 
L 514.224726 148.93316 
L 515.632489 149.610117 
L 517.040253 150.047467 
L 518.448017 150.275741 
L 519.855781 150.326622 
L 521.967426 150.139517 
L 524.079072 149.712574 
L 529.006245 148.600117 
L 531.11789 148.471525 
L 532.525654 148.598498 
L 533.933418 148.935242 
L 535.341181 149.505116 
L 536.748945 150.3028 
L 538.860591 151.868566 
L 543.083882 155.383791 
L 544.491646 156.263811 
L 545.899409 156.811945 
L 547.307173 156.945625 
L 548.011055 156.841317 
L 548.714937 156.606106 
L 549.418819 156.221718 
L 550.1227 155.670347 
L 550.826582 154.934645 
L 551.530464 153.997961 
L 552.234346 152.846649 
L 553.64211 149.856661 
L 555.049873 145.921663 
L 556.457637 141.080742 
L 557.865401 135.458787 
L 559.977046 126.036903 
L 563.496456 110.017294 
L 565.608101 101.604484 
L 567.015865 96.858387 
L 568.423629 92.886847 
L 569.831392 89.719236 
L 571.239156 87.337746 
L 572.64692 85.6871 
L 573.350802 85.119539 
L 574.054684 84.711792 
L 574.758565 84.45299 
L 575.462447 84.332493 
L 576.166329 84.341744 
L 576.870211 84.475424 
L 577.574093 84.743478 
L 578.277975 85.153768 
L 578.981857 85.709766 
L 580.38962 87.268824 
L 581.797384 89.43083 
L 583.205148 92.159934 
L 584.612911 95.384671 
L 586.724557 100.945567 
L 589.540084 109.174278 
L 594.467257 123.715545 
L 596.578903 129.309515 
L 598.690549 134.277872 
L 600.802194 138.529492 
L 602.209958 140.942668 
L 603.617722 143.023725 
L 605.025485 144.774977 
L 606.433249 146.211457 
L 607.841013 147.356062 
L 609.248776 148.235388 
L 610.65654 148.876728 
L 612.064304 149.310147 
L 613.472068 149.56548 
L 615.583713 149.676725 
L 617.695359 149.557616 
L 623.326414 149.049032 
L 625.438059 149.165597 
L 626.845823 149.428099 
L 628.253586 149.86013 
L 629.66135 150.46354 
L 631.772996 151.644456 
L 637.404051 155.17402 
L 638.811814 155.693012 
L 640.219578 155.899776 
L 641.627342 155.735105 
L 642.331224 155.489717 
L 643.035105 155.117356 
L 643.738987 154.604146 
L 644.442869 153.937134 
L 645.146751 153.103832 
L 646.554515 150.899503 
L 647.962278 147.934493 
L 649.370042 144.204409 
L 650.777806 139.764758 
L 652.889451 132.050877 
L 659.224388 107.506287 
L 660.632152 102.994245 
L 662.039916 99.093939 
L 663.447679 95.844918 
L 664.855443 93.253888 
L 666.263207 91.309054 
L 667.67097 89.97665 
L 668.374852 89.526117 
L 669.078734 89.21042 
L 669.782616 89.021464 
L 670.486498 88.953005 
L 671.894262 89.152137 
L 672.598143 89.423197 
L 674.005907 90.327733 
L 675.413671 91.726977 
L 676.821435 93.616535 
L 678.229198 95.973509 
L 679.636962 98.748638 
L 681.748608 103.5588 
L 684.564135 110.75207 
L 689.491308 123.628815 
L 691.602954 128.64736 
L 693.714599 133.120315 
L 695.826245 136.975059 
L 697.234008 139.182395 
L 698.641772 141.101326 
L 700.049536 142.735319 
L 701.4573 144.09062 
L 702.865063 145.186193 
L 704.272827 146.043548 
L 705.680591 146.680724 
L 707.088354 147.123163 
L 709.2 147.496911 
L 709.2 147.496911 
" clip-path="url(#p532c345636)" style="fill: none; stroke: #1565c0; stroke-width: 1.5; stroke-linecap: square"/>
   </g>
   <g id="patch_3">
    <path d="M 41.92 246.04 
L 709.2 246.04 
" style="fill: none; stroke: #b0b0b0; stroke-width: 0.8; stroke-linejoin: miter; stroke-linecap: square"/>
   </g>
   <g id="line2d_11">
    <defs>
     <path id="m01755fbfe1" d="M 0 3 
C 0.795609 3 1.55874 2.683901 2.12132 2.12132 
C 2.683901 1.55874 3 0.795609 3 0 
C 3 -0.795609 2.683901 -1.55874 2.12132 -2.12132 
C 1.55874 -2.683901 0.795609 -3 0 -3 
C -0.795609 -3 -1.55874 -2.683901 -2.12132 -2.12132 
C -2.683901 -1.55874 -3 -0.795609 -3 0 
C -3 0.795609 -2.683901 1.55874 -2.12132 2.12132 
C -1.55874 2.683901 -0.795609 3 0 3 
z
" style="stroke: #9e9e9e; stroke-width: 1.3"/>
    </defs>
    <g clip-path="url(#p532c345636)">
     <use xlink:href="#m01755fbfe1" x="104.565485" y="111.920959" style="fill-opacity: 0; stroke: #9e9e9e; stroke-width: 1.3"/>
     <use xlink:href="#m01755fbfe1" x="160.172152" y="141.527112" style="fill-opacity: 0; stroke: #9e9e9e; stroke-width: 1.3"/>
     <use xlink:href="#m01755fbfe1" x="196.070127" y="41.039884" style="fill-opacity: 0; stroke: #9e9e9e; stroke-width: 1.3"/>
     <use xlink:href="#m01755fbfe1" x="251.676793" y="147.862334" style="fill-opacity: 0; stroke: #9e9e9e; stroke-width: 1.3"/>
     <use xlink:href="#m01755fbfe1" x="291.094177" y="63.12643" style="fill-opacity: 0; stroke: #9e9e9e; stroke-width: 1.3"/>
     <use xlink:href="#m01755fbfe1" x="345.29308" y="148.067248" style="fill-opacity: 0; stroke: #9e9e9e; stroke-width: 1.3"/>
     <use xlink:href="#m01755fbfe1" x="386.118228" y="71.853781" style="fill-opacity: 0; stroke: #9e9e9e; stroke-width: 1.3"/>
     <use xlink:href="#m01755fbfe1" x="438.205485" y="148.938017" style="fill-opacity: 0; stroke: #9e9e9e; stroke-width: 1.3"/>
     <use xlink:href="#m01755fbfe1" x="481.142278" y="79.276712" style="fill-opacity: 0; stroke: #9e9e9e; stroke-width: 1.3"/>
     <use xlink:href="#m01755fbfe1" x="531.11789" y="148.471525" style="fill-opacity: 0; stroke: #9e9e9e; stroke-width: 1.3"/>
     <use xlink:href="#m01755fbfe1" x="575.462447" y="84.332493" style="fill-opacity: 0; stroke: #9e9e9e; stroke-width: 1.3"/>
     <use xlink:href="#m01755fbfe1" x="623.326414" y="149.049032" style="fill-opacity: 0; stroke: #9e9e9e; stroke-width: 1.3"/>
     <use xlink:href="#m01755fbfe1" x="670.486498" y="88.953005" style="fill-opacity: 0; stroke: #9e9e9e; stroke-width: 1.3"/>
    </g>
   </g>
   <g id="LineCollection_1">
    <path d="M 104.565485 130.4 
L 104.565485 111.920959 
" clip-path="url(#p532c345636)" style="fill: none; stroke: #d81b60; stroke-width: 1.4"/>
    <path d="M 196.070127 130.4 
L 196.070127 41.039884 
" clip-path="url(#p532c345636)" style="fill: none; stroke: #d81b60; stroke-width: 1.4"/>
    <path d="M 291.094177 130.4 
L 291.094177 63.12643 
" clip-path="url(#p532c345636)" style="fill: none; stroke: #d81b60; stroke-width: 1.4"/>
    <path d="M 386.118228 130.4 
L 386.118228 71.853781 
" clip-path="url(#p532c345636)" style="fill: none; stroke: #d81b60; stroke-width: 1.4"/>
    <path d="M 481.142278 130.4 
L 481.142278 79.276712 
" clip-path="url(#p532c345636)" style="fill: none; stroke: #d81b60; stroke-width: 1.4"/>
    <path d="M 575.462447 130.4 
L 575.462447 84.332493 
" clip-path="url(#p532c345636)" style="fill: none; stroke: #d81b60; stroke-width: 1.4"/>
    <path d="M 670.486498 130.4 
L 670.486498 88.953005 
" clip-path="url(#p532c345636)" style="fill: none; stroke: #d81b60; stroke-width: 1.4"/>
   </g>
   <g id="line2d_12">
    <defs>
     <path id="m32073e96a8" d="M 0 4 
C 1.060812 4 2.078319 3.578535 2.828427 2.828427 
C 3.578535 2.078319 4 1.060812 4 0 
C 4 -1.060812 3.578535 -2.078319 2.828427 -2.828427 
C 2.078319 -3.578535 1.060812 -4 0 -4 
C -1.060812 -4 -2.078319 -3.578535 -2.828427 -2.828427 
C -3.578535 -2.078319 -4 -1.060812 -4 0 
C -4 1.060812 -3.578535 2.078319 -2.828427 2.828427 
C -2.078319 3.578535 -1.060812 4 0 4 
z
" style="stroke: #ffffff; stroke-width: 0.8"/>
    </defs>
    <g clip-path="url(#p532c345636)">
     <use xlink:href="#m32073e96a8" x="104.565485" y="111.920959" style="fill: #d81b60; stroke: #ffffff; stroke-width: 0.8"/>
     <use xlink:href="#m32073e96a8" x="196.070127" y="41.039884" style="fill: #d81b60; stroke: #ffffff; stroke-width: 0.8"/>
     <use xlink:href="#m32073e96a8" x="291.094177" y="63.12643" style="fill: #d81b60; stroke: #ffffff; stroke-width: 0.8"/>
     <use xlink:href="#m32073e96a8" x="386.118228" y="71.853781" style="fill: #d81b60; stroke: #ffffff; stroke-width: 0.8"/>
     <use xlink:href="#m32073e96a8" x="481.142278" y="79.276712" style="fill: #d81b60; stroke: #ffffff; stroke-width: 0.8"/>
     <use xlink:href="#m32073e96a8" x="575.462447" y="84.332493" style="fill: #d81b60; stroke: #ffffff; stroke-width: 0.8"/>
     <use xlink:href="#m32073e96a8" x="670.486498" y="88.953005" style="fill: #d81b60; stroke: #ffffff; stroke-width: 0.8"/>
    </g>
   </g>
   <g id="legend_1">
    <g id="patch_4">
     <path d="M 562.068281 61.84125 
L 702.9 61.84125 
Q 704.7 61.84125 704.7 60.04125 
L 704.7 21.06 
Q 704.7 19.26 702.9 19.26 
L 562.068281 19.26 
Q 560.268281 19.26 560.268281 21.06 
L 560.268281 60.04125 
Q 560.268281 61.84125 562.068281 61.84125 
z
" style="fill: #ffffff; opacity: 0.8; stroke: #cccccc; stroke-linejoin: miter"/>
    </g>
    <g id="line2d_13">
     <path d="M 563.868281 26.548594 
L 572.868281 26.548594 
L 581.868281 26.548594 
" style="fill: none; stroke: #1565c0; stroke-width: 1.5; stroke-linecap: square"/>
    </g>
    <g id="text_10">
     <!-- conditioned signal -->
     <g transform="translate(589.068281 29.698594) scale(0.09 -0.09)">
      <defs>
       <path id="DejaVuSans-63" d="M 3122 3366 
L 3122 2828 
Q 2878 2963 2633 3030 
Q 2388 3097 2138 3097 
Q 1578 3097 1268 2742 
Q 959 2388 959 1747 
Q 959 1106 1268 751 
Q 1578 397 2138 397 
Q 2388 397 2633 464 
Q 2878 531 3122 666 
L 3122 134 
Q 2881 22 2623 -34 
Q 2366 -91 2075 -91 
Q 1284 -91 818 406 
Q 353 903 353 1747 
Q 353 2603 823 3093 
Q 1294 3584 2113 3584 
Q 2378 3584 2631 3529 
Q 2884 3475 3122 3366 
z
" transform="scale(0.015625)"/>
       <path id="DejaVuSans-6f" d="M 1959 3097 
Q 1497 3097 1228 2736 
Q 959 2375 959 1747 
Q 959 1119 1226 758 
Q 1494 397 1959 397 
Q 2419 397 2687 759 
Q 2956 1122 2956 1747 
Q 2956 2369 2687 2733 
Q 2419 3097 1959 3097 
z
M 1959 3584 
Q 2709 3584 3137 3096 
Q 3566 2609 3566 1747 
Q 3566 888 3137 398 
Q 2709 -91 1959 -91 
Q 1206 -91 779 398 
Q 353 888 353 1747 
Q 353 2609 779 3096 
Q 1206 3584 1959 3584 
z
" transform="scale(0.015625)"/>
       <path id="DejaVuSans-6e" d="M 3513 2113 
L 3513 0 
L 2938 0 
L 2938 2094 
Q 2938 2591 2744 2837 
Q 2550 3084 2163 3084 
Q 1697 3084 1428 2787 
Q 1159 2491 1159 1978 
L 1159 0 
L 581 0 
L 581 3500 
L 1159 3500 
L 1159 2956 
Q 1366 3272 1645 3428 
Q 1925 3584 2291 3584 
Q 2894 3584 3203 3211 
Q 3513 2838 3513 2113 
z
" transform="scale(0.015625)"/>
       <path id="DejaVuSans-64" d="M 2906 2969 
L 2906 4863 
L 3481 4863 
L 3481 0 
L 2906 0 
L 2906 525 
Q 2725 213 2448 61 
Q 2172 -91 1784 -91 
Q 1150 -91 751 415 
Q 353 922 353 1747 
Q 353 2572 751 3078 
Q 1150 3584 1784 3584 
Q 2172 3584 2448 3432 
Q 2725 3281 2906 2969 
z
M 947 1747 
Q 947 1113 1208 752 
Q 1469 391 1925 391 
Q 2381 391 2643 752 
Q 2906 1113 2906 1747 
Q 2906 2381 2643 2742 
Q 2381 3103 1925 3103 
Q 1469 3103 1208 2742 
Q 947 2381 947 1747 
z
" transform="scale(0.015625)"/>
       <path id="DejaVuSans-74" d="M 1172 4494 
L 1172 3500 
L 2356 3500 
L 2356 3053 
L 1172 3053 
L 1172 1153 
Q 1172 725 1289 603 
Q 1406 481 1766 481 
L 2356 481 
L 2356 0 
L 1766 0 
Q 1100 0 847 248 
Q 594 497 594 1153 
L 594 3053 
L 172 3053 
L 172 3500 
L 594 3500 
L 594 4494 
L 1172 4494 
z
" transform="scale(0.015625)"/>
       <path id="DejaVuSans-67" d="M 2906 1791 
Q 2906 2416 2648 2759 
Q 2391 3103 1925 3103 
Q 1463 3103 1205 2759 
Q 947 2416 947 1791 
Q 947 1169 1205 825 
Q 1463 481 1925 481 
Q 2391 481 2648 825 
Q 2906 1169 2906 1791 
z
M 3481 434 
Q 3481 -459 3084 -895 
Q 2688 -1331 1869 -1331 
Q 1566 -1331 1297 -1286 
Q 1028 -1241 775 -1147 
L 775 -588 
Q 1028 -725 1275 -790 
Q 1522 -856 1778 -856 
Q 2344 -856 2625 -561 
Q 2906 -266 2906 331 
L 2906 616 
Q 2728 306 2450 153 
Q 2172 0 1784 0 
Q 1141 0 747 490 
Q 353 981 353 1791 
Q 353 2603 747 3093 
Q 1141 3584 1784 3584 
Q 2172 3584 2450 3431 
Q 2728 3278 2906 2969 
L 2906 3500 
L 3481 3500 
L 3481 434 
z
" transform="scale(0.015625)"/>
      </defs>
      <use xlink:href="#DejaVuSans-63"/>
      <use xlink:href="#DejaVuSans-6f" transform="translate(54.980469 0)"/>
      <use xlink:href="#DejaVuSans-6e" transform="translate(116.162109 0)"/>
      <use xlink:href="#DejaVuSans-64" transform="translate(179.541016 0)"/>
      <use xlink:href="#DejaVuSans-69" transform="translate(243.017578 0)"/>
      <use xlink:href="#DejaVuSans-74" transform="translate(270.800781 0)"/>
      <use xlink:href="#DejaVuSans-69" transform="translate(310.009766 0)"/>
      <use xlink:href="#DejaVuSans-6f" transform="translate(337.792969 0)"/>
      <use xlink:href="#DejaVuSans-6e" transform="translate(398.974609 0)"/>
      <use xlink:href="#DejaVuSans-65" transform="translate(462.353516 0)"/>
      <use xlink:href="#DejaVuSans-64" transform="translate(523.876953 0)"/>
      <use xlink:href="#DejaVuSans-20" transform="translate(587.353516 0)"/>
      <use xlink:href="#DejaVuSans-73" transform="translate(619.140625 0)"/>
      <use xlink:href="#DejaVuSans-69" transform="translate(671.240234 0)"/>
      <use xlink:href="#DejaVuSans-67" transform="translate(699.023438 0)"/>
      <use xlink:href="#DejaVuSans-6e" transform="translate(762.5 0)"/>
      <use xlink:href="#DejaVuSans-61" transform="translate(825.878906 0)"/>
      <use xlink:href="#DejaVuSans-6c" transform="translate(887.158203 0)"/>
     </g>
    </g>
    <g id="line2d_14">
     <g>
      <use xlink:href="#m01755fbfe1" x="572.868281" y="39.758906" style="fill-opacity: 0; stroke: #9e9e9e; stroke-width: 1.3"/>
     </g>
    </g>
    <g id="text_11">
     <!-- local maxima -->
     <g transform="translate(589.068281 42.908906) scale(0.09 -0.09)">
      <defs>
       <path id="DejaVuSans-78" d="M 3513 3500 
L 2247 1797 
L 3578 0 
L 2900 0 
L 1881 1375 
L 863 0 
L 184 0 
L 1544 1831 
L 300 3500 
L 978 3500 
L 1906 2253 
L 2834 3500 
L 3513 3500 
z
" transform="scale(0.015625)"/>
      </defs>
      <use xlink:href="#DejaVuSans-6c"/>
      <use xlink:href="#DejaVuSans-6f" transform="translate(27.783203 0)"/>
      <use xlink:href="#DejaVuSans-63" transform="translate(88.964844 0)"/>
      <use xlink:href="#DejaVuSans-61" transform="translate(143.945312 0)"/>
      <use xlink:href="#DejaVuSans-6c" transform="translate(205.224609 0)"/>
      <use xlink:href="#DejaVuSans-20" transform="translate(233.007812 0)"/>
      <use xlink:href="#DejaVuSans-6d" transform="translate(264.794922 0)"/>
      <use xlink:href="#DejaVuSans-61" transform="translate(362.207031 0)"/>
      <use xlink:href="#DejaVuSans-78" transform="translate(423.486328 0)"/>
      <use xlink:href="#DejaVuSans-69" transform="translate(482.666016 0)"/>
      <use xlink:href="#DejaVuSans-6d" transform="translate(510.449219 0)"/>
      <use xlink:href="#DejaVuSans-61" transform="translate(607.861328 0)"/>
     </g>
    </g>
    <g id="line2d_15">
     <g>
      <use xlink:href="#m32073e96a8" x="572.868281" y="52.969219" style="fill: #d81b60; stroke: #ffffff; stroke-width: 0.8"/>
     </g>
    </g>
    <g id="text_12">
     <!-- kept (peak_gate, level 0) -->
     <g transform="translate(589.068281 56.119219) scale(0.09 -0.09)">
      <defs>
       <path id="DejaVuSans-6b" d="M 581 4863 
L 1159 4863 
L 1159 1991 
L 2875 3500 
L 3609 3500 
L 1753 1863 
L 3688 0 
L 2938 0 
L 1159 1709 
L 1159 0 
L 581 0 
L 581 4863 
z
" transform="scale(0.015625)"/>
       <path id="DejaVuSans-5f" d="M 3263 -1063 
L 3263 -1509 
L -63 -1509 
L -63 -1063 
L 3263 -1063 
z
" transform="scale(0.015625)"/>
       <path id="DejaVuSans-2c" d="M 750 794 
L 1409 794 
L 1409 256 
L 897 -744 
L 494 -744 
L 750 256 
L 750 794 
z
" transform="scale(0.015625)"/>
       <path id="DejaVuSans-76" d="M 191 3500 
L 800 3500 
L 1894 563 
L 2988 3500 
L 3597 3500 
L 2284 0 
L 1503 0 
L 191 3500 
z
" transform="scale(0.015625)"/>
      </defs>
      <use xlink:href="#DejaVuSans-6b"/>
      <use xlink:href="#DejaVuSans-65" transform="translate(54.285156 0)"/>
      <use xlink:href="#DejaVuSans-70" transform="translate(115.808594 0)"/>
      <use xlink:href="#DejaVuSans-74" transform="translate(179.285156 0)"/>
      <use xlink:href="#DejaVuSans-20" transform="translate(218.494141 0)"/>
      <use xlink:href="#DejaVuSans-28" transform="translate(250.28125 0)"/>
      <use xlink:href="#DejaVuSans-70" transform="translate(289.294922 0)"/>
      <use xlink:href="#DejaVuSans-65" transform="translate(352.771484 0)"/>
      <use xlink:href="#DejaVuSans-61" transform="translate(414.294922 0)"/>
      <use xlink:href="#DejaVuSans-6b" transform="translate(475.574219 0)"/>
      <use xlink:href="#DejaVuSans-5f" transform="translate(533.484375 0)"/>
      <use xlink:href="#DejaVuSans-67" transform="translate(583.484375 0)"/>
      <use xlink:href="#DejaVuSans-61" transform="translate(646.960938 0)"/>
      <use xlink:href="#DejaVuSans-74" transform="translate(708.240234 0)"/>
      <use xlink:href="#DejaVuSans-65" transform="translate(747.449219 0)"/>
      <use xlink:href="#DejaVuSans-2c" transform="translate(808.972656 0)"/>
      <use xlink:href="#DejaVuSans-20" transform="translate(840.759766 0)"/>
      <use xlink:href="#DejaVuSans-6c" transform="translate(872.546875 0)"/>
      <use xlink:href="#DejaVuSans-65" transform="translate(900.330078 0)"/>
      <use xlink:href="#DejaVuSans-76" transform="translate(961.853516 0)"/>
      <use xlink:href="#DejaVuSans-65" transform="translate(1021.033203 0)"/>
      <use xlink:href="#DejaVuSans-6c" transform="translate(1082.556641 0)"/>
      <use xlink:href="#DejaVuSans-20" transform="translate(1110.339844 0)"/>
      <use xlink:href="#DejaVuSans-30" transform="translate(1142.126953 0)"/>
      <use xlink:href="#DejaVuSans-29" transform="translate(1205.75 0)"/>
     </g>
    </g>
   </g>
  </g>
 </g>
 <defs>
  <clipPath id="p532c345636">
   <rect x="41.92" y="14.76" width="667.28" height="231.28"/>
  </clipPath>
 </defs>
</svg>
