<?xml version="1.0" encoding="utf-8"?>
<!-- Generator: Adobe Illustrator 28.3.0, SVG Export Plug-In . SVG Version: 6.00 Build 0)  -->
<svg version="1.1" id="Layer_1" xmlns="http://www.w3.org/2000/svg" xmlns:xlink="http://www.w3.org/1999/xlink" x="0px" y="0px"
	 viewBox="0 0 993 723.6" style="enable-background:new 0 0 993 723.6;" xml:space="preserve">
<style type="text/css">
	.st0{fill:#FFFFFF;}
	
		.st1{clip-path:url(#SVGID_00000113317253986738829050000009504787493909500815_);fill:none;stroke:#808080;stroke-width:0.5;stroke-linecap:square;stroke-linejoin:round;}
	.st2{stroke:#000000;stroke-width:0.8;stroke-linejoin:round;}
	
		.st3{clip-path:url(#SVGID_00000063622992741138136480000006292119892759263903_);fill:none;stroke:#808080;stroke-width:0.5;stroke-linecap:square;stroke-linejoin:round;}
	
		.st4{clip-path:url(#SVGID_00000043453169547320573450000009039187748849845634_);fill:none;stroke:#808080;stroke-width:0.5;stroke-linecap:square;stroke-linejoin:round;}
	
		.st5{clip-path:url(#SVGID_00000002384281249159769610000005646290722123580594_);fill:none;stroke:#808080;stroke-width:0.5;stroke-linecap:square;stroke-linejoin:round;}
	
		.st6{clip-path:url(#SVGID_00000101080265844085593130000011658097171392553893_);fill:none;stroke:#808080;stroke-width:0.5;stroke-linecap:square;stroke-linejoin:round;}
	
		.st7{clip-path:url(#SVGID_00000157288864485282066410000014462118265217059749_);fill:none;stroke:#808080;stroke-width:0.5;stroke-linecap:square;stroke-linejoin:round;}
	
		.st8{clip-path:url(#SVGID_00000041259041405684432110000005953913623349564038_);fill:none;stroke:#808080;stroke-width:0.5;stroke-linecap:square;stroke-linejoin:round;}
	
		.st9{clip-path:url(#SVGID_00000123415648754534555310000005190631512304301220_);fill:none;stroke:#808080;stroke-width:0.5;stroke-linecap:square;stroke-linejoin:round;}
	
		.st10{clip-path:url(#SVGID_00000140003572541507295730000013764439850405066626_);fill:none;stroke:#808080;stroke-width:0.5;stroke-linecap:square;stroke-linejoin:round;}
	
		.st11{clip-path:url(#SVGID_00000056405511429558373190000016483315035334561682_);fill:none;stroke:#1F77B4;stroke-width:1.5;stroke-linecap:square;stroke-linejoin:round;}
	
		.st12{clip-path:url(#SVGID_00000136399648242212938340000017963174316788853175_);fill:none;stroke:#FF7F0E;stroke-width:1.5;stroke-linecap:square;stroke-linejoin:round;}
	
		.st13{clip-path:url(#SVGID_00000125581315102173439050000016042084971808564921_);fill:none;stroke:#2CA02C;stroke-width:1.5;stroke-linecap:square;stroke-linejoin:round;}
	.st14{fill:none;stroke:#000000;stroke-width:0.8;stroke-linecap:square;}
</style>
<g id="figure_1">
	<g id="axes_1">
		<g id="patch_2">
			<path class="st0" d="M123.1,644h800.3V72.4H123.1V644z"/>
		</g>
		<g id="matplotlib.axis_1">
			<g id="xtick_1">
				<g id="line2d_1">
					<g>
						<defs>
							<rect id="SVGID_1_" x="123.1" y="72.4" width="800.3" height="571.6"/>
						</defs>
						<clipPath id="SVGID_00000121245837214799946880000013807938672373591172_">
							<use xlink:href="#SVGID_1_"  style="overflow:visible;"/>
						</clipPath>
						
							<path style="clip-path:url(#SVGID_00000121245837214799946880000013807938672373591172_);fill:none;stroke:#808080;stroke-width:0.5;stroke-linecap:square;stroke-linejoin:round;" d="
							M258.3,644V72.4"/>
					</g>
				</g>
				<g id="line2d_2">
					<g>
						<g>
							<path id="m701ec9b948" class="st2" d="M258.3,644v3.5"/>
						</g>
					</g>
				</g>
				<g id="text_1">
					<g transform="translate(239.760607 658.602438) scale(0.1 -0.1)">
						<g>
							<path id="DejaVuSans-31" d="M12.4,8.3h16.1v55.6L11,60.4v9l17.4,3.5h9.9V8.3h16.1V0h-42V8.3z"/>
						</g>
						<g>
							<path id="DejaVuSans-2e" d="M74.3,12.4h10.3V0H74.3V12.4z"/>
						</g>
						<g>
							<path id="DejaVuSans-30" d="M127.2,66.4c-5.1,0-8.9-2.5-11.5-7.5c-2.6-5-3.8-12.5-3.8-22.5c0-10,1.3-17.5,3.8-22.5
								c2.6-5,6.4-7.5,11.5-7.5c5.1,0,8.9,2.5,11.5,7.5c2.6,5,3.8,12.5,3.8,22.5c0,10-1.3,17.5-3.8,22.5
								C136.1,63.9,132.3,66.4,127.2,66.4z M127.2,74.2c8.2,0,14.4-3.2,18.7-9.7c4.3-6.5,6.5-15.8,6.5-28.1
								c0-12.3-2.2-21.6-6.5-28.1c-4.3-6.5-10.6-9.7-18.7-9.7c-8.2,0-14.4,3.2-18.7,9.7c-4.3,6.5-6.5,15.8-6.5,28.1
								c0,12.3,2.2,21.7,6.5,28.1C112.8,71,119,74.2,127.2,74.2z"/>
						</g>
						<g>
							<path id="DejaVuSans-30_00000102520851724279190250000017486870820347884468_" d="M190.8,66.4c-5.1,0-8.9-2.5-11.5-7.5
								c-2.6-5-3.8-12.5-3.8-22.5c0-10,1.3-17.5,3.8-22.5c2.6-5,6.4-7.5,11.5-7.5c5.1,0,8.9,2.5,11.5,7.5c2.6,5,3.8,12.5,3.8,22.5
								c0,10-1.3,17.5-3.8,22.5C199.8,63.9,195.9,66.4,190.8,66.4z M190.8,74.2c8.2,0,14.4-3.2,18.7-9.7c4.3-6.5,6.5-15.8,6.5-28.1
								c0-12.3-2.2-21.6-6.5-28.1c-4.3-6.5-10.6-9.7-18.7-9.7c-8.2,0-14.4,3.2-18.7,9.7c-4.3,6.5-6.5,15.8-6.5,28.1
								c0,12.3,2.2,21.7,6.5,28.1C176.4,71,182.6,74.2,190.8,74.2z"/>
						</g>
						<g>
							<path id="DejaVuSans-30_00000111182045791522985710000014747915542307676316_" d="M254.4,66.4c-5.1,0-8.9-2.5-11.5-7.5
								c-2.6-5-3.8-12.5-3.8-22.5c0-10,1.3-17.5,3.8-22.5c2.6-5,6.4-7.5,11.5-7.5c5.1,0,8.9,2.5,11.5,7.5c2.6,5,3.8,12.5,3.8,22.5
								c0,10-1.3,17.5-3.8,22.5C263.4,63.9,259.6,66.4,254.4,66.4z M254.4,74.2c8.2,0,14.4-3.2,18.7-9.7c4.3-6.5,6.5-15.8,6.5-28.1
								c0-12.3-2.2-21.6-6.5-28.1c-4.3-6.5-10.6-9.7-18.7-9.7c-8.2,0-14.4,3.2-18.7,9.7c-4.3,6.5-6.5,15.8-6.5,28.1
								c0,12.3,2.2,21.7,6.5,28.1C240,71,246.3,74.2,254.4,74.2z"/>
						</g>
						<g>
							<path id="DejaVuSans-20" d="M286.3,0"/>
						</g>
						<g>
							<path id="DejaVuSans-73" d="M362.3,53.1v-8.5c-2.5,1.3-5.2,2.3-7.9,2.9c-2.7,0.7-5.6,1-8.5,1c-4.5,0-7.8-0.7-10-2
								s-3.3-3.4-3.3-6.2c0-2.1,0.8-3.7,2.4-4.9s4.8-2.3,9.6-3.4l3.1-0.7c6.4-1.4,10.9-3.3,13.6-5.8s4-6,4-10.4c0-5.1-2-9.1-6-12.1
								c-4-3-9.5-4.4-16.6-4.4c-2.9,0-6,0.3-9.2,0.9s-6.5,1.4-10,2.6v9.3c3.3-1.7,6.6-3,9.8-3.9c3.2-0.9,6.4-1.3,9.6-1.3
								c4.2,0,7.5,0.7,9.8,2.2c2.3,1.4,3.4,3.5,3.4,6.1c0,2.4-0.8,4.3-2.5,5.6c-1.6,1.3-5.2,2.6-10.8,3.8l-3.1,0.7
								c-5.6,1.2-9.6,3-12.1,5.4c-2.5,2.4-3.7,5.8-3.7,10c0,5.1,1.8,9.1,5.5,11.9c3.6,2.8,8.8,4.2,15.5,4.2c3.3,0,6.4-0.2,9.4-0.7
								C357.2,54.8,359.9,54.1,362.3,53.1z"/>
						</g>
					</g>
				</g>
			</g>
			<g id="xtick_2">
				<g id="line2d_3">
					<g>
						<defs>
							<rect id="SVGID_00000080899144798927102610000008310021628511246751_" x="123.1" y="72.4" width="800.3" height="571.6"/>
						</defs>
						<clipPath id="SVGID_00000005963896766109549560000018228334983694340250_">
							<use xlink:href="#SVGID_00000080899144798927102610000008310021628511246751_"  style="overflow:visible;"/>
						</clipPath>
						
							<path style="clip-path:url(#SVGID_00000005963896766109549560000018228334983694340250_);fill:none;stroke:#808080;stroke-width:0.5;stroke-linecap:square;stroke-linejoin:round;" d="
							M431.3,644V72.4"/>
					</g>
				</g>
				<g id="line2d_4">
					<g>
						<g>
							<path id="m701ec9b948_00000025413648029470129310000007981620522885239720_" class="st2" d="M431.3,644v3.5"/>
						</g>
					</g>
				</g>
				<g id="text_2">
					<g transform="translate(412.745644 658.602438) scale(0.1 -0.1)">
						<g>
							<path id="DejaVuSans-31_00000042009230833367128260000005399143780408183946_" d="M12.4,8.3h16.1v55.6L11,60.4v9l17.4,3.5
								h9.9V8.3h16.1V0h-42V8.3z"/>
						</g>
						<g>
							<path id="DejaVuSans-2e_00000097490603714815191450000002339526827600659891_" d="M74.3,12.4h10.3V0H74.3V12.4z"/>
						</g>
						<g>
							<path id="DejaVuSans-30_00000135653945292199403420000013823325103750446985_" d="M127.2,66.4c-5.1,0-8.9-2.5-11.5-7.5
								c-2.6-5-3.8-12.5-3.8-22.5c0-10,1.3-17.5,3.8-22.5c2.6-5,6.4-7.5,11.5-7.5c5.1,0,8.9,2.5,11.5,7.5c2.6,5,3.8,12.5,3.8,22.5
								c0,10-1.3,17.5-3.8,22.5C136.1,63.9,132.3,66.4,127.2,66.4z M127.2,74.2c8.2,0,14.4-3.2,18.7-9.7c4.3-6.5,6.5-15.8,6.5-28.1
								c0-12.3-2.2-21.6-6.5-28.1c-4.3-6.5-10.6-9.7-18.7-9.7c-8.2,0-14.4,3.2-18.7,9.7c-4.3,6.5-6.5,15.8-6.5,28.1
								c0,12.3,2.2,21.7,6.5,28.1C112.8,71,119,74.2,127.2,74.2z"/>
						</g>
						<g>
							<path id="DejaVuSans-31_00000029762967050558578770000000929958822586728127_" d="M171.4,8.3h16.1v55.6L170,60.4v9l17.4,3.5
								h9.9V8.3h16.1V0h-42V8.3z"/>
						</g>
						<g>
							<path id="DejaVuSans-30_00000121961897944202744210000011856687706141972918_" d="M254.4,66.4c-5.1,0-8.9-2.5-11.5-7.5
								c-2.6-5-3.8-12.5-3.8-22.5c0-10,1.3-17.5,3.8-22.5c2.6-5,6.4-7.5,11.5-7.5c5.1,0,8.9,2.5,11.5,7.5c2.6,5,3.8,12.5,3.8,22.5
								c0,10-1.3,17.5-3.8,22.5C263.4,63.9,259.6,66.4,254.4,66.4z M254.4,74.2c8.2,0,14.4-3.2,18.7-9.7c4.3-6.5,6.5-15.8,6.5-28.1
								c0-12.3-2.2-21.6-6.5-28.1c-4.3-6.5-10.6-9.7-18.7-9.7c-8.2,0-14.4,3.2-18.7,9.7c-4.3,6.5-6.5,15.8-6.5,28.1
								c0,12.3,2.2,21.7,6.5,28.1C240,71,246.3,74.2,254.4,74.2z"/>
						</g>
						<g>
							<path id="DejaVuSans-20_00000155869426636106387550000011281464214206372017_" d="M286.3,0"/>
						</g>
						<g>
							<path id="DejaVuSans-73_00000182509177656727270400000010462259945333462152_" d="M362.3,53.1v-8.5c-2.5,1.3-5.2,2.3-7.9,2.9
								c-2.7,0.7-5.6,1-8.5,1c-4.5,0-7.8-0.7-10-2s-3.3-3.4-3.3-6.2c0-2.1,0.8-3.7,2.4-4.9s4.8-2.3,9.6-3.4l3.1-0.7
								c6.4-1.4,10.9-3.3,13.6-5.8s4-6,4-10.4c0-5.1-2-9.1-6-12.1c-4-3-9.5-4.4-16.6-4.4c-2.9,0-6,0.3-9.2,0.9
								c-3.2,0.6-6.5,1.4-10,2.6v9.3c3.3-1.7,6.6-3,9.8-3.9c3.2-0.9,6.4-1.3,9.6-1.3c4.2,0,7.5,0.7,9.8,2.2c2.3,1.4,3.4,3.5,3.4,6.1
								c0,2.4-0.8,4.3-2.5,5.6c-1.6,1.3-5.2,2.6-10.8,3.8l-3.1,0.7c-5.6,1.2-9.6,3-12.1,5.4c-2.5,2.4-3.7,5.8-3.7,10
								c0,5.1,1.8,9.1,5.5,11.9c3.6,2.8,8.8,4.2,15.5,4.2c3.3,0,6.4-0.2,9.4-0.7C357.2,54.8,359.9,54.1,362.3,53.1z"/>
						</g>
					</g>
				</g>
			</g>
			<g id="xtick_3">
				<g id="line2d_5">
					<g>
						<defs>
							<rect id="SVGID_00000161599681402077414680000016777171524935216016_" x="123.1" y="72.4" width="800.3" height="571.6"/>
						</defs>
						<clipPath id="SVGID_00000136385584956196631040000007295643194396448430_">
							<use xlink:href="#SVGID_00000161599681402077414680000016777171524935216016_"  style="overflow:visible;"/>
						</clipPath>
						
							<path style="clip-path:url(#SVGID_00000136385584956196631040000007295643194396448430_);fill:none;stroke:#808080;stroke-width:0.5;stroke-linecap:square;stroke-linejoin:round;" d="
							M604.2,644V72.4"/>
					</g>
				</g>
				<g id="line2d_6">
					<g>
						<g>
							<path id="m701ec9b948_00000170246193684048140310000016824785497928728474_" class="st2" d="M604.2,644v3.5"/>
						</g>
					</g>
				</g>
				<g id="text_3">
					<g transform="translate(585.730682 658.602438) scale(0.1 -0.1)">
						<g>
							<path id="DejaVuSans-31_00000074437732998109901390000018358034924809903243_" d="M12.4,8.3h16.1v55.6L11,60.4v9l17.4,3.5
								h9.9V8.3h16.1V0h-42V8.3z"/>
						</g>
						<g>
							<path id="DejaVuSans-2e_00000072990329381962871610000007028087710336151964_" d="M74.3,12.4h10.3V0H74.3V12.4z"/>
						</g>
						<g>
							<path id="DejaVuSans-30_00000022553106519297172380000013963864601663464332_" d="M127.2,66.4c-5.1,0-8.9-2.5-11.5-7.5
								c-2.6-5-3.8-12.5-3.8-22.5c0-10,1.3-17.5,3.8-22.5c2.6-5,6.4-7.5,11.5-7.5c5.1,0,8.9,2.5,11.5,7.5c2.6,5,3.8,12.5,3.8,22.5
								c0,10-1.3,17.5-3.8,22.5C136.1,63.9,132.3,66.4,127.2,66.4z M127.2,74.2c8.2,0,14.4-3.2,18.7-9.7c4.3-6.5,6.5-15.8,6.5-28.1
								c0-12.3-2.2-21.6-6.5-28.1c-4.3-6.5-10.6-9.7-18.7-9.7c-8.2,0-14.4,3.2-18.7,9.7c-4.3,6.5-6.5,15.8-6.5,28.1
								c0,12.3,2.2,21.7,6.5,28.1C112.8,71,119,74.2,127.2,74.2z"/>
						</g>
						<g>
							<path id="DejaVuSans-32" d="M178.2,8.3h34.4V0h-46.3v8.3c3.7,3.9,8.8,9.1,15.3,15.6c6.5,6.5,10.5,10.7,12.2,12.6
								c3.2,3.5,5.4,6.5,6.6,9c1.3,2.5,1.9,4.9,1.9,7.2c0,3.9-1.4,7-4.1,9.5c-2.7,2.4-6.3,3.7-10.6,3.7c-3.1,0-6.4-0.5-9.8-1.6
								c-3.4-1.1-7.1-2.7-11-4.9v10c4,1.6,7.7,2.8,11.1,3.6c3.5,0.8,6.6,1.2,9.5,1.2c7.6,0,13.6-1.9,18.1-5.7
								c4.5-3.8,6.7-8.8,6.7-15.1c0-3-0.6-5.8-1.7-8.5c-1.1-2.7-3.2-5.8-6.1-9.5c-0.8-0.9-3.4-3.7-7.8-8.2
								C192.3,22.7,186.2,16.4,178.2,8.3z"/>
						</g>
						<g>
							<path id="DejaVuSans-30_00000065063150117822030510000013347426580401216951_" d="M254.4,66.4c-5.1,0-8.9-2.5-11.5-7.5
								c-2.6-5-3.8-12.5-3.8-22.5c0-10,1.3-17.5,3.8-22.5c2.6-5,6.4-7.5,11.5-7.5c5.1,0,8.9,2.5,11.5,7.5c2.6,5,3.8,12.5,3.8,22.5
								c0,10-1.3,17.5-3.8,22.5C263.4,63.9,259.6,66.4,254.4,66.4z M254.4,74.2c8.2,0,14.4-3.2,18.7-9.7c4.3-6.5,6.5-15.8,6.5-28.1
								c0-12.3-2.2-21.6-6.5-28.1c-4.3-6.5-10.6-9.7-18.7-9.7c-8.2,0-14.4,3.2-18.7,9.7c-4.3,6.5-6.5,15.8-6.5,28.1
								c0,12.3,2.2,21.7,6.5,28.1C240,71,246.3,74.2,254.4,74.2z"/>
						</g>
						<g>
							<path id="DejaVuSans-20_00000019680317908735480710000012007871452216472728_" d="M286.3,0"/>
						</g>
						<g>
							<path id="DejaVuSans-73_00000136372085655359961530000007601654907942237062_" d="M362.3,53.1v-8.5c-2.5,1.3-5.2,2.3-7.9,2.9
								c-2.7,0.7-5.6,1-8.5,1c-4.5,0-7.8-0.7-10-2s-3.3-3.4-3.3-6.2c0-2.1,0.8-3.7,2.4-4.9s4.8-2.3,9.6-3.4l3.1-0.7
								c6.4-1.4,10.9-3.3,13.6-5.8s4-6,4-10.4c0-5.1-2-9.1-6-12.1c-4-3-9.5-4.4-16.6-4.4c-2.9,0-6,0.3-9.2,0.9s-6.5,1.4-10,2.6v9.3
								c3.3-1.7,6.6-3,9.8-3.9c3.2-0.9,6.4-1.3,9.6-1.3c4.2,0,7.5,0.7,9.8,2.2c2.3,1.4,3.4,3.5,3.4,6.1c0,2.4-0.8,4.3-2.5,5.6
								c-1.6,1.3-5.2,2.6-10.8,3.8l-3.1,0.7c-5.6,1.2-9.6,3-12.1,5.4c-2.5,2.4-3.7,5.8-3.7,10c0,5.1,1.8,9.1,5.5,11.9
								c3.6,2.8,8.8,4.2,15.5,4.2c3.3,0,6.4-0.2,9.4-0.7C357.2,54.8,359.9,54.1,362.3,53.1z"/>
						</g>
					</g>
				</g>
			</g>
			<g id="xtick_4">
				<g id="line2d_7">
					<g>
						<defs>
							<rect id="SVGID_00000042736573708854693760000006787618232333284482_" x="123.1" y="72.4" width="800.3" height="571.6"/>
						</defs>
						<clipPath id="SVGID_00000048464072574099249030000005955264791999076480_">
							<use xlink:href="#SVGID_00000042736573708854693760000006787618232333284482_"  style="overflow:visible;"/>
						</clipPath>
						
							<path style="clip-path:url(#SVGID_00000048464072574099249030000005955264791999076480_);fill:none;stroke:#808080;stroke-width:0.5;stroke-linecap:square;stroke-linejoin:round;" d="
							M777.2,644V72.4"/>
					</g>
				</g>
				<g id="line2d_8">
					<g>
						<g>
							<path id="m701ec9b948_00000165220475993180563140000002458924305085128117_" class="st2" d="M777.2,644v3.5"/>
						</g>
					</g>
				</g>
				<g id="text_4">
					<g transform="translate(758.715719 658.602438) scale(0.1 -0.1)">
						<g>
							<path id="DejaVuSans-31_00000101781753896357275350000014305673841002532745_" d="M12.4,8.3h16.1v55.6L11,60.4v9l17.4,3.5
								h9.9V8.3h16.1V0h-42V8.3z"/>
						</g>
						<g>
							<path id="DejaVuSans-2e_00000144313584047571518080000011542262681861515710_" d="M74.3,12.4h10.3V0H74.3V12.4z"/>
						</g>
						<g>
							<path id="DejaVuSans-30_00000016073121156103470590000002990058026150380984_" d="M127.2,66.4c-5.1,0-8.9-2.5-11.5-7.5
								c-2.6-5-3.8-12.5-3.8-22.5c0-10,1.3-17.5,3.8-22.5c2.6-5,6.4-7.5,11.5-7.5c5.1,0,8.9,2.5,11.5,7.5c2.6,5,3.8,12.5,3.8,22.5
								c0,10-1.3,17.5-3.8,22.5C136.1,63.9,132.3,66.4,127.2,66.4z M127.2,74.2c8.2,0,14.4-3.2,18.7-9.7c4.3-6.5,6.5-15.8,6.5-28.1
								c0-12.3-2.2-21.6-6.5-28.1c-4.3-6.5-10.6-9.7-18.7-9.7c-8.2,0-14.4,3.2-18.7,9.7c-4.3,6.5-6.5,15.8-6.5,28.1
								c0,12.3,2.2,21.7,6.5,28.1C112.8,71,119,74.2,127.2,74.2z"/>
						</g>
						<g>
							<path id="DejaVuSans-33" d="M199.6,39.3c4.7-1,8.4-3.1,11-6.3c2.7-3.2,4-7.1,4-11.8c0-7.2-2.5-12.8-7.4-16.7
								c-4.9-3.9-12-5.9-21.1-5.9c-3.1,0-6.2,0.3-9.4,0.9c-3.2,0.6-6.6,1.5-10,2.7v9.5c2.7-1.6,5.7-2.8,9-3.6
								c3.3-0.8,6.7-1.2,10.2-1.2c6.2,0,10.9,1.2,14.1,3.7c3.2,2.4,4.9,6,4.9,10.6c0,4.3-1.5,7.7-4.5,10.1c-3,2.4-7.2,3.6-12.6,3.6
								h-8.5V43h8.9c4.8,0,8.6,1,11.1,2.9c2.6,1.9,3.9,4.7,3.9,8.4c0,3.7-1.3,6.6-4,8.6c-2.6,2-6.4,3-11.4,3c-2.7,0-5.6-0.3-8.7-0.9
								c-3.1-0.6-6.5-1.5-10.2-2.7v8.8c3.8,1,7.3,1.8,10.5,2.3c3.3,0.5,6.4,0.8,9.2,0.8c7.5,0,13.4-1.7,17.8-5.1
								c4.4-3.4,6.5-8,6.5-13.8c0-4-1.2-7.5-3.5-10.2S203.9,40.4,199.6,39.3z"/>
						</g>
						<g>
							<path id="DejaVuSans-30_00000083775218730198994360000015841311155321016756_" d="M254.4,66.4c-5.1,0-8.9-2.5-11.5-7.5
								c-2.6-5-3.8-12.5-3.8-22.5c0-10,1.3-17.5,3.8-22.5c2.6-5,6.4-7.5,11.5-7.5c5.1,0,8.9,2.5,11.5,7.5c2.6,5,3.8,12.5,3.8,22.5
								c0,10-1.3,17.5-3.8,22.5C263.4,63.9,259.6,66.4,254.4,66.4z M254.4,74.2c8.2,0,14.4-3.2,18.7-9.7c4.3-6.5,6.5-15.8,6.5-28.1
								c0-12.3-2.2-21.6-6.5-28.1c-4.3-6.5-10.6-9.7-18.7-9.7c-8.2,0-14.4,3.2-18.7,9.7c-4.3,6.5-6.5,15.8-6.5,28.1
								c0,12.3,2.2,21.7,6.5,28.1C240,71,246.3,74.2,254.4,74.2z"/>
						</g>
						<g>
							<path id="DejaVuSans-20_00000158732452734859484430000009493002335837991607_" d="M286.3,0"/>
						</g>
						<g>
							<path id="DejaVuSans-73_00000119836767763987926250000004047185055493814965_" d="M362.3,53.1v-8.5c-2.5,1.3-5.2,2.3-7.9,2.9
								c-2.7,0.7-5.6,1-8.5,1c-4.5,0-7.8-0.7-10-2c-2.2-1.4-3.3-3.4-3.3-6.2c0-2.1,0.8-3.7,2.4-4.9s4.8-2.3,9.6-3.4l3.1-0.7
								c6.4-1.4,10.9-3.3,13.6-5.8s4-6,4-10.4c0-5.1-2-9.1-6-12.1c-4-3-9.5-4.4-16.6-4.4c-2.9,0-6,0.3-9.2,0.9
								c-3.2,0.6-6.5,1.4-10,2.6v9.3c3.3-1.7,6.6-3,9.8-3.9c3.2-0.9,6.4-1.3,9.6-1.3c4.2,0,7.5,0.7,9.8,2.2c2.3,1.4,3.4,3.5,3.4,6.1
								c0,2.4-0.8,4.3-2.5,5.6c-1.6,1.3-5.2,2.6-10.8,3.8l-3.1,0.7c-5.6,1.2-9.6,3-12.1,5.4c-2.5,2.4-3.7,5.8-3.7,10
								c0,5.1,1.8,9.1,5.5,11.9c3.6,2.8,8.8,4.2,15.5,4.2c3.3,0,6.4-0.2,9.4-0.7C357.2,54.8,359.9,54.1,362.3,53.1z"/>
						</g>
					</g>
				</g>
			</g>
			<g id="text_5">
				<g transform="translate(502.931094 672.280563) scale(0.1 -0.1)">
					<g>
						<path id="DejaVuSans-54" d="M-0.3,72.9h61.7v-8.3H35.5V0h-9.9v64.6H-0.3V72.9z"/>
					</g>
					<g>
						<path id="DejaVuSans-69" d="M67.4,54.7h9V0h-9V54.7z M67.4,76h9V64.6h-9V76z"/>
					</g>
					<g>
						<path id="DejaVuSans-6d" d="M137.7,44.2c2.2,4,4.9,7,8.1,8.9s6.8,2.9,11,2.9c5.7,0,10.1-2,13.2-6c3.1-4,4.6-9.6,4.6-17V0h-9
							v32.7c0,5.2-0.9,9.1-2.8,11.7c-1.9,2.5-4.7,3.8-8.5,3.8c-4.7,0-8.3-1.5-11-4.6c-2.7-3.1-4-7.3-4-12.6V0h-9v32.7
							c0,5.3-0.9,9.2-2.8,11.7c-1.9,2.5-4.7,3.8-8.6,3.8c-4.6,0-8.2-1.6-11-4.7c-2.7-3.1-4-7.3-4-12.6V0h-9v54.7h9v-8.5
							c2.1,3.4,4.5,5.8,7.4,7.4c2.9,1.6,6.3,2.4,10.2,2.4c4,0,7.4-1,10.1-3C134.4,51,136.4,48,137.7,44.2z"/>
					</g>
					<g>
						<path id="DejaVuSans-65" d="M239.4,29.6v-4.4H198c0.4-6.2,2.3-10.9,5.6-14.1c3.3-3.2,8-4.9,13.9-4.9c3.4,0,6.8,0.4,10,1.3
							c3.2,0.8,6.5,2.1,9.7,3.8V2.8c-3.2-1.4-6.5-2.4-9.9-3.1c-3.4-0.7-6.8-1.1-10.3-1.1c-8.7,0-15.6,2.5-20.7,7.6
							c-5.1,5.1-7.6,12-7.6,20.6c0,8.9,2.4,16,7.2,21.3c4.8,5.3,11.4,7.9,19.6,7.9c7.4,0,13.2-2.4,17.5-7.1
							C237.2,44.2,239.4,37.7,239.4,29.6z M230.4,32.2c-0.1,4.9-1.4,8.8-4.1,11.8c-2.7,2.9-6.2,4.4-10.7,4.4c-5,0-9-1.4-12-4.2
							c-3-2.8-4.7-6.8-5.2-12L230.4,32.2z"/>
					</g>
					<g>
						<path id="DejaVuSans-20_00000052062206989892288470000014474974326906042558_" d="M244.7,0"/>
					</g>
					<g>
						<path id="DejaVuSans-5b" d="M285.1,76h20.7v-7H294V-6.2h11.7v-7h-20.7V76z"/>
					</g>
					<g>
						<path id="DejaVuSans-73_00000170274700330651053300000010135510129963679916_" d="M359.8,53.1v-8.5c-2.5,1.3-5.2,2.3-7.9,2.9
							c-2.7,0.7-5.6,1-8.5,1c-4.5,0-7.8-0.7-10-2c-2.2-1.4-3.3-3.4-3.3-6.2c0-2.1,0.8-3.7,2.4-4.9s4.8-2.3,9.6-3.4l3.1-0.7
							c6.4-1.4,10.9-3.3,13.6-5.8s4-6,4-10.4c0-5.1-2-9.1-6-12.1c-4-3-9.5-4.4-16.6-4.4c-2.9,0-6,0.3-9.2,0.9
							c-3.2,0.6-6.5,1.4-10,2.6v9.3c3.3-1.7,6.6-3,9.8-3.9c3.2-0.9,6.4-1.3,9.6-1.3c4.2,0,7.5,0.7,9.8,2.2c2.3,1.4,3.4,3.5,3.4,6.1
							c0,2.4-0.8,4.3-2.5,5.6c-1.6,1.3-5.2,2.6-10.8,3.8l-3.1,0.7c-5.6,1.2-9.6,3-12.1,5.4c-2.5,2.4-3.7,5.8-3.7,10
							c0,5.1,1.8,9.1,5.5,11.9c3.6,2.8,8.8,4.2,15.5,4.2c3.3,0,6.4-0.2,9.4-0.7C354.6,54.8,357.3,54.1,359.8,53.1z"/>
					</g>
					<g>
						<path id="DejaVuSans-5d" d="M398,76v-89.2h-20.7v7H389V69h-11.7v7H398z"/>
					</g>
				</g>
			</g>
		</g>
		<g id="matplotlib.axis_2">
			<g id="ytick_1">
				<g id="line2d_9">
					<g>
						<defs>
							<rect id="SVGID_00000036241739268521160370000009690851928901247399_" x="123.1" y="72.4" width="800.3" height="571.6"/>
						</defs>
						<clipPath id="SVGID_00000182506947717817583080000013189165034028756646_">
							<use xlink:href="#SVGID_00000036241739268521160370000009690851928901247399_"  style="overflow:visible;"/>
						</clipPath>
						
							<path style="clip-path:url(#SVGID_00000182506947717817583080000013189165034028756646_);fill:none;stroke:#808080;stroke-width:0.5;stroke-linecap:square;stroke-linejoin:round;" d="
							M123.1,607.5h800.3"/>
					</g>
				</g>
				<g id="line2d_10">
					<g>
						<g>
							<path id="m342741fce5" class="st2" d="M123.1,607.5h-3.5"/>
						</g>
					</g>
				</g>
				<g id="text_6">
					<g transform="translate(93.37 611.324735) scale(0.1 -0.1)">
						<g>
							<path id="DejaVuSans-30_00000150813503132024553970000009982036548877523872_" d="M31.8,66.4c-5.1,0-8.9-2.5-11.5-7.5
								c-2.6-5-3.8-12.5-3.8-22.5c0-10,1.3-17.5,3.8-22.5c2.6-5,6.4-7.5,11.5-7.5c5.1,0,8.9,2.5,11.5,7.5c2.6,5,3.8,12.5,3.8,22.5
								c0,10-1.3,17.5-3.8,22.5C40.7,63.9,36.9,66.4,31.8,66.4z M31.8,74.2c8.2,0,14.4-3.2,18.7-9.7c4.3-6.5,6.5-15.8,6.5-28.1
								c0-12.3-2.2-21.6-6.5-28.1C46.2,1.8,40-1.4,31.8-1.4c-8.2,0-14.4,3.2-18.7,9.7c-4.3,6.5-6.5,15.8-6.5,28.1
								c0,12.3,2.2,21.7,6.5,28.1C17.4,71,23.6,74.2,31.8,74.2z"/>
						</g>
						<g>
							<path id="DejaVuSans-20_00000062884353435602436420000007779919243145745573_" d="M63.6,0"/>
						</g>
						<g>
							<path id="DejaVuSans-64" d="M140.8,46.4V76h9V0h-9v8.2c-1.9-3.3-4.3-5.7-7.2-7.3c-2.9-1.6-6.3-2.4-10.4-2.4
								c-6.6,0-12,2.6-16.1,7.9c-4.1,5.3-6.2,12.2-6.2,20.8s2.1,15.5,6.2,20.8c4.2,5.3,9.5,7.9,16.1,7.9c4,0,7.5-0.8,10.4-2.4
								C136.5,52.1,138.9,49.6,140.8,46.4z M110.2,27.3c0-6.6,1.4-11.8,4.1-15.5s6.5-5.6,11.2-5.6s8.5,1.9,11.2,5.6
								c2.7,3.8,4.1,8.9,4.1,15.5s-1.4,11.8-4.1,15.5c-2.7,3.8-6.5,5.6-11.2,5.6s-8.5-1.9-11.2-5.6S110.2,33.9,110.2,27.3z"/>
						</g>
						<g>
							<path id="DejaVuSans-42" d="M178.6,34.8V8.1h15.8c5.3,0,9.2,1.1,11.8,3.3c2.6,2.2,3.8,5.6,3.8,10.1c0,4.6-1.3,7.9-3.8,10.1
								c-2.6,2.2-6.5,3.2-11.8,3.2H178.6z M178.6,64.8v-22h14.6c4.8,0,8.4,0.9,10.8,2.7c2.4,1.8,3.5,4.6,3.5,8.3
								c0,3.7-1.2,6.4-3.5,8.2c-2.4,1.8-5.9,2.7-10.8,2.7H178.6z M168.7,72.9h25.2c7.5,0,13.3-1.6,17.4-4.7
								c4.1-3.1,6.1-7.6,6.1-13.3c0-4.5-1-8-3.1-10.7s-5.1-4.3-9.2-4.9c4.9-1,8.6-3.2,11.3-6.5c2.7-3.3,4-7.4,4-12.4
								c0-6.5-2.2-11.5-6.6-15.1C209.4,1.8,203,0,194.9,0h-26.2V72.9z"/>
						</g>
					</g>
				</g>
			</g>
			<g id="ytick_2">
				<g id="line2d_11">
					<g>
						<defs>
							<rect id="SVGID_00000093893318640047529160000005483667598282928290_" x="123.1" y="72.4" width="800.3" height="571.6"/>
						</defs>
						<clipPath id="SVGID_00000088092607549557272200000000050896638681901233_">
							<use xlink:href="#SVGID_00000093893318640047529160000005483667598282928290_"  style="overflow:visible;"/>
						</clipPath>
						
							<path style="clip-path:url(#SVGID_00000088092607549557272200000000050896638681901233_);fill:none;stroke:#808080;stroke-width:0.5;stroke-linecap:square;stroke-linejoin:round;" d="
							M123.1,483.8h800.3"/>
					</g>
				</g>
				<g id="line2d_12">
					<g>
						<g>
							<path id="m342741fce5_00000026874853708960275340000003752890604481672354_" class="st2" d="M123.1,483.8h-3.5"/>
						</g>
					</g>
				</g>
				<g id="text_7">
					<g transform="translate(89.762188 487.63552) scale(0.1 -0.1)">
						<g>
							<path id="DejaVuSans-2d" d="M4.9,31.4h26.3v-8H4.9V31.4z"/>
						</g>
						<g>
							<path id="DejaVuSans-36" d="M69.1,40.4c-4.4,0-7.9-1.5-10.5-4.5c-2.6-3-3.9-7.2-3.9-12.4c0-5.2,1.3-9.4,3.9-12.4
								c2.6-3,6.1-4.6,10.5-4.6c4.4,0,7.9,1.5,10.5,4.6c2.6,3.1,3.9,7.2,3.9,12.4c0,5.3-1.3,9.4-3.9,12.4
								C77,38.9,73.5,40.4,69.1,40.4z M88.7,71.3v-9c-2.5,1.2-5,2.1-7.5,2.7c-2.5,0.6-5,0.9-7.5,0.9c-6.5,0-11.5-2.2-14.9-6.6
								c-3.4-4.4-5.4-11-5.9-19.9c1.9,2.8,4.3,5,7.2,6.5c2.9,1.5,6.1,2.3,9.6,2.3c7.3,0,13.1-2.2,17.4-6.7
								c4.2-4.4,6.4-10.5,6.4-18.1c0-7.5-2.2-13.5-6.6-18c-4.4-4.5-10.3-6.8-17.7-6.8c-8.4,0-14.9,3.2-19.3,9.7
								c-4.5,6.5-6.7,15.8-6.7,28.1c0,11.5,2.7,20.7,8.2,27.6s12.8,10.3,22,10.3c2.5,0,5-0.2,7.5-0.7C83.3,73,85.9,72.3,88.7,71.3z"
								/>
						</g>
						<g>
							<path id="DejaVuSans-20_00000141448529388956938820000000559617921962037158_" d="M99.7,0"/>
						</g>
						<g>
							<path id="DejaVuSans-64_00000049919909372565564680000017298855349377586851_" d="M176.9,46.4V76h9V0h-9v8.2
								C175,5,172.6,2.5,169.7,1c-2.9-1.6-6.3-2.4-10.4-2.4c-6.6,0-12,2.6-16.1,7.9c-4.1,5.3-6.2,12.2-6.2,20.8s2.1,15.5,6.2,20.8
								c4.2,5.3,9.5,7.9,16.1,7.9c4,0,7.5-0.8,10.4-2.4C172.6,52.1,175,49.6,176.9,46.4z M146.3,27.3c0-6.6,1.4-11.8,4.1-15.5
								s6.5-5.6,11.2-5.6s8.5,1.9,11.2,5.6c2.7,3.8,4.1,8.9,4.1,15.5s-1.4,11.8-4.1,15.5c-2.7,3.8-6.5,5.6-11.2,5.6
								s-8.5-1.9-11.2-5.6S146.3,33.9,146.3,27.3z"/>
						</g>
						<g>
							<path id="DejaVuSans-42_00000119119039030153015940000002937690401967525520_" d="M214.6,34.8V8.1h15.8
								c5.3,0,9.2,1.1,11.8,3.3c2.6,2.2,3.8,5.6,3.8,10.1c0,4.6-1.3,7.9-3.8,10.1c-2.6,2.2-6.5,3.2-11.8,3.2H214.6z M214.6,64.8v-22
								h14.6c4.8,0,8.4,0.9,10.8,2.7c2.4,1.8,3.5,4.6,3.5,8.3c0,3.7-1.2,6.4-3.5,8.2c-2.4,1.8-5.9,2.7-10.8,2.7H214.6z M204.8,72.9
								H230c7.5,0,13.3-1.6,17.4-4.7c4.1-3.1,6.1-7.6,6.1-13.3c0-4.5-1-8-3.1-10.7s-5.1-4.3-9.2-4.9c4.9-1,8.6-3.2,11.3-6.5
								c2.7-3.3,4-7.4,4-12.4c0-6.5-2.2-11.5-6.6-15.1C245.4,1.8,239.1,0,231,0h-26.2V72.9z"/>
						</g>
					</g>
				</g>
			</g>
			<g id="ytick_3">
				<g id="line2d_13">
					<g>
						<defs>
							<rect id="SVGID_00000057870246625721081410000008862094772825565603_" x="123.1" y="72.4" width="800.3" height="571.6"/>
						</defs>
						<clipPath id="SVGID_00000166673391612904748280000007464769353533783717_">
							<use xlink:href="#SVGID_00000057870246625721081410000008862094772825565603_"  style="overflow:visible;"/>
						</clipPath>
						
							<path style="clip-path:url(#SVGID_00000166673391612904748280000007464769353533783717_);fill:none;stroke:#808080;stroke-width:0.5;stroke-linecap:square;stroke-linejoin:round;" d="
							M123.1,360.1h800.3"/>
					</g>
				</g>
				<g id="line2d_14">
					<g>
						<g>
							<path id="m342741fce5_00000168119180645529845750000004163764796784231845_" class="st2" d="M123.1,360.1h-3.5"/>
						</g>
					</g>
				</g>
				<g id="text_8">
					<g transform="translate(87.795 363.946306) scale(0.1 -0.1)">
						<g>
							<path id="DejaVuSans-2d_00000113331158383003972230000005948342402261065626_" d="M4.9,31.4h26.3v-8H4.9V31.4z"/>
						</g>
						<g>
							<path id="DejaVuSans-221e" d="M81.6,17c-1,1.2-2.3,3.1-3.9,5.9c-2.2-3.9-4.2-6.7-6.2-8.5c-2.4-2.1-5.5-3.1-9.2-3.1
								c-4.4,0-8,1.6-10.9,4.9c-3.1,3.4-4.6,8-4.6,13.7c0,5.5,1.5,10.1,4.6,13.8c2.7,3.3,6.4,4.9,11,4.9c2.4,0,4.4-0.5,6.2-1.5
								c2.1-1.1,3.8-2.5,5.2-4.4c1.3-1.7,2.6-3.6,3.9-5.9c2.2,3.9,4.2,6.7,6.1,8.4c2.4,2.1,5.5,3.1,9.2,3.1c4.4,0,8-1.6,10.9-4.9
								c3.1-3.5,4.6-8,4.6-13.7c0-5.5-1.5-10.1-4.6-13.8c-2.7-3.3-6.4-4.9-11-4.9c-2.4,0-4.4,0.5-6.2,1.5C85.1,13.5,83.3,15,81.6,17
								z M61.8,17.7c5.4,0,9.7,3.9,12.9,11.7c-4.1,8.5-8.4,12.8-12.9,12.8c-3.3,0-5.7-1.2-7.4-3.5c-1.8-2.5-2.7-5.4-2.7-8.7
								c0-3.6,0.9-6.6,2.7-8.8C56.3,18.9,58.7,17.7,61.8,17.7z M93.6,42.1c-4.8,0-9.1-3.9-12.9-11.7c4.1-8.5,8.4-12.8,12.9-12.8
								c3.3,0,5.7,1.2,7.4,3.5c1.8,2.5,2.7,5.4,2.7,8.8c0,3.6-0.9,6.6-2.7,8.8C99.2,41,96.7,42.1,93.6,42.1z"/>
						</g>
						<g>
							<path id="DejaVuSans-20_00000129199322927409718390000003128624076075898804_" d="M119.4,0"/>
						</g>
						<g>
							<path id="DejaVuSans-64_00000014595064495397425370000012292985603999276468_" d="M196.6,46.4V76h9V0h-9v8.2
								c-1.9-3.3-4.3-5.7-7.2-7.3c-2.9-1.6-6.3-2.4-10.4-2.4c-6.6,0-12,2.6-16.1,7.9c-4.1,5.3-6.2,12.2-6.2,20.8s2.1,15.5,6.2,20.8
								c4.2,5.3,9.5,7.9,16.1,7.9c4,0,7.5-0.8,10.4-2.4C192.3,52.1,194.7,49.6,196.6,46.4z M166,27.3c0-6.6,1.4-11.8,4.1-15.5
								s6.5-5.6,11.2-5.6s8.5,1.9,11.2,5.6c2.7,3.8,4.1,8.9,4.1,15.5s-1.4,11.8-4.1,15.5c-2.7,3.8-6.5,5.6-11.2,5.6
								s-8.5-1.9-11.2-5.6S166,33.9,166,27.3z"/>
						</g>
						<g>
							<path id="DejaVuSans-42_00000021810518053108367240000016915061758764598436_" d="M234.3,34.8V8.1h15.8
								c5.3,0,9.2,1.1,11.8,3.3c2.6,2.2,3.8,5.6,3.8,10.1c0,4.6-1.3,7.9-3.8,10.1c-2.6,2.2-6.5,3.2-11.8,3.2H234.3z M234.3,64.8v-22
								h14.6c4.8,0,8.4,0.9,10.8,2.7c2.4,1.8,3.5,4.6,3.5,8.3c0,3.7-1.2,6.4-3.5,8.2c-2.4,1.8-5.9,2.7-10.8,2.7H234.3z M224.5,72.9
								h25.2c7.5,0,13.3-1.6,17.4-4.7c4.1-3.1,6.1-7.6,6.1-13.3c0-4.5-1-8-3.1-10.7c-2.1-2.6-5.1-4.3-9.2-4.9
								c4.9-1,8.6-3.2,11.3-6.5c2.7-3.3,4-7.4,4-12.4c0-6.5-2.2-11.5-6.6-15.1C265.1,1.8,258.8,0,250.6,0h-26.2V72.9z"/>
						</g>
					</g>
				</g>
			</g>
			<g id="ytick_4">
				<g id="line2d_15">
					<g>
						<defs>
							<rect id="SVGID_00000057833987496572341690000011104785466794991243_" x="123.1" y="72.4" width="800.3" height="571.6"/>
						</defs>
						<clipPath id="SVGID_00000165957260330767967530000017596335475820317850_">
							<use xlink:href="#SVGID_00000057833987496572341690000011104785466794991243_"  style="overflow:visible;"/>
						</clipPath>
						
							<path style="clip-path:url(#SVGID_00000165957260330767967530000017596335475820317850_);fill:none;stroke:#808080;stroke-width:0.5;stroke-linecap:square;stroke-linejoin:round;" d="
							M123.1,236.5h800.3"/>
					</g>
				</g>
				<g id="line2d_16">
					<g>
						<g>
							<path id="m342741fce5_00000116194141055527547410000004153420848294424740_" class="st2" d="M123.1,236.5h-3.5"/>
						</g>
					</g>
				</g>
				<g id="text_9">
					<g transform="translate(89.762188 240.257092) scale(0.1 -0.1)">
						<g>
							<path id="DejaVuSans-2d_00000023970608587789105610000009411726461876815013_" d="M4.9,31.4h26.3v-8H4.9V31.4z"/>
						</g>
						<g>
							<path id="DejaVuSans-36_00000095322295707586444760000015538268769852563871_" d="M69.1,40.4c-4.4,0-7.9-1.5-10.5-4.5
								c-2.6-3-3.9-7.2-3.9-12.4c0-5.2,1.3-9.4,3.9-12.4c2.6-3,6.1-4.6,10.5-4.6c4.4,0,7.9,1.5,10.5,4.6c2.6,3.1,3.9,7.2,3.9,12.4
								c0,5.3-1.3,9.4-3.9,12.4C77,38.9,73.5,40.4,69.1,40.4z M88.7,71.3v-9c-2.5,1.2-5,2.1-7.5,2.7c-2.5,0.6-5,0.9-7.5,0.9
								c-6.5,0-11.5-2.2-14.9-6.6c-3.4-4.4-5.4-11-5.9-19.9c1.9,2.8,4.3,5,7.2,6.5c2.9,1.5,6.1,2.3,9.6,2.3c7.3,0,13.1-2.2,17.4-6.7
								c4.2-4.4,6.4-10.5,6.4-18.1c0-7.5-2.2-13.5-6.6-18c-4.4-4.5-10.3-6.8-17.7-6.8c-8.4,0-14.9,3.2-19.3,9.7
								c-4.5,6.5-6.7,15.8-6.7,28.1c0,11.5,2.7,20.7,8.2,27.6s12.8,10.3,22,10.3c2.5,0,5-0.2,7.5-0.7C83.3,73,85.9,72.3,88.7,71.3z"
								/>
						</g>
						<g>
							<path id="DejaVuSans-20_00000062910428763482304940000004098830417312871871_" d="M99.7,0"/>
						</g>
						<g>
							<path id="DejaVuSans-64_00000179612040681031536230000002213907376808090504_" d="M176.9,46.4V76h9V0h-9v8.2
								C175,5,172.6,2.5,169.7,1c-2.9-1.6-6.3-2.4-10.4-2.4c-6.6,0-12,2.6-16.1,7.9c-4.1,5.3-6.2,12.2-6.2,20.8s2.1,15.5,6.2,20.8
								c4.2,5.3,9.5,7.9,16.1,7.9c4,0,7.5-0.8,10.4-2.4C172.6,52.1,175,49.6,176.9,46.4z M146.3,27.3c0-6.6,1.4-11.8,4.1-15.5
								s6.5-5.6,11.2-5.6s8.5,1.9,11.2,5.6c2.7,3.8,4.1,8.9,4.1,15.5s-1.4,11.8-4.1,15.5c-2.7,3.8-6.5,5.6-11.2,5.6
								s-8.5-1.9-11.2-5.6S146.3,33.9,146.3,27.3z"/>
						</g>
						<g>
							<path id="DejaVuSans-42_00000101086716571512354070000002803832572495112623_" d="M214.6,34.8V8.1h15.8
								c5.3,0,9.2,1.1,11.8,3.3c2.6,2.2,3.8,5.6,3.8,10.1c0,4.6-1.3,7.9-3.8,10.1c-2.6,2.2-6.5,3.2-11.8,3.2H214.6z M214.6,64.8v-22
								h14.6c4.8,0,8.4,0.9,10.8,2.7c2.4,1.8,3.5,4.6,3.5,8.3c0,3.7-1.2,6.4-3.5,8.2c-2.4,1.8-5.9,2.7-10.8,2.7H214.6z M204.8,72.9
								H230c7.5,0,13.3-1.6,17.4-4.7c4.1-3.1,6.1-7.6,6.1-13.3c0-4.5-1-8-3.1-10.7s-5.1-4.3-9.2-4.9c4.9-1,8.6-3.2,11.3-6.5
								c2.7-3.3,4-7.4,4-12.4c0-6.5-2.2-11.5-6.6-15.1C245.4,1.8,239.1,0,231,0h-26.2V72.9z"/>
						</g>
					</g>
				</g>
			</g>
			<g id="ytick_5">
				<g id="line2d_17">
					<g>
						<defs>
							<rect id="SVGID_00000140726669453194390030000010062347714558684050_" x="123.1" y="72.4" width="800.3" height="571.6"/>
						</defs>
						<clipPath id="SVGID_00000136378490840103526310000007693403870017331618_">
							<use xlink:href="#SVGID_00000140726669453194390030000010062347714558684050_"  style="overflow:visible;"/>
						</clipPath>
						
							<path style="clip-path:url(#SVGID_00000136378490840103526310000007693403870017331618_);fill:none;stroke:#808080;stroke-width:0.5;stroke-linecap:square;stroke-linejoin:round;" d="
							M123.1,112.8h800.3"/>
					</g>
				</g>
				<g id="line2d_18">
					<g>
						<g>
							<path id="m342741fce5_00000000933500026169812630000002131123995684710549_" class="st2" d="M123.1,112.8h-3.5"/>
						</g>
					</g>
				</g>
				<g id="text_10">
					<g transform="translate(93.37 116.567878) scale(0.1 -0.1)">
						<g>
							<path id="DejaVuSans-30_00000056421888179421316210000009974847645198329741_" d="M31.8,66.4c-5.1,0-8.9-2.5-11.5-7.5
								c-2.6-5-3.8-12.5-3.8-22.5c0-10,1.3-17.5,3.8-22.5c2.6-5,6.4-7.5,11.5-7.5c5.1,0,8.9,2.5,11.5,7.5c2.6,5,3.8,12.5,3.8,22.5
								c0,10-1.3,17.5-3.8,22.5C40.7,63.9,36.9,66.4,31.8,66.4z M31.8,74.2c8.2,0,14.4-3.2,18.7-9.7c4.3-6.5,6.5-15.8,6.5-28.1
								c0-12.3-2.2-21.6-6.5-28.1C46.2,1.8,40-1.4,31.8-1.4c-8.2,0-14.4,3.2-18.7,9.7c-4.3,6.5-6.5,15.8-6.5,28.1
								c0,12.3,2.2,21.7,6.5,28.1C17.4,71,23.6,74.2,31.8,74.2z"/>
						</g>
						<g>
							<path id="DejaVuSans-20_00000010272814599503381510000002499307459240317593_" d="M63.6,0"/>
						</g>
						<g>
							<path id="DejaVuSans-64_00000082337545719524410230000005787570997078120338_" d="M140.8,46.4V76h9V0h-9v8.2
								c-1.9-3.2-4.3-5.7-7.2-7.2c-2.9-1.6-6.3-2.4-10.4-2.4c-6.6,0-12,2.6-16.1,7.9c-4.1,5.3-6.2,12.2-6.2,20.8s2.1,15.5,6.2,20.8
								c4.2,5.3,9.5,7.9,16.1,7.9c4,0,7.5-0.8,10.4-2.4C136.5,52.1,138.9,49.6,140.8,46.4z M110.2,27.3c0-6.6,1.4-11.8,4.1-15.5
								s6.5-5.6,11.2-5.6s8.5,1.9,11.2,5.6c2.7,3.8,4.1,8.9,4.1,15.5s-1.4,11.8-4.1,15.5c-2.7,3.8-6.5,5.6-11.2,5.6
								s-8.5-1.9-11.2-5.6S110.2,33.9,110.2,27.3z"/>
						</g>
						<g>
							<path id="DejaVuSans-42_00000070813451958662040620000017108251559246174620_" d="M178.6,34.8V8.1h15.8
								c5.3,0,9.2,1.1,11.8,3.3c2.6,2.2,3.8,5.6,3.8,10.1c0,4.6-1.3,7.9-3.8,10.1c-2.6,2.2-6.5,3.2-11.8,3.2H178.6z M178.6,64.8v-22
								h14.6c4.8,0,8.4,0.9,10.8,2.7c2.4,1.8,3.5,4.6,3.5,8.3c0,3.7-1.2,6.4-3.5,8.2c-2.4,1.8-5.9,2.7-10.8,2.7H178.6z M168.7,72.9
								h25.2c7.5,0,13.3-1.6,17.4-4.7c4.1-3.1,6.1-7.6,6.1-13.3c0-4.5-1-8-3.1-10.7s-5.1-4.3-9.2-4.9c4.9-1,8.6-3.2,11.3-6.5
								c2.7-3.3,4-7.4,4-12.4c0-6.5-2.2-11.5-6.6-15.1C209.4,1.8,203,0,194.9,0h-26.2V72.9z"/>
						</g>
					</g>
				</g>
			</g>
			<g id="text_11">
				<g transform="translate(81.715312 395.899969) rotate(-90) scale(0.1 -0.1)">
					<g>
						<path id="DejaVuSans-41" d="M34.2,63.2L20.8,26.9h26.8L34.2,63.2z M28.6,72.9h11.2L67.6,0H57.3l-6.6,18.7H17.8L11.2,0H0.8
							L28.6,72.9z"/>
					</g>
					<g>
						<path id="DejaVuSans-6d_00000075875894139093164460000010202688885543113101_" d="M120.4,44.2c2.2,4,4.9,7,8.1,8.9
							s6.8,2.9,11,2.9c5.7,0,10.1-2,13.2-6c3.1-4,4.6-9.6,4.6-17V0h-9v32.7c0,5.2-0.9,9.1-2.8,11.7c-1.9,2.5-4.7,3.8-8.5,3.8
							c-4.7,0-8.3-1.5-11-4.6c-2.7-3.1-4-7.3-4-12.6V0h-9v32.7c0,5.3-0.9,9.2-2.8,11.7c-1.9,2.5-4.7,3.8-8.6,3.8
							c-4.6,0-8.2-1.6-11-4.7c-2.7-3.1-4-7.3-4-12.6V0h-9v54.7h9v-8.5c2.1,3.4,4.5,5.8,7.4,7.4c2.9,1.6,6.3,2.4,10.2,2.4
							c4,0,7.4-1,10.1-3C117,51,119.1,48,120.4,44.2z"/>
					</g>
					<g>
						<path id="DejaVuSans-70" d="M183.9,8.2v-29h-9v75.5h9v-8.3c1.9,3.2,4.3,5.7,7.2,7.2c2.9,1.6,6.3,2.4,10.3,2.4
							c6.6,0,12-2.6,16.2-7.9c4.2-5.3,6.2-12.2,6.2-20.8s-2.1-15.5-6.2-20.8c-4.1-5.3-9.5-7.9-16.2-7.9c-4,0-7.4,0.8-10.3,2.4
							C188.2,2.5,185.8,5,183.9,8.2z M214.5,27.3c0,6.6-1.4,11.8-4.1,15.5s-6.5,5.6-11.2,5.6c-4.8,0-8.5-1.9-11.2-5.6
							s-4.1-8.9-4.1-15.5s1.4-11.8,4.1-15.5s6.5-5.6,11.2-5.6c4.8,0,8.5,1.9,11.2,5.6S214.5,20.7,214.5,27.3z"/>
					</g>
					<g>
						<path id="DejaVuSans-6c" d="M238.7,76h9V0h-9V76z"/>
					</g>
					<g>
						<path id="DejaVuSans-69_00000157989865530820934220000007716394207525176977_" d="M266.5,54.7h9V0h-9V54.7z M266.5,76h9V64.6
							h-9V76z"/>
					</g>
					<g>
						<path id="DejaVuSans-74" d="M303.2,70.2V54.7h18.5v-7h-18.5V18c0-4.5,0.6-7.3,1.8-8.6s3.7-1.9,7.5-1.9h9.2V0h-9.2
							c-6.9,0-11.7,1.3-14.4,3.9c-2.6,2.6-4,7.3-4,14.1v29.7h-6.6v7h6.6v15.5H303.2z"/>
					</g>
					<g>
						<path id="DejaVuSans-75" d="M332.6,21.6v33.1h9V21.9c0-5.2,1-9.1,3-11.7c2-2.6,5.1-3.9,9.1-3.9c4.8,0,8.7,1.5,11.5,4.6
							c2.8,3.1,4.2,7.3,4.2,12.7v31h9V0h-9v8.4c-2.2-3.3-4.7-5.8-7.6-7.4c-2.9-1.6-6.2-2.4-10-2.4c-6.3,0-11.1,2-14.3,5.9
							C334.2,8.3,332.6,14.1,332.6,21.6z M355.2,56L355.2,56z"/>
					</g>
					<g>
						<path id="DejaVuSans-64_00000049901846862537703690000003571796970955799426_" d="M432.9,46.4V76h9V0h-9v8.2
							C431,5,428.6,2.5,425.7,1c-2.9-1.6-6.3-2.4-10.4-2.4c-6.6,0-12,2.6-16.1,7.9c-4.1,5.3-6.2,12.2-6.2,20.8s2.1,15.5,6.2,20.8
							c4.2,5.3,9.5,7.9,16.1,7.9c4,0,7.5-0.8,10.4-2.4C428.6,52.1,431,49.6,432.9,46.4z M402.2,27.3c0-6.6,1.4-11.8,4.1-15.5
							s6.5-5.6,11.2-5.6s8.5,1.9,11.2,5.6c2.7,3.8,4.1,8.9,4.1,15.5s-1.4,11.8-4.1,15.5c-2.7,3.8-6.5,5.6-11.2,5.6
							s-8.5-1.9-11.2-5.6S402.2,33.9,402.2,27.3z"/>
					</g>
					<g>
						<path id="DejaVuSans-65_00000088130350866729542520000009404503723431084968_" d="M507.1,29.6v-4.4h-41.3
							c0.4-6.2,2.3-10.9,5.6-14.1s8-4.9,13.9-4.9c3.4,0,6.8,0.4,10,1.3s6.5,2.1,9.7,3.8V2.8c-3.2-1.4-6.5-2.4-9.9-3.1
							s-6.8-1.1-10.3-1.1c-8.7,0-15.6,2.5-20.7,7.6c-5.1,5.1-7.6,12-7.6,20.6c0,8.9,2.4,16,7.2,21.3c4.8,5.3,11.4,7.9,19.6,7.9
							c7.4,0,13.2-2.4,17.5-7.1C505,44.2,507.1,37.7,507.1,29.6z M498.1,32.2c-0.1,4.9-1.4,8.8-4.1,11.8c-2.7,2.9-6.2,4.4-10.7,4.4
							c-5,0-9-1.4-12-4.2s-4.7-6.8-5.2-12L498.1,32.2z"/>
					</g>
					<g>
						<path id="DejaVuSans-20_00000036933098883725699520000013481369623558812596_" d="M512.5,0"/>
					</g>
					<g>
						<path id="DejaVuSans-5b_00000085950903331161789920000017033188275882376842_" d="M552.8,76h20.7v-7h-11.7V-6.2h11.7v-7h-20.7
							V76z"/>
					</g>
					<g>
						<path id="DejaVuSans-64_00000009581148021539239640000009394000021849060254_" d="M628.7,46.4V76h9V0h-9v8.2
							c-1.9-3.3-4.3-5.7-7.2-7.3c-2.9-1.6-6.3-2.4-10.4-2.4c-6.6,0-12,2.6-16.1,7.9c-4.1,5.3-6.2,12.2-6.2,20.8s2.1,15.5,6.2,20.8
							c4.2,5.3,9.5,7.9,16.1,7.9c4,0,7.5-0.8,10.4-2.4C624.4,52.1,626.8,49.6,628.7,46.4z M598,27.3c0-6.6,1.4-11.8,4.1-15.5
							s6.5-5.6,11.2-5.6s8.5,1.9,11.2,5.6c2.7,3.8,4.1,8.9,4.1,15.5s-1.4,11.8-4.1,15.5c-2.7,3.8-6.5,5.6-11.2,5.6
							s-8.5-1.9-11.2-5.6S598,33.9,598,27.3z"/>
					</g>
					<g>
						<path id="DejaVuSans-42_00000112612480614286146960000007538694725920318351_" d="M666.4,34.8V8.1h15.8
							c5.3,0,9.2,1.1,11.8,3.3c2.6,2.2,3.8,5.6,3.8,10.1c0,4.6-1.3,7.9-3.8,10.1c-2.6,2.2-6.5,3.3-11.8,3.3H666.4z M666.4,64.8v-22
							H681c4.8,0,8.4,0.9,10.8,2.7c2.4,1.8,3.5,4.6,3.5,8.3c0,3.7-1.2,6.4-3.5,8.2c-2.4,1.8-5.9,2.7-10.8,2.7H666.4z M656.5,72.9
							h25.2c7.5,0,13.3-1.6,17.4-4.7c4.1-3.1,6.1-7.6,6.1-13.3c0-4.5-1-8-3.1-10.7s-5.1-4.3-9.2-4.9c4.9-1,8.6-3.2,11.3-6.5
							c2.7-3.3,4-7.4,4-12.4c0-6.5-2.2-11.5-6.6-15.1C697.2,1.8,690.9,0,682.7,0h-26.2V72.9z"/>
					</g>
					<g>
						<path id="DejaVuSans-5d_00000039093728392465935920000006528237563647664769_" d="M745.8,76v-89.2h-20.7v7h11.7V69h-11.7v7
							H745.8z"/>
					</g>
				</g>
			</g>
		</g>
		<g id="line2d_19">
			<g>
				<defs>
					<rect id="SVGID_00000059309853865077723920000014170627744672441488_" x="123.1" y="72.4" width="800.3" height="571.6"/>
				</defs>
				<clipPath id="SVGID_00000080184203337459892440000016318430388878911372_">
					<use xlink:href="#SVGID_00000059309853865077723920000014170627744672441488_"  style="overflow:visible;"/>
				</clipPath>
				
					<path style="clip-path:url(#SVGID_00000080184203337459892440000016318430388878911372_);fill:none;stroke:#1F77B4;stroke-width:1.5;stroke-linecap:square;stroke-linejoin:round;" d="
					M122.9,360.1h61.2l1.2,9.2l0.8,7.6l0.8,9.4l0.8,11.9l0.8,15.1l1.2,27.4l3.5,41.3l0.8,6.3l0.4,2l0.4,1.2l0.4,0.7l0.4-1.2l0.4-8.3
					l0.4-27.1l1.2-158l0.4-30.5l0.8-36.4l0.4-10l0.8-3.2l0.8-2.1l0.8-1.5l0.8-1.2l1.2-1.3l1.2-0.9l0.8-0.4l0.4,0l0.4,0.2l0.4,0.9
					l0.4,2.5l0.4,6.2l0.4,12.9l0.8,46.5l0.8,43.8l0.8,26.2l0.8,16.4l0.8,11.5l0.8,8.5l0.8,6.3l0.8,4.6l0.8,3.4l0.8,2.6l1.2,3
					l0.8,1.5l1.2,1.6l1.6,1.7l1.2,0.9l1.2,0.5l1.2,0.3l1.6,0.2l1.6-0.1l1.6-0.4l0.8-0.4l0.8-0.6l0.8-0.8l1.2-1.5l1.2-1.9l1.2-2.5
					l6.7-15.6l1.6-2.7l1.2-1.6l2-2.1l2.4-2.2l2.7-2.4l1.6-1.2l2.7-1.7l2.4-1.1l2-0.7l2.7-0.9l1.6-0.9l1.6-1.2l2.7-2.2l3.1-2.5
					l1.6-0.9l1.6-0.6l6.3-1.7l2.4-1l1.6-0.9l1.2-0.8l1.2-0.8l2.7-1.5l1.6-0.4l1.6-0.3l1.2-0.2l0.8-0.2l9.4-0.5l1.6-0.2l2.4,0.1
					l1.6-0.8l1.6,0.2l0.4-0.1l0.8-0.6l0.8-0.7l0.8-0.3l1.2,0l1.2,0.1l0.8-0.2l0.8-0.6l1.6-1.6l0.8-0.4l0.8-0.1l0.8,0.2l1.6,0.8
					l0.4,0l0.4-0.2l0.4-0.5l0.4-1.5l0.4-3.6l0.4-7.2l1.2-32.2l0.4-3.8l0.4-1.2l0.4-0.2l0.4,0.1l0.4,0.2l0.4,0.5l0.4,0.8l0.4,1.2
					l0.4,1.8l0.4,2.7l0.4,4.3l0.4,6.6l0.4,9.6l0.8,28l1.6,62.5l0.8,26.6l0.8,19.7l0.8,13.4l0.8,9.2l0.8,6.6l0.8,4.9l0.8,3.7l0.4,1.3
					l0.4,0.7l0.4,0.1l0.4-0.2l0.4-0.6l0.4-1.8l0.4-4.9l0.4-10.8l1.2-49.3l0.4-6.9l0.4-2.6l0.4-0.6l0.4,0l0.4,0.2l0.4,0.5l0.4,1.1
					l0.8,4.1l0.4,2.1l0.4,1.4l0.4,0.7l0.4,0.2l0.4,0l0.4-0.2l0.4-0.4l0.4-1l0.4-1.9l0.4-3.3l0.4-5.2l0.4-7.8l0.4-11.3l0.4-16.1
					l0.8-49.8l0.8-49.7l0.8-29.5l0.8-17.2l0.8-10.8l0.8-7.3l0.8-5.2l0.8-3.9l0.8-3l0.8-2.4l0.8-1.8l0.4-0.5l0.4-0.2l0.4,0l0.4,0.1
					l0.4,0.4l0.4,1l0.4,2l0.4,3.8l0.4,6.4l0.4,9.9l0.8,28.8l0.8,29.8l0.8,22.1l0.8,16.4l0.8,13.2l0.8,10.5l0.8,8l1.2,9.3l0.8,4.6
					l1.2,5l1.2,3.9l0.8,2l1.2,2.2l1.2,1.9l1.6,1.8l0.8,0.7l1.2,0.7l1.2,0.4l1.2,0.3l1.6,0.1l2.4-0.1l1.2-0.2l1.2-0.4l0.8-0.4
					l1.2-0.9l1.2-1.3l2.4-2.9l7.1-7.2l1.6-0.9l3.1-1.7l1.6-1.2l2.4-1.4l1.6-0.3l2.7-0.6l5.5-2.2l0.8-0.3l1.2-0.9l1.6-1.4l1.2-1
					l1.6-0.9l0.8-0.2l2.4-0.4l1.2-0.4l1.6-0.3l2-0.9l2-0.2l0.8-0.4l1.6-1.1l1.6-0.8l0.8-0.8l0.8-0.9l0.8-0.5l1.2-0.1l1.2-0.2
					l1.2-0.5l1.6-0.7l0.8-0.1l1.6,0l0.8-0.2l0.8-0.3l0.8-0.1l2,0.1l0.8-0.2l1.2-0.4l3.1-0.2l0.8,0.1l1.6,0.6l0.8-0.2l0.4-0.3
					l0.4-0.6l0.8-1.6l0.4-0.5l0.4-0.2l0.8,0.1l0.4,0.3l1.6,1.6l0.8-0.1l0.4-0.3l0.4-0.7l0.4-1.1l1.6-6l0.4-0.8l0.4-0.3l0.4,0
					l0.4,0.1l0.4,0.3l0.4,0.6l0.4,1.1l1.2,4.5l0.4,0.9l0.4,0.5l0.4,0.1l0.4-0.1l0.4-0.2l0.4-0.4l0.4-0.8l0.4-1.3l0.4-2.1l0.4-3
					l0.8-9.2l1.6-22.2l0.4-3.3l0.4-2.2l0.4-1.4l0.4-0.9l0.4-0.5l0.4-0.2l0.8,0l0.8,0.2l0.4,0.2l0.4,0.3l0.4,0.6l0.4,1.1l0.4,2.2
					l0.4,4.3l0.4,8.8l0.4,16.9l1.6,97.6l0.8,24.5l0.8,14.6l0.8,9.4l0.8,6.1l0.4,1.5l0.4,0.6l0.4,0.1l0.8-0.2l0.4-0.4l0.4-0.6l0.8-2
					l1.6-5.4l2-7.3l1.6-6.3l0.8-2.5l0.8-1.6l0.8-0.8l1.6-1.1l0.4-0.6l0.4-1.2l0.4-2.5l0.4-5.2l0.4-10.8l0.4-21.1l1.6-140.6l0.8-29.8
					l0.8-16.4l0.8-10.2l0.8-6.8l0.8-4.9l0.8-3.7l0.8-2.8l1.2-3.2l0.4-0.9l0.4-0.3l0.8-0.1l0.8,0l0.4,0.2l0.4,0.4l0.4,0.9l0.4,1.8
					l0.4,3.3l0.4,5.5l0.4,8.4l0.8,24.3l1.2,39.6l1.2,31.9l0.8,16.4l0.8,11.5l0.8,8.3l0.8,6.6l0.8,4.8l0.8,3.3l2,6.6l0.8,1.9l2.7,5.6
					l0.8,0.9l0.8,0.6l0.8,0.4l1.2,0.2l1.6,0.4l3.9,1l1.2-0.1l0.8-0.2l1.2-0.7l4.3-2.8l0.8-0.7l0.8-1.2l1.2-1.9l2.4-2.9l0.8-0.6
					l1.2-0.3l0.8-0.2l0.8-0.4l1.6-1.3l1.6-1.5l1.2-1.3l0.8-0.4l2.4-0.4l3.9-1.9l0.8-0.4l0.8-0.2l2.7-0.4l0.8-0.4l0.8-0.8l1.2-1.2
					l0.8-0.5l1.2-0.6l2-1.3l0.8-0.1l1.2,0l0.8-0.3l1.6-1.1l0.8-0.1l2,0l3.1-0.8l0.8-0.3l0.8-0.7l1.2-1.1l0.8-0.4l1.2-0.5l0.8-0.6
					l1.2-1l0.8-0.3l1.2-0.1l0.8-0.1l0.8-0.4l1.6-1.3l0.8-0.1l0.8,0.1l1.6,0.5l0.8-0.1l0.8-0.5l1.6-1.5l0.4-0.2l0.8,0l0.4,0.2
					l0.4,0.3l1.6,2l0.4,0.1l0.8-0.1l0.4-0.3l0.8-1l0.8-1.1l0.4-0.3l0.4-0.1l0.8,0.2l0.4,0.3l2,2.2l0.8,0.1l0.8-0.2l0.4-0.3l0.4-0.5
					l0.8-1.8l0.8-2.6l0.8-2.8l0.4-1.1l0.4-0.8l0.4-0.4l0.4-0.1l0.8,0.1l0.4,0.3l0.4,0.6l0.4,0.9l0.8,3l0.8,2.9l0.4,0.7l0.4,0.3
					l0.4,0l0.4-0.1l0.4-0.3l0.4-0.6l0.4-1l0.8-3.1l1.2-4.8l1.2-4.1l0.4-1.9l0.4-2.5l0.4-3.5l0.4-4.9l0.8-14.6l1.2-24.8l0.4-4.7
					l0.4-2.5l0.4-0.9l0.4-0.1l0.4,0.2l0.4,0.6l0.4,1.9l0.4,5.5l0.4,13.6l0.4,26.8l0.8,70.1l0.4,25.2l0.8,31.1l0.8,17.2l0.8,10.6
					l0.8,7l0.8,4.4l0.8,2.9l0.8,1.7l0.4,0.4l0.4,0.2l0.8,0.1l0.4-0.1l0.4-0.2l0.4-0.4l0.4-0.7l0.4-1.2l0.4-1.7l0.8-4.9l1.2-7.6
					l0.8-3.7l0.4-1.3l0.4-0.9l0.4-0.5l0.4-0.3l0.8-0.1l0.8,0.2l1.6,0.7l0.4-0.1l0.4-0.2l0.4-0.7l0.4-2l0.4-5.3l0.4-13.5l0.4-30.1
					l0.8-94.5l0.4-32.6l0.4-21.8l0.8-25.9l0.8-14.5l0.8-9.1l0.8-6.2l0.8-4.5l0.8-3.4l0.8-2.6l1.2-3l0.8-1.5l0.4-0.5l1.2-0.2l0.4,0
					l0.4,0.1l0.4,0.4l0.4,0.9l0.4,1.8l0.4,3.4l0.4,5.6l0.4,8.2l0.8,24.6l1.6,56.6l0.8,17.9l0.8,10.6l1.2,10.5l2,15.2l2,11.9l0.8,4.7
					l0.8,3.3l0.4,1l0.8,1.2l1.6,1.4l1.2,0.8l1.6,0.8l0.8,0.7l1.2,1.3l0.8,0.5l1.2,0.4l1.2,0.1l1.6-0.1l2.4-0.2l1.6-0.2l0.8-0.3
					l0.8-0.7l0.8-1.2l1.2-1.9l0.8-0.7l2.7-1.9l2.4-0.8l0.4-0.4l0.8-1.3l0.8-1.4l0.4-0.4l0.8-0.4l1.6-0.5l1.2-0.8l1.2-0.7l1.6-0.8
					l0.8-0.7l1.2-1.4l0.8-0.5l0.8-0.1l1.6-0.1l1.2-0.4l2-0.9l0.8-0.6l2-1.8l0.8-0.3l1.6-0.5l0.8-0.6l1.6-1.3l0.8-0.3l2.4-0.3
					l2.4-0.8l3.1-0.3l0.8-0.5l2.4-2.3l0.8-0.2l2-0.2l0.4-0.2l0.4-0.3l0.8-1.2l1.2-2.1l0.4-0.3l0.4-0.1l0.8,0.1l0.8,0.5l0.8,0.5
					l0.8,0.1l0.8-0.3l0.4-0.3l0.8-1.1l0.8-1.2l0.4-0.3l0.4-0.1l0.8,0l0.8,0.3l1.6,1.1l0.8,0.2l1.2-0.1l1.2-0.4l2-0.9l0.8,0l0.8,0.3
					l0.4,0.3l0.8,1.2l1.2,2.4l0.4,0.5l0.4,0.2l0.8-0.1l0.4-0.3l0.4-0.7l0.4-1.2l0.4-1.9l1.2-7.1l0.4-1.4l0.4-0.7l0.4-0.2l0.8,0.1
					l0.4,0.2l0.4,0.4l2,2.8l0.8,0.3l2.4,0.4l0.8,0.5l0.8,0.9l0.8,1l0.4,0.3l0.4,0l0.4-0.1l0.4-0.4l0.4-1l0.4-2.4l0.4-5.1l0.4-9.3
					l1.6-54.1l0.4-7.3l0.4-4.4l0.4-2.4l0.4-1.1l0.4-0.4l0.4,0l0.4,0.1l0.4,0.5l0.4,1.4l0.4,3.4l0.4,7.7l0.4,14.9l0.8,50.5l0.8,48.9
					l0.8,34.4l0.8,24.6l0.8,16.6l0.8,11.1l0.8,7.4l0.8,4.5l0.8,2.7l0.4,0.8l0.4,0.6l0.4,0.3l0.4,0.1l0.8-0.2l0.4-0.3l0.4-0.6
					l0.4-0.9l0.8-2.9l1.2-6.2l0.8-4l0.4-1.4l0.4-0.8l0.4-0.4l0.4-0.1l0.8,0.1l0.8,0.4l0.8,0.9l0.8,1.5l0.8,1.5l0.4,0.2l0.4-0.1
					l0.4-0.3l0.4-1.1l0.4-3.5l0.4-10l0.4-24.5l1.2-133.6l0.4-25.1l0.4-17l0.8-21l0.8-12.2l0.8-7.9l0.8-5.5l0.8-4l0.8-3.1l0.8-2.4
					l1.2-2.8l1.2-2l0.4-0.4l0.4-0.2l0.8,0.1l0.4,0.2l0.4,0.5l0.4,1l0.4,1.9l0.4,3.2l0.4,5.1l0.8,16l2,47l3.1,68l0.8,9.1l1.2,9.5
					l0.8,5.3l0.8,3.7l0.4,1.1l0.4,0.7l0.8,0.8l1.2,0.9l0.8,1l2.4,3.9l2,1.8l0.8,0.6l0.8,0.3l2.4,0.3l0.8,0.5l1.2,1l0.8,0.2l0.8,0
					l1.2-0.4l1.2-0.6l1.2-0.9l1.2-1l0.8-0.4l2.4-0.8l0.8-0.7l2-2.2l1.6-1.3l1.2-0.8l1.2-0.5l1.2-0.4l0.8-0.6l0.8-1l1.6-2.5l0.8-0.7
					l0.8-0.3l1.6-0.3l1.2-0.6l2.4-1.2l2.7-1.2l1.2-1l1.2-1.1l0.8-0.4l2.4-0.7l0.8-0.7l1.2-1.5l0.8-0.5l0.8-0.1l0.8,0.2l1.2,0.4
					l0.8,0l0.8-0.3l0.8-0.7l0.8-0.8l0.8-0.4l0.8,0l2,0.4l0.8-0.3l0.4-0.4l0.4-0.5l0.8-1.6l0.8-1.6l0.4-0.5l0.4-0.3l0.8-0.3l1.2,0.1
					l1.6,0.3l0.8,0l0.8-0.2l0.8-0.5l2.4-1.8l0.8-0.3l0.8-0.1l0.8,0.2l0.8,0.5l0.8,0.6l0,0"/>
			</g>
		</g>
		<g id="line2d_20">
			<g>
				<defs>
					<rect id="SVGID_00000034048020110220877610000013168865710210016653_" x="123.1" y="72.4" width="800.3" height="571.6"/>
				</defs>
				<clipPath id="SVGID_00000152977512400937312900000004196987688417540781_">
					<use xlink:href="#SVGID_00000034048020110220877610000013168865710210016653_"  style="overflow:visible;"/>
				</clipPath>
				
					<path style="clip-path:url(#SVGID_00000152977512400937312900000004196987688417540781_);fill:none;stroke:#FF7F0E;stroke-width:1.5;stroke-linecap:square;stroke-linejoin:round;" d="
					M122.9,360.1h74.1l0.4-197.9h9.8l0.4,197.9h147.1l0.4-197.9h9.8l0.4,197.9h145.9l0.4-197.9h10.6l0.4,197.9h145.5l0.4-197.9h11
					l0.4,197.9h144.7l0.4-197.9h11.4l0.4,197.9h86.7l0,0"/>
			</g>
		</g>
		<g id="line2d_21">
			<g>
				<defs>
					<rect id="SVGID_00000111185242986103766230000004112848668627999365_" x="123.1" y="72.4" width="800.3" height="571.6"/>
				</defs>
				<clipPath id="SVGID_00000144313967205834462980000016523061409742317487_">
					<use xlink:href="#SVGID_00000111185242986103766230000004112848668627999365_"  style="overflow:visible;"/>
				</clipPath>
				
					<path style="clip-path:url(#SVGID_00000144313967205834462980000016523061409742317487_);fill:none;stroke:#2CA02C;stroke-width:1.5;stroke-linecap:square;stroke-linejoin:round;" d="
					M122.9,360.1l63.5,0.1l2,0.2l2,0.5l2.4,0.8l3.9,1.4l0.4-20.6l0.4-45l0.4-30.5l0.8-36.4l0.4-10l0.8-3.2l0.8-2.1l0.8-1.5l0.8-1.2
					l1.2-1.3l1.2-0.9l0.8-0.4l1.6,0l1.2,0.1l1.2,0.3l2,0.9l3.1,1.8l7.5,4.5l11,6.6l5.5,3.1l5.5,2.8l7.5,3.5l8.6,3.8l8.6,3.6l8.6,3.3
					l9.8,3.6l10.6,3.6l13.7,4.4l9.8,3l5.5,1.5l6.3,1l1.6,0.7l1.6,0.9l2.7,1.9l5.1,3.7l5.9,3l3.1,1.6l1.2,0.3l1.2,0.1l0.8-21.8
					l0.8-13.5l0.8-8.8l0.8-6.1l0.8-4.5l0.8-3.4l0.8-2.7l0.8-2.1l0.4-0.8l0.4-0.5l0.4-0.2l3.5,0.1l1.6,0.4l2,0.7l2.7,1.3l4.7,2.5
					l20.4,11.2l7.1,3.5l8.6,4l9.8,4.3l8.2,3.4l10.2,4l9,3.3l12.6,4.3l9,3l10.2,3l3.5,0.6l4.3,0.8l1.2,0.5l1.6,1l3.5,2.6l5.1,3.7
					l4.7,3.1l3.5,2.1l0.8,0.2l0.8,0.1l0.4-2.7l0.8-21.7l0.8-12.7l0.8-8.3l0.8-5.7l0.8-4.2l0.8-3.2l0.8-2.5l1.2-2.9l0.4-0.3l0.8-0.1
					l2.7,0l1.6,0.1l1.6,0.4l2,0.8l3.1,1.5l5.9,3.2l15.7,8.6l6.7,3.4l8.2,4l9.8,4.4l8.2,3.5l10.2,4.1l8.6,3.2l10.6,3.7l12.6,4.3
					l12.6,3.8l2,0.4l4.7,0.6l1.2,0.6l2,1.3l5.5,4.1l3.9,2.8l7.1,4.7l0.8,0.4l0.8,0.2l0.8,0l0.4-8.2l0.8-19l0.8-11.4l0.8-7.5l0.8-5.3
					l0.8-3.9l0.8-3l0.8-2.3l1.2-2.7l0.8-1.3l1.2-0.2l3.5,0.1l1.6,0.3l2,0.7l3.1,1.4l3.9,2.1l21.6,11.7l8.2,4.1l8.2,3.8l9,4l9.4,3.9
					l9,3.5l9.8,3.5l16.5,5.6l13.3,3.9l2.7,0.1l2.4,0.1l1.2,0.3l1.2,0.6l2,1.3l3.9,2.9l5.5,4l7.8,5.3l0.8,0.3l0.8,0.1l0.4-2.1l0.8-21
					l0.8-12.2l0.8-7.9l0.8-5.5l0.8-4l0.8-3.1l0.8-2.4l1.2-2.8l1.2-2l0.4-0.4l0.4-0.2l3.5,0.1l1.6,0.2l2,0.5l2,0.8l3.1,1.6l10.2,5.5
					l12.6,6.8l7.5,3.8l7.5,3.5l9,4l9.4,3.9l9,3.6l11.4,4.2l1.2,0.4l0,0"/>
			</g>
		</g>
		<g id="patch_3">
			<path class="st14" d="M123.1,644V72.4"/>
		</g>
		<g id="patch_4">
			<path class="st14" d="M923.4,644V72.4"/>
		</g>
		<g id="patch_5">
			<path class="st14" d="M123.1,644h800.3"/>
		</g>
		<g id="patch_6">
			<path class="st14" d="M123.1,72.4h800.3"/>
		</g>
	</g>
</g>
</svg>
