<?xml version="1.0" encoding="utf-8" standalone="no"?>
<!DOCTYPE svg PUBLIC "-//W3C//DTD SVG 1.1//EN"
  "http://www.w3.org/Graphics/SVG/1.1/DTD/svg11.dtd">
<svg xmlns:xlink="http://www.w3.org/1999/xlink" width="720pt" height="288pt" viewBox="0 0 720 288" xmlns="http://www.w3.org/2000/svg" version="1.1">
 <metadata>
  <rdf:RDF xmlns:dc="http://purl.org/dc/elements/1.1/" xmlns:cc="http://creativecommons.org/ns#" xmlns:rdf="http://www.w3.org/1999/02/22-rdf-syntax-ns#">
   <cc:Work>
    <dc:type rdf:resource="http://purl.org/dc/dcmitype/StillImage"/>
    <dc:date>2026-07-23T08:24:14.737032</dc:date>
    <dc:format>image/svg+xml</dc:format>
    <dc:creator>
     <cc:Agent>
      <dc:title>Matplotlib v3.10.9, https://matplotlib.org/</dc:title>
     </cc:Agent>
    </dc:creator>
   </cc:Work>
  </rdf:RDF>
 </metadata>
 <defs>
  <style type="text/css">*{stroke-linejoin: round; stroke-linecap: butt}</style>
 </defs>
 <g id="figure_1">
  <g id="patch_1">
   <path d="M 0 288 
L 720 288 
L 720 0 
L 0 0 
z
" style="fill: #ffffff"/>
  </g>
  <g id="axes_1">
   <g id="patch_2">
    <path d="M 48.22 246.04 
L 709.2 246.04 
L 709.2 10.8 
L 48.22 10.8 
z
" style="fill: #ffffff"/>
   </g>
   <g id="line2d_1">
    <path d="M 48.22 148.324923 
L 709.2 148.324923 
" clip-path="url(#p0ecdd34877)" style="fill: none; stroke: #5d5d5d; stroke-width: 0.8; stroke-linecap: square"/>
   </g>
   <g id="matplotlib.axis_1">
    <g id="xtick_1">
     <g id="line2d_2">
      <defs>
       <path id="m018e937fc0" d="M 0 0 
L 0 3.5 
" style="stroke: #000000; stroke-width: 0.8"/>
      </defs>
      <g>
       <use xlink:href="#m018e937fc0" x="48.22" y="246.04" style="stroke: #000000; stroke-width: 0.8"/>
      </g>
     </g>
     <g id="text_1">
      <!-- 0 -->
      <g transform="translate(45.03875 260.638438) scale(0.1 -0.1)">
       <defs>
        <path id="DejaVuSans-30" d="M 2034 4250 
Q 1547 4250 1301 3770 
Q 1056 3291 1056 2328 
Q 1056 1369 1301 889 
Q 1547 409 2034 409 
Q 2525 409 2770 889 
Q 3016 1369 3016 2328 
Q 3016 3291 2770 3770 
Q 2525 4250 2034 4250 
z
M 2034 4750 
Q 2819 4750 3233 4129 
Q 3647 3509 3647 2328 
Q 3647 1150 3233 529 
Q 2819 -91 2034 -91 
Q 1250 -91 836 529 
Q 422 1150 422 2328 
Q 422 3509 836 4129 
Q 1250 4750 2034 4750 
z
" transform="scale(0.015625)"/>
       </defs>
       <use xlink:href="#DejaVuSans-30"/>
      </g>
     </g>
    </g>
    <g id="xtick_2">
     <g id="line2d_3">
      <g>
       <use xlink:href="#m018e937fc0" x="187.667257" y="246.04" style="stroke: #000000; stroke-width: 0.8"/>
      </g>
     </g>
     <g id="text_2">
      <!-- 200 -->
      <g transform="translate(178.123507 260.638438) scale(0.1 -0.1)">
       <defs>
        <path id="DejaVuSans-32" d="M 1228 531 
L 3431 531 
L 3431 0 
L 469 0 
L 469 531 
Q 828 903 1448 1529 
Q 2069 2156 2228 2338 
Q 2531 2678 2651 2914 
Q 2772 3150 2772 3378 
Q 2772 3750 2511 3984 
Q 2250 4219 1831 4219 
Q 1534 4219 1204 4116 
Q 875 4013 500 3803 
L 500 4441 
Q 881 4594 1212 4672 
Q 1544 4750 1819 4750 
Q 2544 4750 2975 4387 
Q 3406 4025 3406 3419 
Q 3406 3131 3298 2873 
Q 3191 2616 2906 2266 
Q 2828 2175 2409 1742 
Q 1991 1309 1228 531 
z
" transform="scale(0.015625)"/>
       </defs>
       <use xlink:href="#DejaVuSans-32"/>
       <use xlink:href="#DejaVuSans-30" transform="translate(63.623047 0)"/>
       <use xlink:href="#DejaVuSans-30" transform="translate(127.246094 0)"/>
      </g>
     </g>
    </g>
    <g id="xtick_3">
     <g id="line2d_4">
      <g>
       <use xlink:href="#m018e937fc0" x="327.114515" y="246.04" style="stroke: #000000; stroke-width: 0.8"/>
      </g>
     </g>
     <g id="text_3">
      <!-- 400 -->
      <g transform="translate(317.570765 260.638438) scale(0.1 -0.1)">
       <defs>
        <path id="DejaVuSans-34" d="M 2419 4116 
L 825 1625 
L 2419 1625 
L 2419 4116 
z
M 2253 4666 
L 3047 4666 
L 3047 1625 
L 3713 1625 
L 3713 1100 
L 3047 1100 
L 3047 0 
L 2419 0 
L 2419 1100 
L 313 1100 
L 313 1709 
L 2253 4666 
z
" transform="scale(0.015625)"/>
       </defs>
       <use xlink:href="#DejaVuSans-34"/>
       <use xlink:href="#DejaVuSans-30" transform="translate(63.623047 0)"/>
       <use xlink:href="#DejaVuSans-30" transform="translate(127.246094 0)"/>
      </g>
     </g>
    </g>
    <g id="xtick_4">
     <g id="line2d_5">
      <g>
       <use xlink:href="#m018e937fc0" x="466.561772" y="246.04" style="stroke: #000000; stroke-width: 0.8"/>
      </g>
     </g>
     <g id="text_4">
      <!-- 600 -->
      <g transform="translate(457.018022 260.638438) scale(0.1 -0.1)">
       <defs>
        <path id="DejaVuSans-36" d="M 2113 2584 
Q 1688 2584 1439 2293 
Q 1191 2003 1191 1497 
Q 1191 994 1439 701 
Q 1688 409 2113 409 
Q 2538 409 2786 701 
Q 3034 994 3034 1497 
Q 3034 2003 2786 2293 
Q 2538 2584 2113 2584 
z
M 3366 4563 
L 3366 3988 
Q 3128 4100 2886 4159 
Q 2644 4219 2406 4219 
Q 1781 4219 1451 3797 
Q 1122 3375 1075 2522 
Q 1259 2794 1537 2939 
Q 1816 3084 2150 3084 
Q 2853 3084 3261 2657 
Q 3669 2231 3669 1497 
Q 3669 778 3244 343 
Q 2819 -91 2113 -91 
Q 1303 -91 875 529 
Q 447 1150 447 2328 
Q 447 3434 972 4092 
Q 1497 4750 2381 4750 
Q 2619 4750 2861 4703 
Q 3103 4656 3366 4563 
z
" transform="scale(0.015625)"/>
       </defs>
       <use xlink:href="#DejaVuSans-36"/>
       <use xlink:href="#DejaVuSans-30" transform="translate(63.623047 0)"/>
       <use xlink:href="#DejaVuSans-30" transform="translate(127.246094 0)"/>
      </g>
     </g>
    </g>
    <g id="xtick_5">
     <g id="line2d_6">
      <g>
       <use xlink:href="#m018e937fc0" x="606.00903" y="246.04" style="stroke: #000000; stroke-width: 0.8"/>
      </g>
     </g>
     <g id="text_5">
      <!-- 800 -->
      <g transform="translate(596.46528 260.638438) scale(0.1 -0.1)">
       <defs>
        <path id="DejaVuSans-38" d="M 2034 2216 
Q 1584 2216 1326 1975 
Q 1069 1734 1069 1313 
Q 1069 891 1326 650 
Q 1584 409 2034 409 
Q 2484 409 2743 651 
Q 3003 894 3003 1313 
Q 3003 1734 2745 1975 
Q 2488 2216 2034 2216 
z
M 1403 2484 
Q 997 2584 770 2862 
Q 544 3141 544 3541 
Q 544 4100 942 4425 
Q 1341 4750 2034 4750 
Q 2731 4750 3128 4425 
Q 3525 4100 3525 3541 
Q 3525 3141 3298 2862 
Q 3072 2584 2669 2484 
Q 3125 2378 3379 2068 
Q 3634 1759 3634 1313 
Q 3634 634 3220 271 
Q 2806 -91 2034 -91 
Q 1263 -91 848 271 
Q 434 634 434 1313 
Q 434 1759 690 2068 
Q 947 2378 1403 2484 
z
M 1172 3481 
Q 1172 3119 1398 2916 
Q 1625 2713 2034 2713 
Q 2441 2713 2670 2916 
Q 2900 3119 2900 3481 
Q 2900 3844 2670 4047 
Q 2441 4250 2034 4250 
Q 1625 4250 1398 4047 
Q 1172 3844 1172 3481 
z
" transform="scale(0.015625)"/>
       </defs>
       <use xlink:href="#DejaVuSans-38"/>
       <use xlink:href="#DejaVuSans-30" transform="translate(63.623047 0)"/>
       <use xlink:href="#DejaVuSans-30" transform="translate(127.246094 0)"/>
      </g>
     </g>
    </g>
    <g id="text_6">
     <!-- Time (samples) -->
     <g transform="translate(340.202188 274.316562) scale(0.1 -0.1)">
      <defs>
       <path id="DejaVuSans-54" d="M -19 4666 
L 3928 4666 
L 3928 4134 
L 2272 4134 
L 2272 0 
L 1638 0 
L 1638 4134 
L -19 4134 
L -19 4666 
z
" transform="scale(0.015625)"/>
       <path id="DejaVuSans-69" d="M 603 3500 
L 1178 3500 
L 1178 0 
L 603 0 
L 603 3500 
z
M 603 4863 
L 1178 4863 
L 1178 4134 
L 603 4134 
L 603 4863 
z
" transform="scale(0.015625)"/>
       <path id="DejaVuSans-6d" d="M 3328 2828 
Q 3544 3216 3844 3400 
Q 4144 3584 4550 3584 
Q 5097 3584 5394 3201 
Q 5691 2819 5691 2113 
L 5691 0 
L 5113 0 
L 5113 2094 
Q 5113 2597 4934 2840 
Q 4756 3084 4391 3084 
Q 3944 3084 3684 2787 
Q 3425 2491 3425 1978 
L 3425 0 
L 2847 0 
L 2847 2094 
Q 2847 2600 2669 2842 
Q 2491 3084 2119 3084 
Q 1678 3084 1418 2786 
Q 1159 2488 1159 1978 
L 1159 0 
L 581 0 
L 581 3500 
L 1159 3500 
L 1159 2956 
Q 1356 3278 1631 3431 
Q 1906 3584 2284 3584 
Q 2666 3584 2933 3390 
Q 3200 3197 3328 2828 
z
" transform="scale(0.015625)"/>
       <path id="DejaVuSans-65" d="M 3597 1894 
L 3597 1613 
L 953 1613 
Q 991 1019 1311 708 
Q 1631 397 2203 397 
Q 2534 397 2845 478 
Q 3156 559 3463 722 
L 3463 178 
Q 3153 47 2828 -22 
Q 2503 -91 2169 -91 
Q 1331 -91 842 396 
Q 353 884 353 1716 
Q 353 2575 817 3079 
Q 1281 3584 2069 3584 
Q 2775 3584 3186 3129 
Q 3597 2675 3597 1894 
z
M 3022 2063 
Q 3016 2534 2758 2815 
Q 2500 3097 2075 3097 
Q 1594 3097 1305 2825 
Q 1016 2553 972 2059 
L 3022 2063 
z
" transform="scale(0.015625)"/>
       <path id="DejaVuSans-20" transform="scale(0.015625)"/>
       <path id="DejaVuSans-28" d="M 1984 4856 
Q 1566 4138 1362 3434 
Q 1159 2731 1159 2009 
Q 1159 1288 1364 580 
Q 1569 -128 1984 -844 
L 1484 -844 
Q 1016 -109 783 600 
Q 550 1309 550 2009 
Q 550 2706 781 3412 
Q 1013 4119 1484 4856 
L 1984 4856 
z
" transform="scale(0.015625)"/>
       <path id="DejaVuSans-73" d="M 2834 3397 
L 2834 2853 
Q 2591 2978 2328 3040 
Q 2066 3103 1784 3103 
Q 1356 3103 1142 2972 
Q 928 2841 928 2578 
Q 928 2378 1081 2264 
Q 1234 2150 1697 2047 
L 1894 2003 
Q 2506 1872 2764 1633 
Q 3022 1394 3022 966 
Q 3022 478 2636 193 
Q 2250 -91 1575 -91 
Q 1294 -91 989 -36 
Q 684 19 347 128 
L 347 722 
Q 666 556 975 473 
Q 1284 391 1588 391 
Q 1994 391 2212 530 
Q 2431 669 2431 922 
Q 2431 1156 2273 1281 
Q 2116 1406 1581 1522 
L 1381 1569 
Q 847 1681 609 1914 
Q 372 2147 372 2553 
Q 372 3047 722 3315 
Q 1072 3584 1716 3584 
Q 2034 3584 2315 3537 
Q 2597 3491 2834 3397 
z
" transform="scale(0.015625)"/>
       <path id="DejaVuSans-61" d="M 2194 1759 
Q 1497 1759 1228 1600 
Q 959 1441 959 1056 
Q 959 750 1161 570 
Q 1363 391 1709 391 
Q 2188 391 2477 730 
Q 2766 1069 2766 1631 
L 2766 1759 
L 2194 1759 
z
M 3341 1997 
L 3341 0 
L 2766 0 
L 2766 531 
Q 2569 213 2275 61 
Q 1981 -91 1556 -91 
Q 1019 -91 701 211 
Q 384 513 384 1019 
Q 384 1609 779 1909 
Q 1175 2209 1959 2209 
L 2766 2209 
L 2766 2266 
Q 2766 2663 2505 2880 
Q 2244 3097 1772 3097 
Q 1472 3097 1187 3025 
Q 903 2953 641 2809 
L 641 3341 
Q 956 3463 1253 3523 
Q 1550 3584 1831 3584 
Q 2591 3584 2966 3190 
Q 3341 2797 3341 1997 
z
" transform="scale(0.015625)"/>
       <path id="DejaVuSans-70" d="M 1159 525 
L 1159 -1331 
L 581 -1331 
L 581 3500 
L 1159 3500 
L 1159 2969 
Q 1341 3281 1617 3432 
Q 1894 3584 2278 3584 
Q 2916 3584 3314 3078 
Q 3713 2572 3713 1747 
Q 3713 922 3314 415 
Q 2916 -91 2278 -91 
Q 1894 -91 1617 61 
Q 1341 213 1159 525 
z
M 3116 1747 
Q 3116 2381 2855 2742 
Q 2594 3103 2138 3103 
Q 1681 3103 1420 2742 
Q 1159 2381 1159 1747 
Q 1159 1113 1420 752 
Q 1681 391 2138 391 
Q 2594 391 2855 752 
Q 3116 1113 3116 1747 
z
" transform="scale(0.015625)"/>
       <path id="DejaVuSans-6c" d="M 603 4863 
L 1178 4863 
L 1178 0 
L 603 0 
L 603 4863 
z
" transform="scale(0.015625)"/>
       <path id="DejaVuSans-29" d="M 513 4856 
L 1013 4856 
Q 1481 4119 1714 3412 
Q 1947 2706 1947 2009 
Q 1947 1309 1714 600 
Q 1481 -109 1013 -844 
L 513 -844 
Q 928 -128 1133 580 
Q 1338 1288 1338 2009 
Q 1338 2731 1133 3434 
Q 928 4138 513 4856 
z
" transform="scale(0.015625)"/>
      </defs>
      <use xlink:href="#DejaVuSans-54"/>
      <use xlink:href="#DejaVuSans-69" transform="translate(57.958984 0)"/>
      <use xlink:href="#DejaVuSans-6d" transform="translate(85.742188 0)"/>
      <use xlink:href="#DejaVuSans-65" transform="translate(183.154297 0)"/>
      <use xlink:href="#DejaVuSans-20" transform="translate(244.677734 0)"/>
      <use xlink:href="#DejaVuSans-28" transform="translate(276.464844 0)"/>
      <use xlink:href="#DejaVuSans-73" transform="translate(315.478516 0)"/>
      <use xlink:href="#DejaVuSans-61" transform="translate(367.578125 0)"/>
      <use xlink:href="#DejaVuSans-6d" transform="translate(428.857422 0)"/>
      <use xlink:href="#DejaVuSans-70" transform="translate(526.269531 0)"/>
      <use xlink:href="#DejaVuSans-6c" transform="translate(589.746094 0)"/>
      <use xlink:href="#DejaVuSans-65" transform="translate(617.529297 0)"/>
      <use xlink:href="#DejaVuSans-73" transform="translate(679.052734 0)"/>
      <use xlink:href="#DejaVuSans-29" transform="translate(731.152344 0)"/>
     </g>
    </g>
   </g>
   <g id="matplotlib.axis_2">
    <g id="ytick_1">
     <g id="line2d_7">
      <defs>
       <path id="m2739910fa3" d="M 0 0 
L -3.5 0 
" style="stroke: #000000; stroke-width: 0.8"/>
      </defs>
      <g>
       <use xlink:href="#m2739910fa3" x="48.22" y="204.526133" style="stroke: #000000; stroke-width: 0.8"/>
      </g>
     </g>
     <g id="text_7">
      <!-- −0.03 -->
      <g transform="translate(10.574687 208.325352) scale(0.1 -0.1)">
       <defs>
        <path id="DejaVuSans-2212" d="M 678 2272 
L 4684 2272 
L 4684 1741 
L 678 1741 
L 678 2272 
z
" transform="scale(0.015625)"/>
        <path id="DejaVuSans-2e" d="M 684 794 
L 1344 794 
L 1344 0 
L 684 0 
L 684 794 
z
" transform="scale(0.015625)"/>
        <path id="DejaVuSans-33" d="M 2597 2516 
Q 3050 2419 3304 2112 
Q 3559 1806 3559 1356 
Q 3559 666 3084 287 
Q 2609 -91 1734 -91 
Q 1441 -91 1130 -33 
Q 819 25 488 141 
L 488 750 
Q 750 597 1062 519 
Q 1375 441 1716 441 
Q 2309 441 2620 675 
Q 2931 909 2931 1356 
Q 2931 1769 2642 2001 
Q 2353 2234 1838 2234 
L 1294 2234 
L 1294 2753 
L 1863 2753 
Q 2328 2753 2575 2939 
Q 2822 3125 2822 3475 
Q 2822 3834 2567 4026 
Q 2313 4219 1838 4219 
Q 1578 4219 1281 4162 
Q 984 4106 628 3988 
L 628 4550 
Q 988 4650 1302 4700 
Q 1616 4750 1894 4750 
Q 2613 4750 3031 4423 
Q 3450 4097 3450 3541 
Q 3450 3153 3228 2886 
Q 3006 2619 2597 2516 
z
" transform="scale(0.015625)"/>
       </defs>
       <use xlink:href="#DejaVuSans-2212"/>
       <use xlink:href="#DejaVuSans-30" transform="translate(83.789062 0)"/>
       <use xlink:href="#DejaVuSans-2e" transform="translate(147.412109 0)"/>
       <use xlink:href="#DejaVuSans-30" transform="translate(179.199219 0)"/>
       <use xlink:href="#DejaVuSans-33" transform="translate(242.822266 0)"/>
      </g>
     </g>
    </g>
    <g id="ytick_2">
     <g id="line2d_8">
      <g>
       <use xlink:href="#m2739910fa3" x="48.22" y="148.324923" style="stroke: #000000; stroke-width: 0.8"/>
      </g>
     </g>
     <g id="text_8">
      <!-- 0.00 -->
      <g transform="translate(18.954375 152.124142) scale(0.1 -0.1)">
       <use xlink:href="#DejaVuSans-30"/>
       <use xlink:href="#DejaVuSans-2e" transform="translate(63.623047 0)"/>
       <use xlink:href="#DejaVuSans-30" transform="translate(95.410156 0)"/>
       <use xlink:href="#DejaVuSans-30" transform="translate(159.033203 0)"/>
      </g>
     </g>
    </g>
    <g id="ytick_3">
     <g id="line2d_9">
      <g>
       <use xlink:href="#m2739910fa3" x="48.22" y="92.123713" style="stroke: #000000; stroke-width: 0.8"/>
      </g>
     </g>
     <g id="text_9">
      <!-- 0.03 -->
      <g transform="translate(18.954375 95.922932) scale(0.1 -0.1)">
       <use xlink:href="#DejaVuSans-30"/>
       <use xlink:href="#DejaVuSans-2e" transform="translate(63.623047 0)"/>
       <use xlink:href="#DejaVuSans-30" transform="translate(95.410156 0)"/>
       <use xlink:href="#DejaVuSans-33" transform="translate(159.033203 0)"/>
      </g>
     </g>
    </g>
   </g>
   <g id="line2d_10">
    <path d="M 48.22 142.845305 
L 51.008945 142.961454 
L 53.79789 142.871532 
L 57.284072 142.521211 
L 60.770253 141.934845 
L 65.650907 140.896996 
L 69.834325 139.973423 
L 72.62327 139.585635 
L 74.714979 139.5107 
L 76.806688 139.624976 
L 78.898397 139.941576 
L 81.687342 140.630977 
L 89.356941 142.736649 
L 90.751414 142.886519 
L 92.145886 142.77037 
L 92.843122 142.564299 
L 93.540359 142.228965 
L 94.237595 141.753128 
L 94.934831 141.118055 
L 95.632068 140.316251 
L 97.02654 138.189972 
L 98.421013 135.383658 
L 101.907194 127.378732 
L 103.301667 124.977067 
L 103.998903 124.090961 
L 104.696139 123.427787 
L 105.393376 122.989418 
L 106.090612 122.762739 
L 106.787848 122.740259 
L 107.485084 122.901369 
L 108.182321 123.26293 
L 108.879557 123.847423 
L 109.576793 124.675454 
L 110.27403 125.758264 
L 110.971266 127.097726 
L 112.365738 130.507266 
L 113.760211 134.765444 
L 115.154684 139.707404 
L 117.246392 147.993336 
L 120.732574 161.876908 
L 122.824283 169.267367 
L 124.218755 173.56114 
L 125.613228 177.285407 
L 127.0077 180.477635 
L 128.402173 183.165927 
L 129.796646 185.369014 
L 131.191118 187.077531 
L 132.585591 188.310211 
L 133.980063 189.100774 
L 135.374536 189.471702 
L 136.769008 189.458589 
L 138.163481 189.102648 
L 139.557954 188.4376 
L 140.952426 187.51028 
L 142.346899 186.324435 
L 143.741371 184.857583 
L 145.83308 182.197392 
L 147.924789 179.023897 
L 150.016498 175.376439 
L 154.199916 167.969119 
L 156.291624 164.692589 
L 158.383333 161.916249 
L 159.777806 160.398816 
L 161.172278 159.158643 
L 162.566751 158.205096 
L 163.961224 157.573769 
L 165.355696 157.339597 
L 166.750169 157.538175 
L 167.447405 157.811687 
L 168.144641 158.220083 
L 168.841878 158.772728 
L 169.539114 159.47899 
L 170.933586 161.367351 
L 172.328059 163.813977 
L 175.117004 169.160585 
L 176.511477 171.238156 
L 177.208713 171.980012 
L 177.905949 172.497064 
L 178.603186 172.781816 
L 179.300422 172.828651 
L 179.997658 172.646933 
L 180.694895 172.199197 
L 181.392131 171.42362 
L 182.089367 170.260255 
L 182.786603 168.649154 
L 183.48384 166.532242 
L 184.181076 163.866431 
L 184.878312 160.618001 
L 186.272785 152.362043 
L 187.667257 141.9873 
L 192.547911 101.820295 
L 193.942384 93.019186 
L 195.336857 86.196359 
L 196.034093 83.524928 
L 196.731329 81.318094 
L 197.428565 79.547756 
L 198.125802 78.180193 
L 198.823038 77.176064 
L 199.520274 76.494156 
L 200.217511 76.095128 
L 200.914747 75.943385 
L 201.611983 76.003333 
L 202.309219 76.261858 
L 203.006456 76.743315 
L 203.703692 77.472058 
L 204.400928 78.464946 
L 205.098165 79.736966 
L 205.795401 81.295613 
L 207.189873 85.267165 
L 208.584346 90.299047 
L 209.978819 96.233895 
L 212.070527 106.273304 
L 216.253945 126.938489 
L 218.345654 136.26227 
L 220.437363 144.454533 
L 221.831835 149.218522 
L 223.226308 153.422373 
L 224.620781 157.047351 
L 226.015253 160.080343 
L 227.409726 162.573803 
L 228.804198 164.60454 
L 230.198671 166.238122 
L 231.593143 167.515763 
L 232.987616 168.476804 
L 234.382089 169.168079 
L 235.776561 169.610195 
L 237.171034 169.810646 
L 238.565506 169.784418 
L 239.959979 169.555867 
L 241.354451 169.141851 
L 243.44616 168.222025 
L 245.537869 167.049293 
L 250.418523 164.175538 
L 252.510232 163.19389 
L 253.904705 162.736787 
L 255.299177 162.495122 
L 256.69365 162.510109 
L 258.088122 162.824835 
L 259.482595 163.519857 
L 260.877068 164.668235 
L 262.27154 166.288703 
L 263.666013 168.31382 
L 267.84943 174.915589 
L 269.243903 176.453629 
L 269.941139 176.978173 
L 270.638376 177.319127 
L 271.335612 177.472744 
L 272.032848 177.439023 
L 272.730084 177.217965 
L 273.427321 176.772102 
L 274.124557 176.058347 
L 274.821793 175.037358 
L 275.51903 173.666049 
L 276.216266 171.905077 
L 276.913502 169.720724 
L 277.610738 167.094254 
L 279.005211 160.507472 
L 280.399684 152.36017 
L 283.188629 133.645167 
L 285.280338 120.192471 
L 286.67481 112.545359 
L 288.069283 106.277051 
L 289.463755 101.430633 
L 290.858228 97.919931 
L 291.555464 96.621683 
L 292.2527 95.598821 
L 292.949937 94.830738 
L 293.647173 94.294953 
L 294.344409 93.968986 
L 295.041646 93.83223 
L 295.738882 93.865951 
L 296.436118 94.053288 
L 297.133354 94.412976 
L 297.830591 94.958127 
L 298.527827 95.699983 
L 299.225063 96.646037 
L 300.619536 99.161978 
L 302.014008 102.487216 
L 303.408481 106.535577 
L 305.50019 113.660017 
L 308.986371 126.927249 
L 311.775316 137.352573 
L 313.867025 144.437673 
L 315.958734 150.576718 
L 317.353207 154.100534 
L 318.747679 157.178487 
L 320.142152 159.81245 
L 321.536624 162.041765 
L 322.931097 163.887038 
L 324.32557 165.367003 
L 325.720042 166.519128 
L 327.114515 167.365893 
L 328.508987 167.939145 
L 329.90346 168.272606 
L 331.297932 168.398122 
L 332.692405 168.338174 
L 334.086878 168.109622 
L 336.178586 167.485789 
L 338.270295 166.60905 
L 342.453713 164.499631 
L 344.545422 163.542337 
L 346.637131 162.867923 
L 348.031603 162.654358 
L 349.426076 162.680586 
L 350.820549 162.987819 
L 352.215021 163.621019 
L 353.609494 164.59892 
L 355.003966 165.902788 
L 357.095675 168.293213 
L 359.88462 171.496682 
L 361.279093 172.706881 
L 362.673565 173.456231 
L 363.370802 173.628581 
L 364.068038 173.658555 
L 364.765274 173.544279 
L 365.462511 173.26702 
L 366.159747 172.798677 
L 366.856983 172.107402 
L 367.554219 171.168842 
L 368.251456 169.954895 
L 368.948692 168.443083 
L 369.645928 166.618417 
L 371.040401 161.998677 
L 372.434873 156.150005 
L 373.829346 149.308444 
L 379.407236 120.510944 
L 380.801709 114.858976 
L 382.196181 110.218629 
L 383.590654 106.603018 
L 384.985127 103.961561 
L 385.682363 102.97804 
L 386.379599 102.202463 
L 387.076835 101.621718 
L 387.774072 101.218942 
L 388.471308 100.98477 
L 389.168544 100.902342 
L 389.865781 100.958543 
L 390.563017 101.147754 
L 391.260253 101.483088 
L 391.957489 101.973912 
L 392.654726 102.623972 
L 394.049198 104.422411 
L 395.443671 106.880277 
L 396.838143 109.96385 
L 398.232616 113.590702 
L 400.324325 119.808429 
L 407.993924 143.873787 
L 410.085633 149.282217 
L 412.177342 153.913197 
L 413.571814 156.567767 
L 414.966287 158.87951 
L 416.360759 160.852173 
L 417.755232 162.500742 
L 419.149705 163.842077 
L 420.544177 164.896787 
L 421.93865 165.68173 
L 423.333122 166.215642 
L 424.727595 166.532242 
L 426.122068 166.661505 
L 428.213776 166.565962 
L 430.305485 166.174427 
L 432.397194 165.554341 
L 437.975084 163.694081 
L 439.369557 163.433682 
L 440.76403 163.340013 
L 442.158502 163.446795 
L 443.552975 163.780256 
L 444.947447 164.370369 
L 446.34192 165.21526 
L 447.736392 166.28121 
L 453.314283 171.020845 
L 454.708755 171.713993 
L 456.103228 171.993126 
L 456.800464 171.959405 
L 457.4977 171.803915 
L 458.194937 171.507922 
L 458.892173 171.048946 
L 459.589409 170.410125 
L 460.286646 169.570854 
L 460.983882 168.512398 
L 461.681118 167.21977 
L 463.075591 163.902025 
L 464.470063 159.602633 
L 465.864536 154.424628 
L 467.956245 145.509242 
L 471.442426 130.173806 
L 472.836899 124.718541 
L 474.231371 119.933945 
L 475.625844 115.909938 
L 477.020316 112.683989 
L 478.414789 110.23549 
L 479.809262 108.513859 
L 480.506498 107.905013 
L 481.203734 107.451656 
L 481.90097 107.140676 
L 482.598207 106.966453 
L 483.295443 106.913998 
L 483.992679 106.977693 
L 484.689916 107.155663 
L 485.387152 107.455403 
L 486.084388 107.880659 
L 487.478861 109.133946 
L 488.873333 110.928638 
L 490.267806 113.255368 
L 491.662278 116.063555 
L 493.753987 121.014882 
L 496.542932 128.459669 
L 500.72635 139.786086 
L 502.818059 144.954724 
L 504.909768 149.580083 
L 507.001477 153.574116 
L 508.395949 155.865252 
L 509.790422 157.856648 
L 511.184895 159.552051 
L 512.579367 160.960828 
L 513.97384 162.097966 
L 515.368312 162.982199 
L 516.762785 163.636006 
L 518.157257 164.085616 
L 519.55173 164.351635 
L 521.643439 164.465911 
L 523.735148 164.314167 
L 526.524093 163.82709 
L 530.010274 163.156422 
L 532.101983 162.967212 
L 534.193692 163.0665 
L 535.588165 163.33814 
L 536.982637 163.800863 
L 538.37711 164.447177 
L 540.468819 165.713577 
L 545.349473 168.94702 
L 546.743945 169.53526 
L 548.138418 169.818139 
L 549.53289 169.743204 
L 550.230127 169.55212 
L 550.927363 169.24114 
L 551.624599 168.793404 
L 552.321835 168.197671 
L 553.019072 167.438955 
L 554.413544 165.391357 
L 555.808017 162.586917 
L 557.202489 159.02376 
L 558.596962 154.769328 
L 560.688671 147.40697 
L 565.569325 129.422583 
L 566.963797 125.001421 
L 568.35827 121.155385 
L 569.752743 117.938802 
L 571.147215 115.374154 
L 572.541688 113.444579 
L 573.93616 112.10699 
L 575.330633 111.316426 
L 576.725105 111.009193 
L 578.119578 111.125342 
L 579.514051 111.676114 
L 580.908523 112.695229 
L 582.302996 114.205168 
L 583.697468 116.190945 
L 585.091941 118.611343 
L 587.18365 122.901369 
L 589.972595 129.424456 
L 595.550485 142.910873 
L 597.642194 147.442564 
L 599.733903 151.466571 
L 601.825612 154.909832 
L 603.220084 156.86376 
L 604.614557 158.549797 
L 606.00903 159.96794 
L 607.403502 161.131305 
L 608.797975 162.058625 
L 610.192447 162.772381 
L 611.58692 163.291305 
L 613.678629 163.761522 
L 615.770338 163.933872 
L 617.862046 163.890785 
L 625.531646 163.465529 
L 627.623354 163.737168 
L 629.715063 164.316041 
L 631.806772 165.189033 
L 634.595717 166.668998 
L 637.384662 168.107749 
L 638.779135 168.63042 
L 640.173608 168.932033 
L 641.56808 168.952641 
L 642.962553 168.647281 
L 644.357025 167.929779 
L 645.751498 166.715832 
L 647.14597 164.930507 
L 648.540443 162.528842 
L 649.934916 159.507091 
L 651.329388 155.910213 
L 653.421097 149.662512 
L 659.696224 129.780397 
L 661.090696 126.125445 
L 662.485169 122.966937 
L 663.879641 120.334847 
L 665.274114 118.236669 
L 666.668586 116.661161 
L 668.063059 115.582098 
L 669.457532 114.962011 
L 670.852004 114.752194 
L 672.246477 114.913304 
L 673.640949 115.450962 
L 675.035422 116.382029 
L 676.429895 117.715871 
L 677.824367 119.439374 
L 679.21884 121.524439 
L 681.310549 125.224352 
L 683.402257 129.435696 
L 691.769093 146.904906 
L 693.860802 150.528011 
L 695.952511 153.650924 
L 698.044219 156.243674 
L 699.438692 157.684298 
L 700.833165 158.892624 
L 702.227637 159.883639 
L 703.62211 160.672329 
L 705.016582 161.275555 
L 707.108291 161.871288 
L 709.2 162.172901 
L 709.2 162.172901 
" clip-path="url(#p0ecdd34877)" style="fill: none; stroke: #1565c0; stroke-width: 1.5; stroke-linecap: square"/>
   </g>
   <g id="patch_3">
    <path d="M 48.22 246.04 
L 709.2 246.04 
" style="fill: none; stroke: #b0b0b0; stroke-width: 0.8; stroke-linejoin: miter; stroke-linecap: square"/>
   </g>
   <g id="line2d_11">
    <defs>
     <path id="mecec79b55e" d="M 0 3 
C 0.795609 3 1.55874 2.683901 2.12132 2.12132 
C 2.683901 1.55874 3 0.795609 3 0 
C 3 -0.795609 2.683901 -1.55874 2.12132 -2.12132 
C 1.55874 -2.683901 0.795609 -3 0 -3 
C -0.795609 -3 -1.55874 -2.683901 -2.12132 -2.12132 
C -2.683901 -1.55874 -3 -0.795609 -3 0 
C -3 0.795609 -2.683901 1.55874 -2.12132 2.12132 
C -1.55874 2.683901 -0.795609 3 0 3 
z
" style="stroke: #9e9e9e; stroke-width: 1.3"/>
    </defs>
    <g clip-path="url(#p0ecdd34877)">
     <use xlink:href="#mecec79b55e" x="48.22" y="142.845305" style="fill-opacity: 0; stroke: #9e9e9e; stroke-width: 1.3"/>
     <use xlink:href="#mecec79b55e" x="74.714979" y="139.5107" style="fill-opacity: 0; stroke: #9e9e9e; stroke-width: 1.3"/>
     <use xlink:href="#mecec79b55e" x="106.787848" y="122.740259" style="fill-opacity: 0; stroke: #9e9e9e; stroke-width: 1.3"/>
     <use xlink:href="#mecec79b55e" x="165.355696" y="157.339597" style="fill-opacity: 0; stroke: #9e9e9e; stroke-width: 1.3"/>
     <use xlink:href="#mecec79b55e" x="200.914747" y="75.943385" style="fill-opacity: 0; stroke: #9e9e9e; stroke-width: 1.3"/>
     <use xlink:href="#mecec79b55e" x="255.996414" y="162.468894" style="fill-opacity: 0; stroke: #9e9e9e; stroke-width: 1.3"/>
     <use xlink:href="#mecec79b55e" x="295.041646" y="93.83223" style="fill-opacity: 0; stroke: #9e9e9e; stroke-width: 1.3"/>
     <use xlink:href="#mecec79b55e" x="348.72884" y="162.635625" style="fill-opacity: 0; stroke: #9e9e9e; stroke-width: 1.3"/>
     <use xlink:href="#mecec79b55e" x="389.168544" y="100.902342" style="fill-opacity: 0; stroke: #9e9e9e; stroke-width: 1.3"/>
     <use xlink:href="#mecec79b55e" x="440.76403" y="163.340013" style="fill-opacity: 0; stroke: #9e9e9e; stroke-width: 1.3"/>
     <use xlink:href="#mecec79b55e" x="483.295443" y="106.913998" style="fill-opacity: 0; stroke: #9e9e9e; stroke-width: 1.3"/>
     <use xlink:href="#mecec79b55e" x="532.799219" y="162.963465" style="fill-opacity: 0; stroke: #9e9e9e; stroke-width: 1.3"/>
     <use xlink:href="#mecec79b55e" x="576.725105" y="111.009193" style="fill-opacity: 0; stroke: #9e9e9e; stroke-width: 1.3"/>
     <use xlink:href="#mecec79b55e" x="624.137173" y="163.429935" style="fill-opacity: 0; stroke: #9e9e9e; stroke-width: 1.3"/>
     <use xlink:href="#mecec79b55e" x="670.852004" y="114.752194" style="fill-opacity: 0; stroke: #9e9e9e; stroke-width: 1.3"/>
    </g>
   </g>
   <g id="LineCollection_1">
    <path d="M 48.22 148.324923 
L 48.22 142.845305 
" clip-path="url(#p0ecdd34877)" style="fill: none; stroke: #d81b60; stroke-width: 1.4"/>
    <path d="M 74.714979 148.324923 
L 74.714979 139.5107 
" clip-path="url(#p0ecdd34877)" style="fill: none; stroke: #d81b60; stroke-width: 1.4"/>
    <path d="M 106.787848 148.324923 
L 106.787848 122.740259 
" clip-path="url(#p0ecdd34877)" style="fill: none; stroke: #d81b60; stroke-width: 1.4"/>
    <path d="M 200.914747 148.324923 
L 200.914747 75.943385 
" clip-path="url(#p0ecdd34877)" style="fill: none; stroke: #d81b60; stroke-width: 1.4"/>
    <path d="M 295.041646 148.324923 
L 295.041646 93.83223 
" clip-path="url(#p0ecdd34877)" style="fill: none; stroke: #d81b60; stroke-width: 1.4"/>
    <path d="M 389.168544 148.324923 
L 389.168544 100.902342 
" clip-path="url(#p0ecdd34877)" style="fill: none; stroke: #d81b60; stroke-width: 1.4"/>
    <path d="M 483.295443 148.324923 
L 483.295443 106.913998 
" clip-path="url(#p0ecdd34877)" style="fill: none; stroke: #d81b60; stroke-width: 1.4"/>
    <path d="M 576.725105 148.324923 
L 576.725105 111.009193 
" clip-path="url(#p0ecdd34877)" style="fill: none; stroke: #d81b60; stroke-width: 1.4"/>
    <path d="M 670.852004 148.324923 
L 670.852004 114.752194 
" clip-path="url(#p0ecdd34877)" style="fill: none; stroke: #d81b60; stroke-width: 1.4"/>
   </g>
   <g id="line2d_12">
    <defs>
     <path id="m4d0cd60473" d="M 0 4 
C 1.060812 4 2.078319 3.578535 2.828427 2.828427 
C 3.578535 2.078319 4 1.060812 4 0 
C 4 -1.060812 3.578535 -2.078319 2.828427 -2.828427 
C 2.078319 -3.578535 1.060812 -4 0 -4 
C -1.060812 -4 -2.078319 -3.578535 -2.828427 -2.828427 
C -3.578535 -2.078319 -4 -1.060812 -4 0 
C -4 1.060812 -3.578535 2.078319 -2.828427 2.828427 
C -2.078319 3.578535 -1.060812 4 0 4 
z
" style="stroke: #ffffff; stroke-width: 0.8"/>
    </defs>
    <g clip-path="url(#p0ecdd34877)">
     <use xlink:href="#m4d0cd60473" x="48.22" y="142.845305" style="fill: #d81b60; stroke: #ffffff; stroke-width: 0.8"/>
     <use xlink:href="#m4d0cd60473" x="74.714979" y="139.5107" style="fill: #d81b60; stroke: #ffffff; stroke-width: 0.8"/>
     <use xlink:href="#m4d0cd60473" x="106.787848" y="122.740259" style="fill: #d81b60; stroke: #ffffff; stroke-width: 0.8"/>
     <use xlink:href="#m4d0cd60473" x="200.914747" y="75.943385" style="fill: #d81b60; stroke: #ffffff; stroke-width: 0.8"/>
     <use xlink:href="#m4d0cd60473" x="295.041646" y="93.83223" style="fill: #d81b60; stroke: #ffffff; stroke-width: 0.8"/>
     <use xlink:href="#m4d0cd60473" x="389.168544" y="100.902342" style="fill: #d81b60; stroke: #ffffff; stroke-width: 0.8"/>
     <use xlink:href="#m4d0cd60473" x="483.295443" y="106.913998" style="fill: #d81b60; stroke: #ffffff; stroke-width: 0.8"/>
     <use xlink:href="#m4d0cd60473" x="576.725105" y="111.009193" style="fill: #d81b60; stroke: #ffffff; stroke-width: 0.8"/>
     <use xlink:href="#m4d0cd60473" x="670.852004" y="114.752194" style="fill: #d81b60; stroke: #ffffff; stroke-width: 0.8"/>
    </g>
   </g>
   <g id="legend_1">
    <g id="patch_4">
     <path d="M 562.068281 57.88125 
L 702.9 57.88125 
Q 704.7 57.88125 704.7 56.08125 
L 704.7 17.1 
Q 704.7 15.3 702.9 15.3 
L 562.068281 15.3 
Q 560.268281 15.3 560.268281 17.1 
L 560.268281 56.08125 
Q 560.268281 57.88125 562.068281 57.88125 
z
" style="fill: #ffffff; opacity: 0.8; stroke: #cccccc; stroke-linejoin: miter"/>
    </g>
    <g id="line2d_13">
     <path d="M 563.868281 22.588594 
L 572.868281 22.588594 
L 581.868281 22.588594 
" style="fill: none; stroke: #1565c0; stroke-width: 1.5; stroke-linecap: square"/>
    </g>
    <g id="text_10">
     <!-- smoothed signal -->
     <g transform="translate(589.068281 25.738594) scale(0.09 -0.09)">
      <defs>
       <path id="DejaVuSans-6f" d="M 1959 3097 
Q 1497 3097 1228 2736 
Q 959 2375 959 1747 
Q 959 1119 1226 758 
Q 1494 397 1959 397 
Q 2419 397 2687 759 
Q 2956 1122 2956 1747 
Q 2956 2369 2687 2733 
Q 2419 3097 1959 3097 
z
M 1959 3584 
Q 2709 3584 3137 3096 
Q 3566 2609 3566 1747 
Q 3566 888 3137 398 
Q 2709 -91 1959 -91 
Q 1206 -91 779 398 
Q 353 888 353 1747 
Q 353 2609 779 3096 
Q 1206 3584 1959 3584 
z
" transform="scale(0.015625)"/>
       <path id="DejaVuSans-74" d="M 1172 4494 
L 1172 3500 
L 2356 3500 
L 2356 3053 
L 1172 3053 
L 1172 1153 
Q 1172 725 1289 603 
Q 1406 481 1766 481 
L 2356 481 
L 2356 0 
L 1766 0 
Q 1100 0 847 248 
Q 594 497 594 1153 
L 594 3053 
L 172 3053 
L 172 3500 
L 594 3500 
L 594 4494 
L 1172 4494 
z
" transform="scale(0.015625)"/>
       <path id="DejaVuSans-68" d="M 3513 2113 
L 3513 0 
L 2938 0 
L 2938 2094 
Q 2938 2591 2744 2837 
Q 2550 3084 2163 3084 
Q 1697 3084 1428 2787 
Q 1159 2491 1159 1978 
L 1159 0 
L 581 0 
L 581 4863 
L 1159 4863 
L 1159 2956 
Q 1366 3272 1645 3428 
Q 1925 3584 2291 3584 
Q 2894 3584 3203 3211 
Q 3513 2838 3513 2113 
z
" transform="scale(0.015625)"/>
       <path id="DejaVuSans-64" d="M 2906 2969 
L 2906 4863 
L 3481 4863 
L 3481 0 
L 2906 0 
L 2906 525 
Q 2725 213 2448 61 
Q 2172 -91 1784 -91 
Q 1150 -91 751 415 
Q 353 922 353 1747 
Q 353 2572 751 3078 
Q 1150 3584 1784 3584 
Q 2172 3584 2448 3432 
Q 2725 3281 2906 2969 
z
M 947 1747 
Q 947 1113 1208 752 
Q 1469 391 1925 391 
Q 2381 391 2643 752 
Q 2906 1113 2906 1747 
Q 2906 2381 2643 2742 
Q 2381 3103 1925 3103 
Q 1469 3103 1208 2742 
Q 947 2381 947 1747 
z
" transform="scale(0.015625)"/>
       <path id="DejaVuSans-67" d="M 2906 1791 
Q 2906 2416 2648 2759 
Q 2391 3103 1925 3103 
Q 1463 3103 1205 2759 
Q 947 2416 947 1791 
Q 947 1169 1205 825 
Q 1463 481 1925 481 
Q 2391 481 2648 825 
Q 2906 1169 2906 1791 
z
M 3481 434 
Q 3481 -459 3084 -895 
Q 2688 -1331 1869 -1331 
Q 1566 -1331 1297 -1286 
Q 1028 -1241 775 -1147 
L 775 -588 
Q 1028 -725 1275 -790 
Q 1522 -856 1778 -856 
Q 2344 -856 2625 -561 
Q 2906 -266 2906 331 
L 2906 616 
Q 2728 306 2450 153 
Q 2172 0 1784 0 
Q 1141 0 747 490 
Q 353 981 353 1791 
Q 353 2603 747 3093 
Q 1141 3584 1784 3584 
Q 2172 3584 2450 3431 
Q 2728 3278 2906 2969 
L 2906 3500 
L 3481 3500 
L 3481 434 
z
" transform="scale(0.015625)"/>
       <path id="DejaVuSans-6e" d="M 3513 2113 
L 3513 0 
L 2938 0 
L 2938 2094 
Q 2938 2591 2744 2837 
Q 2550 3084 2163 3084 
Q 1697 3084 1428 2787 
Q 1159 2491 1159 1978 
L 1159 0 
L 581 0 
L 581 3500 
L 1159 3500 
L 1159 2956 
Q 1366 3272 1645 3428 
Q 1925 3584 2291 3584 
Q 2894 3584 3203 3211 
Q 3513 2838 3513 2113 
z
" transform="scale(0.015625)"/>
      </defs>
      <use xlink:href="#DejaVuSans-73"/>
      <use xlink:href="#DejaVuSans-6d" transform="translate(52.099609 0)"/>
      <use xlink:href="#DejaVuSans-6f" transform="translate(149.511719 0)"/>
      <use xlink:href="#DejaVuSans-6f" transform="translate(210.693359 0)"/>
      <use xlink:href="#DejaVuSans-74" transform="translate(271.875 0)"/>
      <use xlink:href="#DejaVuSans-68" transform="translate(311.083984 0)"/>
      <use xlink:href="#DejaVuSans-65" transform="translate(374.462891 0)"/>
      <use xlink:href="#DejaVuSans-64" transform="translate(435.986328 0)"/>
      <use xlink:href="#DejaVuSans-20" transform="translate(499.462891 0)"/>
      <use xlink:href="#DejaVuSans-73" transform="translate(531.25 0)"/>
      <use xlink:href="#DejaVuSans-69" transform="translate(583.349609 0)"/>
      <use xlink:href="#DejaVuSans-67" transform="translate(611.132812 0)"/>
      <use xlink:href="#DejaVuSans-6e" transform="translate(674.609375 0)"/>
      <use xlink:href="#DejaVuSans-61" transform="translate(737.988281 0)"/>
      <use xlink:href="#DejaVuSans-6c" transform="translate(799.267578 0)"/>
     </g>
    </g>
    <g id="line2d_14">
     <g>
      <use xlink:href="#mecec79b55e" x="572.868281" y="35.798906" style="fill-opacity: 0; stroke: #9e9e9e; stroke-width: 1.3"/>
     </g>
    </g>
    <g id="text_11">
     <!-- local maxima -->
     <g transform="translate(589.068281 38.948906) scale(0.09 -0.09)">
      <defs>
       <path id="DejaVuSans-63" d="M 3122 3366 
L 3122 2828 
Q 2878 2963 2633 3030 
Q 2388 3097 2138 3097 
Q 1578 3097 1268 2742 
Q 959 2388 959 1747 
Q 959 1106 1268 751 
Q 1578 397 2138 397 
Q 2388 397 2633 464 
Q 2878 531 3122 666 
L 3122 134 
Q 2881 22 2623 -34 
Q 2366 -91 2075 -91 
Q 1284 -91 818 406 
Q 353 903 353 1747 
Q 353 2603 823 3093 
Q 1294 3584 2113 3584 
Q 2378 3584 2631 3529 
Q 2884 3475 3122 3366 
z
" transform="scale(0.015625)"/>
       <path id="DejaVuSans-78" d="M 3513 3500 
L 2247 1797 
L 3578 0 
L 2900 0 
L 1881 1375 
L 863 0 
L 184 0 
L 1544 1831 
L 300 3500 
L 978 3500 
L 1906 2253 
L 2834 3500 
L 3513 3500 
z
" transform="scale(0.015625)"/>
      </defs>
      <use xlink:href="#DejaVuSans-6c"/>
      <use xlink:href="#DejaVuSans-6f" transform="translate(27.783203 0)"/>
      <use xlink:href="#DejaVuSans-63" transform="translate(88.964844 0)"/>
      <use xlink:href="#DejaVuSans-61" transform="translate(143.945312 0)"/>
      <use xlink:href="#DejaVuSans-6c" transform="translate(205.224609 0)"/>
      <use xlink:href="#DejaVuSans-20" transform="translate(233.007812 0)"/>
      <use xlink:href="#DejaVuSans-6d" transform="translate(264.794922 0)"/>
      <use xlink:href="#DejaVuSans-61" transform="translate(362.207031 0)"/>
      <use xlink:href="#DejaVuSans-78" transform="translate(423.486328 0)"/>
      <use xlink:href="#DejaVuSans-69" transform="translate(482.666016 0)"/>
      <use xlink:href="#DejaVuSans-6d" transform="translate(510.449219 0)"/>
      <use xlink:href="#DejaVuSans-61" transform="translate(607.861328 0)"/>
     </g>
    </g>
    <g id="line2d_15">
     <g>
      <use xlink:href="#m4d0cd60473" x="572.868281" y="49.009219" style="fill: #d81b60; stroke: #ffffff; stroke-width: 0.8"/>
     </g>
    </g>
    <g id="text_12">
     <!-- kept (peak_gate, level 0) -->
     <g transform="translate(589.068281 52.159219) scale(0.09 -0.09)">
      <defs>
       <path id="DejaVuSans-6b" d="M 581 4863 
L 1159 4863 
L 1159 1991 
L 2875 3500 
L 3609 3500 
L 1753 1863 
L 3688 0 
L 2938 0 
L 1159 1709 
L 1159 0 
L 581 0 
L 581 4863 
z
" transform="scale(0.015625)"/>
       <path id="DejaVuSans-5f" d="M 3263 -1063 
L 3263 -1509 
L -63 -1509 
L -63 -1063 
L 3263 -1063 
z
" transform="scale(0.015625)"/>
       <path id="DejaVuSans-2c" d="M 750 794 
L 1409 794 
L 1409 256 
L 897 -744 
L 494 -744 
L 750 256 
L 750 794 
z
" transform="scale(0.015625)"/>
       <path id="DejaVuSans-76" d="M 191 3500 
L 800 3500 
L 1894 563 
L 2988 3500 
L 3597 3500 
L 2284 0 
L 1503 0 
L 191 3500 
z
" transform="scale(0.015625)"/>
      </defs>
      <use xlink:href="#DejaVuSans-6b"/>
      <use xlink:href="#DejaVuSans-65" transform="translate(54.285156 0)"/>
      <use xlink:href="#DejaVuSans-70" transform="translate(115.808594 0)"/>
      <use xlink:href="#DejaVuSans-74" transform="translate(179.285156 0)"/>
      <use xlink:href="#DejaVuSans-20" transform="translate(218.494141 0)"/>
      <use xlink:href="#DejaVuSans-28" transform="translate(250.28125 0)"/>
      <use xlink:href="#DejaVuSans-70" transform="translate(289.294922 0)"/>
      <use xlink:href="#DejaVuSans-65" transform="translate(352.771484 0)"/>
      <use xlink:href="#DejaVuSans-61" transform="translate(414.294922 0)"/>
      <use xlink:href="#DejaVuSans-6b" transform="translate(475.574219 0)"/>
      <use xlink:href="#DejaVuSans-5f" transform="translate(533.484375 0)"/>
      <use xlink:href="#DejaVuSans-67" transform="translate(583.484375 0)"/>
      <use xlink:href="#DejaVuSans-61" transform="translate(646.960938 0)"/>
      <use xlink:href="#DejaVuSans-74" transform="translate(708.240234 0)"/>
      <use xlink:href="#DejaVuSans-65" transform="translate(747.449219 0)"/>
      <use xlink:href="#DejaVuSans-2c" transform="translate(808.972656 0)"/>
      <use xlink:href="#DejaVuSans-20" transform="translate(840.759766 0)"/>
      <use xlink:href="#DejaVuSans-6c" transform="translate(872.546875 0)"/>
      <use xlink:href="#DejaVuSans-65" transform="translate(900.330078 0)"/>
      <use xlink:href="#DejaVuSans-76" transform="translate(961.853516 0)"/>
      <use xlink:href="#DejaVuSans-65" transform="translate(1021.033203 0)"/>
      <use xlink:href="#DejaVuSans-6c" transform="translate(1082.556641 0)"/>
      <use xlink:href="#DejaVuSans-20" transform="translate(1110.339844 0)"/>
      <use xlink:href="#DejaVuSans-30" transform="translate(1142.126953 0)"/>
      <use xlink:href="#DejaVuSans-29" transform="translate(1205.75 0)"/>
     </g>
    </g>
   </g>
  </g>
 </g>
 <defs>
  <clipPath id="p0ecdd34877">
   <rect x="48.22" y="10.8" width="660.98" height="235.24"/>
  </clipPath>
 </defs>
</svg>
