<?xml version="1.0" encoding="utf-8" standalone="no"?>
<!DOCTYPE svg PUBLIC "-//W3C//DTD SVG 1.1//EN"
  "http://www.w3.org/Graphics/SVG/1.1/DTD/svg11.dtd">
<svg xmlns:xlink="http://www.w3.org/1999/xlink" width="712.962812pt" height="279.498899pt" viewBox="0 0 712.962812 279.498899" xmlns="http://www.w3.org/2000/svg" version="1.1">
 <metadata>
  <rdf:RDF xmlns:dc="http://purl.org/dc/elements/1.1/" xmlns:cc="http://creativecommons.org/ns#" xmlns:rdf="http://www.w3.org/1999/02/22-rdf-syntax-ns#">
   <cc:Work>
    <dc:type rdf:resource="http://purl.org/dc/dcmitype/StillImage"/>
    <dc:date>2026-07-21T08:51:14.932426</dc:date>
    <dc:format>image/svg+xml</dc:format>
    <dc:creator>
     <cc:Agent>
      <dc:title>Matplotlib v3.10.9, https://matplotlib.org/</dc:title>
     </cc:Agent>
    </dc:creator>
   </cc:Work>
  </rdf:RDF>
 </metadata>
 <defs>
  <style type="text/css">*{stroke-linejoin: round; stroke-linecap: butt}</style>
 </defs>
 <g id="figure_1">
  <g id="patch_1">
   <path d="M -0 279.498899 
L 712.962812 279.498899 
L 712.962812 0 
L -0 0 
z
" style="fill: #ffffff"/>
  </g>
  <g id="axes_1">
   <g id="patch_2">
    <path d="M 38.482813 241.942649 
L 705.762812 241.942649 
L 705.762812 29.980249 
L 38.482813 29.980249 
z
" style="fill: #ffffff"/>
   </g>
   <g id="line2d_1">
    <path d="M 38.482813 137.022621 
L 705.762812 137.022621 
" clip-path="url(#pe2bc8bd576)" style="fill: none; stroke: #5d5d5d; stroke-width: 0.8; stroke-linecap: square"/>
   </g>
   <g id="matplotlib.axis_1">
    <g id="xtick_1">
     <g id="line2d_2">
      <defs>
       <path id="mca7a0bebe6" d="M 0 0 
L 0 3.5 
" style="stroke: #000000; stroke-width: 0.8"/>
      </defs>
      <g>
       <use xlink:href="#mca7a0bebe6" x="38.482813" y="241.942649" style="stroke: #000000; stroke-width: 0.8"/>
      </g>
     </g>
     <g id="text_1">
      <!-- 0 -->
      <g transform="translate(35.301563 256.541087) scale(0.1 -0.1)">
       <defs>
        <path id="DejaVuSans-30" d="M 2034 4250 
Q 1547 4250 1301 3770 
Q 1056 3291 1056 2328 
Q 1056 1369 1301 889 
Q 1547 409 2034 409 
Q 2525 409 2770 889 
Q 3016 1369 3016 2328 
Q 3016 3291 2770 3770 
Q 2525 4250 2034 4250 
z
M 2034 4750 
Q 2819 4750 3233 4129 
Q 3647 3509 3647 2328 
Q 3647 1150 3233 529 
Q 2819 -91 2034 -91 
Q 1250 -91 836 529 
Q 422 1150 422 2328 
Q 422 3509 836 4129 
Q 1250 4750 2034 4750 
z
" transform="scale(0.015625)"/>
       </defs>
       <use xlink:href="#DejaVuSans-30"/>
      </g>
     </g>
    </g>
    <g id="xtick_2">
     <g id="line2d_3">
      <g>
       <use xlink:href="#mca7a0bebe6" x="146.596876" y="241.942649" style="stroke: #000000; stroke-width: 0.8"/>
      </g>
     </g>
     <g id="text_2">
      <!-- 500 -->
      <g transform="translate(137.053126 256.541087) scale(0.1 -0.1)">
       <defs>
        <path id="DejaVuSans-35" d="M 691 4666 
L 3169 4666 
L 3169 4134 
L 1269 4134 
L 1269 2991 
Q 1406 3038 1543 3061 
Q 1681 3084 1819 3084 
Q 2600 3084 3056 2656 
Q 3513 2228 3513 1497 
Q 3513 744 3044 326 
Q 2575 -91 1722 -91 
Q 1428 -91 1123 -41 
Q 819 9 494 109 
L 494 744 
Q 775 591 1075 516 
Q 1375 441 1709 441 
Q 2250 441 2565 725 
Q 2881 1009 2881 1497 
Q 2881 1984 2565 2268 
Q 2250 2553 1709 2553 
Q 1456 2553 1204 2497 
Q 953 2441 691 2322 
L 691 4666 
z
" transform="scale(0.015625)"/>
       </defs>
       <use xlink:href="#DejaVuSans-35"/>
       <use xlink:href="#DejaVuSans-30" transform="translate(63.623047 0)"/>
       <use xlink:href="#DejaVuSans-30" transform="translate(127.246094 0)"/>
      </g>
     </g>
    </g>
    <g id="xtick_3">
     <g id="line2d_4">
      <g>
       <use xlink:href="#mca7a0bebe6" x="254.71094" y="241.942649" style="stroke: #000000; stroke-width: 0.8"/>
      </g>
     </g>
     <g id="text_3">
      <!-- 1000 -->
      <g transform="translate(241.98594 256.541087) scale(0.1 -0.1)">
       <defs>
        <path id="DejaVuSans-31" d="M 794 531 
L 1825 531 
L 1825 4091 
L 703 3866 
L 703 4441 
L 1819 4666 
L 2450 4666 
L 2450 531 
L 3481 531 
L 3481 0 
L 794 0 
L 794 531 
z
" transform="scale(0.015625)"/>
       </defs>
       <use xlink:href="#DejaVuSans-31"/>
       <use xlink:href="#DejaVuSans-30" transform="translate(63.623047 0)"/>
       <use xlink:href="#DejaVuSans-30" transform="translate(127.246094 0)"/>
       <use xlink:href="#DejaVuSans-30" transform="translate(190.869141 0)"/>
      </g>
     </g>
    </g>
    <g id="xtick_4">
     <g id="line2d_5">
      <g>
       <use xlink:href="#mca7a0bebe6" x="362.825003" y="241.942649" style="stroke: #000000; stroke-width: 0.8"/>
      </g>
     </g>
     <g id="text_4">
      <!-- 1500 -->
      <g transform="translate(350.100003 256.541087) scale(0.1 -0.1)">
       <use xlink:href="#DejaVuSans-31"/>
       <use xlink:href="#DejaVuSans-35" transform="translate(63.623047 0)"/>
       <use xlink:href="#DejaVuSans-30" transform="translate(127.246094 0)"/>
       <use xlink:href="#DejaVuSans-30" transform="translate(190.869141 0)"/>
      </g>
     </g>
    </g>
    <g id="xtick_5">
     <g id="line2d_6">
      <g>
       <use xlink:href="#mca7a0bebe6" x="470.939067" y="241.942649" style="stroke: #000000; stroke-width: 0.8"/>
      </g>
     </g>
     <g id="text_5">
      <!-- 2000 -->
      <g transform="translate(458.214067 256.541087) scale(0.1 -0.1)">
       <defs>
        <path id="DejaVuSans-32" d="M 1228 531 
L 3431 531 
L 3431 0 
L 469 0 
L 469 531 
Q 828 903 1448 1529 
Q 2069 2156 2228 2338 
Q 2531 2678 2651 2914 
Q 2772 3150 2772 3378 
Q 2772 3750 2511 3984 
Q 2250 4219 1831 4219 
Q 1534 4219 1204 4116 
Q 875 4013 500 3803 
L 500 4441 
Q 881 4594 1212 4672 
Q 1544 4750 1819 4750 
Q 2544 4750 2975 4387 
Q 3406 4025 3406 3419 
Q 3406 3131 3298 2873 
Q 3191 2616 2906 2266 
Q 2828 2175 2409 1742 
Q 1991 1309 1228 531 
z
" transform="scale(0.015625)"/>
       </defs>
       <use xlink:href="#DejaVuSans-32"/>
       <use xlink:href="#DejaVuSans-30" transform="translate(63.623047 0)"/>
       <use xlink:href="#DejaVuSans-30" transform="translate(127.246094 0)"/>
       <use xlink:href="#DejaVuSans-30" transform="translate(190.869141 0)"/>
      </g>
     </g>
    </g>
    <g id="xtick_6">
     <g id="line2d_7">
      <g>
       <use xlink:href="#mca7a0bebe6" x="579.05313" y="241.942649" style="stroke: #000000; stroke-width: 0.8"/>
      </g>
     </g>
     <g id="text_6">
      <!-- 2500 -->
      <g transform="translate(566.32813 256.541087) scale(0.1 -0.1)">
       <use xlink:href="#DejaVuSans-32"/>
       <use xlink:href="#DejaVuSans-35" transform="translate(63.623047 0)"/>
       <use xlink:href="#DejaVuSans-30" transform="translate(127.246094 0)"/>
       <use xlink:href="#DejaVuSans-30" transform="translate(190.869141 0)"/>
      </g>
     </g>
    </g>
    <g id="xtick_7">
     <g id="line2d_8">
      <g>
       <use xlink:href="#mca7a0bebe6" x="687.167194" y="241.942649" style="stroke: #000000; stroke-width: 0.8"/>
      </g>
     </g>
     <g id="text_7">
      <!-- 3000 -->
      <g transform="translate(674.442194 256.541087) scale(0.1 -0.1)">
       <defs>
        <path id="DejaVuSans-33" d="M 2597 2516 
Q 3050 2419 3304 2112 
Q 3559 1806 3559 1356 
Q 3559 666 3084 287 
Q 2609 -91 1734 -91 
Q 1441 -91 1130 -33 
Q 819 25 488 141 
L 488 750 
Q 750 597 1062 519 
Q 1375 441 1716 441 
Q 2309 441 2620 675 
Q 2931 909 2931 1356 
Q 2931 1769 2642 2001 
Q 2353 2234 1838 2234 
L 1294 2234 
L 1294 2753 
L 1863 2753 
Q 2328 2753 2575 2939 
Q 2822 3125 2822 3475 
Q 2822 3834 2567 4026 
Q 2313 4219 1838 4219 
Q 1578 4219 1281 4162 
Q 984 4106 628 3988 
L 628 4550 
Q 988 4650 1302 4700 
Q 1616 4750 1894 4750 
Q 2613 4750 3031 4423 
Q 3450 4097 3450 3541 
Q 3450 3153 3228 2886 
Q 3006 2619 2597 2516 
z
" transform="scale(0.015625)"/>
       </defs>
       <use xlink:href="#DejaVuSans-33"/>
       <use xlink:href="#DejaVuSans-30" transform="translate(63.623047 0)"/>
       <use xlink:href="#DejaVuSans-30" transform="translate(127.246094 0)"/>
       <use xlink:href="#DejaVuSans-30" transform="translate(190.869141 0)"/>
      </g>
     </g>
    </g>
    <g id="text_8">
     <!-- Time (samples) -->
     <g transform="translate(333.615 270.219212) scale(0.1 -0.1)">
      <defs>
       <path id="DejaVuSans-54" d="M -19 4666 
L 3928 4666 
L 3928 4134 
L 2272 4134 
L 2272 0 
L 1638 0 
L 1638 4134 
L -19 4134 
L -19 4666 
z
" transform="scale(0.015625)"/>
       <path id="DejaVuSans-69" d="M 603 3500 
L 1178 3500 
L 1178 0 
L 603 0 
L 603 3500 
z
M 603 4863 
L 1178 4863 
L 1178 4134 
L 603 4134 
L 603 4863 
z
" transform="scale(0.015625)"/>
       <path id="DejaVuSans-6d" d="M 3328 2828 
Q 3544 3216 3844 3400 
Q 4144 3584 4550 3584 
Q 5097 3584 5394 3201 
Q 5691 2819 5691 2113 
L 5691 0 
L 5113 0 
L 5113 2094 
Q 5113 2597 4934 2840 
Q 4756 3084 4391 3084 
Q 3944 3084 3684 2787 
Q 3425 2491 3425 1978 
L 3425 0 
L 2847 0 
L 2847 2094 
Q 2847 2600 2669 2842 
Q 2491 3084 2119 3084 
Q 1678 3084 1418 2786 
Q 1159 2488 1159 1978 
L 1159 0 
L 581 0 
L 581 3500 
L 1159 3500 
L 1159 2956 
Q 1356 3278 1631 3431 
Q 1906 3584 2284 3584 
Q 2666 3584 2933 3390 
Q 3200 3197 3328 2828 
z
" transform="scale(0.015625)"/>
       <path id="DejaVuSans-65" d="M 3597 1894 
L 3597 1613 
L 953 1613 
Q 991 1019 1311 708 
Q 1631 397 2203 397 
Q 2534 397 2845 478 
Q 3156 559 3463 722 
L 3463 178 
Q 3153 47 2828 -22 
Q 2503 -91 2169 -91 
Q 1331 -91 842 396 
Q 353 884 353 1716 
Q 353 2575 817 3079 
Q 1281 3584 2069 3584 
Q 2775 3584 3186 3129 
Q 3597 2675 3597 1894 
z
M 3022 2063 
Q 3016 2534 2758 2815 
Q 2500 3097 2075 3097 
Q 1594 3097 1305 2825 
Q 1016 2553 972 2059 
L 3022 2063 
z
" transform="scale(0.015625)"/>
       <path id="DejaVuSans-20" transform="scale(0.015625)"/>
       <path id="DejaVuSans-28" d="M 1984 4856 
Q 1566 4138 1362 3434 
Q 1159 2731 1159 2009 
Q 1159 1288 1364 580 
Q 1569 -128 1984 -844 
L 1484 -844 
Q 1016 -109 783 600 
Q 550 1309 550 2009 
Q 550 2706 781 3412 
Q 1013 4119 1484 4856 
L 1984 4856 
z
" transform="scale(0.015625)"/>
       <path id="DejaVuSans-73" d="M 2834 3397 
L 2834 2853 
Q 2591 2978 2328 3040 
Q 2066 3103 1784 3103 
Q 1356 3103 1142 2972 
Q 928 2841 928 2578 
Q 928 2378 1081 2264 
Q 1234 2150 1697 2047 
L 1894 2003 
Q 2506 1872 2764 1633 
Q 3022 1394 3022 966 
Q 3022 478 2636 193 
Q 2250 -91 1575 -91 
Q 1294 -91 989 -36 
Q 684 19 347 128 
L 347 722 
Q 666 556 975 473 
Q 1284 391 1588 391 
Q 1994 391 2212 530 
Q 2431 669 2431 922 
Q 2431 1156 2273 1281 
Q 2116 1406 1581 1522 
L 1381 1569 
Q 847 1681 609 1914 
Q 372 2147 372 2553 
Q 372 3047 722 3315 
Q 1072 3584 1716 3584 
Q 2034 3584 2315 3537 
Q 2597 3491 2834 3397 
z
" transform="scale(0.015625)"/>
       <path id="DejaVuSans-61" d="M 2194 1759 
Q 1497 1759 1228 1600 
Q 959 1441 959 1056 
Q 959 750 1161 570 
Q 1363 391 1709 391 
Q 2188 391 2477 730 
Q 2766 1069 2766 1631 
L 2766 1759 
L 2194 1759 
z
M 3341 1997 
L 3341 0 
L 2766 0 
L 2766 531 
Q 2569 213 2275 61 
Q 1981 -91 1556 -91 
Q 1019 -91 701 211 
Q 384 513 384 1019 
Q 384 1609 779 1909 
Q 1175 2209 1959 2209 
L 2766 2209 
L 2766 2266 
Q 2766 2663 2505 2880 
Q 2244 3097 1772 3097 
Q 1472 3097 1187 3025 
Q 903 2953 641 2809 
L 641 3341 
Q 956 3463 1253 3523 
Q 1550 3584 1831 3584 
Q 2591 3584 2966 3190 
Q 3341 2797 3341 1997 
z
" transform="scale(0.015625)"/>
       <path id="DejaVuSans-70" d="M 1159 525 
L 1159 -1331 
L 581 -1331 
L 581 3500 
L 1159 3500 
L 1159 2969 
Q 1341 3281 1617 3432 
Q 1894 3584 2278 3584 
Q 2916 3584 3314 3078 
Q 3713 2572 3713 1747 
Q 3713 922 3314 415 
Q 2916 -91 2278 -91 
Q 1894 -91 1617 61 
Q 1341 213 1159 525 
z
M 3116 1747 
Q 3116 2381 2855 2742 
Q 2594 3103 2138 3103 
Q 1681 3103 1420 2742 
Q 1159 2381 1159 1747 
Q 1159 1113 1420 752 
Q 1681 391 2138 391 
Q 2594 391 2855 752 
Q 3116 1113 3116 1747 
z
" transform="scale(0.015625)"/>
       <path id="DejaVuSans-6c" d="M 603 4863 
L 1178 4863 
L 1178 0 
L 603 0 
L 603 4863 
z
" transform="scale(0.015625)"/>
       <path id="DejaVuSans-29" d="M 513 4856 
L 1013 4856 
Q 1481 4119 1714 3412 
Q 1947 2706 1947 2009 
Q 1947 1309 1714 600 
Q 1481 -109 1013 -844 
L 513 -844 
Q 928 -128 1133 580 
Q 1338 1288 1338 2009 
Q 1338 2731 1133 3434 
Q 928 4138 513 4856 
z
" transform="scale(0.015625)"/>
      </defs>
      <use xlink:href="#DejaVuSans-54"/>
      <use xlink:href="#DejaVuSans-69" transform="translate(57.958984 0)"/>
      <use xlink:href="#DejaVuSans-6d" transform="translate(85.742188 0)"/>
      <use xlink:href="#DejaVuSans-65" transform="translate(183.154297 0)"/>
      <use xlink:href="#DejaVuSans-20" transform="translate(244.677734 0)"/>
      <use xlink:href="#DejaVuSans-28" transform="translate(276.464844 0)"/>
      <use xlink:href="#DejaVuSans-73" transform="translate(315.478516 0)"/>
      <use xlink:href="#DejaVuSans-61" transform="translate(367.578125 0)"/>
      <use xlink:href="#DejaVuSans-6d" transform="translate(428.857422 0)"/>
      <use xlink:href="#DejaVuSans-70" transform="translate(526.269531 0)"/>
      <use xlink:href="#DejaVuSans-6c" transform="translate(589.746094 0)"/>
      <use xlink:href="#DejaVuSans-65" transform="translate(617.529297 0)"/>
      <use xlink:href="#DejaVuSans-73" transform="translate(679.052734 0)"/>
      <use xlink:href="#DejaVuSans-29" transform="translate(731.152344 0)"/>
     </g>
    </g>
   </g>
   <g id="matplotlib.axis_2">
    <g id="ytick_1">
     <g id="line2d_9">
      <defs>
       <path id="m7ad80a3e3b" d="M 0 0 
L -3.5 0 
" style="stroke: #000000; stroke-width: 0.8"/>
      </defs>
      <g>
       <use xlink:href="#m7ad80a3e3b" x="38.482813" y="216.244097" style="stroke: #000000; stroke-width: 0.8"/>
      </g>
     </g>
     <g id="text_9">
      <!-- −0.5 -->
      <g transform="translate(7.2 220.043316) scale(0.1 -0.1)">
       <defs>
        <path id="DejaVuSans-2212" d="M 678 2272 
L 4684 2272 
L 4684 1741 
L 678 1741 
L 678 2272 
z
" transform="scale(0.015625)"/>
        <path id="DejaVuSans-2e" d="M 684 794 
L 1344 794 
L 1344 0 
L 684 0 
L 684 794 
z
" transform="scale(0.015625)"/>
       </defs>
       <use xlink:href="#DejaVuSans-2212"/>
       <use xlink:href="#DejaVuSans-30" transform="translate(83.789062 0)"/>
       <use xlink:href="#DejaVuSans-2e" transform="translate(147.412109 0)"/>
       <use xlink:href="#DejaVuSans-35" transform="translate(179.199219 0)"/>
      </g>
     </g>
    </g>
    <g id="ytick_2">
     <g id="line2d_10">
      <g>
       <use xlink:href="#m7ad80a3e3b" x="38.482813" y="137.022621" style="stroke: #000000; stroke-width: 0.8"/>
      </g>
     </g>
     <g id="text_10">
      <!-- 0.0 -->
      <g transform="translate(15.579688 140.821839) scale(0.1 -0.1)">
       <use xlink:href="#DejaVuSans-30"/>
       <use xlink:href="#DejaVuSans-2e" transform="translate(63.623047 0)"/>
       <use xlink:href="#DejaVuSans-30" transform="translate(95.410156 0)"/>
      </g>
     </g>
    </g>
    <g id="ytick_3">
     <g id="line2d_11">
      <g>
       <use xlink:href="#m7ad80a3e3b" x="38.482813" y="57.801144" style="stroke: #000000; stroke-width: 0.8"/>
      </g>
     </g>
     <g id="text_11">
      <!-- 0.5 -->
      <g transform="translate(15.579688 61.600363) scale(0.1 -0.1)">
       <use xlink:href="#DejaVuSans-30"/>
       <use xlink:href="#DejaVuSans-2e" transform="translate(63.623047 0)"/>
       <use xlink:href="#DejaVuSans-35" transform="translate(95.410156 0)"/>
      </g>
     </g>
    </g>
   </g>
   <g id="line2d_12">
    <path d="M 38.482813 137.022621 
L 42.591147 137.022621 
L 43.456059 126.714639 
L 44.320972 119.392198 
L 44.969656 115.509237 
L 45.618341 112.779264 
L 46.267025 111.080598 
L 46.699481 110.473761 
L 47.131938 110.254634 
L 47.564394 110.390103 
L 47.99685 110.843567 
L 48.645534 112.031572 
L 49.510447 114.339452 
L 52.105185 122.058476 
L 53.186325 124.308207 
L 54.267466 125.978988 
L 55.564835 127.537909 
L 56.645975 128.5849 
L 57.510888 129.145312 
L 58.808256 129.657242 
L 61.186766 130.595382 
L 62.700363 131.126166 
L 65.943785 131.930581 
L 67.241153 132.691266 
L 68.538522 133.713381 
L 69.403435 134.693351 
L 70.052119 135.714674 
L 70.917032 137.594917 
L 71.781944 140.207958 
L 72.646857 143.676432 
L 73.727997 149.205141 
L 75.241594 158.478965 
L 76.755191 167.352721 
L 77.620103 171.049988 
L 78.268788 172.98822 
L 78.917472 174.255764 
L 79.349929 174.762465 
L 79.782385 175.036254 
L 80.214841 175.115317 
L 80.647297 175.032768 
L 81.079754 174.754226 
L 81.51221 174.194763 
L 81.944666 173.249651 
L 82.377122 171.806394 
L 83.025807 168.510306 
L 83.674491 163.783477 
L 85.188088 150.011616 
L 86.269229 141.20599 
L 87.350369 134.354758 
L 88.215282 130.133204 
L 89.080194 127.035328 
L 89.728879 125.427132 
L 90.377563 124.331182 
L 91.026247 123.628487 
L 91.674932 123.210039 
L 92.539844 122.957798 
L 93.404757 122.955422 
L 94.269669 123.182629 
L 95.134582 123.644807 
L 95.999494 124.347343 
L 97.080635 125.532496 
L 98.378004 127.301353 
L 100.972741 131.059462 
L 101.837654 131.828385 
L 102.702566 132.27662 
L 103.567479 132.416684 
L 104.432391 132.309577 
L 105.297304 131.973202 
L 106.162216 131.376189 
L 107.675813 129.915028 
L 108.973182 128.815434 
L 109.838094 128.382251 
L 110.486779 128.280214 
L 111.135463 128.367991 
L 111.784148 128.651129 
L 112.432832 129.133271 
L 113.297744 130.106427 
L 114.162657 131.462382 
L 115.460026 133.963246 
L 118.919676 140.943608 
L 121.514413 145.399341 
L 122.163098 146.097599 
L 122.811782 146.451719 
L 123.460466 146.491488 
L 123.892923 146.355703 
L 124.325379 146.050542 
L 124.757835 145.53782 
L 125.40652 144.302124 
L 126.055204 142.362148 
L 126.703888 139.548835 
L 127.568801 134.579747 
L 129.514854 122.50782 
L 130.163538 119.721284 
L 130.812223 117.853875 
L 131.460907 116.782326 
L 131.893363 116.413312 
L 132.32582 116.262316 
L 132.758276 116.284656 
L 133.190732 116.483185 
L 133.623188 116.932054 
L 134.055645 117.720942 
L 134.488101 118.946023 
L 135.136785 121.766624 
L 135.78547 125.781093 
L 136.86661 134.246542 
L 138.380207 146.093004 
L 139.461348 153.091271 
L 140.542488 158.793316 
L 141.623629 163.324785 
L 142.70477 166.924133 
L 143.569682 169.058677 
L 144.218367 170.189009 
L 144.867051 170.9592 
L 145.515735 171.419635 
L 146.16442 171.621175 
L 146.813104 171.573166 
L 147.24556 171.360219 
L 147.678017 170.927987 
L 148.110473 170.201367 
L 148.542929 169.087513 
L 148.975385 167.484071 
L 149.62407 163.941445 
L 150.272754 158.776521 
L 151.137667 149.45247 
L 152.867492 129.637119 
L 153.732404 121.935207 
L 154.381089 117.60005 
L 155.029773 114.612925 
L 155.678457 112.812537 
L 156.110914 112.120776 
L 156.54337 111.719756 
L 156.975826 111.538973 
L 157.62451 111.576999 
L 158.056967 111.807851 
L 158.489423 112.264483 
L 158.921879 113.00663 
L 159.570564 114.720824 
L 160.435476 117.890317 
L 161.516617 121.79245 
L 162.165301 123.532788 
L 162.813986 124.716198 
L 163.46267 125.378648 
L 164.111354 125.640237 
L 164.760039 125.623759 
L 165.408723 125.356308 
L 166.057407 124.754858 
L 166.706092 123.740982 
L 167.571004 121.808295 
L 168.868373 118.88011 
L 169.517057 117.922323 
L 170.165742 117.352879 
L 170.814426 117.104599 
L 171.463111 117.102539 
L 172.111795 117.31105 
L 172.760479 117.75675 
L 173.625392 118.714379 
L 174.706533 120.340796 
L 176.868814 124.198723 
L 178.598639 127.756085 
L 179.896008 130.171231 
L 181.193376 132.072229 
L 182.274517 133.346744 
L 183.139429 134.070195 
L 184.869254 135.107045 
L 185.950395 135.856639 
L 186.815308 136.772598 
L 187.463992 137.746547 
L 188.328905 139.510492 
L 189.193817 141.837544 
L 190.05873 144.979309 
L 191.13987 150.155482 
L 192.437239 156.320814 
L 193.085923 158.446009 
L 193.734608 159.818284 
L 194.167064 160.359525 
L 194.59952 160.627135 
L 195.031976 160.653912 
L 195.464433 160.454591 
L 195.896889 159.900357 
L 196.329345 158.786662 
L 196.761801 156.869343 
L 197.194258 153.913432 
L 197.842942 147.163128 
L 198.707855 134.34335 
L 200.221452 110.314684 
L 201.086364 100.162294 
L 201.735048 94.703617 
L 202.383733 91.079868 
L 202.816189 89.620609 
L 203.248645 88.787991 
L 203.681102 88.434822 
L 204.113558 88.415175 
L 204.546014 88.660603 
L 204.97847 89.293265 
L 205.410927 90.482538 
L 205.843383 92.410631 
L 206.275839 95.23852 
L 206.924523 101.273771 
L 208.005664 114.431349 
L 209.735489 135.459106 
L 210.81663 145.921094 
L 211.681542 152.363543 
L 212.546455 157.23503 
L 213.195139 159.911607 
L 213.843824 161.871863 
L 214.492508 163.289927 
L 215.141192 164.17499 
L 215.573649 164.4792 
L 216.006105 164.587258 
L 216.438561 164.527842 
L 216.871017 164.270531 
L 217.303474 163.704572 
L 217.73593 162.696241 
L 218.168386 161.081549 
L 218.600842 158.677653 
L 219.249527 153.441905 
L 220.330667 141.817263 
L 221.844264 125.671292 
L 222.709177 118.791858 
L 223.357861 115.276008 
L 224.006545 113.146852 
L 224.439002 112.393931 
L 224.871458 112.073876 
L 225.303914 112.075302 
L 225.736371 112.356856 
L 226.168827 113.05749 
L 226.601283 114.337234 
L 227.033739 116.335358 
L 227.682424 120.80646 
L 228.547336 129.160364 
L 231.57453 161.312401 
L 232.223214 165.715689 
L 232.871899 168.776807 
L 233.520583 170.718525 
L 233.953039 171.503927 
L 234.385496 171.969749 
L 234.817952 172.192995 
L 235.466636 172.222149 
L 235.899092 172.07955 
L 236.331549 171.763615 
L 236.764005 171.200192 
L 237.196461 170.289303 
L 237.628917 168.931764 
L 238.277602 165.933865 
L 238.926286 161.854751 
L 239.791199 154.896253 
L 241.088568 141.868282 
L 242.169708 131.964171 
L 243.034621 125.913551 
L 243.899533 121.412662 
L 244.548218 119.125222 
L 245.196902 117.741064 
L 245.629358 117.243712 
L 246.061814 117.00985 
L 246.710499 116.992738 
L 247.142955 117.158628 
L 247.575411 117.49421 
L 248.224096 118.368498 
L 249.089008 120.150506 
L 250.818833 123.911149 
L 251.899974 125.683968 
L 252.548658 126.394584 
L 253.197343 126.741574 
L 253.846027 126.767401 
L 254.494711 126.530845 
L 255.143396 126.03682 
L 256.873221 124.508955 
L 257.521905 124.327538 
L 258.17059 124.438448 
L 258.603046 124.723645 
L 259.035502 125.266312 
L 259.467958 126.172764 
L 259.900415 127.578787 
L 260.332871 129.648686 
L 260.981555 134.271893 
L 261.63024 140.655242 
L 264.008749 166.614377 
L 264.657433 171.050621 
L 265.306118 173.906714 
L 265.738574 175.00108 
L 266.17103 175.568147 
L 266.603487 175.738948 
L 267.035943 175.641665 
L 267.468399 175.248092 
L 267.900855 174.401848 
L 268.333312 172.924685 
L 268.765768 170.662595 
L 269.414452 165.743733 
L 271.360505 148.787644 
L 272.00919 144.861744 
L 272.657874 142.27136 
L 273.09033 141.282359 
L 273.522787 140.749516 
L 273.955243 140.525319 
L 274.603927 140.516129 
L 275.252612 140.790394 
L 275.901296 141.383763 
L 276.766208 142.631818 
L 278.712262 145.769939 
L 279.360946 146.360139 
L 280.00963 146.594635 
L 280.658315 146.562154 
L 281.739455 146.184901 
L 282.604368 145.92759 
L 283.253052 145.920302 
L 283.901737 146.124693 
L 284.550421 146.59004 
L 285.199105 147.327592 
L 286.064018 148.75548 
L 286.92893 150.66139 
L 289.739896 157.62369 
L 291.469721 160.664052 
L 292.334634 162.859279 
L 292.983318 165.114081 
L 293.632002 168.278345 
L 294.280687 172.437948 
L 294.929371 177.773514 
L 295.578056 184.769563 
L 296.010512 191.106964 
L 296.442968 200.436878 
L 296.659196 206.729598 
L 297.091652 210.18001 
L 297.740337 214.255638 
L 298.389021 219.172281 
L 298.605249 219.68532 
L 298.821477 219.752341 
L 299.037706 219.517212 
L 299.253934 218.691249 
L 299.470162 215.497197 
L 299.68639 205.748678 
L 299.902618 182.890588 
L 300.551302 61.710724 
L 300.767531 50.995544 
L 301.199987 46.462174 
L 301.632443 44.261402 
L 302.064899 42.991006 
L 302.713584 41.851167 
L 303.362268 41.164159 
L 304.227181 40.591387 
L 305.308321 40.150758 
L 306.389462 39.912459 
L 306.821918 40.018775 
L 307.038146 40.310627 
L 307.254374 41.14673 
L 307.470603 43.346552 
L 307.686831 48.569465 
L 307.903059 59.092296 
L 308.984199 138.020336 
L 309.416656 152.996205 
L 309.849112 162.487255 
L 310.497796 171.318707 
L 311.146481 176.285418 
L 311.578937 178.24108 
L 312.011393 179.454753 
L 312.443849 180.155387 
L 312.876306 180.518063 
L 313.52499 180.729268 
L 314.389903 180.729268 
L 315.471043 180.47972 
L 318.282009 179.552987 
L 319.795606 179.349388 
L 321.525431 179.351923 
L 323.90394 179.425916 
L 324.768853 179.210909 
L 325.633765 178.719102 
L 326.28245 178.107195 
L 327.147362 176.988905 
L 328.012275 175.566246 
L 328.877187 173.659543 
L 329.525871 171.724638 
L 330.607012 167.59197 
L 332.120609 162.025869 
L 334.715347 153.300099 
L 336.228943 147.78264 
L 337.093856 145.256267 
L 337.74254 143.905699 
L 338.607453 142.601872 
L 339.472365 141.58451 
L 340.769734 140.433739 
L 341.850875 139.730411 
L 342.932015 139.289939 
L 344.229384 139.088558 
L 346.391665 139.026132 
L 347.689034 139.15653 
L 348.770175 139.5463 
L 350.716228 140.582834 
L 351.797369 141.051667 
L 352.878509 141.283627 
L 353.743422 141.342409 
L 354.608334 141.23451 
L 355.257019 140.946936 
L 356.121931 140.30033 
L 356.770615 139.5097 
L 357.635528 137.993242 
L 358.284212 136.401683 
L 360.014037 131.687846 
L 360.662722 130.482096 
L 361.311406 129.737889 
L 362.825003 128.791192 
L 365.419741 127.709661 
L 366.717109 127.55201 
L 369.528075 127.498932 
L 371.2579 127.168261 
L 372.339041 127.077315 
L 374.501322 127.176025 
L 375.150006 127.310701 
L 375.798691 127.781594 
L 376.663603 128.41695 
L 377.096059 128.745719 
L 377.528516 129.402941 
L 377.960972 130.699638 
L 378.825884 133.940113 
L 379.258341 134.859716 
L 379.690797 135.381469 
L 380.339481 135.791836 
L 382.285534 136.629365 
L 382.934219 136.611144 
L 383.582903 136.368727 
L 384.231588 135.749215 
L 385.0965 134.765759 
L 385.961413 134.228638 
L 386.826325 133.679633 
L 387.907466 132.578454 
L 388.55615 131.629223 
L 389.204835 130.036079 
L 389.637291 128.901786 
L 390.069747 128.374329 
L 390.502203 128.361812 
L 390.718431 128.447054 
L 390.93466 128.654139 
L 391.150888 129.055634 
L 391.583344 130.511724 
L 392.0158 131.942306 
L 392.232028 132.284543 
L 392.664485 132.412565 
L 393.096941 132.242555 
L 393.313169 131.959259 
L 393.529397 131.427683 
L 393.961853 129.314846 
L 395.691678 117.484386 
L 396.124135 116.139364 
L 396.556591 115.454732 
L 396.989047 115.246221 
L 397.421503 115.279811 
L 397.85396 115.59432 
L 398.070188 116.028613 
L 398.286416 116.841742 
L 398.502644 118.280879 
L 398.718872 120.681765 
L 399.151328 129.739473 
L 399.800013 153.642019 
L 400.881153 196.263173 
L 401.529838 210.581346 
L 402.178522 218.781244 
L 402.827207 223.860133 
L 403.475891 227.246851 
L 404.124575 229.638864 
L 404.989488 231.882734 
L 405.205716 232.200253 
L 405.421944 232.307994 
L 405.8544 232.182191 
L 406.070628 231.842331 
L 406.286857 230.866322 
L 406.503085 228.357061 
L 406.719313 222.798248 
L 407.151769 199.618995 
L 407.584225 175.522674 
L 408.016682 162.946106 
L 408.449138 157.872921 
L 408.881594 156.10343 
L 409.31405 155.546662 
L 409.746507 155.386951 
L 411.69256 155.084325 
L 412.125016 154.528507 
L 412.557472 153.204558 
L 412.989929 150.206659 
L 413.422385 143.889697 
L 413.854841 133.044435 
L 414.503525 109.648273 
L 415.368438 77.318622 
L 416.017122 63.257127 
L 416.665807 55.159108 
L 417.314491 50.125692 
L 417.963175 46.761948 
L 418.61186 44.38261 
L 419.476772 42.138108 
L 420.341685 40.550668 
L 420.774141 39.922917 
L 421.639054 39.773505 
L 422.07151 39.792835 
L 422.287738 39.874275 
L 422.503966 40.08437 
L 422.720194 40.547657 
L 422.936422 41.476767 
L 423.15265 43.207914 
L 423.368879 46.225619 
L 423.801335 58.130547 
L 424.882475 99.964081 
L 425.53116 114.42311 
L 426.179844 123.030682 
L 427.477213 135.978957 
L 428.342126 142.42505 
L 428.99081 145.709256 
L 429.639494 148.12757 
L 430.288179 149.742896 
L 431.153091 151.029453 
L 432.234232 152.531809 
L 432.882916 153.920086 
L 433.747829 156.502073 
L 434.612741 159.658732 
L 435.477654 162.708283 
L 436.126338 164.1902 
L 438.072391 167.745343 
L 438.937304 168.998944 
L 440.018444 170.095052 
L 440.883357 170.776991 
L 441.532041 170.948584 
L 442.613182 170.893763 
L 443.910551 170.603812 
L 445.424148 170.083327 
L 446.072832 169.605463 
L 446.721516 168.763181 
L 447.153973 167.925493 
L 447.586429 166.730991 
L 449.100026 161.707399 
L 451.910991 154.638467 
L 452.992132 151.376285 
L 453.857045 149.402878 
L 454.505729 148.361432 
L 455.370641 147.509801 
L 456.66801 146.371706 
L 457.749151 145.963873 
L 460.560116 144.92734 
L 461.641257 144.80011 
L 462.289941 144.898345 
L 463.154854 145.317743 
L 464.235995 145.766929 
L 465.533363 146.281235 
L 466.614504 146.647555 
L 467.479417 146.983612 
L 468.993013 147.826687 
L 469.641698 147.830807 
L 470.290382 147.588389 
L 470.939067 146.956043 
L 472.668892 144.514913 
L 473.317576 143.306468 
L 474.614945 140.673622 
L 475.696085 138.819681 
L 476.128542 137.738149 
L 477.42591 133.841403 
L 477.858367 133.43468 
L 478.507051 133.268949 
L 480.020648 133.030492 
L 481.750473 132.578613 
L 485.642579 132.018992 
L 487.372404 131.20111 
L 488.237317 131.311703 
L 489.102229 131.374605 
L 490.832054 131.182889 
L 491.26451 131.418969 
L 491.696967 132.134339 
L 492.129423 133.618791 
L 492.994336 137.074907 
L 493.426792 137.961554 
L 493.859248 138.356235 
L 494.507932 138.490278 
L 496.453986 138.5104 
L 497.10267 138.867689 
L 497.967582 139.459473 
L 498.616267 139.551846 
L 499.048723 139.457097 
L 499.481179 139.126902 
L 499.913636 138.389033 
L 500.56232 136.470922 
L 502.292145 130.757469 
L 502.724601 129.930239 
L 503.157057 129.52922 
L 503.589514 129.431619 
L 504.02197 129.499749 
L 504.454426 129.820755 
L 504.886882 130.595224 
L 505.968023 133.070578 
L 506.400479 133.357677 
L 506.832936 133.337871 
L 507.265392 133.046336 
L 507.48162 132.667182 
L 507.914076 131.158647 
L 509.427673 123.65162 
L 510.076358 121.769951 
L 512.238639 116.300342 
L 512.887323 114.81795 
L 513.319779 114.46589 
L 513.752236 114.507402 
L 513.968464 114.664894 
L 514.184692 115.101404 
L 514.40092 116.209079 
L 514.617148 118.837014 
L 514.833376 124.518778 
L 515.265833 149.538346 
L 515.914517 188.581384 
L 516.346973 202.765831 
L 516.779429 211.483203 
L 517.428114 219.391725 
L 518.076798 224.167829 
L 518.725483 227.324647 
L 519.374167 229.418946 
L 519.806623 230.080762 
L 520.23908 230.29672 
L 520.887764 230.222727 
L 521.32022 229.844365 
L 521.752676 228.837935 
L 522.185133 226.739834 
L 522.617589 222.803319 
L 523.050045 216.328389 
L 524.131186 198.278092 
L 524.996098 189.355219 
L 526.077239 179.501493 
L 526.725923 175.971543 
L 527.590836 172.63315 
L 528.23952 170.159697 
L 528.671976 167.415306 
L 529.104433 161.622949 
L 529.536889 148.883502 
L 529.969345 125.703139 
L 530.61803 87.569881 
L 531.050486 72.741206 
L 531.482942 63.573062 
L 532.131626 55.278415 
L 532.780311 50.296018 
L 533.428995 47.018626 
L 534.07768 44.718985 
L 534.942592 42.559883 
L 535.807505 41.036771 
L 536.672417 39.916737 
L 537.104873 39.734211 
L 537.969786 39.751323 
L 538.186014 39.852885 
L 538.402242 40.085638 
L 538.61847 40.57079 
L 538.834698 41.515902 
L 539.050927 43.22978 
L 539.483383 50.383796 
L 539.915839 63.219576 
L 540.99698 99.847467 
L 541.645664 114.264509 
L 542.07812 120.334458 
L 542.726805 125.839559 
L 543.375489 129.231664 
L 545.53777 139.500035 
L 547.700052 150.261955 
L 548.348736 151.734841 
L 549.213649 153.507184 
L 549.862333 155.665177 
L 552.45707 165.922457 
L 553.105755 167.195546 
L 553.754439 167.875266 
L 556.132949 169.522915 
L 556.997861 169.915695 
L 558.079002 170.162232 
L 559.160142 170.202476 
L 560.025055 170.033259 
L 560.673739 169.644757 
L 562.619792 168.001862 
L 563.268477 167.099371 
L 563.917161 165.798713 
L 564.782074 163.533771 
L 565.646986 160.755791 
L 566.295671 157.694673 
L 567.160583 153.172552 
L 567.593039 151.928617 
L 568.025496 151.302292 
L 568.67418 150.84661 
L 569.539092 150.325333 
L 569.971549 149.868225 
L 570.620233 148.809826 
L 571.701374 147.045722 
L 573.431199 144.648797 
L 573.863655 144.37881 
L 574.512339 144.296578 
L 576.458393 144.281685 
L 577.755761 144.00948 
L 578.620674 144.117221 
L 579.485586 144.497642 
L 580.134271 145.081188 
L 581.647868 146.881892 
L 582.296552 147.113694 
L 585.756202 147.31555 
L 586.188658 147.147759 
L 586.621115 146.723132 
L 587.269799 145.595652 
L 588.134711 144.185827 
L 589.43208 142.563054 
L 589.864536 141.662306 
L 590.513221 139.689849 
L 591.594361 135.929047 
L 592.026818 134.980766 
L 592.459274 134.481037 
L 592.89173 134.286628 
L 594.837783 133.923001 
L 595.486468 133.343417 
L 596.35138 132.477051 
L 597.000065 132.178227 
L 597.648749 132.180287 
L 598.513661 132.443144 
L 599.162346 132.566413 
L 599.81103 132.464217 
L 600.243487 132.188843 
L 601.757083 130.782979 
L 602.621996 130.539452 
L 603.486908 130.521389 
L 604.351821 130.742417 
L 605.000505 131.124899 
L 605.64919 131.794003 
L 606.946558 133.331534 
L 607.595243 133.694526 
L 609.10884 134.33733 
L 609.541296 134.836583 
L 609.973752 135.826693 
L 610.406208 137.543581 
L 611.487349 142.828604 
L 611.919805 143.819823 
L 612.352262 144.078402 
L 612.784718 144.022789 
L 613.217174 143.649814 
L 613.64963 142.539287 
L 614.082087 140.410606 
L 615.163227 133.907632 
L 615.595684 132.487825 
L 616.02814 131.840744 
L 616.460596 131.638888 
L 617.10928 131.65394 
L 617.757965 131.872274 
L 618.839105 132.279314 
L 619.704018 132.31227 
L 621.217615 132.317023 
L 623.379896 132.518404 
L 623.812352 132.247467 
L 624.02858 131.896357 
L 624.244809 131.240879 
L 624.461037 130.065074 
L 624.677265 128.076932 
L 625.109721 120.702046 
L 626.190862 97.194816 
L 626.623318 93.069278 
L 627.055774 91.308343 
L 627.488231 90.814318 
L 627.920687 90.836025 
L 628.136915 90.967849 
L 628.353143 91.329574 
L 628.569371 92.224619 
L 628.785599 94.28707 
L 629.001827 98.63934 
L 629.218056 106.708681 
L 629.650512 135.12289 
L 630.299196 180.09613 
L 630.731652 197.714828 
L 631.164109 208.242411 
L 631.812793 217.462682 
L 632.461477 222.855922 
L 633.110162 226.343885 
L 633.758846 228.763309 
L 634.623759 231.014149 
L 635.056215 231.752969 
L 635.488671 232.095998 
L 635.921127 232.157949 
L 636.353584 232.07334 
L 636.78604 231.685789 
L 637.002268 231.22678 
L 637.218496 230.429178 
L 637.434724 229.099049 
L 637.867181 223.965498 
L 639.164549 200.657272 
L 639.597006 196.76623 
L 640.029462 194.54993 
L 640.461918 193.470458 
L 640.894374 193.034581 
L 641.543059 192.866949 
L 643.272884 192.758257 
L 643.489112 192.506649 
L 643.70534 191.906943 
L 643.921568 190.495374 
L 644.137796 187.290074 
L 644.354024 180.581757 
L 644.786481 150.544459 
L 645.435165 94.987388 
L 645.867621 76.036027 
L 646.300078 65.304686 
L 646.732534 58.601756 
L 647.381218 52.330267 
L 648.029903 48.4153 
L 648.678587 45.761539 
L 649.327271 43.855788 
L 650.192184 42.029257 
L 651.057096 40.717191 
L 651.922009 39.73532 
L 652.786921 39.623143 
L 653.651834 39.676379 
L 654.08429 39.963003 
L 654.300518 40.311577 
L 654.516746 40.943289 
L 654.732975 42.06665 
L 654.949203 43.987929 
L 655.381659 51.524743 
L 657.327712 101.158741 
L 658.192625 115.702695 
L 658.841309 123.415381 
L 659.273765 126.680732 
L 659.92245 129.705408 
L 661.00359 133.708153 
L 661.652275 137.259493 
L 662.949643 144.938431 
L 664.46324 152.287649 
L 665.544381 158.16002 
L 665.976837 159.511538 
L 666.625522 160.681798 
L 667.490434 162.004321 
L 668.139118 163.464214 
L 669.436487 166.607723 
L 670.3014 168.04179 
L 671.166312 169.105259 
L 671.814997 169.558406 
L 672.463681 169.705282 
L 676.788243 169.810647 
L 677.2207 169.569972 
L 677.653156 169.138373 
L 678.085612 168.426489 
L 678.518068 167.345116 
L 680.031665 162.611791 
L 680.464122 161.967562 
L 681.329034 161.237457 
L 681.76149 160.820752 
L 682.193947 160.143884 
L 682.626403 159.021316 
L 683.275087 156.309723 
L 684.356228 150.894618 
L 684.788684 149.660664 
L 685.22114 149.039568 
L 685.869825 148.60892 
L 686.734737 148.053102 
L 687.383422 147.301132 
L 688.897019 145.162627 
L 689.545703 144.71867 
L 690.626844 144.336189 
L 693.221581 143.628107 
L 693.870266 143.788293 
L 694.302722 144.099951 
L 695.600091 145.369554 
L 696.248775 145.565706 
L 698.194828 145.803371 
L 698.843512 146.349524 
L 699.492197 146.955885 
L 699.924653 147.157107 
L 700.573337 147.173902 
L 701.005794 147.037483 
L 701.43825 146.70301 
L 702.086934 145.809708 
L 703.384303 143.889063 
L 705.330356 141.539037 
L 705.762812 140.689149 
L 705.762812 140.689149 
" clip-path="url(#pe2bc8bd576)" style="fill: none; stroke: #1565c0; stroke-width: 1.2; stroke-linecap: square"/>
   </g>
   <g id="line2d_13">
    <path d="M 38.482813 137.022621 
L 42.591147 137.022621 
L 43.239831 136.135588 
L 44.320972 134.085227 
L 46.483253 129.913718 
L 47.780622 127.920037 
L 48.861763 126.662417 
L 49.942903 125.760208 
L 51.024044 125.151058 
L 52.321413 124.679198 
L 54.051238 124.293879 
L 56.645975 123.962293 
L 61.402994 123.628294 
L 68.322294 123.379056 
L 73.511769 123.230015 
L 74.59291 122.929544 
L 75.457822 122.469793 
L 76.322735 121.772595 
L 77.403875 120.596783 
L 79.566157 117.776154 
L 81.51221 115.38366 
L 82.809579 114.129768 
L 83.674491 113.569231 
L 84.539404 113.255436 
L 85.620544 113.114021 
L 91.242475 112.782816 
L 98.161776 111.947496 
L 101.837654 111.808873 
L 110.919235 111.538073 
L 115.676254 111.395254 
L 122.163098 111.274354 
L 127.352573 111.075251 
L 129.298626 110.973779 
L 131.028451 110.619629 
L 135.353013 109.566216 
L 137.082838 109.495085 
L 139.028892 109.407605 
L 140.32626 109.143115 
L 141.623629 108.670544 
L 143.137226 107.882164 
L 145.515735 106.33631 
L 148.542929 104.396905 
L 149.840298 103.826723 
L 150.921439 103.604988 
L 152.867492 103.557619 
L 154.381089 103.375317 
L 156.110914 102.893883 
L 158.056967 102.345836 
L 159.354336 102.249346 
L 160.651704 102.406021 
L 165.408723 103.298611 
L 167.354776 103.327357 
L 169.300829 103.146397 
L 177.517498 102.07986 
L 181.409604 102.01132 
L 187.896448 102.093334 
L 189.410045 102.355879 
L 190.707414 102.803399 
L 192.869695 103.844248 
L 196.329345 105.472294 
L 198.05917 106.053834 
L 199.140311 106.215997 
L 199.788995 106.138972 
L 200.43768 105.883381 
L 201.302592 105.268443 
L 202.383733 104.174823 
L 205.627155 100.65635 
L 206.708295 99.864143 
L 207.573208 99.525265 
L 208.43812 99.417498 
L 210.167945 99.50705 
L 211.89777 99.497295 
L 213.411367 99.241285 
L 215.573649 98.597541 
L 218.600842 97.699746 
L 219.898211 97.574821 
L 223.141633 97.4359 
L 225.520142 96.904771 
L 227.466196 96.536092 
L 229.196021 96.477688 
L 230.925846 96.376368 
L 232.223214 96.028216 
L 233.953039 95.264188 
L 237.628917 93.575435 
L 238.926286 93.200982 
L 240.223655 93.035601 
L 242.602164 93.019931 
L 250.602605 92.992363 
L 253.197343 92.931547 
L 254.927168 93.138732 
L 256.656993 93.566598 
L 258.819274 94.35876 
L 261.414011 95.572755 
L 262.71138 96.102482 
L 263.576293 96.22192 
L 264.441205 96.070607 
L 265.306118 95.67585 
L 268.333312 94.018521 
L 269.414452 93.784937 
L 270.495593 93.825223 
L 272.225418 94.180517 
L 274.603927 94.640762 
L 276.982437 94.825049 
L 283.901737 95.211419 
L 287.577615 95.583625 
L 289.523668 95.537139 
L 291.685949 95.239253 
L 293.415774 94.767116 
L 294.496915 94.267238 
L 295.361827 93.655573 
L 296.010512 92.985201 
L 296.659196 91.942778 
L 297.956565 89.169625 
L 299.68639 85.261053 
L 299.902618 85.107129 
L 300.335074 85.00422 
L 300.767531 84.059106 
L 303.14604 77.585818 
L 305.740778 70.917025 
L 307.470603 66.951979 
L 307.903059 66.259773 
L 308.335515 66.022684 
L 310.930253 65.919887 
L 312.227621 65.41906 
L 314.173674 64.640117 
L 315.254815 64.454881 
L 316.552184 64.47864 
L 320.660518 64.813075 
L 321.741659 64.593357 
L 323.255256 64.022592 
L 326.28245 62.844087 
L 328.228503 62.377058 
L 330.174556 62.14577 
L 336.012715 61.937549 
L 337.958768 62.09422 
L 342.283331 62.557293 
L 345.526753 62.693171 
L 347.256578 63.062791 
L 353.310965 64.573793 
L 355.257019 64.641531 
L 358.284212 64.728069 
L 365.419741 65.175552 
L 377.960972 65.413797 
L 379.474569 65.861572 
L 383.366675 67.148741 
L 384.880272 67.318374 
L 388.123694 67.351501 
L 396.340363 67.231817 
L 399.367557 67.029594 
L 400.232469 66.936832 
L 400.664925 66.701194 
L 401.31361 66.057598 
L 402.178522 64.825214 
L 403.692119 62.172265 
L 406.719313 56.585641 
L 407.151769 56.206992 
L 407.584225 56.111943 
L 408.449138 56.21775 
L 409.530278 56.572588 
L 410.178963 56.945049 
L 410.827647 57.565203 
L 411.908788 58.874932 
L 413.854841 61.442134 
L 414.287297 61.488903 
L 416.23335 63.615039 
L 417.098263 64.07938 
L 418.179404 64.417788 
L 419.693 64.628495 
L 421.206597 64.642242 
L 421.639054 64.521122 
L 422.07151 64.047677 
L 422.936422 62.258602 
L 423.585107 61.068311 
L 424.017563 60.587785 
L 424.450019 60.381934 
L 425.098704 60.382979 
L 426.179844 60.713568 
L 435.261426 64.205391 
L 438.288619 64.9236 
L 441.099585 65.359343 
L 443.478094 65.510895 
L 445.424148 65.428419 
L 454.289501 64.695217 
L 464.668451 64.514262 
L 478.290823 64.401446 
L 497.751354 64.611229 
L 510.292586 64.705255 
L 512.887323 64.726998 
L 514.184692 64.689738 
L 514.617148 64.896053 
L 515.265833 65.544478 
L 516.130745 66.379279 
L 516.995658 66.849778 
L 518.293026 67.232736 
L 520.022851 67.483129 
L 520.671536 67.39618 
L 521.103992 66.979309 
L 521.968905 65.461186 
L 523.050045 63.666986 
L 523.914958 62.738413 
L 524.996098 62.004703 
L 526.077239 61.547142 
L 528.23952 60.941618 
L 528.888205 61.009073 
L 529.320661 61.27845 
L 529.969345 61.999812 
L 530.834258 62.917647 
L 531.69917 63.450329 
L 532.780311 63.832603 
L 534.510136 64.174874 
L 536.239961 64.31928 
L 537.104873 64.261802 
L 537.53733 64.089395 
L 537.969786 63.68493 
L 538.61847 62.663304 
L 539.699611 60.834078 
L 540.348295 60.20932 
L 540.99698 59.929796 
L 542.07812 59.789293 
L 544.240402 59.795739 
L 550.078561 60.120663 
L 553.538211 60.285997 
L 560.457511 60.379991 
L 563.484705 60.236842 
L 567.593039 60.043424 
L 578.620674 60.006888 
L 593.756643 59.997237 
L 625.974634 59.978638 
L 627.488231 59.472565 
L 629.218056 58.880932 
L 629.650512 58.985435 
L 631.164109 59.694733 
L 632.461477 59.949025 
L 634.191302 60.081841 
L 635.704899 59.971794 
L 636.569812 59.740019 
L 637.218496 59.361314 
L 638.515865 58.462224 
L 640.029462 57.931524 
L 642.191743 57.084776 
L 643.489112 56.384569 
L 644.137796 56.027224 
L 644.570253 56.077099 
L 646.516306 57.317686 
L 647.813674 57.60919 
L 649.975956 57.832893 
L 652.354465 57.902786 
L 653.219378 57.785086 
L 653.651834 57.54974 
L 654.300518 56.835068 
L 655.814115 54.705694 
L 656.4628 54.227738 
L 657.327712 53.910728 
L 658.408853 53.770126 
L 661.00359 53.742144 
L 666.84175 54.011318 
L 670.950084 54.182245 
L 677.2207 54.156631 
L 690.626844 53.796717 
L 705.762812 53.805173 
L 705.762812 53.805173 
" clip-path="url(#pe2bc8bd576)" style="fill: none; stroke-dasharray: 4.07,1.76; stroke-dashoffset: 0; stroke: #ef6c00; stroke-width: 1.1"/>
   </g>
   <g id="patch_3">
    <path d="M 38.482813 241.942649 
L 705.762812 241.942649 
" style="fill: none; stroke: #b0b0b0; stroke-width: 0.8; stroke-linejoin: miter; stroke-linecap: square"/>
   </g>
   <g id="line2d_14">
    <defs>
     <path id="m0424203bce" d="M 0 2.5 
C 0.663008 2.5 1.29895 2.236584 1.767767 1.767767 
C 2.236584 1.29895 2.5 0.663008 2.5 0 
C 2.5 -0.663008 2.236584 -1.29895 1.767767 -1.767767 
C 1.29895 -2.236584 0.663008 -2.5 0 -2.5 
C -0.663008 -2.5 -1.29895 -2.236584 -1.767767 -1.767767 
C -2.236584 -1.29895 -2.5 -0.663008 -2.5 0 
C -2.5 0.663008 -2.236584 1.29895 -1.767767 1.767767 
C -1.29895 2.236584 -0.663008 2.5 0 2.5 
z
" style="stroke: #9e9e9e; stroke-width: 1.1"/>
    </defs>
    <g clip-path="url(#pe2bc8bd576)">
     <use xlink:href="#m0424203bce" x="47.131938" y="110.254634" style="fill-opacity: 0; stroke: #9e9e9e; stroke-width: 1.1"/>
     <use xlink:href="#m0424203bce" x="92.972301" y="122.928645" style="fill-opacity: 0; stroke: #9e9e9e; stroke-width: 1.1"/>
     <use xlink:href="#m0424203bce" x="110.486779" y="128.280214" style="fill-opacity: 0; stroke: #9e9e9e; stroke-width: 1.1"/>
     <use xlink:href="#m0424203bce" x="132.542048" y="116.254711" style="fill-opacity: 0; stroke: #9e9e9e; stroke-width: 1.1"/>
     <use xlink:href="#m0424203bce" x="157.192054" y="111.515048" style="fill-opacity: 0; stroke: #9e9e9e; stroke-width: 1.1"/>
     <use xlink:href="#m0424203bce" x="171.030654" y="117.080674" style="fill-opacity: 0; stroke: #9e9e9e; stroke-width: 1.1"/>
     <use xlink:href="#m0424203bce" x="203.89733" y="88.391567" style="fill-opacity: 0; stroke: #9e9e9e; stroke-width: 1.1"/>
     <use xlink:href="#m0424203bce" x="225.087686" y="112.042029" style="fill-opacity: 0; stroke: #9e9e9e; stroke-width: 1.1"/>
     <use xlink:href="#m0424203bce" x="246.494271" y="116.964377" style="fill-opacity: 0; stroke: #9e9e9e; stroke-width: 1.1"/>
     <use xlink:href="#m0424203bce" x="257.521905" y="124.327538" style="fill-opacity: 0; stroke: #9e9e9e; stroke-width: 1.1"/>
     <use xlink:href="#m0424203bce" x="274.387699" y="140.488402" style="fill-opacity: 0; stroke: #9e9e9e; stroke-width: 1.1"/>
     <use xlink:href="#m0424203bce" x="283.036824" y="145.902081" style="fill-opacity: 0; stroke: #9e9e9e; stroke-width: 1.1"/>
     <use xlink:href="#m0424203bce" x="306.389462" y="39.912459" style="fill-opacity: 0; stroke: #9e9e9e; stroke-width: 1.1"/>
     <use xlink:href="#m0424203bce" x="320.660518" y="179.324988" style="fill-opacity: 0; stroke: #9e9e9e; stroke-width: 1.1"/>
     <use xlink:href="#m0424203bce" x="346.175437" y="139.023597" style="fill-opacity: 0; stroke: #9e9e9e; stroke-width: 1.1"/>
     <use xlink:href="#m0424203bce" x="366.717109" y="127.55201" style="fill-opacity: 0; stroke: #9e9e9e; stroke-width: 1.1"/>
     <use xlink:href="#m0424203bce" x="372.339041" y="127.077315" style="fill-opacity: 0; stroke: #9e9e9e; stroke-width: 1.1"/>
     <use xlink:href="#m0424203bce" x="390.285975" y="128.334243" style="fill-opacity: 0; stroke: #9e9e9e; stroke-width: 1.1"/>
     <use xlink:href="#m0424203bce" x="396.989047" y="115.246221" style="fill-opacity: 0; stroke: #9e9e9e; stroke-width: 1.1"/>
     <use xlink:href="#m0424203bce" x="421.855282" y="39.768118" style="fill-opacity: 0; stroke: #9e9e9e; stroke-width: 1.1"/>
     <use xlink:href="#m0424203bce" x="461.425029" y="144.799793" style="fill-opacity: 0; stroke: #9e9e9e; stroke-width: 1.1"/>
     <use xlink:href="#m0424203bce" x="487.372404" y="131.20111" style="fill-opacity: 0; stroke: #9e9e9e; stroke-width: 1.1"/>
     <use xlink:href="#m0424203bce" x="490.399598" y="131.138842" style="fill-opacity: 0; stroke: #9e9e9e; stroke-width: 1.1"/>
     <use xlink:href="#m0424203bce" x="495.805301" y="138.40868" style="fill-opacity: 0; stroke: #9e9e9e; stroke-width: 1.1"/>
     <use xlink:href="#m0424203bce" x="503.589514" y="129.431619" style="fill-opacity: 0; stroke: #9e9e9e; stroke-width: 1.1"/>
     <use xlink:href="#m0424203bce" x="513.536008" y="114.461295" style="fill-opacity: 0; stroke: #9e9e9e; stroke-width: 1.1"/>
     <use xlink:href="#m0424203bce" x="537.53733" y="39.712346" style="fill-opacity: 0; stroke: #9e9e9e; stroke-width: 1.1"/>
     <use xlink:href="#m0424203bce" x="574.512339" y="144.296578" style="fill-opacity: 0; stroke: #9e9e9e; stroke-width: 1.1"/>
     <use xlink:href="#m0424203bce" x="577.755761" y="144.00948" style="fill-opacity: 0; stroke: #9e9e9e; stroke-width: 1.1"/>
     <use xlink:href="#m0424203bce" x="583.377693" y="147.129697" style="fill-opacity: 0; stroke: #9e9e9e; stroke-width: 1.1"/>
     <use xlink:href="#m0424203bce" x="597.216293" y="132.155887" style="fill-opacity: 0; stroke: #9e9e9e; stroke-width: 1.1"/>
     <use xlink:href="#m0424203bce" x="603.054452" y="130.504119" style="fill-opacity: 0; stroke: #9e9e9e; stroke-width: 1.1"/>
     <use xlink:href="#m0424203bce" x="616.676824" y="131.619874" style="fill-opacity: 0; stroke: #9e9e9e; stroke-width: 1.1"/>
     <use xlink:href="#m0424203bce" x="620.56893" y="132.278839" style="fill-opacity: 0; stroke: #9e9e9e; stroke-width: 1.1"/>
     <use xlink:href="#m0424203bce" x="627.704459" y="90.795463" style="fill-opacity: 0; stroke: #9e9e9e; stroke-width: 1.1"/>
     <use xlink:href="#m0424203bce" x="641.759287" y="192.862671" style="fill-opacity: 0; stroke: #9e9e9e; stroke-width: 1.1"/>
     <use xlink:href="#m0424203bce" x="653.219378" y="39.614904" style="fill-opacity: 0; stroke: #9e9e9e; stroke-width: 1.1"/>
     <use xlink:href="#m0424203bce" x="673.977278" y="169.662186" style="fill-opacity: 0; stroke: #9e9e9e; stroke-width: 1.1"/>
     <use xlink:href="#m0424203bce" x="693.005353" y="143.623988" style="fill-opacity: 0; stroke: #9e9e9e; stroke-width: 1.1"/>
     <use xlink:href="#m0424203bce" x="697.113687" y="145.583293" style="fill-opacity: 0; stroke: #9e9e9e; stroke-width: 1.1"/>
    </g>
   </g>
   <g id="LineCollection_1">
    <path d="M 47.131938 137.022621 
L 47.131938 110.254634 
" clip-path="url(#pe2bc8bd576)" style="fill: none; stroke: #d81b60; stroke-width: 1.3"/>
    <path d="M 203.89733 137.022621 
L 203.89733 88.391567 
" clip-path="url(#pe2bc8bd576)" style="fill: none; stroke: #d81b60; stroke-width: 1.3"/>
    <path d="M 306.389462 137.022621 
L 306.389462 39.912459 
" clip-path="url(#pe2bc8bd576)" style="fill: none; stroke: #d81b60; stroke-width: 1.3"/>
    <path d="M 421.855282 137.022621 
L 421.855282 39.768118 
" clip-path="url(#pe2bc8bd576)" style="fill: none; stroke: #d81b60; stroke-width: 1.3"/>
    <path d="M 537.53733 137.022621 
L 537.53733 39.712346 
" clip-path="url(#pe2bc8bd576)" style="fill: none; stroke: #d81b60; stroke-width: 1.3"/>
    <path d="M 653.219378 137.022621 
L 653.219378 39.614904 
" clip-path="url(#pe2bc8bd576)" style="fill: none; stroke: #d81b60; stroke-width: 1.3"/>
   </g>
   <g id="line2d_15">
    <defs>
     <path id="m5e8e66e01a" d="M 0 4 
C 1.060812 4 2.078319 3.578535 2.828427 2.828427 
C 3.578535 2.078319 4 1.060812 4 0 
C 4 -1.060812 3.578535 -2.078319 2.828427 -2.828427 
C 2.078319 -3.578535 1.060812 -4 0 -4 
C -1.060812 -4 -2.078319 -3.578535 -2.828427 -2.828427 
C -3.578535 -2.078319 -4 -1.060812 -4 0 
C -4 1.060812 -3.578535 2.078319 -2.828427 2.828427 
C -2.078319 3.578535 -1.060812 4 0 4 
z
" style="stroke: #ffffff; stroke-width: 0.8"/>
    </defs>
    <g clip-path="url(#pe2bc8bd576)">
     <use xlink:href="#m5e8e66e01a" x="47.131938" y="110.254634" style="fill: #d81b60; stroke: #ffffff; stroke-width: 0.8"/>
     <use xlink:href="#m5e8e66e01a" x="203.89733" y="88.391567" style="fill: #d81b60; stroke: #ffffff; stroke-width: 0.8"/>
     <use xlink:href="#m5e8e66e01a" x="306.389462" y="39.912459" style="fill: #d81b60; stroke: #ffffff; stroke-width: 0.8"/>
     <use xlink:href="#m5e8e66e01a" x="421.855282" y="39.768118" style="fill: #d81b60; stroke: #ffffff; stroke-width: 0.8"/>
     <use xlink:href="#m5e8e66e01a" x="537.53733" y="39.712346" style="fill: #d81b60; stroke: #ffffff; stroke-width: 0.8"/>
     <use xlink:href="#m5e8e66e01a" x="653.219378" y="39.614904" style="fill: #d81b60; stroke: #ffffff; stroke-width: 0.8"/>
    </g>
   </g>
   <g id="legend_1">
    <g id="line2d_16">
     <path d="M 119.610937 14.488594 
L 128.610937 14.488594 
L 137.610937 14.488594 
" style="fill: none; stroke: #1565c0; stroke-width: 1.2; stroke-linecap: square"/>
    </g>
    <g id="text_12">
     <!-- conditioned signal -->
     <g transform="translate(144.810937 17.638594) scale(0.09 -0.09)">
      <defs>
       <path id="DejaVuSans-63" d="M 3122 3366 
L 3122 2828 
Q 2878 2963 2633 3030 
Q 2388 3097 2138 3097 
Q 1578 3097 1268 2742 
Q 959 2388 959 1747 
Q 959 1106 1268 751 
Q 1578 397 2138 397 
Q 2388 397 2633 464 
Q 2878 531 3122 666 
L 3122 134 
Q 2881 22 2623 -34 
Q 2366 -91 2075 -91 
Q 1284 -91 818 406 
Q 353 903 353 1747 
Q 353 2603 823 3093 
Q 1294 3584 2113 3584 
Q 2378 3584 2631 3529 
Q 2884 3475 3122 3366 
z
" transform="scale(0.015625)"/>
       <path id="DejaVuSans-6f" d="M 1959 3097 
Q 1497 3097 1228 2736 
Q 959 2375 959 1747 
Q 959 1119 1226 758 
Q 1494 397 1959 397 
Q 2419 397 2687 759 
Q 2956 1122 2956 1747 
Q 2956 2369 2687 2733 
Q 2419 3097 1959 3097 
z
M 1959 3584 
Q 2709 3584 3137 3096 
Q 3566 2609 3566 1747 
Q 3566 888 3137 398 
Q 2709 -91 1959 -91 
Q 1206 -91 779 398 
Q 353 888 353 1747 
Q 353 2609 779 3096 
Q 1206 3584 1959 3584 
z
" transform="scale(0.015625)"/>
       <path id="DejaVuSans-6e" d="M 3513 2113 
L 3513 0 
L 2938 0 
L 2938 2094 
Q 2938 2591 2744 2837 
Q 2550 3084 2163 3084 
Q 1697 3084 1428 2787 
Q 1159 2491 1159 1978 
L 1159 0 
L 581 0 
L 581 3500 
L 1159 3500 
L 1159 2956 
Q 1366 3272 1645 3428 
Q 1925 3584 2291 3584 
Q 2894 3584 3203 3211 
Q 3513 2838 3513 2113 
z
" transform="scale(0.015625)"/>
       <path id="DejaVuSans-64" d="M 2906 2969 
L 2906 4863 
L 3481 4863 
L 3481 0 
L 2906 0 
L 2906 525 
Q 2725 213 2448 61 
Q 2172 -91 1784 -91 
Q 1150 -91 751 415 
Q 353 922 353 1747 
Q 353 2572 751 3078 
Q 1150 3584 1784 3584 
Q 2172 3584 2448 3432 
Q 2725 3281 2906 2969 
z
M 947 1747 
Q 947 1113 1208 752 
Q 1469 391 1925 391 
Q 2381 391 2643 752 
Q 2906 1113 2906 1747 
Q 2906 2381 2643 2742 
Q 2381 3103 1925 3103 
Q 1469 3103 1208 2742 
Q 947 2381 947 1747 
z
" transform="scale(0.015625)"/>
       <path id="DejaVuSans-74" d="M 1172 4494 
L 1172 3500 
L 2356 3500 
L 2356 3053 
L 1172 3053 
L 1172 1153 
Q 1172 725 1289 603 
Q 1406 481 1766 481 
L 2356 481 
L 2356 0 
L 1766 0 
Q 1100 0 847 248 
Q 594 497 594 1153 
L 594 3053 
L 172 3053 
L 172 3500 
L 594 3500 
L 594 4494 
L 1172 4494 
z
" transform="scale(0.015625)"/>
       <path id="DejaVuSans-67" d="M 2906 1791 
Q 2906 2416 2648 2759 
Q 2391 3103 1925 3103 
Q 1463 3103 1205 2759 
Q 947 2416 947 1791 
Q 947 1169 1205 825 
Q 1463 481 1925 481 
Q 2391 481 2648 825 
Q 2906 1169 2906 1791 
z
M 3481 434 
Q 3481 -459 3084 -895 
Q 2688 -1331 1869 -1331 
Q 1566 -1331 1297 -1286 
Q 1028 -1241 775 -1147 
L 775 -588 
Q 1028 -725 1275 -790 
Q 1522 -856 1778 -856 
Q 2344 -856 2625 -561 
Q 2906 -266 2906 331 
L 2906 616 
Q 2728 306 2450 153 
Q 2172 0 1784 0 
Q 1141 0 747 490 
Q 353 981 353 1791 
Q 353 2603 747 3093 
Q 1141 3584 1784 3584 
Q 2172 3584 2450 3431 
Q 2728 3278 2906 2969 
L 2906 3500 
L 3481 3500 
L 3481 434 
z
" transform="scale(0.015625)"/>
      </defs>
      <use xlink:href="#DejaVuSans-63"/>
      <use xlink:href="#DejaVuSans-6f" transform="translate(54.980469 0)"/>
      <use xlink:href="#DejaVuSans-6e" transform="translate(116.162109 0)"/>
      <use xlink:href="#DejaVuSans-64" transform="translate(179.541016 0)"/>
      <use xlink:href="#DejaVuSans-69" transform="translate(243.017578 0)"/>
      <use xlink:href="#DejaVuSans-74" transform="translate(270.800781 0)"/>
      <use xlink:href="#DejaVuSans-69" transform="translate(310.009766 0)"/>
      <use xlink:href="#DejaVuSans-6f" transform="translate(337.792969 0)"/>
      <use xlink:href="#DejaVuSans-6e" transform="translate(398.974609 0)"/>
      <use xlink:href="#DejaVuSans-65" transform="translate(462.353516 0)"/>
      <use xlink:href="#DejaVuSans-64" transform="translate(523.876953 0)"/>
      <use xlink:href="#DejaVuSans-20" transform="translate(587.353516 0)"/>
      <use xlink:href="#DejaVuSans-73" transform="translate(619.140625 0)"/>
      <use xlink:href="#DejaVuSans-69" transform="translate(671.240234 0)"/>
      <use xlink:href="#DejaVuSans-67" transform="translate(699.023438 0)"/>
      <use xlink:href="#DejaVuSans-6e" transform="translate(762.5 0)"/>
      <use xlink:href="#DejaVuSans-61" transform="translate(825.878906 0)"/>
      <use xlink:href="#DejaVuSans-6c" transform="translate(887.158203 0)"/>
     </g>
    </g>
    <g id="line2d_17">
     <path d="M 245.156719 14.488594 
L 254.156719 14.488594 
L 263.156719 14.488594 
" style="fill: none; stroke-dasharray: 4.07,1.76; stroke-dashoffset: 0; stroke: #ef6c00; stroke-width: 1.1"/>
    </g>
    <g id="text_13">
     <!-- 2 x RMS (one period) -->
     <g transform="translate(270.356719 17.638594) scale(0.09 -0.09)">
      <defs>
       <path id="DejaVuSans-78" d="M 3513 3500 
L 2247 1797 
L 3578 0 
L 2900 0 
L 1881 1375 
L 863 0 
L 184 0 
L 1544 1831 
L 300 3500 
L 978 3500 
L 1906 2253 
L 2834 3500 
L 3513 3500 
z
" transform="scale(0.015625)"/>
       <path id="DejaVuSans-52" d="M 2841 2188 
Q 3044 2119 3236 1894 
Q 3428 1669 3622 1275 
L 4263 0 
L 3584 0 
L 2988 1197 
Q 2756 1666 2539 1819 
Q 2322 1972 1947 1972 
L 1259 1972 
L 1259 0 
L 628 0 
L 628 4666 
L 2053 4666 
Q 2853 4666 3247 4331 
Q 3641 3997 3641 3322 
Q 3641 2881 3436 2590 
Q 3231 2300 2841 2188 
z
M 1259 4147 
L 1259 2491 
L 2053 2491 
Q 2509 2491 2742 2702 
Q 2975 2913 2975 3322 
Q 2975 3731 2742 3939 
Q 2509 4147 2053 4147 
L 1259 4147 
z
" transform="scale(0.015625)"/>
       <path id="DejaVuSans-4d" d="M 628 4666 
L 1569 4666 
L 2759 1491 
L 3956 4666 
L 4897 4666 
L 4897 0 
L 4281 0 
L 4281 4097 
L 3078 897 
L 2444 897 
L 1241 4097 
L 1241 0 
L 628 0 
L 628 4666 
z
" transform="scale(0.015625)"/>
       <path id="DejaVuSans-53" d="M 3425 4513 
L 3425 3897 
Q 3066 4069 2747 4153 
Q 2428 4238 2131 4238 
Q 1616 4238 1336 4038 
Q 1056 3838 1056 3469 
Q 1056 3159 1242 3001 
Q 1428 2844 1947 2747 
L 2328 2669 
Q 3034 2534 3370 2195 
Q 3706 1856 3706 1288 
Q 3706 609 3251 259 
Q 2797 -91 1919 -91 
Q 1588 -91 1214 -16 
Q 841 59 441 206 
L 441 856 
Q 825 641 1194 531 
Q 1563 422 1919 422 
Q 2459 422 2753 634 
Q 3047 847 3047 1241 
Q 3047 1584 2836 1778 
Q 2625 1972 2144 2069 
L 1759 2144 
Q 1053 2284 737 2584 
Q 422 2884 422 3419 
Q 422 4038 858 4394 
Q 1294 4750 2059 4750 
Q 2388 4750 2728 4690 
Q 3069 4631 3425 4513 
z
" transform="scale(0.015625)"/>
       <path id="DejaVuSans-72" d="M 2631 2963 
Q 2534 3019 2420 3045 
Q 2306 3072 2169 3072 
Q 1681 3072 1420 2755 
Q 1159 2438 1159 1844 
L 1159 0 
L 581 0 
L 581 3500 
L 1159 3500 
L 1159 2956 
Q 1341 3275 1631 3429 
Q 1922 3584 2338 3584 
Q 2397 3584 2469 3576 
Q 2541 3569 2628 3553 
L 2631 2963 
z
" transform="scale(0.015625)"/>
      </defs>
      <use xlink:href="#DejaVuSans-32"/>
      <use xlink:href="#DejaVuSans-20" transform="translate(63.623047 0)"/>
      <use xlink:href="#DejaVuSans-78" transform="translate(95.410156 0)"/>
      <use xlink:href="#DejaVuSans-20" transform="translate(154.589844 0)"/>
      <use xlink:href="#DejaVuSans-52" transform="translate(186.376953 0)"/>
      <use xlink:href="#DejaVuSans-4d" transform="translate(255.859375 0)"/>
      <use xlink:href="#DejaVuSans-53" transform="translate(342.138672 0)"/>
      <use xlink:href="#DejaVuSans-20" transform="translate(405.615234 0)"/>
      <use xlink:href="#DejaVuSans-28" transform="translate(437.402344 0)"/>
      <use xlink:href="#DejaVuSans-6f" transform="translate(476.416016 0)"/>
      <use xlink:href="#DejaVuSans-6e" transform="translate(537.597656 0)"/>
      <use xlink:href="#DejaVuSans-65" transform="translate(600.976562 0)"/>
      <use xlink:href="#DejaVuSans-20" transform="translate(662.5 0)"/>
      <use xlink:href="#DejaVuSans-70" transform="translate(694.287109 0)"/>
      <use xlink:href="#DejaVuSans-65" transform="translate(757.763672 0)"/>
      <use xlink:href="#DejaVuSans-72" transform="translate(819.287109 0)"/>
      <use xlink:href="#DejaVuSans-69" transform="translate(860.400391 0)"/>
      <use xlink:href="#DejaVuSans-6f" transform="translate(888.183594 0)"/>
      <use xlink:href="#DejaVuSans-64" transform="translate(949.365234 0)"/>
      <use xlink:href="#DejaVuSans-29" transform="translate(1012.841797 0)"/>
     </g>
    </g>
    <g id="line2d_18">
     <g>
      <use xlink:href="#m0424203bce" x="392.026875" y="14.488594" style="fill-opacity: 0; stroke: #9e9e9e; stroke-width: 1.1"/>
     </g>
    </g>
    <g id="text_14">
     <!-- local maxima -->
     <g transform="translate(408.226875 17.638594) scale(0.09 -0.09)">
      <use xlink:href="#DejaVuSans-6c"/>
      <use xlink:href="#DejaVuSans-6f" transform="translate(27.783203 0)"/>
      <use xlink:href="#DejaVuSans-63" transform="translate(88.964844 0)"/>
      <use xlink:href="#DejaVuSans-61" transform="translate(143.945312 0)"/>
      <use xlink:href="#DejaVuSans-6c" transform="translate(205.224609 0)"/>
      <use xlink:href="#DejaVuSans-20" transform="translate(233.007812 0)"/>
      <use xlink:href="#DejaVuSans-6d" transform="translate(264.794922 0)"/>
      <use xlink:href="#DejaVuSans-61" transform="translate(362.207031 0)"/>
      <use xlink:href="#DejaVuSans-78" transform="translate(423.486328 0)"/>
      <use xlink:href="#DejaVuSans-69" transform="translate(482.666016 0)"/>
      <use xlink:href="#DejaVuSans-6d" transform="translate(510.449219 0)"/>
      <use xlink:href="#DejaVuSans-61" transform="translate(607.861328 0)"/>
     </g>
    </g>
    <g id="line2d_19">
     <g>
      <use xlink:href="#m5e8e66e01a" x="495.449531" y="14.488594" style="fill: #d81b60; stroke: #ffffff; stroke-width: 0.8"/>
     </g>
    </g>
    <g id="text_15">
     <!-- kept (peak_gate on RMS) -->
     <g transform="translate(511.649531 17.638594) scale(0.09 -0.09)">
      <defs>
       <path id="DejaVuSans-6b" d="M 581 4863 
L 1159 4863 
L 1159 1991 
L 2875 3500 
L 3609 3500 
L 1753 1863 
L 3688 0 
L 2938 0 
L 1159 1709 
L 1159 0 
L 581 0 
L 581 4863 
z
" transform="scale(0.015625)"/>
       <path id="DejaVuSans-5f" d="M 3263 -1063 
L 3263 -1509 
L -63 -1509 
L -63 -1063 
L 3263 -1063 
z
" transform="scale(0.015625)"/>
      </defs>
      <use xlink:href="#DejaVuSans-6b"/>
      <use xlink:href="#DejaVuSans-65" transform="translate(54.285156 0)"/>
      <use xlink:href="#DejaVuSans-70" transform="translate(115.808594 0)"/>
      <use xlink:href="#DejaVuSans-74" transform="translate(179.285156 0)"/>
      <use xlink:href="#DejaVuSans-20" transform="translate(218.494141 0)"/>
      <use xlink:href="#DejaVuSans-28" transform="translate(250.28125 0)"/>
      <use xlink:href="#DejaVuSans-70" transform="translate(289.294922 0)"/>
      <use xlink:href="#DejaVuSans-65" transform="translate(352.771484 0)"/>
      <use xlink:href="#DejaVuSans-61" transform="translate(414.294922 0)"/>
      <use xlink:href="#DejaVuSans-6b" transform="translate(475.574219 0)"/>
      <use xlink:href="#DejaVuSans-5f" transform="translate(533.484375 0)"/>
      <use xlink:href="#DejaVuSans-67" transform="translate(583.484375 0)"/>
      <use xlink:href="#DejaVuSans-61" transform="translate(646.960938 0)"/>
      <use xlink:href="#DejaVuSans-74" transform="translate(708.240234 0)"/>
      <use xlink:href="#DejaVuSans-65" transform="translate(747.449219 0)"/>
      <use xlink:href="#DejaVuSans-20" transform="translate(808.972656 0)"/>
      <use xlink:href="#DejaVuSans-6f" transform="translate(840.759766 0)"/>
      <use xlink:href="#DejaVuSans-6e" transform="translate(901.941406 0)"/>
      <use xlink:href="#DejaVuSans-20" transform="translate(965.320312 0)"/>
      <use xlink:href="#DejaVuSans-52" transform="translate(997.107422 0)"/>
      <use xlink:href="#DejaVuSans-4d" transform="translate(1066.589844 0)"/>
      <use xlink:href="#DejaVuSans-53" transform="translate(1152.869141 0)"/>
      <use xlink:href="#DejaVuSans-29" transform="translate(1216.345703 0)"/>
     </g>
    </g>
   </g>
  </g>
 </g>
 <defs>
  <clipPath id="pe2bc8bd576">
   <rect x="38.482813" y="29.980249" width="667.28" height="211.9624"/>
  </clipPath>
 </defs>
</svg>
