<?xml version="1.0" encoding="utf-8" standalone="no"?>
<!DOCTYPE svg PUBLIC "-//W3C//DTD SVG 1.1//EN"
  "http://www.w3.org/Graphics/SVG/1.1/DTD/svg11.dtd">
<svg xmlns:xlink="http://www.w3.org/1999/xlink" width="608.778125pt" height="378.079298pt" viewBox="0 0 608.778125 378.079298" xmlns="http://www.w3.org/2000/svg" version="1.1">
 <metadata>
  <rdf:RDF xmlns:dc="http://purl.org/dc/elements/1.1/" xmlns:cc="http://creativecommons.org/ns#" xmlns:rdf="http://www.w3.org/1999/02/22-rdf-syntax-ns#">
   <cc:Work>
    <dc:type rdf:resource="http://purl.org/dc/dcmitype/StillImage"/>
    <dc:date>2026-07-16T10:01:04.561422</dc:date>
    <dc:format>image/svg+xml</dc:format>
    <dc:creator>
     <cc:Agent>
      <dc:title>Matplotlib v3.9.4, https://matplotlib.org/</dc:title>
     </cc:Agent>
    </dc:creator>
   </cc:Work>
  </rdf:RDF>
 </metadata>
 <defs>
  <style type="text/css">*{stroke-linejoin: round; stroke-linecap: butt}</style>
 </defs>
 <g id="figure_1">
  <g id="patch_1">
   <path d="M 0 378.079298 
L 608.778125 378.079298 
L 608.778125 0 
L 0 0 
z
" style="fill: #ffffff"/>
  </g>
  <g id="axes_1">
   <g id="patch_2">
    <path d="M 43.578125 340.523048 
L 535.931066 340.523048 
L 535.931066 7.883048 
L 43.578125 7.883048 
z
" style="fill: #ffffff"/>
   </g>
   <g id="matplotlib.axis_1">
    <g id="xtick_1">
     <g id="line2d_1">
      <path d="M 54.16636 340.523048 
L 54.16636 7.883048 
" clip-path="url(#pc015ffd7cd)" style="fill: none; stroke-dasharray: 1.85,0.8; stroke-dashoffset: 0; stroke: #b0b0b0; stroke-opacity: 0.8; stroke-width: 0.5"/>
     </g>
     <g id="line2d_2">
      <defs>
       <path id="m7a181f3e53" d="M 0 0 
L 0 3.5 
" style="stroke: #000000; stroke-width: 0.8"/>
      </defs>
      <g>
       <use xlink:href="#m7a181f3e53" x="54.16636" y="340.523048" style="stroke: #000000; stroke-width: 0.8"/>
      </g>
     </g>
     <g id="text_1">
      <!-- 0 -->
      <g transform="translate(50.98511 355.121486) scale(0.1 -0.1)">
       <defs>
        <path id="DejaVuSans-30" d="M 2034 4250 
Q 1547 4250 1301 3770 
Q 1056 3291 1056 2328 
Q 1056 1369 1301 889 
Q 1547 409 2034 409 
Q 2525 409 2770 889 
Q 3016 1369 3016 2328 
Q 3016 3291 2770 3770 
Q 2525 4250 2034 4250 
z
M 2034 4750 
Q 2819 4750 3233 4129 
Q 3647 3509 3647 2328 
Q 3647 1150 3233 529 
Q 2819 -91 2034 -91 
Q 1250 -91 836 529 
Q 422 1150 422 2328 
Q 422 3509 836 4129 
Q 1250 4750 2034 4750 
z
" transform="scale(0.015625)"/>
       </defs>
       <use xlink:href="#DejaVuSans-30"/>
      </g>
     </g>
    </g>
    <g id="xtick_2">
     <g id="line2d_3">
      <path d="M 160.048713 340.523048 
L 160.048713 7.883048 
" clip-path="url(#pc015ffd7cd)" style="fill: none; stroke-dasharray: 1.85,0.8; stroke-dashoffset: 0; stroke: #b0b0b0; stroke-opacity: 0.8; stroke-width: 0.5"/>
     </g>
     <g id="line2d_4">
      <g>
       <use xlink:href="#m7a181f3e53" x="160.048713" y="340.523048" style="stroke: #000000; stroke-width: 0.8"/>
      </g>
     </g>
     <g id="text_2">
      <!-- 20 -->
      <g transform="translate(153.686213 355.121486) scale(0.1 -0.1)">
       <defs>
        <path id="DejaVuSans-32" d="M 1228 531 
L 3431 531 
L 3431 0 
L 469 0 
L 469 531 
Q 828 903 1448 1529 
Q 2069 2156 2228 2338 
Q 2531 2678 2651 2914 
Q 2772 3150 2772 3378 
Q 2772 3750 2511 3984 
Q 2250 4219 1831 4219 
Q 1534 4219 1204 4116 
Q 875 4013 500 3803 
L 500 4441 
Q 881 4594 1212 4672 
Q 1544 4750 1819 4750 
Q 2544 4750 2975 4387 
Q 3406 4025 3406 3419 
Q 3406 3131 3298 2873 
Q 3191 2616 2906 2266 
Q 2828 2175 2409 1742 
Q 1991 1309 1228 531 
z
" transform="scale(0.015625)"/>
       </defs>
       <use xlink:href="#DejaVuSans-32"/>
       <use xlink:href="#DejaVuSans-30" x="63.623047"/>
      </g>
     </g>
    </g>
    <g id="xtick_3">
     <g id="line2d_5">
      <path d="M 265.931066 340.523048 
L 265.931066 7.883048 
" clip-path="url(#pc015ffd7cd)" style="fill: none; stroke-dasharray: 1.85,0.8; stroke-dashoffset: 0; stroke: #b0b0b0; stroke-opacity: 0.8; stroke-width: 0.5"/>
     </g>
     <g id="line2d_6">
      <g>
       <use xlink:href="#m7a181f3e53" x="265.931066" y="340.523048" style="stroke: #000000; stroke-width: 0.8"/>
      </g>
     </g>
     <g id="text_3">
      <!-- 40 -->
      <g transform="translate(259.568566 355.121486) scale(0.1 -0.1)">
       <defs>
        <path id="DejaVuSans-34" d="M 2419 4116 
L 825 1625 
L 2419 1625 
L 2419 4116 
z
M 2253 4666 
L 3047 4666 
L 3047 1625 
L 3713 1625 
L 3713 1100 
L 3047 1100 
L 3047 0 
L 2419 0 
L 2419 1100 
L 313 1100 
L 313 1709 
L 2253 4666 
z
" transform="scale(0.015625)"/>
       </defs>
       <use xlink:href="#DejaVuSans-34"/>
       <use xlink:href="#DejaVuSans-30" x="63.623047"/>
      </g>
     </g>
    </g>
    <g id="xtick_4">
     <g id="line2d_7">
      <path d="M 371.813419 340.523048 
L 371.813419 7.883048 
" clip-path="url(#pc015ffd7cd)" style="fill: none; stroke-dasharray: 1.85,0.8; stroke-dashoffset: 0; stroke: #b0b0b0; stroke-opacity: 0.8; stroke-width: 0.5"/>
     </g>
     <g id="line2d_8">
      <g>
       <use xlink:href="#m7a181f3e53" x="371.813419" y="340.523048" style="stroke: #000000; stroke-width: 0.8"/>
      </g>
     </g>
     <g id="text_4">
      <!-- 60 -->
      <g transform="translate(365.450919 355.121486) scale(0.1 -0.1)">
       <defs>
        <path id="DejaVuSans-36" d="M 2113 2584 
Q 1688 2584 1439 2293 
Q 1191 2003 1191 1497 
Q 1191 994 1439 701 
Q 1688 409 2113 409 
Q 2538 409 2786 701 
Q 3034 994 3034 1497 
Q 3034 2003 2786 2293 
Q 2538 2584 2113 2584 
z
M 3366 4563 
L 3366 3988 
Q 3128 4100 2886 4159 
Q 2644 4219 2406 4219 
Q 1781 4219 1451 3797 
Q 1122 3375 1075 2522 
Q 1259 2794 1537 2939 
Q 1816 3084 2150 3084 
Q 2853 3084 3261 2657 
Q 3669 2231 3669 1497 
Q 3669 778 3244 343 
Q 2819 -91 2113 -91 
Q 1303 -91 875 529 
Q 447 1150 447 2328 
Q 447 3434 972 4092 
Q 1497 4750 2381 4750 
Q 2619 4750 2861 4703 
Q 3103 4656 3366 4563 
z
" transform="scale(0.015625)"/>
       </defs>
       <use xlink:href="#DejaVuSans-36"/>
       <use xlink:href="#DejaVuSans-30" x="63.623047"/>
      </g>
     </g>
    </g>
    <g id="xtick_5">
     <g id="line2d_9">
      <path d="M 477.695772 340.523048 
L 477.695772 7.883048 
" clip-path="url(#pc015ffd7cd)" style="fill: none; stroke-dasharray: 1.85,0.8; stroke-dashoffset: 0; stroke: #b0b0b0; stroke-opacity: 0.8; stroke-width: 0.5"/>
     </g>
     <g id="line2d_10">
      <g>
       <use xlink:href="#m7a181f3e53" x="477.695772" y="340.523048" style="stroke: #000000; stroke-width: 0.8"/>
      </g>
     </g>
     <g id="text_5">
      <!-- 80 -->
      <g transform="translate(471.333272 355.121486) scale(0.1 -0.1)">
       <defs>
        <path id="DejaVuSans-38" d="M 2034 2216 
Q 1584 2216 1326 1975 
Q 1069 1734 1069 1313 
Q 1069 891 1326 650 
Q 1584 409 2034 409 
Q 2484 409 2743 651 
Q 3003 894 3003 1313 
Q 3003 1734 2745 1975 
Q 2488 2216 2034 2216 
z
M 1403 2484 
Q 997 2584 770 2862 
Q 544 3141 544 3541 
Q 544 4100 942 4425 
Q 1341 4750 2034 4750 
Q 2731 4750 3128 4425 
Q 3525 4100 3525 3541 
Q 3525 3141 3298 2862 
Q 3072 2584 2669 2484 
Q 3125 2378 3379 2068 
Q 3634 1759 3634 1313 
Q 3634 634 3220 271 
Q 2806 -91 2034 -91 
Q 1263 -91 848 271 
Q 434 634 434 1313 
Q 434 1759 690 2068 
Q 947 2378 1403 2484 
z
M 1172 3481 
Q 1172 3119 1398 2916 
Q 1625 2713 2034 2713 
Q 2441 2713 2670 2916 
Q 2900 3119 2900 3481 
Q 2900 3844 2670 4047 
Q 2441 4250 2034 4250 
Q 1625 4250 1398 4047 
Q 1172 3844 1172 3481 
z
" transform="scale(0.015625)"/>
       </defs>
       <use xlink:href="#DejaVuSans-38"/>
       <use xlink:href="#DejaVuSans-30" x="63.623047"/>
      </g>
     </g>
    </g>
    <g id="text_6">
     <!-- Absolute semitone index (0 = A0) -->
     <g transform="translate(205.196002 368.799611) scale(0.1 -0.1)">
      <defs>
       <path id="DejaVuSans-41" d="M 2188 4044 
L 1331 1722 
L 3047 1722 
L 2188 4044 
z
M 1831 4666 
L 2547 4666 
L 4325 0 
L 3669 0 
L 3244 1197 
L 1141 1197 
L 716 0 
L 50 0 
L 1831 4666 
z
" transform="scale(0.015625)"/>
       <path id="DejaVuSans-62" d="M 3116 1747 
Q 3116 2381 2855 2742 
Q 2594 3103 2138 3103 
Q 1681 3103 1420 2742 
Q 1159 2381 1159 1747 
Q 1159 1113 1420 752 
Q 1681 391 2138 391 
Q 2594 391 2855 752 
Q 3116 1113 3116 1747 
z
M 1159 2969 
Q 1341 3281 1617 3432 
Q 1894 3584 2278 3584 
Q 2916 3584 3314 3078 
Q 3713 2572 3713 1747 
Q 3713 922 3314 415 
Q 2916 -91 2278 -91 
Q 1894 -91 1617 61 
Q 1341 213 1159 525 
L 1159 0 
L 581 0 
L 581 4863 
L 1159 4863 
L 1159 2969 
z
" transform="scale(0.015625)"/>
       <path id="DejaVuSans-73" d="M 2834 3397 
L 2834 2853 
Q 2591 2978 2328 3040 
Q 2066 3103 1784 3103 
Q 1356 3103 1142 2972 
Q 928 2841 928 2578 
Q 928 2378 1081 2264 
Q 1234 2150 1697 2047 
L 1894 2003 
Q 2506 1872 2764 1633 
Q 3022 1394 3022 966 
Q 3022 478 2636 193 
Q 2250 -91 1575 -91 
Q 1294 -91 989 -36 
Q 684 19 347 128 
L 347 722 
Q 666 556 975 473 
Q 1284 391 1588 391 
Q 1994 391 2212 530 
Q 2431 669 2431 922 
Q 2431 1156 2273 1281 
Q 2116 1406 1581 1522 
L 1381 1569 
Q 847 1681 609 1914 
Q 372 2147 372 2553 
Q 372 3047 722 3315 
Q 1072 3584 1716 3584 
Q 2034 3584 2315 3537 
Q 2597 3491 2834 3397 
z
" transform="scale(0.015625)"/>
       <path id="DejaVuSans-6f" d="M 1959 3097 
Q 1497 3097 1228 2736 
Q 959 2375 959 1747 
Q 959 1119 1226 758 
Q 1494 397 1959 397 
Q 2419 397 2687 759 
Q 2956 1122 2956 1747 
Q 2956 2369 2687 2733 
Q 2419 3097 1959 3097 
z
M 1959 3584 
Q 2709 3584 3137 3096 
Q 3566 2609 3566 1747 
Q 3566 888 3137 398 
Q 2709 -91 1959 -91 
Q 1206 -91 779 398 
Q 353 888 353 1747 
Q 353 2609 779 3096 
Q 1206 3584 1959 3584 
z
" transform="scale(0.015625)"/>
       <path id="DejaVuSans-6c" d="M 603 4863 
L 1178 4863 
L 1178 0 
L 603 0 
L 603 4863 
z
" transform="scale(0.015625)"/>
       <path id="DejaVuSans-75" d="M 544 1381 
L 544 3500 
L 1119 3500 
L 1119 1403 
Q 1119 906 1312 657 
Q 1506 409 1894 409 
Q 2359 409 2629 706 
Q 2900 1003 2900 1516 
L 2900 3500 
L 3475 3500 
L 3475 0 
L 2900 0 
L 2900 538 
Q 2691 219 2414 64 
Q 2138 -91 1772 -91 
Q 1169 -91 856 284 
Q 544 659 544 1381 
z
M 1991 3584 
L 1991 3584 
z
" transform="scale(0.015625)"/>
       <path id="DejaVuSans-74" d="M 1172 4494 
L 1172 3500 
L 2356 3500 
L 2356 3053 
L 1172 3053 
L 1172 1153 
Q 1172 725 1289 603 
Q 1406 481 1766 481 
L 2356 481 
L 2356 0 
L 1766 0 
Q 1100 0 847 248 
Q 594 497 594 1153 
L 594 3053 
L 172 3053 
L 172 3500 
L 594 3500 
L 594 4494 
L 1172 4494 
z
" transform="scale(0.015625)"/>
       <path id="DejaVuSans-65" d="M 3597 1894 
L 3597 1613 
L 953 1613 
Q 991 1019 1311 708 
Q 1631 397 2203 397 
Q 2534 397 2845 478 
Q 3156 559 3463 722 
L 3463 178 
Q 3153 47 2828 -22 
Q 2503 -91 2169 -91 
Q 1331 -91 842 396 
Q 353 884 353 1716 
Q 353 2575 817 3079 
Q 1281 3584 2069 3584 
Q 2775 3584 3186 3129 
Q 3597 2675 3597 1894 
z
M 3022 2063 
Q 3016 2534 2758 2815 
Q 2500 3097 2075 3097 
Q 1594 3097 1305 2825 
Q 1016 2553 972 2059 
L 3022 2063 
z
" transform="scale(0.015625)"/>
       <path id="DejaVuSans-20" transform="scale(0.015625)"/>
       <path id="DejaVuSans-6d" d="M 3328 2828 
Q 3544 3216 3844 3400 
Q 4144 3584 4550 3584 
Q 5097 3584 5394 3201 
Q 5691 2819 5691 2113 
L 5691 0 
L 5113 0 
L 5113 2094 
Q 5113 2597 4934 2840 
Q 4756 3084 4391 3084 
Q 3944 3084 3684 2787 
Q 3425 2491 3425 1978 
L 3425 0 
L 2847 0 
L 2847 2094 
Q 2847 2600 2669 2842 
Q 2491 3084 2119 3084 
Q 1678 3084 1418 2786 
Q 1159 2488 1159 1978 
L 1159 0 
L 581 0 
L 581 3500 
L 1159 3500 
L 1159 2956 
Q 1356 3278 1631 3431 
Q 1906 3584 2284 3584 
Q 2666 3584 2933 3390 
Q 3200 3197 3328 2828 
z
" transform="scale(0.015625)"/>
       <path id="DejaVuSans-69" d="M 603 3500 
L 1178 3500 
L 1178 0 
L 603 0 
L 603 3500 
z
M 603 4863 
L 1178 4863 
L 1178 4134 
L 603 4134 
L 603 4863 
z
" transform="scale(0.015625)"/>
       <path id="DejaVuSans-6e" d="M 3513 2113 
L 3513 0 
L 2938 0 
L 2938 2094 
Q 2938 2591 2744 2837 
Q 2550 3084 2163 3084 
Q 1697 3084 1428 2787 
Q 1159 2491 1159 1978 
L 1159 0 
L 581 0 
L 581 3500 
L 1159 3500 
L 1159 2956 
Q 1366 3272 1645 3428 
Q 1925 3584 2291 3584 
Q 2894 3584 3203 3211 
Q 3513 2838 3513 2113 
z
" transform="scale(0.015625)"/>
       <path id="DejaVuSans-64" d="M 2906 2969 
L 2906 4863 
L 3481 4863 
L 3481 0 
L 2906 0 
L 2906 525 
Q 2725 213 2448 61 
Q 2172 -91 1784 -91 
Q 1150 -91 751 415 
Q 353 922 353 1747 
Q 353 2572 751 3078 
Q 1150 3584 1784 3584 
Q 2172 3584 2448 3432 
Q 2725 3281 2906 2969 
z
M 947 1747 
Q 947 1113 1208 752 
Q 1469 391 1925 391 
Q 2381 391 2643 752 
Q 2906 1113 2906 1747 
Q 2906 2381 2643 2742 
Q 2381 3103 1925 3103 
Q 1469 3103 1208 2742 
Q 947 2381 947 1747 
z
" transform="scale(0.015625)"/>
       <path id="DejaVuSans-78" d="M 3513 3500 
L 2247 1797 
L 3578 0 
L 2900 0 
L 1881 1375 
L 863 0 
L 184 0 
L 1544 1831 
L 300 3500 
L 978 3500 
L 1906 2253 
L 2834 3500 
L 3513 3500 
z
" transform="scale(0.015625)"/>
       <path id="DejaVuSans-28" d="M 1984 4856 
Q 1566 4138 1362 3434 
Q 1159 2731 1159 2009 
Q 1159 1288 1364 580 
Q 1569 -128 1984 -844 
L 1484 -844 
Q 1016 -109 783 600 
Q 550 1309 550 2009 
Q 550 2706 781 3412 
Q 1013 4119 1484 4856 
L 1984 4856 
z
" transform="scale(0.015625)"/>
       <path id="DejaVuSans-3d" d="M 678 2906 
L 4684 2906 
L 4684 2381 
L 678 2381 
L 678 2906 
z
M 678 1631 
L 4684 1631 
L 4684 1100 
L 678 1100 
L 678 1631 
z
" transform="scale(0.015625)"/>
       <path id="DejaVuSans-29" d="M 513 4856 
L 1013 4856 
Q 1481 4119 1714 3412 
Q 1947 2706 1947 2009 
Q 1947 1309 1714 600 
Q 1481 -109 1013 -844 
L 513 -844 
Q 928 -128 1133 580 
Q 1338 1288 1338 2009 
Q 1338 2731 1133 3434 
Q 928 4138 513 4856 
z
" transform="scale(0.015625)"/>
      </defs>
      <use xlink:href="#DejaVuSans-41"/>
      <use xlink:href="#DejaVuSans-62" x="68.408203"/>
      <use xlink:href="#DejaVuSans-73" x="131.884766"/>
      <use xlink:href="#DejaVuSans-6f" x="183.984375"/>
      <use xlink:href="#DejaVuSans-6c" x="245.166016"/>
      <use xlink:href="#DejaVuSans-75" x="272.949219"/>
      <use xlink:href="#DejaVuSans-74" x="336.328125"/>
      <use xlink:href="#DejaVuSans-65" x="375.537109"/>
      <use xlink:href="#DejaVuSans-20" x="437.060547"/>
      <use xlink:href="#DejaVuSans-73" x="468.847656"/>
      <use xlink:href="#DejaVuSans-65" x="520.947266"/>
      <use xlink:href="#DejaVuSans-6d" x="582.470703"/>
      <use xlink:href="#DejaVuSans-69" x="679.882812"/>
      <use xlink:href="#DejaVuSans-74" x="707.666016"/>
      <use xlink:href="#DejaVuSans-6f" x="746.875"/>
      <use xlink:href="#DejaVuSans-6e" x="808.056641"/>
      <use xlink:href="#DejaVuSans-65" x="871.435547"/>
      <use xlink:href="#DejaVuSans-20" x="932.958984"/>
      <use xlink:href="#DejaVuSans-69" x="964.746094"/>
      <use xlink:href="#DejaVuSans-6e" x="992.529297"/>
      <use xlink:href="#DejaVuSans-64" x="1055.908203"/>
      <use xlink:href="#DejaVuSans-65" x="1119.384766"/>
      <use xlink:href="#DejaVuSans-78" x="1179.158203"/>
      <use xlink:href="#DejaVuSans-20" x="1238.337891"/>
      <use xlink:href="#DejaVuSans-28" x="1270.125"/>
      <use xlink:href="#DejaVuSans-30" x="1309.138672"/>
      <use xlink:href="#DejaVuSans-20" x="1372.761719"/>
      <use xlink:href="#DejaVuSans-3d" x="1404.548828"/>
      <use xlink:href="#DejaVuSans-20" x="1488.337891"/>
      <use xlink:href="#DejaVuSans-41" x="1520.125"/>
      <use xlink:href="#DejaVuSans-30" x="1588.533203"/>
      <use xlink:href="#DejaVuSans-29" x="1652.15625"/>
     </g>
    </g>
   </g>
   <g id="matplotlib.axis_2">
    <g id="ytick_1">
     <g id="line2d_11">
      <path d="M 43.578125 322.078806 
L 535.931066 322.078806 
" clip-path="url(#pc015ffd7cd)" style="fill: none; stroke-dasharray: 1.85,0.8; stroke-dashoffset: 0; stroke: #b0b0b0; stroke-opacity: 0.8; stroke-width: 0.5"/>
     </g>
     <g id="line2d_12">
      <defs>
       <path id="m6a4c4ddb11" d="M 0 0 
L -3.5 0 
" style="stroke: #000000; stroke-width: 0.8"/>
      </defs>
      <g>
       <use xlink:href="#m6a4c4ddb11" x="43.578125" y="322.078806" style="stroke: #000000; stroke-width: 0.8"/>
      </g>
     </g>
     <g id="text_7">
      <!-- $\mathdefault{2^{5}}$ -->
      <g transform="translate(25.378125 325.878025) scale(0.1 -0.1)">
       <defs>
        <path id="DejaVuSans-35" d="M 691 4666 
L 3169 4666 
L 3169 4134 
L 1269 4134 
L 1269 2991 
Q 1406 3038 1543 3061 
Q 1681 3084 1819 3084 
Q 2600 3084 3056 2656 
Q 3513 2228 3513 1497 
Q 3513 744 3044 326 
Q 2575 -91 1722 -91 
Q 1428 -91 1123 -41 
Q 819 9 494 109 
L 494 744 
Q 775 591 1075 516 
Q 1375 441 1709 441 
Q 2250 441 2565 725 
Q 2881 1009 2881 1497 
Q 2881 1984 2565 2268 
Q 2250 2553 1709 2553 
Q 1456 2553 1204 2497 
Q 953 2441 691 2322 
L 691 4666 
z
" transform="scale(0.015625)"/>
       </defs>
       <use xlink:href="#DejaVuSans-32" transform="translate(0 0.684375)"/>
       <use xlink:href="#DejaVuSans-35" transform="translate(64.580078 38.965625) scale(0.7)"/>
      </g>
     </g>
    </g>
    <g id="ytick_2">
     <g id="line2d_13">
      <path d="M 43.578125 277.638865 
L 535.931066 277.638865 
" clip-path="url(#pc015ffd7cd)" style="fill: none; stroke-dasharray: 1.85,0.8; stroke-dashoffset: 0; stroke: #b0b0b0; stroke-opacity: 0.8; stroke-width: 0.5"/>
     </g>
     <g id="line2d_14">
      <g>
       <use xlink:href="#m6a4c4ddb11" x="43.578125" y="277.638865" style="stroke: #000000; stroke-width: 0.8"/>
      </g>
     </g>
     <g id="text_8">
      <!-- $\mathdefault{2^{6}}$ -->
      <g transform="translate(25.378125 281.438084) scale(0.1 -0.1)">
       <use xlink:href="#DejaVuSans-32" transform="translate(0 0.765625)"/>
       <use xlink:href="#DejaVuSans-36" transform="translate(64.580078 39.046875) scale(0.7)"/>
      </g>
     </g>
    </g>
    <g id="ytick_3">
     <g id="line2d_15">
      <path d="M 43.578125 233.198924 
L 535.931066 233.198924 
" clip-path="url(#pc015ffd7cd)" style="fill: none; stroke-dasharray: 1.85,0.8; stroke-dashoffset: 0; stroke: #b0b0b0; stroke-opacity: 0.8; stroke-width: 0.5"/>
     </g>
     <g id="line2d_16">
      <g>
       <use xlink:href="#m6a4c4ddb11" x="43.578125" y="233.198924" style="stroke: #000000; stroke-width: 0.8"/>
      </g>
     </g>
     <g id="text_9">
      <!-- $\mathdefault{2^{7}}$ -->
      <g transform="translate(25.378125 236.998143) scale(0.1 -0.1)">
       <defs>
        <path id="DejaVuSans-37" d="M 525 4666 
L 3525 4666 
L 3525 4397 
L 1831 0 
L 1172 0 
L 2766 4134 
L 525 4134 
L 525 4666 
z
" transform="scale(0.015625)"/>
       </defs>
       <use xlink:href="#DejaVuSans-32" transform="translate(0 0.684375)"/>
       <use xlink:href="#DejaVuSans-37" transform="translate(64.580078 38.965625) scale(0.7)"/>
      </g>
     </g>
    </g>
    <g id="ytick_4">
     <g id="line2d_17">
      <path d="M 43.578125 188.758983 
L 535.931066 188.758983 
" clip-path="url(#pc015ffd7cd)" style="fill: none; stroke-dasharray: 1.85,0.8; stroke-dashoffset: 0; stroke: #b0b0b0; stroke-opacity: 0.8; stroke-width: 0.5"/>
     </g>
     <g id="line2d_18">
      <g>
       <use xlink:href="#m6a4c4ddb11" x="43.578125" y="188.758983" style="stroke: #000000; stroke-width: 0.8"/>
      </g>
     </g>
     <g id="text_10">
      <!-- $\mathdefault{2^{8}}$ -->
      <g transform="translate(25.378125 192.558202) scale(0.1 -0.1)">
       <use xlink:href="#DejaVuSans-32" transform="translate(0 0.765625)"/>
       <use xlink:href="#DejaVuSans-38" transform="translate(64.580078 39.046875) scale(0.7)"/>
      </g>
     </g>
    </g>
    <g id="ytick_5">
     <g id="line2d_19">
      <path d="M 43.578125 144.319042 
L 535.931066 144.319042 
" clip-path="url(#pc015ffd7cd)" style="fill: none; stroke-dasharray: 1.85,0.8; stroke-dashoffset: 0; stroke: #b0b0b0; stroke-opacity: 0.8; stroke-width: 0.5"/>
     </g>
     <g id="line2d_20">
      <g>
       <use xlink:href="#m6a4c4ddb11" x="43.578125" y="144.319042" style="stroke: #000000; stroke-width: 0.8"/>
      </g>
     </g>
     <g id="text_11">
      <!-- $\mathdefault{2^{9}}$ -->
      <g transform="translate(25.378125 148.118261) scale(0.1 -0.1)">
       <defs>
        <path id="DejaVuSans-39" d="M 703 97 
L 703 672 
Q 941 559 1184 500 
Q 1428 441 1663 441 
Q 2288 441 2617 861 
Q 2947 1281 2994 2138 
Q 2813 1869 2534 1725 
Q 2256 1581 1919 1581 
Q 1219 1581 811 2004 
Q 403 2428 403 3163 
Q 403 3881 828 4315 
Q 1253 4750 1959 4750 
Q 2769 4750 3195 4129 
Q 3622 3509 3622 2328 
Q 3622 1225 3098 567 
Q 2575 -91 1691 -91 
Q 1453 -91 1209 -44 
Q 966 3 703 97 
z
M 1959 2075 
Q 2384 2075 2632 2365 
Q 2881 2656 2881 3163 
Q 2881 3666 2632 3958 
Q 2384 4250 1959 4250 
Q 1534 4250 1286 3958 
Q 1038 3666 1038 3163 
Q 1038 2656 1286 2365 
Q 1534 2075 1959 2075 
z
" transform="scale(0.015625)"/>
       </defs>
       <use xlink:href="#DejaVuSans-32" transform="translate(0 0.765625)"/>
       <use xlink:href="#DejaVuSans-39" transform="translate(64.580078 39.046875) scale(0.7)"/>
      </g>
     </g>
    </g>
    <g id="ytick_6">
     <g id="line2d_21">
      <path d="M 43.578125 99.879101 
L 535.931066 99.879101 
" clip-path="url(#pc015ffd7cd)" style="fill: none; stroke-dasharray: 1.85,0.8; stroke-dashoffset: 0; stroke: #b0b0b0; stroke-opacity: 0.8; stroke-width: 0.5"/>
     </g>
     <g id="line2d_22">
      <g>
       <use xlink:href="#m6a4c4ddb11" x="43.578125" y="99.879101" style="stroke: #000000; stroke-width: 0.8"/>
      </g>
     </g>
     <g id="text_12">
      <!-- $\mathdefault{2^{10}}$ -->
      <g transform="translate(20.878125 103.67832) scale(0.1 -0.1)">
       <defs>
        <path id="DejaVuSans-31" d="M 794 531 
L 1825 531 
L 1825 4091 
L 703 3866 
L 703 4441 
L 1819 4666 
L 2450 4666 
L 2450 531 
L 3481 531 
L 3481 0 
L 794 0 
L 794 531 
z
" transform="scale(0.015625)"/>
       </defs>
       <use xlink:href="#DejaVuSans-32" transform="translate(0 0.765625)"/>
       <use xlink:href="#DejaVuSans-31" transform="translate(64.580078 39.046875) scale(0.7)"/>
       <use xlink:href="#DejaVuSans-30" transform="translate(109.116211 39.046875) scale(0.7)"/>
      </g>
     </g>
    </g>
    <g id="ytick_7">
     <g id="line2d_23">
      <path d="M 43.578125 55.43916 
L 535.931066 55.43916 
" clip-path="url(#pc015ffd7cd)" style="fill: none; stroke-dasharray: 1.85,0.8; stroke-dashoffset: 0; stroke: #b0b0b0; stroke-opacity: 0.8; stroke-width: 0.5"/>
     </g>
     <g id="line2d_24">
      <g>
       <use xlink:href="#m6a4c4ddb11" x="43.578125" y="55.43916" style="stroke: #000000; stroke-width: 0.8"/>
      </g>
     </g>
     <g id="text_13">
      <!-- $\mathdefault{2^{11}}$ -->
      <g transform="translate(20.878125 59.238379) scale(0.1 -0.1)">
       <use xlink:href="#DejaVuSans-32" transform="translate(0 0.684375)"/>
       <use xlink:href="#DejaVuSans-31" transform="translate(64.580078 38.965625) scale(0.7)"/>
       <use xlink:href="#DejaVuSans-31" transform="translate(109.116211 38.965625) scale(0.7)"/>
      </g>
     </g>
    </g>
    <g id="ytick_8">
     <g id="line2d_25">
      <path d="M 43.578125 10.999219 
L 535.931066 10.999219 
" clip-path="url(#pc015ffd7cd)" style="fill: none; stroke-dasharray: 1.85,0.8; stroke-dashoffset: 0; stroke: #b0b0b0; stroke-opacity: 0.8; stroke-width: 0.5"/>
     </g>
     <g id="line2d_26">
      <g>
       <use xlink:href="#m6a4c4ddb11" x="43.578125" y="10.999219" style="stroke: #000000; stroke-width: 0.8"/>
      </g>
     </g>
     <g id="text_14">
      <!-- $\mathdefault{2^{12}}$ -->
      <g transform="translate(20.878125 14.798438) scale(0.1 -0.1)">
       <use xlink:href="#DejaVuSans-32" transform="translate(0 0.765625)"/>
       <use xlink:href="#DejaVuSans-31" transform="translate(64.580078 39.046875) scale(0.7)"/>
       <use xlink:href="#DejaVuSans-32" transform="translate(109.116211 39.046875) scale(0.7)"/>
      </g>
     </g>
    </g>
    <g id="text_15">
     <!-- Frequency (Hz, log2) -->
     <g transform="translate(14.798438 225.889767) rotate(-90) scale(0.1 -0.1)">
      <defs>
       <path id="DejaVuSans-46" d="M 628 4666 
L 3309 4666 
L 3309 4134 
L 1259 4134 
L 1259 2759 
L 3109 2759 
L 3109 2228 
L 1259 2228 
L 1259 0 
L 628 0 
L 628 4666 
z
" transform="scale(0.015625)"/>
       <path id="DejaVuSans-72" d="M 2631 2963 
Q 2534 3019 2420 3045 
Q 2306 3072 2169 3072 
Q 1681 3072 1420 2755 
Q 1159 2438 1159 1844 
L 1159 0 
L 581 0 
L 581 3500 
L 1159 3500 
L 1159 2956 
Q 1341 3275 1631 3429 
Q 1922 3584 2338 3584 
Q 2397 3584 2469 3576 
Q 2541 3569 2628 3553 
L 2631 2963 
z
" transform="scale(0.015625)"/>
       <path id="DejaVuSans-71" d="M 947 1747 
Q 947 1113 1208 752 
Q 1469 391 1925 391 
Q 2381 391 2643 752 
Q 2906 1113 2906 1747 
Q 2906 2381 2643 2742 
Q 2381 3103 1925 3103 
Q 1469 3103 1208 2742 
Q 947 2381 947 1747 
z
M 2906 525 
Q 2725 213 2448 61 
Q 2172 -91 1784 -91 
Q 1150 -91 751 415 
Q 353 922 353 1747 
Q 353 2572 751 3078 
Q 1150 3584 1784 3584 
Q 2172 3584 2448 3432 
Q 2725 3281 2906 2969 
L 2906 3500 
L 3481 3500 
L 3481 -1331 
L 2906 -1331 
L 2906 525 
z
" transform="scale(0.015625)"/>
       <path id="DejaVuSans-63" d="M 3122 3366 
L 3122 2828 
Q 2878 2963 2633 3030 
Q 2388 3097 2138 3097 
Q 1578 3097 1268 2742 
Q 959 2388 959 1747 
Q 959 1106 1268 751 
Q 1578 397 2138 397 
Q 2388 397 2633 464 
Q 2878 531 3122 666 
L 3122 134 
Q 2881 22 2623 -34 
Q 2366 -91 2075 -91 
Q 1284 -91 818 406 
Q 353 903 353 1747 
Q 353 2603 823 3093 
Q 1294 3584 2113 3584 
Q 2378 3584 2631 3529 
Q 2884 3475 3122 3366 
z
" transform="scale(0.015625)"/>
       <path id="DejaVuSans-79" d="M 2059 -325 
Q 1816 -950 1584 -1140 
Q 1353 -1331 966 -1331 
L 506 -1331 
L 506 -850 
L 844 -850 
Q 1081 -850 1212 -737 
Q 1344 -625 1503 -206 
L 1606 56 
L 191 3500 
L 800 3500 
L 1894 763 
L 2988 3500 
L 3597 3500 
L 2059 -325 
z
" transform="scale(0.015625)"/>
       <path id="DejaVuSans-48" d="M 628 4666 
L 1259 4666 
L 1259 2753 
L 3553 2753 
L 3553 4666 
L 4184 4666 
L 4184 0 
L 3553 0 
L 3553 2222 
L 1259 2222 
L 1259 0 
L 628 0 
L 628 4666 
z
" transform="scale(0.015625)"/>
       <path id="DejaVuSans-7a" d="M 353 3500 
L 3084 3500 
L 3084 2975 
L 922 459 
L 3084 459 
L 3084 0 
L 275 0 
L 275 525 
L 2438 3041 
L 353 3041 
L 353 3500 
z
" transform="scale(0.015625)"/>
       <path id="DejaVuSans-2c" d="M 750 794 
L 1409 794 
L 1409 256 
L 897 -744 
L 494 -744 
L 750 256 
L 750 794 
z
" transform="scale(0.015625)"/>
       <path id="DejaVuSans-67" d="M 2906 1791 
Q 2906 2416 2648 2759 
Q 2391 3103 1925 3103 
Q 1463 3103 1205 2759 
Q 947 2416 947 1791 
Q 947 1169 1205 825 
Q 1463 481 1925 481 
Q 2391 481 2648 825 
Q 2906 1169 2906 1791 
z
M 3481 434 
Q 3481 -459 3084 -895 
Q 2688 -1331 1869 -1331 
Q 1566 -1331 1297 -1286 
Q 1028 -1241 775 -1147 
L 775 -588 
Q 1028 -725 1275 -790 
Q 1522 -856 1778 -856 
Q 2344 -856 2625 -561 
Q 2906 -266 2906 331 
L 2906 616 
Q 2728 306 2450 153 
Q 2172 0 1784 0 
Q 1141 0 747 490 
Q 353 981 353 1791 
Q 353 2603 747 3093 
Q 1141 3584 1784 3584 
Q 2172 3584 2450 3431 
Q 2728 3278 2906 2969 
L 2906 3500 
L 3481 3500 
L 3481 434 
z
" transform="scale(0.015625)"/>
      </defs>
      <use xlink:href="#DejaVuSans-46"/>
      <use xlink:href="#DejaVuSans-72" x="50.269531"/>
      <use xlink:href="#DejaVuSans-65" x="89.132812"/>
      <use xlink:href="#DejaVuSans-71" x="150.65625"/>
      <use xlink:href="#DejaVuSans-75" x="214.132812"/>
      <use xlink:href="#DejaVuSans-65" x="277.511719"/>
      <use xlink:href="#DejaVuSans-6e" x="339.035156"/>
      <use xlink:href="#DejaVuSans-63" x="402.414062"/>
      <use xlink:href="#DejaVuSans-79" x="457.394531"/>
      <use xlink:href="#DejaVuSans-20" x="516.574219"/>
      <use xlink:href="#DejaVuSans-28" x="548.361328"/>
      <use xlink:href="#DejaVuSans-48" x="587.375"/>
      <use xlink:href="#DejaVuSans-7a" x="662.570312"/>
      <use xlink:href="#DejaVuSans-2c" x="715.060547"/>
      <use xlink:href="#DejaVuSans-20" x="746.847656"/>
      <use xlink:href="#DejaVuSans-6c" x="778.634766"/>
      <use xlink:href="#DejaVuSans-6f" x="806.417969"/>
      <use xlink:href="#DejaVuSans-67" x="867.599609"/>
      <use xlink:href="#DejaVuSans-32" x="931.076172"/>
      <use xlink:href="#DejaVuSans-29" x="994.699219"/>
     </g>
    </g>
   </g>
   <g id="line2d_27">
    <path d="M 54.16636 331.795168 
L 59.460478 328.091839 
L 64.754596 324.388511 
L 70.048713 320.685182 
L 75.342831 316.981854 
L 80.636949 313.278525 
L 85.931066 309.575197 
L 91.225184 305.871869 
L 96.519301 302.16854 
L 101.813419 298.465212 
L 107.107537 294.761883 
L 112.401654 291.058555 
L 117.695772 287.355227 
L 122.98989 283.651898 
L 128.284007 279.94857 
L 133.578125 276.245241 
L 138.872243 272.541913 
L 144.16636 268.838584 
L 149.460478 265.135256 
L 154.754596 261.431928 
L 160.048713 257.728599 
L 165.342831 254.025271 
L 170.636949 250.321942 
L 175.931066 246.618614 
L 181.225184 242.915285 
L 186.519301 239.211957 
L 191.813419 235.508629 
L 197.107537 231.8053 
L 202.401654 228.101972 
L 207.695772 224.398643 
L 212.98989 220.695315 
L 218.284007 216.991987 
L 223.578125 213.288658 
L 228.872243 209.58533 
L 234.16636 205.882001 
L 239.460478 202.178673 
L 244.754596 198.475344 
L 250.048713 194.772016 
L 255.342831 191.068688 
L 260.636949 187.365359 
L 265.931066 183.662031 
L 271.225184 179.958702 
L 276.519301 176.255374 
L 281.813419 172.552045 
L 287.107537 168.848717 
L 292.401654 165.145389 
L 297.695772 161.44206 
L 302.98989 157.738732 
L 308.284007 154.035403 
L 313.578125 150.332075 
L 318.872243 146.628747 
L 324.16636 142.925418 
L 329.460478 139.22209 
L 334.754596 135.518761 
L 340.048713 131.815433 
L 345.342831 128.112104 
L 350.636949 124.408776 
L 355.931066 120.705448 
L 361.225184 117.002119 
L 366.519301 113.298791 
L 371.813419 109.595462 
L 377.107537 105.892134 
L 382.401654 102.188805 
L 387.695772 98.485477 
L 392.98989 94.782149 
L 398.284007 91.07882 
L 403.578125 87.375492 
L 408.872243 83.672163 
L 414.16636 79.968835 
L 419.460478 76.265507 
L 424.754596 72.562178 
L 430.048713 68.85885 
L 435.342831 65.155521 
L 440.636949 61.452193 
L 445.931066 57.748864 
L 451.225184 54.045536 
L 456.519301 50.342208 
L 461.813419 46.638879 
L 467.107537 42.935551 
L 472.401654 39.232222 
L 477.695772 35.528894 
L 482.98989 31.825565 
L 488.284007 28.122237 
L 493.578125 24.418909 
L 498.872243 20.71558 
" clip-path="url(#pc015ffd7cd)" style="fill: none; stroke: #1565c0; stroke-width: 1.4; stroke-linecap: square"/>
   </g>
   <g id="patch_3">
    <path d="M 43.578125 340.523048 
L 43.578125 7.883048 
" style="fill: none; stroke: #000000; stroke-width: 0.8; stroke-linejoin: miter; stroke-linecap: square"/>
   </g>
   <g id="patch_4">
    <path d="M 535.931066 340.523048 
L 535.931066 7.883048 
" style="fill: none; stroke: #000000; stroke-width: 0.8; stroke-linejoin: miter; stroke-linecap: square"/>
   </g>
   <g id="patch_5">
    <path d="M 43.578125 340.523048 
L 535.931066 340.523048 
" style="fill: none; stroke: #000000; stroke-width: 0.8; stroke-linejoin: miter; stroke-linecap: square"/>
   </g>
   <g id="patch_6">
    <path d="M 43.578125 7.883048 
L 535.931066 7.883048 
" style="fill: none; stroke: #000000; stroke-width: 0.8; stroke-linejoin: miter; stroke-linecap: square"/>
   </g>
   <g id="PathCollection_1">
    <defs>
     <path id="m5a067abe88" d="M 0 2 
C 0.530406 2 1.03916 1.789267 1.414214 1.414214 
C 1.789267 1.03916 2 0.530406 2 0 
C 2 -0.530406 1.789267 -1.03916 1.414214 -1.414214 
C 1.03916 -1.789267 0.530406 -2 0 -2 
C -0.530406 -2 -1.03916 -1.789267 -1.414214 -1.414214 
C -1.789267 -1.03916 -2 -0.530406 -2 0 
C -2 0.530406 -1.789267 1.03916 -1.414214 1.414214 
C -1.03916 1.789267 -0.530406 2 0 2 
z
" style="stroke: #ffffff; stroke-width: 0.4"/>
    </defs>
    <g clip-path="url(#pc015ffd7cd)">
     <use xlink:href="#m5a067abe88" x="54.16636" y="331.795168" style="fill: #64b5f6; stroke: #ffffff; stroke-width: 0.4"/>
     <use xlink:href="#m5a067abe88" x="59.460478" y="328.091839" style="fill: #64b5f6; stroke: #ffffff; stroke-width: 0.4"/>
     <use xlink:href="#m5a067abe88" x="64.754596" y="324.388511" style="fill: #64b5f6; stroke: #ffffff; stroke-width: 0.4"/>
     <use xlink:href="#m5a067abe88" x="70.048713" y="320.685182" style="fill: #64b5f6; stroke: #ffffff; stroke-width: 0.4"/>
     <use xlink:href="#m5a067abe88" x="75.342831" y="316.981854" style="fill: #64b5f6; stroke: #ffffff; stroke-width: 0.4"/>
     <use xlink:href="#m5a067abe88" x="80.636949" y="313.278525" style="fill: #64b5f6; stroke: #ffffff; stroke-width: 0.4"/>
     <use xlink:href="#m5a067abe88" x="85.931066" y="309.575197" style="fill: #64b5f6; stroke: #ffffff; stroke-width: 0.4"/>
     <use xlink:href="#m5a067abe88" x="91.225184" y="305.871869" style="fill: #64b5f6; stroke: #ffffff; stroke-width: 0.4"/>
     <use xlink:href="#m5a067abe88" x="96.519301" y="302.16854" style="fill: #64b5f6; stroke: #ffffff; stroke-width: 0.4"/>
     <use xlink:href="#m5a067abe88" x="101.813419" y="298.465212" style="fill: #64b5f6; stroke: #ffffff; stroke-width: 0.4"/>
     <use xlink:href="#m5a067abe88" x="107.107537" y="294.761883" style="fill: #64b5f6; stroke: #ffffff; stroke-width: 0.4"/>
     <use xlink:href="#m5a067abe88" x="112.401654" y="291.058555" style="fill: #64b5f6; stroke: #ffffff; stroke-width: 0.4"/>
     <use xlink:href="#m5a067abe88" x="117.695772" y="287.355227" style="fill: #64b5f6; stroke: #ffffff; stroke-width: 0.4"/>
     <use xlink:href="#m5a067abe88" x="122.98989" y="283.651898" style="fill: #64b5f6; stroke: #ffffff; stroke-width: 0.4"/>
     <use xlink:href="#m5a067abe88" x="128.284007" y="279.94857" style="fill: #64b5f6; stroke: #ffffff; stroke-width: 0.4"/>
     <use xlink:href="#m5a067abe88" x="133.578125" y="276.245241" style="fill: #64b5f6; stroke: #ffffff; stroke-width: 0.4"/>
     <use xlink:href="#m5a067abe88" x="138.872243" y="272.541913" style="fill: #64b5f6; stroke: #ffffff; stroke-width: 0.4"/>
     <use xlink:href="#m5a067abe88" x="144.16636" y="268.838584" style="fill: #64b5f6; stroke: #ffffff; stroke-width: 0.4"/>
     <use xlink:href="#m5a067abe88" x="149.460478" y="265.135256" style="fill: #64b5f6; stroke: #ffffff; stroke-width: 0.4"/>
     <use xlink:href="#m5a067abe88" x="154.754596" y="261.431928" style="fill: #64b5f6; stroke: #ffffff; stroke-width: 0.4"/>
     <use xlink:href="#m5a067abe88" x="160.048713" y="257.728599" style="fill: #64b5f6; stroke: #ffffff; stroke-width: 0.4"/>
     <use xlink:href="#m5a067abe88" x="165.342831" y="254.025271" style="fill: #64b5f6; stroke: #ffffff; stroke-width: 0.4"/>
     <use xlink:href="#m5a067abe88" x="170.636949" y="250.321942" style="fill: #64b5f6; stroke: #ffffff; stroke-width: 0.4"/>
     <use xlink:href="#m5a067abe88" x="175.931066" y="246.618614" style="fill: #64b5f6; stroke: #ffffff; stroke-width: 0.4"/>
     <use xlink:href="#m5a067abe88" x="181.225184" y="242.915285" style="fill: #64b5f6; stroke: #ffffff; stroke-width: 0.4"/>
     <use xlink:href="#m5a067abe88" x="186.519301" y="239.211957" style="fill: #64b5f6; stroke: #ffffff; stroke-width: 0.4"/>
     <use xlink:href="#m5a067abe88" x="191.813419" y="235.508629" style="fill: #64b5f6; stroke: #ffffff; stroke-width: 0.4"/>
     <use xlink:href="#m5a067abe88" x="197.107537" y="231.8053" style="fill: #64b5f6; stroke: #ffffff; stroke-width: 0.4"/>
     <use xlink:href="#m5a067abe88" x="202.401654" y="228.101972" style="fill: #64b5f6; stroke: #ffffff; stroke-width: 0.4"/>
     <use xlink:href="#m5a067abe88" x="207.695772" y="224.398643" style="fill: #64b5f6; stroke: #ffffff; stroke-width: 0.4"/>
     <use xlink:href="#m5a067abe88" x="212.98989" y="220.695315" style="fill: #64b5f6; stroke: #ffffff; stroke-width: 0.4"/>
     <use xlink:href="#m5a067abe88" x="218.284007" y="216.991987" style="fill: #64b5f6; stroke: #ffffff; stroke-width: 0.4"/>
     <use xlink:href="#m5a067abe88" x="223.578125" y="213.288658" style="fill: #64b5f6; stroke: #ffffff; stroke-width: 0.4"/>
     <use xlink:href="#m5a067abe88" x="228.872243" y="209.58533" style="fill: #64b5f6; stroke: #ffffff; stroke-width: 0.4"/>
     <use xlink:href="#m5a067abe88" x="234.16636" y="205.882001" style="fill: #64b5f6; stroke: #ffffff; stroke-width: 0.4"/>
     <use xlink:href="#m5a067abe88" x="239.460478" y="202.178673" style="fill: #64b5f6; stroke: #ffffff; stroke-width: 0.4"/>
     <use xlink:href="#m5a067abe88" x="244.754596" y="198.475344" style="fill: #64b5f6; stroke: #ffffff; stroke-width: 0.4"/>
     <use xlink:href="#m5a067abe88" x="250.048713" y="194.772016" style="fill: #64b5f6; stroke: #ffffff; stroke-width: 0.4"/>
     <use xlink:href="#m5a067abe88" x="255.342831" y="191.068688" style="fill: #64b5f6; stroke: #ffffff; stroke-width: 0.4"/>
     <use xlink:href="#m5a067abe88" x="260.636949" y="187.365359" style="fill: #64b5f6; stroke: #ffffff; stroke-width: 0.4"/>
     <use xlink:href="#m5a067abe88" x="265.931066" y="183.662031" style="fill: #64b5f6; stroke: #ffffff; stroke-width: 0.4"/>
     <use xlink:href="#m5a067abe88" x="271.225184" y="179.958702" style="fill: #64b5f6; stroke: #ffffff; stroke-width: 0.4"/>
     <use xlink:href="#m5a067abe88" x="276.519301" y="176.255374" style="fill: #64b5f6; stroke: #ffffff; stroke-width: 0.4"/>
     <use xlink:href="#m5a067abe88" x="281.813419" y="172.552045" style="fill: #64b5f6; stroke: #ffffff; stroke-width: 0.4"/>
     <use xlink:href="#m5a067abe88" x="287.107537" y="168.848717" style="fill: #64b5f6; stroke: #ffffff; stroke-width: 0.4"/>
     <use xlink:href="#m5a067abe88" x="292.401654" y="165.145389" style="fill: #64b5f6; stroke: #ffffff; stroke-width: 0.4"/>
     <use xlink:href="#m5a067abe88" x="297.695772" y="161.44206" style="fill: #64b5f6; stroke: #ffffff; stroke-width: 0.4"/>
     <use xlink:href="#m5a067abe88" x="302.98989" y="157.738732" style="fill: #64b5f6; stroke: #ffffff; stroke-width: 0.4"/>
     <use xlink:href="#m5a067abe88" x="308.284007" y="154.035403" style="fill: #64b5f6; stroke: #ffffff; stroke-width: 0.4"/>
     <use xlink:href="#m5a067abe88" x="313.578125" y="150.332075" style="fill: #64b5f6; stroke: #ffffff; stroke-width: 0.4"/>
     <use xlink:href="#m5a067abe88" x="318.872243" y="146.628747" style="fill: #64b5f6; stroke: #ffffff; stroke-width: 0.4"/>
     <use xlink:href="#m5a067abe88" x="324.16636" y="142.925418" style="fill: #64b5f6; stroke: #ffffff; stroke-width: 0.4"/>
     <use xlink:href="#m5a067abe88" x="329.460478" y="139.22209" style="fill: #64b5f6; stroke: #ffffff; stroke-width: 0.4"/>
     <use xlink:href="#m5a067abe88" x="334.754596" y="135.518761" style="fill: #64b5f6; stroke: #ffffff; stroke-width: 0.4"/>
     <use xlink:href="#m5a067abe88" x="340.048713" y="131.815433" style="fill: #64b5f6; stroke: #ffffff; stroke-width: 0.4"/>
     <use xlink:href="#m5a067abe88" x="345.342831" y="128.112104" style="fill: #64b5f6; stroke: #ffffff; stroke-width: 0.4"/>
     <use xlink:href="#m5a067abe88" x="350.636949" y="124.408776" style="fill: #64b5f6; stroke: #ffffff; stroke-width: 0.4"/>
     <use xlink:href="#m5a067abe88" x="355.931066" y="120.705448" style="fill: #64b5f6; stroke: #ffffff; stroke-width: 0.4"/>
     <use xlink:href="#m5a067abe88" x="361.225184" y="117.002119" style="fill: #64b5f6; stroke: #ffffff; stroke-width: 0.4"/>
     <use xlink:href="#m5a067abe88" x="366.519301" y="113.298791" style="fill: #64b5f6; stroke: #ffffff; stroke-width: 0.4"/>
     <use xlink:href="#m5a067abe88" x="371.813419" y="109.595462" style="fill: #64b5f6; stroke: #ffffff; stroke-width: 0.4"/>
     <use xlink:href="#m5a067abe88" x="377.107537" y="105.892134" style="fill: #64b5f6; stroke: #ffffff; stroke-width: 0.4"/>
     <use xlink:href="#m5a067abe88" x="382.401654" y="102.188805" style="fill: #64b5f6; stroke: #ffffff; stroke-width: 0.4"/>
     <use xlink:href="#m5a067abe88" x="387.695772" y="98.485477" style="fill: #64b5f6; stroke: #ffffff; stroke-width: 0.4"/>
     <use xlink:href="#m5a067abe88" x="392.98989" y="94.782149" style="fill: #64b5f6; stroke: #ffffff; stroke-width: 0.4"/>
     <use xlink:href="#m5a067abe88" x="398.284007" y="91.07882" style="fill: #64b5f6; stroke: #ffffff; stroke-width: 0.4"/>
     <use xlink:href="#m5a067abe88" x="403.578125" y="87.375492" style="fill: #64b5f6; stroke: #ffffff; stroke-width: 0.4"/>
     <use xlink:href="#m5a067abe88" x="408.872243" y="83.672163" style="fill: #64b5f6; stroke: #ffffff; stroke-width: 0.4"/>
     <use xlink:href="#m5a067abe88" x="414.16636" y="79.968835" style="fill: #64b5f6; stroke: #ffffff; stroke-width: 0.4"/>
     <use xlink:href="#m5a067abe88" x="419.460478" y="76.265507" style="fill: #64b5f6; stroke: #ffffff; stroke-width: 0.4"/>
     <use xlink:href="#m5a067abe88" x="424.754596" y="72.562178" style="fill: #64b5f6; stroke: #ffffff; stroke-width: 0.4"/>
     <use xlink:href="#m5a067abe88" x="430.048713" y="68.85885" style="fill: #64b5f6; stroke: #ffffff; stroke-width: 0.4"/>
     <use xlink:href="#m5a067abe88" x="435.342831" y="65.155521" style="fill: #64b5f6; stroke: #ffffff; stroke-width: 0.4"/>
     <use xlink:href="#m5a067abe88" x="440.636949" y="61.452193" style="fill: #64b5f6; stroke: #ffffff; stroke-width: 0.4"/>
     <use xlink:href="#m5a067abe88" x="445.931066" y="57.748864" style="fill: #64b5f6; stroke: #ffffff; stroke-width: 0.4"/>
     <use xlink:href="#m5a067abe88" x="451.225184" y="54.045536" style="fill: #64b5f6; stroke: #ffffff; stroke-width: 0.4"/>
     <use xlink:href="#m5a067abe88" x="456.519301" y="50.342208" style="fill: #64b5f6; stroke: #ffffff; stroke-width: 0.4"/>
     <use xlink:href="#m5a067abe88" x="461.813419" y="46.638879" style="fill: #64b5f6; stroke: #ffffff; stroke-width: 0.4"/>
     <use xlink:href="#m5a067abe88" x="467.107537" y="42.935551" style="fill: #64b5f6; stroke: #ffffff; stroke-width: 0.4"/>
     <use xlink:href="#m5a067abe88" x="472.401654" y="39.232222" style="fill: #64b5f6; stroke: #ffffff; stroke-width: 0.4"/>
     <use xlink:href="#m5a067abe88" x="477.695772" y="35.528894" style="fill: #64b5f6; stroke: #ffffff; stroke-width: 0.4"/>
     <use xlink:href="#m5a067abe88" x="482.98989" y="31.825565" style="fill: #64b5f6; stroke: #ffffff; stroke-width: 0.4"/>
     <use xlink:href="#m5a067abe88" x="488.284007" y="28.122237" style="fill: #64b5f6; stroke: #ffffff; stroke-width: 0.4"/>
     <use xlink:href="#m5a067abe88" x="493.578125" y="24.418909" style="fill: #64b5f6; stroke: #ffffff; stroke-width: 0.4"/>
     <use xlink:href="#m5a067abe88" x="498.872243" y="20.71558" style="fill: #64b5f6; stroke: #ffffff; stroke-width: 0.4"/>
    </g>
   </g>
   <g id="text_16">
    <!-- A0 -->
    <g style="fill: #1a1a1a" transform="translate(60.519301 346.449656) scale(0.085 -0.085)">
     <use xlink:href="#DejaVuSans-41"/>
     <use xlink:href="#DejaVuSans-30" x="68.408203"/>
    </g>
    <!-- 27.5 Hz -->
    <g style="fill: #1a1a1a" transform="translate(60.519301 355.967797) scale(0.085 -0.085)">
     <defs>
      <path id="DejaVuSans-2e" d="M 684 794 
L 1344 794 
L 1344 0 
L 684 0 
L 684 794 
z
" transform="scale(0.015625)"/>
     </defs>
     <use xlink:href="#DejaVuSans-32"/>
     <use xlink:href="#DejaVuSans-37" x="63.623047"/>
     <use xlink:href="#DejaVuSans-2e" x="127.246094"/>
     <use xlink:href="#DejaVuSans-35" x="159.033203"/>
     <use xlink:href="#DejaVuSans-20" x="222.65625"/>
     <use xlink:href="#DejaVuSans-48" x="254.443359"/>
     <use xlink:href="#DejaVuSans-7a" x="329.638672"/>
    </g>
   </g>
   <g id="text_17">
    <!-- A1 -->
    <g style="fill: #1a1a1a" transform="translate(124.048713 302.009715) scale(0.085 -0.085)">
     <use xlink:href="#DejaVuSans-41"/>
     <use xlink:href="#DejaVuSans-31" x="68.408203"/>
    </g>
    <!-- 55 Hz -->
    <g style="fill: #1a1a1a" transform="translate(124.048713 311.527856) scale(0.085 -0.085)">
     <use xlink:href="#DejaVuSans-35"/>
     <use xlink:href="#DejaVuSans-35" x="63.623047"/>
     <use xlink:href="#DejaVuSans-20" x="127.246094"/>
     <use xlink:href="#DejaVuSans-48" x="159.033203"/>
     <use xlink:href="#DejaVuSans-7a" x="234.228516"/>
    </g>
   </g>
   <g id="text_18">
    <!-- A2 -->
    <g style="fill: #1a1a1a" transform="translate(187.578125 257.569774) scale(0.085 -0.085)">
     <use xlink:href="#DejaVuSans-41"/>
     <use xlink:href="#DejaVuSans-32" x="68.408203"/>
    </g>
    <!-- 110 Hz -->
    <g style="fill: #1a1a1a" transform="translate(187.578125 267.087915) scale(0.085 -0.085)">
     <use xlink:href="#DejaVuSans-31"/>
     <use xlink:href="#DejaVuSans-31" x="63.623047"/>
     <use xlink:href="#DejaVuSans-30" x="127.246094"/>
     <use xlink:href="#DejaVuSans-20" x="190.869141"/>
     <use xlink:href="#DejaVuSans-48" x="222.65625"/>
     <use xlink:href="#DejaVuSans-7a" x="297.851562"/>
    </g>
   </g>
   <g id="text_19">
    <!-- A3 -->
    <g style="fill: #1a1a1a" transform="translate(251.107537 213.129833) scale(0.085 -0.085)">
     <defs>
      <path id="DejaVuSans-33" d="M 2597 2516 
Q 3050 2419 3304 2112 
Q 3559 1806 3559 1356 
Q 3559 666 3084 287 
Q 2609 -91 1734 -91 
Q 1441 -91 1130 -33 
Q 819 25 488 141 
L 488 750 
Q 750 597 1062 519 
Q 1375 441 1716 441 
Q 2309 441 2620 675 
Q 2931 909 2931 1356 
Q 2931 1769 2642 2001 
Q 2353 2234 1838 2234 
L 1294 2234 
L 1294 2753 
L 1863 2753 
Q 2328 2753 2575 2939 
Q 2822 3125 2822 3475 
Q 2822 3834 2567 4026 
Q 2313 4219 1838 4219 
Q 1578 4219 1281 4162 
Q 984 4106 628 3988 
L 628 4550 
Q 988 4650 1302 4700 
Q 1616 4750 1894 4750 
Q 2613 4750 3031 4423 
Q 3450 4097 3450 3541 
Q 3450 3153 3228 2886 
Q 3006 2619 2597 2516 
z
" transform="scale(0.015625)"/>
     </defs>
     <use xlink:href="#DejaVuSans-41"/>
     <use xlink:href="#DejaVuSans-33" x="68.408203"/>
    </g>
    <!-- 220 Hz -->
    <g style="fill: #1a1a1a" transform="translate(251.107537 222.647974) scale(0.085 -0.085)">
     <use xlink:href="#DejaVuSans-32"/>
     <use xlink:href="#DejaVuSans-32" x="63.623047"/>
     <use xlink:href="#DejaVuSans-30" x="127.246094"/>
     <use xlink:href="#DejaVuSans-20" x="190.869141"/>
     <use xlink:href="#DejaVuSans-48" x="222.65625"/>
     <use xlink:href="#DejaVuSans-7a" x="297.851562"/>
    </g>
   </g>
   <g id="text_20">
    <!-- A4 -->
    <g style="fill: #1a1a1a" transform="translate(314.636949 168.689892) scale(0.085 -0.085)">
     <use xlink:href="#DejaVuSans-41"/>
     <use xlink:href="#DejaVuSans-34" x="68.408203"/>
    </g>
    <!-- 440 Hz -->
    <g style="fill: #1a1a1a" transform="translate(314.636949 178.208033) scale(0.085 -0.085)">
     <use xlink:href="#DejaVuSans-34"/>
     <use xlink:href="#DejaVuSans-34" x="63.623047"/>
     <use xlink:href="#DejaVuSans-30" x="127.246094"/>
     <use xlink:href="#DejaVuSans-20" x="190.869141"/>
     <use xlink:href="#DejaVuSans-48" x="222.65625"/>
     <use xlink:href="#DejaVuSans-7a" x="297.851562"/>
    </g>
   </g>
   <g id="text_21">
    <!-- A5 -->
    <g style="fill: #1a1a1a" transform="translate(378.16636 124.249951) scale(0.085 -0.085)">
     <use xlink:href="#DejaVuSans-41"/>
     <use xlink:href="#DejaVuSans-35" x="68.408203"/>
    </g>
    <!-- 880 Hz -->
    <g style="fill: #1a1a1a" transform="translate(378.16636 133.768092) scale(0.085 -0.085)">
     <use xlink:href="#DejaVuSans-38"/>
     <use xlink:href="#DejaVuSans-38" x="63.623047"/>
     <use xlink:href="#DejaVuSans-30" x="127.246094"/>
     <use xlink:href="#DejaVuSans-20" x="190.869141"/>
     <use xlink:href="#DejaVuSans-48" x="222.65625"/>
     <use xlink:href="#DejaVuSans-7a" x="297.851562"/>
    </g>
   </g>
   <g id="text_22">
    <!-- A6 -->
    <g style="fill: #1a1a1a" transform="translate(441.695772 79.81001) scale(0.085 -0.085)">
     <use xlink:href="#DejaVuSans-41"/>
     <use xlink:href="#DejaVuSans-36" x="68.408203"/>
    </g>
    <!-- 1760 Hz -->
    <g style="fill: #1a1a1a" transform="translate(441.695772 89.328151) scale(0.085 -0.085)">
     <use xlink:href="#DejaVuSans-31"/>
     <use xlink:href="#DejaVuSans-37" x="63.623047"/>
     <use xlink:href="#DejaVuSans-36" x="127.246094"/>
     <use xlink:href="#DejaVuSans-30" x="190.869141"/>
     <use xlink:href="#DejaVuSans-20" x="254.492188"/>
     <use xlink:href="#DejaVuSans-48" x="286.279297"/>
     <use xlink:href="#DejaVuSans-7a" x="361.474609"/>
    </g>
   </g>
   <g id="text_23">
    <!-- A7 -->
    <g style="fill: #1a1a1a" transform="translate(505.225184 35.370069) scale(0.085 -0.085)">
     <use xlink:href="#DejaVuSans-41"/>
     <use xlink:href="#DejaVuSans-37" x="68.408203"/>
    </g>
    <!-- 3520 Hz -->
    <g style="fill: #1a1a1a" transform="translate(505.225184 44.88821) scale(0.085 -0.085)">
     <use xlink:href="#DejaVuSans-33"/>
     <use xlink:href="#DejaVuSans-35" x="63.623047"/>
     <use xlink:href="#DejaVuSans-32" x="127.246094"/>
     <use xlink:href="#DejaVuSans-30" x="190.869141"/>
     <use xlink:href="#DejaVuSans-20" x="254.492188"/>
     <use xlink:href="#DejaVuSans-48" x="286.279297"/>
     <use xlink:href="#DejaVuSans-7a" x="361.474609"/>
    </g>
   </g>
   <g id="PathCollection_2">
    <defs>
     <path id="me84d54d05b" d="M 0 4 
C 1.060812 4 2.078319 3.578535 2.828427 2.828427 
C 3.578535 2.078319 4 1.060812 4 0 
C 4 -1.060812 3.578535 -2.078319 2.828427 -2.828427 
C 2.078319 -3.578535 1.060812 -4 0 -4 
C -1.060812 -4 -2.078319 -3.578535 -2.828427 -2.828427 
C -3.578535 -2.078319 -4 -1.060812 -4 0 
C -4 1.060812 -3.578535 2.078319 -2.828427 2.828427 
C -2.078319 3.578535 -1.060812 4 0 4 
z
" style="stroke: #1a1a1a; stroke-width: 0.6"/>
    </defs>
    <g clip-path="url(#pc015ffd7cd)">
     <use xlink:href="#me84d54d05b" x="54.16636" y="331.795168" style="fill: #ffb300; stroke: #1a1a1a; stroke-width: 0.6"/>
     <use xlink:href="#me84d54d05b" x="117.695772" y="287.355227" style="fill: #ffb300; stroke: #1a1a1a; stroke-width: 0.6"/>
     <use xlink:href="#me84d54d05b" x="181.225184" y="242.915285" style="fill: #ffb300; stroke: #1a1a1a; stroke-width: 0.6"/>
     <use xlink:href="#me84d54d05b" x="244.754596" y="198.475344" style="fill: #ffb300; stroke: #1a1a1a; stroke-width: 0.6"/>
     <use xlink:href="#me84d54d05b" x="308.284007" y="154.035403" style="fill: #ffb300; stroke: #1a1a1a; stroke-width: 0.6"/>
     <use xlink:href="#me84d54d05b" x="371.813419" y="109.595462" style="fill: #ffb300; stroke: #1a1a1a; stroke-width: 0.6"/>
     <use xlink:href="#me84d54d05b" x="435.342831" y="65.155521" style="fill: #ffb300; stroke: #1a1a1a; stroke-width: 0.6"/>
     <use xlink:href="#me84d54d05b" x="498.872243" y="20.71558" style="fill: #ffb300; stroke: #1a1a1a; stroke-width: 0.6"/>
    </g>
   </g>
   <g id="PathCollection_3">
    <defs>
     <path id="m07e7fc8c7c" d="M 0 5.477226 
C 1.452577 5.477226 2.845856 4.900111 3.872983 3.872983 
C 4.900111 2.845856 5.477226 1.452577 5.477226 0 
C 5.477226 -1.452577 4.900111 -2.845856 3.872983 -3.872983 
C 2.845856 -4.900111 1.452577 -5.477226 0 -5.477226 
C -1.452577 -5.477226 -2.845856 -4.900111 -3.872983 -3.872983 
C -4.900111 -2.845856 -5.477226 -1.452577 -5.477226 0 
C -5.477226 1.452577 -4.900111 2.845856 -3.872983 3.872983 
C -2.845856 4.900111 -1.452577 5.477226 0 5.477226 
z
" style="stroke: #ffffff"/>
    </defs>
    <g clip-path="url(#pc015ffd7cd)">
     <use xlink:href="#m07e7fc8c7c" x="308.284007" y="154.035403" style="fill: #d81b60; stroke: #ffffff"/>
    </g>
   </g>
   <g id="legend_1">
    <g id="patch_7">
     <path d="M 50.578125 59.917423 
L 225.34375 59.917423 
Q 227.34375 59.917423 227.34375 57.917423 
L 227.34375 14.883048 
Q 227.34375 12.883048 225.34375 12.883048 
L 50.578125 12.883048 
Q 48.578125 12.883048 48.578125 14.883048 
L 48.578125 57.917423 
Q 48.578125 59.917423 50.578125 59.917423 
z
" style="fill: #ffffff; opacity: 0.8; stroke: #cccccc; stroke-linejoin: miter"/>
    </g>
    <g id="line2d_28">
     <path d="M 52.578125 20.981486 
L 62.578125 20.981486 
L 72.578125 20.981486 
" style="fill: none; stroke: #1565c0; stroke-width: 1.4; stroke-linecap: square"/>
    </g>
    <g id="text_24">
     <!-- chromatic scale (12-TET) -->
     <g transform="translate(80.578125 24.481486) scale(0.1 -0.1)">
      <defs>
       <path id="DejaVuSans-68" d="M 3513 2113 
L 3513 0 
L 2938 0 
L 2938 2094 
Q 2938 2591 2744 2837 
Q 2550 3084 2163 3084 
Q 1697 3084 1428 2787 
Q 1159 2491 1159 1978 
L 1159 0 
L 581 0 
L 581 4863 
L 1159 4863 
L 1159 2956 
Q 1366 3272 1645 3428 
Q 1925 3584 2291 3584 
Q 2894 3584 3203 3211 
Q 3513 2838 3513 2113 
z
" transform="scale(0.015625)"/>
       <path id="DejaVuSans-61" d="M 2194 1759 
Q 1497 1759 1228 1600 
Q 959 1441 959 1056 
Q 959 750 1161 570 
Q 1363 391 1709 391 
Q 2188 391 2477 730 
Q 2766 1069 2766 1631 
L 2766 1759 
L 2194 1759 
z
M 3341 1997 
L 3341 0 
L 2766 0 
L 2766 531 
Q 2569 213 2275 61 
Q 1981 -91 1556 -91 
Q 1019 -91 701 211 
Q 384 513 384 1019 
Q 384 1609 779 1909 
Q 1175 2209 1959 2209 
L 2766 2209 
L 2766 2266 
Q 2766 2663 2505 2880 
Q 2244 3097 1772 3097 
Q 1472 3097 1187 3025 
Q 903 2953 641 2809 
L 641 3341 
Q 956 3463 1253 3523 
Q 1550 3584 1831 3584 
Q 2591 3584 2966 3190 
Q 3341 2797 3341 1997 
z
" transform="scale(0.015625)"/>
       <path id="DejaVuSans-2d" d="M 313 2009 
L 1997 2009 
L 1997 1497 
L 313 1497 
L 313 2009 
z
" transform="scale(0.015625)"/>
       <path id="DejaVuSans-54" d="M -19 4666 
L 3928 4666 
L 3928 4134 
L 2272 4134 
L 2272 0 
L 1638 0 
L 1638 4134 
L -19 4134 
L -19 4666 
z
" transform="scale(0.015625)"/>
       <path id="DejaVuSans-45" d="M 628 4666 
L 3578 4666 
L 3578 4134 
L 1259 4134 
L 1259 2753 
L 3481 2753 
L 3481 2222 
L 1259 2222 
L 1259 531 
L 3634 531 
L 3634 0 
L 628 0 
L 628 4666 
z
" transform="scale(0.015625)"/>
      </defs>
      <use xlink:href="#DejaVuSans-63"/>
      <use xlink:href="#DejaVuSans-68" x="54.980469"/>
      <use xlink:href="#DejaVuSans-72" x="118.359375"/>
      <use xlink:href="#DejaVuSans-6f" x="157.222656"/>
      <use xlink:href="#DejaVuSans-6d" x="218.404297"/>
      <use xlink:href="#DejaVuSans-61" x="315.816406"/>
      <use xlink:href="#DejaVuSans-74" x="377.095703"/>
      <use xlink:href="#DejaVuSans-69" x="416.304688"/>
      <use xlink:href="#DejaVuSans-63" x="444.087891"/>
      <use xlink:href="#DejaVuSans-20" x="499.068359"/>
      <use xlink:href="#DejaVuSans-73" x="530.855469"/>
      <use xlink:href="#DejaVuSans-63" x="582.955078"/>
      <use xlink:href="#DejaVuSans-61" x="637.935547"/>
      <use xlink:href="#DejaVuSans-6c" x="699.214844"/>
      <use xlink:href="#DejaVuSans-65" x="726.998047"/>
      <use xlink:href="#DejaVuSans-20" x="788.521484"/>
      <use xlink:href="#DejaVuSans-28" x="820.308594"/>
      <use xlink:href="#DejaVuSans-31" x="859.322266"/>
      <use xlink:href="#DejaVuSans-32" x="922.945312"/>
      <use xlink:href="#DejaVuSans-2d" x="986.568359"/>
      <use xlink:href="#DejaVuSans-54" x="1013.527344"/>
      <use xlink:href="#DejaVuSans-45" x="1074.611328"/>
      <use xlink:href="#DejaVuSans-54" x="1137.794922"/>
      <use xlink:href="#DejaVuSans-29" x="1198.878906"/>
     </g>
    </g>
    <g id="PathCollection_4">
     <g>
      <use xlink:href="#me84d54d05b" x="62.578125" y="36.534611" style="fill: #ffb300; stroke: #1a1a1a; stroke-width: 0.6"/>
     </g>
    </g>
    <g id="text_25">
     <!-- A pitches (octave doublings) -->
     <g transform="translate(80.578125 39.159611) scale(0.1 -0.1)">
      <defs>
       <path id="DejaVuSans-70" d="M 1159 525 
L 1159 -1331 
L 581 -1331 
L 581 3500 
L 1159 3500 
L 1159 2969 
Q 1341 3281 1617 3432 
Q 1894 3584 2278 3584 
Q 2916 3584 3314 3078 
Q 3713 2572 3713 1747 
Q 3713 922 3314 415 
Q 2916 -91 2278 -91 
Q 1894 -91 1617 61 
Q 1341 213 1159 525 
z
M 3116 1747 
Q 3116 2381 2855 2742 
Q 2594 3103 2138 3103 
Q 1681 3103 1420 2742 
Q 1159 2381 1159 1747 
Q 1159 1113 1420 752 
Q 1681 391 2138 391 
Q 2594 391 2855 752 
Q 3116 1113 3116 1747 
z
" transform="scale(0.015625)"/>
       <path id="DejaVuSans-76" d="M 191 3500 
L 800 3500 
L 1894 563 
L 2988 3500 
L 3597 3500 
L 2284 0 
L 1503 0 
L 191 3500 
z
" transform="scale(0.015625)"/>
      </defs>
      <use xlink:href="#DejaVuSans-41"/>
      <use xlink:href="#DejaVuSans-20" x="68.408203"/>
      <use xlink:href="#DejaVuSans-70" x="100.195312"/>
      <use xlink:href="#DejaVuSans-69" x="163.671875"/>
      <use xlink:href="#DejaVuSans-74" x="191.455078"/>
      <use xlink:href="#DejaVuSans-63" x="230.664062"/>
      <use xlink:href="#DejaVuSans-68" x="285.644531"/>
      <use xlink:href="#DejaVuSans-65" x="349.023438"/>
      <use xlink:href="#DejaVuSans-73" x="410.546875"/>
      <use xlink:href="#DejaVuSans-20" x="462.646484"/>
      <use xlink:href="#DejaVuSans-28" x="494.433594"/>
      <use xlink:href="#DejaVuSans-6f" x="533.447266"/>
      <use xlink:href="#DejaVuSans-63" x="594.628906"/>
      <use xlink:href="#DejaVuSans-74" x="649.609375"/>
      <use xlink:href="#DejaVuSans-61" x="688.818359"/>
      <use xlink:href="#DejaVuSans-76" x="750.097656"/>
      <use xlink:href="#DejaVuSans-65" x="809.277344"/>
      <use xlink:href="#DejaVuSans-20" x="870.800781"/>
      <use xlink:href="#DejaVuSans-64" x="902.587891"/>
      <use xlink:href="#DejaVuSans-6f" x="966.064453"/>
      <use xlink:href="#DejaVuSans-75" x="1027.246094"/>
      <use xlink:href="#DejaVuSans-62" x="1090.625"/>
      <use xlink:href="#DejaVuSans-6c" x="1154.101562"/>
      <use xlink:href="#DejaVuSans-69" x="1181.884766"/>
      <use xlink:href="#DejaVuSans-6e" x="1209.667969"/>
      <use xlink:href="#DejaVuSans-67" x="1273.046875"/>
      <use xlink:href="#DejaVuSans-73" x="1336.523438"/>
      <use xlink:href="#DejaVuSans-29" x="1388.623047"/>
     </g>
    </g>
    <g id="PathCollection_5">
     <g>
      <use xlink:href="#m07e7fc8c7c" x="62.578125" y="51.212736" style="fill: #d81b60; stroke: #ffffff"/>
     </g>
    </g>
    <g id="text_26">
     <!-- A4 = 440 Hz -->
     <g transform="translate(80.578125 53.837736) scale(0.1 -0.1)">
      <use xlink:href="#DejaVuSans-41"/>
      <use xlink:href="#DejaVuSans-34" x="68.408203"/>
      <use xlink:href="#DejaVuSans-20" x="132.03125"/>
      <use xlink:href="#DejaVuSans-3d" x="163.818359"/>
      <use xlink:href="#DejaVuSans-20" x="247.607422"/>
      <use xlink:href="#DejaVuSans-34" x="279.394531"/>
      <use xlink:href="#DejaVuSans-34" x="343.017578"/>
      <use xlink:href="#DejaVuSans-30" x="406.640625"/>
      <use xlink:href="#DejaVuSans-20" x="470.263672"/>
      <use xlink:href="#DejaVuSans-48" x="502.050781"/>
      <use xlink:href="#DejaVuSans-7a" x="577.246094"/>
     </g>
    </g>
   </g>
  </g>
  <g id="axes_2">
   <g id="patch_8">
    <path d="M 546.872243 340.523048 
L 601.578125 340.523048 
L 601.578125 7.883048 
L 546.872243 7.883048 
z
" style="fill: #ffffff"/>
   </g>
   <g id="patch_9">
    <path d="M 546.872243 333.646832 
L 601.578125 333.646832 
L 601.578125 329.943503 
L 546.872243 329.943503 
z
" clip-path="url(#pdac7251663)" style="fill: #ffb300; stroke: #b8b8b8; stroke-width: 0.5; stroke-linejoin: miter"/>
   </g>
   <g id="patch_10">
    <path d="M 546.872243 329.943503 
L 601.578125 329.943503 
L 601.578125 326.240175 
L 546.872243 326.240175 
z
" clip-path="url(#pdac7251663)" style="fill: #ffffff; stroke: #b8b8b8; stroke-width: 0.5; stroke-linejoin: miter"/>
   </g>
   <g id="patch_11">
    <path d="M 546.872243 326.240175 
L 601.578125 326.240175 
L 601.578125 322.536846 
L 546.872243 322.536846 
z
" clip-path="url(#pdac7251663)" style="fill: #ffffff; stroke: #b8b8b8; stroke-width: 0.5; stroke-linejoin: miter"/>
   </g>
   <g id="patch_12">
    <path d="M 546.872243 322.536846 
L 601.578125 322.536846 
L 601.578125 318.833518 
L 546.872243 318.833518 
z
" clip-path="url(#pdac7251663)" style="fill: #ffffff; stroke: #b8b8b8; stroke-width: 0.5; stroke-linejoin: miter"/>
   </g>
   <g id="patch_13">
    <path d="M 546.872243 318.833518 
L 601.578125 318.833518 
L 601.578125 315.13019 
L 546.872243 315.13019 
z
" clip-path="url(#pdac7251663)" style="fill: #ffffff; stroke: #b8b8b8; stroke-width: 0.5; stroke-linejoin: miter"/>
   </g>
   <g id="patch_14">
    <path d="M 546.872243 315.13019 
L 601.578125 315.13019 
L 601.578125 311.426861 
L 546.872243 311.426861 
z
" clip-path="url(#pdac7251663)" style="fill: #ffffff; stroke: #b8b8b8; stroke-width: 0.5; stroke-linejoin: miter"/>
   </g>
   <g id="patch_15">
    <path d="M 546.872243 311.426861 
L 601.578125 311.426861 
L 601.578125 307.723533 
L 546.872243 307.723533 
z
" clip-path="url(#pdac7251663)" style="fill: #ffffff; stroke: #b8b8b8; stroke-width: 0.5; stroke-linejoin: miter"/>
   </g>
   <g id="patch_16">
    <path d="M 546.872243 307.723533 
L 601.578125 307.723533 
L 601.578125 304.020204 
L 546.872243 304.020204 
z
" clip-path="url(#pdac7251663)" style="fill: #ffffff; stroke: #b8b8b8; stroke-width: 0.5; stroke-linejoin: miter"/>
   </g>
   <g id="patch_17">
    <path d="M 546.872243 304.020204 
L 601.578125 304.020204 
L 601.578125 300.316876 
L 546.872243 300.316876 
z
" clip-path="url(#pdac7251663)" style="fill: #ffffff; stroke: #b8b8b8; stroke-width: 0.5; stroke-linejoin: miter"/>
   </g>
   <g id="patch_18">
    <path d="M 546.872243 300.316876 
L 601.578125 300.316876 
L 601.578125 296.613548 
L 546.872243 296.613548 
z
" clip-path="url(#pdac7251663)" style="fill: #ffffff; stroke: #b8b8b8; stroke-width: 0.5; stroke-linejoin: miter"/>
   </g>
   <g id="patch_19">
    <path d="M 546.872243 296.613548 
L 601.578125 296.613548 
L 601.578125 292.910219 
L 546.872243 292.910219 
z
" clip-path="url(#pdac7251663)" style="fill: #ffffff; stroke: #b8b8b8; stroke-width: 0.5; stroke-linejoin: miter"/>
   </g>
   <g id="patch_20">
    <path d="M 546.872243 292.910219 
L 601.578125 292.910219 
L 601.578125 289.206891 
L 546.872243 289.206891 
z
" clip-path="url(#pdac7251663)" style="fill: #ffffff; stroke: #b8b8b8; stroke-width: 0.5; stroke-linejoin: miter"/>
   </g>
   <g id="patch_21">
    <path d="M 546.872243 289.206891 
L 601.578125 289.206891 
L 601.578125 285.503562 
L 546.872243 285.503562 
z
" clip-path="url(#pdac7251663)" style="fill: #ffb300; stroke: #b8b8b8; stroke-width: 0.5; stroke-linejoin: miter"/>
   </g>
   <g id="patch_22">
    <path d="M 546.872243 285.503562 
L 601.578125 285.503562 
L 601.578125 281.800234 
L 546.872243 281.800234 
z
" clip-path="url(#pdac7251663)" style="fill: #ffffff; stroke: #b8b8b8; stroke-width: 0.5; stroke-linejoin: miter"/>
   </g>
   <g id="patch_23">
    <path d="M 546.872243 281.800234 
L 601.578125 281.800234 
L 601.578125 278.096905 
L 546.872243 278.096905 
z
" clip-path="url(#pdac7251663)" style="fill: #ffffff; stroke: #b8b8b8; stroke-width: 0.5; stroke-linejoin: miter"/>
   </g>
   <g id="patch_24">
    <path d="M 546.872243 278.096905 
L 601.578125 278.096905 
L 601.578125 274.393577 
L 546.872243 274.393577 
z
" clip-path="url(#pdac7251663)" style="fill: #ffffff; stroke: #b8b8b8; stroke-width: 0.5; stroke-linejoin: miter"/>
   </g>
   <g id="patch_25">
    <path d="M 546.872243 274.393577 
L 601.578125 274.393577 
L 601.578125 270.690249 
L 546.872243 270.690249 
z
" clip-path="url(#pdac7251663)" style="fill: #ffffff; stroke: #b8b8b8; stroke-width: 0.5; stroke-linejoin: miter"/>
   </g>
   <g id="patch_26">
    <path d="M 546.872243 270.690249 
L 601.578125 270.690249 
L 601.578125 266.98692 
L 546.872243 266.98692 
z
" clip-path="url(#pdac7251663)" style="fill: #ffffff; stroke: #b8b8b8; stroke-width: 0.5; stroke-linejoin: miter"/>
   </g>
   <g id="patch_27">
    <path d="M 546.872243 266.98692 
L 601.578125 266.98692 
L 601.578125 263.283592 
L 546.872243 263.283592 
z
" clip-path="url(#pdac7251663)" style="fill: #ffffff; stroke: #b8b8b8; stroke-width: 0.5; stroke-linejoin: miter"/>
   </g>
   <g id="patch_28">
    <path d="M 546.872243 263.283592 
L 601.578125 263.283592 
L 601.578125 259.580263 
L 546.872243 259.580263 
z
" clip-path="url(#pdac7251663)" style="fill: #ffffff; stroke: #b8b8b8; stroke-width: 0.5; stroke-linejoin: miter"/>
   </g>
   <g id="patch_29">
    <path d="M 546.872243 259.580263 
L 601.578125 259.580263 
L 601.578125 255.876935 
L 546.872243 255.876935 
z
" clip-path="url(#pdac7251663)" style="fill: #ffffff; stroke: #b8b8b8; stroke-width: 0.5; stroke-linejoin: miter"/>
   </g>
   <g id="patch_30">
    <path d="M 546.872243 255.876935 
L 601.578125 255.876935 
L 601.578125 252.173607 
L 546.872243 252.173607 
z
" clip-path="url(#pdac7251663)" style="fill: #ffffff; stroke: #b8b8b8; stroke-width: 0.5; stroke-linejoin: miter"/>
   </g>
   <g id="patch_31">
    <path d="M 546.872243 252.173607 
L 601.578125 252.173607 
L 601.578125 248.470278 
L 546.872243 248.470278 
z
" clip-path="url(#pdac7251663)" style="fill: #ffffff; stroke: #b8b8b8; stroke-width: 0.5; stroke-linejoin: miter"/>
   </g>
   <g id="patch_32">
    <path d="M 546.872243 248.470278 
L 601.578125 248.470278 
L 601.578125 244.76695 
L 546.872243 244.76695 
z
" clip-path="url(#pdac7251663)" style="fill: #ffffff; stroke: #b8b8b8; stroke-width: 0.5; stroke-linejoin: miter"/>
   </g>
   <g id="patch_33">
    <path d="M 546.872243 244.76695 
L 601.578125 244.76695 
L 601.578125 241.063621 
L 546.872243 241.063621 
z
" clip-path="url(#pdac7251663)" style="fill: #ffb300; stroke: #b8b8b8; stroke-width: 0.5; stroke-linejoin: miter"/>
   </g>
   <g id="patch_34">
    <path d="M 546.872243 241.063621 
L 601.578125 241.063621 
L 601.578125 237.360293 
L 546.872243 237.360293 
z
" clip-path="url(#pdac7251663)" style="fill: #ffffff; stroke: #b8b8b8; stroke-width: 0.5; stroke-linejoin: miter"/>
   </g>
   <g id="patch_35">
    <path d="M 546.872243 237.360293 
L 601.578125 237.360293 
L 601.578125 233.656964 
L 546.872243 233.656964 
z
" clip-path="url(#pdac7251663)" style="fill: #ffffff; stroke: #b8b8b8; stroke-width: 0.5; stroke-linejoin: miter"/>
   </g>
   <g id="patch_36">
    <path d="M 546.872243 233.656964 
L 601.578125 233.656964 
L 601.578125 229.953636 
L 546.872243 229.953636 
z
" clip-path="url(#pdac7251663)" style="fill: #ffffff; stroke: #b8b8b8; stroke-width: 0.5; stroke-linejoin: miter"/>
   </g>
   <g id="patch_37">
    <path d="M 546.872243 229.953636 
L 601.578125 229.953636 
L 601.578125 226.250308 
L 546.872243 226.250308 
z
" clip-path="url(#pdac7251663)" style="fill: #ffffff; stroke: #b8b8b8; stroke-width: 0.5; stroke-linejoin: miter"/>
   </g>
   <g id="patch_38">
    <path d="M 546.872243 226.250308 
L 601.578125 226.250308 
L 601.578125 222.546979 
L 546.872243 222.546979 
z
" clip-path="url(#pdac7251663)" style="fill: #ffffff; stroke: #b8b8b8; stroke-width: 0.5; stroke-linejoin: miter"/>
   </g>
   <g id="patch_39">
    <path d="M 546.872243 222.546979 
L 601.578125 222.546979 
L 601.578125 218.843651 
L 546.872243 218.843651 
z
" clip-path="url(#pdac7251663)" style="fill: #ffffff; stroke: #b8b8b8; stroke-width: 0.5; stroke-linejoin: miter"/>
   </g>
   <g id="patch_40">
    <path d="M 546.872243 218.843651 
L 601.578125 218.843651 
L 601.578125 215.140322 
L 546.872243 215.140322 
z
" clip-path="url(#pdac7251663)" style="fill: #ffffff; stroke: #b8b8b8; stroke-width: 0.5; stroke-linejoin: miter"/>
   </g>
   <g id="patch_41">
    <path d="M 546.872243 215.140322 
L 601.578125 215.140322 
L 601.578125 211.436994 
L 546.872243 211.436994 
z
" clip-path="url(#pdac7251663)" style="fill: #ffffff; stroke: #b8b8b8; stroke-width: 0.5; stroke-linejoin: miter"/>
   </g>
   <g id="patch_42">
    <path d="M 546.872243 211.436994 
L 601.578125 211.436994 
L 601.578125 207.733665 
L 546.872243 207.733665 
z
" clip-path="url(#pdac7251663)" style="fill: #ffffff; stroke: #b8b8b8; stroke-width: 0.5; stroke-linejoin: miter"/>
   </g>
   <g id="patch_43">
    <path d="M 546.872243 207.733665 
L 601.578125 207.733665 
L 601.578125 204.030337 
L 546.872243 204.030337 
z
" clip-path="url(#pdac7251663)" style="fill: #ffffff; stroke: #b8b8b8; stroke-width: 0.5; stroke-linejoin: miter"/>
   </g>
   <g id="patch_44">
    <path d="M 546.872243 204.030337 
L 601.578125 204.030337 
L 601.578125 200.327009 
L 546.872243 200.327009 
z
" clip-path="url(#pdac7251663)" style="fill: #ffffff; stroke: #b8b8b8; stroke-width: 0.5; stroke-linejoin: miter"/>
   </g>
   <g id="patch_45">
    <path d="M 546.872243 200.327009 
L 601.578125 200.327009 
L 601.578125 196.62368 
L 546.872243 196.62368 
z
" clip-path="url(#pdac7251663)" style="fill: #ffb300; stroke: #b8b8b8; stroke-width: 0.5; stroke-linejoin: miter"/>
   </g>
   <g id="patch_46">
    <path d="M 546.872243 196.62368 
L 601.578125 196.62368 
L 601.578125 192.920352 
L 546.872243 192.920352 
z
" clip-path="url(#pdac7251663)" style="fill: #ffffff; stroke: #b8b8b8; stroke-width: 0.5; stroke-linejoin: miter"/>
   </g>
   <g id="patch_47">
    <path d="M 546.872243 192.920352 
L 601.578125 192.920352 
L 601.578125 189.217023 
L 546.872243 189.217023 
z
" clip-path="url(#pdac7251663)" style="fill: #ffffff; stroke: #b8b8b8; stroke-width: 0.5; stroke-linejoin: miter"/>
   </g>
   <g id="patch_48">
    <path d="M 546.872243 189.217023 
L 601.578125 189.217023 
L 601.578125 185.513695 
L 546.872243 185.513695 
z
" clip-path="url(#pdac7251663)" style="fill: #ffffff; stroke: #b8b8b8; stroke-width: 0.5; stroke-linejoin: miter"/>
   </g>
   <g id="patch_49">
    <path d="M 546.872243 185.513695 
L 601.578125 185.513695 
L 601.578125 181.810367 
L 546.872243 181.810367 
z
" clip-path="url(#pdac7251663)" style="fill: #ffffff; stroke: #b8b8b8; stroke-width: 0.5; stroke-linejoin: miter"/>
   </g>
   <g id="patch_50">
    <path d="M 546.872243 181.810367 
L 601.578125 181.810367 
L 601.578125 178.107038 
L 546.872243 178.107038 
z
" clip-path="url(#pdac7251663)" style="fill: #ffffff; stroke: #b8b8b8; stroke-width: 0.5; stroke-linejoin: miter"/>
   </g>
   <g id="patch_51">
    <path d="M 546.872243 178.107038 
L 601.578125 178.107038 
L 601.578125 174.40371 
L 546.872243 174.40371 
z
" clip-path="url(#pdac7251663)" style="fill: #ffffff; stroke: #b8b8b8; stroke-width: 0.5; stroke-linejoin: miter"/>
   </g>
   <g id="patch_52">
    <path d="M 546.872243 174.40371 
L 601.578125 174.40371 
L 601.578125 170.700381 
L 546.872243 170.700381 
z
" clip-path="url(#pdac7251663)" style="fill: #ffffff; stroke: #b8b8b8; stroke-width: 0.5; stroke-linejoin: miter"/>
   </g>
   <g id="patch_53">
    <path d="M 546.872243 170.700381 
L 601.578125 170.700381 
L 601.578125 166.997053 
L 546.872243 166.997053 
z
" clip-path="url(#pdac7251663)" style="fill: #ffffff; stroke: #b8b8b8; stroke-width: 0.5; stroke-linejoin: miter"/>
   </g>
   <g id="patch_54">
    <path d="M 546.872243 166.997053 
L 601.578125 166.997053 
L 601.578125 163.293724 
L 546.872243 163.293724 
z
" clip-path="url(#pdac7251663)" style="fill: #ffffff; stroke: #b8b8b8; stroke-width: 0.5; stroke-linejoin: miter"/>
   </g>
   <g id="patch_55">
    <path d="M 546.872243 163.293724 
L 601.578125 163.293724 
L 601.578125 159.590396 
L 546.872243 159.590396 
z
" clip-path="url(#pdac7251663)" style="fill: #ffffff; stroke: #b8b8b8; stroke-width: 0.5; stroke-linejoin: miter"/>
   </g>
   <g id="patch_56">
    <path d="M 546.872243 159.590396 
L 601.578125 159.590396 
L 601.578125 155.887068 
L 546.872243 155.887068 
z
" clip-path="url(#pdac7251663)" style="fill: #ffffff; stroke: #b8b8b8; stroke-width: 0.5; stroke-linejoin: miter"/>
   </g>
   <g id="patch_57">
    <path d="M 546.872243 155.887068 
L 601.578125 155.887068 
L 601.578125 152.183739 
L 546.872243 152.183739 
z
" clip-path="url(#pdac7251663)" style="fill: #d81b60; stroke: #b8b8b8; stroke-width: 0.5; stroke-linejoin: miter"/>
   </g>
   <g id="patch_58">
    <path d="M 546.872243 152.183739 
L 601.578125 152.183739 
L 601.578125 148.480411 
L 546.872243 148.480411 
z
" clip-path="url(#pdac7251663)" style="fill: #ffffff; stroke: #b8b8b8; stroke-width: 0.5; stroke-linejoin: miter"/>
   </g>
   <g id="patch_59">
    <path d="M 546.872243 148.480411 
L 601.578125 148.480411 
L 601.578125 144.777082 
L 546.872243 144.777082 
z
" clip-path="url(#pdac7251663)" style="fill: #ffffff; stroke: #b8b8b8; stroke-width: 0.5; stroke-linejoin: miter"/>
   </g>
   <g id="patch_60">
    <path d="M 546.872243 144.777082 
L 601.578125 144.777082 
L 601.578125 141.073754 
L 546.872243 141.073754 
z
" clip-path="url(#pdac7251663)" style="fill: #ffffff; stroke: #b8b8b8; stroke-width: 0.5; stroke-linejoin: miter"/>
   </g>
   <g id="patch_61">
    <path d="M 546.872243 141.073754 
L 601.578125 141.073754 
L 601.578125 137.370425 
L 546.872243 137.370425 
z
" clip-path="url(#pdac7251663)" style="fill: #ffffff; stroke: #b8b8b8; stroke-width: 0.5; stroke-linejoin: miter"/>
   </g>
   <g id="patch_62">
    <path d="M 546.872243 137.370425 
L 601.578125 137.370425 
L 601.578125 133.667097 
L 546.872243 133.667097 
z
" clip-path="url(#pdac7251663)" style="fill: #ffffff; stroke: #b8b8b8; stroke-width: 0.5; stroke-linejoin: miter"/>
   </g>
   <g id="patch_63">
    <path d="M 546.872243 133.667097 
L 601.578125 133.667097 
L 601.578125 129.963769 
L 546.872243 129.963769 
z
" clip-path="url(#pdac7251663)" style="fill: #ffffff; stroke: #b8b8b8; stroke-width: 0.5; stroke-linejoin: miter"/>
   </g>
   <g id="patch_64">
    <path d="M 546.872243 129.963769 
L 601.578125 129.963769 
L 601.578125 126.26044 
L 546.872243 126.26044 
z
" clip-path="url(#pdac7251663)" style="fill: #ffffff; stroke: #b8b8b8; stroke-width: 0.5; stroke-linejoin: miter"/>
   </g>
   <g id="patch_65">
    <path d="M 546.872243 126.26044 
L 601.578125 126.26044 
L 601.578125 122.557112 
L 546.872243 122.557112 
z
" clip-path="url(#pdac7251663)" style="fill: #ffffff; stroke: #b8b8b8; stroke-width: 0.5; stroke-linejoin: miter"/>
   </g>
   <g id="patch_66">
    <path d="M 546.872243 122.557112 
L 601.578125 122.557112 
L 601.578125 118.853783 
L 546.872243 118.853783 
z
" clip-path="url(#pdac7251663)" style="fill: #ffffff; stroke: #b8b8b8; stroke-width: 0.5; stroke-linejoin: miter"/>
   </g>
   <g id="patch_67">
    <path d="M 546.872243 118.853783 
L 601.578125 118.853783 
L 601.578125 115.150455 
L 546.872243 115.150455 
z
" clip-path="url(#pdac7251663)" style="fill: #ffffff; stroke: #b8b8b8; stroke-width: 0.5; stroke-linejoin: miter"/>
   </g>
   <g id="patch_68">
    <path d="M 546.872243 115.150455 
L 601.578125 115.150455 
L 601.578125 111.447127 
L 546.872243 111.447127 
z
" clip-path="url(#pdac7251663)" style="fill: #ffffff; stroke: #b8b8b8; stroke-width: 0.5; stroke-linejoin: miter"/>
   </g>
   <g id="patch_69">
    <path d="M 546.872243 111.447127 
L 601.578125 111.447127 
L 601.578125 107.743798 
L 546.872243 107.743798 
z
" clip-path="url(#pdac7251663)" style="fill: #ffb300; stroke: #b8b8b8; stroke-width: 0.5; stroke-linejoin: miter"/>
   </g>
   <g id="patch_70">
    <path d="M 546.872243 107.743798 
L 601.578125 107.743798 
L 601.578125 104.04047 
L 546.872243 104.04047 
z
" clip-path="url(#pdac7251663)" style="fill: #ffffff; stroke: #b8b8b8; stroke-width: 0.5; stroke-linejoin: miter"/>
   </g>
   <g id="patch_71">
    <path d="M 546.872243 104.04047 
L 601.578125 104.04047 
L 601.578125 100.337141 
L 546.872243 100.337141 
z
" clip-path="url(#pdac7251663)" style="fill: #ffffff; stroke: #b8b8b8; stroke-width: 0.5; stroke-linejoin: miter"/>
   </g>
   <g id="patch_72">
    <path d="M 546.872243 100.337141 
L 601.578125 100.337141 
L 601.578125 96.633813 
L 546.872243 96.633813 
z
" clip-path="url(#pdac7251663)" style="fill: #ffffff; stroke: #b8b8b8; stroke-width: 0.5; stroke-linejoin: miter"/>
   </g>
   <g id="patch_73">
    <path d="M 546.872243 96.633813 
L 601.578125 96.633813 
L 601.578125 92.930484 
L 546.872243 92.930484 
z
" clip-path="url(#pdac7251663)" style="fill: #ffffff; stroke: #b8b8b8; stroke-width: 0.5; stroke-linejoin: miter"/>
   </g>
   <g id="patch_74">
    <path d="M 546.872243 92.930484 
L 601.578125 92.930484 
L 601.578125 89.227156 
L 546.872243 89.227156 
z
" clip-path="url(#pdac7251663)" style="fill: #ffffff; stroke: #b8b8b8; stroke-width: 0.5; stroke-linejoin: miter"/>
   </g>
   <g id="patch_75">
    <path d="M 546.872243 89.227156 
L 601.578125 89.227156 
L 601.578125 85.523828 
L 546.872243 85.523828 
z
" clip-path="url(#pdac7251663)" style="fill: #ffffff; stroke: #b8b8b8; stroke-width: 0.5; stroke-linejoin: miter"/>
   </g>
   <g id="patch_76">
    <path d="M 546.872243 85.523828 
L 601.578125 85.523828 
L 601.578125 81.820499 
L 546.872243 81.820499 
z
" clip-path="url(#pdac7251663)" style="fill: #ffffff; stroke: #b8b8b8; stroke-width: 0.5; stroke-linejoin: miter"/>
   </g>
   <g id="patch_77">
    <path d="M 546.872243 81.820499 
L 601.578125 81.820499 
L 601.578125 78.117171 
L 546.872243 78.117171 
z
" clip-path="url(#pdac7251663)" style="fill: #ffffff; stroke: #b8b8b8; stroke-width: 0.5; stroke-linejoin: miter"/>
   </g>
   <g id="patch_78">
    <path d="M 546.872243 78.117171 
L 601.578125 78.117171 
L 601.578125 74.413842 
L 546.872243 74.413842 
z
" clip-path="url(#pdac7251663)" style="fill: #ffffff; stroke: #b8b8b8; stroke-width: 0.5; stroke-linejoin: miter"/>
   </g>
   <g id="patch_79">
    <path d="M 546.872243 74.413842 
L 601.578125 74.413842 
L 601.578125 70.710514 
L 546.872243 70.710514 
z
" clip-path="url(#pdac7251663)" style="fill: #ffffff; stroke: #b8b8b8; stroke-width: 0.5; stroke-linejoin: miter"/>
   </g>
   <g id="patch_80">
    <path d="M 546.872243 70.710514 
L 601.578125 70.710514 
L 601.578125 67.007185 
L 546.872243 67.007185 
z
" clip-path="url(#pdac7251663)" style="fill: #ffffff; stroke: #b8b8b8; stroke-width: 0.5; stroke-linejoin: miter"/>
   </g>
   <g id="patch_81">
    <path d="M 546.872243 67.007185 
L 601.578125 67.007185 
L 601.578125 63.303857 
L 546.872243 63.303857 
z
" clip-path="url(#pdac7251663)" style="fill: #ffb300; stroke: #b8b8b8; stroke-width: 0.5; stroke-linejoin: miter"/>
   </g>
   <g id="patch_82">
    <path d="M 546.872243 63.303857 
L 601.578125 63.303857 
L 601.578125 59.600529 
L 546.872243 59.600529 
z
" clip-path="url(#pdac7251663)" style="fill: #ffffff; stroke: #b8b8b8; stroke-width: 0.5; stroke-linejoin: miter"/>
   </g>
   <g id="patch_83">
    <path d="M 546.872243 59.600529 
L 601.578125 59.600529 
L 601.578125 55.8972 
L 546.872243 55.8972 
z
" clip-path="url(#pdac7251663)" style="fill: #ffffff; stroke: #b8b8b8; stroke-width: 0.5; stroke-linejoin: miter"/>
   </g>
   <g id="patch_84">
    <path d="M 546.872243 55.8972 
L 601.578125 55.8972 
L 601.578125 52.193872 
L 546.872243 52.193872 
z
" clip-path="url(#pdac7251663)" style="fill: #ffffff; stroke: #b8b8b8; stroke-width: 0.5; stroke-linejoin: miter"/>
   </g>
   <g id="patch_85">
    <path d="M 546.872243 52.193872 
L 601.578125 52.193872 
L 601.578125 48.490543 
L 546.872243 48.490543 
z
" clip-path="url(#pdac7251663)" style="fill: #ffffff; stroke: #b8b8b8; stroke-width: 0.5; stroke-linejoin: miter"/>
   </g>
   <g id="patch_86">
    <path d="M 546.872243 48.490543 
L 601.578125 48.490543 
L 601.578125 44.787215 
L 546.872243 44.787215 
z
" clip-path="url(#pdac7251663)" style="fill: #ffffff; stroke: #b8b8b8; stroke-width: 0.5; stroke-linejoin: miter"/>
   </g>
   <g id="patch_87">
    <path d="M 546.872243 44.787215 
L 601.578125 44.787215 
L 601.578125 41.083887 
L 546.872243 41.083887 
z
" clip-path="url(#pdac7251663)" style="fill: #ffffff; stroke: #b8b8b8; stroke-width: 0.5; stroke-linejoin: miter"/>
   </g>
   <g id="patch_88">
    <path d="M 546.872243 41.083887 
L 601.578125 41.083887 
L 601.578125 37.380558 
L 546.872243 37.380558 
z
" clip-path="url(#pdac7251663)" style="fill: #ffffff; stroke: #b8b8b8; stroke-width: 0.5; stroke-linejoin: miter"/>
   </g>
   <g id="patch_89">
    <path d="M 546.872243 37.380558 
L 601.578125 37.380558 
L 601.578125 33.67723 
L 546.872243 33.67723 
z
" clip-path="url(#pdac7251663)" style="fill: #ffffff; stroke: #b8b8b8; stroke-width: 0.5; stroke-linejoin: miter"/>
   </g>
   <g id="patch_90">
    <path d="M 546.872243 33.67723 
L 601.578125 33.67723 
L 601.578125 29.973901 
L 546.872243 29.973901 
z
" clip-path="url(#pdac7251663)" style="fill: #ffffff; stroke: #b8b8b8; stroke-width: 0.5; stroke-linejoin: miter"/>
   </g>
   <g id="patch_91">
    <path d="M 546.872243 29.973901 
L 601.578125 29.973901 
L 601.578125 26.270573 
L 546.872243 26.270573 
z
" clip-path="url(#pdac7251663)" style="fill: #ffffff; stroke: #b8b8b8; stroke-width: 0.5; stroke-linejoin: miter"/>
   </g>
   <g id="patch_92">
    <path d="M 546.872243 26.270573 
L 601.578125 26.270573 
L 601.578125 22.567244 
L 546.872243 22.567244 
z
" clip-path="url(#pdac7251663)" style="fill: #ffffff; stroke: #b8b8b8; stroke-width: 0.5; stroke-linejoin: miter"/>
   </g>
   <g id="patch_93">
    <path d="M 546.872243 22.567244 
L 601.578125 22.567244 
L 601.578125 18.863916 
L 546.872243 18.863916 
z
" clip-path="url(#pdac7251663)" style="fill: #ffb300; stroke: #b8b8b8; stroke-width: 0.5; stroke-linejoin: miter"/>
   </g>
   <g id="matplotlib.axis_3">
    <g id="text_27">
     <!-- keys -->
     <g style="fill: #1a1a1a" transform="translate(564.005965 351.361642) scale(0.09 -0.09)">
      <defs>
       <path id="DejaVuSans-6b" d="M 581 4863 
L 1159 4863 
L 1159 1991 
L 2875 3500 
L 3609 3500 
L 1753 1863 
L 3688 0 
L 2938 0 
L 1159 1709 
L 1159 0 
L 581 0 
L 581 4863 
z
" transform="scale(0.015625)"/>
      </defs>
      <use xlink:href="#DejaVuSans-6b"/>
      <use xlink:href="#DejaVuSans-65" x="54.285156"/>
      <use xlink:href="#DejaVuSans-79" x="115.808594"/>
      <use xlink:href="#DejaVuSans-73" x="174.988281"/>
     </g>
    </g>
   </g>
   <g id="matplotlib.axis_4">
    <g id="ytick_9"/>
    <g id="ytick_10"/>
    <g id="ytick_11"/>
    <g id="ytick_12"/>
    <g id="ytick_13"/>
    <g id="ytick_14"/>
    <g id="ytick_15"/>
    <g id="ytick_16"/>
   </g>
   <g id="patch_94">
    <path d="M 546.872243 340.523048 
L 546.872243 7.883048 
" style="fill: none; stroke: #888888; stroke-linejoin: miter; stroke-linecap: square"/>
   </g>
   <g id="patch_95">
    <path d="M 601.578125 340.523048 
L 601.578125 7.883048 
" style="fill: none; stroke: #888888; stroke-linejoin: miter; stroke-linecap: square"/>
   </g>
   <g id="patch_96">
    <path d="M 546.872243 340.523048 
L 601.578125 340.523048 
" style="fill: none; stroke: #888888; stroke-linejoin: miter; stroke-linecap: square"/>
   </g>
   <g id="patch_97">
    <path d="M 546.872243 7.883048 
L 601.578125 7.883048 
" style="fill: none; stroke: #888888; stroke-linejoin: miter; stroke-linecap: square"/>
   </g>
   <g id="patch_98">
    <path d="M 546.872243 329.57317 
L 578.601654 329.57317 
L 578.601654 326.610508 
L 546.872243 326.610508 
z
" clip-path="url(#pdac7251663)" style="fill: #1a1a1a; stroke: #1a1a1a; stroke-width: 0.4; stroke-linejoin: miter"/>
   </g>
   <g id="patch_99">
    <path d="M 546.872243 318.463185 
L 578.601654 318.463185 
L 578.601654 315.500522 
L 546.872243 315.500522 
z
" clip-path="url(#pdac7251663)" style="fill: #1a1a1a; stroke: #1a1a1a; stroke-width: 0.4; stroke-linejoin: miter"/>
   </g>
   <g id="patch_100">
    <path d="M 546.872243 311.056528 
L 578.601654 311.056528 
L 578.601654 308.093866 
L 546.872243 308.093866 
z
" clip-path="url(#pdac7251663)" style="fill: #1a1a1a; stroke: #1a1a1a; stroke-width: 0.4; stroke-linejoin: miter"/>
   </g>
   <g id="patch_101">
    <path d="M 546.872243 299.946543 
L 578.601654 299.946543 
L 578.601654 296.98388 
L 546.872243 296.98388 
z
" clip-path="url(#pdac7251663)" style="fill: #1a1a1a; stroke: #1a1a1a; stroke-width: 0.4; stroke-linejoin: miter"/>
   </g>
   <g id="patch_102">
    <path d="M 546.872243 292.539886 
L 578.601654 292.539886 
L 578.601654 289.577224 
L 546.872243 289.577224 
z
" clip-path="url(#pdac7251663)" style="fill: #1a1a1a; stroke: #1a1a1a; stroke-width: 0.4; stroke-linejoin: miter"/>
   </g>
   <g id="patch_103">
    <path d="M 546.872243 285.133229 
L 578.601654 285.133229 
L 578.601654 282.170567 
L 546.872243 282.170567 
z
" clip-path="url(#pdac7251663)" style="fill: #1a1a1a; stroke: #1a1a1a; stroke-width: 0.4; stroke-linejoin: miter"/>
   </g>
   <g id="patch_104">
    <path d="M 546.872243 274.023244 
L 578.601654 274.023244 
L 578.601654 271.060581 
L 546.872243 271.060581 
z
" clip-path="url(#pdac7251663)" style="fill: #1a1a1a; stroke: #1a1a1a; stroke-width: 0.4; stroke-linejoin: miter"/>
   </g>
   <g id="patch_105">
    <path d="M 546.872243 266.616587 
L 578.601654 266.616587 
L 578.601654 263.653925 
L 546.872243 263.653925 
z
" clip-path="url(#pdac7251663)" style="fill: #1a1a1a; stroke: #1a1a1a; stroke-width: 0.4; stroke-linejoin: miter"/>
   </g>
   <g id="patch_106">
    <path d="M 546.872243 255.506602 
L 578.601654 255.506602 
L 578.601654 252.543939 
L 546.872243 252.543939 
z
" clip-path="url(#pdac7251663)" style="fill: #1a1a1a; stroke: #1a1a1a; stroke-width: 0.4; stroke-linejoin: miter"/>
   </g>
   <g id="patch_107">
    <path d="M 546.872243 248.099945 
L 578.601654 248.099945 
L 578.601654 245.137283 
L 546.872243 245.137283 
z
" clip-path="url(#pdac7251663)" style="fill: #1a1a1a; stroke: #1a1a1a; stroke-width: 0.4; stroke-linejoin: miter"/>
   </g>
   <g id="patch_108">
    <path d="M 546.872243 240.693288 
L 578.601654 240.693288 
L 578.601654 237.730626 
L 546.872243 237.730626 
z
" clip-path="url(#pdac7251663)" style="fill: #1a1a1a; stroke: #1a1a1a; stroke-width: 0.4; stroke-linejoin: miter"/>
   </g>
   <g id="patch_109">
    <path d="M 546.872243 229.583303 
L 578.601654 229.583303 
L 578.601654 226.62064 
L 546.872243 226.62064 
z
" clip-path="url(#pdac7251663)" style="fill: #1a1a1a; stroke: #1a1a1a; stroke-width: 0.4; stroke-linejoin: miter"/>
   </g>
   <g id="patch_110">
    <path d="M 546.872243 222.176646 
L 578.601654 222.176646 
L 578.601654 219.213984 
L 546.872243 219.213984 
z
" clip-path="url(#pdac7251663)" style="fill: #1a1a1a; stroke: #1a1a1a; stroke-width: 0.4; stroke-linejoin: miter"/>
   </g>
   <g id="patch_111">
    <path d="M 546.872243 211.066661 
L 578.601654 211.066661 
L 578.601654 208.103998 
L 546.872243 208.103998 
z
" clip-path="url(#pdac7251663)" style="fill: #1a1a1a; stroke: #1a1a1a; stroke-width: 0.4; stroke-linejoin: miter"/>
   </g>
   <g id="patch_112">
    <path d="M 546.872243 203.660004 
L 578.601654 203.660004 
L 578.601654 200.697341 
L 546.872243 200.697341 
z
" clip-path="url(#pdac7251663)" style="fill: #1a1a1a; stroke: #1a1a1a; stroke-width: 0.4; stroke-linejoin: miter"/>
   </g>
   <g id="patch_113">
    <path d="M 546.872243 196.253347 
L 578.601654 196.253347 
L 578.601654 193.290685 
L 546.872243 193.290685 
z
" clip-path="url(#pdac7251663)" style="fill: #1a1a1a; stroke: #1a1a1a; stroke-width: 0.4; stroke-linejoin: miter"/>
   </g>
   <g id="patch_114">
    <path d="M 546.872243 185.143362 
L 578.601654 185.143362 
L 578.601654 182.180699 
L 546.872243 182.180699 
z
" clip-path="url(#pdac7251663)" style="fill: #1a1a1a; stroke: #1a1a1a; stroke-width: 0.4; stroke-linejoin: miter"/>
   </g>
   <g id="patch_115">
    <path d="M 546.872243 177.736705 
L 578.601654 177.736705 
L 578.601654 174.774043 
L 546.872243 174.774043 
z
" clip-path="url(#pdac7251663)" style="fill: #1a1a1a; stroke: #1a1a1a; stroke-width: 0.4; stroke-linejoin: miter"/>
   </g>
   <g id="patch_116">
    <path d="M 546.872243 166.62672 
L 578.601654 166.62672 
L 578.601654 163.664057 
L 546.872243 163.664057 
z
" clip-path="url(#pdac7251663)" style="fill: #1a1a1a; stroke: #1a1a1a; stroke-width: 0.4; stroke-linejoin: miter"/>
   </g>
   <g id="patch_117">
    <path d="M 546.872243 159.220063 
L 578.601654 159.220063 
L 578.601654 156.2574 
L 546.872243 156.2574 
z
" clip-path="url(#pdac7251663)" style="fill: #1a1a1a; stroke: #1a1a1a; stroke-width: 0.4; stroke-linejoin: miter"/>
   </g>
   <g id="patch_118">
    <path d="M 546.872243 151.813406 
L 578.601654 151.813406 
L 578.601654 148.850744 
L 546.872243 148.850744 
z
" clip-path="url(#pdac7251663)" style="fill: #1a1a1a; stroke: #1a1a1a; stroke-width: 0.4; stroke-linejoin: miter"/>
   </g>
   <g id="patch_119">
    <path d="M 546.872243 140.703421 
L 578.601654 140.703421 
L 578.601654 137.740758 
L 546.872243 137.740758 
z
" clip-path="url(#pdac7251663)" style="fill: #1a1a1a; stroke: #1a1a1a; stroke-width: 0.4; stroke-linejoin: miter"/>
   </g>
   <g id="patch_120">
    <path d="M 546.872243 133.296764 
L 578.601654 133.296764 
L 578.601654 130.334101 
L 546.872243 130.334101 
z
" clip-path="url(#pdac7251663)" style="fill: #1a1a1a; stroke: #1a1a1a; stroke-width: 0.4; stroke-linejoin: miter"/>
   </g>
   <g id="patch_121">
    <path d="M 546.872243 122.186779 
L 578.601654 122.186779 
L 578.601654 119.224116 
L 546.872243 119.224116 
z
" clip-path="url(#pdac7251663)" style="fill: #1a1a1a; stroke: #1a1a1a; stroke-width: 0.4; stroke-linejoin: miter"/>
   </g>
   <g id="patch_122">
    <path d="M 546.872243 114.780122 
L 578.601654 114.780122 
L 578.601654 111.817459 
L 546.872243 111.817459 
z
" clip-path="url(#pdac7251663)" style="fill: #1a1a1a; stroke: #1a1a1a; stroke-width: 0.4; stroke-linejoin: miter"/>
   </g>
   <g id="patch_123">
    <path d="M 546.872243 107.373465 
L 578.601654 107.373465 
L 578.601654 104.410803 
L 546.872243 104.410803 
z
" clip-path="url(#pdac7251663)" style="fill: #1a1a1a; stroke: #1a1a1a; stroke-width: 0.4; stroke-linejoin: miter"/>
   </g>
   <g id="patch_124">
    <path d="M 546.872243 96.26348 
L 578.601654 96.26348 
L 578.601654 93.300817 
L 546.872243 93.300817 
z
" clip-path="url(#pdac7251663)" style="fill: #1a1a1a; stroke: #1a1a1a; stroke-width: 0.4; stroke-linejoin: miter"/>
   </g>
   <g id="patch_125">
    <path d="M 546.872243 88.856823 
L 578.601654 88.856823 
L 578.601654 85.89416 
L 546.872243 85.89416 
z
" clip-path="url(#pdac7251663)" style="fill: #1a1a1a; stroke: #1a1a1a; stroke-width: 0.4; stroke-linejoin: miter"/>
   </g>
   <g id="patch_126">
    <path d="M 546.872243 77.746838 
L 578.601654 77.746838 
L 578.601654 74.784175 
L 546.872243 74.784175 
z
" clip-path="url(#pdac7251663)" style="fill: #1a1a1a; stroke: #1a1a1a; stroke-width: 0.4; stroke-linejoin: miter"/>
   </g>
   <g id="patch_127">
    <path d="M 546.872243 70.340181 
L 578.601654 70.340181 
L 578.601654 67.377518 
L 546.872243 67.377518 
z
" clip-path="url(#pdac7251663)" style="fill: #1a1a1a; stroke: #1a1a1a; stroke-width: 0.4; stroke-linejoin: miter"/>
   </g>
   <g id="patch_128">
    <path d="M 546.872243 62.933524 
L 578.601654 62.933524 
L 578.601654 59.970861 
L 546.872243 59.970861 
z
" clip-path="url(#pdac7251663)" style="fill: #1a1a1a; stroke: #1a1a1a; stroke-width: 0.4; stroke-linejoin: miter"/>
   </g>
   <g id="patch_129">
    <path d="M 546.872243 51.823539 
L 578.601654 51.823539 
L 578.601654 48.860876 
L 546.872243 48.860876 
z
" clip-path="url(#pdac7251663)" style="fill: #1a1a1a; stroke: #1a1a1a; stroke-width: 0.4; stroke-linejoin: miter"/>
   </g>
   <g id="patch_130">
    <path d="M 546.872243 44.416882 
L 578.601654 44.416882 
L 578.601654 41.454219 
L 546.872243 41.454219 
z
" clip-path="url(#pdac7251663)" style="fill: #1a1a1a; stroke: #1a1a1a; stroke-width: 0.4; stroke-linejoin: miter"/>
   </g>
   <g id="patch_131">
    <path d="M 546.872243 33.306897 
L 578.601654 33.306897 
L 578.601654 30.344234 
L 546.872243 30.344234 
z
" clip-path="url(#pdac7251663)" style="fill: #1a1a1a; stroke: #1a1a1a; stroke-width: 0.4; stroke-linejoin: miter"/>
   </g>
   <g id="patch_132">
    <path d="M 546.872243 25.90024 
L 578.601654 25.90024 
L 578.601654 22.937577 
L 546.872243 22.937577 
z
" clip-path="url(#pdac7251663)" style="fill: #1a1a1a; stroke: #1a1a1a; stroke-width: 0.4; stroke-linejoin: miter"/>
   </g>
  </g>
 </g>
 <defs>
  <clipPath id="pc015ffd7cd">
   <rect x="43.578125" y="7.883048" width="492.352941" height="332.64"/>
  </clipPath>
  <clipPath id="pdac7251663">
   <rect x="546.872243" y="7.883048" width="54.705882" height="332.64"/>
  </clipPath>
 </defs>
</svg>
