<?xml version="1.0" encoding="utf-8" standalone="no"?>
<!DOCTYPE svg PUBLIC "-//W3C//DTD SVG 1.1//EN"
  "http://www.w3.org/Graphics/SVG/1.1/DTD/svg11.dtd">
<svg xmlns:xlink="http://www.w3.org/1999/xlink" width="585.125pt" height="391.754531pt" viewBox="0 0 585.125 391.754531" xmlns="http://www.w3.org/2000/svg" version="1.1">
 <metadata>
  <rdf:RDF xmlns:dc="http://purl.org/dc/elements/1.1/" xmlns:cc="http://creativecommons.org/ns#" xmlns:rdf="http://www.w3.org/1999/02/22-rdf-syntax-ns#">
   <cc:Work>
    <dc:type rdf:resource="http://purl.org/dc/dcmitype/StillImage"/>
    <dc:date>2026-06-14T11:01:17.038640</dc:date>
    <dc:format>image/svg+xml</dc:format>
    <dc:creator>
     <cc:Agent>
      <dc:title>Matplotlib v3.9.4, https://matplotlib.org/</dc:title>
     </cc:Agent>
    </dc:creator>
   </cc:Work>
  </rdf:RDF>
 </metadata>
 <defs>
  <style type="text/css">*{stroke-linejoin: round; stroke-linecap: butt}</style>
 </defs>
 <g id="figure_1">
  <g id="patch_1">
   <path d="M 0 391.754531 
L 585.125 391.754531 
L 585.125 0 
L 0 0 
z
" style="fill: #ffffff"/>
  </g>
  <g id="axes_1">
   <g id="patch_2">
    <path d="M 10.38125 157.32971 
L 568.38125 157.32971 
L 568.38125 21.558281 
L 10.38125 21.558281 
z
" style="fill: #ffffff"/>
   </g>
   <g id="line2d_1">
    <path d="M 10.38125 100.162793 
L 568.38125 100.162793 
" clip-path="url(#p861bc1edb0)" style="fill: none; stroke-dasharray: 0.9,1.485; stroke-dashoffset: 0; stroke: #5d5d5d; stroke-width: 0.9"/>
   </g>
   <g id="matplotlib.axis_1">
    <g id="xtick_1">
     <g id="line2d_2">
      <defs>
       <path id="m94577223df" d="M 0 0 
L 0 3.5 
" style="stroke: #000000; stroke-width: 0.8"/>
      </defs>
      <g>
       <use xlink:href="#m94577223df" x="10.38125" y="157.32971" style="stroke: #000000; stroke-width: 0.8"/>
      </g>
     </g>
     <g id="text_1">
      <!-- 0 -->
      <g transform="translate(7.2 171.928147) scale(0.1 -0.1)">
       <defs>
        <path id="DejaVuSans-30" d="M 2034 4250 
Q 1547 4250 1301 3770 
Q 1056 3291 1056 2328 
Q 1056 1369 1301 889 
Q 1547 409 2034 409 
Q 2525 409 2770 889 
Q 3016 1369 3016 2328 
Q 3016 3291 2770 3770 
Q 2525 4250 2034 4250 
z
M 2034 4750 
Q 2819 4750 3233 4129 
Q 3647 3509 3647 2328 
Q 3647 1150 3233 529 
Q 2819 -91 2034 -91 
Q 1250 -91 836 529 
Q 422 1150 422 2328 
Q 422 3509 836 4129 
Q 1250 4750 2034 4750 
z
" transform="scale(0.015625)"/>
       </defs>
       <use xlink:href="#DejaVuSans-30"/>
      </g>
     </g>
    </g>
    <g id="xtick_2">
     <g id="line2d_3">
      <g>
       <use xlink:href="#m94577223df" x="80.13125" y="157.32971" style="stroke: #000000; stroke-width: 0.8"/>
      </g>
     </g>
     <g id="text_2">
      <!-- 20 -->
      <g transform="translate(73.76875 171.928147) scale(0.1 -0.1)">
       <defs>
        <path id="DejaVuSans-32" d="M 1228 531 
L 3431 531 
L 3431 0 
L 469 0 
L 469 531 
Q 828 903 1448 1529 
Q 2069 2156 2228 2338 
Q 2531 2678 2651 2914 
Q 2772 3150 2772 3378 
Q 2772 3750 2511 3984 
Q 2250 4219 1831 4219 
Q 1534 4219 1204 4116 
Q 875 4013 500 3803 
L 500 4441 
Q 881 4594 1212 4672 
Q 1544 4750 1819 4750 
Q 2544 4750 2975 4387 
Q 3406 4025 3406 3419 
Q 3406 3131 3298 2873 
Q 3191 2616 2906 2266 
Q 2828 2175 2409 1742 
Q 1991 1309 1228 531 
z
" transform="scale(0.015625)"/>
       </defs>
       <use xlink:href="#DejaVuSans-32"/>
       <use xlink:href="#DejaVuSans-30" x="63.623047"/>
      </g>
     </g>
    </g>
    <g id="xtick_3">
     <g id="line2d_4">
      <g>
       <use xlink:href="#m94577223df" x="149.88125" y="157.32971" style="stroke: #000000; stroke-width: 0.8"/>
      </g>
     </g>
     <g id="text_3">
      <!-- 40 -->
      <g transform="translate(143.51875 171.928147) scale(0.1 -0.1)">
       <defs>
        <path id="DejaVuSans-34" d="M 2419 4116 
L 825 1625 
L 2419 1625 
L 2419 4116 
z
M 2253 4666 
L 3047 4666 
L 3047 1625 
L 3713 1625 
L 3713 1100 
L 3047 1100 
L 3047 0 
L 2419 0 
L 2419 1100 
L 313 1100 
L 313 1709 
L 2253 4666 
z
" transform="scale(0.015625)"/>
       </defs>
       <use xlink:href="#DejaVuSans-34"/>
       <use xlink:href="#DejaVuSans-30" x="63.623047"/>
      </g>
     </g>
    </g>
    <g id="xtick_4">
     <g id="line2d_5">
      <g>
       <use xlink:href="#m94577223df" x="219.63125" y="157.32971" style="stroke: #000000; stroke-width: 0.8"/>
      </g>
     </g>
     <g id="text_4">
      <!-- 60 -->
      <g transform="translate(213.26875 171.928147) scale(0.1 -0.1)">
       <defs>
        <path id="DejaVuSans-36" d="M 2113 2584 
Q 1688 2584 1439 2293 
Q 1191 2003 1191 1497 
Q 1191 994 1439 701 
Q 1688 409 2113 409 
Q 2538 409 2786 701 
Q 3034 994 3034 1497 
Q 3034 2003 2786 2293 
Q 2538 2584 2113 2584 
z
M 3366 4563 
L 3366 3988 
Q 3128 4100 2886 4159 
Q 2644 4219 2406 4219 
Q 1781 4219 1451 3797 
Q 1122 3375 1075 2522 
Q 1259 2794 1537 2939 
Q 1816 3084 2150 3084 
Q 2853 3084 3261 2657 
Q 3669 2231 3669 1497 
Q 3669 778 3244 343 
Q 2819 -91 2113 -91 
Q 1303 -91 875 529 
Q 447 1150 447 2328 
Q 447 3434 972 4092 
Q 1497 4750 2381 4750 
Q 2619 4750 2861 4703 
Q 3103 4656 3366 4563 
z
" transform="scale(0.015625)"/>
       </defs>
       <use xlink:href="#DejaVuSans-36"/>
       <use xlink:href="#DejaVuSans-30" x="63.623047"/>
      </g>
     </g>
    </g>
    <g id="xtick_5">
     <g id="line2d_6">
      <g>
       <use xlink:href="#m94577223df" x="289.38125" y="157.32971" style="stroke: #000000; stroke-width: 0.8"/>
      </g>
     </g>
     <g id="text_5">
      <!-- 80 -->
      <g transform="translate(283.01875 171.928147) scale(0.1 -0.1)">
       <defs>
        <path id="DejaVuSans-38" d="M 2034 2216 
Q 1584 2216 1326 1975 
Q 1069 1734 1069 1313 
Q 1069 891 1326 650 
Q 1584 409 2034 409 
Q 2484 409 2743 651 
Q 3003 894 3003 1313 
Q 3003 1734 2745 1975 
Q 2488 2216 2034 2216 
z
M 1403 2484 
Q 997 2584 770 2862 
Q 544 3141 544 3541 
Q 544 4100 942 4425 
Q 1341 4750 2034 4750 
Q 2731 4750 3128 4425 
Q 3525 4100 3525 3541 
Q 3525 3141 3298 2862 
Q 3072 2584 2669 2484 
Q 3125 2378 3379 2068 
Q 3634 1759 3634 1313 
Q 3634 634 3220 271 
Q 2806 -91 2034 -91 
Q 1263 -91 848 271 
Q 434 634 434 1313 
Q 434 1759 690 2068 
Q 947 2378 1403 2484 
z
M 1172 3481 
Q 1172 3119 1398 2916 
Q 1625 2713 2034 2713 
Q 2441 2713 2670 2916 
Q 2900 3119 2900 3481 
Q 2900 3844 2670 4047 
Q 2441 4250 2034 4250 
Q 1625 4250 1398 4047 
Q 1172 3844 1172 3481 
z
" transform="scale(0.015625)"/>
       </defs>
       <use xlink:href="#DejaVuSans-38"/>
       <use xlink:href="#DejaVuSans-30" x="63.623047"/>
      </g>
     </g>
    </g>
    <g id="xtick_6">
     <g id="line2d_7">
      <g>
       <use xlink:href="#m94577223df" x="359.13125" y="157.32971" style="stroke: #000000; stroke-width: 0.8"/>
      </g>
     </g>
     <g id="text_6">
      <!-- 100 -->
      <g transform="translate(349.5875 171.928147) scale(0.1 -0.1)">
       <defs>
        <path id="DejaVuSans-31" d="M 794 531 
L 1825 531 
L 1825 4091 
L 703 3866 
L 703 4441 
L 1819 4666 
L 2450 4666 
L 2450 531 
L 3481 531 
L 3481 0 
L 794 0 
L 794 531 
z
" transform="scale(0.015625)"/>
       </defs>
       <use xlink:href="#DejaVuSans-31"/>
       <use xlink:href="#DejaVuSans-30" x="63.623047"/>
       <use xlink:href="#DejaVuSans-30" x="127.246094"/>
      </g>
     </g>
    </g>
    <g id="xtick_7">
     <g id="line2d_8">
      <g>
       <use xlink:href="#m94577223df" x="428.88125" y="157.32971" style="stroke: #000000; stroke-width: 0.8"/>
      </g>
     </g>
     <g id="text_7">
      <!-- 120 -->
      <g transform="translate(419.3375 171.928147) scale(0.1 -0.1)">
       <use xlink:href="#DejaVuSans-31"/>
       <use xlink:href="#DejaVuSans-32" x="63.623047"/>
       <use xlink:href="#DejaVuSans-30" x="127.246094"/>
      </g>
     </g>
    </g>
    <g id="xtick_8">
     <g id="line2d_9">
      <g>
       <use xlink:href="#m94577223df" x="498.63125" y="157.32971" style="stroke: #000000; stroke-width: 0.8"/>
      </g>
     </g>
     <g id="text_8">
      <!-- 140 -->
      <g transform="translate(489.0875 171.928147) scale(0.1 -0.1)">
       <use xlink:href="#DejaVuSans-31"/>
       <use xlink:href="#DejaVuSans-34" x="63.623047"/>
       <use xlink:href="#DejaVuSans-30" x="127.246094"/>
      </g>
     </g>
    </g>
    <g id="xtick_9">
     <g id="line2d_10">
      <g>
       <use xlink:href="#m94577223df" x="568.38125" y="157.32971" style="stroke: #000000; stroke-width: 0.8"/>
      </g>
     </g>
     <g id="text_9">
      <!-- 160 -->
      <g transform="translate(558.8375 171.928147) scale(0.1 -0.1)">
       <use xlink:href="#DejaVuSans-31"/>
       <use xlink:href="#DejaVuSans-36" x="63.623047"/>
       <use xlink:href="#DejaVuSans-30" x="127.246094"/>
      </g>
     </g>
    </g>
   </g>
   <g id="matplotlib.axis_2"/>
   <g id="line2d_11">
    <path d="M 10.38125 66.476863 
L 13.86875 63.937738 
L 17.35625 61.621953 
L 20.84375 59.543784 
L 24.33125 57.716046 
L 27.81875 56.150005 
L 31.30625 54.855318 
L 34.79375 53.839967 
L 38.28125 53.110211 
L 41.76875 52.67055 
L 45.25625 52.523695 
L 48.74375 52.67055 
L 52.23125 53.110211 
L 55.71875 53.839967 
L 59.20625 54.855318 
L 62.69375 56.150005 
L 66.18125 57.716046 
L 69.66875 59.543784 
L 73.15625 61.621953 
L 76.64375 63.937738 
L 80.13125 66.476863 
L 83.61875 69.223673 
L 87.10625 72.161233 
L 90.59375 75.271432 
L 97.56875 81.932099 
L 104.54375 89.041666 
L 115.00625 100.162793 
L 125.46875 111.283919 
L 132.44375 118.393486 
L 139.41875 125.054153 
L 142.90625 128.164352 
L 146.39375 131.101912 
L 149.88125 133.848722 
L 153.36875 136.387847 
L 156.85625 138.703632 
L 160.34375 140.781801 
L 163.83125 142.609539 
L 167.31875 144.17558 
L 170.80625 145.470267 
L 174.29375 146.485618 
L 177.78125 147.215374 
L 181.26875 147.655035 
L 184.75625 147.80189 
L 188.24375 147.655035 
L 191.73125 147.215374 
L 195.21875 146.485618 
L 198.70625 145.470267 
L 202.19375 144.17558 
L 205.68125 142.609539 
L 209.16875 140.781801 
L 212.65625 138.703632 
L 216.14375 136.387847 
L 219.63125 133.848722 
L 223.11875 131.101912 
L 226.60625 128.164352 
L 230.09375 125.054153 
L 237.06875 118.393486 
L 244.04375 111.283919 
L 254.50625 100.162793 
L 264.96875 89.041666 
L 271.94375 81.932099 
L 278.91875 75.271432 
L 282.40625 72.161233 
L 285.89375 69.223673 
L 289.38125 66.476863 
L 292.86875 63.937738 
L 296.35625 61.621953 
L 299.84375 59.543784 
L 303.33125 57.716046 
L 306.81875 56.150005 
L 310.30625 54.855318 
L 313.79375 53.839967 
L 317.28125 53.110211 
L 320.76875 52.67055 
L 324.25625 52.523695 
L 327.74375 52.67055 
L 331.23125 53.110211 
L 334.71875 53.839967 
L 338.20625 54.855318 
L 341.69375 56.150005 
L 345.18125 57.716046 
L 348.66875 59.543784 
L 352.15625 61.621953 
L 355.64375 63.937738 
L 359.13125 66.476863 
L 362.61875 69.223673 
L 366.10625 72.161233 
L 369.59375 75.271432 
L 376.56875 81.932099 
L 383.54375 89.041666 
L 394.00625 100.162793 
L 404.46875 111.283919 
L 411.44375 118.393486 
L 418.41875 125.054153 
L 421.90625 128.164352 
L 425.39375 131.101912 
L 428.88125 133.848722 
L 432.36875 136.387847 
L 435.85625 138.703632 
L 439.34375 140.781801 
L 442.83125 142.609539 
L 446.31875 144.17558 
L 449.80625 145.470267 
L 453.29375 146.485618 
L 456.78125 147.215374 
L 460.26875 147.655035 
L 463.75625 147.80189 
L 467.24375 147.655035 
L 470.73125 147.215374 
L 474.21875 146.485618 
L 477.70625 145.470267 
L 481.19375 144.17558 
L 484.68125 142.609539 
L 488.16875 140.781801 
L 491.65625 138.703632 
L 495.14375 136.387847 
L 498.63125 133.848722 
L 502.11875 131.101912 
L 505.60625 128.164352 
L 509.09375 125.054153 
L 516.06875 118.393486 
L 523.04375 111.283919 
L 533.50625 100.162793 
L 543.96875 89.041666 
L 550.94375 81.932099 
L 557.91875 75.271432 
L 561.40625 72.161233 
L 564.89375 69.223673 
L 568.38125 66.476863 
L 568.38125 66.476863 
" clip-path="url(#p861bc1edb0)" style="fill: none; stroke: #1565c0; stroke-width: 1.8; stroke-linecap: square"/>
   </g>
   <g id="patch_3">
    <path d="M 10.38125 157.32971 
L 568.38125 157.32971 
" style="fill: none; stroke: #b0b0b0; stroke-width: 0.8; stroke-linejoin: miter; stroke-linecap: square"/>
   </g>
   <g id="line2d_12">
    <defs>
     <path id="m867aabe32a" d="M 0 3 
C 0.795609 3 1.55874 2.683901 2.12132 2.12132 
C 2.683901 1.55874 3 0.795609 3 0 
C 3 -0.795609 2.683901 -1.55874 2.12132 -2.12132 
C 1.55874 -2.683901 0.795609 -3 0 -3 
C -0.795609 -3 -1.55874 -2.683901 -2.12132 -2.12132 
C -2.683901 -1.55874 -3 -0.795609 -3 0 
C -3 0.795609 -2.683901 1.55874 -2.12132 2.12132 
C -1.55874 2.683901 -0.795609 3 0 3 
z
" style="stroke: #1a1a1a"/>
    </defs>
    <g clip-path="url(#p861bc1edb0)">
     <use xlink:href="#m867aabe32a" x="115.00625" y="100.162793" style="fill: #1a1a1a; stroke: #1a1a1a"/>
     <use xlink:href="#m867aabe32a" x="254.50625" y="100.162793" style="fill: #1a1a1a; stroke: #1a1a1a"/>
     <use xlink:href="#m867aabe32a" x="394.00625" y="100.162793" style="fill: #1a1a1a; stroke: #1a1a1a"/>
     <use xlink:href="#m867aabe32a" x="533.50625" y="100.162793" style="fill: #1a1a1a; stroke: #1a1a1a"/>
    </g>
   </g>
   <g id="patch_4">
    <path d="M 13.719519 38.231965 
Q 149.879941 38.231965 286.040363 38.231965 
" style="fill: none; stroke: #5d5d5d; stroke-width: 1.2; stroke-linecap: round"/>
    <path d="M 17.719519 40.231965 
L 13.719519 38.231965 
L 17.719519 36.231965 
z
" style="fill: #5d5d5d; stroke: #5d5d5d; stroke-width: 1.2; stroke-linecap: round"/>
    <path d="M 282.040363 36.231965 
L 286.040363 38.231965 
L 282.040363 40.231965 
z
" style="fill: #5d5d5d; stroke: #5d5d5d; stroke-width: 1.2; stroke-linecap: round"/>
   </g>
   <g id="text_10">
    <!-- one period: 2 crossings -->
    <g style="fill: #5d5d5d" transform="translate(91.717188 32.34115) scale(0.1 -0.1)">
     <defs>
      <path id="DejaVuSans-6f" d="M 1959 3097 
Q 1497 3097 1228 2736 
Q 959 2375 959 1747 
Q 959 1119 1226 758 
Q 1494 397 1959 397 
Q 2419 397 2687 759 
Q 2956 1122 2956 1747 
Q 2956 2369 2687 2733 
Q 2419 3097 1959 3097 
z
M 1959 3584 
Q 2709 3584 3137 3096 
Q 3566 2609 3566 1747 
Q 3566 888 3137 398 
Q 2709 -91 1959 -91 
Q 1206 -91 779 398 
Q 353 888 353 1747 
Q 353 2609 779 3096 
Q 1206 3584 1959 3584 
z
" transform="scale(0.015625)"/>
      <path id="DejaVuSans-6e" d="M 3513 2113 
L 3513 0 
L 2938 0 
L 2938 2094 
Q 2938 2591 2744 2837 
Q 2550 3084 2163 3084 
Q 1697 3084 1428 2787 
Q 1159 2491 1159 1978 
L 1159 0 
L 581 0 
L 581 3500 
L 1159 3500 
L 1159 2956 
Q 1366 3272 1645 3428 
Q 1925 3584 2291 3584 
Q 2894 3584 3203 3211 
Q 3513 2838 3513 2113 
z
" transform="scale(0.015625)"/>
      <path id="DejaVuSans-65" d="M 3597 1894 
L 3597 1613 
L 953 1613 
Q 991 1019 1311 708 
Q 1631 397 2203 397 
Q 2534 397 2845 478 
Q 3156 559 3463 722 
L 3463 178 
Q 3153 47 2828 -22 
Q 2503 -91 2169 -91 
Q 1331 -91 842 396 
Q 353 884 353 1716 
Q 353 2575 817 3079 
Q 1281 3584 2069 3584 
Q 2775 3584 3186 3129 
Q 3597 2675 3597 1894 
z
M 3022 2063 
Q 3016 2534 2758 2815 
Q 2500 3097 2075 3097 
Q 1594 3097 1305 2825 
Q 1016 2553 972 2059 
L 3022 2063 
z
" transform="scale(0.015625)"/>
      <path id="DejaVuSans-20" transform="scale(0.015625)"/>
      <path id="DejaVuSans-70" d="M 1159 525 
L 1159 -1331 
L 581 -1331 
L 581 3500 
L 1159 3500 
L 1159 2969 
Q 1341 3281 1617 3432 
Q 1894 3584 2278 3584 
Q 2916 3584 3314 3078 
Q 3713 2572 3713 1747 
Q 3713 922 3314 415 
Q 2916 -91 2278 -91 
Q 1894 -91 1617 61 
Q 1341 213 1159 525 
z
M 3116 1747 
Q 3116 2381 2855 2742 
Q 2594 3103 2138 3103 
Q 1681 3103 1420 2742 
Q 1159 2381 1159 1747 
Q 1159 1113 1420 752 
Q 1681 391 2138 391 
Q 2594 391 2855 752 
Q 3116 1113 3116 1747 
z
" transform="scale(0.015625)"/>
      <path id="DejaVuSans-72" d="M 2631 2963 
Q 2534 3019 2420 3045 
Q 2306 3072 2169 3072 
Q 1681 3072 1420 2755 
Q 1159 2438 1159 1844 
L 1159 0 
L 581 0 
L 581 3500 
L 1159 3500 
L 1159 2956 
Q 1341 3275 1631 3429 
Q 1922 3584 2338 3584 
Q 2397 3584 2469 3576 
Q 2541 3569 2628 3553 
L 2631 2963 
z
" transform="scale(0.015625)"/>
      <path id="DejaVuSans-69" d="M 603 3500 
L 1178 3500 
L 1178 0 
L 603 0 
L 603 3500 
z
M 603 4863 
L 1178 4863 
L 1178 4134 
L 603 4134 
L 603 4863 
z
" transform="scale(0.015625)"/>
      <path id="DejaVuSans-64" d="M 2906 2969 
L 2906 4863 
L 3481 4863 
L 3481 0 
L 2906 0 
L 2906 525 
Q 2725 213 2448 61 
Q 2172 -91 1784 -91 
Q 1150 -91 751 415 
Q 353 922 353 1747 
Q 353 2572 751 3078 
Q 1150 3584 1784 3584 
Q 2172 3584 2448 3432 
Q 2725 3281 2906 2969 
z
M 947 1747 
Q 947 1113 1208 752 
Q 1469 391 1925 391 
Q 2381 391 2643 752 
Q 2906 1113 2906 1747 
Q 2906 2381 2643 2742 
Q 2381 3103 1925 3103 
Q 1469 3103 1208 2742 
Q 947 2381 947 1747 
z
" transform="scale(0.015625)"/>
      <path id="DejaVuSans-3a" d="M 750 794 
L 1409 794 
L 1409 0 
L 750 0 
L 750 794 
z
M 750 3309 
L 1409 3309 
L 1409 2516 
L 750 2516 
L 750 3309 
z
" transform="scale(0.015625)"/>
      <path id="DejaVuSans-63" d="M 3122 3366 
L 3122 2828 
Q 2878 2963 2633 3030 
Q 2388 3097 2138 3097 
Q 1578 3097 1268 2742 
Q 959 2388 959 1747 
Q 959 1106 1268 751 
Q 1578 397 2138 397 
Q 2388 397 2633 464 
Q 2878 531 3122 666 
L 3122 134 
Q 2881 22 2623 -34 
Q 2366 -91 2075 -91 
Q 1284 -91 818 406 
Q 353 903 353 1747 
Q 353 2603 823 3093 
Q 1294 3584 2113 3584 
Q 2378 3584 2631 3529 
Q 2884 3475 3122 3366 
z
" transform="scale(0.015625)"/>
      <path id="DejaVuSans-73" d="M 2834 3397 
L 2834 2853 
Q 2591 2978 2328 3040 
Q 2066 3103 1784 3103 
Q 1356 3103 1142 2972 
Q 928 2841 928 2578 
Q 928 2378 1081 2264 
Q 1234 2150 1697 2047 
L 1894 2003 
Q 2506 1872 2764 1633 
Q 3022 1394 3022 966 
Q 3022 478 2636 193 
Q 2250 -91 1575 -91 
Q 1294 -91 989 -36 
Q 684 19 347 128 
L 347 722 
Q 666 556 975 473 
Q 1284 391 1588 391 
Q 1994 391 2212 530 
Q 2431 669 2431 922 
Q 2431 1156 2273 1281 
Q 2116 1406 1581 1522 
L 1381 1569 
Q 847 1681 609 1914 
Q 372 2147 372 2553 
Q 372 3047 722 3315 
Q 1072 3584 1716 3584 
Q 2034 3584 2315 3537 
Q 2597 3491 2834 3397 
z
" transform="scale(0.015625)"/>
      <path id="DejaVuSans-67" d="M 2906 1791 
Q 2906 2416 2648 2759 
Q 2391 3103 1925 3103 
Q 1463 3103 1205 2759 
Q 947 2416 947 1791 
Q 947 1169 1205 825 
Q 1463 481 1925 481 
Q 2391 481 2648 825 
Q 2906 1169 2906 1791 
z
M 3481 434 
Q 3481 -459 3084 -895 
Q 2688 -1331 1869 -1331 
Q 1566 -1331 1297 -1286 
Q 1028 -1241 775 -1147 
L 775 -588 
Q 1028 -725 1275 -790 
Q 1522 -856 1778 -856 
Q 2344 -856 2625 -561 
Q 2906 -266 2906 331 
L 2906 616 
Q 2728 306 2450 153 
Q 2172 0 1784 0 
Q 1141 0 747 490 
Q 353 981 353 1791 
Q 353 2603 747 3093 
Q 1141 3584 1784 3584 
Q 2172 3584 2450 3431 
Q 2728 3278 2906 2969 
L 2906 3500 
L 3481 3500 
L 3481 434 
z
" transform="scale(0.015625)"/>
     </defs>
     <use xlink:href="#DejaVuSans-6f"/>
     <use xlink:href="#DejaVuSans-6e" x="61.181641"/>
     <use xlink:href="#DejaVuSans-65" x="124.560547"/>
     <use xlink:href="#DejaVuSans-20" x="186.083984"/>
     <use xlink:href="#DejaVuSans-70" x="217.871094"/>
     <use xlink:href="#DejaVuSans-65" x="281.347656"/>
     <use xlink:href="#DejaVuSans-72" x="342.871094"/>
     <use xlink:href="#DejaVuSans-69" x="383.984375"/>
     <use xlink:href="#DejaVuSans-6f" x="411.767578"/>
     <use xlink:href="#DejaVuSans-64" x="472.949219"/>
     <use xlink:href="#DejaVuSans-3a" x="536.425781"/>
     <use xlink:href="#DejaVuSans-20" x="570.117188"/>
     <use xlink:href="#DejaVuSans-32" x="601.904297"/>
     <use xlink:href="#DejaVuSans-20" x="665.527344"/>
     <use xlink:href="#DejaVuSans-63" x="697.314453"/>
     <use xlink:href="#DejaVuSans-72" x="752.294922"/>
     <use xlink:href="#DejaVuSans-6f" x="791.158203"/>
     <use xlink:href="#DejaVuSans-73" x="852.339844"/>
     <use xlink:href="#DejaVuSans-73" x="904.439453"/>
     <use xlink:href="#DejaVuSans-69" x="956.539062"/>
     <use xlink:href="#DejaVuSans-6e" x="984.322266"/>
     <use xlink:href="#DejaVuSans-67" x="1047.701172"/>
     <use xlink:href="#DejaVuSans-73" x="1111.177734"/>
    </g>
   </g>
   <g id="text_11">
    <!-- A pure tone: two crossings per cycle, spacing gives the period -->
    <g style="fill: #1a1a1a" transform="translate(10.38125 15.558281) scale(0.11 -0.11)">
     <defs>
      <path id="DejaVuSans-41" d="M 2188 4044 
L 1331 1722 
L 3047 1722 
L 2188 4044 
z
M 1831 4666 
L 2547 4666 
L 4325 0 
L 3669 0 
L 3244 1197 
L 1141 1197 
L 716 0 
L 50 0 
L 1831 4666 
z
" transform="scale(0.015625)"/>
      <path id="DejaVuSans-75" d="M 544 1381 
L 544 3500 
L 1119 3500 
L 1119 1403 
Q 1119 906 1312 657 
Q 1506 409 1894 409 
Q 2359 409 2629 706 
Q 2900 1003 2900 1516 
L 2900 3500 
L 3475 3500 
L 3475 0 
L 2900 0 
L 2900 538 
Q 2691 219 2414 64 
Q 2138 -91 1772 -91 
Q 1169 -91 856 284 
Q 544 659 544 1381 
z
M 1991 3584 
L 1991 3584 
z
" transform="scale(0.015625)"/>
      <path id="DejaVuSans-74" d="M 1172 4494 
L 1172 3500 
L 2356 3500 
L 2356 3053 
L 1172 3053 
L 1172 1153 
Q 1172 725 1289 603 
Q 1406 481 1766 481 
L 2356 481 
L 2356 0 
L 1766 0 
Q 1100 0 847 248 
Q 594 497 594 1153 
L 594 3053 
L 172 3053 
L 172 3500 
L 594 3500 
L 594 4494 
L 1172 4494 
z
" transform="scale(0.015625)"/>
      <path id="DejaVuSans-77" d="M 269 3500 
L 844 3500 
L 1563 769 
L 2278 3500 
L 2956 3500 
L 3675 769 
L 4391 3500 
L 4966 3500 
L 4050 0 
L 3372 0 
L 2619 2869 
L 1863 0 
L 1184 0 
L 269 3500 
z
" transform="scale(0.015625)"/>
      <path id="DejaVuSans-79" d="M 2059 -325 
Q 1816 -950 1584 -1140 
Q 1353 -1331 966 -1331 
L 506 -1331 
L 506 -850 
L 844 -850 
Q 1081 -850 1212 -737 
Q 1344 -625 1503 -206 
L 1606 56 
L 191 3500 
L 800 3500 
L 1894 763 
L 2988 3500 
L 3597 3500 
L 2059 -325 
z
" transform="scale(0.015625)"/>
      <path id="DejaVuSans-6c" d="M 603 4863 
L 1178 4863 
L 1178 0 
L 603 0 
L 603 4863 
z
" transform="scale(0.015625)"/>
      <path id="DejaVuSans-2c" d="M 750 794 
L 1409 794 
L 1409 256 
L 897 -744 
L 494 -744 
L 750 256 
L 750 794 
z
" transform="scale(0.015625)"/>
      <path id="DejaVuSans-61" d="M 2194 1759 
Q 1497 1759 1228 1600 
Q 959 1441 959 1056 
Q 959 750 1161 570 
Q 1363 391 1709 391 
Q 2188 391 2477 730 
Q 2766 1069 2766 1631 
L 2766 1759 
L 2194 1759 
z
M 3341 1997 
L 3341 0 
L 2766 0 
L 2766 531 
Q 2569 213 2275 61 
Q 1981 -91 1556 -91 
Q 1019 -91 701 211 
Q 384 513 384 1019 
Q 384 1609 779 1909 
Q 1175 2209 1959 2209 
L 2766 2209 
L 2766 2266 
Q 2766 2663 2505 2880 
Q 2244 3097 1772 3097 
Q 1472 3097 1187 3025 
Q 903 2953 641 2809 
L 641 3341 
Q 956 3463 1253 3523 
Q 1550 3584 1831 3584 
Q 2591 3584 2966 3190 
Q 3341 2797 3341 1997 
z
" transform="scale(0.015625)"/>
      <path id="DejaVuSans-76" d="M 191 3500 
L 800 3500 
L 1894 563 
L 2988 3500 
L 3597 3500 
L 2284 0 
L 1503 0 
L 191 3500 
z
" transform="scale(0.015625)"/>
      <path id="DejaVuSans-68" d="M 3513 2113 
L 3513 0 
L 2938 0 
L 2938 2094 
Q 2938 2591 2744 2837 
Q 2550 3084 2163 3084 
Q 1697 3084 1428 2787 
Q 1159 2491 1159 1978 
L 1159 0 
L 581 0 
L 581 4863 
L 1159 4863 
L 1159 2956 
Q 1366 3272 1645 3428 
Q 1925 3584 2291 3584 
Q 2894 3584 3203 3211 
Q 3513 2838 3513 2113 
z
" transform="scale(0.015625)"/>
     </defs>
     <use xlink:href="#DejaVuSans-41"/>
     <use xlink:href="#DejaVuSans-20" x="68.408203"/>
     <use xlink:href="#DejaVuSans-70" x="100.195312"/>
     <use xlink:href="#DejaVuSans-75" x="163.671875"/>
     <use xlink:href="#DejaVuSans-72" x="227.050781"/>
     <use xlink:href="#DejaVuSans-65" x="265.914062"/>
     <use xlink:href="#DejaVuSans-20" x="327.4375"/>
     <use xlink:href="#DejaVuSans-74" x="359.224609"/>
     <use xlink:href="#DejaVuSans-6f" x="398.433594"/>
     <use xlink:href="#DejaVuSans-6e" x="459.615234"/>
     <use xlink:href="#DejaVuSans-65" x="522.994141"/>
     <use xlink:href="#DejaVuSans-3a" x="584.517578"/>
     <use xlink:href="#DejaVuSans-20" x="618.208984"/>
     <use xlink:href="#DejaVuSans-74" x="649.996094"/>
     <use xlink:href="#DejaVuSans-77" x="689.205078"/>
     <use xlink:href="#DejaVuSans-6f" x="770.992188"/>
     <use xlink:href="#DejaVuSans-20" x="832.173828"/>
     <use xlink:href="#DejaVuSans-63" x="863.960938"/>
     <use xlink:href="#DejaVuSans-72" x="918.941406"/>
     <use xlink:href="#DejaVuSans-6f" x="957.804688"/>
     <use xlink:href="#DejaVuSans-73" x="1018.986328"/>
     <use xlink:href="#DejaVuSans-73" x="1071.085938"/>
     <use xlink:href="#DejaVuSans-69" x="1123.185547"/>
     <use xlink:href="#DejaVuSans-6e" x="1150.96875"/>
     <use xlink:href="#DejaVuSans-67" x="1214.347656"/>
     <use xlink:href="#DejaVuSans-73" x="1277.824219"/>
     <use xlink:href="#DejaVuSans-20" x="1329.923828"/>
     <use xlink:href="#DejaVuSans-70" x="1361.710938"/>
     <use xlink:href="#DejaVuSans-65" x="1425.1875"/>
     <use xlink:href="#DejaVuSans-72" x="1486.710938"/>
     <use xlink:href="#DejaVuSans-20" x="1527.824219"/>
     <use xlink:href="#DejaVuSans-63" x="1559.611328"/>
     <use xlink:href="#DejaVuSans-79" x="1614.591797"/>
     <use xlink:href="#DejaVuSans-63" x="1673.771484"/>
     <use xlink:href="#DejaVuSans-6c" x="1728.751953"/>
     <use xlink:href="#DejaVuSans-65" x="1756.535156"/>
     <use xlink:href="#DejaVuSans-2c" x="1818.058594"/>
     <use xlink:href="#DejaVuSans-20" x="1849.845703"/>
     <use xlink:href="#DejaVuSans-73" x="1881.632812"/>
     <use xlink:href="#DejaVuSans-70" x="1933.732422"/>
     <use xlink:href="#DejaVuSans-61" x="1997.208984"/>
     <use xlink:href="#DejaVuSans-63" x="2058.488281"/>
     <use xlink:href="#DejaVuSans-69" x="2113.46875"/>
     <use xlink:href="#DejaVuSans-6e" x="2141.251953"/>
     <use xlink:href="#DejaVuSans-67" x="2204.630859"/>
     <use xlink:href="#DejaVuSans-20" x="2268.107422"/>
     <use xlink:href="#DejaVuSans-67" x="2299.894531"/>
     <use xlink:href="#DejaVuSans-69" x="2363.371094"/>
     <use xlink:href="#DejaVuSans-76" x="2391.154297"/>
     <use xlink:href="#DejaVuSans-65" x="2450.333984"/>
     <use xlink:href="#DejaVuSans-73" x="2511.857422"/>
     <use xlink:href="#DejaVuSans-20" x="2563.957031"/>
     <use xlink:href="#DejaVuSans-74" x="2595.744141"/>
     <use xlink:href="#DejaVuSans-68" x="2634.953125"/>
     <use xlink:href="#DejaVuSans-65" x="2698.332031"/>
     <use xlink:href="#DejaVuSans-20" x="2759.855469"/>
     <use xlink:href="#DejaVuSans-70" x="2791.642578"/>
     <use xlink:href="#DejaVuSans-65" x="2855.119141"/>
     <use xlink:href="#DejaVuSans-72" x="2916.642578"/>
     <use xlink:href="#DejaVuSans-69" x="2957.755859"/>
     <use xlink:href="#DejaVuSans-6f" x="2985.539062"/>
     <use xlink:href="#DejaVuSans-64" x="3046.720703"/>
    </g>
   </g>
  </g>
  <g id="axes_2">
   <g id="patch_5">
    <path d="M 10.38125 354.198281 
L 568.38125 354.198281 
L 568.38125 218.426853 
L 10.38125 218.426853 
z
" style="fill: #ffffff"/>
   </g>
   <g id="line2d_13">
    <path d="M 10.38125 297.031364 
L 568.38125 297.031364 
" clip-path="url(#pc451de7eaf)" style="fill: none; stroke-dasharray: 0.9,1.485; stroke-dashoffset: 0; stroke: #5d5d5d; stroke-width: 0.9"/>
   </g>
   <g id="matplotlib.axis_3">
    <g id="xtick_10">
     <g id="line2d_14">
      <g>
       <use xlink:href="#m94577223df" x="10.38125" y="354.198281" style="stroke: #000000; stroke-width: 0.8"/>
      </g>
     </g>
     <g id="text_12">
      <!-- 0 -->
      <g transform="translate(7.2 368.796719) scale(0.1 -0.1)">
       <use xlink:href="#DejaVuSans-30"/>
      </g>
     </g>
    </g>
    <g id="xtick_11">
     <g id="line2d_15">
      <g>
       <use xlink:href="#m94577223df" x="80.13125" y="354.198281" style="stroke: #000000; stroke-width: 0.8"/>
      </g>
     </g>
     <g id="text_13">
      <!-- 20 -->
      <g transform="translate(73.76875 368.796719) scale(0.1 -0.1)">
       <use xlink:href="#DejaVuSans-32"/>
       <use xlink:href="#DejaVuSans-30" x="63.623047"/>
      </g>
     </g>
    </g>
    <g id="xtick_12">
     <g id="line2d_16">
      <g>
       <use xlink:href="#m94577223df" x="149.88125" y="354.198281" style="stroke: #000000; stroke-width: 0.8"/>
      </g>
     </g>
     <g id="text_14">
      <!-- 40 -->
      <g transform="translate(143.51875 368.796719) scale(0.1 -0.1)">
       <use xlink:href="#DejaVuSans-34"/>
       <use xlink:href="#DejaVuSans-30" x="63.623047"/>
      </g>
     </g>
    </g>
    <g id="xtick_13">
     <g id="line2d_17">
      <g>
       <use xlink:href="#m94577223df" x="219.63125" y="354.198281" style="stroke: #000000; stroke-width: 0.8"/>
      </g>
     </g>
     <g id="text_15">
      <!-- 60 -->
      <g transform="translate(213.26875 368.796719) scale(0.1 -0.1)">
       <use xlink:href="#DejaVuSans-36"/>
       <use xlink:href="#DejaVuSans-30" x="63.623047"/>
      </g>
     </g>
    </g>
    <g id="xtick_14">
     <g id="line2d_18">
      <g>
       <use xlink:href="#m94577223df" x="289.38125" y="354.198281" style="stroke: #000000; stroke-width: 0.8"/>
      </g>
     </g>
     <g id="text_16">
      <!-- 80 -->
      <g transform="translate(283.01875 368.796719) scale(0.1 -0.1)">
       <use xlink:href="#DejaVuSans-38"/>
       <use xlink:href="#DejaVuSans-30" x="63.623047"/>
      </g>
     </g>
    </g>
    <g id="xtick_15">
     <g id="line2d_19">
      <g>
       <use xlink:href="#m94577223df" x="359.13125" y="354.198281" style="stroke: #000000; stroke-width: 0.8"/>
      </g>
     </g>
     <g id="text_17">
      <!-- 100 -->
      <g transform="translate(349.5875 368.796719) scale(0.1 -0.1)">
       <use xlink:href="#DejaVuSans-31"/>
       <use xlink:href="#DejaVuSans-30" x="63.623047"/>
       <use xlink:href="#DejaVuSans-30" x="127.246094"/>
      </g>
     </g>
    </g>
    <g id="xtick_16">
     <g id="line2d_20">
      <g>
       <use xlink:href="#m94577223df" x="428.88125" y="354.198281" style="stroke: #000000; stroke-width: 0.8"/>
      </g>
     </g>
     <g id="text_18">
      <!-- 120 -->
      <g transform="translate(419.3375 368.796719) scale(0.1 -0.1)">
       <use xlink:href="#DejaVuSans-31"/>
       <use xlink:href="#DejaVuSans-32" x="63.623047"/>
       <use xlink:href="#DejaVuSans-30" x="127.246094"/>
      </g>
     </g>
    </g>
    <g id="xtick_17">
     <g id="line2d_21">
      <g>
       <use xlink:href="#m94577223df" x="498.63125" y="354.198281" style="stroke: #000000; stroke-width: 0.8"/>
      </g>
     </g>
     <g id="text_19">
      <!-- 140 -->
      <g transform="translate(489.0875 368.796719) scale(0.1 -0.1)">
       <use xlink:href="#DejaVuSans-31"/>
       <use xlink:href="#DejaVuSans-34" x="63.623047"/>
       <use xlink:href="#DejaVuSans-30" x="127.246094"/>
      </g>
     </g>
    </g>
    <g id="xtick_18">
     <g id="line2d_22">
      <g>
       <use xlink:href="#m94577223df" x="568.38125" y="354.198281" style="stroke: #000000; stroke-width: 0.8"/>
      </g>
     </g>
     <g id="text_20">
      <!-- 160 -->
      <g transform="translate(558.8375 368.796719) scale(0.1 -0.1)">
       <use xlink:href="#DejaVuSans-31"/>
       <use xlink:href="#DejaVuSans-36" x="63.623047"/>
       <use xlink:href="#DejaVuSans-30" x="127.246094"/>
      </g>
     </g>
    </g>
    <g id="text_21">
     <!-- Time (samples) -->
     <g transform="translate(250.873438 382.474844) scale(0.1 -0.1)">
      <defs>
       <path id="DejaVuSans-54" d="M -19 4666 
L 3928 4666 
L 3928 4134 
L 2272 4134 
L 2272 0 
L 1638 0 
L 1638 4134 
L -19 4134 
L -19 4666 
z
" transform="scale(0.015625)"/>
       <path id="DejaVuSans-6d" d="M 3328 2828 
Q 3544 3216 3844 3400 
Q 4144 3584 4550 3584 
Q 5097 3584 5394 3201 
Q 5691 2819 5691 2113 
L 5691 0 
L 5113 0 
L 5113 2094 
Q 5113 2597 4934 2840 
Q 4756 3084 4391 3084 
Q 3944 3084 3684 2787 
Q 3425 2491 3425 1978 
L 3425 0 
L 2847 0 
L 2847 2094 
Q 2847 2600 2669 2842 
Q 2491 3084 2119 3084 
Q 1678 3084 1418 2786 
Q 1159 2488 1159 1978 
L 1159 0 
L 581 0 
L 581 3500 
L 1159 3500 
L 1159 2956 
Q 1356 3278 1631 3431 
Q 1906 3584 2284 3584 
Q 2666 3584 2933 3390 
Q 3200 3197 3328 2828 
z
" transform="scale(0.015625)"/>
       <path id="DejaVuSans-28" d="M 1984 4856 
Q 1566 4138 1362 3434 
Q 1159 2731 1159 2009 
Q 1159 1288 1364 580 
Q 1569 -128 1984 -844 
L 1484 -844 
Q 1016 -109 783 600 
Q 550 1309 550 2009 
Q 550 2706 781 3412 
Q 1013 4119 1484 4856 
L 1984 4856 
z
" transform="scale(0.015625)"/>
       <path id="DejaVuSans-29" d="M 513 4856 
L 1013 4856 
Q 1481 4119 1714 3412 
Q 1947 2706 1947 2009 
Q 1947 1309 1714 600 
Q 1481 -109 1013 -844 
L 513 -844 
Q 928 -128 1133 580 
Q 1338 1288 1338 2009 
Q 1338 2731 1133 3434 
Q 928 4138 513 4856 
z
" transform="scale(0.015625)"/>
      </defs>
      <use xlink:href="#DejaVuSans-54"/>
      <use xlink:href="#DejaVuSans-69" x="57.958984"/>
      <use xlink:href="#DejaVuSans-6d" x="85.742188"/>
      <use xlink:href="#DejaVuSans-65" x="183.154297"/>
      <use xlink:href="#DejaVuSans-20" x="244.677734"/>
      <use xlink:href="#DejaVuSans-28" x="276.464844"/>
      <use xlink:href="#DejaVuSans-73" x="315.478516"/>
      <use xlink:href="#DejaVuSans-61" x="367.578125"/>
      <use xlink:href="#DejaVuSans-6d" x="428.857422"/>
      <use xlink:href="#DejaVuSans-70" x="526.269531"/>
      <use xlink:href="#DejaVuSans-6c" x="589.746094"/>
      <use xlink:href="#DejaVuSans-65" x="617.529297"/>
      <use xlink:href="#DejaVuSans-73" x="679.052734"/>
      <use xlink:href="#DejaVuSans-29" x="731.152344"/>
     </g>
    </g>
   </g>
   <g id="matplotlib.axis_4"/>
   <g id="line2d_23">
    <path d="M 10.38125 250.599872 
L 13.86875 253.096307 
L 17.35625 256.707897 
L 20.84375 261.220021 
L 24.33125 266.3886 
L 34.79375 283.219864 
L 38.28125 288.434638 
L 41.76875 293.091697 
L 45.25625 297.031364 
L 48.74375 300.141365 
L 52.23125 302.360389 
L 55.71875 303.678799 
L 59.20625 304.136527 
L 62.69375 303.818323 
L 66.18125 302.846689 
L 69.66875 301.372942 
L 73.15625 299.566951 
L 80.13125 295.664548 
L 83.61875 293.902122 
L 87.10625 292.455614 
L 90.59375 291.43083 
L 94.08125 290.897112 
L 97.56875 290.884194 
L 101.05625 291.3816 
L 104.54375 292.340592 
L 108.03125 293.678513 
L 111.51875 295.285246 
L 118.49375 298.777482 
L 121.98125 300.384215 
L 125.46875 301.722136 
L 128.95625 302.681128 
L 132.44375 303.178534 
L 135.93125 303.165616 
L 139.41875 302.631898 
L 142.90625 301.607114 
L 146.39375 300.160606 
L 149.88125 298.398179 
L 160.34375 292.689786 
L 163.83125 291.216039 
L 167.31875 290.244405 
L 170.80625 289.926201 
L 174.29375 290.383929 
L 177.78125 291.702339 
L 181.26875 293.921363 
L 184.75625 297.031364 
L 188.24375 300.971031 
L 191.73125 305.62809 
L 195.21875 310.842864 
L 205.68125 327.674128 
L 209.16875 332.842707 
L 212.65625 337.354831 
L 216.14375 340.966421 
L 219.63125 343.462856 
L 223.11875 344.670462 
L 226.60625 344.466169 
L 230.09375 342.784819 
L 233.58125 339.623705 
L 237.06875 335.044072 
L 240.55625 329.16948 
L 244.04375 322.181071 
L 247.53125 314.309966 
L 251.01875 305.827151 
L 257.99375 288.235577 
L 261.48125 279.752762 
L 264.96875 271.881657 
L 268.45625 264.893248 
L 271.94375 259.018656 
L 275.43125 254.439023 
L 278.91875 251.277909 
L 282.40625 249.596559 
L 285.89375 249.392266 
L 289.38125 250.599872 
L 292.86875 253.096307 
L 296.35625 256.707897 
L 299.84375 261.220021 
L 303.33125 266.3886 
L 313.79375 283.219864 
L 317.28125 288.434638 
L 320.76875 293.091697 
L 324.25625 297.031364 
L 327.74375 300.141365 
L 331.23125 302.360389 
L 334.71875 303.678799 
L 338.20625 304.136527 
L 341.69375 303.818323 
L 345.18125 302.846689 
L 348.66875 301.372942 
L 352.15625 299.566951 
L 359.13125 295.664548 
L 362.61875 293.902122 
L 366.10625 292.455614 
L 369.59375 291.43083 
L 373.08125 290.897112 
L 376.56875 290.884194 
L 380.05625 291.3816 
L 383.54375 292.340592 
L 387.03125 293.678513 
L 390.51875 295.285246 
L 397.49375 298.777482 
L 400.98125 300.384215 
L 404.46875 301.722136 
L 407.95625 302.681128 
L 411.44375 303.178534 
L 414.93125 303.165616 
L 418.41875 302.631898 
L 421.90625 301.607114 
L 425.39375 300.160606 
L 428.88125 298.398179 
L 439.34375 292.689786 
L 442.83125 291.216039 
L 446.31875 290.244405 
L 449.80625 289.926201 
L 453.29375 290.383929 
L 456.78125 291.702339 
L 460.26875 293.921363 
L 463.75625 297.031364 
L 467.24375 300.971031 
L 470.73125 305.62809 
L 474.21875 310.842864 
L 484.68125 327.674128 
L 488.16875 332.842707 
L 491.65625 337.354831 
L 495.14375 340.966421 
L 498.63125 343.462856 
L 502.11875 344.670462 
L 505.60625 344.466169 
L 509.09375 342.784819 
L 512.58125 339.623705 
L 516.06875 335.044072 
L 519.55625 329.16948 
L 523.04375 322.181071 
L 526.53125 314.309966 
L 530.01875 305.827151 
L 536.99375 288.235577 
L 540.48125 279.752762 
L 543.96875 271.881657 
L 547.45625 264.893248 
L 550.94375 259.018656 
L 554.43125 254.439023 
L 557.91875 251.277909 
L 561.40625 249.596559 
L 564.89375 249.392266 
L 568.38125 250.599872 
L 568.38125 250.599872 
" clip-path="url(#pc451de7eaf)" style="fill: none; stroke: #1565c0; stroke-width: 1.8; stroke-linecap: square"/>
   </g>
   <g id="patch_6">
    <path d="M 10.38125 354.198281 
L 568.38125 354.198281 
" style="fill: none; stroke: #b0b0b0; stroke-width: 0.8; stroke-linejoin: miter; stroke-linecap: square"/>
   </g>
   <g id="line2d_24">
    <g clip-path="url(#pc451de7eaf)">
     <use xlink:href="#m867aabe32a" x="45.25625" y="297.031364" style="fill: #1a1a1a; stroke: #1a1a1a"/>
     <use xlink:href="#m867aabe32a" x="77.676195" y="297.031364" style="fill: #1a1a1a; stroke: #1a1a1a"/>
     <use xlink:href="#m867aabe32a" x="115.00625" y="297.031364" style="fill: #1a1a1a; stroke: #1a1a1a"/>
     <use xlink:href="#m867aabe32a" x="152.336305" y="297.031364" style="fill: #1a1a1a; stroke: #1a1a1a"/>
     <use xlink:href="#m867aabe32a" x="184.75625" y="297.031364" style="fill: #1a1a1a; stroke: #1a1a1a"/>
     <use xlink:href="#m867aabe32a" x="254.50625" y="297.031364" style="fill: #1a1a1a; stroke: #1a1a1a"/>
     <use xlink:href="#m867aabe32a" x="324.25625" y="297.031364" style="fill: #1a1a1a; stroke: #1a1a1a"/>
     <use xlink:href="#m867aabe32a" x="356.676195" y="297.031364" style="fill: #1a1a1a; stroke: #1a1a1a"/>
     <use xlink:href="#m867aabe32a" x="394.00625" y="297.031364" style="fill: #1a1a1a; stroke: #1a1a1a"/>
     <use xlink:href="#m867aabe32a" x="431.336305" y="297.031364" style="fill: #1a1a1a; stroke: #1a1a1a"/>
     <use xlink:href="#m867aabe32a" x="463.75625" y="297.031364" style="fill: #1a1a1a; stroke: #1a1a1a"/>
     <use xlink:href="#m867aabe32a" x="533.50625" y="297.031364" style="fill: #1a1a1a; stroke: #1a1a1a"/>
    </g>
   </g>
   <g id="patch_7">
    <path d="M 13.719519 235.100537 
Q 149.879941 235.100537 286.040363 235.100537 
" style="fill: none; stroke: #5d5d5d; stroke-width: 1.2; stroke-linecap: round"/>
    <path d="M 17.719519 237.100537 
L 13.719519 235.100537 
L 17.719519 233.100537 
z
" style="fill: #5d5d5d; stroke: #5d5d5d; stroke-width: 1.2; stroke-linecap: round"/>
    <path d="M 282.040363 233.100537 
L 286.040363 235.100537 
L 282.040363 237.100537 
z
" style="fill: #5d5d5d; stroke: #5d5d5d; stroke-width: 1.2; stroke-linecap: round"/>
   </g>
   <g id="text_22">
    <!-- one period: 6 crossings -->
    <g style="fill: #5d5d5d" transform="translate(91.717188 229.209722) scale(0.1 -0.1)">
     <use xlink:href="#DejaVuSans-6f"/>
     <use xlink:href="#DejaVuSans-6e" x="61.181641"/>
     <use xlink:href="#DejaVuSans-65" x="124.560547"/>
     <use xlink:href="#DejaVuSans-20" x="186.083984"/>
     <use xlink:href="#DejaVuSans-70" x="217.871094"/>
     <use xlink:href="#DejaVuSans-65" x="281.347656"/>
     <use xlink:href="#DejaVuSans-72" x="342.871094"/>
     <use xlink:href="#DejaVuSans-69" x="383.984375"/>
     <use xlink:href="#DejaVuSans-6f" x="411.767578"/>
     <use xlink:href="#DejaVuSans-64" x="472.949219"/>
     <use xlink:href="#DejaVuSans-3a" x="536.425781"/>
     <use xlink:href="#DejaVuSans-20" x="570.117188"/>
     <use xlink:href="#DejaVuSans-36" x="601.904297"/>
     <use xlink:href="#DejaVuSans-20" x="665.527344"/>
     <use xlink:href="#DejaVuSans-63" x="697.314453"/>
     <use xlink:href="#DejaVuSans-72" x="752.294922"/>
     <use xlink:href="#DejaVuSans-6f" x="791.158203"/>
     <use xlink:href="#DejaVuSans-73" x="852.339844"/>
     <use xlink:href="#DejaVuSans-73" x="904.439453"/>
     <use xlink:href="#DejaVuSans-69" x="956.539062"/>
     <use xlink:href="#DejaVuSans-6e" x="984.322266"/>
     <use xlink:href="#DejaVuSans-67" x="1047.701172"/>
     <use xlink:href="#DejaVuSans-73" x="1111.177734"/>
    </g>
   </g>
   <g id="text_23">
    <!-- The same period with strong harmonics: many crossings per cycle -->
    <g style="fill: #1a1a1a" transform="translate(10.38125 212.426853) scale(0.11 -0.11)">
     <use xlink:href="#DejaVuSans-54"/>
     <use xlink:href="#DejaVuSans-68" x="61.083984"/>
     <use xlink:href="#DejaVuSans-65" x="124.462891"/>
     <use xlink:href="#DejaVuSans-20" x="185.986328"/>
     <use xlink:href="#DejaVuSans-73" x="217.773438"/>
     <use xlink:href="#DejaVuSans-61" x="269.873047"/>
     <use xlink:href="#DejaVuSans-6d" x="331.152344"/>
     <use xlink:href="#DejaVuSans-65" x="428.564453"/>
     <use xlink:href="#DejaVuSans-20" x="490.087891"/>
     <use xlink:href="#DejaVuSans-70" x="521.875"/>
     <use xlink:href="#DejaVuSans-65" x="585.351562"/>
     <use xlink:href="#DejaVuSans-72" x="646.875"/>
     <use xlink:href="#DejaVuSans-69" x="687.988281"/>
     <use xlink:href="#DejaVuSans-6f" x="715.771484"/>
     <use xlink:href="#DejaVuSans-64" x="776.953125"/>
     <use xlink:href="#DejaVuSans-20" x="840.429688"/>
     <use xlink:href="#DejaVuSans-77" x="872.216797"/>
     <use xlink:href="#DejaVuSans-69" x="954.003906"/>
     <use xlink:href="#DejaVuSans-74" x="981.787109"/>
     <use xlink:href="#DejaVuSans-68" x="1020.996094"/>
     <use xlink:href="#DejaVuSans-20" x="1084.375"/>
     <use xlink:href="#DejaVuSans-73" x="1116.162109"/>
     <use xlink:href="#DejaVuSans-74" x="1168.261719"/>
     <use xlink:href="#DejaVuSans-72" x="1207.470703"/>
     <use xlink:href="#DejaVuSans-6f" x="1246.333984"/>
     <use xlink:href="#DejaVuSans-6e" x="1307.515625"/>
     <use xlink:href="#DejaVuSans-67" x="1370.894531"/>
     <use xlink:href="#DejaVuSans-20" x="1434.371094"/>
     <use xlink:href="#DejaVuSans-68" x="1466.158203"/>
     <use xlink:href="#DejaVuSans-61" x="1529.537109"/>
     <use xlink:href="#DejaVuSans-72" x="1590.816406"/>
     <use xlink:href="#DejaVuSans-6d" x="1630.179688"/>
     <use xlink:href="#DejaVuSans-6f" x="1727.591797"/>
     <use xlink:href="#DejaVuSans-6e" x="1788.773438"/>
     <use xlink:href="#DejaVuSans-69" x="1852.152344"/>
     <use xlink:href="#DejaVuSans-63" x="1879.935547"/>
     <use xlink:href="#DejaVuSans-73" x="1934.916016"/>
     <use xlink:href="#DejaVuSans-3a" x="1987.015625"/>
     <use xlink:href="#DejaVuSans-20" x="2020.707031"/>
     <use xlink:href="#DejaVuSans-6d" x="2052.494141"/>
     <use xlink:href="#DejaVuSans-61" x="2149.90625"/>
     <use xlink:href="#DejaVuSans-6e" x="2211.185547"/>
     <use xlink:href="#DejaVuSans-79" x="2274.564453"/>
     <use xlink:href="#DejaVuSans-20" x="2333.744141"/>
     <use xlink:href="#DejaVuSans-63" x="2365.53125"/>
     <use xlink:href="#DejaVuSans-72" x="2420.511719"/>
     <use xlink:href="#DejaVuSans-6f" x="2459.375"/>
     <use xlink:href="#DejaVuSans-73" x="2520.556641"/>
     <use xlink:href="#DejaVuSans-73" x="2572.65625"/>
     <use xlink:href="#DejaVuSans-69" x="2624.755859"/>
     <use xlink:href="#DejaVuSans-6e" x="2652.539062"/>
     <use xlink:href="#DejaVuSans-67" x="2715.917969"/>
     <use xlink:href="#DejaVuSans-73" x="2779.394531"/>
     <use xlink:href="#DejaVuSans-20" x="2831.494141"/>
     <use xlink:href="#DejaVuSans-70" x="2863.28125"/>
     <use xlink:href="#DejaVuSans-65" x="2926.757812"/>
     <use xlink:href="#DejaVuSans-72" x="2988.28125"/>
     <use xlink:href="#DejaVuSans-20" x="3029.394531"/>
     <use xlink:href="#DejaVuSans-63" x="3061.181641"/>
     <use xlink:href="#DejaVuSans-79" x="3116.162109"/>
     <use xlink:href="#DejaVuSans-63" x="3175.341797"/>
     <use xlink:href="#DejaVuSans-6c" x="3230.322266"/>
     <use xlink:href="#DejaVuSans-65" x="3258.105469"/>
    </g>
   </g>
  </g>
 </g>
 <defs>
  <clipPath id="p861bc1edb0">
   <rect x="10.38125" y="21.558281" width="558" height="135.771429"/>
  </clipPath>
  <clipPath id="pc451de7eaf">
   <rect x="10.38125" y="218.426853" width="558" height="135.771429"/>
  </clipPath>
 </defs>
</svg>
