<?xml version="1.0" encoding="utf-8" standalone="no"?>
<!DOCTYPE svg PUBLIC "-//W3C//DTD SVG 1.1//EN"
  "http://www.w3.org/Graphics/SVG/1.1/DTD/svg11.dtd">
<svg xmlns:xlink="http://www.w3.org/1999/xlink" width="712.73625pt" height="424.042031pt" viewBox="0 0 712.73625 424.042031" xmlns="http://www.w3.org/2000/svg" version="1.1">
 <metadata>
  <rdf:RDF xmlns:dc="http://purl.org/dc/elements/1.1/" xmlns:cc="http://creativecommons.org/ns#" xmlns:rdf="http://www.w3.org/1999/02/22-rdf-syntax-ns#">
   <cc:Work>
    <dc:type rdf:resource="http://purl.org/dc/dcmitype/StillImage"/>
    <dc:date>2026-07-21T07:49:23.458048</dc:date>
    <dc:format>image/svg+xml</dc:format>
    <dc:creator>
     <cc:Agent>
      <dc:title>Matplotlib v3.10.9, https://matplotlib.org/</dc:title>
     </cc:Agent>
    </dc:creator>
   </cc:Work>
  </rdf:RDF>
 </metadata>
 <defs>
  <style type="text/css">*{stroke-linejoin: round; stroke-linecap: butt}</style>
 </defs>
 <g id="figure_1">
  <g id="patch_1">
   <path d="M 0 424.042031 
L 712.73625 424.042031 
L 712.73625 0 
L 0 0 
z
" style="fill: #ffffff"/>
  </g>
  <g id="axes_1">
   <g id="patch_2">
    <path d="M 53.12875 385.517969 
L 699.17375 385.517969 
L 699.17375 23.077969 
L 53.12875 23.077969 
z
" style="fill: #ffffff"/>
   </g>
   <g id="matplotlib.axis_1">
    <g id="xtick_1">
     <g id="line2d_1">
      <path d="M 53.12875 385.517969 
L 53.12875 23.077969 
" clip-path="url(#p1be2416016)" style="fill: none; stroke-dasharray: 2.96,1.28; stroke-dashoffset: 0; stroke: #b0b0b0; stroke-opacity: 0.7; stroke-width: 0.8"/>
     </g>
     <g id="line2d_2">
      <defs>
       <path id="mdb897d329d" d="M 0 0 
L 0 3.5 
" style="stroke: #333333; stroke-width: 0.8"/>
      </defs>
      <g>
       <use xlink:href="#mdb897d329d" x="53.12875" y="385.517969" style="fill: #333333; stroke: #333333; stroke-width: 0.8"/>
      </g>
     </g>
     <g id="text_1">
      <!-- 0 -->
      <g style="fill: #333333" transform="translate(49.9475 400.116406) scale(0.1 -0.1)">
       <defs>
        <path id="DejaVuSans-30" d="M 2034 4250 
Q 1547 4250 1301 3770 
Q 1056 3291 1056 2328 
Q 1056 1369 1301 889 
Q 1547 409 2034 409 
Q 2525 409 2770 889 
Q 3016 1369 3016 2328 
Q 3016 3291 2770 3770 
Q 2525 4250 2034 4250 
z
M 2034 4750 
Q 2819 4750 3233 4129 
Q 3647 3509 3647 2328 
Q 3647 1150 3233 529 
Q 2819 -91 2034 -91 
Q 1250 -91 836 529 
Q 422 1150 422 2328 
Q 422 3509 836 4129 
Q 1250 4750 2034 4750 
z
" transform="scale(0.015625)"/>
       </defs>
       <use xlink:href="#DejaVuSans-30"/>
      </g>
     </g>
    </g>
    <g id="xtick_2">
     <g id="line2d_3">
      <path d="M 160.802917 385.517969 
L 160.802917 23.077969 
" clip-path="url(#p1be2416016)" style="fill: none; stroke-dasharray: 2.96,1.28; stroke-dashoffset: 0; stroke: #b0b0b0; stroke-opacity: 0.7; stroke-width: 0.8"/>
     </g>
     <g id="line2d_4">
      <g>
       <use xlink:href="#mdb897d329d" x="160.802917" y="385.517969" style="fill: #333333; stroke: #333333; stroke-width: 0.8"/>
      </g>
     </g>
     <g id="text_2">
      <!-- 10 -->
      <g style="fill: #333333" transform="translate(154.440417 400.116406) scale(0.1 -0.1)">
       <defs>
        <path id="DejaVuSans-31" d="M 794 531 
L 1825 531 
L 1825 4091 
L 703 3866 
L 703 4441 
L 1819 4666 
L 2450 4666 
L 2450 531 
L 3481 531 
L 3481 0 
L 794 0 
L 794 531 
z
" transform="scale(0.015625)"/>
       </defs>
       <use xlink:href="#DejaVuSans-31"/>
       <use xlink:href="#DejaVuSans-30" transform="translate(63.623047 0)"/>
      </g>
     </g>
    </g>
    <g id="xtick_3">
     <g id="line2d_5">
      <path d="M 268.477083 385.517969 
L 268.477083 23.077969 
" clip-path="url(#p1be2416016)" style="fill: none; stroke-dasharray: 2.96,1.28; stroke-dashoffset: 0; stroke: #b0b0b0; stroke-opacity: 0.7; stroke-width: 0.8"/>
     </g>
     <g id="line2d_6">
      <g>
       <use xlink:href="#mdb897d329d" x="268.477083" y="385.517969" style="fill: #333333; stroke: #333333; stroke-width: 0.8"/>
      </g>
     </g>
     <g id="text_3">
      <!-- 20 -->
      <g style="fill: #333333" transform="translate(262.114583 400.116406) scale(0.1 -0.1)">
       <defs>
        <path id="DejaVuSans-32" d="M 1228 531 
L 3431 531 
L 3431 0 
L 469 0 
L 469 531 
Q 828 903 1448 1529 
Q 2069 2156 2228 2338 
Q 2531 2678 2651 2914 
Q 2772 3150 2772 3378 
Q 2772 3750 2511 3984 
Q 2250 4219 1831 4219 
Q 1534 4219 1204 4116 
Q 875 4013 500 3803 
L 500 4441 
Q 881 4594 1212 4672 
Q 1544 4750 1819 4750 
Q 2544 4750 2975 4387 
Q 3406 4025 3406 3419 
Q 3406 3131 3298 2873 
Q 3191 2616 2906 2266 
Q 2828 2175 2409 1742 
Q 1991 1309 1228 531 
z
" transform="scale(0.015625)"/>
       </defs>
       <use xlink:href="#DejaVuSans-32"/>
       <use xlink:href="#DejaVuSans-30" transform="translate(63.623047 0)"/>
      </g>
     </g>
    </g>
    <g id="xtick_4">
     <g id="line2d_7">
      <path d="M 376.15125 385.517969 
L 376.15125 23.077969 
" clip-path="url(#p1be2416016)" style="fill: none; stroke-dasharray: 2.96,1.28; stroke-dashoffset: 0; stroke: #b0b0b0; stroke-opacity: 0.7; stroke-width: 0.8"/>
     </g>
     <g id="line2d_8">
      <g>
       <use xlink:href="#mdb897d329d" x="376.15125" y="385.517969" style="fill: #333333; stroke: #333333; stroke-width: 0.8"/>
      </g>
     </g>
     <g id="text_4">
      <!-- 30 -->
      <g style="fill: #333333" transform="translate(369.78875 400.116406) scale(0.1 -0.1)">
       <defs>
        <path id="DejaVuSans-33" d="M 2597 2516 
Q 3050 2419 3304 2112 
Q 3559 1806 3559 1356 
Q 3559 666 3084 287 
Q 2609 -91 1734 -91 
Q 1441 -91 1130 -33 
Q 819 25 488 141 
L 488 750 
Q 750 597 1062 519 
Q 1375 441 1716 441 
Q 2309 441 2620 675 
Q 2931 909 2931 1356 
Q 2931 1769 2642 2001 
Q 2353 2234 1838 2234 
L 1294 2234 
L 1294 2753 
L 1863 2753 
Q 2328 2753 2575 2939 
Q 2822 3125 2822 3475 
Q 2822 3834 2567 4026 
Q 2313 4219 1838 4219 
Q 1578 4219 1281 4162 
Q 984 4106 628 3988 
L 628 4550 
Q 988 4650 1302 4700 
Q 1616 4750 1894 4750 
Q 2613 4750 3031 4423 
Q 3450 4097 3450 3541 
Q 3450 3153 3228 2886 
Q 3006 2619 2597 2516 
z
" transform="scale(0.015625)"/>
       </defs>
       <use xlink:href="#DejaVuSans-33"/>
       <use xlink:href="#DejaVuSans-30" transform="translate(63.623047 0)"/>
      </g>
     </g>
    </g>
    <g id="xtick_5">
     <g id="line2d_9">
      <path d="M 483.825417 385.517969 
L 483.825417 23.077969 
" clip-path="url(#p1be2416016)" style="fill: none; stroke-dasharray: 2.96,1.28; stroke-dashoffset: 0; stroke: #b0b0b0; stroke-opacity: 0.7; stroke-width: 0.8"/>
     </g>
     <g id="line2d_10">
      <g>
       <use xlink:href="#mdb897d329d" x="483.825417" y="385.517969" style="fill: #333333; stroke: #333333; stroke-width: 0.8"/>
      </g>
     </g>
     <g id="text_5">
      <!-- 40 -->
      <g style="fill: #333333" transform="translate(477.462917 400.116406) scale(0.1 -0.1)">
       <defs>
        <path id="DejaVuSans-34" d="M 2419 4116 
L 825 1625 
L 2419 1625 
L 2419 4116 
z
M 2253 4666 
L 3047 4666 
L 3047 1625 
L 3713 1625 
L 3713 1100 
L 3047 1100 
L 3047 0 
L 2419 0 
L 2419 1100 
L 313 1100 
L 313 1709 
L 2253 4666 
z
" transform="scale(0.015625)"/>
       </defs>
       <use xlink:href="#DejaVuSans-34"/>
       <use xlink:href="#DejaVuSans-30" transform="translate(63.623047 0)"/>
      </g>
     </g>
    </g>
    <g id="xtick_6">
     <g id="line2d_11">
      <path d="M 591.499583 385.517969 
L 591.499583 23.077969 
" clip-path="url(#p1be2416016)" style="fill: none; stroke-dasharray: 2.96,1.28; stroke-dashoffset: 0; stroke: #b0b0b0; stroke-opacity: 0.7; stroke-width: 0.8"/>
     </g>
     <g id="line2d_12">
      <g>
       <use xlink:href="#mdb897d329d" x="591.499583" y="385.517969" style="fill: #333333; stroke: #333333; stroke-width: 0.8"/>
      </g>
     </g>
     <g id="text_6">
      <!-- 50 -->
      <g style="fill: #333333" transform="translate(585.137083 400.116406) scale(0.1 -0.1)">
       <defs>
        <path id="DejaVuSans-35" d="M 691 4666 
L 3169 4666 
L 3169 4134 
L 1269 4134 
L 1269 2991 
Q 1406 3038 1543 3061 
Q 1681 3084 1819 3084 
Q 2600 3084 3056 2656 
Q 3513 2228 3513 1497 
Q 3513 744 3044 326 
Q 2575 -91 1722 -91 
Q 1428 -91 1123 -41 
Q 819 9 494 109 
L 494 744 
Q 775 591 1075 516 
Q 1375 441 1709 441 
Q 2250 441 2565 725 
Q 2881 1009 2881 1497 
Q 2881 1984 2565 2268 
Q 2250 2553 1709 2553 
Q 1456 2553 1204 2497 
Q 953 2441 691 2322 
L 691 4666 
z
" transform="scale(0.015625)"/>
       </defs>
       <use xlink:href="#DejaVuSans-35"/>
       <use xlink:href="#DejaVuSans-30" transform="translate(63.623047 0)"/>
      </g>
     </g>
    </g>
    <g id="xtick_7">
     <g id="line2d_13">
      <path d="M 699.17375 385.517969 
L 699.17375 23.077969 
" clip-path="url(#p1be2416016)" style="fill: none; stroke-dasharray: 2.96,1.28; stroke-dashoffset: 0; stroke: #b0b0b0; stroke-opacity: 0.7; stroke-width: 0.8"/>
     </g>
     <g id="line2d_14">
      <g>
       <use xlink:href="#mdb897d329d" x="699.17375" y="385.517969" style="fill: #333333; stroke: #333333; stroke-width: 0.8"/>
      </g>
     </g>
     <g id="text_7">
      <!-- 60 -->
      <g style="fill: #333333" transform="translate(692.81125 400.116406) scale(0.1 -0.1)">
       <defs>
        <path id="DejaVuSans-36" d="M 2113 2584 
Q 1688 2584 1439 2293 
Q 1191 2003 1191 1497 
Q 1191 994 1439 701 
Q 1688 409 2113 409 
Q 2538 409 2786 701 
Q 3034 994 3034 1497 
Q 3034 2003 2786 2293 
Q 2538 2584 2113 2584 
z
M 3366 4563 
L 3366 3988 
Q 3128 4100 2886 4159 
Q 2644 4219 2406 4219 
Q 1781 4219 1451 3797 
Q 1122 3375 1075 2522 
Q 1259 2794 1537 2939 
Q 1816 3084 2150 3084 
Q 2853 3084 3261 2657 
Q 3669 2231 3669 1497 
Q 3669 778 3244 343 
Q 2819 -91 2113 -91 
Q 1303 -91 875 529 
Q 447 1150 447 2328 
Q 447 3434 972 4092 
Q 1497 4750 2381 4750 
Q 2619 4750 2861 4703 
Q 3103 4656 3366 4563 
z
" transform="scale(0.015625)"/>
       </defs>
       <use xlink:href="#DejaVuSans-36"/>
       <use xlink:href="#DejaVuSans-30" transform="translate(63.623047 0)"/>
      </g>
     </g>
    </g>
    <g id="text_8">
     <!-- Time (ms) -->
     <g style="fill: #333333" transform="translate(348.432109 414.554375) scale(0.11 -0.11)">
      <defs>
       <path id="DejaVuSans-54" d="M -19 4666 
L 3928 4666 
L 3928 4134 
L 2272 4134 
L 2272 0 
L 1638 0 
L 1638 4134 
L -19 4134 
L -19 4666 
z
" transform="scale(0.015625)"/>
       <path id="DejaVuSans-69" d="M 603 3500 
L 1178 3500 
L 1178 0 
L 603 0 
L 603 3500 
z
M 603 4863 
L 1178 4863 
L 1178 4134 
L 603 4134 
L 603 4863 
z
" transform="scale(0.015625)"/>
       <path id="DejaVuSans-6d" d="M 3328 2828 
Q 3544 3216 3844 3400 
Q 4144 3584 4550 3584 
Q 5097 3584 5394 3201 
Q 5691 2819 5691 2113 
L 5691 0 
L 5113 0 
L 5113 2094 
Q 5113 2597 4934 2840 
Q 4756 3084 4391 3084 
Q 3944 3084 3684 2787 
Q 3425 2491 3425 1978 
L 3425 0 
L 2847 0 
L 2847 2094 
Q 2847 2600 2669 2842 
Q 2491 3084 2119 3084 
Q 1678 3084 1418 2786 
Q 1159 2488 1159 1978 
L 1159 0 
L 581 0 
L 581 3500 
L 1159 3500 
L 1159 2956 
Q 1356 3278 1631 3431 
Q 1906 3584 2284 3584 
Q 2666 3584 2933 3390 
Q 3200 3197 3328 2828 
z
" transform="scale(0.015625)"/>
       <path id="DejaVuSans-65" d="M 3597 1894 
L 3597 1613 
L 953 1613 
Q 991 1019 1311 708 
Q 1631 397 2203 397 
Q 2534 397 2845 478 
Q 3156 559 3463 722 
L 3463 178 
Q 3153 47 2828 -22 
Q 2503 -91 2169 -91 
Q 1331 -91 842 396 
Q 353 884 353 1716 
Q 353 2575 817 3079 
Q 1281 3584 2069 3584 
Q 2775 3584 3186 3129 
Q 3597 2675 3597 1894 
z
M 3022 2063 
Q 3016 2534 2758 2815 
Q 2500 3097 2075 3097 
Q 1594 3097 1305 2825 
Q 1016 2553 972 2059 
L 3022 2063 
z
" transform="scale(0.015625)"/>
       <path id="DejaVuSans-20" transform="scale(0.015625)"/>
       <path id="DejaVuSans-28" d="M 1984 4856 
Q 1566 4138 1362 3434 
Q 1159 2731 1159 2009 
Q 1159 1288 1364 580 
Q 1569 -128 1984 -844 
L 1484 -844 
Q 1016 -109 783 600 
Q 550 1309 550 2009 
Q 550 2706 781 3412 
Q 1013 4119 1484 4856 
L 1984 4856 
z
" transform="scale(0.015625)"/>
       <path id="DejaVuSans-73" d="M 2834 3397 
L 2834 2853 
Q 2591 2978 2328 3040 
Q 2066 3103 1784 3103 
Q 1356 3103 1142 2972 
Q 928 2841 928 2578 
Q 928 2378 1081 2264 
Q 1234 2150 1697 2047 
L 1894 2003 
Q 2506 1872 2764 1633 
Q 3022 1394 3022 966 
Q 3022 478 2636 193 
Q 2250 -91 1575 -91 
Q 1294 -91 989 -36 
Q 684 19 347 128 
L 347 722 
Q 666 556 975 473 
Q 1284 391 1588 391 
Q 1994 391 2212 530 
Q 2431 669 2431 922 
Q 2431 1156 2273 1281 
Q 2116 1406 1581 1522 
L 1381 1569 
Q 847 1681 609 1914 
Q 372 2147 372 2553 
Q 372 3047 722 3315 
Q 1072 3584 1716 3584 
Q 2034 3584 2315 3537 
Q 2597 3491 2834 3397 
z
" transform="scale(0.015625)"/>
       <path id="DejaVuSans-29" d="M 513 4856 
L 1013 4856 
Q 1481 4119 1714 3412 
Q 1947 2706 1947 2009 
Q 1947 1309 1714 600 
Q 1481 -109 1013 -844 
L 513 -844 
Q 928 -128 1133 580 
Q 1338 1288 1338 2009 
Q 1338 2731 1133 3434 
Q 928 4138 513 4856 
z
" transform="scale(0.015625)"/>
      </defs>
      <use xlink:href="#DejaVuSans-54"/>
      <use xlink:href="#DejaVuSans-69" transform="translate(57.958984 0)"/>
      <use xlink:href="#DejaVuSans-6d" transform="translate(85.742188 0)"/>
      <use xlink:href="#DejaVuSans-65" transform="translate(183.154297 0)"/>
      <use xlink:href="#DejaVuSans-20" transform="translate(244.677734 0)"/>
      <use xlink:href="#DejaVuSans-28" transform="translate(276.464844 0)"/>
      <use xlink:href="#DejaVuSans-6d" transform="translate(315.478516 0)"/>
      <use xlink:href="#DejaVuSans-73" transform="translate(412.890625 0)"/>
      <use xlink:href="#DejaVuSans-29" transform="translate(464.990234 0)"/>
     </g>
    </g>
   </g>
   <g id="matplotlib.axis_2">
    <g id="ytick_1">
     <g id="line2d_15">
      <path d="M 53.12875 349.273969 
L 699.17375 349.273969 
" clip-path="url(#p1be2416016)" style="fill: none; stroke-dasharray: 2.96,1.28; stroke-dashoffset: 0; stroke: #b0b0b0; stroke-opacity: 0.7; stroke-width: 0.8"/>
     </g>
     <g id="line2d_16">
      <defs>
       <path id="m8c526cf3fe" d="M 0 0 
L -3.5 0 
" style="stroke: #333333; stroke-width: 0.8"/>
      </defs>
      <g>
       <use xlink:href="#m8c526cf3fe" x="53.12875" y="349.273969" style="fill: #333333; stroke: #333333; stroke-width: 0.8"/>
      </g>
     </g>
     <g id="text_9">
      <!-- −0.6 -->
      <g style="fill: #333333" transform="translate(21.845938 353.073187) scale(0.1 -0.1)">
       <defs>
        <path id="DejaVuSans-2212" d="M 678 2272 
L 4684 2272 
L 4684 1741 
L 678 1741 
L 678 2272 
z
" transform="scale(0.015625)"/>
        <path id="DejaVuSans-2e" d="M 684 794 
L 1344 794 
L 1344 0 
L 684 0 
L 684 794 
z
" transform="scale(0.015625)"/>
       </defs>
       <use xlink:href="#DejaVuSans-2212"/>
       <use xlink:href="#DejaVuSans-30" transform="translate(83.789062 0)"/>
       <use xlink:href="#DejaVuSans-2e" transform="translate(147.412109 0)"/>
       <use xlink:href="#DejaVuSans-36" transform="translate(179.199219 0)"/>
      </g>
     </g>
    </g>
    <g id="ytick_2">
     <g id="line2d_17">
      <path d="M 53.12875 300.948635 
L 699.17375 300.948635 
" clip-path="url(#p1be2416016)" style="fill: none; stroke-dasharray: 2.96,1.28; stroke-dashoffset: 0; stroke: #b0b0b0; stroke-opacity: 0.7; stroke-width: 0.8"/>
     </g>
     <g id="line2d_18">
      <g>
       <use xlink:href="#m8c526cf3fe" x="53.12875" y="300.948635" style="fill: #333333; stroke: #333333; stroke-width: 0.8"/>
      </g>
     </g>
     <g id="text_10">
      <!-- −0.4 -->
      <g style="fill: #333333" transform="translate(21.845938 304.747854) scale(0.1 -0.1)">
       <use xlink:href="#DejaVuSans-2212"/>
       <use xlink:href="#DejaVuSans-30" transform="translate(83.789062 0)"/>
       <use xlink:href="#DejaVuSans-2e" transform="translate(147.412109 0)"/>
       <use xlink:href="#DejaVuSans-34" transform="translate(179.199219 0)"/>
      </g>
     </g>
    </g>
    <g id="ytick_3">
     <g id="line2d_19">
      <path d="M 53.12875 252.623302 
L 699.17375 252.623302 
" clip-path="url(#p1be2416016)" style="fill: none; stroke-dasharray: 2.96,1.28; stroke-dashoffset: 0; stroke: #b0b0b0; stroke-opacity: 0.7; stroke-width: 0.8"/>
     </g>
     <g id="line2d_20">
      <g>
       <use xlink:href="#m8c526cf3fe" x="53.12875" y="252.623302" style="fill: #333333; stroke: #333333; stroke-width: 0.8"/>
      </g>
     </g>
     <g id="text_11">
      <!-- −0.2 -->
      <g style="fill: #333333" transform="translate(21.845938 256.422521) scale(0.1 -0.1)">
       <use xlink:href="#DejaVuSans-2212"/>
       <use xlink:href="#DejaVuSans-30" transform="translate(83.789062 0)"/>
       <use xlink:href="#DejaVuSans-2e" transform="translate(147.412109 0)"/>
       <use xlink:href="#DejaVuSans-32" transform="translate(179.199219 0)"/>
      </g>
     </g>
    </g>
    <g id="ytick_4">
     <g id="line2d_21">
      <path d="M 53.12875 204.297969 
L 699.17375 204.297969 
" clip-path="url(#p1be2416016)" style="fill: none; stroke-dasharray: 2.96,1.28; stroke-dashoffset: 0; stroke: #b0b0b0; stroke-opacity: 0.7; stroke-width: 0.8"/>
     </g>
     <g id="line2d_22">
      <g>
       <use xlink:href="#m8c526cf3fe" x="53.12875" y="204.297969" style="fill: #333333; stroke: #333333; stroke-width: 0.8"/>
      </g>
     </g>
     <g id="text_12">
      <!-- 0.0 -->
      <g style="fill: #333333" transform="translate(30.225625 208.097187) scale(0.1 -0.1)">
       <use xlink:href="#DejaVuSans-30"/>
       <use xlink:href="#DejaVuSans-2e" transform="translate(63.623047 0)"/>
       <use xlink:href="#DejaVuSans-30" transform="translate(95.410156 0)"/>
      </g>
     </g>
    </g>
    <g id="ytick_5">
     <g id="line2d_23">
      <path d="M 53.12875 155.972635 
L 699.17375 155.972635 
" clip-path="url(#p1be2416016)" style="fill: none; stroke-dasharray: 2.96,1.28; stroke-dashoffset: 0; stroke: #b0b0b0; stroke-opacity: 0.7; stroke-width: 0.8"/>
     </g>
     <g id="line2d_24">
      <g>
       <use xlink:href="#m8c526cf3fe" x="53.12875" y="155.972635" style="fill: #333333; stroke: #333333; stroke-width: 0.8"/>
      </g>
     </g>
     <g id="text_13">
      <!-- 0.2 -->
      <g style="fill: #333333" transform="translate(30.225625 159.771854) scale(0.1 -0.1)">
       <use xlink:href="#DejaVuSans-30"/>
       <use xlink:href="#DejaVuSans-2e" transform="translate(63.623047 0)"/>
       <use xlink:href="#DejaVuSans-32" transform="translate(95.410156 0)"/>
      </g>
     </g>
    </g>
    <g id="ytick_6">
     <g id="line2d_25">
      <path d="M 53.12875 107.647302 
L 699.17375 107.647302 
" clip-path="url(#p1be2416016)" style="fill: none; stroke-dasharray: 2.96,1.28; stroke-dashoffset: 0; stroke: #b0b0b0; stroke-opacity: 0.7; stroke-width: 0.8"/>
     </g>
     <g id="line2d_26">
      <g>
       <use xlink:href="#m8c526cf3fe" x="53.12875" y="107.647302" style="fill: #333333; stroke: #333333; stroke-width: 0.8"/>
      </g>
     </g>
     <g id="text_14">
      <!-- 0.4 -->
      <g style="fill: #333333" transform="translate(30.225625 111.446521) scale(0.1 -0.1)">
       <use xlink:href="#DejaVuSans-30"/>
       <use xlink:href="#DejaVuSans-2e" transform="translate(63.623047 0)"/>
       <use xlink:href="#DejaVuSans-34" transform="translate(95.410156 0)"/>
      </g>
     </g>
    </g>
    <g id="ytick_7">
     <g id="line2d_27">
      <path d="M 53.12875 59.321969 
L 699.17375 59.321969 
" clip-path="url(#p1be2416016)" style="fill: none; stroke-dasharray: 2.96,1.28; stroke-dashoffset: 0; stroke: #b0b0b0; stroke-opacity: 0.7; stroke-width: 0.8"/>
     </g>
     <g id="line2d_28">
      <g>
       <use xlink:href="#m8c526cf3fe" x="53.12875" y="59.321969" style="fill: #333333; stroke: #333333; stroke-width: 0.8"/>
      </g>
     </g>
     <g id="text_15">
      <!-- 0.6 -->
      <g style="fill: #333333" transform="translate(30.225625 63.121187) scale(0.1 -0.1)">
       <use xlink:href="#DejaVuSans-30"/>
       <use xlink:href="#DejaVuSans-2e" transform="translate(63.623047 0)"/>
       <use xlink:href="#DejaVuSans-36" transform="translate(95.410156 0)"/>
      </g>
     </g>
    </g>
    <g id="text_16">
     <!-- Amplitude -->
     <g style="fill: #333333" transform="translate(15.558281 232.482891) rotate(-90) scale(0.11 -0.11)">
      <defs>
       <path id="DejaVuSans-41" d="M 2188 4044 
L 1331 1722 
L 3047 1722 
L 2188 4044 
z
M 1831 4666 
L 2547 4666 
L 4325 0 
L 3669 0 
L 3244 1197 
L 1141 1197 
L 716 0 
L 50 0 
L 1831 4666 
z
" transform="scale(0.015625)"/>
       <path id="DejaVuSans-70" d="M 1159 525 
L 1159 -1331 
L 581 -1331 
L 581 3500 
L 1159 3500 
L 1159 2969 
Q 1341 3281 1617 3432 
Q 1894 3584 2278 3584 
Q 2916 3584 3314 3078 
Q 3713 2572 3713 1747 
Q 3713 922 3314 415 
Q 2916 -91 2278 -91 
Q 1894 -91 1617 61 
Q 1341 213 1159 525 
z
M 3116 1747 
Q 3116 2381 2855 2742 
Q 2594 3103 2138 3103 
Q 1681 3103 1420 2742 
Q 1159 2381 1159 1747 
Q 1159 1113 1420 752 
Q 1681 391 2138 391 
Q 2594 391 2855 752 
Q 3116 1113 3116 1747 
z
" transform="scale(0.015625)"/>
       <path id="DejaVuSans-6c" d="M 603 4863 
L 1178 4863 
L 1178 0 
L 603 0 
L 603 4863 
z
" transform="scale(0.015625)"/>
       <path id="DejaVuSans-74" d="M 1172 4494 
L 1172 3500 
L 2356 3500 
L 2356 3053 
L 1172 3053 
L 1172 1153 
Q 1172 725 1289 603 
Q 1406 481 1766 481 
L 2356 481 
L 2356 0 
L 1766 0 
Q 1100 0 847 248 
Q 594 497 594 1153 
L 594 3053 
L 172 3053 
L 172 3500 
L 594 3500 
L 594 4494 
L 1172 4494 
z
" transform="scale(0.015625)"/>
       <path id="DejaVuSans-75" d="M 544 1381 
L 544 3500 
L 1119 3500 
L 1119 1403 
Q 1119 906 1312 657 
Q 1506 409 1894 409 
Q 2359 409 2629 706 
Q 2900 1003 2900 1516 
L 2900 3500 
L 3475 3500 
L 3475 0 
L 2900 0 
L 2900 538 
Q 2691 219 2414 64 
Q 2138 -91 1772 -91 
Q 1169 -91 856 284 
Q 544 659 544 1381 
z
M 1991 3584 
L 1991 3584 
z
" transform="scale(0.015625)"/>
       <path id="DejaVuSans-64" d="M 2906 2969 
L 2906 4863 
L 3481 4863 
L 3481 0 
L 2906 0 
L 2906 525 
Q 2725 213 2448 61 
Q 2172 -91 1784 -91 
Q 1150 -91 751 415 
Q 353 922 353 1747 
Q 353 2572 751 3078 
Q 1150 3584 1784 3584 
Q 2172 3584 2448 3432 
Q 2725 3281 2906 2969 
z
M 947 1747 
Q 947 1113 1208 752 
Q 1469 391 1925 391 
Q 2381 391 2643 752 
Q 2906 1113 2906 1747 
Q 2906 2381 2643 2742 
Q 2381 3103 1925 3103 
Q 1469 3103 1208 2742 
Q 947 2381 947 1747 
z
" transform="scale(0.015625)"/>
      </defs>
      <use xlink:href="#DejaVuSans-41"/>
      <use xlink:href="#DejaVuSans-6d" transform="translate(68.408203 0)"/>
      <use xlink:href="#DejaVuSans-70" transform="translate(165.820312 0)"/>
      <use xlink:href="#DejaVuSans-6c" transform="translate(229.296875 0)"/>
      <use xlink:href="#DejaVuSans-69" transform="translate(257.080078 0)"/>
      <use xlink:href="#DejaVuSans-74" transform="translate(284.863281 0)"/>
      <use xlink:href="#DejaVuSans-75" transform="translate(324.072266 0)"/>
      <use xlink:href="#DejaVuSans-64" transform="translate(387.451172 0)"/>
      <use xlink:href="#DejaVuSans-65" transform="translate(450.927734 0)"/>
     </g>
    </g>
   </g>
   <g id="line2d_29">
    <path d="M 53.12875 203.870285 
L 55.570341 211.826681 
L 56.302818 214.680365 
L 56.546978 215.336638 
L 56.791137 215.616845 
L 57.523614 217.076869 
L 57.767773 217.165356 
L 58.011932 217.445562 
L 58.256091 217.36445 
L 58.744409 217.511927 
L 58.988569 217.357076 
L 59.232728 217.334954 
L 60.209364 215.911799 
L 60.453523 215.616845 
L 60.941841 214.569757 
L 61.43016 213.080237 
L 63.139273 205.352431 
L 63.383433 204.733027 
L 63.627592 203.693312 
L 63.871751 203.354115 
L 64.604228 200.935488 
L 65.092546 199.652437 
L 65.336705 199.394351 
L 65.580865 198.738078 
L 66.069183 198.369385 
L 66.557501 198.996163 
L 67.778296 201.503276 
L 69.243251 204.268473 
L 69.731569 206.32578 
L 70.708206 211.030304 
L 71.196524 212.423963 
L 71.684842 212.770535 
L 71.929001 212.51245 
L 72.17316 212.600936 
L 72.41732 212.460833 
L 72.661479 212.763161 
L 72.905638 212.80003 
L 73.393956 213.22034 
L 73.638115 213.3162 
L 73.882274 213.714389 
L 74.126433 213.345696 
L 74.370592 213.404687 
L 74.614752 212.829526 
L 74.858911 212.940133 
L 75.10307 212.630431 
L 75.347229 212.741039 
L 75.591388 212.254364 
L 75.835547 212.092139 
L 76.812183 210.233927 
L 77.544661 208.265106 
L 78.032979 207.07054 
L 78.277138 206.495379 
L 78.765456 206.097191 
L 79.009615 206.045574 
L 79.497934 206.605987 
L 79.986252 208.088133 
L 80.230411 208.69279 
L 80.47457 209.607148 
L 80.718729 210.005337 
L 81.207047 211.516978 
L 81.939525 213.824997 
L 82.672002 215.45462 
L 83.16032 216.022407 
L 83.404479 215.963416 
L 83.648639 216.280492 
L 84.136957 216.597568 
L 84.625275 217.224347 
L 85.601911 218.219818 
L 85.84607 218.190322 
L 86.09023 218.794979 
L 86.334389 218.986699 
L 86.578548 219.502869 
L 87.066866 219.591356 
L 87.555184 219.134176 
L 88.043502 218.190322 
L 88.287662 218.020723 
L 88.531821 217.703647 
L 88.77598 217.65203 
L 89.020139 217.416067 
L 89.508457 217.644657 
L 89.752616 218.190322 
L 91.705889 224.465478 
L 91.950048 225.011143 
L 92.926685 228.602214 
L 93.415003 231.197812 
L 93.903321 232.318639 
L 94.14748 232.738949 
L 94.635798 234.597162 
L 95.856594 241.4696 
L 96.344912 246.321601 
L 97.077389 258.363115 
L 97.565708 266.201529 
L 98.054026 263.31835 
L 98.786503 295.077568 
L 99.030662 285.32195 
L 99.518981 235.769606 
L 100.251458 156.825054 
L 100.739776 122.300638 
L 100.983935 111.83713 
L 101.716413 94.980484 
L 101.960572 94.751895 
L 102.204731 93.690059 
L 102.693049 85.903262 
L 102.937208 87.665614 
L 103.181367 92.097305 
L 103.425526 93.778545 
L 103.669685 90.73314 
L 104.158004 80.542465 
L 104.402163 81.139748 
L 105.13464 96.632229 
L 105.378799 96.941931 
L 105.622958 92.952673 
L 106.111276 75.550361 
L 106.599595 61.22295 
L 106.843754 60.256974 
L 107.087913 63.907035 
L 107.576231 82.651389 
L 109.773663 186.032916 
L 110.261981 197.337044 
L 110.994459 204.755148 
L 111.726936 208.257732 
L 112.215254 210.233927 
L 112.459413 210.492012 
L 112.703572 210.543629 
L 113.191891 209.548158 
L 113.43605 209.179465 
L 113.680209 208.265106 
L 114.168527 205.492534 
L 114.656845 203.073908 
L 115.389323 199.025658 
L 115.633482 198.221908 
L 115.877641 198.362011 
L 116.1218 198.162917 
L 116.365959 197.794224 
L 116.610118 197.167445 
L 116.854277 197.219062 
L 117.098436 197.101081 
L 118.075073 200.507804 
L 118.319232 200.736394 
L 118.563391 201.164078 
L 118.80755 202.041567 
L 119.784187 207.321252 
L 120.028346 207.409738 
L 120.516664 208.265106 
L 121.004982 209.747252 
L 121.4933 210.713228 
L 121.981618 212.232243 
L 122.469937 213.286705 
L 122.958255 213.9651 
L 123.202414 214.687738 
L 123.446573 216.110894 
L 123.690732 216.796663 
L 123.934891 217.829003 
L 124.17905 218.10921 
L 124.42321 218.676997 
L 124.667369 218.846596 
L 124.911528 219.303775 
L 125.399846 221.073502 
L 125.644005 221.560177 
L 125.888164 221.530681 
L 126.132323 221.102997 
L 126.620642 219.79045 
L 126.864801 219.56186 
L 127.10896 218.994073 
L 127.597278 216.767167 
L 128.573914 215.425125 
L 128.818074 215.13017 
L 129.550551 216.509082 
L 129.79471 216.509082 
L 130.038869 216.081398 
L 130.283028 215.366134 
L 130.527187 215.594723 
L 131.015505 216.907271 
L 131.503824 217.275964 
L 131.747983 217.703647 
L 131.992142 217.386571 
L 132.48046 216.250997 
L 132.724619 215.904425 
L 134.189574 210.860705 
L 134.433733 210.860705 
L 134.677892 210.37403 
L 134.922051 209.290072 
L 135.16621 209.570279 
L 135.654529 211.516978 
L 136.142847 211.030304 
L 136.631165 210.315039 
L 136.875324 210.37403 
L 137.119483 210.912322 
L 137.363642 210.823835 
L 137.607801 211.170407 
L 137.851961 210.831209 
L 138.09612 210.14544 
L 138.828597 205.610516 
L 139.072756 205.669507 
L 139.316915 205.042729 
L 139.561074 203.442601 
L 139.805233 202.756832 
L 140.049392 202.697841 
L 140.293552 202.329148 
L 140.78187 203.073908 
L 141.026029 202.896935 
L 141.270188 202.181671 
L 141.514347 202.159549 
L 141.758506 202.358643 
L 142.002665 201.901464 
L 142.246824 202.071063 
L 142.490984 202.557738 
L 142.979302 204.467568 
L 143.46762 206.259416 
L 143.711779 206.274163 
L 143.955938 205.263944 
L 144.200097 205.035355 
L 144.444256 205.271318 
L 144.932575 203.892406 
L 145.420893 206.288911 
L 145.665052 205.861227 
L 145.909211 205.153337 
L 146.15337 204.932121 
L 146.397529 204.865756 
L 146.641688 204.556054 
L 146.885848 204.725653 
L 147.374166 206.524875 
L 147.618325 206.355276 
L 147.862484 205.957087 
L 148.106643 206.32578 
L 148.83912 207.955404 
L 149.571598 210.8902 
L 149.815757 211.369501 
L 150.059916 211.428492 
L 150.548234 209.319568 
L 150.792393 210.034832 
L 151.036552 211.376875 
L 151.280711 211.052425 
L 151.524871 210.197057 
L 152.013189 211.885671 
L 152.257348 211.657082 
L 152.501507 210.034832 
L 152.745666 209.776747 
L 153.478143 212.910638 
L 153.966462 213.714389 
L 154.210621 215.078553 
L 154.698939 219.104681 
L 154.943098 219.392262 
L 155.431416 218.418912 
L 155.675575 219.023569 
L 155.919735 219.104681 
L 156.652212 217.585666 
L 157.14053 218.735988 
L 157.628848 220.387733 
L 157.873007 219.901058 
L 158.605485 216.759793 
L 158.849644 216.796663 
L 159.093803 217.770012 
L 159.337962 217.541423 
L 159.582121 216.309988 
L 159.82628 214.282176 
L 160.070439 213.684893 
L 160.314598 215.484115 
L 160.558758 218.367295 
L 160.802917 219.340645 
L 161.047076 216.442717 
L 161.291235 211.974158 
L 161.535394 209.769373 
L 161.779553 210.344535 
L 162.023712 211.63496 
L 162.267871 211.745568 
L 163.000349 205.52203 
L 163.244508 206.237294 
L 163.732826 209.260577 
L 163.976985 209.997963 
L 164.221144 209.061483 
L 164.953622 203.236133 
L 165.197781 203.619574 
L 165.44194 204.615045 
L 165.686099 205.035355 
L 165.930258 204.098875 
L 166.418576 199.674558 
L 166.662735 198.362011 
L 166.906894 198.826564 
L 167.395213 200.618412 
L 167.639372 200.647908 
L 168.12769 200.190728 
L 168.371849 200.566795 
L 169.104326 203.553209 
L 169.348485 203.988267 
L 169.592645 204.696157 
L 169.836804 206.126686 
L 170.325122 210.322413 
L 170.569281 209.916851 
L 171.301758 199.018285 
L 171.545917 199.674558 
L 172.034236 206.893568 
L 172.278395 208.058638 
L 172.522554 205.352431 
L 173.010872 197.595129 
L 173.255031 196.879865 
L 173.49919 198.538984 
L 173.987509 205.551525 
L 174.231668 207.291756 
L 174.475827 207.321252 
L 175.208304 204.069379 
L 175.452463 203.722808 
L 175.696622 204.526558 
L 176.18494 207.520346 
L 176.673259 210.823835 
L 176.917418 210.683732 
L 177.161577 208.4642 
L 177.894054 197.595129 
L 178.138213 196.282582 
L 178.382372 196.363695 
L 179.11485 200.161233 
L 179.603168 200.338206 
L 179.847327 199.224753 
L 180.091486 198.656965 
L 180.335645 197.307549 
L 180.579804 196.879865 
L 180.823964 196.739762 
L 181.068123 197.314923 
L 182.044759 204.386455 
L 182.288918 204.592923 
L 182.777236 203.472096 
L 183.021396 203.472096 
L 183.265555 204.017762 
L 183.509714 204.120996 
L 183.753873 203.295124 
L 184.242191 200.02113 
L 184.48635 198.133421 
L 184.730509 197.248558 
L 184.974668 198.509488 
L 185.218827 202.21854 
L 185.951305 216.885149 
L 186.195464 217.733143 
L 186.439623 215.056431 
L 187.1721 199.763044 
L 187.416259 199.217379 
L 187.660419 202.815823 
L 188.637055 227.628864 
L 188.881214 229.20687 
L 189.125373 227.260171 
L 189.613691 217.725769 
L 190.10201 208.914006 
L 190.590328 204.814139 
L 191.078646 203.346741 
L 191.322805 203.449975 
L 191.566964 204.467568 
L 192.055283 208.486322 
L 192.543601 213.485799 
L 192.78776 214.451775 
L 193.031919 212.947507 
L 193.520237 205.610516 
L 194.008555 198.730704 
L 194.496874 194.822558 
L 194.985192 192.322819 
L 195.229351 191.946752 
L 195.717669 190.685822 
L 195.961828 191.113506 
L 196.450146 196.562789 
L 196.938465 203.037039 
L 197.182624 204.814139 
L 197.426783 205.721124 
L 197.670942 205.861227 
L 197.915101 204.585549 
L 198.891738 193.657488 
L 199.135897 192.743129 
L 199.380056 192.544035 
L 199.624215 193.148691 
L 199.868374 194.29164 
L 200.112533 193.856582 
L 200.356692 192.28595 
L 201.333329 180.620502 
L 201.577488 179.964229 
L 201.821647 182.021536 
L 202.065806 186.726059 
L 202.554124 204.895251 
L 203.042442 224.096785 
L 203.530761 235.35667 
L 203.77492 236.934676 
L 204.019079 234.766761 
L 204.263238 228.948785 
L 204.751556 208.574808 
L 205.484033 173.829176 
L 205.972352 160.674209 
L 206.216511 158.026993 
L 206.46067 157.024148 
L 206.704829 157.282233 
L 206.948988 158.675893 
L 208.169784 169.235261 
L 208.902261 172.664106 
L 209.390579 176.62387 
L 209.878897 182.854782 
L 210.611375 196.540667 
L 213.785443 260.781742 
L 214.51792 279.07629 
L 215.494557 295.962431 
L 215.982875 308.91093 
L 217.936148 372.893919 
L 218.180307 375.128199 
L 218.424466 374.014746 
L 218.668625 369.398709 
L 218.912784 361.575043 
L 219.401103 335.663297 
L 220.377739 274.733086 
L 221.110216 242.612549 
L 221.354375 236.448001 
L 221.598535 233.306737 
L 221.842694 232.480864 
L 222.086853 233.793411 
L 222.575171 241.985771 
L 224.040126 277.763743 
L 224.284285 280.410959 
L 224.528444 281.782497 
L 224.772603 282.43877 
L 225.016762 282.15119 
L 225.260921 280.551062 
L 226.237558 269.718861 
L 226.481717 266.349006 
L 227.458353 247.634148 
L 227.946671 243.696506 
L 228.43499 234.221095 
L 229.411626 214.024091 
L 230.144103 196.053993 
L 230.632422 181.47587 
L 231.364899 149.266847 
L 232.097376 119.373215 
L 232.829854 91.758107 
L 233.562331 65.2712 
L 234.050649 56.88712 
L 234.538967 51.349351 
L 234.783126 50.361253 
L 235.027286 50.493983 
L 235.515604 54.888804 
L 236.248081 65.448172 
L 236.736399 75.749456 
L 239.17799 150.063223 
L 239.666309 157.820525 
L 240.154627 164.670841 
L 240.887104 178.59269 
L 241.131263 180.480399 
L 241.375422 181.210411 
L 241.619581 181.446375 
L 242.352059 183.865001 
L 242.596218 183.702776 
L 242.840377 182.980138 
L 243.084536 182.788417 
L 243.328695 183.754393 
L 244.305332 193.7386 
L 245.526127 194.512856 
L 246.502764 192.28595 
L 246.991082 193.340412 
L 247.235241 193.347786 
L 247.723559 190.199147 
L 247.967718 188.031232 
L 248.211877 187.057882 
L 248.456036 187.551931 
L 249.188514 192.175342 
L 249.676832 193.797591 
L 249.920991 195.397719 
L 250.897628 205.094346 
L 251.141787 205.662133 
L 251.385946 205.411422 
L 251.630105 204.637166 
L 251.874264 204.932121 
L 252.118423 205.979209 
L 252.606741 209.776747 
L 252.8509 210.8902 
L 253.09506 210.742723 
L 253.339219 209.717756 
L 254.071696 204.386455 
L 254.315855 204.017762 
L 254.560014 204.983738 
L 255.292491 210.8902 
L 255.536651 211.288389 
L 256.024969 211.598091 
L 256.757446 212.763161 
L 257.001605 213.345696 
L 257.245764 213.404687 
L 257.734083 212.291234 
L 257.978242 211.487483 
L 258.222401 211.804559 
L 258.46656 212.549319 
L 258.954878 215.425125 
L 259.199037 216.10352 
L 259.443196 216.361605 
L 259.687355 215.108049 
L 259.931515 212.777909 
L 260.419833 205.750619 
L 260.663992 203.840789 
L 260.908151 203.523713 
L 261.396469 205.610516 
L 262.373106 210.433021 
L 262.617265 210.919696 
L 263.105583 210.823835 
L 263.349742 211.140911 
L 264.326378 214.459149 
L 264.570538 214.134699 
L 264.814697 212.940133 
L 265.547174 206.414267 
L 266.035492 204.755148 
L 266.279651 204.87313 
L 266.52381 204.526558 
L 266.76797 203.89978 
L 267.744606 197.13795 
L 267.988765 197.587756 
L 268.965402 206.864072 
L 269.209561 207.350747 
L 269.45372 206.841951 
L 270.430356 200.788011 
L 270.674515 201.075592 
L 271.162834 203.073908 
L 271.406993 202.786327 
L 271.651152 200.847002 
L 272.13947 195.198625 
L 272.383629 193.716479 
L 272.627788 193.768096 
L 273.604425 199.357482 
L 273.848584 199.136266 
L 274.092743 198.391506 
L 274.336902 198.052309 
L 274.581061 198.538984 
L 275.069379 201.392668 
L 275.557697 204.415951 
L 275.801857 204.696157 
L 276.046016 203.641695 
L 276.778493 197.049464 
L 277.022652 196.850369 
L 277.51097 201.812978 
L 277.999289 207.380243 
L 278.243448 208.228236 
L 278.487607 207.210644 
L 279.464243 197.676242 
L 279.708402 197.514017 
L 279.952561 198.30302 
L 280.44088 201.643379 
L 280.929198 205.492534 
L 281.173357 206.288911 
L 281.417516 206.296285 
L 281.905834 203.531087 
L 282.149993 202.727336 
L 282.394152 202.874814 
L 282.882471 206.488005 
L 283.859107 217.246468 
L 284.103266 218.957204 
L 284.347425 219.56186 
L 284.591584 219.134176 
L 284.835744 217.423441 
L 285.81238 207.837422 
L 286.056539 207.380243 
L 286.300698 208.147124 
L 286.789016 211.708699 
L 287.277335 215.653714 
L 287.521494 216.3911 
L 287.765653 215.712705 
L 288.49813 210.226553 
L 288.742289 209.747252 
L 288.986448 210.860705 
L 289.474767 216.61969 
L 289.963085 221.840383 
L 290.207244 222.725247 
L 290.451403 222.806359 
L 290.695562 221.589672 
L 290.939721 219.672468 
L 291.428039 212.999124 
L 292.160517 203.236133 
L 292.648835 199.394351 
L 292.892994 198.251403 
L 293.137153 198.022813 
L 293.381312 198.369385 
L 294.11379 201.422163 
L 294.602108 204.755148 
L 295.090426 207.549841 
L 295.334585 207.350747 
L 295.578744 205.868601 
L 296.311222 199.645063 
L 296.555381 199.018285 
L 296.79954 199.055154 
L 297.043699 199.770418 
L 298.020335 204.415951 
L 298.264495 204.408577 
L 298.508654 203.324619 
L 298.996972 198.959294 
L 299.973608 187.610922 
L 300.217767 186.984144 
L 300.461926 188.289317 
L 300.950245 197.705737 
L 301.438563 208.98037 
L 301.682722 212.453459 
L 301.926881 214.282176 
L 302.17104 214.112577 
L 302.415199 212.659927 
L 302.903518 206.78296 
L 303.635995 197.189567 
L 303.880154 195.714795 
L 304.124313 195.139634 
L 304.368472 195.626309 
L 304.612631 196.769257 
L 305.589268 203.700686 
L 305.833427 204.755148 
L 306.077586 204.526558 
L 306.321745 203.361488 
L 307.054222 197.985944 
L 307.298382 197.794224 
L 307.542541 198.450497 
L 308.763336 205.263944 
L 309.007495 205.463039 
L 309.251654 204.238978 
L 309.739973 196.62178 
L 310.228291 188.576898 
L 310.47245 187.124247 
L 310.716609 187.293846 
L 311.204927 190.346624 
L 311.693245 196.142479 
L 312.669882 213.426808 
L 312.914041 213.743884 
L 313.1582 212.033149 
L 313.646518 203.523713 
L 314.378996 189.11519 
L 314.623155 186.180393 
L 314.867314 185.443007 
L 315.111473 187.094752 
L 315.599791 197.078959 
L 316.332269 214.650869 
L 317.064746 227.208554 
L 317.308905 229.914761 
L 317.553064 230.578408 
L 317.797223 229.457581 
L 318.285541 221.729775 
L 319.018019 207.579337 
L 319.750496 198.221908 
L 320.238814 194.085172 
L 320.482973 193.495263 
L 320.727132 193.716479 
L 320.971292 195.088017 
L 321.215451 197.13795 
L 321.703769 204.895251 
L 322.436246 218.62538 
L 322.680405 220.962894 
L 322.924564 222.017356 
L 323.168724 221.619167 
L 323.412883 220.476219 
L 323.901201 215.87493 
L 324.389519 208.265106 
L 325.366156 190.383494 
L 325.854474 185.302904 
L 326.342792 182.618818 
L 326.586951 182.758922 
L 326.83111 183.393074 
L 327.807747 188.068101 
L 328.051906 188.805487 
L 328.296065 188.717001 
L 328.784383 188.009111 
L 329.028542 188.576898 
L 329.272701 190.036922 
L 330.005179 199.844157 
L 331.714292 225.379836 
L 331.958451 225.608426 
L 332.202611 223.927186 
L 332.690929 216.826158 
L 333.423406 201.215695 
L 334.888361 164.729832 
L 335.13252 162.325954 
L 335.376679 161.957261 
L 335.620838 163.645875 
L 336.841634 177.906921 
L 337.085793 179.079365 
L 337.329952 179.706143 
L 337.81827 179.507049 
L 338.306588 177.707827 
L 339.771543 167.413918 
L 340.50402 164.560234 
L 340.748179 164.641346 
L 340.992338 166.720775 
L 341.236498 170.636295 
L 341.724816 184.978454 
L 342.945611 235.880214 
L 344.654725 303.262553 
L 345.143043 318.467454 
L 345.631361 327.832257 
L 345.875521 330.221388 
L 346.11968 331.393831 
L 346.363839 331.202111 
L 346.607998 329.683096 
L 346.852157 327.426694 
L 348.317112 306.086742 
L 349.293748 292.850662 
L 350.514544 280.787026 
L 350.758703 279.865293 
L 351.002862 279.961153 
L 351.247021 280.46995 
L 351.49118 280.698539 
L 351.735339 279.865293 
L 351.979498 277.68263 
L 352.711976 269.173195 
L 352.956135 268.480052 
L 353.200294 269.254307 
L 354.17693 277.645761 
L 354.421089 277.387676 
L 354.909408 272.218599 
L 355.397726 267.97863 
L 355.641885 268.634903 
L 355.886044 270.655341 
L 356.374362 276.61342 
L 356.618521 278.501129 
L 356.86268 278.781335 
L 357.10684 278.353652 
L 357.350999 277.616265 
L 357.595158 277.387676 
L 357.839317 277.527779 
L 358.083476 277.048478 
L 358.327635 275.278752 
L 358.571794 271.252624 
L 359.060112 257.448757 
L 360.280908 210.204431 
L 361.013385 173.460483 
L 362.234181 99.190959 
L 362.722499 82.71038 
L 363.210817 73.264465 
L 363.699135 67.586592 
L 363.943295 65.794744 
L 364.187454 65.072105 
L 364.431613 65.160592 
L 364.675772 66.222428 
L 365.16409 70.322294 
L 366.140727 78.138586 
L 366.384886 80.28438 
L 366.873204 87.193687 
L 367.605681 103.187591 
L 368.338159 118.480978 
L 369.558954 136.119253 
L 370.535591 157.42971 
L 371.023909 164.014568 
L 373.221341 185.133305 
L 373.4655 185.524119 
L 373.709659 185.354521 
L 374.197977 183.15711 
L 374.686295 180.391912 
L 374.930454 179.389067 
L 375.174614 179.167852 
L 375.418773 179.735639 
L 375.662932 180.937578 
L 376.639568 188.495785 
L 377.616205 190.803804 
L 378.837 196.651275 
L 379.325318 199.534455 
L 379.569478 199.962139 
L 379.813637 199.018285 
L 380.301955 194.284266 
L 380.790273 189.697725 
L 381.034432 189.093068 
L 381.278591 189.808333 
L 381.52275 192.027865 
L 382.011069 199.327987 
L 382.499387 207.092662 
L 382.743546 209.378559 
L 382.987705 210.174936 
L 383.231864 209.946346 
L 383.476023 209.518662 
L 383.720182 209.496541 
L 384.696819 212.003653 
L 384.940978 211.76769 
L 385.917614 209.776747 
L 386.405933 207.321252 
L 386.894251 204.415951 
L 387.13841 204.179987 
L 387.382569 204.607671 
L 388.115046 208.943501 
L 388.847524 213.714389 
L 389.091683 214.997441 
L 389.335842 215.285021 
L 389.580001 214.997441 
L 390.312478 211.775063 
L 390.556637 211.31051 
L 391.289115 212.143757 
L 391.533274 211.996279 
L 392.265751 211.31051 
L 392.754069 211.627586 
L 392.998228 211.428492 
L 393.486547 209.95372 
L 394.219024 206.26679 
L 394.707342 203.752303 
L 394.951501 203.582704 
L 395.19566 204.379081 
L 396.416456 213.375191 
L 396.660615 212.851647 
L 397.148933 209.946346 
L 397.637252 206.524875 
L 397.881411 204.983738 
L 398.369729 203.840789 
L 398.858047 203.302498 
L 399.346365 202.786327 
L 399.590524 202.756832 
L 399.834683 202.86744 
L 400.078843 202.786327 
L 400.323002 202.071063 
L 400.81132 197.88271 
L 401.543797 190.464606 
L 401.787956 189.889445 
L 402.032115 190.973403 
L 402.276275 193.797591 
L 403.252911 210.322413 
L 403.49707 212.05527 
L 403.741229 212.593562 
L 403.985388 211.775063 
L 404.229547 210.285544 
L 404.717866 205.182832 
L 405.694502 192.485044 
L 405.938661 191.172497 
L 406.18282 191.460077 
L 406.426979 192.80212 
L 407.159457 199.04778 
L 407.403616 199.851531 
L 407.647775 199.667184 
L 408.136093 197.425531 
L 408.380252 195.884394 
L 408.86857 194.99953 
L 409.11273 196.10561 
L 409.356889 197.941701 
L 409.845207 205.131215 
L 410.333525 212.999124 
L 410.577684 215.189161 
L 410.821843 216.140389 
L 411.066002 215.108049 
L 411.310162 213.397313 
L 412.042639 203.413105 
L 412.530957 196.90936 
L 412.775116 194.822558 
L 413.019275 194.173658 
L 413.263434 194.652959 
L 413.751753 199.674558 
L 414.728389 214.621374 
L 414.972548 216.737672 
L 415.216707 216.995757 
L 415.460866 216.590194 
L 415.949185 215.144918 
L 416.193344 215.653714 
L 416.437503 216.767167 
L 416.925821 220.011666 
L 417.16998 221.014511 
L 417.414139 221.27997 
L 417.658298 220.7638 
L 418.146617 218.367295 
L 418.634935 213.824997 
L 419.367412 204.54868 
L 419.611571 202.786327 
L 419.85573 202.21854 
L 420.099889 202.874814 
L 420.588208 207.43186 
L 421.320685 217.755264 
L 421.809003 220.985015 
L 422.053162 220.645818 
L 422.297321 219.325897 
L 422.78564 214.252681 
L 423.518117 202.329148 
L 424.006435 194.970035 
L 424.250594 193.052831 
L 424.494753 192.853737 
L 424.738913 193.996685 
L 425.227231 199.313239 
L 425.959708 208.117629 
L 426.203867 209.946346 
L 426.448026 210.37403 
L 426.692185 209.806243 
L 427.180504 204.725653 
L 427.912981 195.847524 
L 428.401299 192.521913 
L 428.645458 191.511694 
L 428.889617 191.113506 
L 429.133776 191.069263 
L 429.622095 192.772625 
L 430.110413 196.540667 
L 431.575368 214.112577 
L 431.819527 214.739355 
L 432.063686 213.972474 
L 432.307845 211.716073 
L 432.796163 203.818668 
L 433.52864 190.693196 
L 433.7728 188.318813 
L 434.016959 187.382332 
L 434.261118 188.001737 
L 434.749436 191.887761 
L 435.970231 204.865756 
L 436.702709 214.48127 
L 436.946868 216.472213 
L 437.191027 216.966261 
L 437.435186 215.712705 
L 437.923504 208.921379 
L 439.1443 185.929682 
L 439.632618 181.048186 
L 439.876777 180.900709 
L 440.120936 181.925675 
L 440.609255 188.746497 
L 441.341732 200.102242 
L 441.585891 202.019446 
L 441.83005 202.211166 
L 442.074209 202.012072 
L 442.318368 201.237817 
L 442.562527 201.156704 
L 442.806687 201.901464 
L 443.295005 205.411422 
L 443.783323 208.427331 
L 444.027482 208.744407 
L 444.271641 208.456826 
L 444.5158 207.977525 
L 444.759959 208.007021 
L 445.004118 208.412583 
L 445.980755 212.114261 
L 446.224914 211.76769 
L 446.469073 210.462516 
L 446.957391 205.868601 
L 447.44571 201.038722 
L 447.934028 198.85606 
L 448.178187 198.959294 
L 448.422346 199.268996 
L 448.666505 200.220224 
L 449.154823 203.553209 
L 449.643142 209.688261 
L 450.863937 228.543223 
L 451.108096 230.519417 
L 451.352255 231.455898 
L 451.596414 230.88811 
L 451.840574 229.523946 
L 452.328892 224.236888 
L 452.81721 215.572602 
L 454.282165 179.484928 
L 454.526324 177.530854 
L 454.770483 176.845085 
L 455.014642 177.309639 
L 455.50296 179.676648 
L 456.235437 185.494624 
L 456.723756 191.143001 
L 458.432869 215.285021 
L 458.677029 216.450091 
L 458.921188 216.796663 
L 459.165347 216.133015 
L 459.409506 214.967945 
L 459.897824 209.887355 
L 460.874461 196.931482 
L 461.362779 193.406777 
L 461.606938 192.713634 
L 461.851097 192.890606 
L 462.095256 194.166284 
L 462.583574 199.335361 
L 463.071892 204.64454 
L 463.316052 206.119312 
L 463.560211 206.664978 
L 464.048529 206.0382 
L 464.536847 204.556054 
L 464.781006 203.19189 
L 465.269324 198.39888 
L 465.757643 190.37612 
L 466.245961 179.071991 
L 467.710916 142.505016 
L 468.199234 137.453922 
L 468.443393 136.967247 
L 468.687552 138.021709 
L 468.931711 139.931539 
L 469.664188 150.203327 
L 470.396666 164.184167 
L 471.129143 184.698247 
L 473.082416 250.576318 
L 474.303211 282.527257 
L 474.79153 289.805257 
L 475.035689 291.766704 
L 475.524007 293.307841 
L 475.768166 293.595422 
L 476.012325 294.104218 
L 476.500643 296.331124 
L 477.721439 306.145732 
L 477.965598 307.008474 
L 478.209757 307.377167 
L 478.453916 306.831501 
L 478.698075 305.231374 
L 479.186394 299.442893 
L 479.918871 289.289087 
L 480.651348 282.777968 
L 481.139666 278.014454 
L 481.872144 267.853274 
L 482.360462 262.212271 
L 482.604621 261.297912 
L 482.84878 262.15328 
L 483.092939 264.35069 
L 485.046212 292.201762 
L 485.77869 304.516109 
L 486.267008 308.49062 
L 486.755326 310.393076 
L 486.999485 310.842882 
L 487.243644 310.651161 
L 487.487803 309.169015 
L 487.731962 306.005629 
L 488.220281 293.307841 
L 488.952758 261.010331 
L 489.929394 216.538577 
L 492.370985 126.614347 
L 493.347622 97.023044 
L 494.080099 79.996799 
L 494.568417 73.493054 
L 494.812577 71.951917 
L 495.056736 71.185036 
L 495.300895 70.985942 
L 495.545054 71.465243 
L 495.789213 72.431218 
L 496.277531 77.792015 
L 496.765849 87.761475 
L 497.986645 115.288097 
L 498.474963 121.791842 
L 499.4516 129.608134 
L 500.428236 137.601399 
L 500.916554 144.584445 
L 502.13735 167.436039 
L 502.625668 169.950526 
L 502.869827 170.14962 
L 503.358145 171.344185 
L 503.846464 174.426459 
L 505.311418 186.467974 
L 505.555577 186.445852 
L 505.799736 185.730588 
L 507.020532 177.597219 
L 507.264691 177.508733 
L 507.50885 178.59269 
L 507.997168 183.761767 
L 508.729646 193.686983 
L 509.217964 197.447652 
L 509.462123 197.764728 
L 509.706282 197.396035 
L 510.682919 193.377281 
L 510.927078 193.827087 
L 511.171237 195.080643 
L 511.659555 200.161233 
L 512.147873 206.0382 
L 512.392032 208.058638 
L 512.636191 209.083604 
L 512.880351 209.009866 
L 513.12451 207.866917 
L 513.612828 203.354115 
L 514.345305 196.680771 
L 514.589464 196.341573 
L 514.833623 197.285427 
L 515.321942 203.184516 
L 516.054419 213.050741 
L 516.298578 214.687738 
L 516.542737 215.506237 
L 516.786896 215.189161 
L 517.275214 213.456304 
L 517.763533 211.605465 
L 518.007692 211.170407 
L 518.251851 211.059799 
L 518.984328 212.51245 
L 519.472646 213.426808 
L 519.716806 213.345696 
L 519.960965 212.711544 
L 520.449283 209.496541 
L 521.18176 204.268473 
L 521.425919 203.405732 
L 521.670078 203.464722 
L 521.914238 203.818668 
L 522.402556 206.377397 
L 522.890874 211.494857 
L 523.86751 223.809204 
L 524.11167 225.040639 
L 524.355829 224.472852 
L 524.599988 222.209076 
L 525.332465 210.801714 
L 525.820783 205.52203 
L 526.064942 204.445446 
L 526.79742 203.870285 
L 527.285738 202.35127 
L 528.262374 198.332515 
L 528.506533 197.934327 
L 528.750693 198.391506 
L 528.994852 199.586072 
L 529.48317 204.666662 
L 530.215647 214.252681 
L 530.459806 216.280492 
L 530.703965 217.253842 
L 530.948125 216.966261 
L 531.192284 215.196535 
L 531.680602 208.545312 
L 532.413079 196.90936 
L 532.901397 192.713634 
L 533.145557 191.519068 
L 533.633875 190.405615 
L 533.878034 190.346624 
L 534.122193 190.685822 
L 534.366352 191.946752 
L 534.85467 197.167445 
L 535.587148 209.009866 
L 535.831307 211.664456 
L 536.075466 212.770535 
L 536.319625 211.974158 
L 536.563784 209.835738 
L 537.54042 196.112983 
L 537.78458 194.166284 
L 538.272898 192.625147 
L 538.517057 192.942223 
L 538.761216 193.510011 
L 539.249534 196.710266 
L 540.226171 204.615045 
L 540.47033 205.610516 
L 540.714489 206.008704 
L 540.958648 205.986583 
L 541.446966 205.322935 
L 541.935284 203.89978 
L 542.667762 200.470935 
L 543.15608 199.165762 
L 543.400239 199.534455 
L 543.644398 200.198102 
L 544.132716 204.386455 
L 544.865194 214.967945 
L 545.353512 221.361082 
L 545.597671 223.270912 
L 545.84183 224.015672 
L 546.085989 223.669101 
L 546.330148 222.245946 
L 546.818467 217.13586 
L 548.039262 202.21854 
L 548.283421 200.529926 
L 548.52758 200.220224 
L 548.771739 200.839628 
L 549.015899 202.786327 
L 549.504217 210.056954 
L 550.236694 224.133654 
L 550.480853 226.979964 
L 550.725012 228.469484 
L 550.969171 228.145034 
L 551.45749 223.492128 
L 553.166603 198.251403 
L 553.654922 195.117512 
L 553.899081 194.947913 
L 554.14324 195.205999 
L 554.631558 197.772102 
L 555.364035 203.641695 
L 556.096513 207.439233 
L 556.584831 208.456826 
L 556.82899 208.324097 
L 557.073149 207.778431 
L 557.561467 204.87313 
L 558.538104 197.713111 
L 559.026422 195.995002 
L 559.51474 195.368223 
L 560.003058 196.002375 
L 560.491377 197.646746 
L 560.979695 198.760199 
L 561.223854 198.937172 
L 561.468013 198.738078 
L 561.712172 198.332515 
L 562.444649 195.795907 
L 562.688809 195.795907 
L 562.932968 196.651275 
L 563.177127 198.966667 
L 564.397922 215.22603 
L 564.642081 215.653714 
L 564.886241 214.849963 
L 565.374559 210.433021 
L 567.327832 188.724375 
L 567.81615 186.010794 
L 568.304468 185.125931 
L 568.548627 185.354521 
L 568.792786 185.413512 
L 569.036945 186.187767 
L 569.281104 187.411828 
L 569.525264 189.660855 
L 570.013582 197.049464 
L 570.746059 209.489167 
L 571.234377 213.537416 
L 571.478536 214.19369 
L 571.722696 214.19369 
L 571.966855 213.707015 
L 572.211014 212.851647 
L 572.699332 209.688261 
L 573.18765 204.268473 
L 574.408446 187.264351 
L 574.652605 186.04029 
L 574.896764 185.988673 
L 575.140923 187.065256 
L 575.629241 191.3126 
L 576.11756 197.219062 
L 576.605878 204.526558 
L 578.314991 232.451369 
L 578.559151 234.250591 
L 578.80331 235.16495 
L 579.047469 234.825752 
L 579.291628 233.373101 
L 579.535787 230.858615 
L 580.024105 222.703125 
L 581.244901 197.337044 
L 581.48906 194.770941 
L 581.733219 193.886077 
L 581.977378 194.144163 
L 582.465696 196.71764 
L 582.954015 198.988789 
L 583.198174 199.814661 
L 583.442333 200.013756 
L 583.686492 200.588917 
L 583.930651 200.876497 
L 584.418969 202.130054 
L 584.907287 203.073908 
L 585.151447 203.066534 
L 585.395606 203.184516 
L 586.372242 201.414789 
L 586.86056 199.416473 
L 587.348878 196.363695 
L 588.081356 192.145846 
L 588.325515 191.718162 
L 588.569674 191.887761 
L 588.813833 192.57353 
L 589.302151 195.080643 
L 589.79047 198.826564 
L 590.278788 204.039884 
L 591.011265 214.510766 
L 591.743742 225.379836 
L 592.232061 229.686171 
L 592.47622 230.290828 
L 592.720379 229.796779 
L 592.964538 228.004931 
L 593.452856 221.530681 
L 593.941174 211.627586 
L 594.673652 192.086855 
L 595.894447 157.650926 
L 596.382765 148.610573 
L 596.871084 142.298548 
L 597.359402 138.088074 
L 597.603561 136.827144 
L 597.84772 136.222487 
L 598.091879 136.546937 
L 598.336038 137.712007 
L 598.580197 139.791436 
L 599.068516 146.435284 
L 599.800993 161.559072 
L 601.510107 200.352953 
L 602.730902 227.156937 
L 603.951698 254.536082 
L 606.393289 303.092954 
L 606.881607 308.114553 
L 607.125766 308.313647 
L 607.369925 306.831501 
L 607.858244 299.354407 
L 609.323198 268.059742 
L 609.567357 266.098295 
L 609.811516 265.294544 
L 610.055676 265.781219 
L 611.276471 273.302557 
L 611.52063 273.191949 
L 611.764789 272.712648 
L 612.008948 271.908897 
L 612.253108 271.628691 
L 612.497267 272.255469 
L 612.741426 274.047317 
L 613.229744 281.583403 
L 614.20638 300.784936 
L 614.694699 305.31986 
L 614.938858 306.175228 
L 615.427176 306.455435 
L 615.671335 306.971605 
L 615.915494 307.944954 
L 616.403812 311.882596 
L 616.892131 316.100444 
L 617.13629 317.221271 
L 617.380449 317.324505 
L 617.624608 316.188931 
L 617.868767 313.386864 
L 618.357085 302.89386 
L 618.845403 284.695172 
L 620.798676 195.088017 
L 623.240267 111.261969 
L 623.728586 98.14387 
L 623.972745 93.948144 
L 624.216904 91.89821 
L 624.461063 91.205068 
L 624.949381 93.380356 
L 625.19354 94.774016 
L 625.437699 95.2017 
L 625.681858 94.803512 
L 626.170177 91.064964 
L 626.658495 87.038836 
L 626.902654 86.507918 
L 627.146813 87.672988 
L 627.390972 90.268587 
L 627.87929 98.977117 
L 628.855927 118.716942 
L 629.344245 124.756134 
L 630.320882 133.796487 
L 631.297518 147.946925 
L 632.029995 158.226087 
L 632.518313 162.620908 
L 633.006632 164.810945 
L 633.49495 165.555705 
L 633.739109 165.754799 
L 633.983268 165.754799 
L 634.227427 165.924398 
L 634.715745 166.580671 
L 635.448223 169.869413 
L 635.936541 173.032799 
L 636.424859 177.567724 
L 637.645655 190.236016 
L 637.889814 191.231488 
L 638.133973 191.688667 
L 638.378132 191.82877 
L 639.110609 191.467451 
L 639.354769 191.666545 
L 639.598928 191.651798 
L 639.843087 191.858266 
L 640.087246 191.836144 
L 640.331405 191.600181 
L 640.819723 190.236016 
L 641.308041 188.606393 
L 641.5522 188.097597 
L 642.040519 189.144685 
L 642.528837 192.750503 
L 643.261314 202.048941 
L 644.48211 218.654875 
L 644.726269 219.753581 
L 644.970428 219.783076 
L 645.214587 218.359921 
L 645.702905 212.28386 
L 646.679542 197.455026 
L 647.16786 193.7386 
L 647.412019 193.569001 
L 647.656178 194.026181 
L 648.144496 198.797069 
L 649.609451 220.30662 
L 649.85361 221.847757 
L 650.097769 222.63676 
L 650.341928 223.012827 
L 650.586087 222.695751 
L 650.830247 222.157459 
L 651.318565 218.846596 
L 652.051042 209.975841 
L 652.53936 204.674036 
L 652.783519 203.420479 
L 653.027679 203.073908 
L 653.515997 205.263944 
L 654.492633 212.770535 
L 654.980951 215.594723 
L 655.225111 216.538577 
L 655.46927 216.958888 
L 655.713429 216.649185 
L 655.957588 215.388255 
L 656.445906 210.632115 
L 657.178383 203.044412 
L 657.422543 202.071063 
L 657.666702 201.70237 
L 658.15502 204.12837 
L 659.619974 216.450091 
L 659.864134 216.339483 
L 660.108293 215.078553 
L 660.596611 209.430176 
L 661.573247 194.911044 
L 661.817406 193.281421 
L 662.061566 192.80212 
L 662.305725 193.369907 
L 662.794043 196.334199 
L 665.235634 213.485799 
L 665.479793 213.257209 
L 665.723952 211.834054 
L 666.21227 205.352431 
L 667.188907 189.712472 
L 667.677225 186.180393 
L 667.921384 186.010794 
L 668.165543 186.903031 
L 668.653861 191.666545 
L 669.630498 205.927592 
L 670.118816 209.179465 
L 670.362975 208.972996 
L 670.607134 208.486322 
L 671.583771 203.811294 
L 672.072089 202.469251 
L 672.316248 201.960455 
L 672.804566 201.70237 
L 673.048725 202.048941 
L 673.537044 203.361488 
L 674.51368 206.583866 
L 675.001998 207.181148 
L 675.490317 207.498224 
L 675.734476 207.889039 
L 676.222794 210.027458 
L 676.955271 215.68321 
L 677.443589 219.023569 
L 677.687748 219.960049 
L 677.931908 220.269751 
L 678.176067 219.937927 
L 678.420226 219.362766 
L 679.396862 215.167039 
L 680.373499 211.40637 
L 682.326772 203.125525 
L 682.570931 202.9633 
L 682.81509 203.6122 
L 683.059249 205.204954 
L 684.280044 216.280492 
L 684.524204 216.649185 
L 684.768363 215.992912 
L 685.012522 214.739355 
L 685.744999 207.837422 
L 686.965795 195.427214 
L 687.698272 190.766934 
L 688.18659 188.975086 
L 688.430749 188.643263 
L 688.674908 188.665384 
L 688.919067 189.093068 
L 689.407386 191.725536 
L 690.139863 199.158388 
L 691.604818 217.283337 
L 691.848977 219.016195 
L 692.093136 219.362766 
L 692.337295 218.935082 
L 692.825613 214.171568 
L 693.80225 195.943385 
L 694.290568 187.522436 
L 694.778886 182.530332 
L 695.023045 181.564356 
L 695.267204 181.874058 
L 695.511363 182.648314 
L 696.243841 188.923469 
L 696.976318 198.052309 
L 697.952954 210.683732 
L 698.441273 213.257209 
L 698.685432 213.286705 
L 698.929591 212.460833 
L 698.929591 212.460833 
" clip-path="url(#p1be2416016)" style="fill: none; stroke: #fb8c00; stroke-opacity: 0.6; stroke-width: 1.4; stroke-linecap: square"/>
   </g>
   <g id="line2d_30">
    <path d="M 53.12875 184.940112 
L 53.617068 184.999715 
L 54.105386 185.2859 
L 54.593705 185.899992 
L 55.082023 186.980992 
L 55.570341 188.71532 
L 56.058659 191.332688 
L 56.546978 195.087496 
L 57.279455 203.071103 
L 58.256091 217.415629 
L 59.965205 243.597629 
L 60.697682 251.948411 
L 61.43016 257.908042 
L 61.918478 260.546505 
L 62.406796 262.215547 
L 62.895114 263.080546 
L 63.383433 263.341198 
L 63.871751 263.193109 
L 64.360069 262.593072 
L 64.848387 261.302967 
L 65.336705 259.051001 
L 65.825024 255.602029 
L 66.557501 248.102377 
L 68.754933 222.247843 
L 69.48741 216.26142 
L 70.219888 212.311127 
L 70.708206 210.802993 
L 71.196524 209.990431 
L 71.684842 209.648482 
L 72.17316 209.592245 
L 72.661479 209.723786 
L 73.149797 210.052682 
L 73.638115 210.598254 
L 74.370592 211.831507 
L 75.591388 214.565971 
L 76.812183 217.227909 
L 77.544661 218.309552 
L 78.032979 218.722075 
L 78.521297 218.904064 
L 79.253775 218.854639 
L 80.230411 218.410683 
L 81.207047 217.952397 
L 81.939525 217.84839 
L 82.672002 218.0421 
L 83.16032 218.379695 
L 83.892798 219.22599 
L 84.625275 220.494162 
L 85.357752 222.20046 
L 86.334389 225.107243 
L 87.555184 229.610879 
L 88.77598 233.813113 
L 89.752616 236.277718 
L 91.217571 239.676949 
L 91.950048 241.903027 
L 92.682526 244.740592 
L 93.415003 248.585128 
L 94.14748 253.92354 
L 94.879957 260.811086 
L 95.612435 269.668792 
L 96.344912 281.573688 
L 96.83323 293.175954 
L 97.565708 313.854945 
L 98.542344 322.081481 
L 99.274821 329.579055 
L 99.518981 330.361678 
L 99.76314 330.463544 
L 100.007299 330.105062 
L 100.251458 328.845529 
L 100.495617 323.975569 
L 100.739776 309.111047 
L 100.983935 274.255895 
L 101.716413 89.463641 
L 101.960572 73.106603 
L 102.44889 66.192932 
L 102.937208 62.83663 
L 103.425526 60.899019 
L 104.158004 59.160314 
L 104.890481 58.113197 
L 105.622958 57.41991 
L 106.599595 56.798101 
L 107.82039 56.28808 
L 108.308708 56.204217 
L 108.797027 56.36624 
L 109.041186 56.811091 
L 109.285345 58.085603 
L 109.529504 61.438938 
L 109.773663 69.401066 
L 110.017822 85.443497 
L 111.238618 205.803217 
L 111.726936 228.642629 
L 112.215254 243.116978 
L 112.703572 252.914091 
L 113.191891 259.610911 
L 113.680209 264.159261 
L 114.168527 267.14143 
L 114.656845 268.992226 
L 115.145163 270.060485 
L 115.633482 270.613589 
L 116.1218 270.872855 
L 116.854277 270.97331 
L 117.830914 270.831615 
L 118.80755 270.43275 
L 121.004982 269.379541 
L 122.469937 268.970579 
L 123.934891 268.799245 
L 125.644005 268.857034 
L 127.597278 268.996158 
L 128.573914 268.829886 
L 129.306392 268.474248 
L 130.038869 267.869541 
L 130.771346 266.936928 
L 131.747983 265.232558 
L 132.724619 263.064409 
L 133.457097 260.975532 
L 134.189574 258.27698 
L 135.16621 253.547675 
L 137.119483 243.540982 
L 138.584438 237.315211 
L 139.805233 231.655698 
L 142.246824 219.649319 
L 143.223461 216.085479 
L 143.955938 214.24318 
L 144.932575 212.376826 
L 145.909211 210.933125 
L 147.374166 209.257432 
L 148.594961 208.259328 
L 149.571598 207.758465 
L 150.792393 207.483592 
L 152.501507 207.363709 
L 154.210621 207.40166 
L 155.187257 207.643475 
L 156.163894 208.150928 
L 157.873007 209.356746 
L 159.093803 210.196976 
L 160.070439 210.621741 
L 161.535394 210.897111 
L 162.51203 210.801138 
L 163.244508 210.471931 
L 163.976985 209.847553 
L 164.709462 208.966343 
L 165.44194 207.581563 
L 166.174417 205.787261 
L 166.906894 203.360522 
L 168.860167 196.172504 
L 169.592645 194.33371 
L 170.080963 193.493438 
L 170.81344 192.77407 
L 173.010872 191.186123 
L 174.475827 190.254862 
L 175.696622 189.938775 
L 176.673259 189.869151 
L 178.626532 189.926443 
L 180.579804 189.574337 
L 182.288918 189.159507 
L 183.753873 189.182838 
L 185.951305 189.493877 
L 186.439623 189.918634 
L 187.416259 190.980688 
L 188.148737 191.680406 
L 188.637055 192.681882 
L 189.125373 194.658316 
L 190.10201 199.598243 
L 190.590328 201.000346 
L 191.078646 201.795663 
L 191.811123 202.421542 
L 194.008555 203.698454 
L 194.741033 203.670584 
L 195.229351 203.477705 
L 195.717669 203.056252 
L 196.450146 201.942013 
L 197.182624 200.856398 
L 197.915101 200.203872 
L 198.891738 199.455257 
L 199.624215 198.586122 
L 200.600851 197.110119 
L 201.08917 196.07252 
L 201.577488 194.56484 
L 202.309965 191.912564 
L 202.554124 191.371059 
L 202.798283 191.108037 
L 203.286601 191.088762 
L 203.530761 191.218846 
L 203.77492 191.534583 
L 204.019079 192.146581 
L 204.507397 194.366724 
L 204.995715 196.547906 
L 205.239874 197.069691 
L 205.484033 197.258995 
L 205.972352 197.200001 
L 206.216511 197.005703 
L 206.46067 196.573618 
L 206.704829 195.762961 
L 207.193147 192.540678 
L 209.14642 174.498027 
L 209.634738 172.446639 
L 210.123057 171.402568 
L 210.611375 171.084397 
L 211.099693 171.135658 
L 211.343852 171.283888 
L 211.588011 171.614934 
L 211.83217 172.277202 
L 212.076329 173.516824 
L 212.320488 175.710861 
L 212.564648 179.371419 
L 213.052966 193.182107 
L 213.541284 216.077069 
L 215.006239 294.633789 
L 215.494557 310.553659 
L 215.982875 321.384377 
L 216.715352 331.947865 
L 217.44783 338.665452 
L 218.180307 343.239449 
L 218.912784 346.521998 
L 219.645262 348.959664 
L 219.889421 349.444005 
L 220.13358 349.608275 
L 220.377739 349.569966 
L 220.621898 349.416497 
L 220.866057 348.898354 
L 221.110216 347.410188 
L 221.354375 343.584422 
L 221.598535 335.108601 
L 222.086853 299.764023 
L 222.575171 263.017728 
L 223.063489 243.838252 
L 223.551807 236.101423 
L 224.040126 233.402906 
L 224.528444 232.553858 
L 225.016762 232.310065 
L 226.237558 232.223222 
L 226.970035 232.038312 
L 227.458353 231.524381 
L 227.702512 231.001649 
L 227.946671 230.197023 
L 228.19083 228.983316 
L 228.43499 227.155347 
L 228.679149 224.412955 
L 229.167467 214.782039 
L 229.655785 198.245531 
L 230.388262 162.568297 
L 231.364899 113.260335 
L 231.853217 97.638639 
L 232.341535 86.966077 
L 233.074013 76.51867 
L 233.80649 69.855105 
L 234.538967 65.309192 
L 235.271445 62.042615 
L 236.003922 59.599304 
L 236.980558 57.178387 
L 237.468877 56.220837 
L 238.445513 55.992218 
L 238.933831 56.022333 
L 239.17799 56.146321 
L 239.422149 56.466594 
L 239.666309 57.172799 
L 239.910468 58.589128 
L 240.154627 61.228322 
L 240.398786 65.828502 
L 240.887104 83.978468 
L 242.1079 147.768865 
L 242.596218 163.74301 
L 243.084536 174.872108 
L 243.817013 186.47037 
L 245.281968 205.471005 
L 246.014445 212.519325 
L 246.746923 217.5269 
L 247.4794 221.214129 
L 248.211877 223.677018 
L 248.944355 225.198513 
L 250.409309 227.928897 
L 250.897628 229.234621 
L 251.630105 231.919731 
L 252.606741 236.25254 
L 254.071696 243.444074 
L 254.804173 245.703766 
L 256.757446 250.580628 
L 257.978242 253.036941 
L 258.954878 254.401138 
L 259.931515 255.548122 
L 260.419833 255.888195 
L 261.15231 256.023441 
L 262.128947 255.927502 
L 263.349742 255.581971 
L 265.058856 254.845103 
L 265.791333 254.262982 
L 266.279651 253.605326 
L 266.76797 252.682124 
L 267.256288 251.405802 
L 267.744606 249.585506 
L 269.45372 241.928832 
L 272.627788 231.152599 
L 273.848584 226.179207 
L 274.82522 223.170535 
L 275.557697 221.582863 
L 276.290175 220.580857 
L 277.999289 218.549772 
L 278.731766 218.151706 
L 279.708402 217.646945 
L 281.173357 216.749533 
L 282.882471 216.218932 
L 283.614948 216.155367 
L 284.347425 216.3053 
L 285.079903 216.760042 
L 286.056539 217.408643 
L 290.207244 219.489332 
L 291.916358 220.776446 
L 292.648835 220.783017 
L 293.137153 220.595929 
L 293.625471 220.162295 
L 294.357949 219.009521 
L 296.555381 214.560318 
L 298.752813 208.812064 
L 299.48529 207.048499 
L 299.973608 205.399559 
L 301.438563 199.4575 
L 301.926881 198.837226 
L 302.415199 198.628806 
L 304.368472 198.220782 
L 306.077586 197.576589 
L 310.716609 196.678035 
L 311.693245 195.849804 
L 312.181564 195.526147 
L 312.669882 195.430399 
L 313.402359 195.532908 
L 314.378996 195.708825 
L 315.111473 195.589542 
L 316.088109 195.335055 
L 316.576428 195.402078 
L 317.064746 195.762043 
L 317.308905 196.179568 
L 317.797223 197.837108 
L 319.262178 205.176589 
L 319.750496 206.109505 
L 320.238814 206.465995 
L 320.971292 206.535949 
L 322.680405 206.485762 
L 323.168724 206.708677 
L 323.901201 207.370568 
L 324.633678 208.020675 
L 325.121996 208.168374 
L 325.610315 208.118748 
L 326.098633 207.827053 
L 326.586951 207.041399 
L 327.075269 205.553379 
L 327.807747 202.300211 
L 329.272701 195.622659 
L 329.761019 194.031676 
L 330.249338 193.109367 
L 330.737656 192.757991 
L 331.225974 192.751495 
L 331.714292 193.004393 
L 332.202611 193.815603 
L 332.690929 195.332636 
L 333.423406 197.768375 
L 333.911724 198.57797 
L 334.400043 198.729057 
L 334.888361 198.544452 
L 335.13252 198.237376 
L 335.376679 197.65919 
L 335.864997 195.358461 
L 337.574111 183.909393 
L 338.306588 181.03948 
L 340.748179 172.697048 
L 341.480657 170.435991 
L 341.724816 170.060475 
L 341.968975 169.898927 
L 342.457293 169.962224 
L 342.701452 170.2024 
L 342.945611 170.867815 
L 343.18977 172.556559 
L 343.43393 176.563314 
L 343.678089 185.226636 
L 344.166407 223.378346 
L 344.654725 267.026329 
L 345.143043 295.128717 
L 345.631361 311.947045 
L 346.11968 322.643925 
L 346.852157 332.71502 
L 347.584634 339.006363 
L 348.317112 343.263932 
L 348.80543 345.202638 
L 349.293748 346.212166 
L 349.782066 346.541585 
L 350.270385 346.525224 
L 350.758703 346.223976 
L 351.002862 345.852273 
L 351.247021 345.243425 
L 351.735339 342.984316 
L 352.223657 338.561066 
L 352.711976 330.665072 
L 354.421089 293.956107 
L 356.130203 271.559013 
L 356.86268 265.25509 
L 357.839317 259.791596 
L 358.815953 254.850713 
L 359.304272 250.666551 
L 359.548431 247.138817 
L 359.79259 241.834949 
L 360.280908 222.410176 
L 360.769226 187.062603 
L 361.501704 128.898493 
L 361.990022 106.278146 
L 362.47834 92.293007 
L 362.966658 83.106653 
L 363.699135 74.204589 
L 364.431613 68.504033 
L 365.16409 64.580563 
L 365.896567 61.735073 
L 366.873204 58.987331 
L 367.84984 57.001631 
L 368.582318 55.969938 
L 369.558954 55.904207 
L 370.047272 56.113657 
L 370.291431 56.468697 
L 370.535591 57.209006 
L 370.77975 58.650726 
L 371.023909 61.265249 
L 371.268068 65.619067 
L 371.756386 81.031646 
L 373.709659 163.433808 
L 374.197977 174.686843 
L 374.686295 182.225798 
L 375.174614 187.24218 
L 375.907091 192.414434 
L 378.348682 208.070087 
L 380.790273 224.478431 
L 381.52275 226.723994 
L 382.499387 229.426178 
L 382.987705 231.473616 
L 383.964341 236.88424 
L 385.673455 246.422927 
L 386.405933 249.131967 
L 386.894251 250.297383 
L 387.626728 251.333954 
L 389.82416 253.414988 
L 390.800796 254.185078 
L 391.777433 254.64157 
L 392.754069 254.856168 
L 393.730706 254.882826 
L 394.463183 254.735543 
L 394.951501 254.471557 
L 395.683979 253.766809 
L 397.881411 251.133988 
L 398.613888 249.560202 
L 399.346365 247.378886 
L 400.567161 242.760555 
L 401.299638 239.119665 
L 402.032115 233.94297 
L 402.764593 228.920777 
L 403.252911 227.024123 
L 403.741229 226.069258 
L 404.473707 225.374358 
L 405.450343 224.579737 
L 405.938661 223.882728 
L 406.671139 222.269155 
L 407.647775 220.057142 
L 409.845207 215.925474 
L 410.333525 215.513892 
L 410.821843 215.392808 
L 412.042639 215.4811 
L 413.019275 215.43089 
L 414.972548 214.959087 
L 415.705026 215.115974 
L 416.437503 215.501345 
L 416.925821 215.938656 
L 417.658298 216.990474 
L 418.879094 219.073762 
L 419.367412 219.515457 
L 419.85573 219.688725 
L 421.076526 219.713332 
L 422.053162 219.815495 
L 423.273958 220.048388 
L 424.006435 219.906903 
L 424.494753 219.477293 
L 424.983072 218.596392 
L 426.448026 215.228029 
L 427.912981 212.754429 
L 428.401299 211.381283 
L 429.133776 208.374179 
L 430.354572 202.640046 
L 430.84289 201.193966 
L 431.331208 200.43202 
L 431.819527 200.135603 
L 432.796163 200.018402 
L 433.52864 199.876251 
L 434.016959 199.580882 
L 434.505277 199.040961 
L 435.970231 197.159122 
L 436.45855 196.920252 
L 437.191027 196.923249 
L 437.923504 197.204333 
L 438.655982 197.488042 
L 439.388459 197.454297 
L 439.876777 197.187715 
L 440.365095 196.605966 
L 441.341732 195.191375 
L 442.074209 194.660768 
L 442.806687 194.420692 
L 443.539164 194.370877 
L 444.271641 194.508136 
L 445.004118 194.885874 
L 445.736596 195.598266 
L 446.469073 196.767614 
L 447.44571 198.397191 
L 448.178187 199.083241 
L 449.154823 199.572305 
L 449.887301 199.985057 
L 450.375619 200.525568 
L 450.863937 201.604583 
L 451.352255 203.64614 
L 452.084733 208.569155 
L 452.81721 213.158217 
L 453.305528 214.669769 
L 453.549687 214.966096 
L 454.038005 215.05125 
L 454.282165 214.979326 
L 454.526324 214.791206 
L 454.770483 214.410604 
L 455.014642 213.746483 
L 455.50296 211.281667 
L 456.235437 205.206624 
L 456.967915 199.554238 
L 457.456233 197.388808 
L 457.944551 196.401851 
L 458.432869 196.094073 
L 459.165347 196.117012 
L 459.897824 196.449798 
L 460.874461 196.998475 
L 461.606938 197.130249 
L 464.292688 197.224595 
L 465.757643 197.513449 
L 466.245961 197.434319 
L 466.49012 197.29812 
L 466.734279 197.020979 
L 466.978438 196.485425 
L 467.222597 195.485472 
L 467.466756 193.691997 
L 467.710916 190.659617 
L 468.199234 179.411095 
L 469.17587 148.660966 
L 469.664188 139.83879 
L 470.152507 135.59339 
L 470.396666 134.583142 
L 470.640825 134.047659 
L 470.884984 133.829619 
L 471.373302 133.862758 
L 471.617461 134.06376 
L 471.86162 134.615259 
L 472.105779 135.979978 
L 472.349939 139.124749 
L 472.594098 145.761062 
L 472.838257 158.065439 
L 473.326575 201.394978 
L 474.059052 269.981468 
L 474.547371 296.852011 
L 475.035689 312.907483 
L 475.524007 323.162889 
L 476.256484 332.870001 
L 476.988962 338.966037 
L 477.721439 343.107612 
L 478.453916 346.083944 
L 479.186394 348.273074 
L 479.674712 349.094726 
L 480.16303 349.370022 
L 480.651348 349.346547 
L 481.139666 349.048481 
L 481.383826 348.660878 
L 481.627985 347.961211 
L 481.872144 346.745302 
L 482.116303 344.717461 
L 482.604621 336.891059 
L 484.069576 301.350678 
L 484.557894 295.417046 
L 485.046212 292.037333 
L 485.53453 290.391169 
L 486.022849 289.726607 
L 486.511167 289.504852 
L 487.243644 289.474586 
L 488.220281 289.518858 
L 488.708599 289.305426 
L 488.952758 288.922036 
L 489.196917 288.007929 
L 489.441076 285.856202 
L 489.685235 280.970141 
L 489.929394 270.743496 
L 490.173553 252.231988 
L 491.394349 123.54911 
L 491.882667 102.06963 
L 492.370985 89.278157 
L 492.859304 80.946414 
L 493.591781 72.863453 
L 494.324258 67.658617 
L 495.056736 64.054138 
L 495.789213 61.42517 
L 496.765849 58.872244 
L 497.742486 57.017271 
L 498.474963 55.933573 
L 499.20744 55.783115 
L 500.184077 55.775122 
L 500.672395 55.994264 
L 500.916554 56.281815 
L 501.160713 56.813381 
L 501.404872 57.776794 
L 501.649032 59.48969 
L 501.893191 62.419676 
L 502.381509 73.912299 
L 504.578941 149.598328 
L 505.555577 171.776348 
L 506.288055 183.537211 
L 506.776373 188.51635 
L 507.264691 191.838572 
L 509.217964 202.643689 
L 511.171237 217.86027 
L 512.392032 225.661561 
L 513.856987 236.513574 
L 514.345305 238.574244 
L 514.833623 239.863654 
L 516.298578 243.034486 
L 517.275214 246.341828 
L 518.251851 249.394931 
L 519.228487 251.581921 
L 520.205124 253.203652 
L 520.693442 253.725274 
L 521.18176 254.010071 
L 521.914238 254.132708 
L 524.355829 254.192776 
L 525.576624 254.492937 
L 526.309101 254.385501 
L 526.79742 254.126505 
L 527.285738 253.628614 
L 527.774056 252.776368 
L 528.262374 251.422851 
L 528.994852 248.330175 
L 529.971488 244.025518 
L 530.459806 242.752054 
L 530.948125 241.992957 
L 532.16892 240.577907 
L 532.657238 239.546135 
L 533.145557 237.834957 
L 533.633875 235.279255 
L 535.342988 224.363259 
L 535.831307 223.003167 
L 536.319625 222.344315 
L 538.028739 220.791902 
L 538.761216 219.473417 
L 539.982012 217.041775 
L 540.714489 216.211142 
L 541.446966 215.753096 
L 544.621035 214.387836 
L 545.353512 214.402569 
L 545.84183 214.61265 
L 546.330148 215.088207 
L 547.795103 217.025693 
L 548.283421 217.27322 
L 549.015899 217.353911 
L 550.236694 217.439202 
L 550.725012 217.688013 
L 551.21333 218.191328 
L 552.189967 219.447024 
L 552.678285 219.75416 
L 553.166603 219.809203 
L 553.654922 219.706461 
L 554.14324 219.360581 
L 554.631558 218.676377 
L 555.608194 216.62468 
L 556.584831 214.77372 
L 558.538104 211.738223 
L 559.270581 209.89596 
L 561.956331 202.004631 
L 563.177127 199.416299 
L 563.665445 198.707788 
L 564.153763 198.372215 
L 564.886241 198.309271 
L 567.327832 198.512003 
L 567.81615 198.27005 
L 568.304468 197.776684 
L 568.792786 196.97496 
L 570.257741 193.928701 
L 570.746059 193.5367 
L 571.234377 193.460761 
L 571.966855 193.634829 
L 572.455173 193.980195 
L 573.920128 195.400616 
L 574.408446 195.541845 
L 575.140923 195.497854 
L 577.094196 195.123529 
L 577.582514 195.318067 
L 577.826673 195.564391 
L 578.070832 195.993079 
L 578.314991 196.699701 
L 578.80331 199.392564 
L 579.291628 204.113246 
L 580.268264 214.177418 
L 580.756583 216.513601 
L 581.244901 217.32801 
L 581.733219 217.473826 
L 582.221537 217.404926 
L 582.709855 217.162524 
L 583.198174 216.710017 
L 583.930651 215.649559 
L 585.639765 212.397442 
L 587.348878 208.990499 
L 588.081356 207.006497 
L 590.034629 200.738062 
L 590.522947 199.954992 
L 591.011265 199.615678 
L 591.499583 199.582032 
L 591.987902 199.754368 
L 592.47622 200.364344 
L 592.964538 201.718784 
L 594.185334 206.368313 
L 594.673652 207.059922 
L 595.16197 207.10891 
L 595.406129 207.010226 
L 595.650288 206.740777 
L 595.894447 206.124896 
L 596.138606 204.847526 
L 596.382765 202.416184 
L 596.626925 198.216357 
L 597.115243 183.052692 
L 598.336038 136.292128 
L 598.824357 126.476511 
L 599.312675 121.448871 
L 599.800993 119.46729 
L 600.045152 119.130065 
L 600.289311 119.024721 
L 600.777629 119.132297 
L 601.021789 119.384687 
L 601.265948 119.972932 
L 601.510107 121.217242 
L 601.754266 123.662678 
L 601.998425 128.108684 
L 602.242584 135.468539 
L 602.730902 160.679459 
L 604.195857 254.213461 
L 604.928334 285.90437 
L 605.660812 308.796434 
L 606.393289 322.95313 
L 607.125766 331.816431 
L 607.858244 337.69275 
L 608.346562 340.421525 
L 608.83488 341.752521 
L 609.079039 341.986051 
L 609.567357 342.041902 
L 610.055676 341.818886 
L 610.299835 341.528267 
L 610.788153 340.373581 
L 611.276471 338.265679 
L 611.764789 335.074194 
L 612.497267 328.110793 
L 613.473903 318.198423 
L 613.962221 315.374047 
L 614.450539 313.939039 
L 614.938858 313.247567 
L 615.671335 312.75264 
L 616.403812 312.515495 
L 617.380449 312.449274 
L 618.357085 312.397247 
L 618.601244 312.294668 
L 618.845403 312.064588 
L 619.089563 311.551492 
L 619.333722 310.390052 
L 619.577881 307.729082 
L 619.82204 301.751236 
L 620.066199 289.317121 
L 620.554517 235.908032 
L 621.286995 145.641481 
L 621.775313 114.483604 
L 622.263631 97.080565 
L 622.751949 86.341574 
L 623.240267 79.153284 
L 623.972745 72.012089 
L 624.705222 67.317676 
L 625.437699 64.019213 
L 626.170177 61.587639 
L 627.146813 59.204745 
L 628.12345 57.459429 
L 629.100086 56.134208 
L 629.588404 55.730634 
L 630.565041 55.673673 
L 631.053359 55.813518 
L 631.297518 56.035122 
L 631.541677 56.466306 
L 631.785836 57.255943 
L 632.029995 58.634797 
L 632.274154 60.91381 
L 632.762473 69.431699 
L 633.49495 91.516123 
L 634.471586 120.232263 
L 635.204064 135.251089 
L 636.424859 154.346198 
L 637.645655 174.370408 
L 638.86645 194.82161 
L 639.598928 203.624988 
L 640.331405 210.050633 
L 641.063882 214.611317 
L 641.79636 217.63458 
L 643.505473 223.193638 
L 643.993792 225.885331 
L 644.48211 229.938137 
L 646.191224 247.475286 
L 646.679542 249.338187 
L 647.16786 250.130268 
L 647.656178 250.425115 
L 649.609451 250.956414 
L 650.097769 251.426296 
L 650.586087 252.18252 
L 652.051042 254.99199 
L 652.53936 255.414428 
L 653.027679 255.564249 
L 654.004315 255.543164 
L 656.690065 255.14014 
L 657.178383 254.874235 
L 657.666702 254.35023 
L 658.399179 252.993839 
L 659.375815 251.010382 
L 660.352452 249.681752 
L 660.84077 248.985833 
L 661.329088 247.931526 
L 661.817406 246.142273 
L 662.305725 243.363408 
L 663.770679 233.595243 
L 664.258998 231.469434 
L 664.747316 230.065135 
L 665.235634 229.232459 
L 665.968111 228.537809 
L 666.700589 227.857007 
L 667.188907 227.043945 
L 667.677225 225.605801 
L 668.165543 223.363548 
L 669.14218 218.212859 
L 669.630498 216.621825 
L 670.118816 215.767084 
L 670.607134 215.323932 
L 671.583771 214.873017 
L 674.269521 214.047957 
L 675.490317 213.926236 
L 676.711112 213.996665 
L 677.443589 214.271433 
L 677.931908 214.661881 
L 678.664385 215.594979 
L 680.12934 217.633343 
L 680.861817 218.241034 
L 681.594294 218.524623 
L 682.326772 218.563101 
L 683.303408 218.354915 
L 684.524204 218.055241 
L 685.989158 217.843121 
L 686.477476 217.610373 
L 686.965795 217.126852 
L 687.454113 216.199573 
L 687.942431 214.595906 
L 688.430749 212.161848 
L 690.384022 200.608502 
L 690.87234 199.439157 
L 691.360659 198.948979 
L 691.848977 198.83865 
L 692.581454 198.967856 
L 694.046409 199.493796 
L 694.534727 199.426142 
L 695.023045 199.1298 
L 695.511363 198.441614 
L 696.243841 196.687477 
L 696.976318 194.935254 
L 697.464636 194.249287 
L 697.952954 193.965058 
L 698.685432 193.948916 
L 698.929591 194.003156 
L 698.929591 194.003156 
" clip-path="url(#p1be2416016)" style="fill: none; stroke: #1565c0; stroke-width: 1.8; stroke-linecap: square"/>
   </g>
   <g id="line2d_31">
    <path d="M 53.12875 204.297969 
L 699.17375 204.297969 
" clip-path="url(#p1be2416016)" style="fill: none; stroke: #b0b0b0; stroke-width: 0.8; stroke-linecap: square"/>
   </g>
   <g id="patch_3">
    <path d="M 53.12875 385.517969 
L 53.12875 23.077969 
" style="fill: none; stroke: #b0b0b0; stroke-width: 0.8; stroke-linejoin: miter; stroke-linecap: square"/>
   </g>
   <g id="patch_4">
    <path d="M 699.17375 385.517969 
L 699.17375 23.077969 
" style="fill: none; stroke: #b0b0b0; stroke-width: 0.8; stroke-linejoin: miter; stroke-linecap: square"/>
   </g>
   <g id="patch_5">
    <path d="M 53.12875 385.517969 
L 699.17375 385.517969 
" style="fill: none; stroke: #b0b0b0; stroke-width: 0.8; stroke-linejoin: miter; stroke-linecap: square"/>
   </g>
   <g id="patch_6">
    <path d="M 53.12875 23.077969 
L 699.17375 23.077969 
" style="fill: none; stroke: #b0b0b0; stroke-width: 0.8; stroke-linejoin: miter; stroke-linecap: square"/>
   </g>
   <g id="text_17">
    <!-- The attack of one pluck: raw vs conditioned -->
    <g style="fill: #1a1a1a" transform="translate(233.876406 17.077969) scale(0.13 -0.13)">
     <defs>
      <path id="DejaVuSans-68" d="M 3513 2113 
L 3513 0 
L 2938 0 
L 2938 2094 
Q 2938 2591 2744 2837 
Q 2550 3084 2163 3084 
Q 1697 3084 1428 2787 
Q 1159 2491 1159 1978 
L 1159 0 
L 581 0 
L 581 4863 
L 1159 4863 
L 1159 2956 
Q 1366 3272 1645 3428 
Q 1925 3584 2291 3584 
Q 2894 3584 3203 3211 
Q 3513 2838 3513 2113 
z
" transform="scale(0.015625)"/>
      <path id="DejaVuSans-61" d="M 2194 1759 
Q 1497 1759 1228 1600 
Q 959 1441 959 1056 
Q 959 750 1161 570 
Q 1363 391 1709 391 
Q 2188 391 2477 730 
Q 2766 1069 2766 1631 
L 2766 1759 
L 2194 1759 
z
M 3341 1997 
L 3341 0 
L 2766 0 
L 2766 531 
Q 2569 213 2275 61 
Q 1981 -91 1556 -91 
Q 1019 -91 701 211 
Q 384 513 384 1019 
Q 384 1609 779 1909 
Q 1175 2209 1959 2209 
L 2766 2209 
L 2766 2266 
Q 2766 2663 2505 2880 
Q 2244 3097 1772 3097 
Q 1472 3097 1187 3025 
Q 903 2953 641 2809 
L 641 3341 
Q 956 3463 1253 3523 
Q 1550 3584 1831 3584 
Q 2591 3584 2966 3190 
Q 3341 2797 3341 1997 
z
" transform="scale(0.015625)"/>
      <path id="DejaVuSans-63" d="M 3122 3366 
L 3122 2828 
Q 2878 2963 2633 3030 
Q 2388 3097 2138 3097 
Q 1578 3097 1268 2742 
Q 959 2388 959 1747 
Q 959 1106 1268 751 
Q 1578 397 2138 397 
Q 2388 397 2633 464 
Q 2878 531 3122 666 
L 3122 134 
Q 2881 22 2623 -34 
Q 2366 -91 2075 -91 
Q 1284 -91 818 406 
Q 353 903 353 1747 
Q 353 2603 823 3093 
Q 1294 3584 2113 3584 
Q 2378 3584 2631 3529 
Q 2884 3475 3122 3366 
z
" transform="scale(0.015625)"/>
      <path id="DejaVuSans-6b" d="M 581 4863 
L 1159 4863 
L 1159 1991 
L 2875 3500 
L 3609 3500 
L 1753 1863 
L 3688 0 
L 2938 0 
L 1159 1709 
L 1159 0 
L 581 0 
L 581 4863 
z
" transform="scale(0.015625)"/>
      <path id="DejaVuSans-6f" d="M 1959 3097 
Q 1497 3097 1228 2736 
Q 959 2375 959 1747 
Q 959 1119 1226 758 
Q 1494 397 1959 397 
Q 2419 397 2687 759 
Q 2956 1122 2956 1747 
Q 2956 2369 2687 2733 
Q 2419 3097 1959 3097 
z
M 1959 3584 
Q 2709 3584 3137 3096 
Q 3566 2609 3566 1747 
Q 3566 888 3137 398 
Q 2709 -91 1959 -91 
Q 1206 -91 779 398 
Q 353 888 353 1747 
Q 353 2609 779 3096 
Q 1206 3584 1959 3584 
z
" transform="scale(0.015625)"/>
      <path id="DejaVuSans-66" d="M 2375 4863 
L 2375 4384 
L 1825 4384 
Q 1516 4384 1395 4259 
Q 1275 4134 1275 3809 
L 1275 3500 
L 2222 3500 
L 2222 3053 
L 1275 3053 
L 1275 0 
L 697 0 
L 697 3053 
L 147 3053 
L 147 3500 
L 697 3500 
L 697 3744 
Q 697 4328 969 4595 
Q 1241 4863 1831 4863 
L 2375 4863 
z
" transform="scale(0.015625)"/>
      <path id="DejaVuSans-6e" d="M 3513 2113 
L 3513 0 
L 2938 0 
L 2938 2094 
Q 2938 2591 2744 2837 
Q 2550 3084 2163 3084 
Q 1697 3084 1428 2787 
Q 1159 2491 1159 1978 
L 1159 0 
L 581 0 
L 581 3500 
L 1159 3500 
L 1159 2956 
Q 1366 3272 1645 3428 
Q 1925 3584 2291 3584 
Q 2894 3584 3203 3211 
Q 3513 2838 3513 2113 
z
" transform="scale(0.015625)"/>
      <path id="DejaVuSans-3a" d="M 750 794 
L 1409 794 
L 1409 0 
L 750 0 
L 750 794 
z
M 750 3309 
L 1409 3309 
L 1409 2516 
L 750 2516 
L 750 3309 
z
" transform="scale(0.015625)"/>
      <path id="DejaVuSans-72" d="M 2631 2963 
Q 2534 3019 2420 3045 
Q 2306 3072 2169 3072 
Q 1681 3072 1420 2755 
Q 1159 2438 1159 1844 
L 1159 0 
L 581 0 
L 581 3500 
L 1159 3500 
L 1159 2956 
Q 1341 3275 1631 3429 
Q 1922 3584 2338 3584 
Q 2397 3584 2469 3576 
Q 2541 3569 2628 3553 
L 2631 2963 
z
" transform="scale(0.015625)"/>
      <path id="DejaVuSans-77" d="M 269 3500 
L 844 3500 
L 1563 769 
L 2278 3500 
L 2956 3500 
L 3675 769 
L 4391 3500 
L 4966 3500 
L 4050 0 
L 3372 0 
L 2619 2869 
L 1863 0 
L 1184 0 
L 269 3500 
z
" transform="scale(0.015625)"/>
      <path id="DejaVuSans-76" d="M 191 3500 
L 800 3500 
L 1894 563 
L 2988 3500 
L 3597 3500 
L 2284 0 
L 1503 0 
L 191 3500 
z
" transform="scale(0.015625)"/>
     </defs>
     <use xlink:href="#DejaVuSans-54"/>
     <use xlink:href="#DejaVuSans-68" transform="translate(61.083984 0)"/>
     <use xlink:href="#DejaVuSans-65" transform="translate(124.462891 0)"/>
     <use xlink:href="#DejaVuSans-20" transform="translate(185.986328 0)"/>
     <use xlink:href="#DejaVuSans-61" transform="translate(217.773438 0)"/>
     <use xlink:href="#DejaVuSans-74" transform="translate(279.052734 0)"/>
     <use xlink:href="#DejaVuSans-74" transform="translate(318.261719 0)"/>
     <use xlink:href="#DejaVuSans-61" transform="translate(357.470703 0)"/>
     <use xlink:href="#DejaVuSans-63" transform="translate(418.75 0)"/>
     <use xlink:href="#DejaVuSans-6b" transform="translate(473.730469 0)"/>
     <use xlink:href="#DejaVuSans-20" transform="translate(531.640625 0)"/>
     <use xlink:href="#DejaVuSans-6f" transform="translate(563.427734 0)"/>
     <use xlink:href="#DejaVuSans-66" transform="translate(624.609375 0)"/>
     <use xlink:href="#DejaVuSans-20" transform="translate(659.814453 0)"/>
     <use xlink:href="#DejaVuSans-6f" transform="translate(691.601562 0)"/>
     <use xlink:href="#DejaVuSans-6e" transform="translate(752.783203 0)"/>
     <use xlink:href="#DejaVuSans-65" transform="translate(816.162109 0)"/>
     <use xlink:href="#DejaVuSans-20" transform="translate(877.685547 0)"/>
     <use xlink:href="#DejaVuSans-70" transform="translate(909.472656 0)"/>
     <use xlink:href="#DejaVuSans-6c" transform="translate(972.949219 0)"/>
     <use xlink:href="#DejaVuSans-75" transform="translate(1000.732422 0)"/>
     <use xlink:href="#DejaVuSans-63" transform="translate(1064.111328 0)"/>
     <use xlink:href="#DejaVuSans-6b" transform="translate(1119.091797 0)"/>
     <use xlink:href="#DejaVuSans-3a" transform="translate(1177.001953 0)"/>
     <use xlink:href="#DejaVuSans-20" transform="translate(1210.693359 0)"/>
     <use xlink:href="#DejaVuSans-72" transform="translate(1242.480469 0)"/>
     <use xlink:href="#DejaVuSans-61" transform="translate(1283.59375 0)"/>
     <use xlink:href="#DejaVuSans-77" transform="translate(1344.873047 0)"/>
     <use xlink:href="#DejaVuSans-20" transform="translate(1426.660156 0)"/>
     <use xlink:href="#DejaVuSans-76" transform="translate(1458.447266 0)"/>
     <use xlink:href="#DejaVuSans-73" transform="translate(1517.626953 0)"/>
     <use xlink:href="#DejaVuSans-20" transform="translate(1569.726562 0)"/>
     <use xlink:href="#DejaVuSans-63" transform="translate(1601.513672 0)"/>
     <use xlink:href="#DejaVuSans-6f" transform="translate(1656.494141 0)"/>
     <use xlink:href="#DejaVuSans-6e" transform="translate(1717.675781 0)"/>
     <use xlink:href="#DejaVuSans-64" transform="translate(1781.054688 0)"/>
     <use xlink:href="#DejaVuSans-69" transform="translate(1844.53125 0)"/>
     <use xlink:href="#DejaVuSans-74" transform="translate(1872.314453 0)"/>
     <use xlink:href="#DejaVuSans-69" transform="translate(1911.523438 0)"/>
     <use xlink:href="#DejaVuSans-6f" transform="translate(1939.306641 0)"/>
     <use xlink:href="#DejaVuSans-6e" transform="translate(2000.488281 0)"/>
     <use xlink:href="#DejaVuSans-65" transform="translate(2063.867188 0)"/>
     <use xlink:href="#DejaVuSans-64" transform="translate(2125.390625 0)"/>
    </g>
   </g>
   <g id="legend_1">
    <g id="patch_7">
     <path d="M 591.6625 64.169844 
L 691.47375 64.169844 
Q 693.67375 64.169844 693.67375 61.969844 
L 693.67375 30.777969 
Q 693.67375 28.577969 691.47375 28.577969 
L 591.6625 28.577969 
Q 589.4625 28.577969 589.4625 30.777969 
L 589.4625 61.969844 
Q 589.4625 64.169844 591.6625 64.169844 
z
" style="fill: #ffffff; opacity: 0.8; stroke: #cccccc; stroke-linejoin: miter"/>
    </g>
    <g id="line2d_32">
     <path d="M 593.8625 37.48625 
L 604.8625 37.48625 
L 615.8625 37.48625 
" style="fill: none; stroke: #fb8c00; stroke-opacity: 0.6; stroke-width: 1.4; stroke-linecap: square"/>
    </g>
    <g id="text_18">
     <!-- raw -->
     <g transform="translate(624.6625 41.33625) scale(0.11 -0.11)">
      <use xlink:href="#DejaVuSans-72"/>
      <use xlink:href="#DejaVuSans-61" transform="translate(41.113281 0)"/>
      <use xlink:href="#DejaVuSans-77" transform="translate(102.392578 0)"/>
     </g>
    </g>
    <g id="line2d_33">
     <path d="M 593.8625 53.632187 
L 604.8625 53.632187 
L 615.8625 53.632187 
" style="fill: none; stroke: #1565c0; stroke-width: 1.8; stroke-linecap: square"/>
    </g>
    <g id="text_19">
     <!-- conditioned -->
     <g transform="translate(624.6625 57.482187) scale(0.11 -0.11)">
      <use xlink:href="#DejaVuSans-63"/>
      <use xlink:href="#DejaVuSans-6f" transform="translate(54.980469 0)"/>
      <use xlink:href="#DejaVuSans-6e" transform="translate(116.162109 0)"/>
      <use xlink:href="#DejaVuSans-64" transform="translate(179.541016 0)"/>
      <use xlink:href="#DejaVuSans-69" transform="translate(243.017578 0)"/>
      <use xlink:href="#DejaVuSans-74" transform="translate(270.800781 0)"/>
      <use xlink:href="#DejaVuSans-69" transform="translate(310.009766 0)"/>
      <use xlink:href="#DejaVuSans-6f" transform="translate(337.792969 0)"/>
      <use xlink:href="#DejaVuSans-6e" transform="translate(398.974609 0)"/>
      <use xlink:href="#DejaVuSans-65" transform="translate(462.353516 0)"/>
      <use xlink:href="#DejaVuSans-64" transform="translate(523.876953 0)"/>
     </g>
    </g>
   </g>
  </g>
 </g>
 <defs>
  <clipPath id="p1be2416016">
   <rect x="53.12875" y="23.077969" width="646.045" height="362.44"/>
  </clipPath>
 </defs>
</svg>
