<?xml version="1.0" encoding="utf-8"?>
<!-- Generator: Adobe Illustrator 27.0.0, SVG Export Plug-In . SVG Version: 6.00 Build 0)  -->
<svg version="1.1" id="Layer_1" xmlns="http://www.w3.org/2000/svg" xmlns:xlink="http://www.w3.org/1999/xlink" x="0px" y="0px"
	 viewBox="0 0 372 283.5" style="enable-background:new 0 0 372 283.5;" xml:space="preserve">
<style type="text/css">
	.st0{fill:#FFFFFF;}
	
		.st1{clip-path:url(#SVGID_00000098918415285503442800000015952282309123555248_);fill:none;stroke:#1F77B4;stroke-width:1.5;stroke-linecap:square;stroke-linejoin:round;}
	.st2{fill:none;stroke:#505050;stroke-width:0.25;stroke-miterlimit:10;}
	
		.st3{clip-path:url(#SVGID_00000024698907822283028140000006012037064844793782_);fill:#505050;stroke:#505050;stroke-width:0.25;stroke-miterlimit:10;}
	
		.st4{clip-path:url(#SVGID_00000034781959174962014090000002329665846200294063_);fill:#505050;stroke:#505050;stroke-width:0.25;stroke-miterlimit:10;}
	.st5{fill:#505050;}
</style>
<g id="patch_2">
	<path class="st0" d="M8,273.8h357.1V7.7H8V273.8z"/>
</g>
<g id="line2d_16">
	<g>
		<g>
			<defs>
				<rect id="SVGID_00000057849167614223132920000001666711447339082640_" x="8" y="7.7" width="357.1" height="266.1"/>
			</defs>
			<clipPath id="SVGID_00000111193279091807159460000003991082295860977826_">
				<use xlink:href="#SVGID_00000057849167614223132920000001666711447339082640_"  style="overflow:visible;"/>
			</clipPath>
			
				<path style="clip-path:url(#SVGID_00000111193279091807159460000003991082295860977826_);fill:none;stroke:#1F77B4;stroke-width:1.5;stroke-linecap:square;stroke-linejoin:round;" d="
				M24.2,140.7l7.6-17.6l7.6-17.2L47,89.4L54.6,74l7.6-14l7.6-12.3l7.6-10.3l7.6-8.1l7.6-5.7l7.6-3.2l7.6-0.6l7.6,1.9l7,4.5l7.6,6.9
				l7.6,9.2l7.6,11.3l7.6,13.2l7.6,14.7l7.6,16l7.6,16.9l7.6,17.5l7.6,17.7l7.6,17.5L206,184l7.6,16l7.6,14.7l7.6,13.2l7.6,11.3
				l7.6,9.2l7.6,6.9l7.6,4.5l7.6,1.9l7.6-0.6l7.6-3.2l7.6-5.7l7.6-8.1l7.6-10.3l7.6-12.3l7.6-14l7.6-15.4l7.6-16.5l7.6-17.2
				l7.6-17.6"/>
		</g>
		<g>
			<rect id="SVGID_1_" x="8" y="7.7" class="st2" width="357.1" height="266.1"/>
		</g>
	</g>
</g>
<g id="line2d_17">
	<g>
		<g>
			<defs>
				<rect id="SVGID_00000124134796549036868610000017439433150483093388_" x="8" y="7.7" width="357.1" height="266.1"/>
			</defs>
			<clipPath id="SVGID_00000002350080233985616650000002721917255869448354_">
				<use xlink:href="#SVGID_00000124134796549036868610000017439433150483093388_"  style="overflow:visible;"/>
			</clipPath>
			
				<path style="clip-path:url(#SVGID_00000002350080233985616650000002721917255869448354_);fill:#505050;stroke:#505050;stroke-width:0.25;stroke-miterlimit:10;" d="
				M8,140.7h357.1"/>
		</g>
	</g>
</g>
<g>
	<g>
		<defs>
			<rect id="SVGID_00000093865231239912619040000002166659795632657282_" x="8" y="7.7" width="357.1" height="266.1"/>
		</defs>
		<clipPath id="SVGID_00000124845437858354368180000001294334533047818118_">
			<use xlink:href="#SVGID_00000093865231239912619040000002166659795632657282_"  style="overflow:visible;"/>
		</clipPath>
		
			<path style="clip-path:url(#SVGID_00000124845437858354368180000001294334533047818118_);fill:#505050;stroke:#505050;stroke-width:0.25;stroke-miterlimit:10;" d="
			M186.6,273.8V7.7"/>
	</g>
</g>
<g id="patch_3">
	<path class="st5" d="M8,273.8V7.7"/>
</g>
<g id="patch_4">
	<path class="st5" d="M365.1,273.8V7.7"/>
</g>
<g id="patch_5">
	<path class="st5" d="M8,273.8h357.1"/>
</g>
<g id="patch_6">
	<path class="st5" d="M8,7.7h357.1"/>
</g>
</svg>
