<?xml version="1.0" encoding="utf-8"?>
<!-- Generator: Adobe Illustrator 27.0.0, SVG Export Plug-In . SVG Version: 6.00 Build 0)  -->
<svg version="1.1" id="Layer_1" xmlns="http://www.w3.org/2000/svg" xmlns:xlink="http://www.w3.org/1999/xlink" x="0px" y="0px"
	 viewBox="0 0 372 283.5" style="enable-background:new 0 0 372 283.5;" xml:space="preserve">
<style type="text/css">
	.st0{fill:#FFFFFF;}
	
		.st1{clip-path:url(#SVGID_00000114765846967868814290000004670573398920355977_);fill:none;stroke:#1F77B4;stroke-width:1.5;stroke-linecap:square;stroke-linejoin:round;}
	.st2{fill:none;stroke:#505050;stroke-width:0.25;stroke-miterlimit:10;}
	
		.st3{clip-path:url(#SVGID_00000003085132369399308420000008681328241968421562_);fill:#505050;stroke:#505050;stroke-width:0.25;stroke-miterlimit:10;}
	
		.st4{clip-path:url(#SVGID_00000163030915235418408000000004388604619213543059_);fill:#505050;stroke:#505050;stroke-width:0.25;stroke-miterlimit:10;}
	.st5{fill:#505050;}
	.st6{fill:none;stroke:#E943C8;stroke-width:1.5;stroke-linecap:square;stroke-linejoin:round;}
</style>
<g id="patch_2">
	<path class="st0" d="M8,273.8h357.1V7.7H8V273.8z"/>
</g>
<g id="line2d_16">
	<g>
		<g>
			<g>
				<defs>
					<rect id="SVGID_00000078741972614037907900000004246665432109676439_" x="8" y="7.7" width="357.1" height="266.1"/>
				</defs>
				<clipPath id="SVGID_00000011734318553558292510000017433994469270345124_">
					<use xlink:href="#SVGID_00000078741972614037907900000004246665432109676439_"  style="overflow:visible;"/>
				</clipPath>
				
					<path style="clip-path:url(#SVGID_00000011734318553558292510000017433994469270345124_);fill:none;stroke:#1F77B4;stroke-width:1.5;stroke-linecap:square;stroke-linejoin:round;" d="
					M8,140.7l8.3-19.4l8.3-18.9L33,84.3l8.3-16.9L49.6,52l8.3-13.5l8.3-11.3l8.3-8.9l8.3-6.3l8.3-3.5l8.3-0.7l8.3,2.1l7.7,5l8.3,7.6
					l8.3,10.1l8.3,12.4l8.3,14.5l8.3,16.2l8.3,17.6l8.3,18.6l8.3,19.3l8.3,19.5l8.3,19.3l8.3,18.6l8.3,17.6l8.3,16.2l8.3,14.5
					l8.3,12.4l8.3,10.1l8.3,7.6l8.3,5l8.3,2.1l8.3-0.7l8.3-3.5l8.3-6.3l8.3-8.9l8.3-11.3l8.3-13.5l8.3-15.4l8.3-16.9l8.3-18.2
					l8.3-18.9l8.3-19.4"/>
			</g>
		</g>
		<g>
			<rect id="SVGID_1_" x="8" y="7.7" class="st2" width="357.1" height="266.1"/>
		</g>
	</g>
</g>
<g id="line2d_17">
	<g>
		<g>
			<g>
				<defs>
					<rect id="SVGID_00000119808753822598965660000012924586583378442116_" x="8" y="7.7" width="357.1" height="266.1"/>
				</defs>
				<clipPath id="SVGID_00000049201444808820421950000000189287030759105465_">
					<use xlink:href="#SVGID_00000119808753822598965660000012924586583378442116_"  style="overflow:visible;"/>
				</clipPath>
				
					<path style="clip-path:url(#SVGID_00000049201444808820421950000000189287030759105465_);fill:#505050;stroke:#505050;stroke-width:0.25;stroke-miterlimit:10;" d="
					M8,140.7h357.1"/>
			</g>
		</g>
	</g>
</g>
<g>
	<g>
		<g>
			<defs>
				<rect id="SVGID_00000056409965668456373190000006765089875285404063_" x="8" y="7.7" width="357.1" height="266.1"/>
			</defs>
			<clipPath id="SVGID_00000174600646433093768010000017290788571477153171_">
				<use xlink:href="#SVGID_00000056409965668456373190000006765089875285404063_"  style="overflow:visible;"/>
			</clipPath>
			
				<path style="clip-path:url(#SVGID_00000174600646433093768010000017290788571477153171_);fill:#505050;stroke:#505050;stroke-width:0.25;stroke-miterlimit:10;" d="
				M186.6,273.8V7.7"/>
		</g>
	</g>
</g>
<g id="patch_3">
	<path class="st5" d="M8,273.8V7.7"/>
</g>
<g id="patch_4">
	<path class="st5" d="M365.1,273.8V7.7"/>
</g>
<g id="patch_5">
	<path class="st5" d="M8,273.8h357.1"/>
</g>
<g id="patch_6">
	<path class="st5" d="M8,7.7h357.1"/>
</g>
<g>
	<path class="st6" d="M8,7.7l8.3,1.4l8.3,4.2l8.3,6.9l8.3,9.5l8.3,11.9l8.3,14l8.3,15.8l8.3,17.3l8.3,18.4l8.3,19.1l8.3,19.4
		l8.3,19.3l8.3,18.8l8.3,17.9l8.3,16.6l8.3,15l8.3,13l8.3,10.7l8.3,8.3l8.3,5.6l8.3,2.8h8.3l8.3-2.8l8.3-5.6l8.3-8.3l8.3-10.7
		l8.3-13l8.3-15l8.3-16.6l8.3-17.9l8.3-18.8l8.3-19.3l8.3-19.4l8.3-19.1l8.3-18.4l8.3-17.3l8.3-15.8l8.3-14l8.3-11.9l8.3-9.5
		l8.3-6.9l8.3-4.2l8.3-1.4"/>
</g>
</svg>
