<?xml version="1.0" encoding="utf-8"?>
<!-- Generator: Adobe Illustrator 27.0.0, SVG Export Plug-In . SVG Version: 6.00 Build 0)  -->
<svg version="1.1" id="Layer_2_00000170247000300003027530000002374476168042603398_"
	 xmlns="http://www.w3.org/2000/svg" xmlns:xlink="http://www.w3.org/1999/xlink" x="0px" y="0px" viewBox="0 0 369.2 293.6"
	 style="enable-background:new 0 0 369.2 293.6;" xml:space="preserve">
<style type="text/css">
	.st0{fill:none;stroke:#00B2FF;stroke-miterlimit:10;}
	.st1{fill:none;stroke:#0066FF;stroke-width:2;stroke-miterlimit:10;}
	.st2{fill:none;stroke:#E900E6;stroke-miterlimit:10;}
	.st3{fill:none;stroke:#E900E6;stroke-miterlimit:10;stroke-dasharray:8.1016,8.1016;}
	.st4{fill:none;}
	.st5{fill:none;stroke:#B3B3B3;stroke-width:0.5;stroke-miterlimit:10;}
	.st6{fill:none;stroke:#B3B3B3;stroke-width:0.5;stroke-miterlimit:10;stroke-dasharray:6.0512,6.0512;}
	.st7{fill:#4A4A4A;}
	.st8{font-family:'Roboto-Regular';}
	.st9{font-size:12px;}
	.st10{fill:none;stroke:#B3B3B3;stroke-miterlimit:10;}
	.st11{fill:#B3B3B3;}
</style>
<path class="st0" d="M222.9,134.4"/>
<path class="st0" d="M149.1,169.7"/>
<path class="st1" d="M352.5,114.6l-124.3,19c-25.2,3.9-49.1,13.8-69.6,29.1L27.8,260.1"/>
<g>
	<g>
		<line class="st2" x1="27.8" y1="260.1" x2="31" y2="257.7"/>
		<line class="st3" x1="37.5" y1="252.9" x2="346.1" y2="23"/>
		<line class="st2" x1="349.4" y1="20.6" x2="352.6" y2="18.2"/>
	</g>
</g>
<g>
	<line class="st4" x1="190.2" y1="228.8" x2="189.8" y2="139.4"/>
	<g>
		<line class="st5" x1="190.2" y1="228.8" x2="190.2" y2="228.8"/>
		<line class="st6" x1="190.2" y1="222.7" x2="189.9" y2="143.5"/>
		<line class="st5" x1="189.8" y1="141.4" x2="189.8" y2="139.4"/>
	</g>
</g>
<g>
	<line class="st4" x1="149.3" y1="257.7" x2="148.9" y2="169.7"/>
	<g>
		<line class="st5" x1="149.3" y1="257.7" x2="149.3" y2="257.7"/>
		<line class="st6" x1="149.3" y1="260.1" x2="149" y2="173.7"/>
		<line class="st5" x1="148.9" y1="171.7" x2="148.9" y2="169.7"/>
	</g>
</g>
<g>
	<line class="st4" x1="231.1" y1="257.7" x2="230.7" y2="133.2"/>
	<g>
		<line class="st5" x1="231.1" y1="257.7" x2="231.1" y2="257.7"/>
		<line class="st6" x1="231.1" y1="260.1" x2="230.8" y2="138.8"/>
		<line class="st5" x1="230.7" y1="136" x2="230.7" y2="133.2"/>
	</g>
</g>
<g>
	<text transform="matrix(1 0 0 1 163.4477 233.1073)" class="st7 st8 st9">Threshold</text>
</g>
<g>
	<text transform="matrix(1 0 0 1 174.7184 253.8387)" class="st7 st8 st9">Width</text>
</g>
<g>
	<text transform="matrix(0.9869 -0.1616 0.1616 0.9869 265.9402 139.5003)" class="st7 st8 st9">Ratio</text>
</g>
<g>
	<g>
		<line class="st10" x1="27.8" y1="260.1" x2="345.3" y2="260.1"/>
		<g>
			<polygon class="st11" points="343.9,265.1 352.5,260.1 343.9,255.1 			"/>
		</g>
	</g>
</g>
<g>
	<g>
		<line class="st10" x1="27.8" y1="260.1" x2="27.8" y2="25.4"/>
		<g>
			<polygon class="st11" points="32.8,26.8 27.8,18.2 22.8,26.8 			"/>
		</g>
	</g>
</g>
<g>
	<text transform="matrix(1 0 0 1 176.2408 279.3534)" class="st7 st8 st9">Input</text>
</g>
<g>
	<text transform="matrix(6.123234e-17 -1 1 6.123234e-17 18.0992 157.33)" class="st7 st8 st9">Output</text>
</g>
<path class="st7" d="M149.3,249.3"/>
<g>
	<line class="st7" x1="149.3" y1="249.3" x2="170.6" y2="249.3"/>
	<g>
		<line class="st5" x1="152.9" y1="249.3" x2="170.6" y2="249.3"/>
		<g>
			<polygon class="st11" points="153.6,251.8 149.3,249.3 153.6,246.8 			"/>
		</g>
	</g>
</g>
<g>
	<line class="st7" x1="210.1" y1="249.3" x2="230.9" y2="249.3"/>
	<g>
		<line class="st5" x1="210.1" y1="249.3" x2="227.3" y2="249.3"/>
		<g>
			<polygon class="st11" points="226.6,251.8 230.9,249.3 226.6,246.8 			"/>
		</g>
	</g>
</g>
</svg>
