<?xml version="1.0" encoding="UTF-8" standalone="no"?>
<!DOCTYPE svg PUBLIC "-//W3C//DTD SVG 1.1//EN"
 "http://www.w3.org/Graphics/SVG/1.1/DTD/svg11.dtd">
<!-- Generated by graphviz version 15.0.0 (20260523.1842)
 -->
<!-- Title: sustain_hold Pages: 1 -->
<svg width="720" height="275"
 viewBox="0.00 0.00 753.00 288.00" xmlns="http://www.w3.org/2000/svg" xmlns:xlink="http://www.w3.org/1999/xlink">
<g id="graph0" class="graph" transform="scale(1 1) rotate(0) translate(12.96 275.31)">
<title>sustain_hold</title>
<!-- _in -->
<g id="node1" class="node">
<title>_in</title>
<text xml:space="preserve" text-anchor="middle" x="27" y="-222.01" font-family="DejaVu Sans, Verdana, sans-serif" font-size="11.00" fill="#1a1a1a">input</text>
</g>
<!-- buf -->
<g id="node2" class="node">
<title>buf</title>
<path fill="#e8f2fd" stroke="#1565c0" stroke-width="1.5" d="M169.05,-244.35C169.05,-244.35 109.38,-244.35 109.38,-244.35 103.38,-244.35 97.38,-238.35 97.38,-232.35 97.38,-232.35 97.38,-219.07 97.38,-219.07 97.38,-213.07 103.38,-207.07 109.38,-207.07 109.38,-207.07 169.05,-207.07 169.05,-207.07 175.05,-207.07 181.05,-213.07 181.05,-219.07 181.05,-219.07 181.05,-232.35 181.05,-232.35 181.05,-238.35 175.05,-244.35 169.05,-244.35"/>
<text xml:space="preserve" text-anchor="start" x="114.09" y="-226.26" font-family="DejaVu Sans, Verdana, sans-serif" font-size="11.00" fill="#1a1a1a">ring buffer</text>
<text xml:space="preserve" text-anchor="start" x="110.34" y="-217.16" font-family="DejaVu Sans, Verdana, sans-serif" font-size="9.00" fill="#5d5d5d">hermite reads</text>
</g>
<!-- _in&#45;&gt;buf -->
<g id="edge1" class="edge">
<title>_in&#45;&gt;buf</title>
<path fill="none" stroke="#1a1a1a" stroke-width="1.3" d="M53.88,-225.71C53.88,-225.71 87.81,-225.71 87.81,-225.71"/>
<polygon fill="#1a1a1a" stroke="#1a1a1a" stroke-width="1.3" points="87.81,-228.16 94.81,-225.71 87.81,-223.26 87.81,-228.16"/>
</g>
<!-- comp -->
<g id="node5" class="node">
<title>comp</title>
<path fill="#e8f2fd" stroke="#1565c0" stroke-width="1.5" d="M620.68,-244.35C620.68,-244.35 537.01,-244.35 537.01,-244.35 531.01,-244.35 525.01,-238.35 525.01,-232.35 525.01,-232.35 525.01,-219.07 525.01,-219.07 525.01,-213.07 531.01,-207.07 537.01,-207.07 537.01,-207.07 620.68,-207.07 620.68,-207.07 626.68,-207.07 632.68,-213.07 632.68,-219.07 632.68,-219.07 632.68,-232.35 632.68,-232.35 632.68,-238.35 626.68,-244.35 620.68,-244.35"/>
<text xml:space="preserve" text-anchor="start" x="550.35" y="-226.26" font-family="DejaVu Sans, Verdana, sans-serif" font-size="11.00" fill="#1a1a1a">compressor</text>
<text xml:space="preserve" text-anchor="start" x="537.97" y="-217.16" font-family="DejaVu Sans, Verdana, sans-serif" font-size="9.00" fill="#5d5d5d">AR side&#45;chain + clip</text>
</g>
<!-- _in&#45;&gt;comp -->
<g id="edge6" class="edge">
<title>_in&#45;&gt;comp</title>
<path fill="none" stroke="#5d5d5d" stroke-width="1.3" stroke-dasharray="5,2" d="M26.68,-243.6C26.68,-252.9 26.68,-262.35 26.68,-262.35 26.68,-262.35 578.68,-262.35 578.68,-262.35 578.68,-262.35 578.68,-253.86 578.68,-253.86"/>
<polygon fill="#5d5d5d" stroke="#5d5d5d" stroke-width="1.3" points="581.13,-253.86 578.68,-246.86 576.23,-253.86 581.13,-253.86"/>
<text xml:space="preserve" text-anchor="middle" x="270.55" y="-253.8" font-family="DejaVu Sans, Verdana, sans-serif" font-size="9.00" fill="#5d5d5d">dry handover</text>
</g>
<!-- grains -->
<g id="node3" class="node">
<title>grains</title>
<path fill="#e8f2fd" stroke="#1565c0" stroke-width="1.5" d="M314.09,-244.35C314.09,-244.35 236.42,-244.35 236.42,-244.35 230.42,-244.35 224.42,-238.35 224.42,-232.35 224.42,-232.35 224.42,-219.07 224.42,-219.07 224.42,-213.07 230.42,-207.07 236.42,-207.07 236.42,-207.07 314.09,-207.07 314.09,-207.07 320.09,-207.07 326.09,-213.07 326.09,-219.07 326.09,-219.07 326.09,-232.35 326.09,-232.35 326.09,-238.35 320.09,-244.35 314.09,-244.35"/>
<text xml:space="preserve" text-anchor="start" x="238.51" y="-226.26" font-family="DejaVu Sans, Verdana, sans-serif" font-size="11.00" fill="#1a1a1a">grains ×2, OLA</text>
<text xml:space="preserve" text-anchor="start" x="237.38" y="-217.16" font-family="DejaVu Sans, Verdana, sans-serif" font-size="9.00" fill="#5d5d5d">width 16P · hop 8P</text>
</g>
<!-- buf&#45;&gt;grains -->
<g id="edge2" class="edge">
<title>buf&#45;&gt;grains</title>
<path fill="none" stroke="#1a1a1a" stroke-width="1.3" d="M181.51,-225.71C181.51,-225.71 214.92,-225.71 214.92,-225.71"/>
<polygon fill="#1a1a1a" stroke="#1a1a1a" stroke-width="1.3" points="214.92,-228.16 221.92,-225.71 214.92,-223.26 214.92,-228.16"/>
</g>
<!-- envelope -->
<g id="node7" class="node">
<title>envelope</title>
<path fill="white" stroke="#43a047" stroke-width="1.5" d="M172.42,-108.35C172.42,-108.35 106,-108.35 106,-108.35 100,-108.35 94,-102.35 94,-96.35 94,-96.35 94,-83.07 94,-83.07 94,-77.07 100,-71.07 106,-71.07 106,-71.07 172.42,-71.07 172.42,-71.07 178.42,-71.07 184.42,-77.07 184.42,-83.07 184.42,-83.07 184.42,-96.35 184.42,-96.35 184.42,-102.35 178.42,-108.35 172.42,-108.35"/>
<text xml:space="preserve" text-anchor="start" x="116.71" y="-90.26" font-family="DejaVu Sans, Verdana, sans-serif" font-size="11.00" fill="#1a1a1a">envelope</text>
<text xml:space="preserve" text-anchor="start" x="106.96" y="-81.16" font-family="DejaVu Sans, Verdana, sans-serif" font-size="9.00" fill="#5d5d5d">attack keep&#45;out</text>
</g>
<!-- buf&#45;&gt;envelope -->
<g id="edge7" class="edge">
<title>buf&#45;&gt;envelope</title>
<path fill="none" stroke="#43a047" stroke-width="1.3" d="M139.68,-206.51C139.68,-206.51 139.68,-117.78 139.68,-117.78"/>
<polygon fill="#43a047" stroke="#43a047" stroke-width="1.3" points="142.13,-117.78 139.68,-110.78 137.23,-117.78 142.13,-117.78"/>
</g>
<!-- norm -->
<g id="node4" class="node">
<title>norm</title>
<path fill="#e8f2fd" stroke="#1565c0" stroke-width="1.5" d="M447.14,-244.35C447.14,-244.35 403.97,-244.35 403.97,-244.35 397.97,-244.35 391.97,-238.35 391.97,-232.35 391.97,-232.35 391.97,-219.07 391.97,-219.07 391.97,-213.07 397.97,-207.07 403.97,-207.07 403.97,-207.07 447.14,-207.07 447.14,-207.07 453.14,-207.07 459.14,-213.07 459.14,-219.07 459.14,-219.07 459.14,-232.35 459.14,-232.35 459.14,-238.35 453.14,-244.35 447.14,-244.35"/>
<text xml:space="preserve" text-anchor="start" x="412.8" y="-226.26" font-family="DejaVu Sans, Verdana, sans-serif" font-size="11.00" fill="#1a1a1a">norm</text>
<text xml:space="preserve" text-anchor="start" x="404.93" y="-217.16" font-family="DejaVu Sans, Verdana, sans-serif" font-size="9.00" fill="#5d5d5d">RMS table</text>
</g>
<!-- grains&#45;&gt;norm -->
<g id="edge3" class="edge">
<title>grains&#45;&gt;norm</title>
<path fill="none" stroke="#1a1a1a" stroke-width="1.3" d="M326.56,-231.92C326.56,-231.92 382.5,-231.92 382.5,-231.92"/>
<polygon fill="#1a1a1a" stroke="#1a1a1a" stroke-width="1.3" points="382.5,-234.37 389.5,-231.92 382.5,-229.47 382.5,-234.37"/>
</g>
<!-- norm&#45;&gt;comp -->
<g id="edge4" class="edge">
<title>norm&#45;&gt;comp</title>
<path fill="none" stroke="#1a1a1a" stroke-width="1.3" d="M459.57,-225.71C459.57,-225.71 515.48,-225.71 515.48,-225.71"/>
<polygon fill="#1a1a1a" stroke="#1a1a1a" stroke-width="1.3" points="515.48,-228.16 522.48,-225.71 515.48,-223.26 515.48,-228.16"/>
</g>
<!-- _out -->
<g id="node6" class="node">
<title>_out</title>
<text xml:space="preserve" text-anchor="middle" x="699.68" y="-222.01" font-family="DejaVu Sans, Verdana, sans-serif" font-size="11.00" fill="#1a1a1a">out</text>
</g>
<!-- comp&#45;&gt;_out -->
<g id="edge5" class="edge">
<title>comp&#45;&gt;_out</title>
<path fill="none" stroke="#1a1a1a" stroke-width="1.3" d="M633.25,-225.71C633.25,-225.71 663.99,-225.71 663.99,-225.71"/>
<polygon fill="#1a1a1a" stroke="#1a1a1a" stroke-width="1.3" points="663.99,-228.16 670.99,-225.71 663.99,-223.26 663.99,-228.16"/>
</g>
<!-- blag -->
<g id="node8" class="node">
<title>blag</title>
<path fill="white" stroke="#43a047" stroke-width="1.5" d="M311.84,-108.35C311.84,-108.35 238.67,-108.35 238.67,-108.35 232.67,-108.35 226.67,-102.35 226.67,-96.35 226.67,-96.35 226.67,-83.07 226.67,-83.07 226.67,-77.07 232.67,-71.07 238.67,-71.07 238.67,-71.07 311.84,-71.07 311.84,-71.07 317.84,-71.07 323.84,-77.07 323.84,-83.07 323.84,-83.07 323.84,-96.35 323.84,-96.35 323.84,-102.35 317.84,-108.35 311.84,-108.35"/>
<text xml:space="preserve" text-anchor="start" x="244.51" y="-90.26" font-family="DejaVu Sans, Verdana, sans-serif" font-size="11.00" fill="#1a1a1a">best_lag → P</text>
<text xml:space="preserve" text-anchor="start" x="239.63" y="-81.16" font-family="DejaVu Sans, Verdana, sans-serif" font-size="9.00" fill="#5d5d5d">NCC, sub&#45;sample</text>
</g>
<!-- envelope&#45;&gt;blag -->
<g id="edge8" class="edge">
<title>envelope&#45;&gt;blag</title>
<path fill="none" stroke="#43a047" stroke-width="1.3" d="M184.89,-89.71C184.89,-89.71 217.23,-89.71 217.23,-89.71"/>
<polygon fill="#43a047" stroke="#43a047" stroke-width="1.3" points="217.23,-92.16 224.23,-89.71 217.23,-87.26 217.23,-92.16"/>
</g>
<!-- sched -->
<g id="node9" class="node">
<title>sched</title>
<path fill="white" stroke="#43a047" stroke-width="1.5" d="M473.01,-141.35C473.01,-141.35 378.09,-141.35 378.09,-141.35 372.09,-141.35 366.09,-135.35 366.09,-129.35 366.09,-129.35 366.09,-116.07 366.09,-116.07 366.09,-110.07 372.09,-104.07 378.09,-104.07 378.09,-104.07 473.01,-104.07 473.01,-104.07 479.01,-104.07 485.01,-110.07 485.01,-116.07 485.01,-116.07 485.01,-129.35 485.01,-129.35 485.01,-135.35 479.01,-141.35 473.01,-141.35"/>
<text xml:space="preserve" text-anchor="start" x="401.93" y="-123.26" font-family="DejaVu Sans, Verdana, sans-serif" font-size="11.00" fill="#1a1a1a">scheduler</text>
<text xml:space="preserve" text-anchor="start" x="379.05" y="-114.16" font-family="DejaVu Sans, Verdana, sans-serif" font-size="9.00" fill="#5d5d5d">period grid · ping&#45;pong</text>
</g>
<!-- blag&#45;&gt;sched -->
<g id="edge9" class="edge">
<title>blag&#45;&gt;sched</title>
<path fill="none" stroke="#43a047" stroke-width="1.3" d="M275.68,-108.93C275.68,-117.13 275.68,-124.85 275.68,-124.85 275.68,-124.85 356.49,-124.85 356.49,-124.85"/>
<polygon fill="#43a047" stroke="#43a047" stroke-width="1.3" points="356.49,-127.3 363.49,-124.85 356.49,-122.4 356.49,-127.3"/>
</g>
<!-- sched&#45;&gt;grains -->
<g id="edge10" class="edge">
<title>sched&#45;&gt;grains</title>
<path fill="none" stroke="#43a047" stroke-width="1.3" d="M378.68,-141.83C378.68,-170.04 378.68,-219.5 378.68,-219.5 378.68,-219.5 335.63,-219.5 335.63,-219.5"/>
<polygon fill="#43a047" stroke="#43a047" stroke-width="1.3" points="335.63,-217.05 328.63,-219.5 335.63,-221.95 335.63,-217.05"/>
<text xml:space="preserve" text-anchor="middle" x="352.81" y="-193.64" font-family="DejaVu Sans, Verdana, sans-serif" font-size="9.00">grain anchor</text>
</g>
<!-- space -->
<g id="node10" class="node">
<title>space</title>
<path fill="#fdeaf2" stroke="#d81b60" stroke-width="1.5" d="M296.63,-39.42C296.63,-39.42 253.88,-39.42 253.88,-39.42 247.88,-39.42 241.88,-33.42 241.88,-27.42 241.88,-27.42 241.88,-12 241.88,-12 241.88,-6 247.88,0 253.88,0 253.88,0 296.63,0 296.63,0 302.63,0 308.63,-6 308.63,-12 308.63,-12 308.63,-27.42 308.63,-27.42 308.63,-33.42 302.63,-39.42 296.63,-39.42"/>
<text xml:space="preserve" text-anchor="middle" x="275.26" y="-16.01" font-family="DejaVu Sans, Verdana, sans-serif" font-size="11.00" fill="#d81b60">SPACE</text>
</g>
<!-- space&#45;&gt;blag -->
<g id="edge11" class="edge">
<title>space&#45;&gt;blag</title>
<path fill="none" stroke="#d81b60" stroke-width="1.3" stroke-dasharray="5,2" d="M275.68,-39.96C275.68,-39.96 275.68,-61.74 275.68,-61.74"/>
<polygon fill="#d81b60" stroke="#d81b60" stroke-width="1.3" points="273.23,-61.74 275.68,-68.74 278.13,-61.74 273.23,-61.74"/>
<text xml:space="preserve" text-anchor="middle" x="247.56" y="-42.3" font-family="DejaVu Sans, Verdana, sans-serif" font-size="9.00" fill="#d81b60">hold / release</text>
</g>
</g>
</svg>
