<?xml version="1.0" encoding="utf-8" standalone="no"?>
<!DOCTYPE svg PUBLIC "-//W3C//DTD SVG 1.1//EN"
  "http://www.w3.org/Graphics/SVG/1.1/DTD/svg11.dtd">
<svg xmlns:xlink="http://www.w3.org/1999/xlink" width="864pt" height="360pt" viewBox="0 0 864 360" xmlns="http://www.w3.org/2000/svg" version="1.1">
 <metadata>
  <rdf:RDF xmlns:dc="http://purl.org/dc/elements/1.1/" xmlns:cc="http://creativecommons.org/ns#" xmlns:rdf="http://www.w3.org/1999/02/22-rdf-syntax-ns#">
   <cc:Work>
    <dc:type rdf:resource="http://purl.org/dc/dcmitype/StillImage"/>
    <dc:date>2026-06-20T15:29:08.303691</dc:date>
    <dc:format>image/svg+xml</dc:format>
    <dc:creator>
     <cc:Agent>
      <dc:title>Matplotlib v3.9.4, https://matplotlib.org/</dc:title>
     </cc:Agent>
    </dc:creator>
   </cc:Work>
  </rdf:RDF>
 </metadata>
 <defs>
  <style type="text/css">*{stroke-linejoin: round; stroke-linecap: butt}</style>
 </defs>
 <g id="figure_1">
  <g id="patch_1">
   <path d="M 0 360 
L 864 360 
L 864 0 
L 0 0 
z
" style="fill: #ffffff"/>
  </g>
  <g id="axes_1">
   <g id="patch_2">
    <path d="M 52.94 314.728 
L 426.6 314.728 
L 426.6 26.88 
L 52.94 26.88 
z
" style="fill: #ffffff"/>
   </g>
   <g id="matplotlib.axis_1">
    <g id="xtick_1">
     <g id="line2d_1">
      <path d="M 139.999044 314.728 
L 139.999044 26.88 
" clip-path="url(#pb0a8d0c878)" style="fill: none; stroke-dasharray: 1.85,0.8; stroke-dashoffset: 0; stroke: #b0b0b0; stroke-opacity: 0.7; stroke-width: 0.5"/>
     </g>
     <g id="line2d_2">
      <defs>
       <path id="m8c137958b9" d="M 0 0 
L 0 3.5 
" style="stroke: #000000; stroke-width: 0.8"/>
      </defs>
      <g>
       <use xlink:href="#m8c137958b9" x="139.999044" y="314.728" style="stroke: #000000; stroke-width: 0.8"/>
      </g>
     </g>
     <g id="text_1">
      <!-- $\mathdefault{10^{2}}$ -->
      <g transform="translate(131.199044 329.326437) scale(0.1 -0.1)">
       <defs>
        <path id="DejaVuSans-31" d="M 794 531 
L 1825 531 
L 1825 4091 
L 703 3866 
L 703 4441 
L 1819 4666 
L 2450 4666 
L 2450 531 
L 3481 531 
L 3481 0 
L 794 0 
L 794 531 
z
" transform="scale(0.015625)"/>
        <path id="DejaVuSans-30" d="M 2034 4250 
Q 1547 4250 1301 3770 
Q 1056 3291 1056 2328 
Q 1056 1369 1301 889 
Q 1547 409 2034 409 
Q 2525 409 2770 889 
Q 3016 1369 3016 2328 
Q 3016 3291 2770 3770 
Q 2525 4250 2034 4250 
z
M 2034 4750 
Q 2819 4750 3233 4129 
Q 3647 3509 3647 2328 
Q 3647 1150 3233 529 
Q 2819 -91 2034 -91 
Q 1250 -91 836 529 
Q 422 1150 422 2328 
Q 422 3509 836 4129 
Q 1250 4750 2034 4750 
z
" transform="scale(0.015625)"/>
        <path id="DejaVuSans-32" d="M 1228 531 
L 3431 531 
L 3431 0 
L 469 0 
L 469 531 
Q 828 903 1448 1529 
Q 2069 2156 2228 2338 
Q 2531 2678 2651 2914 
Q 2772 3150 2772 3378 
Q 2772 3750 2511 3984 
Q 2250 4219 1831 4219 
Q 1534 4219 1204 4116 
Q 875 4013 500 3803 
L 500 4441 
Q 881 4594 1212 4672 
Q 1544 4750 1819 4750 
Q 2544 4750 2975 4387 
Q 3406 4025 3406 3419 
Q 3406 3131 3298 2873 
Q 3191 2616 2906 2266 
Q 2828 2175 2409 1742 
Q 1991 1309 1228 531 
z
" transform="scale(0.015625)"/>
       </defs>
       <use xlink:href="#DejaVuSans-31" transform="translate(0 0.765625)"/>
       <use xlink:href="#DejaVuSans-30" transform="translate(63.623047 0.765625)"/>
       <use xlink:href="#DejaVuSans-32" transform="translate(128.203125 39.046875) scale(0.7)"/>
      </g>
     </g>
    </g>
    <g id="xtick_2">
     <g id="line2d_3">
      <path d="M 264.552377 314.728 
L 264.552377 26.88 
" clip-path="url(#pb0a8d0c878)" style="fill: none; stroke-dasharray: 1.85,0.8; stroke-dashoffset: 0; stroke: #b0b0b0; stroke-opacity: 0.7; stroke-width: 0.5"/>
     </g>
     <g id="line2d_4">
      <g>
       <use xlink:href="#m8c137958b9" x="264.552377" y="314.728" style="stroke: #000000; stroke-width: 0.8"/>
      </g>
     </g>
     <g id="text_2">
      <!-- $\mathdefault{10^{3}}$ -->
      <g transform="translate(255.752377 329.326437) scale(0.1 -0.1)">
       <defs>
        <path id="DejaVuSans-33" d="M 2597 2516 
Q 3050 2419 3304 2112 
Q 3559 1806 3559 1356 
Q 3559 666 3084 287 
Q 2609 -91 1734 -91 
Q 1441 -91 1130 -33 
Q 819 25 488 141 
L 488 750 
Q 750 597 1062 519 
Q 1375 441 1716 441 
Q 2309 441 2620 675 
Q 2931 909 2931 1356 
Q 2931 1769 2642 2001 
Q 2353 2234 1838 2234 
L 1294 2234 
L 1294 2753 
L 1863 2753 
Q 2328 2753 2575 2939 
Q 2822 3125 2822 3475 
Q 2822 3834 2567 4026 
Q 2313 4219 1838 4219 
Q 1578 4219 1281 4162 
Q 984 4106 628 3988 
L 628 4550 
Q 988 4650 1302 4700 
Q 1616 4750 1894 4750 
Q 2613 4750 3031 4423 
Q 3450 4097 3450 3541 
Q 3450 3153 3228 2886 
Q 3006 2619 2597 2516 
z
" transform="scale(0.015625)"/>
       </defs>
       <use xlink:href="#DejaVuSans-31" transform="translate(0 0.765625)"/>
       <use xlink:href="#DejaVuSans-30" transform="translate(63.623047 0.765625)"/>
       <use xlink:href="#DejaVuSans-33" transform="translate(128.203125 39.046875) scale(0.7)"/>
      </g>
     </g>
    </g>
    <g id="xtick_3">
     <g id="line2d_5">
      <path d="M 389.105711 314.728 
L 389.105711 26.88 
" clip-path="url(#pb0a8d0c878)" style="fill: none; stroke-dasharray: 1.85,0.8; stroke-dashoffset: 0; stroke: #b0b0b0; stroke-opacity: 0.7; stroke-width: 0.5"/>
     </g>
     <g id="line2d_6">
      <g>
       <use xlink:href="#m8c137958b9" x="389.105711" y="314.728" style="stroke: #000000; stroke-width: 0.8"/>
      </g>
     </g>
     <g id="text_3">
      <!-- $\mathdefault{10^{4}}$ -->
      <g transform="translate(380.305711 329.326437) scale(0.1 -0.1)">
       <defs>
        <path id="DejaVuSans-34" d="M 2419 4116 
L 825 1625 
L 2419 1625 
L 2419 4116 
z
M 2253 4666 
L 3047 4666 
L 3047 1625 
L 3713 1625 
L 3713 1100 
L 3047 1100 
L 3047 0 
L 2419 0 
L 2419 1100 
L 313 1100 
L 313 1709 
L 2253 4666 
z
" transform="scale(0.015625)"/>
       </defs>
       <use xlink:href="#DejaVuSans-31" transform="translate(0 0.684375)"/>
       <use xlink:href="#DejaVuSans-30" transform="translate(63.623047 0.684375)"/>
       <use xlink:href="#DejaVuSans-34" transform="translate(128.203125 38.965625) scale(0.7)"/>
      </g>
     </g>
    </g>
    <g id="xtick_4">
     <g id="line2d_7">
      <path d="M 52.94 314.728 
L 52.94 26.88 
" clip-path="url(#pb0a8d0c878)" style="fill: none; stroke-dasharray: 1.85,0.8; stroke-dashoffset: 0; stroke: #b0b0b0; stroke-opacity: 0.7; stroke-width: 0.5"/>
     </g>
     <g id="line2d_8">
      <defs>
       <path id="m3120d66cbf" d="M 0 0 
L 0 2 
" style="stroke: #000000; stroke-width: 0.6"/>
      </defs>
      <g>
       <use xlink:href="#m3120d66cbf" x="52.94" y="314.728" style="stroke: #000000; stroke-width: 0.6"/>
      </g>
     </g>
    </g>
    <g id="xtick_5">
     <g id="line2d_9">
      <path d="M 74.872753 314.728 
L 74.872753 26.88 
" clip-path="url(#pb0a8d0c878)" style="fill: none; stroke-dasharray: 1.85,0.8; stroke-dashoffset: 0; stroke: #b0b0b0; stroke-opacity: 0.7; stroke-width: 0.5"/>
     </g>
     <g id="line2d_10">
      <g>
       <use xlink:href="#m3120d66cbf" x="74.872753" y="314.728" style="stroke: #000000; stroke-width: 0.6"/>
      </g>
     </g>
    </g>
    <g id="xtick_6">
     <g id="line2d_11">
      <path d="M 90.434289 314.728 
L 90.434289 26.88 
" clip-path="url(#pb0a8d0c878)" style="fill: none; stroke-dasharray: 1.85,0.8; stroke-dashoffset: 0; stroke: #b0b0b0; stroke-opacity: 0.7; stroke-width: 0.5"/>
     </g>
     <g id="line2d_12">
      <g>
       <use xlink:href="#m3120d66cbf" x="90.434289" y="314.728" style="stroke: #000000; stroke-width: 0.6"/>
      </g>
     </g>
    </g>
    <g id="xtick_7">
     <g id="line2d_13">
      <path d="M 102.504755 314.728 
L 102.504755 26.88 
" clip-path="url(#pb0a8d0c878)" style="fill: none; stroke-dasharray: 1.85,0.8; stroke-dashoffset: 0; stroke: #b0b0b0; stroke-opacity: 0.7; stroke-width: 0.5"/>
     </g>
     <g id="line2d_14">
      <g>
       <use xlink:href="#m3120d66cbf" x="102.504755" y="314.728" style="stroke: #000000; stroke-width: 0.6"/>
      </g>
     </g>
    </g>
    <g id="xtick_8">
     <g id="line2d_15">
      <path d="M 112.367043 314.728 
L 112.367043 26.88 
" clip-path="url(#pb0a8d0c878)" style="fill: none; stroke-dasharray: 1.85,0.8; stroke-dashoffset: 0; stroke: #b0b0b0; stroke-opacity: 0.7; stroke-width: 0.5"/>
     </g>
     <g id="line2d_16">
      <g>
       <use xlink:href="#m3120d66cbf" x="112.367043" y="314.728" style="stroke: #000000; stroke-width: 0.6"/>
      </g>
     </g>
    </g>
    <g id="xtick_9">
     <g id="line2d_17">
      <path d="M 120.705488 314.728 
L 120.705488 26.88 
" clip-path="url(#pb0a8d0c878)" style="fill: none; stroke-dasharray: 1.85,0.8; stroke-dashoffset: 0; stroke: #b0b0b0; stroke-opacity: 0.7; stroke-width: 0.5"/>
     </g>
     <g id="line2d_18">
      <g>
       <use xlink:href="#m3120d66cbf" x="120.705488" y="314.728" style="stroke: #000000; stroke-width: 0.6"/>
      </g>
     </g>
    </g>
    <g id="xtick_10">
     <g id="line2d_19">
      <path d="M 127.928579 314.728 
L 127.928579 26.88 
" clip-path="url(#pb0a8d0c878)" style="fill: none; stroke-dasharray: 1.85,0.8; stroke-dashoffset: 0; stroke: #b0b0b0; stroke-opacity: 0.7; stroke-width: 0.5"/>
     </g>
     <g id="line2d_20">
      <g>
       <use xlink:href="#m3120d66cbf" x="127.928579" y="314.728" style="stroke: #000000; stroke-width: 0.6"/>
      </g>
     </g>
    </g>
    <g id="xtick_11">
     <g id="line2d_21">
      <path d="M 134.299796 314.728 
L 134.299796 26.88 
" clip-path="url(#pb0a8d0c878)" style="fill: none; stroke-dasharray: 1.85,0.8; stroke-dashoffset: 0; stroke: #b0b0b0; stroke-opacity: 0.7; stroke-width: 0.5"/>
     </g>
     <g id="line2d_22">
      <g>
       <use xlink:href="#m3120d66cbf" x="134.299796" y="314.728" style="stroke: #000000; stroke-width: 0.6"/>
      </g>
     </g>
    </g>
    <g id="xtick_12">
     <g id="line2d_23">
      <path d="M 177.493333 314.728 
L 177.493333 26.88 
" clip-path="url(#pb0a8d0c878)" style="fill: none; stroke-dasharray: 1.85,0.8; stroke-dashoffset: 0; stroke: #b0b0b0; stroke-opacity: 0.7; stroke-width: 0.5"/>
     </g>
     <g id="line2d_24">
      <g>
       <use xlink:href="#m3120d66cbf" x="177.493333" y="314.728" style="stroke: #000000; stroke-width: 0.6"/>
      </g>
     </g>
    </g>
    <g id="xtick_13">
     <g id="line2d_25">
      <path d="M 199.426087 314.728 
L 199.426087 26.88 
" clip-path="url(#pb0a8d0c878)" style="fill: none; stroke-dasharray: 1.85,0.8; stroke-dashoffset: 0; stroke: #b0b0b0; stroke-opacity: 0.7; stroke-width: 0.5"/>
     </g>
     <g id="line2d_26">
      <g>
       <use xlink:href="#m3120d66cbf" x="199.426087" y="314.728" style="stroke: #000000; stroke-width: 0.6"/>
      </g>
     </g>
    </g>
    <g id="xtick_14">
     <g id="line2d_27">
      <path d="M 214.987623 314.728 
L 214.987623 26.88 
" clip-path="url(#pb0a8d0c878)" style="fill: none; stroke-dasharray: 1.85,0.8; stroke-dashoffset: 0; stroke: #b0b0b0; stroke-opacity: 0.7; stroke-width: 0.5"/>
     </g>
     <g id="line2d_28">
      <g>
       <use xlink:href="#m3120d66cbf" x="214.987623" y="314.728" style="stroke: #000000; stroke-width: 0.6"/>
      </g>
     </g>
    </g>
    <g id="xtick_15">
     <g id="line2d_29">
      <path d="M 227.058088 314.728 
L 227.058088 26.88 
" clip-path="url(#pb0a8d0c878)" style="fill: none; stroke-dasharray: 1.85,0.8; stroke-dashoffset: 0; stroke: #b0b0b0; stroke-opacity: 0.7; stroke-width: 0.5"/>
     </g>
     <g id="line2d_30">
      <g>
       <use xlink:href="#m3120d66cbf" x="227.058088" y="314.728" style="stroke: #000000; stroke-width: 0.6"/>
      </g>
     </g>
    </g>
    <g id="xtick_16">
     <g id="line2d_31">
      <path d="M 236.920376 314.728 
L 236.920376 26.88 
" clip-path="url(#pb0a8d0c878)" style="fill: none; stroke-dasharray: 1.85,0.8; stroke-dashoffset: 0; stroke: #b0b0b0; stroke-opacity: 0.7; stroke-width: 0.5"/>
     </g>
     <g id="line2d_32">
      <g>
       <use xlink:href="#m3120d66cbf" x="236.920376" y="314.728" style="stroke: #000000; stroke-width: 0.6"/>
      </g>
     </g>
    </g>
    <g id="xtick_17">
     <g id="line2d_33">
      <path d="M 245.258822 314.728 
L 245.258822 26.88 
" clip-path="url(#pb0a8d0c878)" style="fill: none; stroke-dasharray: 1.85,0.8; stroke-dashoffset: 0; stroke: #b0b0b0; stroke-opacity: 0.7; stroke-width: 0.5"/>
     </g>
     <g id="line2d_34">
      <g>
       <use xlink:href="#m3120d66cbf" x="245.258822" y="314.728" style="stroke: #000000; stroke-width: 0.6"/>
      </g>
     </g>
    </g>
    <g id="xtick_18">
     <g id="line2d_35">
      <path d="M 252.481912 314.728 
L 252.481912 26.88 
" clip-path="url(#pb0a8d0c878)" style="fill: none; stroke-dasharray: 1.85,0.8; stroke-dashoffset: 0; stroke: #b0b0b0; stroke-opacity: 0.7; stroke-width: 0.5"/>
     </g>
     <g id="line2d_36">
      <g>
       <use xlink:href="#m3120d66cbf" x="252.481912" y="314.728" style="stroke: #000000; stroke-width: 0.6"/>
      </g>
     </g>
    </g>
    <g id="xtick_19">
     <g id="line2d_37">
      <path d="M 258.853129 314.728 
L 258.853129 26.88 
" clip-path="url(#pb0a8d0c878)" style="fill: none; stroke-dasharray: 1.85,0.8; stroke-dashoffset: 0; stroke: #b0b0b0; stroke-opacity: 0.7; stroke-width: 0.5"/>
     </g>
     <g id="line2d_38">
      <g>
       <use xlink:href="#m3120d66cbf" x="258.853129" y="314.728" style="stroke: #000000; stroke-width: 0.6"/>
      </g>
     </g>
    </g>
    <g id="xtick_20">
     <g id="line2d_39">
      <path d="M 302.046667 314.728 
L 302.046667 26.88 
" clip-path="url(#pb0a8d0c878)" style="fill: none; stroke-dasharray: 1.85,0.8; stroke-dashoffset: 0; stroke: #b0b0b0; stroke-opacity: 0.7; stroke-width: 0.5"/>
     </g>
     <g id="line2d_40">
      <g>
       <use xlink:href="#m3120d66cbf" x="302.046667" y="314.728" style="stroke: #000000; stroke-width: 0.6"/>
      </g>
     </g>
    </g>
    <g id="xtick_21">
     <g id="line2d_41">
      <path d="M 323.97942 314.728 
L 323.97942 26.88 
" clip-path="url(#pb0a8d0c878)" style="fill: none; stroke-dasharray: 1.85,0.8; stroke-dashoffset: 0; stroke: #b0b0b0; stroke-opacity: 0.7; stroke-width: 0.5"/>
     </g>
     <g id="line2d_42">
      <g>
       <use xlink:href="#m3120d66cbf" x="323.97942" y="314.728" style="stroke: #000000; stroke-width: 0.6"/>
      </g>
     </g>
    </g>
    <g id="xtick_22">
     <g id="line2d_43">
      <path d="M 339.540956 314.728 
L 339.540956 26.88 
" clip-path="url(#pb0a8d0c878)" style="fill: none; stroke-dasharray: 1.85,0.8; stroke-dashoffset: 0; stroke: #b0b0b0; stroke-opacity: 0.7; stroke-width: 0.5"/>
     </g>
     <g id="line2d_44">
      <g>
       <use xlink:href="#m3120d66cbf" x="339.540956" y="314.728" style="stroke: #000000; stroke-width: 0.6"/>
      </g>
     </g>
    </g>
    <g id="xtick_23">
     <g id="line2d_45">
      <path d="M 351.611421 314.728 
L 351.611421 26.88 
" clip-path="url(#pb0a8d0c878)" style="fill: none; stroke-dasharray: 1.85,0.8; stroke-dashoffset: 0; stroke: #b0b0b0; stroke-opacity: 0.7; stroke-width: 0.5"/>
     </g>
     <g id="line2d_46">
      <g>
       <use xlink:href="#m3120d66cbf" x="351.611421" y="314.728" style="stroke: #000000; stroke-width: 0.6"/>
      </g>
     </g>
    </g>
    <g id="xtick_24">
     <g id="line2d_47">
      <path d="M 361.473709 314.728 
L 361.473709 26.88 
" clip-path="url(#pb0a8d0c878)" style="fill: none; stroke-dasharray: 1.85,0.8; stroke-dashoffset: 0; stroke: #b0b0b0; stroke-opacity: 0.7; stroke-width: 0.5"/>
     </g>
     <g id="line2d_48">
      <g>
       <use xlink:href="#m3120d66cbf" x="361.473709" y="314.728" style="stroke: #000000; stroke-width: 0.6"/>
      </g>
     </g>
    </g>
    <g id="xtick_25">
     <g id="line2d_49">
      <path d="M 369.812155 314.728 
L 369.812155 26.88 
" clip-path="url(#pb0a8d0c878)" style="fill: none; stroke-dasharray: 1.85,0.8; stroke-dashoffset: 0; stroke: #b0b0b0; stroke-opacity: 0.7; stroke-width: 0.5"/>
     </g>
     <g id="line2d_50">
      <g>
       <use xlink:href="#m3120d66cbf" x="369.812155" y="314.728" style="stroke: #000000; stroke-width: 0.6"/>
      </g>
     </g>
    </g>
    <g id="xtick_26">
     <g id="line2d_51">
      <path d="M 377.035245 314.728 
L 377.035245 26.88 
" clip-path="url(#pb0a8d0c878)" style="fill: none; stroke-dasharray: 1.85,0.8; stroke-dashoffset: 0; stroke: #b0b0b0; stroke-opacity: 0.7; stroke-width: 0.5"/>
     </g>
     <g id="line2d_52">
      <g>
       <use xlink:href="#m3120d66cbf" x="377.035245" y="314.728" style="stroke: #000000; stroke-width: 0.6"/>
      </g>
     </g>
    </g>
    <g id="xtick_27">
     <g id="line2d_53">
      <path d="M 383.406463 314.728 
L 383.406463 26.88 
" clip-path="url(#pb0a8d0c878)" style="fill: none; stroke-dasharray: 1.85,0.8; stroke-dashoffset: 0; stroke: #b0b0b0; stroke-opacity: 0.7; stroke-width: 0.5"/>
     </g>
     <g id="line2d_54">
      <g>
       <use xlink:href="#m3120d66cbf" x="383.406463" y="314.728" style="stroke: #000000; stroke-width: 0.6"/>
      </g>
     </g>
    </g>
    <g id="xtick_28">
     <g id="line2d_55">
      <path d="M 426.6 314.728 
L 426.6 26.88 
" clip-path="url(#pb0a8d0c878)" style="fill: none; stroke-dasharray: 1.85,0.8; stroke-dashoffset: 0; stroke: #b0b0b0; stroke-opacity: 0.7; stroke-width: 0.5"/>
     </g>
     <g id="line2d_56">
      <g>
       <use xlink:href="#m3120d66cbf" x="426.6" y="314.728" style="stroke: #000000; stroke-width: 0.6"/>
      </g>
     </g>
    </g>
    <g id="text_4">
     <!-- Frequency (Hz) -->
     <g style="fill: #1a1a1a" transform="translate(202.065313 343.004562) scale(0.1 -0.1)">
      <defs>
       <path id="DejaVuSans-46" d="M 628 4666 
L 3309 4666 
L 3309 4134 
L 1259 4134 
L 1259 2759 
L 3109 2759 
L 3109 2228 
L 1259 2228 
L 1259 0 
L 628 0 
L 628 4666 
z
" transform="scale(0.015625)"/>
       <path id="DejaVuSans-72" d="M 2631 2963 
Q 2534 3019 2420 3045 
Q 2306 3072 2169 3072 
Q 1681 3072 1420 2755 
Q 1159 2438 1159 1844 
L 1159 0 
L 581 0 
L 581 3500 
L 1159 3500 
L 1159 2956 
Q 1341 3275 1631 3429 
Q 1922 3584 2338 3584 
Q 2397 3584 2469 3576 
Q 2541 3569 2628 3553 
L 2631 2963 
z
" transform="scale(0.015625)"/>
       <path id="DejaVuSans-65" d="M 3597 1894 
L 3597 1613 
L 953 1613 
Q 991 1019 1311 708 
Q 1631 397 2203 397 
Q 2534 397 2845 478 
Q 3156 559 3463 722 
L 3463 178 
Q 3153 47 2828 -22 
Q 2503 -91 2169 -91 
Q 1331 -91 842 396 
Q 353 884 353 1716 
Q 353 2575 817 3079 
Q 1281 3584 2069 3584 
Q 2775 3584 3186 3129 
Q 3597 2675 3597 1894 
z
M 3022 2063 
Q 3016 2534 2758 2815 
Q 2500 3097 2075 3097 
Q 1594 3097 1305 2825 
Q 1016 2553 972 2059 
L 3022 2063 
z
" transform="scale(0.015625)"/>
       <path id="DejaVuSans-71" d="M 947 1747 
Q 947 1113 1208 752 
Q 1469 391 1925 391 
Q 2381 391 2643 752 
Q 2906 1113 2906 1747 
Q 2906 2381 2643 2742 
Q 2381 3103 1925 3103 
Q 1469 3103 1208 2742 
Q 947 2381 947 1747 
z
M 2906 525 
Q 2725 213 2448 61 
Q 2172 -91 1784 -91 
Q 1150 -91 751 415 
Q 353 922 353 1747 
Q 353 2572 751 3078 
Q 1150 3584 1784 3584 
Q 2172 3584 2448 3432 
Q 2725 3281 2906 2969 
L 2906 3500 
L 3481 3500 
L 3481 -1331 
L 2906 -1331 
L 2906 525 
z
" transform="scale(0.015625)"/>
       <path id="DejaVuSans-75" d="M 544 1381 
L 544 3500 
L 1119 3500 
L 1119 1403 
Q 1119 906 1312 657 
Q 1506 409 1894 409 
Q 2359 409 2629 706 
Q 2900 1003 2900 1516 
L 2900 3500 
L 3475 3500 
L 3475 0 
L 2900 0 
L 2900 538 
Q 2691 219 2414 64 
Q 2138 -91 1772 -91 
Q 1169 -91 856 284 
Q 544 659 544 1381 
z
M 1991 3584 
L 1991 3584 
z
" transform="scale(0.015625)"/>
       <path id="DejaVuSans-6e" d="M 3513 2113 
L 3513 0 
L 2938 0 
L 2938 2094 
Q 2938 2591 2744 2837 
Q 2550 3084 2163 3084 
Q 1697 3084 1428 2787 
Q 1159 2491 1159 1978 
L 1159 0 
L 581 0 
L 581 3500 
L 1159 3500 
L 1159 2956 
Q 1366 3272 1645 3428 
Q 1925 3584 2291 3584 
Q 2894 3584 3203 3211 
Q 3513 2838 3513 2113 
z
" transform="scale(0.015625)"/>
       <path id="DejaVuSans-63" d="M 3122 3366 
L 3122 2828 
Q 2878 2963 2633 3030 
Q 2388 3097 2138 3097 
Q 1578 3097 1268 2742 
Q 959 2388 959 1747 
Q 959 1106 1268 751 
Q 1578 397 2138 397 
Q 2388 397 2633 464 
Q 2878 531 3122 666 
L 3122 134 
Q 2881 22 2623 -34 
Q 2366 -91 2075 -91 
Q 1284 -91 818 406 
Q 353 903 353 1747 
Q 353 2603 823 3093 
Q 1294 3584 2113 3584 
Q 2378 3584 2631 3529 
Q 2884 3475 3122 3366 
z
" transform="scale(0.015625)"/>
       <path id="DejaVuSans-79" d="M 2059 -325 
Q 1816 -950 1584 -1140 
Q 1353 -1331 966 -1331 
L 506 -1331 
L 506 -850 
L 844 -850 
Q 1081 -850 1212 -737 
Q 1344 -625 1503 -206 
L 1606 56 
L 191 3500 
L 800 3500 
L 1894 763 
L 2988 3500 
L 3597 3500 
L 2059 -325 
z
" transform="scale(0.015625)"/>
       <path id="DejaVuSans-20" transform="scale(0.015625)"/>
       <path id="DejaVuSans-28" d="M 1984 4856 
Q 1566 4138 1362 3434 
Q 1159 2731 1159 2009 
Q 1159 1288 1364 580 
Q 1569 -128 1984 -844 
L 1484 -844 
Q 1016 -109 783 600 
Q 550 1309 550 2009 
Q 550 2706 781 3412 
Q 1013 4119 1484 4856 
L 1984 4856 
z
" transform="scale(0.015625)"/>
       <path id="DejaVuSans-48" d="M 628 4666 
L 1259 4666 
L 1259 2753 
L 3553 2753 
L 3553 4666 
L 4184 4666 
L 4184 0 
L 3553 0 
L 3553 2222 
L 1259 2222 
L 1259 0 
L 628 0 
L 628 4666 
z
" transform="scale(0.015625)"/>
       <path id="DejaVuSans-7a" d="M 353 3500 
L 3084 3500 
L 3084 2975 
L 922 459 
L 3084 459 
L 3084 0 
L 275 0 
L 275 525 
L 2438 3041 
L 353 3041 
L 353 3500 
z
" transform="scale(0.015625)"/>
       <path id="DejaVuSans-29" d="M 513 4856 
L 1013 4856 
Q 1481 4119 1714 3412 
Q 1947 2706 1947 2009 
Q 1947 1309 1714 600 
Q 1481 -109 1013 -844 
L 513 -844 
Q 928 -128 1133 580 
Q 1338 1288 1338 2009 
Q 1338 2731 1133 3434 
Q 928 4138 513 4856 
z
" transform="scale(0.015625)"/>
      </defs>
      <use xlink:href="#DejaVuSans-46"/>
      <use xlink:href="#DejaVuSans-72" x="50.269531"/>
      <use xlink:href="#DejaVuSans-65" x="89.132812"/>
      <use xlink:href="#DejaVuSans-71" x="150.65625"/>
      <use xlink:href="#DejaVuSans-75" x="214.132812"/>
      <use xlink:href="#DejaVuSans-65" x="277.511719"/>
      <use xlink:href="#DejaVuSans-6e" x="339.035156"/>
      <use xlink:href="#DejaVuSans-63" x="402.414062"/>
      <use xlink:href="#DejaVuSans-79" x="457.394531"/>
      <use xlink:href="#DejaVuSans-20" x="516.574219"/>
      <use xlink:href="#DejaVuSans-28" x="548.361328"/>
      <use xlink:href="#DejaVuSans-48" x="587.375"/>
      <use xlink:href="#DejaVuSans-7a" x="662.570312"/>
      <use xlink:href="#DejaVuSans-29" x="715.060547"/>
     </g>
    </g>
   </g>
   <g id="matplotlib.axis_2">
    <g id="ytick_1">
     <g id="line2d_57">
      <path d="M 52.94 314.728 
L 426.6 314.728 
" clip-path="url(#pb0a8d0c878)" style="fill: none; stroke-dasharray: 1.85,0.8; stroke-dashoffset: 0; stroke: #b0b0b0; stroke-opacity: 0.7; stroke-width: 0.5"/>
     </g>
     <g id="line2d_58">
      <defs>
       <path id="m4f641e47b5" d="M 0 0 
L -3.5 0 
" style="stroke: #000000; stroke-width: 0.8"/>
      </defs>
      <g>
       <use xlink:href="#m4f641e47b5" x="52.94" y="314.728" style="stroke: #000000; stroke-width: 0.8"/>
      </g>
     </g>
     <g id="text_5">
      <!-- −40 -->
      <g transform="translate(24.835313 318.527219) scale(0.1 -0.1)">
       <defs>
        <path id="DejaVuSans-2212" d="M 678 2272 
L 4684 2272 
L 4684 1741 
L 678 1741 
L 678 2272 
z
" transform="scale(0.015625)"/>
       </defs>
       <use xlink:href="#DejaVuSans-2212"/>
       <use xlink:href="#DejaVuSans-34" x="83.789062"/>
       <use xlink:href="#DejaVuSans-30" x="147.412109"/>
      </g>
     </g>
    </g>
    <g id="ytick_2">
     <g id="line2d_59">
      <path d="M 52.94 259.372615 
L 426.6 259.372615 
" clip-path="url(#pb0a8d0c878)" style="fill: none; stroke-dasharray: 1.85,0.8; stroke-dashoffset: 0; stroke: #b0b0b0; stroke-opacity: 0.7; stroke-width: 0.5"/>
     </g>
     <g id="line2d_60">
      <g>
       <use xlink:href="#m4f641e47b5" x="52.94" y="259.372615" style="stroke: #000000; stroke-width: 0.8"/>
      </g>
     </g>
     <g id="text_6">
      <!-- −30 -->
      <g transform="translate(24.835313 263.171834) scale(0.1 -0.1)">
       <use xlink:href="#DejaVuSans-2212"/>
       <use xlink:href="#DejaVuSans-33" x="83.789062"/>
       <use xlink:href="#DejaVuSans-30" x="147.412109"/>
      </g>
     </g>
    </g>
    <g id="ytick_3">
     <g id="line2d_61">
      <path d="M 52.94 204.017231 
L 426.6 204.017231 
" clip-path="url(#pb0a8d0c878)" style="fill: none; stroke-dasharray: 1.85,0.8; stroke-dashoffset: 0; stroke: #b0b0b0; stroke-opacity: 0.7; stroke-width: 0.5"/>
     </g>
     <g id="line2d_62">
      <g>
       <use xlink:href="#m4f641e47b5" x="52.94" y="204.017231" style="stroke: #000000; stroke-width: 0.8"/>
      </g>
     </g>
     <g id="text_7">
      <!-- −20 -->
      <g transform="translate(24.835313 207.81645) scale(0.1 -0.1)">
       <use xlink:href="#DejaVuSans-2212"/>
       <use xlink:href="#DejaVuSans-32" x="83.789062"/>
       <use xlink:href="#DejaVuSans-30" x="147.412109"/>
      </g>
     </g>
    </g>
    <g id="ytick_4">
     <g id="line2d_63">
      <path d="M 52.94 148.661846 
L 426.6 148.661846 
" clip-path="url(#pb0a8d0c878)" style="fill: none; stroke-dasharray: 1.85,0.8; stroke-dashoffset: 0; stroke: #b0b0b0; stroke-opacity: 0.7; stroke-width: 0.5"/>
     </g>
     <g id="line2d_64">
      <g>
       <use xlink:href="#m4f641e47b5" x="52.94" y="148.661846" style="stroke: #000000; stroke-width: 0.8"/>
      </g>
     </g>
     <g id="text_8">
      <!-- −10 -->
      <g transform="translate(24.835313 152.461065) scale(0.1 -0.1)">
       <use xlink:href="#DejaVuSans-2212"/>
       <use xlink:href="#DejaVuSans-31" x="83.789062"/>
       <use xlink:href="#DejaVuSans-30" x="147.412109"/>
      </g>
     </g>
    </g>
    <g id="ytick_5">
     <g id="line2d_65">
      <path d="M 52.94 93.306462 
L 426.6 93.306462 
" clip-path="url(#pb0a8d0c878)" style="fill: none; stroke-dasharray: 1.85,0.8; stroke-dashoffset: 0; stroke: #b0b0b0; stroke-opacity: 0.7; stroke-width: 0.5"/>
     </g>
     <g id="line2d_66">
      <g>
       <use xlink:href="#m4f641e47b5" x="52.94" y="93.306462" style="stroke: #000000; stroke-width: 0.8"/>
      </g>
     </g>
     <g id="text_9">
      <!-- 0 -->
      <g transform="translate(39.5775 97.10568) scale(0.1 -0.1)">
       <use xlink:href="#DejaVuSans-30"/>
      </g>
     </g>
    </g>
    <g id="ytick_6">
     <g id="line2d_67">
      <path d="M 52.94 37.951077 
L 426.6 37.951077 
" clip-path="url(#pb0a8d0c878)" style="fill: none; stroke-dasharray: 1.85,0.8; stroke-dashoffset: 0; stroke: #b0b0b0; stroke-opacity: 0.7; stroke-width: 0.5"/>
     </g>
     <g id="line2d_68">
      <g>
       <use xlink:href="#m4f641e47b5" x="52.94" y="37.951077" style="stroke: #000000; stroke-width: 0.8"/>
      </g>
     </g>
     <g id="text_10">
      <!-- 10 -->
      <g transform="translate(33.215 41.750296) scale(0.1 -0.1)">
       <use xlink:href="#DejaVuSans-31"/>
       <use xlink:href="#DejaVuSans-30" x="63.623047"/>
      </g>
     </g>
    </g>
    <g id="text_11">
     <!-- Magnitude (dB) -->
     <g style="fill: #1a1a1a" transform="translate(18.755625 209.389156) rotate(-90) scale(0.1 -0.1)">
      <defs>
       <path id="DejaVuSans-4d" d="M 628 4666 
L 1569 4666 
L 2759 1491 
L 3956 4666 
L 4897 4666 
L 4897 0 
L 4281 0 
L 4281 4097 
L 3078 897 
L 2444 897 
L 1241 4097 
L 1241 0 
L 628 0 
L 628 4666 
z
" transform="scale(0.015625)"/>
       <path id="DejaVuSans-61" d="M 2194 1759 
Q 1497 1759 1228 1600 
Q 959 1441 959 1056 
Q 959 750 1161 570 
Q 1363 391 1709 391 
Q 2188 391 2477 730 
Q 2766 1069 2766 1631 
L 2766 1759 
L 2194 1759 
z
M 3341 1997 
L 3341 0 
L 2766 0 
L 2766 531 
Q 2569 213 2275 61 
Q 1981 -91 1556 -91 
Q 1019 -91 701 211 
Q 384 513 384 1019 
Q 384 1609 779 1909 
Q 1175 2209 1959 2209 
L 2766 2209 
L 2766 2266 
Q 2766 2663 2505 2880 
Q 2244 3097 1772 3097 
Q 1472 3097 1187 3025 
Q 903 2953 641 2809 
L 641 3341 
Q 956 3463 1253 3523 
Q 1550 3584 1831 3584 
Q 2591 3584 2966 3190 
Q 3341 2797 3341 1997 
z
" transform="scale(0.015625)"/>
       <path id="DejaVuSans-67" d="M 2906 1791 
Q 2906 2416 2648 2759 
Q 2391 3103 1925 3103 
Q 1463 3103 1205 2759 
Q 947 2416 947 1791 
Q 947 1169 1205 825 
Q 1463 481 1925 481 
Q 2391 481 2648 825 
Q 2906 1169 2906 1791 
z
M 3481 434 
Q 3481 -459 3084 -895 
Q 2688 -1331 1869 -1331 
Q 1566 -1331 1297 -1286 
Q 1028 -1241 775 -1147 
L 775 -588 
Q 1028 -725 1275 -790 
Q 1522 -856 1778 -856 
Q 2344 -856 2625 -561 
Q 2906 -266 2906 331 
L 2906 616 
Q 2728 306 2450 153 
Q 2172 0 1784 0 
Q 1141 0 747 490 
Q 353 981 353 1791 
Q 353 2603 747 3093 
Q 1141 3584 1784 3584 
Q 2172 3584 2450 3431 
Q 2728 3278 2906 2969 
L 2906 3500 
L 3481 3500 
L 3481 434 
z
" transform="scale(0.015625)"/>
       <path id="DejaVuSans-69" d="M 603 3500 
L 1178 3500 
L 1178 0 
L 603 0 
L 603 3500 
z
M 603 4863 
L 1178 4863 
L 1178 4134 
L 603 4134 
L 603 4863 
z
" transform="scale(0.015625)"/>
       <path id="DejaVuSans-74" d="M 1172 4494 
L 1172 3500 
L 2356 3500 
L 2356 3053 
L 1172 3053 
L 1172 1153 
Q 1172 725 1289 603 
Q 1406 481 1766 481 
L 2356 481 
L 2356 0 
L 1766 0 
Q 1100 0 847 248 
Q 594 497 594 1153 
L 594 3053 
L 172 3053 
L 172 3500 
L 594 3500 
L 594 4494 
L 1172 4494 
z
" transform="scale(0.015625)"/>
       <path id="DejaVuSans-64" d="M 2906 2969 
L 2906 4863 
L 3481 4863 
L 3481 0 
L 2906 0 
L 2906 525 
Q 2725 213 2448 61 
Q 2172 -91 1784 -91 
Q 1150 -91 751 415 
Q 353 922 353 1747 
Q 353 2572 751 3078 
Q 1150 3584 1784 3584 
Q 2172 3584 2448 3432 
Q 2725 3281 2906 2969 
z
M 947 1747 
Q 947 1113 1208 752 
Q 1469 391 1925 391 
Q 2381 391 2643 752 
Q 2906 1113 2906 1747 
Q 2906 2381 2643 2742 
Q 2381 3103 1925 3103 
Q 1469 3103 1208 2742 
Q 947 2381 947 1747 
z
" transform="scale(0.015625)"/>
       <path id="DejaVuSans-42" d="M 1259 2228 
L 1259 519 
L 2272 519 
Q 2781 519 3026 730 
Q 3272 941 3272 1375 
Q 3272 1813 3026 2020 
Q 2781 2228 2272 2228 
L 1259 2228 
z
M 1259 4147 
L 1259 2741 
L 2194 2741 
Q 2656 2741 2882 2914 
Q 3109 3088 3109 3444 
Q 3109 3797 2882 3972 
Q 2656 4147 2194 4147 
L 1259 4147 
z
M 628 4666 
L 2241 4666 
Q 2963 4666 3353 4366 
Q 3744 4066 3744 3513 
Q 3744 3084 3544 2831 
Q 3344 2578 2956 2516 
Q 3422 2416 3680 2098 
Q 3938 1781 3938 1306 
Q 3938 681 3513 340 
Q 3088 0 2303 0 
L 628 0 
L 628 4666 
z
" transform="scale(0.015625)"/>
      </defs>
      <use xlink:href="#DejaVuSans-4d"/>
      <use xlink:href="#DejaVuSans-61" x="86.279297"/>
      <use xlink:href="#DejaVuSans-67" x="147.558594"/>
      <use xlink:href="#DejaVuSans-6e" x="211.035156"/>
      <use xlink:href="#DejaVuSans-69" x="274.414062"/>
      <use xlink:href="#DejaVuSans-74" x="302.197266"/>
      <use xlink:href="#DejaVuSans-75" x="341.40625"/>
      <use xlink:href="#DejaVuSans-64" x="404.785156"/>
      <use xlink:href="#DejaVuSans-65" x="468.261719"/>
      <use xlink:href="#DejaVuSans-20" x="529.785156"/>
      <use xlink:href="#DejaVuSans-28" x="561.572266"/>
      <use xlink:href="#DejaVuSans-64" x="600.585938"/>
      <use xlink:href="#DejaVuSans-42" x="664.0625"/>
      <use xlink:href="#DejaVuSans-29" x="732.666016"/>
     </g>
    </g>
   </g>
   <g id="line2d_69">
    <path d="M 50.287594 93.291247 
L 113.723347 93.147488 
L 140.57702 92.876553 
L 157.874304 92.489247 
L 170.511191 91.997959 
L 180.747826 91.387706 
L 189.352085 90.655542 
L 196.495568 89.834743 
L 202.804788 88.894862 
L 208.454387 87.831994 
L 213.569327 86.641945 
L 218.055266 85.378117 
L 222.197505 83.989741 
L 226.044984 82.473436 
L 229.636881 80.826645 
L 233.146835 78.968041 
L 236.442849 76.96807 
L 239.675162 74.741818 
L 242.843666 72.289735 
L 246.282927 69.333878 
L 250.859877 65.062834 
L 254.700653 61.569454 
L 256.661091 60.066806 
L 258.197665 59.155318 
L 259.431106 58.66198 
L 260.551794 58.444551 
L 261.566064 58.469456 
L 262.561666 58.723291 
L 263.539274 59.211479 
L 264.578783 60.00283 
L 265.676357 61.147673 
L 266.828128 62.683783 
L 268.104493 64.761908 
L 269.568529 67.57772 
L 271.344552 71.501519 
L 273.603025 77.070363 
L 276.980865 86.06285 
L 286.958479 112.906968 
L 291.813334 125.16937 
L 296.750902 137.03481 
L 302.073073 149.23809 
L 307.92259 162.086413 
L 314.56953 176.139488 
L 322.425383 192.21332 
L 332.558814 212.411829 
L 365.12467 276.950012 
L 372.638611 292.559549 
L 378.929791 306.131854 
L 384.392296 318.437749 
L 389.227072 329.871365 
L 393.562889 340.690398 
L 397.488662 351.079133 
L 401.007693 361 
L 401.007693 361 
" clip-path="url(#pb0a8d0c878)" style="fill: none; stroke: #1565c0; stroke-width: 1.6; stroke-linecap: square"/>
   </g>
   <g id="line2d_70">
    <path d="M 113.957071 361 
L 149.250407 297.823993 
L 169.602047 260.970497 
L 184.355351 233.808256 
L 195.652546 212.555409 
L 204.993111 194.513162 
L 212.749723 179.057379 
L 219.532295 165.054279 
L 225.558389 152.104112 
L 230.979944 139.926729 
L 235.907272 128.323934 
L 240.670001 116.537906 
L 245.49977 103.97158 
L 252.270198 85.620821 
L 256.200724 75.274445 
L 258.552956 69.681458 
L 260.380884 65.897336 
L 261.899972 63.256321 
L 263.215363 61.40614 
L 264.340663 60.173845 
L 265.44303 59.289898 
L 266.446923 58.760426 
L 267.432523 58.485184 
L 268.400487 58.434221 
L 269.423895 58.593664 
L 270.570276 58.998687 
L 271.900782 59.716088 
L 273.535954 60.873553 
L 275.706535 62.715155 
L 279.742869 66.506451 
L 284.329753 70.702648 
L 287.738302 73.513466 
L 290.993364 75.908189 
L 294.246985 78.025137 
L 297.574777 79.926418 
L 301.073916 81.668464 
L 304.776346 83.260773 
L 308.733909 84.717522 
L 313.007059 86.049374 
L 317.654405 87.260614 
L 322.750592 88.355157 
L 328.414703 89.339805 
L 334.766991 90.213984 
L 342.006307 90.980957 
L 350.420407 91.642512 
L 360.406755 92.19723 
L 372.638611 92.645301 
L 388.334273 92.986727 
L 409.85285 93.217993 
L 426.602641 93.293491 
L 426.602641 93.293491 
" clip-path="url(#pb0a8d0c878)" style="fill: none; stroke: #fb8c00; stroke-width: 1.6; stroke-linecap: square"/>
   </g>
   <g id="line2d_71">
    <path d="M 50.287594 283.811845 
L 119.807598 221.833909 
L 147.208926 197.126616 
L 164.811943 180.970986 
L 178.07131 168.506411 
L 188.388982 158.513339 
L 197.050371 149.824075 
L 204.51441 142.024499 
L 211.072292 134.84879 
L 216.92041 128.114856 
L 222.197505 121.691773 
L 227.005237 115.482322 
L 231.420322 109.413603 
L 235.502081 103.432696 
L 239.549511 97.09908 
L 243.549234 90.413332 
L 247.923887 82.644021 
L 256.015474 68.133714 
L 258.019141 65.067757 
L 259.605038 63.021774 
L 260.892002 61.690303 
L 262.066156 60.783208 
L 263.134082 60.243711 
L 264.101491 60.006062 
L 265.051901 60.012169 
L 265.985901 60.249472 
L 266.979861 60.746627 
L 268.03024 61.530074 
L 269.206218 62.69225 
L 270.570276 64.364918 
L 272.245543 66.79879 
L 274.401458 70.360643 
L 277.731298 76.352287 
L 285.364272 90.166347 
L 289.465356 97.067818 
L 293.509763 103.440012 
L 297.660775 109.566651 
L 302.073073 115.680087 
L 306.809455 121.85941 
L 311.994727 128.25427 
L 317.77303 135.020536 
L 324.347937 142.368758 
L 332.106152 150.695842 
L 342.138633 161.118828 
L 372.369358 192.313862 
L 379.680103 200.306737 
L 385.732838 207.246904 
L 390.939013 213.548669 
L 395.519171 219.437181 
L 399.598214 225.040099 
L 403.263184 230.449117 
L 406.580916 235.739784 
L 409.598473 240.968252 
L 412.358694 246.194501 
L 414.891493 251.466193 
L 417.221532 256.830339 
L 419.364834 262.323192 
L 421.343545 268.007314 
L 423.172282 273.940897 
L 424.859443 280.175815 
L 426.416121 286.788875 
L 426.602641 287.64948 
L 426.602641 287.64948 
" clip-path="url(#pb0a8d0c878)" style="fill: none; stroke: #43a047; stroke-width: 1.6; stroke-linecap: square"/>
   </g>
   <g id="line2d_72">
    <path d="M 50.287594 93.308636 
L 157.874304 93.426839 
L 185.733586 93.667152 
L 201.549678 94.011868 
L 212.126767 94.455199 
L 219.71412 94.988227 
L 225.395213 95.599923 
L 229.938234 96.306595 
L 233.569989 97.087858 
L 236.575919 97.949859 
L 239.170797 98.91735 
L 241.404304 99.979015 
L 243.432277 101.191097 
L 245.160629 102.470669 
L 246.835463 103.993675 
L 248.353197 105.684653 
L 249.725382 107.539676 
L 251.063617 109.728792 
L 252.369542 112.325448 
L 253.547654 115.164256 
L 254.700653 118.522808 
L 255.829588 122.52138 
L 256.935442 127.319123 
L 257.929657 132.604378 
L 258.905929 138.982776 
L 259.864892 146.810041 
L 260.722165 155.65928 
L 261.482264 165.655954 
L 262.23183 178.609761 
L 262.889502 194.299641 
L 263.377561 210.826281 
L 263.78094 230.947638 
L 264.101491 256.717682 
L 264.340663 293.044925 
L 264.502462 361 
M 264.616949 361 
L 264.81586 282.529127 
L 265.130354 244.792617 
L 265.598693 216.353538 
L 266.140012 196.486568 
L 266.828128 179.509721 
L 267.582573 166.240406 
L 268.474233 154.589225 
L 269.423895 145.139539 
L 270.4283 137.332813 
L 271.484147 130.818391 
L 272.58812 125.353519 
L 273.736918 120.756767 
L 274.927273 116.884793 
L 276.155973 113.620228 
L 277.419882 110.865077 
L 278.7769 108.437845 
L 280.160116 106.406345 
L 281.624548 104.636417 
L 283.218978 103.057203 
L 284.931094 101.67485 
L 286.801156 100.450487 
L 288.912615 99.340843 
L 291.284187 98.353234 
L 294.017681 97.464685 
L 297.186084 96.675629 
L 300.952767 95.973138 
L 305.561669 95.349047 
L 311.29803 94.806835 
L 318.654518 94.345227 
L 328.487654 93.96342 
L 342.308291 93.664502 
L 363.317224 93.452198 
L 400.285651 93.330535 
L 426.602641 93.308315 
L 426.602641 93.308315 
" clip-path="url(#pb0a8d0c878)" style="fill: none; stroke: #8e24aa; stroke-width: 1.6; stroke-linecap: square"/>
   </g>
   <g id="line2d_73">
    <path d="M 50.287594 93.273864 
L 99.013684 93.108992 
L 123.154614 92.824541 
L 139.78733 92.415586 
L 152.490467 91.882516 
L 162.770462 91.225824 
L 171.405308 90.446082 
L 178.849637 89.543934 
L 185.392306 88.520067 
L 191.228324 87.375201 
L 196.495568 86.110066 
L 201.295123 84.725387 
L 205.703311 83.221877 
L 209.779175 81.600226 
L 213.569327 79.861113 
L 217.301347 77.898706 
L 220.792418 75.807043 
L 224.071775 73.587121 
L 227.32157 71.113202 
L 230.38714 68.500636 
L 233.429305 65.611544 
L 236.442849 62.430335 
L 239.423567 58.945722 
L 242.368121 55.154945 
L 245.386959 50.905566 
L 248.779127 45.731226 
L 257.840026 31.624184 
L 259.518142 29.586833 
L 260.892002 28.252454 
L 262.066156 27.404899 
L 263.134082 26.899831 
L 264.101491 26.67712 
L 265.051901 26.682845 
L 265.985901 26.905228 
L 266.979861 27.370676 
L 268.104493 28.163421 
L 269.351433 29.33736 
L 270.782544 31.004871 
L 272.58812 33.4782 
L 275.057932 37.274921 
L 284.274752 51.778691 
L 287.427721 56.153811 
L 290.456095 59.976923 
L 293.463352 63.414067 
L 296.488102 66.531712 
L 299.560445 69.377561 
L 302.702982 71.984411 
L 305.931662 74.374255 
L 309.291213 76.583327 
L 312.780118 78.611027 
L 316.453627 80.486915 
L 320.319044 82.209073 
L 324.426579 83.79288 
L 328.802641 85.239397 
L 333.519398 86.56097 
L 338.628678 87.757971 
L 344.21297 88.834393 
L 350.387997 89.794509 
L 357.31648 90.641994 
L 365.198685 91.376708 
L 374.351623 92.00029 
L 385.258486 92.513025 
L 398.703227 92.9134 
L 415.900326 93.192685 
L 426.602641 93.278671 
L 426.602641 93.278671 
" clip-path="url(#pb0a8d0c878)" style="fill: none; stroke: #ffb300; stroke-width: 1.6; stroke-linecap: square"/>
   </g>
   <g id="patch_3">
    <path d="M 52.94 314.728 
L 52.94 26.88 
" style="fill: none; stroke: #000000; stroke-width: 0.8; stroke-linejoin: miter; stroke-linecap: square"/>
   </g>
   <g id="patch_4">
    <path d="M 426.6 314.728 
L 426.6 26.88 
" style="fill: none; stroke: #000000; stroke-width: 0.8; stroke-linejoin: miter; stroke-linecap: square"/>
   </g>
   <g id="patch_5">
    <path d="M 52.94 314.728 
L 426.6 314.728 
" style="fill: none; stroke: #000000; stroke-width: 0.8; stroke-linejoin: miter; stroke-linecap: square"/>
   </g>
   <g id="patch_6">
    <path d="M 52.94 26.88 
L 426.6 26.88 
" style="fill: none; stroke: #000000; stroke-width: 0.8; stroke-linejoin: miter; stroke-linecap: square"/>
   </g>
   <g id="text_12">
    <!-- One filter, every response  (fc = 1 kHz, Q = 2) -->
    <g style="fill: #1a1a1a" transform="translate(100.961875 20.88) scale(0.12 -0.12)">
     <defs>
      <path id="DejaVuSans-4f" d="M 2522 4238 
Q 1834 4238 1429 3725 
Q 1025 3213 1025 2328 
Q 1025 1447 1429 934 
Q 1834 422 2522 422 
Q 3209 422 3611 934 
Q 4013 1447 4013 2328 
Q 4013 3213 3611 3725 
Q 3209 4238 2522 4238 
z
M 2522 4750 
Q 3503 4750 4090 4092 
Q 4678 3434 4678 2328 
Q 4678 1225 4090 567 
Q 3503 -91 2522 -91 
Q 1538 -91 948 565 
Q 359 1222 359 2328 
Q 359 3434 948 4092 
Q 1538 4750 2522 4750 
z
" transform="scale(0.015625)"/>
      <path id="DejaVuSans-66" d="M 2375 4863 
L 2375 4384 
L 1825 4384 
Q 1516 4384 1395 4259 
Q 1275 4134 1275 3809 
L 1275 3500 
L 2222 3500 
L 2222 3053 
L 1275 3053 
L 1275 0 
L 697 0 
L 697 3053 
L 147 3053 
L 147 3500 
L 697 3500 
L 697 3744 
Q 697 4328 969 4595 
Q 1241 4863 1831 4863 
L 2375 4863 
z
" transform="scale(0.015625)"/>
      <path id="DejaVuSans-6c" d="M 603 4863 
L 1178 4863 
L 1178 0 
L 603 0 
L 603 4863 
z
" transform="scale(0.015625)"/>
      <path id="DejaVuSans-2c" d="M 750 794 
L 1409 794 
L 1409 256 
L 897 -744 
L 494 -744 
L 750 256 
L 750 794 
z
" transform="scale(0.015625)"/>
      <path id="DejaVuSans-76" d="M 191 3500 
L 800 3500 
L 1894 563 
L 2988 3500 
L 3597 3500 
L 2284 0 
L 1503 0 
L 191 3500 
z
" transform="scale(0.015625)"/>
      <path id="DejaVuSans-73" d="M 2834 3397 
L 2834 2853 
Q 2591 2978 2328 3040 
Q 2066 3103 1784 3103 
Q 1356 3103 1142 2972 
Q 928 2841 928 2578 
Q 928 2378 1081 2264 
Q 1234 2150 1697 2047 
L 1894 2003 
Q 2506 1872 2764 1633 
Q 3022 1394 3022 966 
Q 3022 478 2636 193 
Q 2250 -91 1575 -91 
Q 1294 -91 989 -36 
Q 684 19 347 128 
L 347 722 
Q 666 556 975 473 
Q 1284 391 1588 391 
Q 1994 391 2212 530 
Q 2431 669 2431 922 
Q 2431 1156 2273 1281 
Q 2116 1406 1581 1522 
L 1381 1569 
Q 847 1681 609 1914 
Q 372 2147 372 2553 
Q 372 3047 722 3315 
Q 1072 3584 1716 3584 
Q 2034 3584 2315 3537 
Q 2597 3491 2834 3397 
z
" transform="scale(0.015625)"/>
      <path id="DejaVuSans-70" d="M 1159 525 
L 1159 -1331 
L 581 -1331 
L 581 3500 
L 1159 3500 
L 1159 2969 
Q 1341 3281 1617 3432 
Q 1894 3584 2278 3584 
Q 2916 3584 3314 3078 
Q 3713 2572 3713 1747 
Q 3713 922 3314 415 
Q 2916 -91 2278 -91 
Q 1894 -91 1617 61 
Q 1341 213 1159 525 
z
M 3116 1747 
Q 3116 2381 2855 2742 
Q 2594 3103 2138 3103 
Q 1681 3103 1420 2742 
Q 1159 2381 1159 1747 
Q 1159 1113 1420 752 
Q 1681 391 2138 391 
Q 2594 391 2855 752 
Q 3116 1113 3116 1747 
z
" transform="scale(0.015625)"/>
      <path id="DejaVuSans-6f" d="M 1959 3097 
Q 1497 3097 1228 2736 
Q 959 2375 959 1747 
Q 959 1119 1226 758 
Q 1494 397 1959 397 
Q 2419 397 2687 759 
Q 2956 1122 2956 1747 
Q 2956 2369 2687 2733 
Q 2419 3097 1959 3097 
z
M 1959 3584 
Q 2709 3584 3137 3096 
Q 3566 2609 3566 1747 
Q 3566 888 3137 398 
Q 2709 -91 1959 -91 
Q 1206 -91 779 398 
Q 353 888 353 1747 
Q 353 2609 779 3096 
Q 1206 3584 1959 3584 
z
" transform="scale(0.015625)"/>
      <path id="DejaVuSans-3d" d="M 678 2906 
L 4684 2906 
L 4684 2381 
L 678 2381 
L 678 2906 
z
M 678 1631 
L 4684 1631 
L 4684 1100 
L 678 1100 
L 678 1631 
z
" transform="scale(0.015625)"/>
      <path id="DejaVuSans-6b" d="M 581 4863 
L 1159 4863 
L 1159 1991 
L 2875 3500 
L 3609 3500 
L 1753 1863 
L 3688 0 
L 2938 0 
L 1159 1709 
L 1159 0 
L 581 0 
L 581 4863 
z
" transform="scale(0.015625)"/>
      <path id="DejaVuSans-51" d="M 2522 4238 
Q 1834 4238 1429 3725 
Q 1025 3213 1025 2328 
Q 1025 1447 1429 934 
Q 1834 422 2522 422 
Q 3209 422 3611 934 
Q 4013 1447 4013 2328 
Q 4013 3213 3611 3725 
Q 3209 4238 2522 4238 
z
M 3406 84 
L 4238 -825 
L 3475 -825 
L 2784 -78 
Q 2681 -84 2626 -87 
Q 2572 -91 2522 -91 
Q 1538 -91 948 567 
Q 359 1225 359 2328 
Q 359 3434 948 4092 
Q 1538 4750 2522 4750 
Q 3503 4750 4090 4092 
Q 4678 3434 4678 2328 
Q 4678 1516 4351 937 
Q 4025 359 3406 84 
z
" transform="scale(0.015625)"/>
     </defs>
     <use xlink:href="#DejaVuSans-4f"/>
     <use xlink:href="#DejaVuSans-6e" x="78.710938"/>
     <use xlink:href="#DejaVuSans-65" x="142.089844"/>
     <use xlink:href="#DejaVuSans-20" x="203.613281"/>
     <use xlink:href="#DejaVuSans-66" x="235.400391"/>
     <use xlink:href="#DejaVuSans-69" x="270.605469"/>
     <use xlink:href="#DejaVuSans-6c" x="298.388672"/>
     <use xlink:href="#DejaVuSans-74" x="326.171875"/>
     <use xlink:href="#DejaVuSans-65" x="365.380859"/>
     <use xlink:href="#DejaVuSans-72" x="426.904297"/>
     <use xlink:href="#DejaVuSans-2c" x="468.017578"/>
     <use xlink:href="#DejaVuSans-20" x="499.804688"/>
     <use xlink:href="#DejaVuSans-65" x="531.591797"/>
     <use xlink:href="#DejaVuSans-76" x="593.115234"/>
     <use xlink:href="#DejaVuSans-65" x="652.294922"/>
     <use xlink:href="#DejaVuSans-72" x="713.818359"/>
     <use xlink:href="#DejaVuSans-79" x="754.931641"/>
     <use xlink:href="#DejaVuSans-20" x="814.111328"/>
     <use xlink:href="#DejaVuSans-72" x="845.898438"/>
     <use xlink:href="#DejaVuSans-65" x="884.761719"/>
     <use xlink:href="#DejaVuSans-73" x="946.285156"/>
     <use xlink:href="#DejaVuSans-70" x="998.384766"/>
     <use xlink:href="#DejaVuSans-6f" x="1061.861328"/>
     <use xlink:href="#DejaVuSans-6e" x="1123.042969"/>
     <use xlink:href="#DejaVuSans-73" x="1186.421875"/>
     <use xlink:href="#DejaVuSans-65" x="1238.521484"/>
     <use xlink:href="#DejaVuSans-20" x="1300.044922"/>
     <use xlink:href="#DejaVuSans-20" x="1331.832031"/>
     <use xlink:href="#DejaVuSans-28" x="1363.619141"/>
     <use xlink:href="#DejaVuSans-66" x="1402.632812"/>
     <use xlink:href="#DejaVuSans-63" x="1437.837891"/>
     <use xlink:href="#DejaVuSans-20" x="1492.818359"/>
     <use xlink:href="#DejaVuSans-3d" x="1524.605469"/>
     <use xlink:href="#DejaVuSans-20" x="1608.394531"/>
     <use xlink:href="#DejaVuSans-31" x="1640.181641"/>
     <use xlink:href="#DejaVuSans-20" x="1703.804688"/>
     <use xlink:href="#DejaVuSans-6b" x="1735.591797"/>
     <use xlink:href="#DejaVuSans-48" x="1793.501953"/>
     <use xlink:href="#DejaVuSans-7a" x="1868.697266"/>
     <use xlink:href="#DejaVuSans-2c" x="1921.1875"/>
     <use xlink:href="#DejaVuSans-20" x="1952.974609"/>
     <use xlink:href="#DejaVuSans-51" x="1984.761719"/>
     <use xlink:href="#DejaVuSans-20" x="2063.472656"/>
     <use xlink:href="#DejaVuSans-3d" x="2095.259766"/>
     <use xlink:href="#DejaVuSans-20" x="2179.048828"/>
     <use xlink:href="#DejaVuSans-32" x="2210.835938"/>
     <use xlink:href="#DejaVuSans-29" x="2274.458984"/>
    </g>
   </g>
   <g id="legend_1">
    <g id="patch_7">
     <path d="M 141.294375 310.728 
L 338.245625 310.728 
Q 339.845625 310.728 339.845625 309.128 
L 339.845625 286.443 
Q 339.845625 284.843 338.245625 284.843 
L 141.294375 284.843 
Q 139.694375 284.843 139.694375 286.443 
L 139.694375 309.128 
Q 139.694375 310.728 141.294375 310.728 
z
" style="fill: #ffffff; opacity: 0.8; stroke: #cccccc; stroke-linejoin: miter"/>
    </g>
    <g id="line2d_74">
     <path d="M 142.894375 291.32175 
L 150.894375 291.32175 
L 158.894375 291.32175 
" style="fill: none; stroke: #1565c0; stroke-width: 1.6; stroke-linecap: square"/>
    </g>
    <g id="text_13">
     <!-- Lowpass -->
     <g transform="translate(165.294375 294.12175) scale(0.08 -0.08)">
      <defs>
       <path id="DejaVuSans-4c" d="M 628 4666 
L 1259 4666 
L 1259 531 
L 3531 531 
L 3531 0 
L 628 0 
L 628 4666 
z
" transform="scale(0.015625)"/>
       <path id="DejaVuSans-77" d="M 269 3500 
L 844 3500 
L 1563 769 
L 2278 3500 
L 2956 3500 
L 3675 769 
L 4391 3500 
L 4966 3500 
L 4050 0 
L 3372 0 
L 2619 2869 
L 1863 0 
L 1184 0 
L 269 3500 
z
" transform="scale(0.015625)"/>
      </defs>
      <use xlink:href="#DejaVuSans-4c"/>
      <use xlink:href="#DejaVuSans-6f" x="53.962891"/>
      <use xlink:href="#DejaVuSans-77" x="115.144531"/>
      <use xlink:href="#DejaVuSans-70" x="196.931641"/>
      <use xlink:href="#DejaVuSans-61" x="260.408203"/>
      <use xlink:href="#DejaVuSans-73" x="321.6875"/>
      <use xlink:href="#DejaVuSans-73" x="373.787109"/>
     </g>
    </g>
    <g id="line2d_75">
     <path d="M 142.894375 303.06425 
L 150.894375 303.06425 
L 158.894375 303.06425 
" style="fill: none; stroke: #fb8c00; stroke-width: 1.6; stroke-linecap: square"/>
    </g>
    <g id="text_14">
     <!-- Highpass -->
     <g transform="translate(165.294375 305.86425) scale(0.08 -0.08)">
      <defs>
       <path id="DejaVuSans-68" d="M 3513 2113 
L 3513 0 
L 2938 0 
L 2938 2094 
Q 2938 2591 2744 2837 
Q 2550 3084 2163 3084 
Q 1697 3084 1428 2787 
Q 1159 2491 1159 1978 
L 1159 0 
L 581 0 
L 581 4863 
L 1159 4863 
L 1159 2956 
Q 1366 3272 1645 3428 
Q 1925 3584 2291 3584 
Q 2894 3584 3203 3211 
Q 3513 2838 3513 2113 
z
" transform="scale(0.015625)"/>
      </defs>
      <use xlink:href="#DejaVuSans-48"/>
      <use xlink:href="#DejaVuSans-69" x="75.195312"/>
      <use xlink:href="#DejaVuSans-67" x="102.978516"/>
      <use xlink:href="#DejaVuSans-68" x="166.455078"/>
      <use xlink:href="#DejaVuSans-70" x="229.833984"/>
      <use xlink:href="#DejaVuSans-61" x="293.310547"/>
      <use xlink:href="#DejaVuSans-73" x="354.589844"/>
      <use xlink:href="#DejaVuSans-73" x="406.689453"/>
     </g>
    </g>
    <g id="line2d_76">
     <path d="M 217.998125 291.32175 
L 225.998125 291.32175 
L 233.998125 291.32175 
" style="fill: none; stroke: #43a047; stroke-width: 1.6; stroke-linecap: square"/>
    </g>
    <g id="text_15">
     <!-- Bandpass -->
     <g transform="translate(240.398125 294.12175) scale(0.08 -0.08)">
      <use xlink:href="#DejaVuSans-42"/>
      <use xlink:href="#DejaVuSans-61" x="68.603516"/>
      <use xlink:href="#DejaVuSans-6e" x="129.882812"/>
      <use xlink:href="#DejaVuSans-64" x="193.261719"/>
      <use xlink:href="#DejaVuSans-70" x="256.738281"/>
      <use xlink:href="#DejaVuSans-61" x="320.214844"/>
      <use xlink:href="#DejaVuSans-73" x="381.494141"/>
      <use xlink:href="#DejaVuSans-73" x="433.59375"/>
     </g>
    </g>
    <g id="line2d_77">
     <path d="M 217.998125 303.06425 
L 225.998125 303.06425 
L 233.998125 303.06425 
" style="fill: none; stroke: #8e24aa; stroke-width: 1.6; stroke-linecap: square"/>
    </g>
    <g id="text_16">
     <!-- Notch -->
     <g transform="translate(240.398125 305.86425) scale(0.08 -0.08)">
      <defs>
       <path id="DejaVuSans-4e" d="M 628 4666 
L 1478 4666 
L 3547 763 
L 3547 4666 
L 4159 4666 
L 4159 0 
L 3309 0 
L 1241 3903 
L 1241 0 
L 628 0 
L 628 4666 
z
" transform="scale(0.015625)"/>
      </defs>
      <use xlink:href="#DejaVuSans-4e"/>
      <use xlink:href="#DejaVuSans-6f" x="74.804688"/>
      <use xlink:href="#DejaVuSans-74" x="135.986328"/>
      <use xlink:href="#DejaVuSans-63" x="175.195312"/>
      <use xlink:href="#DejaVuSans-68" x="230.175781"/>
     </g>
    </g>
    <g id="line2d_78">
     <path d="M 295.254375 291.32175 
L 303.254375 291.32175 
L 311.254375 291.32175 
" style="fill: none; stroke: #ffb300; stroke-width: 1.6; stroke-linecap: square"/>
    </g>
    <g id="text_17">
     <!-- Peak -->
     <g transform="translate(317.654375 294.12175) scale(0.08 -0.08)">
      <defs>
       <path id="DejaVuSans-50" d="M 1259 4147 
L 1259 2394 
L 2053 2394 
Q 2494 2394 2734 2622 
Q 2975 2850 2975 3272 
Q 2975 3691 2734 3919 
Q 2494 4147 2053 4147 
L 1259 4147 
z
M 628 4666 
L 2053 4666 
Q 2838 4666 3239 4311 
Q 3641 3956 3641 3272 
Q 3641 2581 3239 2228 
Q 2838 1875 2053 1875 
L 1259 1875 
L 1259 0 
L 628 0 
L 628 4666 
z
" transform="scale(0.015625)"/>
      </defs>
      <use xlink:href="#DejaVuSans-50"/>
      <use xlink:href="#DejaVuSans-65" x="56.677734"/>
      <use xlink:href="#DejaVuSans-61" x="118.201172"/>
      <use xlink:href="#DejaVuSans-6b" x="179.480469"/>
     </g>
    </g>
   </g>
  </g>
  <g id="axes_2">
   <g id="patch_8">
    <path d="M 479.54 314.728 
L 853.2 314.728 
L 853.2 26.88 
L 479.54 26.88 
z
" style="fill: #ffffff"/>
   </g>
   <g id="matplotlib.axis_3">
    <g id="xtick_29">
     <g id="line2d_79">
      <path d="M 566.599044 314.728 
L 566.599044 26.88 
" clip-path="url(#p20eca259ee)" style="fill: none; stroke-dasharray: 1.85,0.8; stroke-dashoffset: 0; stroke: #b0b0b0; stroke-opacity: 0.7; stroke-width: 0.5"/>
     </g>
     <g id="line2d_80">
      <g>
       <use xlink:href="#m8c137958b9" x="566.599044" y="314.728" style="stroke: #000000; stroke-width: 0.8"/>
      </g>
     </g>
     <g id="text_18">
      <!-- $\mathdefault{10^{2}}$ -->
      <g transform="translate(557.799044 329.326437) scale(0.1 -0.1)">
       <use xlink:href="#DejaVuSans-31" transform="translate(0 0.765625)"/>
       <use xlink:href="#DejaVuSans-30" transform="translate(63.623047 0.765625)"/>
       <use xlink:href="#DejaVuSans-32" transform="translate(128.203125 39.046875) scale(0.7)"/>
      </g>
     </g>
    </g>
    <g id="xtick_30">
     <g id="line2d_81">
      <path d="M 691.152377 314.728 
L 691.152377 26.88 
" clip-path="url(#p20eca259ee)" style="fill: none; stroke-dasharray: 1.85,0.8; stroke-dashoffset: 0; stroke: #b0b0b0; stroke-opacity: 0.7; stroke-width: 0.5"/>
     </g>
     <g id="line2d_82">
      <g>
       <use xlink:href="#m8c137958b9" x="691.152377" y="314.728" style="stroke: #000000; stroke-width: 0.8"/>
      </g>
     </g>
     <g id="text_19">
      <!-- $\mathdefault{10^{3}}$ -->
      <g transform="translate(682.352377 329.326437) scale(0.1 -0.1)">
       <use xlink:href="#DejaVuSans-31" transform="translate(0 0.765625)"/>
       <use xlink:href="#DejaVuSans-30" transform="translate(63.623047 0.765625)"/>
       <use xlink:href="#DejaVuSans-33" transform="translate(128.203125 39.046875) scale(0.7)"/>
      </g>
     </g>
    </g>
    <g id="xtick_31">
     <g id="line2d_83">
      <path d="M 815.705711 314.728 
L 815.705711 26.88 
" clip-path="url(#p20eca259ee)" style="fill: none; stroke-dasharray: 1.85,0.8; stroke-dashoffset: 0; stroke: #b0b0b0; stroke-opacity: 0.7; stroke-width: 0.5"/>
     </g>
     <g id="line2d_84">
      <g>
       <use xlink:href="#m8c137958b9" x="815.705711" y="314.728" style="stroke: #000000; stroke-width: 0.8"/>
      </g>
     </g>
     <g id="text_20">
      <!-- $\mathdefault{10^{4}}$ -->
      <g transform="translate(806.905711 329.326437) scale(0.1 -0.1)">
       <use xlink:href="#DejaVuSans-31" transform="translate(0 0.684375)"/>
       <use xlink:href="#DejaVuSans-30" transform="translate(63.623047 0.684375)"/>
       <use xlink:href="#DejaVuSans-34" transform="translate(128.203125 38.965625) scale(0.7)"/>
      </g>
     </g>
    </g>
    <g id="xtick_32">
     <g id="line2d_85">
      <path d="M 479.54 314.728 
L 479.54 26.88 
" clip-path="url(#p20eca259ee)" style="fill: none; stroke-dasharray: 1.85,0.8; stroke-dashoffset: 0; stroke: #b0b0b0; stroke-opacity: 0.7; stroke-width: 0.5"/>
     </g>
     <g id="line2d_86">
      <g>
       <use xlink:href="#m3120d66cbf" x="479.54" y="314.728" style="stroke: #000000; stroke-width: 0.6"/>
      </g>
     </g>
    </g>
    <g id="xtick_33">
     <g id="line2d_87">
      <path d="M 501.472753 314.728 
L 501.472753 26.88 
" clip-path="url(#p20eca259ee)" style="fill: none; stroke-dasharray: 1.85,0.8; stroke-dashoffset: 0; stroke: #b0b0b0; stroke-opacity: 0.7; stroke-width: 0.5"/>
     </g>
     <g id="line2d_88">
      <g>
       <use xlink:href="#m3120d66cbf" x="501.472753" y="314.728" style="stroke: #000000; stroke-width: 0.6"/>
      </g>
     </g>
    </g>
    <g id="xtick_34">
     <g id="line2d_89">
      <path d="M 517.034289 314.728 
L 517.034289 26.88 
" clip-path="url(#p20eca259ee)" style="fill: none; stroke-dasharray: 1.85,0.8; stroke-dashoffset: 0; stroke: #b0b0b0; stroke-opacity: 0.7; stroke-width: 0.5"/>
     </g>
     <g id="line2d_90">
      <g>
       <use xlink:href="#m3120d66cbf" x="517.034289" y="314.728" style="stroke: #000000; stroke-width: 0.6"/>
      </g>
     </g>
    </g>
    <g id="xtick_35">
     <g id="line2d_91">
      <path d="M 529.104755 314.728 
L 529.104755 26.88 
" clip-path="url(#p20eca259ee)" style="fill: none; stroke-dasharray: 1.85,0.8; stroke-dashoffset: 0; stroke: #b0b0b0; stroke-opacity: 0.7; stroke-width: 0.5"/>
     </g>
     <g id="line2d_92">
      <g>
       <use xlink:href="#m3120d66cbf" x="529.104755" y="314.728" style="stroke: #000000; stroke-width: 0.6"/>
      </g>
     </g>
    </g>
    <g id="xtick_36">
     <g id="line2d_93">
      <path d="M 538.967043 314.728 
L 538.967043 26.88 
" clip-path="url(#p20eca259ee)" style="fill: none; stroke-dasharray: 1.85,0.8; stroke-dashoffset: 0; stroke: #b0b0b0; stroke-opacity: 0.7; stroke-width: 0.5"/>
     </g>
     <g id="line2d_94">
      <g>
       <use xlink:href="#m3120d66cbf" x="538.967043" y="314.728" style="stroke: #000000; stroke-width: 0.6"/>
      </g>
     </g>
    </g>
    <g id="xtick_37">
     <g id="line2d_95">
      <path d="M 547.305488 314.728 
L 547.305488 26.88 
" clip-path="url(#p20eca259ee)" style="fill: none; stroke-dasharray: 1.85,0.8; stroke-dashoffset: 0; stroke: #b0b0b0; stroke-opacity: 0.7; stroke-width: 0.5"/>
     </g>
     <g id="line2d_96">
      <g>
       <use xlink:href="#m3120d66cbf" x="547.305488" y="314.728" style="stroke: #000000; stroke-width: 0.6"/>
      </g>
     </g>
    </g>
    <g id="xtick_38">
     <g id="line2d_97">
      <path d="M 554.528579 314.728 
L 554.528579 26.88 
" clip-path="url(#p20eca259ee)" style="fill: none; stroke-dasharray: 1.85,0.8; stroke-dashoffset: 0; stroke: #b0b0b0; stroke-opacity: 0.7; stroke-width: 0.5"/>
     </g>
     <g id="line2d_98">
      <g>
       <use xlink:href="#m3120d66cbf" x="554.528579" y="314.728" style="stroke: #000000; stroke-width: 0.6"/>
      </g>
     </g>
    </g>
    <g id="xtick_39">
     <g id="line2d_99">
      <path d="M 560.899796 314.728 
L 560.899796 26.88 
" clip-path="url(#p20eca259ee)" style="fill: none; stroke-dasharray: 1.85,0.8; stroke-dashoffset: 0; stroke: #b0b0b0; stroke-opacity: 0.7; stroke-width: 0.5"/>
     </g>
     <g id="line2d_100">
      <g>
       <use xlink:href="#m3120d66cbf" x="560.899796" y="314.728" style="stroke: #000000; stroke-width: 0.6"/>
      </g>
     </g>
    </g>
    <g id="xtick_40">
     <g id="line2d_101">
      <path d="M 604.093333 314.728 
L 604.093333 26.88 
" clip-path="url(#p20eca259ee)" style="fill: none; stroke-dasharray: 1.85,0.8; stroke-dashoffset: 0; stroke: #b0b0b0; stroke-opacity: 0.7; stroke-width: 0.5"/>
     </g>
     <g id="line2d_102">
      <g>
       <use xlink:href="#m3120d66cbf" x="604.093333" y="314.728" style="stroke: #000000; stroke-width: 0.6"/>
      </g>
     </g>
    </g>
    <g id="xtick_41">
     <g id="line2d_103">
      <path d="M 626.026087 314.728 
L 626.026087 26.88 
" clip-path="url(#p20eca259ee)" style="fill: none; stroke-dasharray: 1.85,0.8; stroke-dashoffset: 0; stroke: #b0b0b0; stroke-opacity: 0.7; stroke-width: 0.5"/>
     </g>
     <g id="line2d_104">
      <g>
       <use xlink:href="#m3120d66cbf" x="626.026087" y="314.728" style="stroke: #000000; stroke-width: 0.6"/>
      </g>
     </g>
    </g>
    <g id="xtick_42">
     <g id="line2d_105">
      <path d="M 641.587623 314.728 
L 641.587623 26.88 
" clip-path="url(#p20eca259ee)" style="fill: none; stroke-dasharray: 1.85,0.8; stroke-dashoffset: 0; stroke: #b0b0b0; stroke-opacity: 0.7; stroke-width: 0.5"/>
     </g>
     <g id="line2d_106">
      <g>
       <use xlink:href="#m3120d66cbf" x="641.587623" y="314.728" style="stroke: #000000; stroke-width: 0.6"/>
      </g>
     </g>
    </g>
    <g id="xtick_43">
     <g id="line2d_107">
      <path d="M 653.658088 314.728 
L 653.658088 26.88 
" clip-path="url(#p20eca259ee)" style="fill: none; stroke-dasharray: 1.85,0.8; stroke-dashoffset: 0; stroke: #b0b0b0; stroke-opacity: 0.7; stroke-width: 0.5"/>
     </g>
     <g id="line2d_108">
      <g>
       <use xlink:href="#m3120d66cbf" x="653.658088" y="314.728" style="stroke: #000000; stroke-width: 0.6"/>
      </g>
     </g>
    </g>
    <g id="xtick_44">
     <g id="line2d_109">
      <path d="M 663.520376 314.728 
L 663.520376 26.88 
" clip-path="url(#p20eca259ee)" style="fill: none; stroke-dasharray: 1.85,0.8; stroke-dashoffset: 0; stroke: #b0b0b0; stroke-opacity: 0.7; stroke-width: 0.5"/>
     </g>
     <g id="line2d_110">
      <g>
       <use xlink:href="#m3120d66cbf" x="663.520376" y="314.728" style="stroke: #000000; stroke-width: 0.6"/>
      </g>
     </g>
    </g>
    <g id="xtick_45">
     <g id="line2d_111">
      <path d="M 671.858822 314.728 
L 671.858822 26.88 
" clip-path="url(#p20eca259ee)" style="fill: none; stroke-dasharray: 1.85,0.8; stroke-dashoffset: 0; stroke: #b0b0b0; stroke-opacity: 0.7; stroke-width: 0.5"/>
     </g>
     <g id="line2d_112">
      <g>
       <use xlink:href="#m3120d66cbf" x="671.858822" y="314.728" style="stroke: #000000; stroke-width: 0.6"/>
      </g>
     </g>
    </g>
    <g id="xtick_46">
     <g id="line2d_113">
      <path d="M 679.081912 314.728 
L 679.081912 26.88 
" clip-path="url(#p20eca259ee)" style="fill: none; stroke-dasharray: 1.85,0.8; stroke-dashoffset: 0; stroke: #b0b0b0; stroke-opacity: 0.7; stroke-width: 0.5"/>
     </g>
     <g id="line2d_114">
      <g>
       <use xlink:href="#m3120d66cbf" x="679.081912" y="314.728" style="stroke: #000000; stroke-width: 0.6"/>
      </g>
     </g>
    </g>
    <g id="xtick_47">
     <g id="line2d_115">
      <path d="M 685.453129 314.728 
L 685.453129 26.88 
" clip-path="url(#p20eca259ee)" style="fill: none; stroke-dasharray: 1.85,0.8; stroke-dashoffset: 0; stroke: #b0b0b0; stroke-opacity: 0.7; stroke-width: 0.5"/>
     </g>
     <g id="line2d_116">
      <g>
       <use xlink:href="#m3120d66cbf" x="685.453129" y="314.728" style="stroke: #000000; stroke-width: 0.6"/>
      </g>
     </g>
    </g>
    <g id="xtick_48">
     <g id="line2d_117">
      <path d="M 728.646667 314.728 
L 728.646667 26.88 
" clip-path="url(#p20eca259ee)" style="fill: none; stroke-dasharray: 1.85,0.8; stroke-dashoffset: 0; stroke: #b0b0b0; stroke-opacity: 0.7; stroke-width: 0.5"/>
     </g>
     <g id="line2d_118">
      <g>
       <use xlink:href="#m3120d66cbf" x="728.646667" y="314.728" style="stroke: #000000; stroke-width: 0.6"/>
      </g>
     </g>
    </g>
    <g id="xtick_49">
     <g id="line2d_119">
      <path d="M 750.57942 314.728 
L 750.57942 26.88 
" clip-path="url(#p20eca259ee)" style="fill: none; stroke-dasharray: 1.85,0.8; stroke-dashoffset: 0; stroke: #b0b0b0; stroke-opacity: 0.7; stroke-width: 0.5"/>
     </g>
     <g id="line2d_120">
      <g>
       <use xlink:href="#m3120d66cbf" x="750.57942" y="314.728" style="stroke: #000000; stroke-width: 0.6"/>
      </g>
     </g>
    </g>
    <g id="xtick_50">
     <g id="line2d_121">
      <path d="M 766.140956 314.728 
L 766.140956 26.88 
" clip-path="url(#p20eca259ee)" style="fill: none; stroke-dasharray: 1.85,0.8; stroke-dashoffset: 0; stroke: #b0b0b0; stroke-opacity: 0.7; stroke-width: 0.5"/>
     </g>
     <g id="line2d_122">
      <g>
       <use xlink:href="#m3120d66cbf" x="766.140956" y="314.728" style="stroke: #000000; stroke-width: 0.6"/>
      </g>
     </g>
    </g>
    <g id="xtick_51">
     <g id="line2d_123">
      <path d="M 778.211421 314.728 
L 778.211421 26.88 
" clip-path="url(#p20eca259ee)" style="fill: none; stroke-dasharray: 1.85,0.8; stroke-dashoffset: 0; stroke: #b0b0b0; stroke-opacity: 0.7; stroke-width: 0.5"/>
     </g>
     <g id="line2d_124">
      <g>
       <use xlink:href="#m3120d66cbf" x="778.211421" y="314.728" style="stroke: #000000; stroke-width: 0.6"/>
      </g>
     </g>
    </g>
    <g id="xtick_52">
     <g id="line2d_125">
      <path d="M 788.073709 314.728 
L 788.073709 26.88 
" clip-path="url(#p20eca259ee)" style="fill: none; stroke-dasharray: 1.85,0.8; stroke-dashoffset: 0; stroke: #b0b0b0; stroke-opacity: 0.7; stroke-width: 0.5"/>
     </g>
     <g id="line2d_126">
      <g>
       <use xlink:href="#m3120d66cbf" x="788.073709" y="314.728" style="stroke: #000000; stroke-width: 0.6"/>
      </g>
     </g>
    </g>
    <g id="xtick_53">
     <g id="line2d_127">
      <path d="M 796.412155 314.728 
L 796.412155 26.88 
" clip-path="url(#p20eca259ee)" style="fill: none; stroke-dasharray: 1.85,0.8; stroke-dashoffset: 0; stroke: #b0b0b0; stroke-opacity: 0.7; stroke-width: 0.5"/>
     </g>
     <g id="line2d_128">
      <g>
       <use xlink:href="#m3120d66cbf" x="796.412155" y="314.728" style="stroke: #000000; stroke-width: 0.6"/>
      </g>
     </g>
    </g>
    <g id="xtick_54">
     <g id="line2d_129">
      <path d="M 803.635245 314.728 
L 803.635245 26.88 
" clip-path="url(#p20eca259ee)" style="fill: none; stroke-dasharray: 1.85,0.8; stroke-dashoffset: 0; stroke: #b0b0b0; stroke-opacity: 0.7; stroke-width: 0.5"/>
     </g>
     <g id="line2d_130">
      <g>
       <use xlink:href="#m3120d66cbf" x="803.635245" y="314.728" style="stroke: #000000; stroke-width: 0.6"/>
      </g>
     </g>
    </g>
    <g id="xtick_55">
     <g id="line2d_131">
      <path d="M 810.006463 314.728 
L 810.006463 26.88 
" clip-path="url(#p20eca259ee)" style="fill: none; stroke-dasharray: 1.85,0.8; stroke-dashoffset: 0; stroke: #b0b0b0; stroke-opacity: 0.7; stroke-width: 0.5"/>
     </g>
     <g id="line2d_132">
      <g>
       <use xlink:href="#m3120d66cbf" x="810.006463" y="314.728" style="stroke: #000000; stroke-width: 0.6"/>
      </g>
     </g>
    </g>
    <g id="xtick_56">
     <g id="line2d_133">
      <path d="M 853.2 314.728 
L 853.2 26.88 
" clip-path="url(#p20eca259ee)" style="fill: none; stroke-dasharray: 1.85,0.8; stroke-dashoffset: 0; stroke: #b0b0b0; stroke-opacity: 0.7; stroke-width: 0.5"/>
     </g>
     <g id="line2d_134">
      <g>
       <use xlink:href="#m3120d66cbf" x="853.2" y="314.728" style="stroke: #000000; stroke-width: 0.6"/>
      </g>
     </g>
    </g>
    <g id="text_21">
     <!-- Frequency (Hz) -->
     <g style="fill: #1a1a1a" transform="translate(628.665312 343.004562) scale(0.1 -0.1)">
      <use xlink:href="#DejaVuSans-46"/>
      <use xlink:href="#DejaVuSans-72" x="50.269531"/>
      <use xlink:href="#DejaVuSans-65" x="89.132812"/>
      <use xlink:href="#DejaVuSans-71" x="150.65625"/>
      <use xlink:href="#DejaVuSans-75" x="214.132812"/>
      <use xlink:href="#DejaVuSans-65" x="277.511719"/>
      <use xlink:href="#DejaVuSans-6e" x="339.035156"/>
      <use xlink:href="#DejaVuSans-63" x="402.414062"/>
      <use xlink:href="#DejaVuSans-79" x="457.394531"/>
      <use xlink:href="#DejaVuSans-20" x="516.574219"/>
      <use xlink:href="#DejaVuSans-28" x="548.361328"/>
      <use xlink:href="#DejaVuSans-48" x="587.375"/>
      <use xlink:href="#DejaVuSans-7a" x="662.570312"/>
      <use xlink:href="#DejaVuSans-29" x="715.060547"/>
     </g>
    </g>
   </g>
   <g id="matplotlib.axis_4">
    <g id="ytick_7">
     <g id="line2d_135">
      <path d="M 479.54 314.728 
L 853.2 314.728 
" clip-path="url(#p20eca259ee)" style="fill: none; stroke-dasharray: 1.85,0.8; stroke-dashoffset: 0; stroke: #b0b0b0; stroke-opacity: 0.7; stroke-width: 0.5"/>
     </g>
     <g id="line2d_136">
      <g>
       <use xlink:href="#m4f641e47b5" x="479.54" y="314.728" style="stroke: #000000; stroke-width: 0.8"/>
      </g>
     </g>
     <g id="text_22">
      <!-- −40 -->
      <g transform="translate(451.435312 318.527219) scale(0.1 -0.1)">
       <use xlink:href="#DejaVuSans-2212"/>
       <use xlink:href="#DejaVuSans-34" x="83.789062"/>
       <use xlink:href="#DejaVuSans-30" x="147.412109"/>
      </g>
     </g>
    </g>
    <g id="ytick_8">
     <g id="line2d_137">
      <path d="M 479.54 269.75175 
L 853.2 269.75175 
" clip-path="url(#p20eca259ee)" style="fill: none; stroke-dasharray: 1.85,0.8; stroke-dashoffset: 0; stroke: #b0b0b0; stroke-opacity: 0.7; stroke-width: 0.5"/>
     </g>
     <g id="line2d_138">
      <g>
       <use xlink:href="#m4f641e47b5" x="479.54" y="269.75175" style="stroke: #000000; stroke-width: 0.8"/>
      </g>
     </g>
     <g id="text_23">
      <!-- −30 -->
      <g transform="translate(451.435312 273.550969) scale(0.1 -0.1)">
       <use xlink:href="#DejaVuSans-2212"/>
       <use xlink:href="#DejaVuSans-33" x="83.789062"/>
       <use xlink:href="#DejaVuSans-30" x="147.412109"/>
      </g>
     </g>
    </g>
    <g id="ytick_9">
     <g id="line2d_139">
      <path d="M 479.54 224.7755 
L 853.2 224.7755 
" clip-path="url(#p20eca259ee)" style="fill: none; stroke-dasharray: 1.85,0.8; stroke-dashoffset: 0; stroke: #b0b0b0; stroke-opacity: 0.7; stroke-width: 0.5"/>
     </g>
     <g id="line2d_140">
      <g>
       <use xlink:href="#m4f641e47b5" x="479.54" y="224.7755" style="stroke: #000000; stroke-width: 0.8"/>
      </g>
     </g>
     <g id="text_24">
      <!-- −20 -->
      <g transform="translate(451.435312 228.574719) scale(0.1 -0.1)">
       <use xlink:href="#DejaVuSans-2212"/>
       <use xlink:href="#DejaVuSans-32" x="83.789062"/>
       <use xlink:href="#DejaVuSans-30" x="147.412109"/>
      </g>
     </g>
    </g>
    <g id="ytick_10">
     <g id="line2d_141">
      <path d="M 479.54 179.79925 
L 853.2 179.79925 
" clip-path="url(#p20eca259ee)" style="fill: none; stroke-dasharray: 1.85,0.8; stroke-dashoffset: 0; stroke: #b0b0b0; stroke-opacity: 0.7; stroke-width: 0.5"/>
     </g>
     <g id="line2d_142">
      <g>
       <use xlink:href="#m4f641e47b5" x="479.54" y="179.79925" style="stroke: #000000; stroke-width: 0.8"/>
      </g>
     </g>
     <g id="text_25">
      <!-- −10 -->
      <g transform="translate(451.435312 183.598469) scale(0.1 -0.1)">
       <use xlink:href="#DejaVuSans-2212"/>
       <use xlink:href="#DejaVuSans-31" x="83.789062"/>
       <use xlink:href="#DejaVuSans-30" x="147.412109"/>
      </g>
     </g>
    </g>
    <g id="ytick_11">
     <g id="line2d_143">
      <path d="M 479.54 134.823 
L 853.2 134.823 
" clip-path="url(#p20eca259ee)" style="fill: none; stroke-dasharray: 1.85,0.8; stroke-dashoffset: 0; stroke: #b0b0b0; stroke-opacity: 0.7; stroke-width: 0.5"/>
     </g>
     <g id="line2d_144">
      <g>
       <use xlink:href="#m4f641e47b5" x="479.54" y="134.823" style="stroke: #000000; stroke-width: 0.8"/>
      </g>
     </g>
     <g id="text_26">
      <!-- 0 -->
      <g transform="translate(466.1775 138.622219) scale(0.1 -0.1)">
       <use xlink:href="#DejaVuSans-30"/>
      </g>
     </g>
    </g>
    <g id="ytick_12">
     <g id="line2d_145">
      <path d="M 479.54 89.84675 
L 853.2 89.84675 
" clip-path="url(#p20eca259ee)" style="fill: none; stroke-dasharray: 1.85,0.8; stroke-dashoffset: 0; stroke: #b0b0b0; stroke-opacity: 0.7; stroke-width: 0.5"/>
     </g>
     <g id="line2d_146">
      <g>
       <use xlink:href="#m4f641e47b5" x="479.54" y="89.84675" style="stroke: #000000; stroke-width: 0.8"/>
      </g>
     </g>
     <g id="text_27">
      <!-- 10 -->
      <g transform="translate(459.815 93.645969) scale(0.1 -0.1)">
       <use xlink:href="#DejaVuSans-31"/>
       <use xlink:href="#DejaVuSans-30" x="63.623047"/>
      </g>
     </g>
    </g>
    <g id="ytick_13">
     <g id="line2d_147">
      <path d="M 479.54 44.8705 
L 853.2 44.8705 
" clip-path="url(#p20eca259ee)" style="fill: none; stroke-dasharray: 1.85,0.8; stroke-dashoffset: 0; stroke: #b0b0b0; stroke-opacity: 0.7; stroke-width: 0.5"/>
     </g>
     <g id="line2d_148">
      <g>
       <use xlink:href="#m4f641e47b5" x="479.54" y="44.8705" style="stroke: #000000; stroke-width: 0.8"/>
      </g>
     </g>
     <g id="text_28">
      <!-- 20 -->
      <g transform="translate(459.815 48.669719) scale(0.1 -0.1)">
       <use xlink:href="#DejaVuSans-32"/>
       <use xlink:href="#DejaVuSans-30" x="63.623047"/>
      </g>
     </g>
    </g>
    <g id="text_29">
     <!-- Magnitude (dB) -->
     <g style="fill: #1a1a1a" transform="translate(445.355625 209.389156) rotate(-90) scale(0.1 -0.1)">
      <use xlink:href="#DejaVuSans-4d"/>
      <use xlink:href="#DejaVuSans-61" x="86.279297"/>
      <use xlink:href="#DejaVuSans-67" x="147.558594"/>
      <use xlink:href="#DejaVuSans-6e" x="211.035156"/>
      <use xlink:href="#DejaVuSans-69" x="274.414062"/>
      <use xlink:href="#DejaVuSans-74" x="302.197266"/>
      <use xlink:href="#DejaVuSans-75" x="341.40625"/>
      <use xlink:href="#DejaVuSans-64" x="404.785156"/>
      <use xlink:href="#DejaVuSans-65" x="468.261719"/>
      <use xlink:href="#DejaVuSans-20" x="529.785156"/>
      <use xlink:href="#DejaVuSans-28" x="561.572266"/>
      <use xlink:href="#DejaVuSans-64" x="600.585938"/>
      <use xlink:href="#DejaVuSans-42" x="664.0625"/>
      <use xlink:href="#DejaVuSans-29" x="732.666016"/>
     </g>
    </g>
   </g>
   <g id="line2d_149">
    <path d="M 476.887594 134.823007 
L 621.107682 134.932969 
L 636.813658 135.171036 
L 646.495335 135.527887 
L 653.605237 136.000558 
L 659.320346 136.592317 
L 664.228854 137.318902 
L 668.488359 138.16802 
L 672.324689 139.152004 
L 675.906866 140.296705 
L 679.266484 141.600336 
L 682.522611 143.102711 
L 685.681555 144.805663 
L 688.83183 146.759784 
L 691.96503 148.965568 
L 695.221425 151.537363 
L 698.56991 154.47275 
L 702.112769 157.883754 
L 705.86204 161.807883 
L 709.987055 166.456233 
L 714.595765 171.99766 
L 719.830694 178.651265 
L 725.994261 186.856961 
L 733.518185 197.259703 
L 742.93207 210.671953 
L 754.42753 227.447997 
L 766.601211 245.603563 
L 777.504246 262.252491 
L 786.723157 276.724976 
L 794.562188 289.436369 
L 801.325036 300.819106 
L 807.242983 311.20874 
L 812.48443 320.853998 
L 817.177804 329.951318 
L 821.410769 338.636585 
L 825.256758 347.031563 
L 828.772728 355.237858 
L 831.094287 361 
L 831.094287 361 
" clip-path="url(#p20eca259ee)" style="fill: none; stroke: #bbdefb; stroke-width: 1.6; stroke-linecap: square"/>
   </g>
   <g id="line2d_150">
    <path d="M 476.887594 134.810638 
L 545.244267 134.668024 
L 572.403839 134.39895 
L 589.888101 134.010809 
L 602.675038 133.514214 
L 613.009756 132.894866 
L 621.396177 132.177907 
L 628.655222 131.339429 
L 635.054387 130.374995 
L 640.574519 129.322729 
L 645.583124 128.1447 
L 650.167017 126.836558 
L 654.392628 125.394561 
L 658.311928 123.816363 
L 661.96634 122.102243 
L 665.516839 120.183594 
L 668.968121 118.059862 
L 672.548676 115.588616 
L 677.152821 112.111569 
L 681.490453 108.908431 
L 683.535442 107.667049 
L 685.152956 106.939879 
L 686.464892 106.582964 
L 687.661306 106.485054 
L 688.749056 106.615226 
L 689.815363 106.967413 
L 690.861057 107.542723 
L 691.96503 108.404027 
L 693.199727 109.673062 
L 694.555886 111.41843 
L 696.09626 113.797566 
L 697.87462 116.973795 
L 700.135954 121.49121 
L 703.517857 128.798264 
L 713.715345 151.078238 
L 718.652154 161.188892 
L 723.699327 171.015523 
L 729.146191 181.128128 
L 735.193681 191.878745 
L 742.104337 203.700338 
L 750.394216 217.424675 
L 761.410248 235.202545 
L 789.404249 280.19629 
L 797.54722 293.821396 
L 804.232817 305.432497 
L 809.971234 315.837285 
L 815.014589 325.436676 
L 819.509524 334.465279 
L 823.563584 343.103464 
L 827.245329 351.468941 
L 830.608218 359.659801 
L 831.135302 361 
L 831.135302 361 
" clip-path="url(#p20eca259ee)" style="fill: none; stroke: #64b5f6; stroke-width: 1.6; stroke-linecap: square"/>
   </g>
   <g id="line2d_151">
    <path d="M 476.887594 134.809154 
L 542.839746 134.664101 
L 569.47919 134.39611 
L 586.705252 134.012089 
L 599.319368 133.522435 
L 609.541079 132.910882 
L 617.828324 132.202809 
L 625.012983 131.370912 
L 631.11441 130.448926 
L 636.596853 129.398076 
L 641.375909 128.261327 
L 645.766801 126.987578 
L 649.657505 125.630141 
L 653.287043 124.124307 
L 656.538234 122.535183 
L 659.605045 120.782705 
L 662.372545 118.945677 
L 665.005319 116.926453 
L 667.393079 114.820106 
L 669.679879 112.508762 
L 671.873913 109.967456 
L 673.982413 107.16734 
L 675.906866 104.24631 
L 677.7652 101.033717 
L 679.659889 97.293961 
L 681.490453 93.171714 
L 683.352696 88.426983 
L 685.681555 81.834172 
L 687.998334 75.413789 
L 688.997 73.282521 
L 689.652678 72.317428 
L 690.219949 71.848771 
L 690.621531 71.752716 
L 691.020153 71.86487 
L 691.494655 72.275307 
L 692.04303 73.119549 
L 692.663012 74.518683 
L 693.504048 77.054403 
L 694.63024 81.269194 
L 696.671721 89.982424 
L 699.93424 103.746932 
L 702.306535 112.768489 
L 704.702646 121.013647 
L 707.233061 128.921762 
L 709.931088 136.623766 
L 712.873417 144.343498 
L 716.065356 152.08947 
L 719.597031 160.066576 
L 723.481825 168.284418 
L 727.794794 176.883564 
L 732.678954 186.116031 
L 738.23091 196.125066 
L 744.697912 207.313077 
L 752.499463 220.350076 
L 762.881817 237.23833 
L 791.45241 283.488482 
L 799.270832 296.705571 
L 805.730259 308.053644 
L 811.294034 318.270829 
L 816.197383 327.734536 
L 820.577229 336.666156 
L 824.534707 345.237878 
L 828.134198 353.562333 
L 831.140219 361 
L 831.140219 361 
" clip-path="url(#p20eca259ee)" style="fill: none; stroke: #1e88e5; stroke-width: 1.6; stroke-linecap: square"/>
   </g>
   <g id="line2d_152">
    <path d="M 476.887594 134.808942 
L 542.839746 134.661653 
L 569.47919 134.389465 
L 586.705252 133.999275 
L 599.319368 133.501482 
L 609.541079 132.879324 
L 617.828324 132.158337 
L 625.012983 131.310356 
L 631.11441 130.369335 
L 636.379175 129.34269 
L 641.176672 128.18454 
L 645.398822 126.943516 
L 649.315144 125.560481 
L 652.806215 124.095099 
L 656.085572 122.473173 
L 659.03414 120.766997 
L 661.830257 118.884782 
L 664.359041 116.913516 
L 666.774869 114.740294 
L 668.968121 112.469494 
L 671.075901 109.962184 
L 672.993887 107.343706 
L 674.846189 104.442202 
L 676.637157 101.2084 
L 678.270272 97.805076 
L 679.855523 93.98428 
L 681.395636 89.659074 
L 682.800724 85.046662 
L 684.170235 79.776084 
L 685.505929 73.711564 
L 686.809433 66.733352 
L 688.333276 57.25916 
L 689.896523 47.794655 
L 690.461256 45.61232 
L 690.861057 44.8861 
L 691.099526 44.839722 
L 691.33695 45.095457 
L 691.651901 45.891219 
L 692.04303 47.537929 
L 692.663012 51.296904 
L 693.806666 60.034162 
L 695.951433 76.269247 
L 697.523594 86.379357 
L 699.119778 95.224424 
L 700.869201 103.651687 
L 702.755973 111.625638 
L 704.76429 119.162114 
L 706.997105 126.675785 
L 709.424755 134.06317 
L 712.072027 141.413217 
L 715.005173 148.900518 
L 718.269533 156.612741 
L 721.844534 164.485286 
L 725.827565 172.717472 
L 730.311193 181.468673 
L 735.403887 190.912232 
L 741.263741 201.299149 
L 748.176099 213.08625 
L 756.786042 227.308803 
L 769.674518 248.119416 
L 787.742541 277.341946 
L 796.393286 291.775227 
L 803.314042 303.745188 
L 809.199291 314.361101 
L 814.344325 324.094509 
L 818.915418 333.212461 
L 823.026439 341.903939 
L 826.756613 350.306448 
L 830.161217 358.520713 
L 831.140921 361 
L 831.140921 361 
" clip-path="url(#p20eca259ee)" style="fill: none; stroke: #0d47a1; stroke-width: 1.6; stroke-linecap: square"/>
   </g>
   <g id="patch_9">
    <path d="M 479.54 314.728 
L 479.54 26.88 
" style="fill: none; stroke: #000000; stroke-width: 0.8; stroke-linejoin: miter; stroke-linecap: square"/>
   </g>
   <g id="patch_10">
    <path d="M 853.2 314.728 
L 853.2 26.88 
" style="fill: none; stroke: #000000; stroke-width: 0.8; stroke-linejoin: miter; stroke-linecap: square"/>
   </g>
   <g id="patch_11">
    <path d="M 479.54 314.728 
L 853.2 314.728 
" style="fill: none; stroke: #000000; stroke-width: 0.8; stroke-linejoin: miter; stroke-linecap: square"/>
   </g>
   <g id="patch_12">
    <path d="M 479.54 26.88 
L 853.2 26.88 
" style="fill: none; stroke: #000000; stroke-width: 0.8; stroke-linejoin: miter; stroke-linecap: square"/>
   </g>
   <g id="text_30">
    <!-- Lowpass: peak height = Q -->
    <g style="fill: #1a1a1a" transform="translate(587.639687 20.88) scale(0.12 -0.12)">
     <defs>
      <path id="DejaVuSans-3a" d="M 750 794 
L 1409 794 
L 1409 0 
L 750 0 
L 750 794 
z
M 750 3309 
L 1409 3309 
L 1409 2516 
L 750 2516 
L 750 3309 
z
" transform="scale(0.015625)"/>
     </defs>
     <use xlink:href="#DejaVuSans-4c"/>
     <use xlink:href="#DejaVuSans-6f" x="53.962891"/>
     <use xlink:href="#DejaVuSans-77" x="115.144531"/>
     <use xlink:href="#DejaVuSans-70" x="196.931641"/>
     <use xlink:href="#DejaVuSans-61" x="260.408203"/>
     <use xlink:href="#DejaVuSans-73" x="321.6875"/>
     <use xlink:href="#DejaVuSans-73" x="373.787109"/>
     <use xlink:href="#DejaVuSans-3a" x="425.886719"/>
     <use xlink:href="#DejaVuSans-20" x="459.578125"/>
     <use xlink:href="#DejaVuSans-70" x="491.365234"/>
     <use xlink:href="#DejaVuSans-65" x="554.841797"/>
     <use xlink:href="#DejaVuSans-61" x="616.365234"/>
     <use xlink:href="#DejaVuSans-6b" x="677.644531"/>
     <use xlink:href="#DejaVuSans-20" x="735.554688"/>
     <use xlink:href="#DejaVuSans-68" x="767.341797"/>
     <use xlink:href="#DejaVuSans-65" x="830.720703"/>
     <use xlink:href="#DejaVuSans-69" x="892.244141"/>
     <use xlink:href="#DejaVuSans-67" x="920.027344"/>
     <use xlink:href="#DejaVuSans-68" x="983.503906"/>
     <use xlink:href="#DejaVuSans-74" x="1046.882812"/>
     <use xlink:href="#DejaVuSans-20" x="1086.091797"/>
     <use xlink:href="#DejaVuSans-3d" x="1117.878906"/>
     <use xlink:href="#DejaVuSans-20" x="1201.667969"/>
     <use xlink:href="#DejaVuSans-51" x="1233.455078"/>
    </g>
   </g>
   <g id="legend_2">
    <g id="patch_13">
     <path d="M 485.14 310.728 
L 551.72875 310.728 
Q 553.32875 310.728 553.32875 309.128 
L 553.32875 262.958 
Q 553.32875 261.358 551.72875 261.358 
L 485.14 261.358 
Q 483.54 261.358 483.54 262.958 
L 483.54 309.128 
Q 483.54 310.728 485.14 310.728 
z
" style="fill: #ffffff; opacity: 0.8; stroke: #cccccc; stroke-linejoin: miter"/>
    </g>
    <g id="line2d_153">
     <path d="M 486.74 267.83675 
L 494.74 267.83675 
L 502.74 267.83675 
" style="fill: none; stroke: #bbdefb; stroke-width: 1.6; stroke-linecap: square"/>
    </g>
    <g id="text_31">
     <!-- Q = 0.707 -->
     <g transform="translate(509.14 270.63675) scale(0.08 -0.08)">
      <defs>
       <path id="DejaVuSans-2e" d="M 684 794 
L 1344 794 
L 1344 0 
L 684 0 
L 684 794 
z
" transform="scale(0.015625)"/>
       <path id="DejaVuSans-37" d="M 525 4666 
L 3525 4666 
L 3525 4397 
L 1831 0 
L 1172 0 
L 2766 4134 
L 525 4134 
L 525 4666 
z
" transform="scale(0.015625)"/>
      </defs>
      <use xlink:href="#DejaVuSans-51"/>
      <use xlink:href="#DejaVuSans-20" x="78.710938"/>
      <use xlink:href="#DejaVuSans-3d" x="110.498047"/>
      <use xlink:href="#DejaVuSans-20" x="194.287109"/>
      <use xlink:href="#DejaVuSans-30" x="226.074219"/>
      <use xlink:href="#DejaVuSans-2e" x="289.697266"/>
      <use xlink:href="#DejaVuSans-37" x="321.484375"/>
      <use xlink:href="#DejaVuSans-30" x="385.107422"/>
      <use xlink:href="#DejaVuSans-37" x="448.730469"/>
     </g>
    </g>
    <g id="line2d_154">
     <path d="M 486.74 279.57925 
L 494.74 279.57925 
L 502.74 279.57925 
" style="fill: none; stroke: #64b5f6; stroke-width: 1.6; stroke-linecap: square"/>
    </g>
    <g id="text_32">
     <!-- Q = 2 -->
     <g transform="translate(509.14 282.37925) scale(0.08 -0.08)">
      <use xlink:href="#DejaVuSans-51"/>
      <use xlink:href="#DejaVuSans-20" x="78.710938"/>
      <use xlink:href="#DejaVuSans-3d" x="110.498047"/>
      <use xlink:href="#DejaVuSans-20" x="194.287109"/>
      <use xlink:href="#DejaVuSans-32" x="226.074219"/>
     </g>
    </g>
    <g id="line2d_155">
     <path d="M 486.74 291.32175 
L 494.74 291.32175 
L 502.74 291.32175 
" style="fill: none; stroke: #1e88e5; stroke-width: 1.6; stroke-linecap: square"/>
    </g>
    <g id="text_33">
     <!-- Q = 5 -->
     <g transform="translate(509.14 294.12175) scale(0.08 -0.08)">
      <defs>
       <path id="DejaVuSans-35" d="M 691 4666 
L 3169 4666 
L 3169 4134 
L 1269 4134 
L 1269 2991 
Q 1406 3038 1543 3061 
Q 1681 3084 1819 3084 
Q 2600 3084 3056 2656 
Q 3513 2228 3513 1497 
Q 3513 744 3044 326 
Q 2575 -91 1722 -91 
Q 1428 -91 1123 -41 
Q 819 9 494 109 
L 494 744 
Q 775 591 1075 516 
Q 1375 441 1709 441 
Q 2250 441 2565 725 
Q 2881 1009 2881 1497 
Q 2881 1984 2565 2268 
Q 2250 2553 1709 2553 
Q 1456 2553 1204 2497 
Q 953 2441 691 2322 
L 691 4666 
z
" transform="scale(0.015625)"/>
      </defs>
      <use xlink:href="#DejaVuSans-51"/>
      <use xlink:href="#DejaVuSans-20" x="78.710938"/>
      <use xlink:href="#DejaVuSans-3d" x="110.498047"/>
      <use xlink:href="#DejaVuSans-20" x="194.287109"/>
      <use xlink:href="#DejaVuSans-35" x="226.074219"/>
     </g>
    </g>
    <g id="line2d_156">
     <path d="M 486.74 303.06425 
L 494.74 303.06425 
L 502.74 303.06425 
" style="fill: none; stroke: #0d47a1; stroke-width: 1.6; stroke-linecap: square"/>
    </g>
    <g id="text_34">
     <!-- Q = 10 -->
     <g transform="translate(509.14 305.86425) scale(0.08 -0.08)">
      <use xlink:href="#DejaVuSans-51"/>
      <use xlink:href="#DejaVuSans-20" x="78.710938"/>
      <use xlink:href="#DejaVuSans-3d" x="110.498047"/>
      <use xlink:href="#DejaVuSans-20" x="194.287109"/>
      <use xlink:href="#DejaVuSans-31" x="226.074219"/>
      <use xlink:href="#DejaVuSans-30" x="289.697266"/>
     </g>
    </g>
   </g>
  </g>
 </g>
 <defs>
  <clipPath id="pb0a8d0c878">
   <rect x="52.94" y="26.88" width="373.66" height="287.848"/>
  </clipPath>
  <clipPath id="p20eca259ee">
   <rect x="479.54" y="26.88" width="373.66" height="287.848"/>
  </clipPath>
 </defs>
</svg>
