<?xml version="1.0" encoding="utf-8" standalone="no"?>
<!DOCTYPE svg PUBLIC "-//W3C//DTD SVG 1.1//EN"
  "http://www.w3.org/Graphics/SVG/1.1/DTD/svg11.dtd">
<svg xmlns:xlink="http://www.w3.org/1999/xlink" width="720pt" height="432pt" viewBox="0 0 720 432" xmlns="http://www.w3.org/2000/svg" version="1.1">
 <metadata>
  <rdf:RDF xmlns:dc="http://purl.org/dc/elements/1.1/" xmlns:cc="http://creativecommons.org/ns#" xmlns:rdf="http://www.w3.org/1999/02/22-rdf-syntax-ns#">
   <cc:Work>
    <dc:type rdf:resource="http://purl.org/dc/dcmitype/StillImage"/>
    <dc:date>2026-07-15T06:36:19.632947</dc:date>
    <dc:format>image/svg+xml</dc:format>
    <dc:creator>
     <cc:Agent>
      <dc:title>Matplotlib v3.9.4, https://matplotlib.org/</dc:title>
     </cc:Agent>
    </dc:creator>
   </cc:Work>
  </rdf:RDF>
 </metadata>
 <defs>
  <style type="text/css">*{stroke-linejoin: round; stroke-linecap: butt}</style>
 </defs>
 <g id="figure_1">
  <g id="patch_1">
   <path d="M 0 432 
L 720 432 
L 720 0 
L 0 0 
z
" style="fill: #ffffff"/>
  </g>
  <g id="axes_1">
   <g id="patch_2">
    <path d="M 90 384.48 
L 648 384.48 
L 648 51.84 
L 90 51.84 
z
" style="fill: #ffffff"/>
   </g>
   <g id="matplotlib.axis_1">
    <g id="xtick_1">
     <g id="line2d_1">
      <path d="M 115.363636 384.48 
L 115.363636 51.84 
" clip-path="url(#p6751fe56d0)" style="fill: none; stroke-dasharray: 1.85,0.8; stroke-dashoffset: 0; stroke: #b0b0b0; stroke-opacity: 0.8; stroke-width: 0.5"/>
     </g>
     <g id="line2d_2">
      <defs>
       <path id="m8a09c167ca" d="M 0 0 
L 0 3.5 
" style="stroke: #000000; stroke-width: 0.8"/>
      </defs>
      <g>
       <use xlink:href="#m8a09c167ca" x="115.363636" y="384.48" style="stroke: #000000; stroke-width: 0.8"/>
      </g>
     </g>
     <g id="text_1">
      <!-- 0 -->
      <g transform="translate(112.182386 399.078438) scale(0.1 -0.1)">
       <defs>
        <path id="DejaVuSans-30" d="M 2034 4250 
Q 1547 4250 1301 3770 
Q 1056 3291 1056 2328 
Q 1056 1369 1301 889 
Q 1547 409 2034 409 
Q 2525 409 2770 889 
Q 3016 1369 3016 2328 
Q 3016 3291 2770 3770 
Q 2525 4250 2034 4250 
z
M 2034 4750 
Q 2819 4750 3233 4129 
Q 3647 3509 3647 2328 
Q 3647 1150 3233 529 
Q 2819 -91 2034 -91 
Q 1250 -91 836 529 
Q 422 1150 422 2328 
Q 422 3509 836 4129 
Q 1250 4750 2034 4750 
z
" transform="scale(0.015625)"/>
       </defs>
       <use xlink:href="#DejaVuSans-30"/>
      </g>
     </g>
    </g>
    <g id="xtick_2">
     <g id="line2d_3">
      <path d="M 149.181818 384.48 
L 149.181818 51.84 
" clip-path="url(#p6751fe56d0)" style="fill: none; stroke-dasharray: 1.85,0.8; stroke-dashoffset: 0; stroke: #b0b0b0; stroke-opacity: 0.8; stroke-width: 0.5"/>
     </g>
     <g id="line2d_4">
      <g>
       <use xlink:href="#m8a09c167ca" x="149.181818" y="384.48" style="stroke: #000000; stroke-width: 0.8"/>
      </g>
     </g>
     <g id="text_2">
      <!-- 1 -->
      <g transform="translate(146.000568 399.078438) scale(0.1 -0.1)">
       <defs>
        <path id="DejaVuSans-31" d="M 794 531 
L 1825 531 
L 1825 4091 
L 703 3866 
L 703 4441 
L 1819 4666 
L 2450 4666 
L 2450 531 
L 3481 531 
L 3481 0 
L 794 0 
L 794 531 
z
" transform="scale(0.015625)"/>
       </defs>
       <use xlink:href="#DejaVuSans-31"/>
      </g>
     </g>
    </g>
    <g id="xtick_3">
     <g id="line2d_5">
      <path d="M 183 384.48 
L 183 51.84 
" clip-path="url(#p6751fe56d0)" style="fill: none; stroke-dasharray: 1.85,0.8; stroke-dashoffset: 0; stroke: #b0b0b0; stroke-opacity: 0.8; stroke-width: 0.5"/>
     </g>
     <g id="line2d_6">
      <g>
       <use xlink:href="#m8a09c167ca" x="183" y="384.48" style="stroke: #000000; stroke-width: 0.8"/>
      </g>
     </g>
     <g id="text_3">
      <!-- 2 -->
      <g transform="translate(179.81875 399.078438) scale(0.1 -0.1)">
       <defs>
        <path id="DejaVuSans-32" d="M 1228 531 
L 3431 531 
L 3431 0 
L 469 0 
L 469 531 
Q 828 903 1448 1529 
Q 2069 2156 2228 2338 
Q 2531 2678 2651 2914 
Q 2772 3150 2772 3378 
Q 2772 3750 2511 3984 
Q 2250 4219 1831 4219 
Q 1534 4219 1204 4116 
Q 875 4013 500 3803 
L 500 4441 
Q 881 4594 1212 4672 
Q 1544 4750 1819 4750 
Q 2544 4750 2975 4387 
Q 3406 4025 3406 3419 
Q 3406 3131 3298 2873 
Q 3191 2616 2906 2266 
Q 2828 2175 2409 1742 
Q 1991 1309 1228 531 
z
" transform="scale(0.015625)"/>
       </defs>
       <use xlink:href="#DejaVuSans-32"/>
      </g>
     </g>
    </g>
    <g id="xtick_4">
     <g id="line2d_7">
      <path d="M 216.818182 384.48 
L 216.818182 51.84 
" clip-path="url(#p6751fe56d0)" style="fill: none; stroke-dasharray: 1.85,0.8; stroke-dashoffset: 0; stroke: #b0b0b0; stroke-opacity: 0.8; stroke-width: 0.5"/>
     </g>
     <g id="line2d_8">
      <g>
       <use xlink:href="#m8a09c167ca" x="216.818182" y="384.48" style="stroke: #000000; stroke-width: 0.8"/>
      </g>
     </g>
     <g id="text_4">
      <!-- 3 -->
      <g transform="translate(213.636932 399.078438) scale(0.1 -0.1)">
       <defs>
        <path id="DejaVuSans-33" d="M 2597 2516 
Q 3050 2419 3304 2112 
Q 3559 1806 3559 1356 
Q 3559 666 3084 287 
Q 2609 -91 1734 -91 
Q 1441 -91 1130 -33 
Q 819 25 488 141 
L 488 750 
Q 750 597 1062 519 
Q 1375 441 1716 441 
Q 2309 441 2620 675 
Q 2931 909 2931 1356 
Q 2931 1769 2642 2001 
Q 2353 2234 1838 2234 
L 1294 2234 
L 1294 2753 
L 1863 2753 
Q 2328 2753 2575 2939 
Q 2822 3125 2822 3475 
Q 2822 3834 2567 4026 
Q 2313 4219 1838 4219 
Q 1578 4219 1281 4162 
Q 984 4106 628 3988 
L 628 4550 
Q 988 4650 1302 4700 
Q 1616 4750 1894 4750 
Q 2613 4750 3031 4423 
Q 3450 4097 3450 3541 
Q 3450 3153 3228 2886 
Q 3006 2619 2597 2516 
z
" transform="scale(0.015625)"/>
       </defs>
       <use xlink:href="#DejaVuSans-33"/>
      </g>
     </g>
    </g>
    <g id="xtick_5">
     <g id="line2d_9">
      <path d="M 250.636364 384.48 
L 250.636364 51.84 
" clip-path="url(#p6751fe56d0)" style="fill: none; stroke-dasharray: 1.85,0.8; stroke-dashoffset: 0; stroke: #b0b0b0; stroke-opacity: 0.8; stroke-width: 0.5"/>
     </g>
     <g id="line2d_10">
      <g>
       <use xlink:href="#m8a09c167ca" x="250.636364" y="384.48" style="stroke: #000000; stroke-width: 0.8"/>
      </g>
     </g>
     <g id="text_5">
      <!-- 4 -->
      <g transform="translate(247.455114 399.078438) scale(0.1 -0.1)">
       <defs>
        <path id="DejaVuSans-34" d="M 2419 4116 
L 825 1625 
L 2419 1625 
L 2419 4116 
z
M 2253 4666 
L 3047 4666 
L 3047 1625 
L 3713 1625 
L 3713 1100 
L 3047 1100 
L 3047 0 
L 2419 0 
L 2419 1100 
L 313 1100 
L 313 1709 
L 2253 4666 
z
" transform="scale(0.015625)"/>
       </defs>
       <use xlink:href="#DejaVuSans-34"/>
      </g>
     </g>
    </g>
    <g id="xtick_6">
     <g id="line2d_11">
      <path d="M 284.454545 384.48 
L 284.454545 51.84 
" clip-path="url(#p6751fe56d0)" style="fill: none; stroke-dasharray: 1.85,0.8; stroke-dashoffset: 0; stroke: #b0b0b0; stroke-opacity: 0.8; stroke-width: 0.5"/>
     </g>
     <g id="line2d_12">
      <g>
       <use xlink:href="#m8a09c167ca" x="284.454545" y="384.48" style="stroke: #000000; stroke-width: 0.8"/>
      </g>
     </g>
     <g id="text_6">
      <!-- 5 -->
      <g transform="translate(281.273295 399.078438) scale(0.1 -0.1)">
       <defs>
        <path id="DejaVuSans-35" d="M 691 4666 
L 3169 4666 
L 3169 4134 
L 1269 4134 
L 1269 2991 
Q 1406 3038 1543 3061 
Q 1681 3084 1819 3084 
Q 2600 3084 3056 2656 
Q 3513 2228 3513 1497 
Q 3513 744 3044 326 
Q 2575 -91 1722 -91 
Q 1428 -91 1123 -41 
Q 819 9 494 109 
L 494 744 
Q 775 591 1075 516 
Q 1375 441 1709 441 
Q 2250 441 2565 725 
Q 2881 1009 2881 1497 
Q 2881 1984 2565 2268 
Q 2250 2553 1709 2553 
Q 1456 2553 1204 2497 
Q 953 2441 691 2322 
L 691 4666 
z
" transform="scale(0.015625)"/>
       </defs>
       <use xlink:href="#DejaVuSans-35"/>
      </g>
     </g>
    </g>
    <g id="xtick_7">
     <g id="line2d_13">
      <path d="M 318.272727 384.48 
L 318.272727 51.84 
" clip-path="url(#p6751fe56d0)" style="fill: none; stroke-dasharray: 1.85,0.8; stroke-dashoffset: 0; stroke: #b0b0b0; stroke-opacity: 0.8; stroke-width: 0.5"/>
     </g>
     <g id="line2d_14">
      <g>
       <use xlink:href="#m8a09c167ca" x="318.272727" y="384.48" style="stroke: #000000; stroke-width: 0.8"/>
      </g>
     </g>
     <g id="text_7">
      <!-- 6 -->
      <g transform="translate(315.091477 399.078438) scale(0.1 -0.1)">
       <defs>
        <path id="DejaVuSans-36" d="M 2113 2584 
Q 1688 2584 1439 2293 
Q 1191 2003 1191 1497 
Q 1191 994 1439 701 
Q 1688 409 2113 409 
Q 2538 409 2786 701 
Q 3034 994 3034 1497 
Q 3034 2003 2786 2293 
Q 2538 2584 2113 2584 
z
M 3366 4563 
L 3366 3988 
Q 3128 4100 2886 4159 
Q 2644 4219 2406 4219 
Q 1781 4219 1451 3797 
Q 1122 3375 1075 2522 
Q 1259 2794 1537 2939 
Q 1816 3084 2150 3084 
Q 2853 3084 3261 2657 
Q 3669 2231 3669 1497 
Q 3669 778 3244 343 
Q 2819 -91 2113 -91 
Q 1303 -91 875 529 
Q 447 1150 447 2328 
Q 447 3434 972 4092 
Q 1497 4750 2381 4750 
Q 2619 4750 2861 4703 
Q 3103 4656 3366 4563 
z
" transform="scale(0.015625)"/>
       </defs>
       <use xlink:href="#DejaVuSans-36"/>
      </g>
     </g>
    </g>
    <g id="xtick_8">
     <g id="line2d_15">
      <path d="M 352.090909 384.48 
L 352.090909 51.84 
" clip-path="url(#p6751fe56d0)" style="fill: none; stroke-dasharray: 1.85,0.8; stroke-dashoffset: 0; stroke: #b0b0b0; stroke-opacity: 0.8; stroke-width: 0.5"/>
     </g>
     <g id="line2d_16">
      <g>
       <use xlink:href="#m8a09c167ca" x="352.090909" y="384.48" style="stroke: #000000; stroke-width: 0.8"/>
      </g>
     </g>
     <g id="text_8">
      <!-- 7 -->
      <g transform="translate(348.909659 399.078438) scale(0.1 -0.1)">
       <defs>
        <path id="DejaVuSans-37" d="M 525 4666 
L 3525 4666 
L 3525 4397 
L 1831 0 
L 1172 0 
L 2766 4134 
L 525 4134 
L 525 4666 
z
" transform="scale(0.015625)"/>
       </defs>
       <use xlink:href="#DejaVuSans-37"/>
      </g>
     </g>
    </g>
    <g id="xtick_9">
     <g id="line2d_17">
      <path d="M 385.909091 384.48 
L 385.909091 51.84 
" clip-path="url(#p6751fe56d0)" style="fill: none; stroke-dasharray: 1.85,0.8; stroke-dashoffset: 0; stroke: #b0b0b0; stroke-opacity: 0.8; stroke-width: 0.5"/>
     </g>
     <g id="line2d_18">
      <g>
       <use xlink:href="#m8a09c167ca" x="385.909091" y="384.48" style="stroke: #000000; stroke-width: 0.8"/>
      </g>
     </g>
     <g id="text_9">
      <!-- 8 -->
      <g transform="translate(382.727841 399.078438) scale(0.1 -0.1)">
       <defs>
        <path id="DejaVuSans-38" d="M 2034 2216 
Q 1584 2216 1326 1975 
Q 1069 1734 1069 1313 
Q 1069 891 1326 650 
Q 1584 409 2034 409 
Q 2484 409 2743 651 
Q 3003 894 3003 1313 
Q 3003 1734 2745 1975 
Q 2488 2216 2034 2216 
z
M 1403 2484 
Q 997 2584 770 2862 
Q 544 3141 544 3541 
Q 544 4100 942 4425 
Q 1341 4750 2034 4750 
Q 2731 4750 3128 4425 
Q 3525 4100 3525 3541 
Q 3525 3141 3298 2862 
Q 3072 2584 2669 2484 
Q 3125 2378 3379 2068 
Q 3634 1759 3634 1313 
Q 3634 634 3220 271 
Q 2806 -91 2034 -91 
Q 1263 -91 848 271 
Q 434 634 434 1313 
Q 434 1759 690 2068 
Q 947 2378 1403 2484 
z
M 1172 3481 
Q 1172 3119 1398 2916 
Q 1625 2713 2034 2713 
Q 2441 2713 2670 2916 
Q 2900 3119 2900 3481 
Q 2900 3844 2670 4047 
Q 2441 4250 2034 4250 
Q 1625 4250 1398 4047 
Q 1172 3844 1172 3481 
z
" transform="scale(0.015625)"/>
       </defs>
       <use xlink:href="#DejaVuSans-38"/>
      </g>
     </g>
    </g>
    <g id="xtick_10">
     <g id="line2d_19">
      <path d="M 419.727273 384.48 
L 419.727273 51.84 
" clip-path="url(#p6751fe56d0)" style="fill: none; stroke-dasharray: 1.85,0.8; stroke-dashoffset: 0; stroke: #b0b0b0; stroke-opacity: 0.8; stroke-width: 0.5"/>
     </g>
     <g id="line2d_20">
      <g>
       <use xlink:href="#m8a09c167ca" x="419.727273" y="384.48" style="stroke: #000000; stroke-width: 0.8"/>
      </g>
     </g>
     <g id="text_10">
      <!-- 9 -->
      <g transform="translate(416.546023 399.078438) scale(0.1 -0.1)">
       <defs>
        <path id="DejaVuSans-39" d="M 703 97 
L 703 672 
Q 941 559 1184 500 
Q 1428 441 1663 441 
Q 2288 441 2617 861 
Q 2947 1281 2994 2138 
Q 2813 1869 2534 1725 
Q 2256 1581 1919 1581 
Q 1219 1581 811 2004 
Q 403 2428 403 3163 
Q 403 3881 828 4315 
Q 1253 4750 1959 4750 
Q 2769 4750 3195 4129 
Q 3622 3509 3622 2328 
Q 3622 1225 3098 567 
Q 2575 -91 1691 -91 
Q 1453 -91 1209 -44 
Q 966 3 703 97 
z
M 1959 2075 
Q 2384 2075 2632 2365 
Q 2881 2656 2881 3163 
Q 2881 3666 2632 3958 
Q 2384 4250 1959 4250 
Q 1534 4250 1286 3958 
Q 1038 3666 1038 3163 
Q 1038 2656 1286 2365 
Q 1534 2075 1959 2075 
z
" transform="scale(0.015625)"/>
       </defs>
       <use xlink:href="#DejaVuSans-39"/>
      </g>
     </g>
    </g>
    <g id="xtick_11">
     <g id="line2d_21">
      <path d="M 453.545455 384.48 
L 453.545455 51.84 
" clip-path="url(#p6751fe56d0)" style="fill: none; stroke-dasharray: 1.85,0.8; stroke-dashoffset: 0; stroke: #b0b0b0; stroke-opacity: 0.8; stroke-width: 0.5"/>
     </g>
     <g id="line2d_22">
      <g>
       <use xlink:href="#m8a09c167ca" x="453.545455" y="384.48" style="stroke: #000000; stroke-width: 0.8"/>
      </g>
     </g>
     <g id="text_11">
      <!-- 10 -->
      <g transform="translate(447.182955 399.078438) scale(0.1 -0.1)">
       <use xlink:href="#DejaVuSans-31"/>
       <use xlink:href="#DejaVuSans-30" x="63.623047"/>
      </g>
     </g>
    </g>
    <g id="xtick_12">
     <g id="line2d_23">
      <path d="M 487.363636 384.48 
L 487.363636 51.84 
" clip-path="url(#p6751fe56d0)" style="fill: none; stroke-dasharray: 1.85,0.8; stroke-dashoffset: 0; stroke: #b0b0b0; stroke-opacity: 0.8; stroke-width: 0.5"/>
     </g>
     <g id="line2d_24">
      <g>
       <use xlink:href="#m8a09c167ca" x="487.363636" y="384.48" style="stroke: #000000; stroke-width: 0.8"/>
      </g>
     </g>
     <g id="text_12">
      <!-- 11 -->
      <g transform="translate(481.001136 399.078438) scale(0.1 -0.1)">
       <use xlink:href="#DejaVuSans-31"/>
       <use xlink:href="#DejaVuSans-31" x="63.623047"/>
      </g>
     </g>
    </g>
    <g id="xtick_13">
     <g id="line2d_25">
      <path d="M 521.181818 384.48 
L 521.181818 51.84 
" clip-path="url(#p6751fe56d0)" style="fill: none; stroke-dasharray: 1.85,0.8; stroke-dashoffset: 0; stroke: #b0b0b0; stroke-opacity: 0.8; stroke-width: 0.5"/>
     </g>
     <g id="line2d_26">
      <g>
       <use xlink:href="#m8a09c167ca" x="521.181818" y="384.48" style="stroke: #000000; stroke-width: 0.8"/>
      </g>
     </g>
     <g id="text_13">
      <!-- 12 -->
      <g transform="translate(514.819318 399.078438) scale(0.1 -0.1)">
       <use xlink:href="#DejaVuSans-31"/>
       <use xlink:href="#DejaVuSans-32" x="63.623047"/>
      </g>
     </g>
    </g>
    <g id="xtick_14">
     <g id="line2d_27">
      <path d="M 555 384.48 
L 555 51.84 
" clip-path="url(#p6751fe56d0)" style="fill: none; stroke-dasharray: 1.85,0.8; stroke-dashoffset: 0; stroke: #b0b0b0; stroke-opacity: 0.8; stroke-width: 0.5"/>
     </g>
     <g id="line2d_28">
      <g>
       <use xlink:href="#m8a09c167ca" x="555" y="384.48" style="stroke: #000000; stroke-width: 0.8"/>
      </g>
     </g>
     <g id="text_14">
      <!-- 13 -->
      <g transform="translate(548.6375 399.078438) scale(0.1 -0.1)">
       <use xlink:href="#DejaVuSans-31"/>
       <use xlink:href="#DejaVuSans-33" x="63.623047"/>
      </g>
     </g>
    </g>
    <g id="xtick_15">
     <g id="line2d_29">
      <path d="M 588.818182 384.48 
L 588.818182 51.84 
" clip-path="url(#p6751fe56d0)" style="fill: none; stroke-dasharray: 1.85,0.8; stroke-dashoffset: 0; stroke: #b0b0b0; stroke-opacity: 0.8; stroke-width: 0.5"/>
     </g>
     <g id="line2d_30">
      <g>
       <use xlink:href="#m8a09c167ca" x="588.818182" y="384.48" style="stroke: #000000; stroke-width: 0.8"/>
      </g>
     </g>
     <g id="text_15">
      <!-- 14 -->
      <g transform="translate(582.455682 399.078438) scale(0.1 -0.1)">
       <use xlink:href="#DejaVuSans-31"/>
       <use xlink:href="#DejaVuSans-34" x="63.623047"/>
      </g>
     </g>
    </g>
    <g id="xtick_16">
     <g id="line2d_31">
      <path d="M 622.636364 384.48 
L 622.636364 51.84 
" clip-path="url(#p6751fe56d0)" style="fill: none; stroke-dasharray: 1.85,0.8; stroke-dashoffset: 0; stroke: #b0b0b0; stroke-opacity: 0.8; stroke-width: 0.5"/>
     </g>
     <g id="line2d_32">
      <g>
       <use xlink:href="#m8a09c167ca" x="622.636364" y="384.48" style="stroke: #000000; stroke-width: 0.8"/>
      </g>
     </g>
     <g id="text_16">
      <!-- 15 -->
      <g transform="translate(616.273864 399.078438) scale(0.1 -0.1)">
       <use xlink:href="#DejaVuSans-31"/>
       <use xlink:href="#DejaVuSans-35" x="63.623047"/>
      </g>
     </g>
    </g>
    <g id="text_17">
     <!-- Integer code (4-bit example) -->
     <g transform="translate(297.253906 412.756563) scale(0.1 -0.1)">
      <defs>
       <path id="DejaVuSans-49" d="M 628 4666 
L 1259 4666 
L 1259 0 
L 628 0 
L 628 4666 
z
" transform="scale(0.015625)"/>
       <path id="DejaVuSans-6e" d="M 3513 2113 
L 3513 0 
L 2938 0 
L 2938 2094 
Q 2938 2591 2744 2837 
Q 2550 3084 2163 3084 
Q 1697 3084 1428 2787 
Q 1159 2491 1159 1978 
L 1159 0 
L 581 0 
L 581 3500 
L 1159 3500 
L 1159 2956 
Q 1366 3272 1645 3428 
Q 1925 3584 2291 3584 
Q 2894 3584 3203 3211 
Q 3513 2838 3513 2113 
z
" transform="scale(0.015625)"/>
       <path id="DejaVuSans-74" d="M 1172 4494 
L 1172 3500 
L 2356 3500 
L 2356 3053 
L 1172 3053 
L 1172 1153 
Q 1172 725 1289 603 
Q 1406 481 1766 481 
L 2356 481 
L 2356 0 
L 1766 0 
Q 1100 0 847 248 
Q 594 497 594 1153 
L 594 3053 
L 172 3053 
L 172 3500 
L 594 3500 
L 594 4494 
L 1172 4494 
z
" transform="scale(0.015625)"/>
       <path id="DejaVuSans-65" d="M 3597 1894 
L 3597 1613 
L 953 1613 
Q 991 1019 1311 708 
Q 1631 397 2203 397 
Q 2534 397 2845 478 
Q 3156 559 3463 722 
L 3463 178 
Q 3153 47 2828 -22 
Q 2503 -91 2169 -91 
Q 1331 -91 842 396 
Q 353 884 353 1716 
Q 353 2575 817 3079 
Q 1281 3584 2069 3584 
Q 2775 3584 3186 3129 
Q 3597 2675 3597 1894 
z
M 3022 2063 
Q 3016 2534 2758 2815 
Q 2500 3097 2075 3097 
Q 1594 3097 1305 2825 
Q 1016 2553 972 2059 
L 3022 2063 
z
" transform="scale(0.015625)"/>
       <path id="DejaVuSans-67" d="M 2906 1791 
Q 2906 2416 2648 2759 
Q 2391 3103 1925 3103 
Q 1463 3103 1205 2759 
Q 947 2416 947 1791 
Q 947 1169 1205 825 
Q 1463 481 1925 481 
Q 2391 481 2648 825 
Q 2906 1169 2906 1791 
z
M 3481 434 
Q 3481 -459 3084 -895 
Q 2688 -1331 1869 -1331 
Q 1566 -1331 1297 -1286 
Q 1028 -1241 775 -1147 
L 775 -588 
Q 1028 -725 1275 -790 
Q 1522 -856 1778 -856 
Q 2344 -856 2625 -561 
Q 2906 -266 2906 331 
L 2906 616 
Q 2728 306 2450 153 
Q 2172 0 1784 0 
Q 1141 0 747 490 
Q 353 981 353 1791 
Q 353 2603 747 3093 
Q 1141 3584 1784 3584 
Q 2172 3584 2450 3431 
Q 2728 3278 2906 2969 
L 2906 3500 
L 3481 3500 
L 3481 434 
z
" transform="scale(0.015625)"/>
       <path id="DejaVuSans-72" d="M 2631 2963 
Q 2534 3019 2420 3045 
Q 2306 3072 2169 3072 
Q 1681 3072 1420 2755 
Q 1159 2438 1159 1844 
L 1159 0 
L 581 0 
L 581 3500 
L 1159 3500 
L 1159 2956 
Q 1341 3275 1631 3429 
Q 1922 3584 2338 3584 
Q 2397 3584 2469 3576 
Q 2541 3569 2628 3553 
L 2631 2963 
z
" transform="scale(0.015625)"/>
       <path id="DejaVuSans-20" transform="scale(0.015625)"/>
       <path id="DejaVuSans-63" d="M 3122 3366 
L 3122 2828 
Q 2878 2963 2633 3030 
Q 2388 3097 2138 3097 
Q 1578 3097 1268 2742 
Q 959 2388 959 1747 
Q 959 1106 1268 751 
Q 1578 397 2138 397 
Q 2388 397 2633 464 
Q 2878 531 3122 666 
L 3122 134 
Q 2881 22 2623 -34 
Q 2366 -91 2075 -91 
Q 1284 -91 818 406 
Q 353 903 353 1747 
Q 353 2603 823 3093 
Q 1294 3584 2113 3584 
Q 2378 3584 2631 3529 
Q 2884 3475 3122 3366 
z
" transform="scale(0.015625)"/>
       <path id="DejaVuSans-6f" d="M 1959 3097 
Q 1497 3097 1228 2736 
Q 959 2375 959 1747 
Q 959 1119 1226 758 
Q 1494 397 1959 397 
Q 2419 397 2687 759 
Q 2956 1122 2956 1747 
Q 2956 2369 2687 2733 
Q 2419 3097 1959 3097 
z
M 1959 3584 
Q 2709 3584 3137 3096 
Q 3566 2609 3566 1747 
Q 3566 888 3137 398 
Q 2709 -91 1959 -91 
Q 1206 -91 779 398 
Q 353 888 353 1747 
Q 353 2609 779 3096 
Q 1206 3584 1959 3584 
z
" transform="scale(0.015625)"/>
       <path id="DejaVuSans-64" d="M 2906 2969 
L 2906 4863 
L 3481 4863 
L 3481 0 
L 2906 0 
L 2906 525 
Q 2725 213 2448 61 
Q 2172 -91 1784 -91 
Q 1150 -91 751 415 
Q 353 922 353 1747 
Q 353 2572 751 3078 
Q 1150 3584 1784 3584 
Q 2172 3584 2448 3432 
Q 2725 3281 2906 2969 
z
M 947 1747 
Q 947 1113 1208 752 
Q 1469 391 1925 391 
Q 2381 391 2643 752 
Q 2906 1113 2906 1747 
Q 2906 2381 2643 2742 
Q 2381 3103 1925 3103 
Q 1469 3103 1208 2742 
Q 947 2381 947 1747 
z
" transform="scale(0.015625)"/>
       <path id="DejaVuSans-28" d="M 1984 4856 
Q 1566 4138 1362 3434 
Q 1159 2731 1159 2009 
Q 1159 1288 1364 580 
Q 1569 -128 1984 -844 
L 1484 -844 
Q 1016 -109 783 600 
Q 550 1309 550 2009 
Q 550 2706 781 3412 
Q 1013 4119 1484 4856 
L 1984 4856 
z
" transform="scale(0.015625)"/>
       <path id="DejaVuSans-2d" d="M 313 2009 
L 1997 2009 
L 1997 1497 
L 313 1497 
L 313 2009 
z
" transform="scale(0.015625)"/>
       <path id="DejaVuSans-62" d="M 3116 1747 
Q 3116 2381 2855 2742 
Q 2594 3103 2138 3103 
Q 1681 3103 1420 2742 
Q 1159 2381 1159 1747 
Q 1159 1113 1420 752 
Q 1681 391 2138 391 
Q 2594 391 2855 752 
Q 3116 1113 3116 1747 
z
M 1159 2969 
Q 1341 3281 1617 3432 
Q 1894 3584 2278 3584 
Q 2916 3584 3314 3078 
Q 3713 2572 3713 1747 
Q 3713 922 3314 415 
Q 2916 -91 2278 -91 
Q 1894 -91 1617 61 
Q 1341 213 1159 525 
L 1159 0 
L 581 0 
L 581 4863 
L 1159 4863 
L 1159 2969 
z
" transform="scale(0.015625)"/>
       <path id="DejaVuSans-69" d="M 603 3500 
L 1178 3500 
L 1178 0 
L 603 0 
L 603 3500 
z
M 603 4863 
L 1178 4863 
L 1178 4134 
L 603 4134 
L 603 4863 
z
" transform="scale(0.015625)"/>
       <path id="DejaVuSans-78" d="M 3513 3500 
L 2247 1797 
L 3578 0 
L 2900 0 
L 1881 1375 
L 863 0 
L 184 0 
L 1544 1831 
L 300 3500 
L 978 3500 
L 1906 2253 
L 2834 3500 
L 3513 3500 
z
" transform="scale(0.015625)"/>
       <path id="DejaVuSans-61" d="M 2194 1759 
Q 1497 1759 1228 1600 
Q 959 1441 959 1056 
Q 959 750 1161 570 
Q 1363 391 1709 391 
Q 2188 391 2477 730 
Q 2766 1069 2766 1631 
L 2766 1759 
L 2194 1759 
z
M 3341 1997 
L 3341 0 
L 2766 0 
L 2766 531 
Q 2569 213 2275 61 
Q 1981 -91 1556 -91 
Q 1019 -91 701 211 
Q 384 513 384 1019 
Q 384 1609 779 1909 
Q 1175 2209 1959 2209 
L 2766 2209 
L 2766 2266 
Q 2766 2663 2505 2880 
Q 2244 3097 1772 3097 
Q 1472 3097 1187 3025 
Q 903 2953 641 2809 
L 641 3341 
Q 956 3463 1253 3523 
Q 1550 3584 1831 3584 
Q 2591 3584 2966 3190 
Q 3341 2797 3341 1997 
z
" transform="scale(0.015625)"/>
       <path id="DejaVuSans-6d" d="M 3328 2828 
Q 3544 3216 3844 3400 
Q 4144 3584 4550 3584 
Q 5097 3584 5394 3201 
Q 5691 2819 5691 2113 
L 5691 0 
L 5113 0 
L 5113 2094 
Q 5113 2597 4934 2840 
Q 4756 3084 4391 3084 
Q 3944 3084 3684 2787 
Q 3425 2491 3425 1978 
L 3425 0 
L 2847 0 
L 2847 2094 
Q 2847 2600 2669 2842 
Q 2491 3084 2119 3084 
Q 1678 3084 1418 2786 
Q 1159 2488 1159 1978 
L 1159 0 
L 581 0 
L 581 3500 
L 1159 3500 
L 1159 2956 
Q 1356 3278 1631 3431 
Q 1906 3584 2284 3584 
Q 2666 3584 2933 3390 
Q 3200 3197 3328 2828 
z
" transform="scale(0.015625)"/>
       <path id="DejaVuSans-70" d="M 1159 525 
L 1159 -1331 
L 581 -1331 
L 581 3500 
L 1159 3500 
L 1159 2969 
Q 1341 3281 1617 3432 
Q 1894 3584 2278 3584 
Q 2916 3584 3314 3078 
Q 3713 2572 3713 1747 
Q 3713 922 3314 415 
Q 2916 -91 2278 -91 
Q 1894 -91 1617 61 
Q 1341 213 1159 525 
z
M 3116 1747 
Q 3116 2381 2855 2742 
Q 2594 3103 2138 3103 
Q 1681 3103 1420 2742 
Q 1159 2381 1159 1747 
Q 1159 1113 1420 752 
Q 1681 391 2138 391 
Q 2594 391 2855 752 
Q 3116 1113 3116 1747 
z
" transform="scale(0.015625)"/>
       <path id="DejaVuSans-6c" d="M 603 4863 
L 1178 4863 
L 1178 0 
L 603 0 
L 603 4863 
z
" transform="scale(0.015625)"/>
       <path id="DejaVuSans-29" d="M 513 4856 
L 1013 4856 
Q 1481 4119 1714 3412 
Q 1947 2706 1947 2009 
Q 1947 1309 1714 600 
Q 1481 -109 1013 -844 
L 513 -844 
Q 928 -128 1133 580 
Q 1338 1288 1338 2009 
Q 1338 2731 1133 3434 
Q 928 4138 513 4856 
z
" transform="scale(0.015625)"/>
      </defs>
      <use xlink:href="#DejaVuSans-49"/>
      <use xlink:href="#DejaVuSans-6e" x="29.492188"/>
      <use xlink:href="#DejaVuSans-74" x="92.871094"/>
      <use xlink:href="#DejaVuSans-65" x="132.080078"/>
      <use xlink:href="#DejaVuSans-67" x="193.603516"/>
      <use xlink:href="#DejaVuSans-65" x="257.080078"/>
      <use xlink:href="#DejaVuSans-72" x="318.603516"/>
      <use xlink:href="#DejaVuSans-20" x="359.716797"/>
      <use xlink:href="#DejaVuSans-63" x="391.503906"/>
      <use xlink:href="#DejaVuSans-6f" x="446.484375"/>
      <use xlink:href="#DejaVuSans-64" x="507.666016"/>
      <use xlink:href="#DejaVuSans-65" x="571.142578"/>
      <use xlink:href="#DejaVuSans-20" x="632.666016"/>
      <use xlink:href="#DejaVuSans-28" x="664.453125"/>
      <use xlink:href="#DejaVuSans-34" x="703.466797"/>
      <use xlink:href="#DejaVuSans-2d" x="767.089844"/>
      <use xlink:href="#DejaVuSans-62" x="803.173828"/>
      <use xlink:href="#DejaVuSans-69" x="866.650391"/>
      <use xlink:href="#DejaVuSans-74" x="894.433594"/>
      <use xlink:href="#DejaVuSans-20" x="933.642578"/>
      <use xlink:href="#DejaVuSans-65" x="965.429688"/>
      <use xlink:href="#DejaVuSans-78" x="1025.203125"/>
      <use xlink:href="#DejaVuSans-61" x="1084.382812"/>
      <use xlink:href="#DejaVuSans-6d" x="1145.662109"/>
      <use xlink:href="#DejaVuSans-70" x="1243.074219"/>
      <use xlink:href="#DejaVuSans-6c" x="1306.550781"/>
      <use xlink:href="#DejaVuSans-65" x="1334.333984"/>
      <use xlink:href="#DejaVuSans-29" x="1395.857422"/>
     </g>
    </g>
   </g>
   <g id="matplotlib.axis_2">
    <g id="ytick_1">
     <g id="line2d_33">
      <path d="M 90 363.24766 
L 648 363.24766 
" clip-path="url(#p6751fe56d0)" style="fill: none; stroke-dasharray: 1.85,0.8; stroke-dashoffset: 0; stroke: #b0b0b0; stroke-opacity: 0.8; stroke-width: 0.5"/>
     </g>
     <g id="line2d_34">
      <defs>
       <path id="m3003dad999" d="M 0 0 
L -3.5 0 
" style="stroke: #000000; stroke-width: 0.8"/>
      </defs>
      <g>
       <use xlink:href="#m3003dad999" x="90" y="363.24766" style="stroke: #000000; stroke-width: 0.8"/>
      </g>
     </g>
     <g id="text_18">
      <!-- −1.0 -->
      <g transform="translate(58.717187 367.046878) scale(0.1 -0.1)">
       <defs>
        <path id="DejaVuSans-2212" d="M 678 2272 
L 4684 2272 
L 4684 1741 
L 678 1741 
L 678 2272 
z
" transform="scale(0.015625)"/>
        <path id="DejaVuSans-2e" d="M 684 794 
L 1344 794 
L 1344 0 
L 684 0 
L 684 794 
z
" transform="scale(0.015625)"/>
       </defs>
       <use xlink:href="#DejaVuSans-2212"/>
       <use xlink:href="#DejaVuSans-31" x="83.789062"/>
       <use xlink:href="#DejaVuSans-2e" x="147.412109"/>
       <use xlink:href="#DejaVuSans-30" x="179.199219"/>
      </g>
     </g>
    </g>
    <g id="ytick_2">
     <g id="line2d_35">
      <path d="M 90 292.473191 
L 648 292.473191 
" clip-path="url(#p6751fe56d0)" style="fill: none; stroke-dasharray: 1.85,0.8; stroke-dashoffset: 0; stroke: #b0b0b0; stroke-opacity: 0.8; stroke-width: 0.5"/>
     </g>
     <g id="line2d_36">
      <g>
       <use xlink:href="#m3003dad999" x="90" y="292.473191" style="stroke: #000000; stroke-width: 0.8"/>
      </g>
     </g>
     <g id="text_19">
      <!-- −0.5 -->
      <g transform="translate(58.717187 296.27241) scale(0.1 -0.1)">
       <use xlink:href="#DejaVuSans-2212"/>
       <use xlink:href="#DejaVuSans-30" x="83.789062"/>
       <use xlink:href="#DejaVuSans-2e" x="147.412109"/>
       <use xlink:href="#DejaVuSans-35" x="179.199219"/>
      </g>
     </g>
    </g>
    <g id="ytick_3">
     <g id="line2d_37">
      <path d="M 90 221.698723 
L 648 221.698723 
" clip-path="url(#p6751fe56d0)" style="fill: none; stroke-dasharray: 1.85,0.8; stroke-dashoffset: 0; stroke: #b0b0b0; stroke-opacity: 0.8; stroke-width: 0.5"/>
     </g>
     <g id="line2d_38">
      <g>
       <use xlink:href="#m3003dad999" x="90" y="221.698723" style="stroke: #000000; stroke-width: 0.8"/>
      </g>
     </g>
     <g id="text_20">
      <!-- 0.0 -->
      <g transform="translate(67.096875 225.497942) scale(0.1 -0.1)">
       <use xlink:href="#DejaVuSans-30"/>
       <use xlink:href="#DejaVuSans-2e" x="63.623047"/>
       <use xlink:href="#DejaVuSans-30" x="95.410156"/>
      </g>
     </g>
    </g>
    <g id="ytick_4">
     <g id="line2d_39">
      <path d="M 90 150.924255 
L 648 150.924255 
" clip-path="url(#p6751fe56d0)" style="fill: none; stroke-dasharray: 1.85,0.8; stroke-dashoffset: 0; stroke: #b0b0b0; stroke-opacity: 0.8; stroke-width: 0.5"/>
     </g>
     <g id="line2d_40">
      <g>
       <use xlink:href="#m3003dad999" x="90" y="150.924255" style="stroke: #000000; stroke-width: 0.8"/>
      </g>
     </g>
     <g id="text_21">
      <!-- 0.5 -->
      <g transform="translate(67.096875 154.723474) scale(0.1 -0.1)">
       <use xlink:href="#DejaVuSans-30"/>
       <use xlink:href="#DejaVuSans-2e" x="63.623047"/>
       <use xlink:href="#DejaVuSans-35" x="95.410156"/>
      </g>
     </g>
    </g>
    <g id="ytick_5">
     <g id="line2d_41">
      <path d="M 90 80.149787 
L 648 80.149787 
" clip-path="url(#p6751fe56d0)" style="fill: none; stroke-dasharray: 1.85,0.8; stroke-dashoffset: 0; stroke: #b0b0b0; stroke-opacity: 0.8; stroke-width: 0.5"/>
     </g>
     <g id="line2d_42">
      <g>
       <use xlink:href="#m3003dad999" x="90" y="80.149787" style="stroke: #000000; stroke-width: 0.8"/>
      </g>
     </g>
     <g id="text_22">
      <!-- 1.0 -->
      <g transform="translate(67.096875 83.949006) scale(0.1 -0.1)">
       <use xlink:href="#DejaVuSans-31"/>
       <use xlink:href="#DejaVuSans-2e" x="63.623047"/>
       <use xlink:href="#DejaVuSans-30" x="95.410156"/>
      </g>
     </g>
    </g>
    <g id="text_23">
     <!-- Float value -->
     <g transform="translate(52.6375 245.755312) rotate(-90) scale(0.1 -0.1)">
      <defs>
       <path id="DejaVuSans-46" d="M 628 4666 
L 3309 4666 
L 3309 4134 
L 1259 4134 
L 1259 2759 
L 3109 2759 
L 3109 2228 
L 1259 2228 
L 1259 0 
L 628 0 
L 628 4666 
z
" transform="scale(0.015625)"/>
       <path id="DejaVuSans-76" d="M 191 3500 
L 800 3500 
L 1894 563 
L 2988 3500 
L 3597 3500 
L 2284 0 
L 1503 0 
L 191 3500 
z
" transform="scale(0.015625)"/>
       <path id="DejaVuSans-75" d="M 544 1381 
L 544 3500 
L 1119 3500 
L 1119 1403 
Q 1119 906 1312 657 
Q 1506 409 1894 409 
Q 2359 409 2629 706 
Q 2900 1003 2900 1516 
L 2900 3500 
L 3475 3500 
L 3475 0 
L 2900 0 
L 2900 538 
Q 2691 219 2414 64 
Q 2138 -91 1772 -91 
Q 1169 -91 856 284 
Q 544 659 544 1381 
z
M 1991 3584 
L 1991 3584 
z
" transform="scale(0.015625)"/>
      </defs>
      <use xlink:href="#DejaVuSans-46"/>
      <use xlink:href="#DejaVuSans-6c" x="57.519531"/>
      <use xlink:href="#DejaVuSans-6f" x="85.302734"/>
      <use xlink:href="#DejaVuSans-61" x="146.484375"/>
      <use xlink:href="#DejaVuSans-74" x="207.763672"/>
      <use xlink:href="#DejaVuSans-20" x="246.972656"/>
      <use xlink:href="#DejaVuSans-76" x="278.759766"/>
      <use xlink:href="#DejaVuSans-61" x="337.939453"/>
      <use xlink:href="#DejaVuSans-6c" x="399.21875"/>
      <use xlink:href="#DejaVuSans-75" x="427.001953"/>
      <use xlink:href="#DejaVuSans-65" x="490.380859"/>
     </g>
    </g>
   </g>
   <g id="line2d_43">
    <path d="M 90 221.698723 
L 648 221.698723 
" clip-path="url(#p6751fe56d0)" style="fill: none; stroke: #333333; stroke-width: 0.8; stroke-linecap: square"/>
   </g>
   <g id="line2d_44">
    <path d="M 115.363636 363.24766 
L 149.181818 345.554043 
L 183 327.860426 
L 216.818182 310.166809 
L 250.636364 292.473191 
L 284.454545 274.779574 
L 318.272727 257.085957 
L 352.090909 239.39234 
L 385.909091 221.698723 
L 419.727273 204.005106 
L 453.545455 186.311489 
L 487.363636 168.617872 
L 521.181818 150.924255 
L 555 133.230638 
L 588.818182 115.537021 
L 622.636364 97.843404 
" clip-path="url(#p6751fe56d0)" style="fill: none; stroke: #1565c0; stroke-width: 1.6; stroke-linecap: square"/>
    <defs>
     <path id="mcdbbbb2ab3" d="M 0 2.5 
C 0.663008 2.5 1.29895 2.236584 1.767767 1.767767 
C 2.236584 1.29895 2.5 0.663008 2.5 0 
C 2.5 -0.663008 2.236584 -1.29895 1.767767 -1.767767 
C 1.29895 -2.236584 0.663008 -2.5 0 -2.5 
C -0.663008 -2.5 -1.29895 -2.236584 -1.767767 -1.767767 
C -2.236584 -1.29895 -2.5 -0.663008 -2.5 0 
C -2.5 0.663008 -2.236584 1.29895 -1.767767 1.767767 
C -1.29895 2.236584 -0.663008 2.5 0 2.5 
z
" style="stroke: #1565c0"/>
    </defs>
    <g clip-path="url(#p6751fe56d0)">
     <use xlink:href="#mcdbbbb2ab3" x="115.363636" y="363.24766" style="fill: #1565c0; stroke: #1565c0"/>
     <use xlink:href="#mcdbbbb2ab3" x="149.181818" y="345.554043" style="fill: #1565c0; stroke: #1565c0"/>
     <use xlink:href="#mcdbbbb2ab3" x="183" y="327.860426" style="fill: #1565c0; stroke: #1565c0"/>
     <use xlink:href="#mcdbbbb2ab3" x="216.818182" y="310.166809" style="fill: #1565c0; stroke: #1565c0"/>
     <use xlink:href="#mcdbbbb2ab3" x="250.636364" y="292.473191" style="fill: #1565c0; stroke: #1565c0"/>
     <use xlink:href="#mcdbbbb2ab3" x="284.454545" y="274.779574" style="fill: #1565c0; stroke: #1565c0"/>
     <use xlink:href="#mcdbbbb2ab3" x="318.272727" y="257.085957" style="fill: #1565c0; stroke: #1565c0"/>
     <use xlink:href="#mcdbbbb2ab3" x="352.090909" y="239.39234" style="fill: #1565c0; stroke: #1565c0"/>
     <use xlink:href="#mcdbbbb2ab3" x="385.909091" y="221.698723" style="fill: #1565c0; stroke: #1565c0"/>
     <use xlink:href="#mcdbbbb2ab3" x="419.727273" y="204.005106" style="fill: #1565c0; stroke: #1565c0"/>
     <use xlink:href="#mcdbbbb2ab3" x="453.545455" y="186.311489" style="fill: #1565c0; stroke: #1565c0"/>
     <use xlink:href="#mcdbbbb2ab3" x="487.363636" y="168.617872" style="fill: #1565c0; stroke: #1565c0"/>
     <use xlink:href="#mcdbbbb2ab3" x="521.181818" y="150.924255" style="fill: #1565c0; stroke: #1565c0"/>
     <use xlink:href="#mcdbbbb2ab3" x="555" y="133.230638" style="fill: #1565c0; stroke: #1565c0"/>
     <use xlink:href="#mcdbbbb2ab3" x="588.818182" y="115.537021" style="fill: #1565c0; stroke: #1565c0"/>
     <use xlink:href="#mcdbbbb2ab3" x="622.636364" y="97.843404" style="fill: #1565c0; stroke: #1565c0"/>
    </g>
   </g>
   <g id="line2d_45">
    <path d="M 115.363636 221.698723 
L 149.181818 212.262128 
L 183 202.825532 
L 216.818182 193.388936 
L 250.636364 183.95234 
L 284.454545 174.515745 
L 318.272727 165.079149 
L 352.090909 155.642553 
L 385.909091 146.205957 
L 419.727273 136.769362 
L 453.545455 127.332766 
L 487.363636 117.89617 
L 521.181818 108.459574 
L 555 99.022979 
L 588.818182 89.586383 
L 622.636364 80.149787 
" clip-path="url(#p6751fe56d0)" style="fill: none; stroke: #ffb300; stroke-width: 1.6; stroke-linecap: square"/>
    <defs>
     <path id="m5dcb498b73" d="M -2.5 2.5 
L 2.5 2.5 
L 2.5 -2.5 
L -2.5 -2.5 
z
" style="stroke: #ffb300; stroke-linejoin: miter"/>
    </defs>
    <g clip-path="url(#p6751fe56d0)">
     <use xlink:href="#m5dcb498b73" x="115.363636" y="221.698723" style="fill: #ffb300; stroke: #ffb300; stroke-linejoin: miter"/>
     <use xlink:href="#m5dcb498b73" x="149.181818" y="212.262128" style="fill: #ffb300; stroke: #ffb300; stroke-linejoin: miter"/>
     <use xlink:href="#m5dcb498b73" x="183" y="202.825532" style="fill: #ffb300; stroke: #ffb300; stroke-linejoin: miter"/>
     <use xlink:href="#m5dcb498b73" x="216.818182" y="193.388936" style="fill: #ffb300; stroke: #ffb300; stroke-linejoin: miter"/>
     <use xlink:href="#m5dcb498b73" x="250.636364" y="183.95234" style="fill: #ffb300; stroke: #ffb300; stroke-linejoin: miter"/>
     <use xlink:href="#m5dcb498b73" x="284.454545" y="174.515745" style="fill: #ffb300; stroke: #ffb300; stroke-linejoin: miter"/>
     <use xlink:href="#m5dcb498b73" x="318.272727" y="165.079149" style="fill: #ffb300; stroke: #ffb300; stroke-linejoin: miter"/>
     <use xlink:href="#m5dcb498b73" x="352.090909" y="155.642553" style="fill: #ffb300; stroke: #ffb300; stroke-linejoin: miter"/>
     <use xlink:href="#m5dcb498b73" x="385.909091" y="146.205957" style="fill: #ffb300; stroke: #ffb300; stroke-linejoin: miter"/>
     <use xlink:href="#m5dcb498b73" x="419.727273" y="136.769362" style="fill: #ffb300; stroke: #ffb300; stroke-linejoin: miter"/>
     <use xlink:href="#m5dcb498b73" x="453.545455" y="127.332766" style="fill: #ffb300; stroke: #ffb300; stroke-linejoin: miter"/>
     <use xlink:href="#m5dcb498b73" x="487.363636" y="117.89617" style="fill: #ffb300; stroke: #ffb300; stroke-linejoin: miter"/>
     <use xlink:href="#m5dcb498b73" x="521.181818" y="108.459574" style="fill: #ffb300; stroke: #ffb300; stroke-linejoin: miter"/>
     <use xlink:href="#m5dcb498b73" x="555" y="99.022979" style="fill: #ffb300; stroke: #ffb300; stroke-linejoin: miter"/>
     <use xlink:href="#m5dcb498b73" x="588.818182" y="89.586383" style="fill: #ffb300; stroke: #ffb300; stroke-linejoin: miter"/>
     <use xlink:href="#m5dcb498b73" x="622.636364" y="80.149787" style="fill: #ffb300; stroke: #ffb300; stroke-linejoin: miter"/>
    </g>
   </g>
   <g id="line2d_46">
    <path d="M 90 80.149787 
L 648 80.149787 
" clip-path="url(#p6751fe56d0)" style="fill: none; stroke-dasharray: 1,1.65; stroke-dashoffset: 0; stroke: #43a047"/>
   </g>
   <g id="patch_3">
    <path d="M 90 384.48 
L 90 51.84 
" style="fill: none; stroke: #000000; stroke-width: 0.8; stroke-linejoin: miter; stroke-linecap: square"/>
   </g>
   <g id="patch_4">
    <path d="M 648 384.48 
L 648 51.84 
" style="fill: none; stroke: #000000; stroke-width: 0.8; stroke-linejoin: miter; stroke-linecap: square"/>
   </g>
   <g id="patch_5">
    <path d="M 90 384.48 
L 648 384.48 
" style="fill: none; stroke: #000000; stroke-width: 0.8; stroke-linejoin: miter; stroke-linecap: square"/>
   </g>
   <g id="patch_6">
    <path d="M 90 51.84 
L 648 51.84 
" style="fill: none; stroke: #000000; stroke-width: 0.8; stroke-linejoin: miter; stroke-linecap: square"/>
   </g>
   <g id="patch_7">
    <path d="M 505.28729 75.896034 
Q 562.978785 86.685864 619.791097 97.311264 
" style="fill: none; stroke: #333333; stroke-width: 0.8; stroke-linecap: round"/>
    <path d="M 616.583363 94.880123 
L 619.791097 97.311264 
L 615.921544 98.418766 
" style="fill: none; stroke: #333333; stroke-width: 0.8; stroke-linecap: round"/>
   </g>
   <g id="text_24">
    <!-- +1.0 not representable -->
    <g style="fill: #333333" transform="translate(372.381818 61.57882) scale(0.09 -0.09)">
     <defs>
      <path id="DejaVuSans-2b" d="M 2944 4013 
L 2944 2272 
L 4684 2272 
L 4684 1741 
L 2944 1741 
L 2944 0 
L 2419 0 
L 2419 1741 
L 678 1741 
L 678 2272 
L 2419 2272 
L 2419 4013 
L 2944 4013 
z
" transform="scale(0.015625)"/>
      <path id="DejaVuSans-73" d="M 2834 3397 
L 2834 2853 
Q 2591 2978 2328 3040 
Q 2066 3103 1784 3103 
Q 1356 3103 1142 2972 
Q 928 2841 928 2578 
Q 928 2378 1081 2264 
Q 1234 2150 1697 2047 
L 1894 2003 
Q 2506 1872 2764 1633 
Q 3022 1394 3022 966 
Q 3022 478 2636 193 
Q 2250 -91 1575 -91 
Q 1294 -91 989 -36 
Q 684 19 347 128 
L 347 722 
Q 666 556 975 473 
Q 1284 391 1588 391 
Q 1994 391 2212 530 
Q 2431 669 2431 922 
Q 2431 1156 2273 1281 
Q 2116 1406 1581 1522 
L 1381 1569 
Q 847 1681 609 1914 
Q 372 2147 372 2553 
Q 372 3047 722 3315 
Q 1072 3584 1716 3584 
Q 2034 3584 2315 3537 
Q 2597 3491 2834 3397 
z
" transform="scale(0.015625)"/>
     </defs>
     <use xlink:href="#DejaVuSans-2b"/>
     <use xlink:href="#DejaVuSans-31" x="83.789062"/>
     <use xlink:href="#DejaVuSans-2e" x="147.412109"/>
     <use xlink:href="#DejaVuSans-30" x="179.199219"/>
     <use xlink:href="#DejaVuSans-20" x="242.822266"/>
     <use xlink:href="#DejaVuSans-6e" x="274.609375"/>
     <use xlink:href="#DejaVuSans-6f" x="337.988281"/>
     <use xlink:href="#DejaVuSans-74" x="399.169922"/>
     <use xlink:href="#DejaVuSans-20" x="438.378906"/>
     <use xlink:href="#DejaVuSans-72" x="470.166016"/>
     <use xlink:href="#DejaVuSans-65" x="509.029297"/>
     <use xlink:href="#DejaVuSans-70" x="570.552734"/>
     <use xlink:href="#DejaVuSans-72" x="634.029297"/>
     <use xlink:href="#DejaVuSans-65" x="672.892578"/>
     <use xlink:href="#DejaVuSans-73" x="734.416016"/>
     <use xlink:href="#DejaVuSans-65" x="786.515625"/>
     <use xlink:href="#DejaVuSans-6e" x="848.039062"/>
     <use xlink:href="#DejaVuSans-74" x="911.417969"/>
     <use xlink:href="#DejaVuSans-61" x="950.626953"/>
     <use xlink:href="#DejaVuSans-62" x="1011.90625"/>
     <use xlink:href="#DejaVuSans-6c" x="1075.382812"/>
     <use xlink:href="#DejaVuSans-65" x="1103.166016"/>
    </g>
    <!-- (max = (2^bits-1) / 2^(bits-1)) -->
    <g style="fill: #333333" transform="translate(372.381818 71.656851) scale(0.09 -0.09)">
     <defs>
      <path id="DejaVuSans-3d" d="M 678 2906 
L 4684 2906 
L 4684 2381 
L 678 2381 
L 678 2906 
z
M 678 1631 
L 4684 1631 
L 4684 1100 
L 678 1100 
L 678 1631 
z
" transform="scale(0.015625)"/>
      <path id="DejaVuSans-5e" d="M 2988 4666 
L 4684 2925 
L 4056 2925 
L 2681 4159 
L 1306 2925 
L 678 2925 
L 2375 4666 
L 2988 4666 
z
" transform="scale(0.015625)"/>
      <path id="DejaVuSans-2f" d="M 1625 4666 
L 2156 4666 
L 531 -594 
L 0 -594 
L 1625 4666 
z
" transform="scale(0.015625)"/>
     </defs>
     <use xlink:href="#DejaVuSans-28"/>
     <use xlink:href="#DejaVuSans-6d" x="39.013672"/>
     <use xlink:href="#DejaVuSans-61" x="136.425781"/>
     <use xlink:href="#DejaVuSans-78" x="197.705078"/>
     <use xlink:href="#DejaVuSans-20" x="256.884766"/>
     <use xlink:href="#DejaVuSans-3d" x="288.671875"/>
     <use xlink:href="#DejaVuSans-20" x="372.460938"/>
     <use xlink:href="#DejaVuSans-28" x="404.248047"/>
     <use xlink:href="#DejaVuSans-32" x="443.261719"/>
     <use xlink:href="#DejaVuSans-5e" x="506.884766"/>
     <use xlink:href="#DejaVuSans-62" x="590.673828"/>
     <use xlink:href="#DejaVuSans-69" x="654.150391"/>
     <use xlink:href="#DejaVuSans-74" x="681.933594"/>
     <use xlink:href="#DejaVuSans-73" x="721.142578"/>
     <use xlink:href="#DejaVuSans-2d" x="773.242188"/>
     <use xlink:href="#DejaVuSans-31" x="809.326172"/>
     <use xlink:href="#DejaVuSans-29" x="872.949219"/>
     <use xlink:href="#DejaVuSans-20" x="911.962891"/>
     <use xlink:href="#DejaVuSans-2f" x="943.75"/>
     <use xlink:href="#DejaVuSans-20" x="977.441406"/>
     <use xlink:href="#DejaVuSans-32" x="1009.228516"/>
     <use xlink:href="#DejaVuSans-5e" x="1072.851562"/>
     <use xlink:href="#DejaVuSans-28" x="1156.640625"/>
     <use xlink:href="#DejaVuSans-62" x="1195.654297"/>
     <use xlink:href="#DejaVuSans-69" x="1259.130859"/>
     <use xlink:href="#DejaVuSans-74" x="1286.914062"/>
     <use xlink:href="#DejaVuSans-73" x="1326.123047"/>
     <use xlink:href="#DejaVuSans-2d" x="1378.222656"/>
     <use xlink:href="#DejaVuSans-31" x="1414.306641"/>
     <use xlink:href="#DejaVuSans-29" x="1477.929688"/>
     <use xlink:href="#DejaVuSans-29" x="1516.943359"/>
    </g>
   </g>
   <g id="text_25">
    <!-- Sample-code to float, 4-bit example: bipolar normalizes by 2^(bits-1), unipolar by 2^bits - 1 -->
    <g transform="translate(91.150312 45.84) scale(0.12 -0.12)">
     <defs>
      <path id="DejaVuSans-53" d="M 3425 4513 
L 3425 3897 
Q 3066 4069 2747 4153 
Q 2428 4238 2131 4238 
Q 1616 4238 1336 4038 
Q 1056 3838 1056 3469 
Q 1056 3159 1242 3001 
Q 1428 2844 1947 2747 
L 2328 2669 
Q 3034 2534 3370 2195 
Q 3706 1856 3706 1288 
Q 3706 609 3251 259 
Q 2797 -91 1919 -91 
Q 1588 -91 1214 -16 
Q 841 59 441 206 
L 441 856 
Q 825 641 1194 531 
Q 1563 422 1919 422 
Q 2459 422 2753 634 
Q 3047 847 3047 1241 
Q 3047 1584 2836 1778 
Q 2625 1972 2144 2069 
L 1759 2144 
Q 1053 2284 737 2584 
Q 422 2884 422 3419 
Q 422 4038 858 4394 
Q 1294 4750 2059 4750 
Q 2388 4750 2728 4690 
Q 3069 4631 3425 4513 
z
" transform="scale(0.015625)"/>
      <path id="DejaVuSans-66" d="M 2375 4863 
L 2375 4384 
L 1825 4384 
Q 1516 4384 1395 4259 
Q 1275 4134 1275 3809 
L 1275 3500 
L 2222 3500 
L 2222 3053 
L 1275 3053 
L 1275 0 
L 697 0 
L 697 3053 
L 147 3053 
L 147 3500 
L 697 3500 
L 697 3744 
Q 697 4328 969 4595 
Q 1241 4863 1831 4863 
L 2375 4863 
z
" transform="scale(0.015625)"/>
      <path id="DejaVuSans-2c" d="M 750 794 
L 1409 794 
L 1409 256 
L 897 -744 
L 494 -744 
L 750 256 
L 750 794 
z
" transform="scale(0.015625)"/>
      <path id="DejaVuSans-3a" d="M 750 794 
L 1409 794 
L 1409 0 
L 750 0 
L 750 794 
z
M 750 3309 
L 1409 3309 
L 1409 2516 
L 750 2516 
L 750 3309 
z
" transform="scale(0.015625)"/>
      <path id="DejaVuSans-7a" d="M 353 3500 
L 3084 3500 
L 3084 2975 
L 922 459 
L 3084 459 
L 3084 0 
L 275 0 
L 275 525 
L 2438 3041 
L 353 3041 
L 353 3500 
z
" transform="scale(0.015625)"/>
      <path id="DejaVuSans-79" d="M 2059 -325 
Q 1816 -950 1584 -1140 
Q 1353 -1331 966 -1331 
L 506 -1331 
L 506 -850 
L 844 -850 
Q 1081 -850 1212 -737 
Q 1344 -625 1503 -206 
L 1606 56 
L 191 3500 
L 800 3500 
L 1894 763 
L 2988 3500 
L 3597 3500 
L 2059 -325 
z
" transform="scale(0.015625)"/>
     </defs>
     <use xlink:href="#DejaVuSans-53"/>
     <use xlink:href="#DejaVuSans-61" x="63.476562"/>
     <use xlink:href="#DejaVuSans-6d" x="124.755859"/>
     <use xlink:href="#DejaVuSans-70" x="222.167969"/>
     <use xlink:href="#DejaVuSans-6c" x="285.644531"/>
     <use xlink:href="#DejaVuSans-65" x="313.427734"/>
     <use xlink:href="#DejaVuSans-2d" x="374.951172"/>
     <use xlink:href="#DejaVuSans-63" x="411.035156"/>
     <use xlink:href="#DejaVuSans-6f" x="466.015625"/>
     <use xlink:href="#DejaVuSans-64" x="527.197266"/>
     <use xlink:href="#DejaVuSans-65" x="590.673828"/>
     <use xlink:href="#DejaVuSans-20" x="652.197266"/>
     <use xlink:href="#DejaVuSans-74" x="683.984375"/>
     <use xlink:href="#DejaVuSans-6f" x="723.193359"/>
     <use xlink:href="#DejaVuSans-20" x="784.375"/>
     <use xlink:href="#DejaVuSans-66" x="816.162109"/>
     <use xlink:href="#DejaVuSans-6c" x="851.367188"/>
     <use xlink:href="#DejaVuSans-6f" x="879.150391"/>
     <use xlink:href="#DejaVuSans-61" x="940.332031"/>
     <use xlink:href="#DejaVuSans-74" x="1001.611328"/>
     <use xlink:href="#DejaVuSans-2c" x="1040.820312"/>
     <use xlink:href="#DejaVuSans-20" x="1072.607422"/>
     <use xlink:href="#DejaVuSans-34" x="1104.394531"/>
     <use xlink:href="#DejaVuSans-2d" x="1168.017578"/>
     <use xlink:href="#DejaVuSans-62" x="1204.101562"/>
     <use xlink:href="#DejaVuSans-69" x="1267.578125"/>
     <use xlink:href="#DejaVuSans-74" x="1295.361328"/>
     <use xlink:href="#DejaVuSans-20" x="1334.570312"/>
     <use xlink:href="#DejaVuSans-65" x="1366.357422"/>
     <use xlink:href="#DejaVuSans-78" x="1426.130859"/>
     <use xlink:href="#DejaVuSans-61" x="1485.310547"/>
     <use xlink:href="#DejaVuSans-6d" x="1546.589844"/>
     <use xlink:href="#DejaVuSans-70" x="1644.001953"/>
     <use xlink:href="#DejaVuSans-6c" x="1707.478516"/>
     <use xlink:href="#DejaVuSans-65" x="1735.261719"/>
     <use xlink:href="#DejaVuSans-3a" x="1796.785156"/>
     <use xlink:href="#DejaVuSans-20" x="1830.476562"/>
     <use xlink:href="#DejaVuSans-62" x="1862.263672"/>
     <use xlink:href="#DejaVuSans-69" x="1925.740234"/>
     <use xlink:href="#DejaVuSans-70" x="1953.523438"/>
     <use xlink:href="#DejaVuSans-6f" x="2017"/>
     <use xlink:href="#DejaVuSans-6c" x="2078.181641"/>
     <use xlink:href="#DejaVuSans-61" x="2105.964844"/>
     <use xlink:href="#DejaVuSans-72" x="2167.244141"/>
     <use xlink:href="#DejaVuSans-20" x="2208.357422"/>
     <use xlink:href="#DejaVuSans-6e" x="2240.144531"/>
     <use xlink:href="#DejaVuSans-6f" x="2303.523438"/>
     <use xlink:href="#DejaVuSans-72" x="2364.705078"/>
     <use xlink:href="#DejaVuSans-6d" x="2404.068359"/>
     <use xlink:href="#DejaVuSans-61" x="2501.480469"/>
     <use xlink:href="#DejaVuSans-6c" x="2562.759766"/>
     <use xlink:href="#DejaVuSans-69" x="2590.542969"/>
     <use xlink:href="#DejaVuSans-7a" x="2618.326172"/>
     <use xlink:href="#DejaVuSans-65" x="2670.816406"/>
     <use xlink:href="#DejaVuSans-73" x="2732.339844"/>
     <use xlink:href="#DejaVuSans-20" x="2784.439453"/>
     <use xlink:href="#DejaVuSans-62" x="2816.226562"/>
     <use xlink:href="#DejaVuSans-79" x="2879.703125"/>
     <use xlink:href="#DejaVuSans-20" x="2938.882812"/>
     <use xlink:href="#DejaVuSans-32" x="2970.669922"/>
     <use xlink:href="#DejaVuSans-5e" x="3034.292969"/>
     <use xlink:href="#DejaVuSans-28" x="3118.082031"/>
     <use xlink:href="#DejaVuSans-62" x="3157.095703"/>
     <use xlink:href="#DejaVuSans-69" x="3220.572266"/>
     <use xlink:href="#DejaVuSans-74" x="3248.355469"/>
     <use xlink:href="#DejaVuSans-73" x="3287.564453"/>
     <use xlink:href="#DejaVuSans-2d" x="3339.664062"/>
     <use xlink:href="#DejaVuSans-31" x="3375.748047"/>
     <use xlink:href="#DejaVuSans-29" x="3439.371094"/>
     <use xlink:href="#DejaVuSans-2c" x="3478.384766"/>
     <use xlink:href="#DejaVuSans-20" x="3510.171875"/>
     <use xlink:href="#DejaVuSans-75" x="3541.958984"/>
     <use xlink:href="#DejaVuSans-6e" x="3605.337891"/>
     <use xlink:href="#DejaVuSans-69" x="3668.716797"/>
     <use xlink:href="#DejaVuSans-70" x="3696.5"/>
     <use xlink:href="#DejaVuSans-6f" x="3759.976562"/>
     <use xlink:href="#DejaVuSans-6c" x="3821.158203"/>
     <use xlink:href="#DejaVuSans-61" x="3848.941406"/>
     <use xlink:href="#DejaVuSans-72" x="3910.220703"/>
     <use xlink:href="#DejaVuSans-20" x="3951.333984"/>
     <use xlink:href="#DejaVuSans-62" x="3983.121094"/>
     <use xlink:href="#DejaVuSans-79" x="4046.597656"/>
     <use xlink:href="#DejaVuSans-20" x="4105.777344"/>
     <use xlink:href="#DejaVuSans-32" x="4137.564453"/>
     <use xlink:href="#DejaVuSans-5e" x="4201.1875"/>
     <use xlink:href="#DejaVuSans-62" x="4284.976562"/>
     <use xlink:href="#DejaVuSans-69" x="4348.453125"/>
     <use xlink:href="#DejaVuSans-74" x="4376.236328"/>
     <use xlink:href="#DejaVuSans-73" x="4415.445312"/>
     <use xlink:href="#DejaVuSans-20" x="4467.544922"/>
     <use xlink:href="#DejaVuSans-2d" x="4499.332031"/>
     <use xlink:href="#DejaVuSans-20" x="4535.416016"/>
     <use xlink:href="#DejaVuSans-31" x="4567.203125"/>
    </g>
   </g>
   <g id="legend_1">
    <g id="patch_8">
     <path d="M 97 89.7525 
L 302.514063 89.7525 
Q 304.514063 89.7525 304.514063 87.7525 
L 304.514063 58.84 
Q 304.514063 56.84 302.514063 56.84 
L 97 56.84 
Q 95 56.84 95 58.84 
L 95 87.7525 
Q 95 89.7525 97 89.7525 
z
" style="fill: #ffffff; opacity: 0.8; stroke: #cccccc; stroke-linejoin: miter"/>
    </g>
    <g id="line2d_47">
     <path d="M 99 64.938438 
L 109 64.938438 
L 119 64.938438 
" style="fill: none; stroke: #1565c0; stroke-width: 1.6; stroke-linecap: square"/>
     <g>
      <use xlink:href="#mcdbbbb2ab3" x="109" y="64.938438" style="fill: #1565c0; stroke: #1565c0"/>
     </g>
    </g>
    <g id="text_26">
     <!-- to_float (bipolar, [-1, +1)) -->
     <g transform="translate(127 68.438438) scale(0.1 -0.1)">
      <defs>
       <path id="DejaVuSans-5f" d="M 3263 -1063 
L 3263 -1509 
L -63 -1509 
L -63 -1063 
L 3263 -1063 
z
" transform="scale(0.015625)"/>
       <path id="DejaVuSans-5b" d="M 550 4863 
L 1875 4863 
L 1875 4416 
L 1125 4416 
L 1125 -397 
L 1875 -397 
L 1875 -844 
L 550 -844 
L 550 4863 
z
" transform="scale(0.015625)"/>
      </defs>
      <use xlink:href="#DejaVuSans-74"/>
      <use xlink:href="#DejaVuSans-6f" x="39.208984"/>
      <use xlink:href="#DejaVuSans-5f" x="100.390625"/>
      <use xlink:href="#DejaVuSans-66" x="150.390625"/>
      <use xlink:href="#DejaVuSans-6c" x="185.595703"/>
      <use xlink:href="#DejaVuSans-6f" x="213.378906"/>
      <use xlink:href="#DejaVuSans-61" x="274.560547"/>
      <use xlink:href="#DejaVuSans-74" x="335.839844"/>
      <use xlink:href="#DejaVuSans-20" x="375.048828"/>
      <use xlink:href="#DejaVuSans-28" x="406.835938"/>
      <use xlink:href="#DejaVuSans-62" x="445.849609"/>
      <use xlink:href="#DejaVuSans-69" x="509.326172"/>
      <use xlink:href="#DejaVuSans-70" x="537.109375"/>
      <use xlink:href="#DejaVuSans-6f" x="600.585938"/>
      <use xlink:href="#DejaVuSans-6c" x="661.767578"/>
      <use xlink:href="#DejaVuSans-61" x="689.550781"/>
      <use xlink:href="#DejaVuSans-72" x="750.830078"/>
      <use xlink:href="#DejaVuSans-2c" x="791.943359"/>
      <use xlink:href="#DejaVuSans-20" x="823.730469"/>
      <use xlink:href="#DejaVuSans-5b" x="855.517578"/>
      <use xlink:href="#DejaVuSans-2d" x="894.53125"/>
      <use xlink:href="#DejaVuSans-31" x="930.615234"/>
      <use xlink:href="#DejaVuSans-2c" x="994.238281"/>
      <use xlink:href="#DejaVuSans-20" x="1026.025391"/>
      <use xlink:href="#DejaVuSans-2b" x="1057.8125"/>
      <use xlink:href="#DejaVuSans-31" x="1141.601562"/>
      <use xlink:href="#DejaVuSans-29" x="1205.224609"/>
      <use xlink:href="#DejaVuSans-29" x="1244.238281"/>
     </g>
    </g>
    <g id="line2d_48">
     <path d="M 99 79.894688 
L 109 79.894688 
L 119 79.894688 
" style="fill: none; stroke: #ffb300; stroke-width: 1.6; stroke-linecap: square"/>
     <g>
      <use xlink:href="#m5dcb498b73" x="109" y="79.894688" style="fill: #ffb300; stroke: #ffb300; stroke-linejoin: miter"/>
     </g>
    </g>
    <g id="text_27">
     <!-- to_unsigned_float (unipolar, [0, 1]) -->
     <g transform="translate(127 83.394688) scale(0.1 -0.1)">
      <defs>
       <path id="DejaVuSans-5d" d="M 1947 4863 
L 1947 -844 
L 622 -844 
L 622 -397 
L 1369 -397 
L 1369 4416 
L 622 4416 
L 622 4863 
L 1947 4863 
z
" transform="scale(0.015625)"/>
      </defs>
      <use xlink:href="#DejaVuSans-74"/>
      <use xlink:href="#DejaVuSans-6f" x="39.208984"/>
      <use xlink:href="#DejaVuSans-5f" x="100.390625"/>
      <use xlink:href="#DejaVuSans-75" x="150.390625"/>
      <use xlink:href="#DejaVuSans-6e" x="213.769531"/>
      <use xlink:href="#DejaVuSans-73" x="277.148438"/>
      <use xlink:href="#DejaVuSans-69" x="329.248047"/>
      <use xlink:href="#DejaVuSans-67" x="357.03125"/>
      <use xlink:href="#DejaVuSans-6e" x="420.507812"/>
      <use xlink:href="#DejaVuSans-65" x="483.886719"/>
      <use xlink:href="#DejaVuSans-64" x="545.410156"/>
      <use xlink:href="#DejaVuSans-5f" x="608.886719"/>
      <use xlink:href="#DejaVuSans-66" x="658.886719"/>
      <use xlink:href="#DejaVuSans-6c" x="694.091797"/>
      <use xlink:href="#DejaVuSans-6f" x="721.875"/>
      <use xlink:href="#DejaVuSans-61" x="783.056641"/>
      <use xlink:href="#DejaVuSans-74" x="844.335938"/>
      <use xlink:href="#DejaVuSans-20" x="883.544922"/>
      <use xlink:href="#DejaVuSans-28" x="915.332031"/>
      <use xlink:href="#DejaVuSans-75" x="954.345703"/>
      <use xlink:href="#DejaVuSans-6e" x="1017.724609"/>
      <use xlink:href="#DejaVuSans-69" x="1081.103516"/>
      <use xlink:href="#DejaVuSans-70" x="1108.886719"/>
      <use xlink:href="#DejaVuSans-6f" x="1172.363281"/>
      <use xlink:href="#DejaVuSans-6c" x="1233.544922"/>
      <use xlink:href="#DejaVuSans-61" x="1261.328125"/>
      <use xlink:href="#DejaVuSans-72" x="1322.607422"/>
      <use xlink:href="#DejaVuSans-2c" x="1363.720703"/>
      <use xlink:href="#DejaVuSans-20" x="1395.507812"/>
      <use xlink:href="#DejaVuSans-5b" x="1427.294922"/>
      <use xlink:href="#DejaVuSans-30" x="1466.308594"/>
      <use xlink:href="#DejaVuSans-2c" x="1529.931641"/>
      <use xlink:href="#DejaVuSans-20" x="1561.71875"/>
      <use xlink:href="#DejaVuSans-31" x="1593.505859"/>
      <use xlink:href="#DejaVuSans-5d" x="1657.128906"/>
      <use xlink:href="#DejaVuSans-29" x="1696.142578"/>
     </g>
    </g>
   </g>
  </g>
 </g>
 <defs>
  <clipPath id="p6751fe56d0">
   <rect x="90" y="51.84" width="558" height="332.64"/>
  </clipPath>
 </defs>
</svg>
