<svg xmlns="http://www.w3.org/2000/svg" width="750" height="72"
     viewBox="0 0 750 72"
     font-family='-apple-system, BlinkMacSystemFont, "Segoe UI", Roboto, Helvetica, Arial, sans-serif, "Apple Color Emoji", "Segoe UI Emoji", "Segoe UI Symbol"' font-size="14">

  <rect x="91.6719" y="14" width="102.141" height="44" rx="8" fill="#fdeaf2" stroke="#d81b60" stroke-width="1.5"/>
  <text x="142.742" y="40.9" text-anchor="middle" fill="#1a1a1a">MIDI device</text>

  <rect x="231.812" y="14" width="142.609" height="44" rx="8" fill="#e8f2fd" stroke="#1565c0" stroke-width="1.5"/>
  <text x="303.117" y="40.9" text-anchor="middle" fill="#1a1a1a">midi_input_stream</text>

  <rect x="412.422" y="14" width="124.688" height="44" rx="8" fill="#e8f2fd" stroke="#1565c0" stroke-width="1.5"/>
  <text x="474.766" y="40.9" text-anchor="middle" fill="#1a1a1a">midi::processor</text>

  <rect x="575.109" y="14" width="83.2188" height="44" rx="8" fill="#ffffff" stroke="#5d5d5d" stroke-width="1.5"/>
  <text x="616.719" y="40.9" text-anchor="middle" fill="#1a1a1a">std::cout</text>

  <line x1="193.812" y1="36" x2="231.812" y2="36" stroke="#d81b60" stroke-width="1.4"/>
  <line x1="374.422" y1="36" x2="412.422" y2="36" stroke="#1565c0" stroke-width="1.4"/>
  <line x1="537.109" y1="36" x2="575.109" y2="36" stroke="#1565c0" stroke-width="1.4"/>


  <polygon points="231.812,36 222.812,40 222.812,32" fill="#d81b60"/>
  <polygon points="412.422,36 403.422,40 403.422,32" fill="#1565c0"/>
  <polygon points="575.109,36 566.109,40 566.109,32" fill="#1565c0"/>
</svg>
