<?xml version="1.0" encoding="utf-8"?>
<!-- Generator: Adobe Illustrator 27.0.0, SVG Export Plug-In . SVG Version: 6.00 Build 0)  -->
<svg version="1.1" id="Layer_2_00000170247000300003027530000002374476168042603398_"
	 xmlns="http://www.w3.org/2000/svg" xmlns:xlink="http://www.w3.org/1999/xlink" x="0px" y="0px" viewBox="0 0 369.2 293.6"
	 style="enable-background:new 0 0 369.2 293.6;" xml:space="preserve">
<style type="text/css">
	.st0{fill:none;stroke:#00B2FF;stroke-miterlimit:10;}
	.st1{fill:none;stroke:#E900E6;stroke-miterlimit:10;}
	.st2{fill:none;stroke:#E900E6;stroke-miterlimit:10;stroke-dasharray:8.1016,8.1016;}
	.st3{fill:none;}
	.st4{fill:none;stroke:#B3B3B3;stroke-width:0.5;stroke-miterlimit:10;}
	.st5{fill:none;stroke:#B3B3B3;stroke-width:0.5;stroke-miterlimit:10;stroke-dasharray:6.0512,6.0512;}
	.st6{fill:#4A4A4A;}
	.st7{font-family:'Roboto-Regular';}
	.st8{font-size:8.9996px;}
	.st9{font-size:9px;}
	.st10{fill:none;stroke:#B3B3B3;stroke-miterlimit:10;}
	.st11{fill:#B3B3B3;}
	.st12{font-size:12px;}
	.st13{fill:none;stroke:#0066FF;stroke-width:2;stroke-miterlimit:10;}
</style>
<path class="st0" d="M222.9,134.4"/>
<path class="st0" d="M149.1,169.7"/>
<g>
	<g>
		<line class="st1" x1="27.8" y1="260.1" x2="31" y2="257.7"/>
		<line class="st2" x1="37.5" y1="252.9" x2="346.1" y2="23"/>
		<line class="st1" x1="349.4" y1="20.6" x2="352.6" y2="18.2"/>
	</g>
</g>
<g>
	<line class="st3" x1="190.2" y1="257.7" x2="189.8" y2="139.4"/>
	<g>
		<line class="st4" x1="190.2" y1="257.7" x2="190.2" y2="257.7"/>
		<line class="st5" x1="191.3" y1="258.2" x2="191.3" y2="144.8"/>
		<line class="st5" x1="78" y1="258.2" x2="78" y2="222.7"/>
		<line class="st4" x1="191.3" y1="141.2" x2="191.3" y2="137.7"/>
	</g>
</g>
<g>
	<line class="st3" x1="283" y1="252.7" x2="282.6" y2="134.4"/>
	<g>
		<line class="st4" x1="283" y1="252.7" x2="283" y2="252.7"/>
		<line class="st5" x1="283.5" y1="258.2" x2="283.5" y2="105.8"/>
		<path class="st4" d="M283.5,105.8"/>
		<path class="st4" d="M283.5,137.7"/>
	</g>
</g>
<g>
	<text transform="matrix(0.9448 -0.3275 0.3275 0.9448 219.7384 142.7498)" class="st6 st7 st8">Compressor</text>
</g>
<g>
	<text transform="matrix(6.053037e-02 -0.9982 0.9982 6.053037e-02 90.5642 249.8103)" class="st6 st7 st8">Gate</text>
</g>
<g>
	<g>
		<text transform="matrix(1 0 0 1 305.8223 120.7579)" class="st6 st7 st9">Limiter</text>
	</g>
</g>
<g>
	<g>
		<line class="st10" x1="27.8" y1="260.1" x2="345.3" y2="260.1"/>
		<g>
			<polygon class="st11" points="343.9,265.1 352.5,260.1 343.9,255.1 			"/>
		</g>
	</g>
</g>
<g>
	<g>
		<line class="st10" x1="27.8" y1="260.1" x2="27.8" y2="25.4"/>
		<g>
			<polygon class="st11" points="32.8,26.8 27.8,18.2 22.8,26.8 			"/>
		</g>
	</g>
</g>
<g>
	<text transform="matrix(1 0 0 1 176.2408 279.3534)" class="st6 st7 st12">Input</text>
</g>
<g>
	<text transform="matrix(6.123234e-17 -1 1 6.123234e-17 18.0992 157.3301)" class="st6 st7 st12">Output</text>
</g>
<polyline class="st13" points="72,260.1 77.6,223.1 191.3,137.7 283.5,105.8 352.6,106.3 "/>
</svg>
