<svg xmlns="http://www.w3.org/2000/svg" width="750" height="146"
     viewBox="0 0 750 146"
     font-family='-apple-system, BlinkMacSystemFont, "Segoe UI", Roboto, Helvetica, Arial, sans-serif, "Apple Color Emoji", "Segoe UI Emoji", "Segoe UI Symbol"' font-size="14">

  <rect x="155.164" y="14" width="127.547" height="44" rx="8" fill="#e8f2fd" stroke="#1565c0" stroke-width="1.5"/>
  <text x="218.938" y="40.9" text-anchor="middle" fill="#1a1a1a">MIDI 2.0 stream</text>

  <rect x="352.711" y="14" width="81.6719" height="44" rx="8" fill="#e8f2fd" stroke="#1565c0" stroke-width="1.5"/>
  <text x="393.547" y="40.9" text-anchor="middle" fill="#1a1a1a">to_midi1</text>

  <rect x="504.383" y="14" width="90.4531" height="44" rx="8" fill="#ffffff" stroke="#43a047" stroke-width="1.5"/>
  <text x="549.609" y="40.9" text-anchor="middle" fill="#1a1a1a">processor</text>

  <rect x="155.164" y="88" width="127.547" height="44" rx="8" fill="#e8f2fd" stroke="#1565c0" stroke-width="1.5"/>
  <text x="218.938" y="114.9" text-anchor="middle" fill="#1a1a1a">MIDI 1.0 stream</text>

  <rect x="352.711" y="88" width="81.6719" height="44" rx="8" fill="#e8f2fd" stroke="#1565c0" stroke-width="1.5"/>
  <text x="393.547" y="114.9" text-anchor="middle" fill="#1a1a1a">to_midi2</text>

  <rect x="504.383" y="88" width="90.4531" height="44" rx="8" fill="#ffffff" stroke="#43a047" stroke-width="1.5"/>
  <text x="549.609" y="114.9" text-anchor="middle" fill="#1a1a1a">processor</text>

  <line x1="282.711" y1="36" x2="352.711" y2="36" stroke="#1565c0" stroke-width="1.4"/>
  <line x1="434.383" y1="36" x2="504.383" y2="36" stroke="#1565c0" stroke-width="1.4"/>
  <line x1="282.711" y1="110" x2="352.711" y2="110" stroke="#1565c0" stroke-width="1.4"/>
  <line x1="434.383" y1="110" x2="504.383" y2="110" stroke="#1565c0" stroke-width="1.4"/>


  <polygon points="352.711,36 343.711,40 343.711,32" fill="#1565c0"/>
  <polygon points="504.383,36 495.383,40 495.383,32" fill="#1565c0"/>
  <polygon points="352.711,110 343.711,114 343.711,106" fill="#1565c0"/>
  <polygon points="504.383,110 495.383,114 495.383,106" fill="#1565c0"/>
</svg>
