<svg id="13dd5f7a-c838-49bf-8b61-b7678efec74e" data-name="Layer 1" xmlns="http://www.w3.org/2000/svg" viewBox="0 0 195.57 173.81"><defs><style>.\35 dc56376-2e6d-42cf-9d0d-0b3d29f9787a{fill:none;stroke:#414042;stroke-linecap:round;stroke-linejoin:bevel;stroke-width:10px;}.a458f825-28aa-4be0-a75b-6d23fb55f9f3{fill:#171445;}</style></defs><title>q</title><path class="5dc56376-2e6d-42cf-9d0d-0b3d29f9787a" d="M592.36,136.74" transform="translate(-422 -60.85)"/><path class="5dc56376-2e6d-42cf-9d0d-0b3d29f9787a" d="M588.63,167.22" transform="translate(-422 -60.85)"/><path class="a458f825-28aa-4be0-a75b-6d23fb55f9f3" d="M498.72,217.72c-42.3,0-76.72-35.19-76.72-78.44s34.42-78.44,76.72-78.44S575.44,96,575.44,139.28,541,217.72,498.72,217.72Zm0-136.87c-31.28,0-56.72,26.21-56.72,58.44s25.44,58.44,56.72,58.44,56.72-26.21,56.72-58.44S530,80.85,498.72,80.85Z" transform="translate(-422 -60.85)"/><path class="a458f825-28aa-4be0-a75b-6d23fb55f9f3" d="M578.73,234.65a28.46,28.46,0,0,1-3.61-.23c-22.77-2.91-31.8-30.29-38.4-50.28-1.46-4.43-2.84-8.62-4.09-11.58-5.8-13.79-11.28-17.2-13.6-17-1.9.13-4.51,2.14-7,5.38-3.57,4.71-6.62,11.56-8.84,19.82a10,10,0,0,1-19.32-5.18c6.45-24,19.07-39,33.76-40,9.36-.63,22.74,3.92,33.39,29.24,1.55,3.69,3.05,8.24,4.64,13.07,4.37,13.24,11.67,35.4,21.94,36.71,7.59,1,15.5-14.06,20.08-38.31A10,10,0,0,1,617.39,180C609,224.3,592.41,234.65,578.73,234.65Z" transform="translate(-422 -60.85)"/></svg>