<?xml version="1.0" encoding="utf-8"?>
<!-- Generator: Adobe Illustrator 27.0.0, SVG Export Plug-In . SVG Version: 6.00 Build 0)  -->
<svg version="1.1" id="Layer_1" xmlns="http://www.w3.org/2000/svg" xmlns:xlink="http://www.w3.org/1999/xlink" x="0px" y="0px"
	 viewBox="0 0 372 283.5" style="enable-background:new 0 0 372 283.5;" xml:space="preserve">
<style type="text/css">
	.st0{fill:#FFFFFF;}
	.st1{fill:none;stroke:#505050;stroke-width:0.25;stroke-miterlimit:10;}
	
		.st2{clip-path:url(#SVGID_00000095323778646840498660000014029861332628219050_);fill:#505050;stroke:#505050;stroke-width:0.25;stroke-miterlimit:10;}
	.st3{fill:#505050;}
	.st4{fill:none;stroke:#1F77B4;stroke-width:1.5;stroke-linecap:square;stroke-linejoin:round;}
</style>
<g id="patch_2">
	<path class="st0" d="M8,273.8h357.1V7.7H8V273.8z"/>
</g>
<g id="line2d_16">
	<g>
		<g>
			<rect id="SVGID_1_" x="8" y="7.7" class="st1" width="357.1" height="266.1"/>
		</g>
	</g>
</g>
<g>
	<g>
		<g>
			<defs>
				<rect id="SVGID_00000182521383385938493560000008978375127249723287_" x="8" y="7.7" width="357.1" height="266.1"/>
			</defs>
			<clipPath id="SVGID_00000111151022629621684100000003422814794846734483_">
				<use xlink:href="#SVGID_00000182521383385938493560000008978375127249723287_"  style="overflow:visible;"/>
			</clipPath>
			
				<path style="clip-path:url(#SVGID_00000111151022629621684100000003422814794846734483_);fill:#505050;stroke:#505050;stroke-width:0.25;stroke-miterlimit:10;" d="
				M186.6,273.8V7.7"/>
		</g>
	</g>
</g>
<g id="patch_3">
	<path class="st3" d="M8,273.8V7.7"/>
</g>
<g id="patch_4">
	<path class="st3" d="M365.1,273.8V7.7"/>
</g>
<g id="patch_5">
	<path class="st3" d="M8,273.8h357.1"/>
</g>
<g id="patch_6">
	<path class="st3" d="M8,7.7h357.1"/>
</g>
<path class="st4" d="M8,273.8l3.6-0.1l3.6-0.3l3.6-0.5l3.6-0.7l3.6-0.9l3.6-1.2l3.6-1.4l3.6-1.7l3.6-2l3.6-2.3l3.6-2.6l3.6-2.9
	l3.6-3.3l3.6-3.7l3.6-4.1l3.6-4.5l3.6-5l3.6-5.4l3.6-5.9l3.6-6.3l3.6-6.8l3.6-7.2l3.6-7.6l3.6-8l3.6-8.4l3.6-8.7l3.6-9l3.6-9.2
	l3.6-9.4l3.6-9.6l3.6-9.7l3.6-9.7l3.6-9.7l3.6-9.6l3.6-9.4l3.6-9.2l3.6-8.9l3.6-8.5l3.6-8.1l3.6-7.6l3.6-7l3.6-6.4l3.6-5.7l3.6-5
	l3.6-4.2l3.6-3.4l3.6-2.6l3.6-1.7l3.6-0.9h3.6l3.6,0.9l3.6,1.7l3.6,2.6l3.6,3.4l3.6,4.2l3.6,5l3.6,5.7l3.6,6.4l3.6,7l3.6,7.6
	l3.6,8.1l3.6,8.5l3.6,8.9l3.6,9.2l3.6,9.4l3.6,9.6l3.6,9.7l3.6,9.7l3.6,9.7l3.6,9.6l3.6,9.4l3.6,9.2l3.6,9l3.6,8.7l3.6,8.4l3.6,8
	l3.6,7.6l3.6,7.2l3.6,6.8l3.6,6.3l3.6,5.9l3.6,5.4l3.6,5l3.6,4.5l3.6,4.1l3.6,3.7l3.6,3.3l3.6,2.9l3.6,2.6l3.6,2.3l3.6,2l3.6,1.7
	l3.6,1.4l3.6,1.2l3.6,0.9l3.6,0.7l3.6,0.5l3.6,0.3l3.6,0.1"/>
</svg>
