<?xml version="1.0" encoding="utf-8"?>
<!-- Generator: Adobe Illustrator 27.0.0, SVG Export Plug-In . SVG Version: 6.00 Build 0)  -->
<svg version="1.1" id="Layer_1" xmlns="http://www.w3.org/2000/svg" xmlns:xlink="http://www.w3.org/1999/xlink" x="0px" y="0px"
	 viewBox="0 0 276.38 134.65" style="enable-background:new 0 0 276.38 134.65;" xml:space="preserve">
<style type="text/css">
	.st0{fill:none;stroke:#717171;stroke-width:0.5;stroke-miterlimit:10;}
	.st1{fill:#B6E4FA;stroke:#5F5F5F;stroke-miterlimit:10;}
	.st2{font-family:'Roboto-Regular';}
	.st3{font-size:12px;}
	.st4{fill:none;stroke:#374FA2;stroke-width:3;stroke-miterlimit:10;}
	.st5{fill:#374FA2;}
	.st6{fill:#EECDE2;stroke:#374FA2;stroke-miterlimit:10;}
	.st7{fill:#98D2B0;stroke:#374FA2;stroke-miterlimit:10;}
	.st8{fill:#58595B;}
	.st9{font-size:8px;}
	.st10{font-size:6px;}
	.st11{fill:none;stroke:#808285;stroke-width:0.5;stroke-miterlimit:10;}
</style>
<rect x="7.09" y="7.09" class="st0" width="262.2" height="120.47"/>
<path class="st1" d="M173.49,85.04H95.8c-3.98,0-7.22-3.23-7.22-7.22V42.65c0-3.98,3.23-7.22,7.22-7.22h77.7
	c3.98,0,7.22,3.23,7.22,7.22v35.18C180.71,81.81,177.48,85.04,173.49,85.04z"/>
<text transform="matrix(1 0 0 1 108.5248 57.4763)"><tspan x="0" y="0" class="st2 st3">Envelope </tspan><tspan x="-1.48" y="14.4" class="st2 st3">Processor</tspan></text>
<g>
	<g>
		<line class="st4" x1="70.87" y1="60.24" x2="79.01" y2="60.24"/>
		<g>
			<polygon class="st5" points="77.79,64.42 85.04,60.24 77.79,56.05 			"/>
		</g>
	</g>
</g>
<g>
	<g>
		<line class="st4" x1="187.8" y1="60.29" x2="195.94" y2="60.29"/>
		<g>
			<polygon class="st5" points="194.71,64.48 201.97,60.29 194.71,56.1 			"/>
		</g>
	</g>
</g>
<path id="path5900_00000165952342439032686580000013924745563874227643_" class="st6" d="M77.95,74.41
	c-8.66-0.72-13.5-3.19-17.88-10.65c-5.26-0.6-10.67-1.78-15.05-4.9c-4.56-3.04-7.33-8.22-9.71-12.77
	C22.78,49,20.1,63.64,17.72,74.41"/>
<path id="path5900_00000079481473514230676540000008172420579855004842_" class="st7" d="M262.2,74.41
	c-8.66-0.72-13.32-7.65-17.7-15.11c-5.26-0.6-9.11-0.35-15.69-3.57c-5.38-2.63-6.87-5.08-9.25-9.63
	c-12.54,2.9-15.22,17.55-17.6,28.32"/>
<text transform="matrix(1 0 0 1 98.5677 98.1082)" class="st8 st2 st9">Logarithmic Domain</text>
<text transform="matrix(1 0 0 1 31.9522 81.4962)" class="st8 st2 st10">dB Samples</text>
<text transform="matrix(1 0 0 1 216.204 81.4965)" class="st8 st2 st10">dB Samples</text>
<polyline class="st11" points="88.58,88.58 88.58,106.3 180.71,106.3 180.71,88.58 "/>
</svg>
