<?xml version="1.0" encoding="utf-8"?>
<!-- Generator: Adobe Illustrator 27.0.0, SVG Export Plug-In . SVG Version: 6.00 Build 0)  -->
<svg version="1.1"
	 id="svg2" xmlns:svg="http://www.w3.org/2000/svg" xmlns:dc="http://purl.org/dc/elements/1.1/" xmlns:sodipodi="http://sodipodi.sourceforge.net/DTD/sodipodi-0.dtd" xmlns:rdf="http://www.w3.org/1999/02/22-rdf-syntax-ns#" xmlns:inkscape="http://www.inkscape.org/namespaces/inkscape" xmlns:cc="http://web.resource.org/cc/"
	 xmlns="http://www.w3.org/2000/svg" xmlns:xlink="http://www.w3.org/1999/xlink" x="0px" y="0px" viewBox="0 0 941.7 1100.6"
	 style="enable-background:new 0 0 941.7 1100.6;" xml:space="preserve">
<sodipodi:namedview  bordercolor="#666666" borderopacity="1.0" gridtolerance="10.0" guidetolerance="10.0" height="2000px" id="base" inkscape:current-layer="svg2" inkscape:cx="1605.3276" inkscape:cy="1351.0554" inkscape:pageopacity="0.0" inkscape:pageshadow="2" inkscape:showpageshadow="false" inkscape:window-height="1005" inkscape:window-width="1280" inkscape:window-x="-4" inkscape:window-y="-4" inkscape:zoom="0.19947368" objecttolerance="10.0" pagecolor="#ffffff" width="3000px">
	</sodipodi:namedview>
<path id="text2175" d="M552,234.5l-28.3,279.9c-4.6,48.8-6.8,97.5-6.8,146.3c0,93,10.9,149.4,32.7,169.2
	c21.8,19.8,46.6,29.7,74.6,29.7c62.4,0,99.5-39.3,111.2-118h36.1c-21.5,180.7-93.3,271.1-215.5,271.1
	c-128.1,0-192.1-73.5-192.1-220.4c0-74.1,7.2-166.4,21.5-276.9l36.1-280.8h-96.5c-53.3,0-94.7,8.9-124.3,26.8
	c-29.6,17.9-57,53.8-82.4,107.7H83c20.8-71.5,45.5-128.2,74.1-170.2c28.6-41.9,55.9-70.2,81.9-84.8c26-14.6,64.7-21.9,116-21.9
	h479.8v142.4H552z"/>
</svg>
