<?xml version="1.0" encoding="utf-8"?>
<!-- Generator: Adobe Illustrator 27.0.0, SVG Export Plug-In . SVG Version: 6.00 Build 0)  -->
<svg version="1.1" id="Layer_1" xmlns="http://www.w3.org/2000/svg" xmlns:xlink="http://www.w3.org/1999/xlink" x="0px" y="0px"
	 viewBox="0 0 251.6 184.3" style="enable-background:new 0 0 251.6 184.3;" xml:space="preserve">
<style type="text/css">
	.st0{fill:none;stroke:#77797C;stroke-miterlimit:10;}
	.st1{fill:none;stroke:#010101;stroke-miterlimit:10;}
	.st2{fill:#010101;}
	.st3{font-family:'Roboto-Light';}
	.st4{font-size:10px;}
	.st5{font-family:'Roboto-Bold';}
</style>
<rect x="153.2" y="368.1" class="st0" width="184.3" height="28.3"/>
<g>
	<rect x="56.6" y="17.7" class="st1" width="21.3" height="21.3"/>
	<text transform="matrix(1 0 0 1 59.4686 31.6843)" class="st2 st3 st4">s[0]</text>
	<text transform="matrix(1 0 0 1 21.2599 31.6843)" class="st2 st3 st4">ch[0]</text>
	<rect x="85" y="17.7" class="st1" width="21.3" height="21.3"/>
	<text transform="matrix(1 0 0 1 87.815 31.6843)" class="st2 st3 st4">s[1]</text>
	<rect x="113.3" y="17.7" class="st1" width="21.3" height="21.3"/>
	<text transform="matrix(1 0 0 1 116.1615 31.6843)" class="st2 st3 st4">s[2]</text>
	<rect x="141.6" y="17.7" class="st1" width="21.3" height="21.3"/>
	<text transform="matrix(1 0 0 1 144.5079 31.6843)" class="st2 st3 st4">s[3]</text>
	<rect x="170" y="17.7" class="st1" width="21.3" height="21.3"/>
	<text transform="matrix(1 0 0 1 172.8544 31.6843)" class="st2 st3 st4">s[4]</text>
	<rect x="212.5" y="17.7" class="st1" width="21.3" height="21.3"/>
	<text transform="matrix(1 0 0 1 214.5953 31.6843)" class="st2 st3 st4">s[N]</text>
	<text transform="matrix(1 0 0 1 197.5767 29.0793)" class="st2 st5 st4">...</text>
	<rect x="53.1" y="14.2" class="st0" width="184.3" height="28.3"/>
	<rect x="10.6" y="10.7" class="st0" width="230.3" height="35.4"/>
</g>
<g>
	<rect x="56.6" y="60.2" class="st1" width="21.3" height="21.3"/>
	<text transform="matrix(1 0 0 1 59.4686 74.204)" class="st2 st3 st4">s[0]</text>
	<text transform="matrix(1 0 0 1 21.2599 74.204)" class="st2 st3 st4">ch[1]</text>
	<rect x="85" y="60.2" class="st1" width="21.3" height="21.3"/>
	<text transform="matrix(1 0 0 1 87.815 74.204)" class="st2 st3 st4">s[1]</text>
	<rect x="113.3" y="60.2" class="st1" width="21.3" height="21.3"/>
	<text transform="matrix(1 0 0 1 116.1615 74.204)" class="st2 st3 st4">s[2]</text>
	<rect x="141.6" y="60.2" class="st1" width="21.3" height="21.3"/>
	<text transform="matrix(1 0 0 1 144.5079 74.204)" class="st2 st3 st4">s[3]</text>
	<rect x="170" y="60.2" class="st1" width="21.3" height="21.3"/>
	<text transform="matrix(1 0 0 1 172.8544 74.204)" class="st2 st3 st4">s[4]</text>
	<rect x="212.5" y="60.2" class="st1" width="21.3" height="21.3"/>
	<text transform="matrix(1 0 0 1 214.5953 74.204)" class="st2 st3 st4">s[N]</text>
	<text transform="matrix(1 0 0 1 197.5767 71.599)" class="st2 st5 st4">...</text>
	<rect x="53.1" y="56.7" class="st0" width="184.3" height="28.3"/>
	<rect x="10.6" y="53.2" class="st0" width="230.3" height="35.4"/>
</g>
<g>
	<rect x="56.6" y="102.8" class="st1" width="21.3" height="21.3"/>
	<text transform="matrix(1 0 0 1 59.4686 116.7237)" class="st2 st3 st4">s[0]</text>
	<text transform="matrix(1 0 0 1 21.2599 116.7237)" class="st2 st3 st4">ch[2]</text>
	<rect x="85" y="102.8" class="st1" width="21.3" height="21.3"/>
	<text transform="matrix(1 0 0 1 87.815 116.7237)" class="st2 st3 st4">s[1]</text>
	<rect x="113.3" y="102.8" class="st1" width="21.3" height="21.3"/>
	<text transform="matrix(1 0 0 1 116.1615 116.7237)" class="st2 st3 st4">s[2]</text>
	<rect x="141.6" y="102.8" class="st1" width="21.3" height="21.3"/>
	<text transform="matrix(1 0 0 1 144.5079 116.7237)" class="st2 st3 st4">s[3]</text>
	<rect x="170" y="102.8" class="st1" width="21.3" height="21.3"/>
	<text transform="matrix(1 0 0 1 172.8544 116.7237)" class="st2 st3 st4">s[4]</text>
	<rect x="212.5" y="102.8" class="st1" width="21.3" height="21.3"/>
	<text transform="matrix(1 0 0 1 214.5953 116.7237)" class="st2 st3 st4">s[N]</text>
	<text transform="matrix(1 0 0 1 197.5767 114.1187)" class="st2 st5 st4">...</text>
	<rect x="53.1" y="99.3" class="st0" width="184.3" height="28.3"/>
	<rect x="10.6" y="95.7" class="st0" width="230.3" height="35.4"/>
</g>
<g>
	<rect x="56.6" y="145.2" class="st1" width="21.3" height="21.3"/>
	<text transform="matrix(1 0 0 1 59.4686 159.1969)" class="st2 st3 st4">s[0]</text>
	<text transform="matrix(1 0 0 1 21.2599 159.1969)" class="st2 st3 st4">ch[3]</text>
	<rect x="85" y="145.2" class="st1" width="21.3" height="21.3"/>
	<text transform="matrix(1 0 0 1 87.815 159.1969)" class="st2 st3 st4">s[1]</text>
	<rect x="113.3" y="145.2" class="st1" width="21.3" height="21.3"/>
	<text transform="matrix(1 0 0 1 116.1615 159.1969)" class="st2 st3 st4">s[2]</text>
	<rect x="141.6" y="145.2" class="st1" width="21.3" height="21.3"/>
	<text transform="matrix(1 0 0 1 144.5079 159.1969)" class="st2 st3 st4">s[3]</text>
	<rect x="170" y="145.2" class="st1" width="21.3" height="21.3"/>
	<text transform="matrix(1 0 0 1 172.8544 159.1969)" class="st2 st3 st4">s[4]</text>
	<rect x="212.5" y="145.2" class="st1" width="21.3" height="21.3"/>
	<text transform="matrix(1 0 0 1 214.5953 159.1969)" class="st2 st3 st4">s[N]</text>
	<text transform="matrix(1 0 0 1 197.5767 156.5919)" class="st2 st5 st4">...</text>
	<rect x="53.1" y="141.7" class="st0" width="184.3" height="28.3"/>
	<rect x="10.6" y="138.2" class="st0" width="230.3" height="35.4"/>
</g>
</svg>
