<?xml version="1.0" encoding="utf-8"?>
<!-- Generator: Adobe Illustrator 27.0.0, SVG Export Plug-In . SVG Version: 6.00 Build 0)  -->
<svg version="1.1" id="Layer_1" xmlns="http://www.w3.org/2000/svg" xmlns:xlink="http://www.w3.org/1999/xlink" x="0px" y="0px"
	 viewBox="0 0 415.2 1187.4" style="enable-background:new 0 0 415.2 1187.4;" xml:space="preserve">
<g transform="translate(0.000000,640.000000) scale(0.100000,-0.100000)">
	<path d="M4071.3-5413.8v5870v5870h-1995H81.3v-5870v-5870h1995H4071.3z M4051.3-4780.9v-307.3v-307.3h-1975h-1975v408.1v408.1h840
		h840V-4680v-100.9h1135H4051.3z M4051.3-3946.3V-4148v-201.8h-1135h-1135v-105.5v-105.5h-840h-840v412.7v412.7h840h840v-105.5
		v-105.5h1135H4051.3z M4051.3-2900.7v-307.3v-307.3h-1135h-1135v-100.9V-3717h-840h-840v408.1v408.1h1975H4051.3z M4051.3-2277
		v-302.7v-302.7h-1975h-1975v408.1v408.1h845h845v-105.5V-2277h1130H4051.3z M4051.3-1442.3v-201.8v-201.8h-1130h-1130v-100.9
		v-100.9h-845h-845v403.6v403.6h840h840v-100.9v-100.9h1135H4051.3z M4051.3-598.5v-206.4v-206.4h-1135h-1134l-3-100.9
		c-2-55.9-6-100.9-10-100.9c-5,0-381,0-838,0h-830v412.7v412.7h840h840V-493v-105.5h1135H4051.3z M4051.3,437.9V135.2v-302.7h-1135
		h-1135v-100.9v-100.9h-840h-840V34.3v403.6h1975H4051.3z M4051.3,1084.5V780V474.6h-1975h-1975v403.6v403.6h840h840v-95.4V1090
		l43-5.5c23-2.8,534-4.6,1135-2.8L4051.3,1084.5z M4051.3,1923.7V1722v-201.8l-1132-1.8l-1133-2.8l-3-107.3l-3-108.2h-839h-840
		v412.7v412.7l840,1.8l839,2.8l3-103.6l3-102.7h1133H4051.3z M4051.3,2960.2v-302.7v-302.7l-1132-1.8l-1133-2.8l-3-100.9l-3-100.9
		l-839,2.8l-840,1.8v403.6v403.6h1975H4051.3z M4051.3,3593v-307.3v-307.3h-1975h-1975l2,408.1l3,408.1h835h835l5-98.1l5-99.1
		l1133-2.8L4051.3,3593z M4051.3,4418.5v-197.2v-197.2h-1135h-1135v-100.9v-100.9h-840h-840v403.6v403.6h840h840V4524v-105.5h1135
		H4051.3z M4051.3,5266.9v-208.2v-209.1h-1135h-1135v-100.9v-100.9h-840h-840v417.3v417.3h840h839l3-107.3l3-108.2h1133H4051.3z
		 M4051.3,6307.9v-302.7v-302.7l-1132-1.8l-1133-2.8l-3-98.1l-3-99.1h-839h-840v403.6v403.6h1975H4051.3z"/>
</g>
</svg>
